<?xml version="1.0" encoding="UTF-8"?>
<svg version="1.1" xmlns="http://www.w3.org/2000/svg" width="402" height="951">
<path d="M0 0 C1.43444365 0.0056182 2.86889318 0.00987772 4.30334473 0.01286316 C8.01870558 0.02413753 11.73369586 0.05344661 15.44891357 0.0869751 C19.93873947 0.12355627 24.42869159 0.13692037 28.91862488 0.15433502 C35.68558837 0.18310106 42.45174417 0.24070641 49.21875 0.29296875 C49.21875 16.79296875 49.21875 33.29296875 49.21875 50.29296875 C43.61132812 50.36644531 43.61132812 50.36644531 37.890625 50.44140625 C34.1999978 50.49568362 30.50942642 50.55288499 26.81884766 50.61035156 C24.2879669 50.64822651 21.75703986 50.68314477 19.22607422 50.71484375 C-8.78166486 50.81653893 -8.78166486 50.81653893 -36.28125 55.60546875 C-37.1074585 55.82275635 -37.93366699 56.04004395 -38.78491211 56.26391602 C-45.37561598 58.05539444 -51.64115348 60.28135479 -57.78125 63.29296875 C-58.73386719 63.75574219 -59.68648437 64.21851563 -60.66796875 64.6953125 C-66.18613278 67.53344052 -70.74421521 70.67111829 -75.22265625 74.97265625 C-76.78125 76.29296875 -76.78125 76.29296875 -78.78125 76.29296875 C-79.03003906 76.86789063 -79.27882812 77.4428125 -79.53515625 78.03515625 C-80.96148906 80.6195461 -82.64098614 82.3214186 -84.71875 84.41796875 C-99.48125144 100.62823962 -108.55100345 121.96362038 -112.78125 143.29296875 C-113.00554687 144.40414062 -113.22984375 145.5153125 -113.4609375 146.66015625 C-117.43621032 169.80386785 -115.33845988 194.53817721 -101.78125 214.29296875 C-100.976875 213.67421875 -100.976875 213.67421875 -100.15625 213.04296875 C-77.46926104 196.32624004 -52.32126171 191.03252725 -24.59338379 191.3331604 C10.2599473 191.66058785 38.10412779 186.33665117 64.30078125 161.26953125 C82.48482723 143.17553502 94.01200211 117.56405659 97.21875 92.29296875 C98.70375 91.79796875 98.70375 91.79796875 100.21875 91.29296875 C100.45525737 96.88045534 99.66622139 101.65422353 98.21875 107.04296875 C97.99799805 107.86643799 97.77724609 108.68990723 97.54980469 109.53833008 C88.21692075 142.78751842 67.61451687 173.9831818 37.21875 191.29296875 C36.57969727 191.6585791 35.94064453 192.02418945 35.28222656 192.40087891 C19.6048785 201.18378346 3.20768313 204.80454821 -14.40625 207.35546875 C-36.14812815 210.33247244 -36.14812815 210.33247244 -56.40625 218.35546875 C-57.10572754 218.73541992 -57.80520508 219.11537109 -58.52587891 219.50683594 C-67.02235265 224.30507208 -76.13730992 230.51055145 -80.78125 239.29296875 C-73.86666411 245.87445997 -66.85619892 252.16694657 -59.30078125 258.00512695 C-48.24688319 266.54912206 -37.50161943 275.42860578 -27.29296875 284.96875 C-25.22997439 286.87774167 -23.13730363 288.69488265 -20.96875 290.48046875 C-17.14383955 293.73668748 -13.96666651 297.41831007 -10.78125 301.29296875 C-9.52634766 302.80890625 -9.52634766 302.80890625 -8.24609375 304.35546875 C24.21487439 344.21524504 34.96750759 394.8745291 30.50488281 445.53613281 C28.94048091 460.60885144 26.96737467 475.85840768 22.21875 490.29296875 C21.98317383 491.01323242 21.74759766 491.73349609 21.50488281 492.47558594 C13.83819271 515.53337286 1.92712908 535.60558308 -14.78125 553.29296875 C-15.88984687 554.60172895 -16.99415974 555.91413234 -18.09375 557.23046875 C-25.96810089 566.25051041 -35.47437886 573.82360807 -44.78125 581.29296875 C-47.45040219 583.45657848 -50.11563992 585.62499742 -52.78125 587.79296875 C-54.15747897 588.91154829 -55.53377985 590.03003937 -56.91015625 591.1484375 C-57.56902832 591.68388184 -58.22790039 592.21932617 -58.90673828 592.77099609 C-60.580946 594.13033589 -62.25698502 595.48737408 -63.93359375 596.84375 C-69.68618979 601.51521298 -75.28982444 606.31678806 -80.78125 611.29296875 C-75.96413032 623.02628819 -59.66574442 631.41635549 -48.78125 636.04296875 C-37.80944611 639.97179434 -26.08352173 641.44376822 -14.62109375 643.2890625 C1.58586434 645.89870054 16.44489977 648.75451697 31.21875 656.29296875 C32.60320312 656.96972656 32.60320312 656.96972656 34.015625 657.66015625 C64.90145033 673.46013048 85.60612784 703.8200407 96.11425781 736.10205078 C98.51089051 743.80157766 100.56364414 751.18795645 100.21875 759.29296875 C99.22875 758.96296875 98.23875 758.63296875 97.21875 758.29296875 C97.08339844 757.35839844 96.94804687 756.42382812 96.80859375 755.4609375 C93.33805364 733.55439051 84.31744423 713.40944369 70.21875 696.29296875 C69.44789063 695.35710938 68.67703125 694.42125 67.8828125 693.45703125 C51.23270901 674.22050392 27.95051575 661.70462824 2.44921875 659.7355957 C-4.20644959 659.324247 -10.85278612 659.275998 -17.51953125 659.30859375 C-18.21014648 659.3113884 -18.90076172 659.31418304 -19.61230469 659.31706238 C-23.07453347 659.33316054 -26.53571611 659.36288871 -29.99755859 659.41723633 C-55.43906375 659.64829411 -77.81661946 653.02166118 -98.64453125 638.4453125 C-99.70220703 637.87490234 -99.70220703 637.87490234 -100.78125 637.29296875 C-103.96195648 637.99105974 -103.96195648 637.99105974 -105.24609375 640.7421875 C-118.12100106 669.05332319 -117.60160599 699.36389658 -106.78125 728.29296875 C-101.23198945 743.00302815 -93.75467095 756.7892123 -82.7890625 768.1796875 C-80.78125 770.29296875 -80.78125 770.29296875 -78.828125 772.8203125 C-64.02144783 790.70700457 -35.88374809 796.65172863 -13.86328125 798.80932617 C-7.32405311 799.38977577 -0.79996322 799.51722442 5.76171875 799.609375 C7.01132889 799.6301561 8.26093903 799.65093719 9.54841614 799.67234802 C12.83127258 799.72621968 16.11415685 799.7765949 19.39709473 799.82519531 C22.76282508 799.87590928 26.12847871 799.93128719 29.49414062 799.98632812 C36.06894939 800.0935151 42.64381061 800.19305858 49.21875 800.29296875 C49.21875 816.79296875 49.21875 833.29296875 49.21875 850.29296875 C65.71875 850.29296875 82.21875 850.29296875 99.21875 850.29296875 C99.21875 867.12296875 99.21875 883.95296875 99.21875 901.29296875 C82.71875 901.29296875 66.21875 901.29296875 49.21875 901.29296875 C49.21875 884.79296875 49.21875 868.29296875 49.21875 851.29296875 C45.61324219 851.31617188 42.00773437 851.339375 38.29296875 851.36328125 C34.73478547 851.37895452 31.17660628 851.39105538 27.6184082 851.40283203 C25.17763499 851.41278454 22.73687337 851.42635138 20.29614258 851.44384766 C-16.4305177 851.70020291 -16.4305177 851.70020291 -32.46875 847.04296875 C-33.24943848 846.82463379 -34.03012695 846.60629883 -34.83447266 846.38134766 C-56.879479 840.05398752 -77.1343343 830.05024493 -94.78125 815.29296875 C-95.33635254 814.82890625 -95.89145508 814.36484375 -96.46337891 813.88671875 C-118.00869385 795.5845749 -129.60185706 772.53397752 -138.09375 746.16796875 C-146.9500422 718.71049321 -160.58592951 684.52119698 -187.06640625 669.546875 C-193.93865705 666.37278506 -201.22558653 664.77780988 -208.78125 665.29296875 C-209.27625 663.80796875 -209.27625 663.80796875 -209.78125 662.29296875 C-201.29559317 658.08381358 -188.802251 659.34606411 -179.90625 661.85546875 C-164.88440809 667.24065736 -153.34296266 677.66603286 -141.78125 688.29296875 C-141.66120605 687.64972656 -141.54116211 687.00648438 -141.41748047 686.34375 C-137.19799463 664.08328283 -131.3775368 643.17342008 -116.78125 625.29296875 C-118.310702 621.7993784 -120.40741048 619.2824921 -122.90625 616.41796875 C-146.20181614 588.32845974 -151.18692145 551.2031417 -150.9765625 515.94140625 C-150.97281961 514.06141309 -150.9699787 512.18141795 -150.96798706 510.30142212 C-150.96045087 505.41896922 -150.940892 500.53664057 -150.9185791 495.65423584 C-150.89424817 489.76097175 -150.88529188 483.86766547 -150.87367249 477.97436523 C-150.85445894 469.08048072 -150.81606735 460.18686733 -150.78125 451.29296875 C-167.28125 451.29296875 -183.78125 451.29296875 -200.78125 451.29296875 C-200.78125 467.79296875 -200.78125 484.29296875 -200.78125 501.29296875 C-217.28125 501.29296875 -233.78125 501.29296875 -250.78125 501.29296875 C-250.78125 534.29296875 -250.78125 567.29296875 -250.78125 601.29296875 C-267.28125 601.29296875 -283.78125 601.29296875 -300.78125 601.29296875 C-300.78125 567.96296875 -300.78125 534.63296875 -300.78125 500.29296875 C-284.28125 500.29296875 -267.78125 500.29296875 -250.78125 500.29296875 C-250.78125 483.79296875 -250.78125 467.29296875 -250.78125 450.29296875 C-234.28125 450.29296875 -217.78125 450.29296875 -200.78125 450.29296875 C-200.78125 434.12296875 -200.78125 417.95296875 -200.78125 401.29296875 C-217.28125 401.29296875 -233.78125 401.29296875 -250.78125 401.29296875 C-250.78125 384.79296875 -250.78125 368.29296875 -250.78125 351.29296875 C-267.28125 351.29296875 -283.78125 351.29296875 -300.78125 351.29296875 C-300.78125 317.96296875 -300.78125 284.63296875 -300.78125 250.29296875 C-284.28125 250.29296875 -267.78125 250.29296875 -250.78125 250.29296875 C-250.78125 283.29296875 -250.78125 316.29296875 -250.78125 350.29296875 C-234.28125 350.29296875 -217.78125 350.29296875 -200.78125 350.29296875 C-200.78125 366.79296875 -200.78125 383.29296875 -200.78125 400.29296875 C-184.28125 400.29296875 -167.78125 400.29296875 -150.78125 400.29296875 C-150.81605469 394.44707031 -150.85085937 388.60117187 -150.88671875 382.578125 C-150.90209287 378.81834905 -150.91653777 375.05861324 -150.92773438 371.29882812 C-150.94549337 365.36409199 -150.96622463 359.4294979 -151.00756836 353.49487305 C-151.29709262 310.77679169 -150.4801278 265.43243489 -120.62890625 231.52734375 C-118.95458574 229.50258407 -117.83024278 227.68752818 -116.78125 225.29296875 C-117.34972656 224.51695312 -117.91820312 223.7409375 -118.50390625 222.94140625 C-132.02743052 204.16559939 -137.66771917 184.72205304 -141.78125 162.29296875 C-142.21187744 162.73519775 -142.64250488 163.17742676 -143.08618164 163.63305664 C-155.38267004 176.11709872 -172.09277463 189.93713411 -190.4453125 190.55859375 C-192.0989582 190.56384342 -193.75266863 190.55847108 -195.40625 190.54296875 C-196.23898438 190.55070313 -197.07171875 190.5584375 -197.9296875 190.56640625 C-202.32397242 190.55241171 -205.78509394 190.34813472 -209.78125 188.29296875 C-209.12125 187.30296875 -208.46125 186.31296875 -207.78125 185.29296875 C-206.21850877 185.32769633 -204.65577913 185.36720516 -203.09375 185.42578125 C-189.65216366 184.65379825 -179.22347615 176.50612964 -170.2734375 167.1796875 C-153.04103565 147.21927219 -143.29793498 121.76320593 -135.3984375 96.98046875 C-123.48443467 59.73934731 -98.5164385 33.15952197 -64.13452148 15.22485352 C-57.42156565 11.8795689 -50.57187659 9.1910087 -43.46875 6.79296875 C-42.0755957 6.32177612 -42.0755957 6.32177612 -40.65429688 5.84106445 C-27.15827486 1.54056128 -14.12083185 -0.16669311 0 0 Z M-90.78125 250.29296875 C-99.46976466 266.10606542 -101.96446123 280.79079634 -101.875 298.5703125 C-101.87118851 300.01496838 -101.86757277 301.45962479 -101.86413574 302.90428162 C-101.80631119 321.28191456 -101.55682239 339.65857448 -101.31768799 358.0345459 C-101.24484665 363.67370971 -101.17517617 369.31291361 -101.10493469 374.95211029 C-100.99938426 383.39909506 -100.88996732 391.84602149 -100.78125 400.29296875 C-84.28125 400.29296875 -67.78125 400.29296875 -50.78125 400.29296875 C-50.78125 417.12296875 -50.78125 433.95296875 -50.78125 451.29296875 C-67.28125 451.29296875 -83.78125 451.29296875 -100.78125 451.29296875 C-100.96093633 465.06149932 -100.96093633 465.06149932 -101.13671875 478.83007812 C-101.20794879 484.47649735 -101.27955635 490.12290927 -101.35400391 495.76928711 C-101.48463507 505.70960918 -101.60501784 515.64990878 -101.70144653 525.59062767 C-101.75014903 530.55655904 -101.81188788 535.52203894 -101.88614655 540.48765087 C-101.92732547 543.46132608 -101.95513019 546.43501839 -101.97923279 549.40887642 C-101.99903109 551.38754116 -102.03433435 553.3660327 -102.07043457 555.34446716 C-102.14044361 567.40847516 -100.48579427 579.44985365 -95.71875 590.60546875 C-95.21214844 591.81847656 -94.70554688 593.03148437 -94.18359375 594.28125 C-92.83472929 597.37702711 -92.83472929 597.37702711 -90.78125 600.29296875 C-87.57730075 598.79696132 -84.77652875 596.98294143 -81.88671875 594.94921875 C-80.93845215 594.28486816 -79.99018555 593.62051758 -79.01318359 592.93603516 C-78.00852051 592.22882324 -77.00385742 591.52161133 -75.96875 590.79296875 C-69.25001248 586.08429808 -62.52061106 581.41186303 -55.65625 576.91796875 C-48.76282219 572.3734405 -42.20942608 567.47226463 -35.78125 562.29296875 C-35.25321777 561.86935059 -34.72518555 561.44573242 -34.18115234 561.00927734 C3.61694099 530.46988805 21.73975994 493.35509892 27.68359375 445.5546875 C27.97667926 442.45922271 28.13473941 439.40136056 28.21875 436.29296875 C28.23921387 435.56287598 28.25967773 434.8327832 28.28076172 434.08056641 C29.42020445 386.72306648 18.57357472 342.73681959 -14.35693359 307.61230469 C-30.59864821 290.58414915 -49.79083424 277.10143723 -69.39331055 264.22338867 C-75.35418485 260.29459232 -81.08957623 256.18341306 -86.69921875 251.76953125 C-88.62773656 250.10014064 -88.62773656 250.10014064 -90.78125 250.29296875 Z M-150.78125 401.29296875 C-150.78125 417.46296875 -150.78125 433.63296875 -150.78125 450.29296875 C-134.28125 450.29296875 -117.78125 450.29296875 -100.78125 450.29296875 C-100.78125 434.12296875 -100.78125 417.95296875 -100.78125 401.29296875 C-117.28125 401.29296875 -133.78125 401.29296875 -150.78125 401.29296875 Z " fill="#FFFFFF" transform="translate(300.78125,49.70703125)"/>
<path d="M0 0 C16.5 0 33 0 50 0 C50 16.5 50 33 50 50 C33.5 50 17 50 0 50 C0 33.5 0 17 0 0 Z " fill="#FFFFFF" transform="translate(350,0)"/>
</svg>
