<svg width="36" height="36" viewBox="0 0 36 36" fill="none" xmlns="http://www.w3.org/2000/svg">
<path fill-rule="evenodd" clip-rule="evenodd" d="M0.294726 11.1044C-0.0982422 11.4188 -0.0982417 12.0165 0.294726 12.3308L2.33282 13.9613C2.62136 14.1921 3.03179 14.1906 3.31858 13.9576L14.9441 4.51187C15.1276 4.36275 15.2342 4.13887 15.2342 3.90239V0.786772C15.2342 0.128295 14.4725 -0.23779 13.9583 0.173558L0.294726 11.1044ZM3.80524 20.6293C3.51845 20.8623 3.108 20.8638 2.81946 20.6331L0.946735 19.1348C0.55567 18.822 0.55342 18.228 0.942103 17.9121L13.9537 7.34024C14.4669 6.92326 15.2342 7.28847 15.2342 7.94972V10.9695C15.2342 11.206 15.1276 11.4298 14.9441 11.579L3.80524 20.6293ZM1.42875 24.5838C1.04006 24.8996 1.04231 25.4937 1.43338 25.8065L13.9583 35.8264C14.4725 36.2378 15.2342 35.8717 15.2342 35.2133V30.5648V24.2823V15.0168C15.2342 14.3556 14.4669 13.9904 13.9537 14.4073L1.42875 24.5838ZM16.8048 34.9514C16.8048 35.6512 17.6507 36.0015 18.1453 35.5068L35.0966 18.5552C35.4033 18.2486 35.4033 17.7515 35.0966 17.4448L18.1453 0.493624C17.6507 -0.00108249 16.8048 0.349294 16.8048 1.04892V34.9514Z" fill="white"/>
</svg>
