<svg width="36" height="24" viewBox="0 0 36 24" fill="none" xmlns="http://www.w3.org/2000/svg">
<path fill-rule="evenodd" clip-rule="evenodd" d="M13.653 24C12.8021 24.0007 11.973 23.7308 11.2855 23.2292C10.5981 22.7277 10.088 22.0205 9.829 21.21L7.11 12.666H5.44C4.58877 12.6669 3.75935 12.3969 3.07172 11.8951C2.38409 11.3934 1.87391 10.6859 1.615 9.875L0 4.8H6.058L2.863 0H33.137L29.942 4.8H36L34.385 9.876C34.1259 10.6867 33.6157 11.394 32.928 11.8955C32.2404 12.3971 31.4111 12.6669 30.56 12.666H28.89L26.17 21.21C25.911 22.0205 25.4009 22.7277 24.7135 23.2292C24.026 23.7308 23.1969 24.0007 22.346 24H13.653ZM11.6 10.333C11.6 11.622 12.565 12.667 13.756 12.667C14.946 12.667 15.911 11.622 15.911 10.333C15.911 9.045 14.946 8 13.756 8C12.566 8 11.6 9.045 11.6 10.333ZM24.4 10.333C24.4 11.622 23.435 12.667 22.244 12.667C21.054 12.667 20.089 11.622 20.089 10.333C20.089 9.045 21.054 8 22.244 8C23.434 8 24.4 9.045 24.4 10.333Z" fill="#65D9FF"/>
</svg>
