<svg width="32" height="24" viewBox="0 0 32 24" fill="none" xmlns="http://www.w3.org/2000/svg">
<path d="M31.8077 11.7287C31.8367 14.3401 31.2902 16.8354 30.2167 19.2195C28.6837 22.6143 25.0084 25.3902 21.6522 22.4354C18.9151 20.0271 18.4073 15.138 14.3065 14.4223C8.88059 13.7646 8.75002 20.0561 5.20529 20.767C1.25434 21.5698 -0.0561976 14.9252 0.00183357 11.9076C0.0598646 8.88999 0.862628 4.64888 4.29614 4.64888C8.24709 4.64888 8.51306 10.6309 13.5279 10.3069C18.4944 9.9684 18.5814 3.74456 21.8263 1.07997C24.6263 -1.22193 27.9196 0.465804 29.5686 3.23679C31.0968 5.79983 31.769 8.80777 31.8028 11.7287H31.8077Z" fill="#97FDE5"/>
</svg>
