<svg width="492" height="492" viewBox="0 0 492 492" fill="none" xmlns="http://www.w3.org/2000/svg">
<path fill-rule="evenodd" clip-rule="evenodd" d="M88.9971 403.26C88.9973 403.26 88.9976 403.261 88.9978 403.261L88.9982 403.26L89.0027 403.262C89.3411 403.618 89.6832 403.965 90.0291 404.303C114.686 429.194 147.542 445.599 182.199 450.43C193.006 451.423 203.875 450.919 214.621 450.42C217.606 450.282 220.582 450.144 223.545 450.038C232.029 449.631 240.58 449.457 249.134 449.284C257.426 449.115 265.72 448.947 273.958 448.566C351.735 443.326 420.015 418.278 439.319 334.903C439.478 334.308 439.638 333.71 439.798 333.109C443.198 320.371 446.884 306.567 448.575 293.602C451.141 276.808 451.12 259.094 450.919 242.537C449.933 222.105 449.806 202.128 450.31 181.509C447.24 146.203 428.824 113.335 403.867 88.6284C368.193 54.9743 318.028 41.0672 269.916 41.2463C235.518 40.1571 201.706 42.6031 167.67 50.1265C146.171 54.6245 124.63 61.5412 106.32 74.102C75.1943 95.1932 56.8724 129.821 49.5668 165.971L49.5331 166.13C45.7903 183.712 42.2231 200.47 41.4453 218.009C40.4754 234.767 41.2344 252.123 42.3392 268.809C42.6334 272.101 42.9062 275.396 43.179 278.691C44.5804 295.613 45.9815 312.534 50.2647 329.137C57.7381 355.952 69.5834 382.838 88.9917 403.254C88.9932 403.256 88.9948 403.258 88.9963 403.26L88.9971 403.26ZM150.454 409.958C162.248 417.287 174.727 423.616 187.742 428.825C189.743 429.625 191.757 430.458 193.785 431.296C203.5 435.313 213.541 439.465 223.994 440.77C249.541 444.278 275.23 435.598 297.243 423.158C318.857 409.983 335.966 391.734 353.101 373.456C364.521 361.274 375.954 349.08 388.739 338.367C397.702 330.275 406.738 321.523 414.018 311.779C431.678 285.979 444.407 254.649 443.024 222.878C442.846 209.883 437.076 197.649 431.402 186.355C425.134 173.029 418.378 159.969 410.686 147.588C405.666 159.929 397.938 170.79 390.202 181.661C389.777 182.258 389.352 182.855 388.927 183.453C378.834 198.771 371.731 215.449 364.599 232.196C359.986 243.028 355.36 253.89 349.905 264.43C341.805 283.138 333.238 302.839 317.893 316.756C304.83 329.732 286.747 336.605 269.57 343.135C267.363 343.974 265.17 344.807 263.006 345.647C244.511 353.737 226.885 362.476 209.948 373.004C202.113 377.495 194.807 382.741 187.484 388C178.49 394.458 169.469 400.935 159.408 406.058C156.586 407.439 153.584 408.758 150.454 409.958ZM349.675 81.872C335.728 86.4999 322.683 94.3593 309.723 102.168C300.802 107.543 291.921 112.894 282.812 117.151C264.728 126.011 246.615 134.469 227.716 142.281C208.553 149.855 189.335 159.014 174.69 173.66C163.266 184.058 157.504 199.233 151.949 213.858C150.002 218.987 148.08 224.048 145.948 228.812C143.672 233.461 141.455 238.132 139.242 242.796C132.881 256.198 126.546 269.544 118.9 282.171C115.853 287.587 112.113 293.525 108.14 299.833C98.8903 314.517 88.3801 331.203 82.4323 347.959C80.1562 345.09 77.9715 342.201 75.909 339.307C69.2444 328.712 63.6888 317.455 59.0841 305.703C46.7268 275.881 50.1783 241.88 62.8602 212.715C67.6273 201.378 73.4928 189.934 81.2032 180.321C89.7673 169.482 99.7825 159.956 109.776 150.451C116.916 143.66 124.045 136.879 130.626 129.637C136.895 123.488 142.926 116.937 148.977 110.364C167.686 90.0406 186.586 69.5102 213.3 60.0285C260.19 39.7656 310.109 53.6678 349.675 81.872ZM152.096 383.793C138.046 385.976 123.363 387.707 112.033 380.241L112.028 380.241C102.414 370.116 103.721 353.438 106.015 339.403C111.434 312.128 123.629 284.137 144.753 264.676C151.793 258.021 159.271 251.804 167.045 245.983C173.078 241.654 179.975 238.158 186.901 234.646C197.618 229.213 208.403 223.745 216.162 215.109C227.106 204.313 235.246 191.171 243.4 178.007C245.329 174.892 247.259 171.777 249.228 168.69C259.852 152.369 273.101 138 288.389 126.179C307.105 110.641 362.566 92.1289 382.016 110.46C389.439 121.138 388.061 134.568 386.684 147.978C386.562 149.163 386.441 150.348 386.325 151.53C385.334 160.686 384.131 170.46 380.966 179.513C374.708 198.036 361.054 212.514 346.361 224.938C332.471 238.417 315.884 249.067 299.496 259.11C283.485 269.829 270.997 282.919 261.606 299.929C252.717 317.332 242.641 334.896 228.266 348.346C208.415 369.387 180.268 380.599 152.096 383.793Z" fill="url(#paint0_radial_1495_792)"/>
<mask id="mask0_1495_792" style="mask-type:alpha" maskUnits="userSpaceOnUse" x="67" y="60" width="367" height="367">
<ellipse cx="250.736" cy="243.27" rx="182.909" ry="182.771" fill="#D9D9D9"/>
</mask>
<g mask="url(#mask0_1495_792)">
<path d="M88.6963 403.214C56.8638 366.147 100.28 314.694 118.6 282.125C128.907 265.104 136.831 246.775 145.648 228.766C153.858 210.416 158.96 187.658 174.39 173.614C189.034 158.968 208.252 149.809 227.416 142.235C246.315 134.423 264.428 125.965 282.512 117.105C315.221 101.818 344.998 72.4222 384.21 78.4771C406.11 82.3347 419.216 105.88 415.659 126.693C413.39 149.283 400.832 166.23 388.627 183.407C372.005 208.633 363.493 237.549 349.605 264.384C341.505 283.092 332.938 302.793 317.593 316.71C302.852 331.353 281.717 338.225 262.706 345.601C244.211 353.691 226.585 362.43 209.648 372.958C192.191 382.965 177.36 396.718 159.108 406.012C138.264 416.217 107.547 423.024 88.7026 403.216L88.6963 403.214ZM111.733 380.195C123.063 387.661 137.746 385.93 151.796 383.747C179.968 380.553 208.115 369.341 227.966 348.3C242.341 334.85 252.417 317.286 261.306 299.883C270.696 282.873 283.184 269.783 299.196 259.064C315.584 249.021 332.171 238.371 346.061 224.892C360.754 212.468 374.408 197.99 380.666 179.467C383.83 170.414 385.034 160.64 386.025 151.484C387.448 136.916 389.795 122.035 381.716 110.414C362.266 92.0828 306.805 110.595 288.089 126.133C272.801 137.954 259.552 152.323 248.927 168.644C238.641 184.776 229.395 201.713 215.862 215.063C203.089 229.28 182.113 234.912 166.745 245.937C158.971 251.758 151.493 257.975 144.453 264.63C123.329 284.091 111.134 312.082 105.715 339.357C103.421 353.392 102.114 370.07 111.728 380.195L111.733 380.195Z" fill="url(#paint1_radial_1495_792)"/>
</g>
<defs>
<radialGradient id="paint0_radial_1495_792" cx="0" cy="0" r="1" gradientUnits="userSpaceOnUse" gradientTransform="translate(248.529 248.19) rotate(137.264) scale(324.612 284.421)">
<stop offset="0.109375" stop-color="#666BFC"/>
<stop offset="0.401042" stop-color="#9FA8FE"/>
<stop offset="0.489583" stop-color="#91F4E8"/>
<stop offset="0.651042" stop-color="#7E85FD"/>
<stop offset="0.723958" stop-color="#B9C4FF"/>
<stop offset="0.875" stop-color="#3F4CBF"/>
</radialGradient>
<radialGradient id="paint1_radial_1495_792" cx="0" cy="0" r="1" gradientUnits="userSpaceOnUse" gradientTransform="translate(246.796 246.789) rotate(136.045) scale(324.331 129.841)">
<stop offset="0.107714" stop-color="#D3E5FF"/>
<stop offset="0.576122" stop-color="#666BFC"/>
<stop offset="0.713828" stop-color="#B9C4FF"/>
<stop offset="0.914576" stop-color="#3F4CBF"/>
</radialGradient>
</defs>
</svg>
