<svg width="93" height="93" viewBox="0 0 93 93" fill="none" xmlns="http://www.w3.org/2000/svg">
<path d="M86.7784 57.346C86.7865 61.213 86.0279 65.0432 84.5465 68.6152C83.0707 72.1876 80.9029 75.4328 78.1679 78.164C75.4352 80.8997 72.188 83.0675 68.6137 84.5426C65.0505 86.0221 61.2299 86.7825 57.3718 86.78H57.2296C51.0206 86.78 44.8581 84.7559 39.8635 81.077C36.1612 78.3279 33.1528 74.7515 31.0783 70.633C29.0039 66.5146 27.921 61.9683 27.9159 57.3569V35.6555C27.9141 34.6385 28.1138 33.6312 28.5035 32.6918C28.8932 31.7523 29.4651 30.8994 30.1862 30.1823C30.904 29.4636 31.7566 28.8936 32.695 28.5048C33.6334 28.1161 34.6393 27.9163 35.6551 27.9168C36.6708 27.9173 37.6765 28.1181 38.6146 28.5078C39.5526 28.8975 40.4046 29.4684 41.1217 30.1877C42.5796 31.6484 43.3865 33.5904 43.392 35.6528V57.3487C43.3885 59.1828 43.7491 60.9992 44.4529 62.6928C45.1567 64.3864 46.1898 65.9234 47.4921 67.2148C49.442 69.1635 51.9284 70.4872 54.6338 71.0168C57.3445 71.5556 60.1317 71.2794 62.6891 70.2235C65.2379 69.1702 67.4162 67.3832 68.9474 65.0895C70.4901 62.7919 71.3079 60.1168 71.3134 57.3487V13.9568C71.3114 12.9406 71.5104 11.9341 71.8991 10.9952C72.2878 10.0564 72.8585 9.20367 73.5781 8.4863C74.4776 7.58764 75.5847 6.92455 76.8015 6.55571C78.0182 6.18686 79.3072 6.12365 80.5542 6.37165C81.8012 6.61965 82.9679 7.17122 83.951 7.97755C84.9341 8.78388 85.7032 9.8201 86.1904 10.9945C86.5815 11.9382 86.7784 12.9365 86.7784 13.9568V57.346ZM25.7907 25.7813C24.49 27.0747 23.4585 28.613 22.7557 30.3073C22.0529 32.0017 21.6927 33.8185 21.696 35.6528V79.042C21.6985 80.0585 21.4995 81.0654 21.1102 82.0044C20.721 82.9434 20.1494 83.7959 19.4285 84.5125C16.5072 87.4392 11.4087 87.4392 8.48475 84.5125C7.76469 83.7954 7.19382 82.9427 6.80509 82.0038C6.41637 81.0649 6.2175 80.0582 6.21996 79.042V35.6555C6.22603 28.5992 8.76517 21.7797 13.3754 16.4377C16.0961 13.2895 19.453 10.7537 23.225 8.99712C26.9969 7.24059 31.0983 6.30327 35.2588 6.24693C39.4193 6.1906 43.5445 7.01651 47.3626 8.67027C51.1808 10.324 54.6051 12.7681 57.4101 15.8414L57.4539 15.7894L57.4949 15.9453C60.4024 19.1578 62.5638 22.9733 63.8243 27.1188L63.9446 27.5154C64.7132 30.1631 65.1016 32.9011 65.1044 35.6528V57.346C65.1027 58.875 64.6486 60.3693 63.7992 61.6407C62.9498 62.912 61.7432 63.9036 60.3313 64.4905C59.4096 64.8734 58.4358 65.0539 57.4539 65.0649V65.0785C57.4156 65.0785 57.38 65.0676 57.3417 65.0676C56.8494 65.0676 56.3543 65.0348 55.862 64.9363C55.5795 64.8766 55.3009 64.7999 55.0277 64.7066V64.6683C54.8417 64.6081 54.6502 64.578 54.4697 64.5041C53.0574 63.9171 51.8505 62.9251 51.0011 61.6532C50.1517 60.3813 49.6978 58.8864 49.6967 57.3569V37.7097H49.6912V35.65C49.6879 32.8804 48.8612 30.1743 47.3164 27.8755C45.7715 25.5767 43.5782 23.7891 41.015 22.7397C39.3192 22.0282 37.4956 21.6716 35.6567 21.6921C33.8235 21.6893 32.0079 22.0495 30.3146 22.7518C28.6213 23.4541 27.0838 24.4819 25.7907 25.7813ZM88.9037 4.09623C87.6112 2.79762 86.0745 1.76753 84.3822 1.06526C82.6899 0.362986 80.8754 0.00241185 79.0432 0.00429719H79.0377C77.2061 0.00507768 75.3927 0.367967 73.7019 1.07209C72.0111 1.77622 70.4761 2.80769 69.1853 4.10717C67.8898 5.39974 66.8624 6.9355 66.162 8.62626C65.4617 10.317 65.1023 12.1295 65.1044 13.9595V15.5268C60.6615 9.03962 54.2012 4.20071 46.7265 1.76138C39.2517 -0.677946 31.1807 -0.581204 23.7666 2.03659C16.8133 4.48968 10.7956 9.0457 6.54819 15.0728C2.28233 21.0868 -0.00620811 28.2794 1.26485e-05 35.6528V79.042C1.26485e-05 82.7701 1.45243 86.274 4.08921 88.9108C5.38187 90.2113 6.91976 91.2424 8.61379 91.9444C10.3078 92.6463 12.1243 93.0051 13.958 93C15.7916 93.0046 17.6079 92.6456 19.3019 91.9437C20.9959 91.2418 22.5338 90.211 23.8267 88.9108C25.1271 87.6179 26.158 86.08 26.8599 84.386C27.5618 82.692 27.9208 80.8756 27.9159 79.042V77.4856C32.3611 83.9662 38.8198 88.7996 46.291 91.2366C53.7622 93.6735 61.8286 93.5781 69.24 90.9649C76.1915 88.5112 82.2072 83.9552 86.453 77.9287C90.7157 71.9174 93.0031 64.729 92.9984 57.3597V13.9541C92.9998 12.1217 92.6387 10.3071 91.936 8.61479C91.2332 6.92249 90.2027 5.38591 88.9037 4.09349V4.09623Z" fill="url(#paint0_linear_2848_4042)"/>
<defs>
<linearGradient id="paint0_linear_2848_4042" x1="-4.10286" y1="92.3134" x2="92.465" y2="-11.1391" gradientUnits="userSpaceOnUse">
<stop offset="0.05" stop-color="white"/>
<stop offset="0.38" stop-color="#A7B3FF"/>
<stop offset="1" stop-color="#74A4FF"/>
</linearGradient>
</defs>
</svg>
