<?xml version="1.0" encoding="UTF-8"?>
<svg version="1.1" xmlns="http://www.w3.org/2000/svg" width="118" height="118">
<path d="M0 0 C0.93714844 0.4125 1.87429687 0.825 2.83984375 1.25 C18.29685847 8.88095257 27.18928457 21.2452902 33.0546875 37.0546875 C37.79418683 51.82155731 35.75990362 68.78566316 29 82.5 C21.08847663 96.32033893 9.89521792 106.15521479 -5.3125 111.4375 C-21.40418448 115.81024035 -37.08413869 114.50950694 -52 107 C-55.14055653 105.16680264 -58.08311898 103.16866304 -61 101 C-62.010625 100.278125 -63.02125 99.55625 -64.0625 98.8125 C-75.8210131 88.58912611 -81.78157982 72.99103764 -83.3203125 57.84765625 C-83.90060784 42.19902527 -78.86259572 27.47655514 -68.5625 15.6875 C-67.05849615 14.10879398 -65.53907615 12.54453387 -64 11 C-63.45859375 10.43539063 -62.9171875 9.87078125 -62.359375 9.2890625 C-46.56326794 -5.78903969 -19.53295995 -8.69338968 0 0 Z " fill="#FF0420" transform="translate(83,4)"/>
<path d="M0 0 C1.53333984 0.00580078 1.53333984 0.00580078 3.09765625 0.01171875 C5.93936054 0.31269706 7.5745543 0.7389571 9.9375 2.3125 C12.80067015 6.60725523 12.4116288 10.27214614 11.9375 15.3125 C10.75616964 20.78800933 8.95937582 25.29062418 4.9375 29.3125 C0.25503631 32.21603643 -4.72951609 31.82680854 -10.0625 31.3125 C-13.11510421 30.0665391 -14.45211021 29.28318932 -16.1875 26.5234375 C-18.21186419 21.40830298 -16.84618334 15.50923401 -15.05078125 10.4765625 C-11.66528085 3.19293072 -8.41077399 -0.13823017 0 0 Z " fill="#FFF5F6" transform="translate(47.0625,42.6875)"/>
<path d="M0 0 C0.81210938 -0.02900391 1.62421875 -0.05800781 2.4609375 -0.08789062 C6.50982739 -0.13075347 8.72715024 0.00711278 12.29296875 2.08984375 C14.25 4.3125 14.25 4.3125 14.8125 8.1875 C14.53522407 12.43378288 13.03253224 15.06621238 10.25 18.3125 C6.97518151 20.43825937 4.35539833 20.5292952 0.5 20.4375 C-0.48484375 20.41945313 -1.4696875 20.40140625 -2.484375 20.3828125 C-3.23203125 20.35960938 -3.9796875 20.33640625 -4.75 20.3125 C-4.88277344 21.02277344 -5.01554687 21.73304687 -5.15234375 22.46484375 C-5.41724609 23.84349609 -5.41724609 23.84349609 -5.6875 25.25 C-5.86152344 26.16652344 -6.03554687 27.08304688 -6.21484375 28.02734375 C-6.75 30.3125 -6.75 30.3125 -7.75 31.3125 C-10.08297433 31.35342937 -12.41705225 31.35491723 -14.75 31.3125 C-15.11178088 24.76333849 -13.75354618 18.80509799 -12.3125 12.4375 C-12.08240234 11.38046875 -11.85230469 10.3234375 -11.61523438 9.234375 C-9.67016031 0.46180905 -9.08791862 0.10616727 0 0 Z " fill="#FFF7F8" transform="translate(75.75,42.6875)"/>
<path d="M0 0 C2.9375 0.1875 2.9375 0.1875 3.9375 1.1875 C3.92573042 3.1059413 3.82750211 5.02413779 3.6875 6.9375 C3.62046875 7.98421875 3.5534375 9.0309375 3.484375 10.109375 C2.88552598 13.48003949 2.0323757 15.48852061 -0.0625 18.1875 C-3.6875 19.0625 -3.6875 19.0625 -7.0625 19.1875 C-8.69262838 17.55737162 -8.27226456 15.74312555 -8.3125 13.5 C-8.26175099 7.58774037 -6.89364034 0.42205961 0 0 Z " fill="#FF0D28" transform="translate(47.0625,48.8125)"/>
<path d="M0 0 C2.64 0 5.28 0 8 0 C8.6875 2.3125 8.6875 2.3125 9 5 C8 6.8125 8 6.8125 6 8 C2.3125 8.1875 2.3125 8.1875 -1 8 C-0.67 5.36 -0.34 2.72 0 0 Z " fill="#FF132E" transform="translate(73,49)"/>
</svg>
