<?xml version="1.0" encoding="UTF-8"?>
<svg id="Layer_1" data-name="Layer 1" xmlns="http://www.w3.org/2000/svg" version="1.1" viewBox="0 0 2000 2286.57">
  <defs>
    <style>
      .cls-1 {
        fill: #fff;
        stroke-width: 0px;
      }
    </style>
  </defs>
  <path class="cls-1" d="M46.62,1696.3v-838.65l280.48,161.93c28.92,16.7,46.96,47.8,47.1,81.19l1.33,338.42c.37,93.65,50.97,180.94,132.05,227.81l443.39,256.36c5.15,3.24,12.59-.89,12.37-7.07,0,0,0-530.21,0-530.21.54-69.51-13.7-137.89-49.04-197.74-33.21-58.29-81.35-107.44-139.24-141.4,0,0-775.05-455.62-775.05-455.62L1024.69.63l726.28,419.31-207.61,119.87c-28.3,16.65-65.47,16.71-93.85.2-84.47-41.12-253.27-169.48-352.14-160.73-46.46,0-92.11,12.17-132.04,35.19l-520.52,299.87c-5.39,2.83-5.48,11.36-.05,14.23,0,0,382.28,225.48,382.28,225.48,57.61,33.87,123.43,52.13,190.33,52.78,70.47,2.17,140.89-14.74,202.32-49.72,0,0,780.31-442.39,780.31-442.39l-.53,1178.37-726.28,419.32v-323.88c0-33.39,17.93-64.58,46.78-81.38l292.4-170.37c80.92-47.14,131.22-134.6,131.27-228.24l.32-512.18c0-3.06-1.45-5.58-4.09-7.13-2.64-1.54-5.58-1.55-8.25-.03l-463.57,262.84c-59.33,33.63-108.71,82.63-142.8,141.68-33.05,57.23-50.79,122.42-51.31,188.52v903.68L46.62,1696.3Z"/>
</svg>