<svg width="189" height="189" viewBox="0 0 189 189" fill="none" xmlns="http://www.w3.org/2000/svg">
<path d="M30.423 108.445L40.6806 98.1199L48.5669 106.058L30.0685 124.677L0.705078 95.1218L30.0681 65.5673L70.0438 105.804L62.1579 113.741L30.423 81.799L30.0683 81.442L29.7136 81.799L16.8273 94.7692L16.4771 95.1216L16.8273 95.474L29.7136 108.445L30.0683 108.802L30.423 108.445ZM73.023 22.3331L112.998 62.5689L105.112 70.5065L73.3776 38.5651L73.0229 38.2081L72.6682 38.5651L59.7818 51.5354L59.4317 51.8878L59.7818 52.2402L70.044 62.5691L62.1581 70.5064L43.6597 51.8876L73.023 22.3331ZM76.0018 127.675L83.8874 119.738L115.622 151.68L115.977 152.037L116.331 151.68L129.218 138.709L129.568 138.357L129.218 138.005L118.956 127.676L126.842 119.738L145.341 138.356L115.977 167.911L76.0018 127.675ZM126.842 76.5033L158.577 108.445L158.932 108.802L159.287 108.445L172.173 95.4745L172.523 95.1221L172.173 94.7697L159.287 81.7995L158.932 81.4425L158.577 81.7995L148.32 92.1238L140.433 84.1862L158.932 65.5675L188.295 95.1219L158.932 124.677L118.956 84.4406L126.842 76.5033ZM73.3776 151.679L83.6352 141.354L91.5214 149.292L73.023 167.911L43.6597 138.356L83.635 98.1197L91.5213 106.058L59.7818 138.004L59.4317 138.356L59.7818 138.709L72.6682 151.679L73.0229 152.036L73.3776 151.679ZM105.368 92.1196L97.4828 84.1824L129.222 52.2364L129.572 51.884L129.222 51.5315L116.336 38.5613L115.981 38.2043L115.626 38.5613L105.369 48.8857L97.4829 40.9484L115.981 22.3293L145.344 51.8838L105.368 92.1196ZM91.5211 62.8233L62.4104 92.1235L54.5245 84.1862L83.6352 54.8861L91.5211 62.8233ZM76.002 84.4404L83.8879 76.5032L112.998 105.804L105.112 113.741L76.002 84.4404ZM97.4789 127.421L126.589 98.1201L134.476 106.058L105.365 135.358L97.4789 127.421ZM94.6693 30.6563L79.7925 15.6826L94.6693 0.708984L109.546 15.6826L94.6693 30.6563ZM94.6694 188.291L79.7926 173.317L94.6694 158.343L109.546 173.317L94.6694 188.291Z" fill="#D9D9D9"/>
</svg>
