<svg width="38" height="49" viewBox="0 0 38 49" fill="none" xmlns="http://www.w3.org/2000/svg">
<path d="M25.2097 30.6973L31.0048 24.0541V35.4959L37.543 43.52V5.03405L25.2097 19.1514V30.6973Z" fill="white"/>
<path d="M22.2378 22.5531L19.043 26.2102L15.9969 22.7235V34.6L18.8201 38.022L19.043 37.7665L19.2659 38.022L22.2378 34.4196V22.5531Z" fill="white"/>
<path d="M0.542969 5.03405L13.025 19.3217V30.8679L7.08112 24.0541V35.4959L0.542969 43.52V5.03405Z" fill="white"/>
<path d="M26.1017 20.1908V0.873535L25.2101 0.873535L25.2101 20.1908H26.1017Z" fill="white"/>
<path d="M13.0252 21.974L13.0252 0.873556L12.1337 0.873556L12.1337 21.974H13.0252Z" fill="white"/>
<path d="M26.1017 27.9177L26.1017 48.1265H25.2101V27.9177H26.1017Z" fill="white"/>
<path d="M13.0252 48.1265L13.0252 27.3233H12.1337L12.1337 48.1265H13.0252Z" fill="white"/>
</svg>

