<svg width="1512" height="842" viewBox="0 0 1512 842" fill="none" xmlns="http://www.w3.org/2000/svg">
<g clip-path="url(#clip0_1_88)">
<path d="M1015.83 476.874L1577.37 -84.6576C1579.26 -86.5476 1581.23 -88.3242 1583.25 -90V853.69H1272.74L1015.83 596.776C982.721 563.663 982.721 509.987 1015.83 476.887V476.874Z" fill="url(#paint0_linear_1_88)"/>
<path d="M1302.39 76.3938L1100 -126H1561.29V-114.849L1370.04 76.3938C1351.36 95.0796 1321.07 95.0796 1302.39 76.3938Z" fill="url(#paint1_linear_1_88)"/>
<path d="M3.82217e-05 121.428V-90H211.478L1.0081 120.47C0.6805 120.798 0.340238 121.1 3.82217e-05 121.428Z" fill="url(#paint2_linear_1_88)"/>
<path d="M1023.62 683.5L1213.08 844.102H640.987L830.441 683.5C883.79 638.276 970.276 638.276 1023.61 683.5H1023.62Z" fill="url(#paint3_linear_1_88)"/>
</g>
<defs>
<linearGradient id="paint0_linear_1_88" x1="1033.5" y1="179" x2="1481.5" y2="569.5" gradientUnits="userSpaceOnUse">
<stop stop-color="#CCEDFF"/>
<stop offset="1" stop-color="#58BDF6"/>
</linearGradient>
<linearGradient id="paint1_linear_1_88" x1="1171" y1="-167" x2="1475.5" y2="5" gradientUnits="userSpaceOnUse">
<stop stop-color="#CCEDFF"/>
<stop offset="1" stop-color="#58BDF6"/>
</linearGradient>
<linearGradient id="paint2_linear_1_88" x1="-19.341" y1="-56.4966" x2="139.268" y2="35.0676" gradientUnits="userSpaceOnUse">
<stop stop-color="#C7EBFF"/>
<stop offset="1" stop-color="#58BDF6"/>
</linearGradient>
<linearGradient id="paint3_linear_1_88" x1="777.5" y1="624.5" x2="953.793" y2="806.838" gradientUnits="userSpaceOnUse">
<stop stop-color="#CCEDFF"/>
<stop offset="1" stop-color="#58BDF6"/>
</linearGradient>
<clipPath id="clip0_1_88">
<rect width="1512" height="842" fill="white"/>
</clipPath>
</defs>
</svg>
