<svg width="370" height="391" viewBox="0 0 370 391" fill="none" xmlns="http://www.w3.org/2000/svg">
<g clip-path="url(#clip0_3_22)">
<rect width="370" height="391" fill="#000D14"/>
<path d="M293.982 127.785L1152.78 -710.029C1155.67 -712.849 1158.7 -715.5 1161.78 -718V690H686.885L293.982 306.68C243.34 257.275 243.34 177.19 293.982 127.804V127.785Z" fill="url(#paint0_linear_3_22)"/>
<path d="M234.301 308.262L331 390H39L135.699 308.262C162.928 285.246 207.072 285.246 234.295 308.262H234.301Z" fill="url(#paint1_linear_3_22)"/>
<g clip-path="url(#clip1_3_22)">
<path d="M-2.51222 38.9999V-8.00006H44.4878L-2.28818 38.7871C-2.36099 38.8599 -2.43661 38.9271 -2.51222 38.9999Z" fill="url(#paint2_linear_3_22)"/>
<path d="M294.792 53.6612L232.488 -9H374.488V-5.54765L315.617 53.6612C309.864 59.4463 300.54 59.4463 294.792 53.6612Z" fill="url(#paint3_linear_3_22)"/>
</g>
</g>
<defs>
<linearGradient id="paint0_linear_3_22" x1="321" y1="-316.648" x2="991.483" y2="282.42" gradientUnits="userSpaceOnUse">
<stop stop-color="#CCEDFF"/>
<stop offset="1" stop-color="#58BDF6"/>
</linearGradient>
<linearGradient id="paint1_linear_3_22" x1="108.677" y1="278.235" x2="198.391" y2="371.293" gradientUnits="userSpaceOnUse">
<stop stop-color="#CCEDFF"/>
<stop offset="1" stop-color="#58BDF6"/>
</linearGradient>
<linearGradient id="paint2_linear_3_22" x1="-18.0847" y1="10.7132" x2="17.1695" y2="31.0604" gradientUnits="userSpaceOnUse">
<stop stop-color="#C7EBFF"/>
<stop offset="1" stop-color="#58BDF6"/>
</linearGradient>
<linearGradient id="paint3_linear_3_22" x1="254.344" y1="-21.6936" x2="348.338" y2="31.0973" gradientUnits="userSpaceOnUse">
<stop stop-color="#CCEDFF"/>
<stop offset="1" stop-color="#58BDF6"/>
</linearGradient>
<clipPath id="clip0_3_22">
<rect width="370" height="391" fill="white"/>
</clipPath>
<clipPath id="clip1_3_22">
<rect width="370" height="80" fill="white"/>
</clipPath>
</defs>
</svg>
