<svg width="1357" height="662" viewBox="0 0 1357 662" fill="none" xmlns="http://www.w3.org/2000/svg">
<rect x="541.317" y="0.317464" width="276.365" height="52.5058" rx="24.8167" fill="#58BDF6" stroke="white" stroke-width="0.634928"/>
<path d="M562.387 36.36C560.211 36.328 558.491 35.536 557.227 33.984C555.979 32.416 555.339 30.288 555.307 27.6C555.339 24.928 555.987 22.808 557.251 21.24C558.515 19.672 560.227 18.872 562.387 18.84C564.131 18.856 565.579 19.384 566.731 20.424C567.867 21.464 568.563 22.888 568.819 24.696L566.851 25.032C566.611 23.624 566.115 22.552 565.363 21.816C564.611 21.08 563.619 20.712 562.387 20.712C560.803 20.728 559.563 21.344 558.667 22.56C557.771 23.776 557.315 25.456 557.299 27.6C557.315 29.76 557.771 31.448 558.667 32.664C559.547 33.864 560.787 34.472 562.387 34.488C563.683 34.488 564.707 34.088 565.459 33.288C566.211 32.488 566.667 31.32 566.827 29.784L568.867 30.048C568.691 32.016 568.035 33.56 566.899 34.68C565.763 35.784 564.259 36.344 562.387 36.36ZM576.775 36.36C574.951 36.328 573.503 35.712 572.431 34.512C571.375 33.296 570.831 31.672 570.799 29.64C570.831 27.608 571.375 25.984 572.431 24.768C573.503 23.568 574.951 22.952 576.775 22.92C578.599 22.952 580.047 23.568 581.119 24.768C582.191 25.984 582.743 27.608 582.775 29.64C582.743 31.672 582.191 33.296 581.119 34.512C580.047 35.712 578.599 36.328 576.775 36.36ZM576.775 34.608C578.055 34.592 579.055 34.144 579.775 33.264C580.511 32.384 580.887 31.176 580.903 29.64C580.887 28.104 580.511 26.896 579.775 26.016C579.055 25.136 578.055 24.688 576.775 24.672C575.495 24.688 574.495 25.136 573.775 26.016C573.055 26.896 572.687 28.104 572.671 29.64C572.687 31.176 573.055 32.384 573.775 33.264C574.495 34.144 575.495 34.592 576.775 34.608ZM585.436 36V23.28H587.26V24.456H587.308C587.708 23.992 588.228 23.624 588.868 23.352C589.508 23.064 590.18 22.92 590.884 22.92C592.372 22.936 593.548 23.376 594.412 24.24C595.26 25.104 595.692 26.28 595.708 27.768V36H593.836V28.008C593.82 26.968 593.54 26.152 592.996 25.56C592.436 24.984 591.66 24.688 590.668 24.672C589.644 24.688 588.836 25 588.244 25.608C587.636 26.2 587.324 27 587.308 28.008V36H585.436ZM599.828 36V24.96H597.644V23.28H599.828V21.888C599.828 21.056 600.076 20.4 600.572 19.92C601.068 19.456 601.772 19.216 602.684 19.2H604.556V20.952H602.9C602.5 20.952 602.196 21.048 601.988 21.24C601.796 21.448 601.7 21.752 601.7 22.152V23.28H604.916V24.96H601.7V36H599.828ZM606.713 21.048V18.96H608.873V21.048H606.713ZM606.857 36V23.28H608.729V36H606.857ZM617.105 36.36C615.409 36.328 614.041 35.704 613.001 34.488C611.961 33.272 611.425 31.656 611.393 29.64C611.425 27.624 611.961 26.008 613.001 24.792C614.041 23.576 615.409 22.952 617.105 22.92C617.905 22.92 618.625 23.08 619.265 23.4C619.905 23.704 620.433 24.112 620.849 24.624H620.897V18.48H622.769V36H620.969V34.728H620.921C620.489 35.24 619.945 35.64 619.289 35.928C618.617 36.216 617.889 36.36 617.105 36.36ZM617.225 34.608C618.265 34.576 619.129 34.216 619.817 33.528C620.505 32.824 620.865 31.936 620.897 30.864V28.392C620.865 27.336 620.497 26.456 619.793 25.752C619.089 25.064 618.193 24.704 617.105 24.672C615.953 24.688 615.025 25.144 614.321 26.04C613.633 26.92 613.281 28.12 613.265 29.64C613.281 31.16 613.641 32.36 614.345 33.24C615.049 34.136 616.009 34.592 617.225 34.608ZM631.336 36.36C629.544 36.328 628.12 35.712 627.064 34.512C626.024 33.296 625.488 31.672 625.456 29.64C625.488 27.608 626.032 25.984 627.088 24.768C628.144 23.568 629.56 22.952 631.336 22.92C633.08 22.952 634.456 23.536 635.464 24.672C636.488 25.808 637.008 27.328 637.024 29.232V30.192H627.352C627.384 31.44 627.752 32.488 628.456 33.336C629.16 34.184 630.104 34.624 631.288 34.656C632.168 34.672 632.904 34.48 633.496 34.08C634.088 33.696 634.648 33.04 635.176 32.112L636.736 33.048C636.176 34.136 635.448 34.96 634.552 35.52C633.64 36.08 632.568 36.36 631.336 36.36ZM627.4 28.68H635.128C635.08 27.512 634.72 26.552 634.048 25.8C633.376 25.048 632.472 24.656 631.336 24.624C630.216 24.656 629.288 25.064 628.552 25.848C627.832 26.632 627.448 27.576 627.4 28.68ZM639.693 36V23.28H641.517V24.456H641.565C641.965 23.992 642.485 23.624 643.125 23.352C643.765 23.064 644.437 22.92 645.141 22.92C646.629 22.936 647.805 23.376 648.669 24.24C649.517 25.104 649.949 26.28 649.965 27.768V36H648.093V28.008C648.077 26.968 647.797 26.152 647.253 25.56C646.693 24.984 645.917 24.688 644.925 24.672C643.901 24.688 643.093 25 642.501 25.608C641.893 26.2 641.581 27 641.565 28.008V36H639.693ZM658.814 24.96H655.694V33.096C655.694 33.496 655.798 33.792 656.006 33.984C656.214 34.16 656.574 34.248 657.086 34.248H658.142V36H656.942C655.806 36.016 654.998 35.8 654.518 35.352C654.038 34.904 653.806 34.144 653.822 33.072V24.96H651.902V23.28H653.822V20.4H655.694V23.28H658.814V24.96ZM660.971 21.048V18.96H663.131V21.048H660.971ZM661.115 36V23.28H662.987V36H661.115ZM669.827 36.36C668.531 36.344 667.515 36.016 666.779 35.376C666.043 34.752 665.667 33.88 665.651 32.76C665.635 31.688 665.979 30.84 666.683 30.216C667.387 29.592 668.531 29.096 670.115 28.728C671.315 28.44 672.163 28.136 672.659 27.816C673.139 27.48 673.371 27.064 673.355 26.568C673.339 25.976 673.099 25.504 672.635 25.152C672.171 24.8 671.539 24.624 670.739 24.624C669.891 24.624 669.195 24.864 668.651 25.344C668.091 25.824 667.723 26.496 667.547 27.36L665.651 27C665.891 25.736 666.459 24.744 667.355 24.024C668.267 23.304 669.395 22.936 670.739 22.92C672.179 22.936 673.299 23.304 674.099 24.024C674.899 24.76 675.307 25.768 675.323 27.048V36H673.571V34.656H673.523C673.155 35.184 672.651 35.6 672.011 35.904C671.371 36.208 670.643 36.36 669.827 36.36ZM669.971 34.608C671.011 34.592 671.843 34.32 672.467 33.792C673.107 33.248 673.435 32.552 673.451 31.704V28.848H673.403C673.275 29.152 672.995 29.424 672.563 29.664C672.115 29.904 671.467 30.128 670.619 30.336C669.515 30.608 668.723 30.928 668.243 31.296C667.747 31.648 667.507 32.096 667.523 32.64C667.523 33.28 667.731 33.768 668.147 34.104C668.563 34.44 669.171 34.608 669.971 34.608ZM678.365 36V18.48H680.237V36H678.365ZM696.426 36.36C694.25 36.328 692.53 35.536 691.266 33.984C690.018 32.416 689.378 30.288 689.346 27.6C689.378 24.928 690.026 22.808 691.29 21.24C692.554 19.672 694.266 18.872 696.426 18.84C698.17 18.856 699.618 19.384 700.77 20.424C701.906 21.464 702.602 22.888 702.858 24.696L700.89 25.032C700.65 23.624 700.154 22.552 699.402 21.816C698.65 21.08 697.658 20.712 696.426 20.712C694.842 20.728 693.602 21.344 692.706 22.56C691.81 23.776 691.354 25.456 691.338 27.6C691.354 29.76 691.81 31.448 692.706 32.664C693.586 33.864 694.826 34.472 696.426 34.488C697.722 34.488 698.746 34.088 699.498 33.288C700.25 32.488 700.706 31.32 700.866 29.784L702.906 30.048C702.73 32.016 702.074 33.56 700.938 34.68C699.802 35.784 698.298 36.344 696.426 36.36ZM710.814 36.36C708.99 36.328 707.542 35.712 706.47 34.512C705.414 33.296 704.87 31.672 704.838 29.64C704.87 27.608 705.414 25.984 706.47 24.768C707.542 23.568 708.99 22.952 710.814 22.92C712.638 22.952 714.086 23.568 715.158 24.768C716.23 25.984 716.782 27.608 716.814 29.64C716.782 31.672 716.23 33.296 715.158 34.512C714.086 35.712 712.638 36.328 710.814 36.36ZM710.814 34.608C712.094 34.592 713.094 34.144 713.814 33.264C714.55 32.384 714.926 31.176 714.942 29.64C714.926 28.104 714.55 26.896 713.814 26.016C713.094 25.136 712.094 24.688 710.814 24.672C709.534 24.688 708.534 25.136 707.814 26.016C707.094 26.896 706.726 28.104 706.71 29.64C706.726 31.176 707.094 32.384 707.814 33.264C708.534 34.144 709.534 34.592 710.814 34.608ZM719.475 36V23.28H721.323V24.264H721.371C721.723 23.848 722.171 23.52 722.715 23.28C723.275 23.04 723.859 22.92 724.467 22.92C725.203 22.92 725.859 23.072 726.435 23.376C727.011 23.664 727.467 24.056 727.803 24.552H727.851C728.283 24.04 728.803 23.64 729.411 23.352C730.019 23.064 730.683 22.92 731.403 22.92C732.651 22.936 733.691 23.312 734.523 24.048C735.371 24.784 735.811 25.816 735.843 27.144V36H733.971V27.384C733.955 26.552 733.707 25.896 733.227 25.416C732.731 24.936 732.083 24.688 731.283 24.672C730.451 24.688 729.787 24.952 729.291 25.464C728.811 25.992 728.563 26.688 728.547 27.552V36H726.747V27.384C726.731 26.552 726.475 25.896 725.979 25.416C725.499 24.936 724.859 24.688 724.059 24.672C723.227 24.688 722.571 24.952 722.091 25.464C721.611 25.992 721.363 26.696 721.347 27.576V36H719.475ZM738.881 41.4V23.28H740.753V24.624H740.801C741.217 24.112 741.745 23.704 742.385 23.4C743.025 23.08 743.737 22.92 744.521 22.92C746.233 22.952 747.609 23.576 748.649 24.792C749.689 26.008 750.225 27.624 750.257 29.64C750.225 31.656 749.689 33.272 748.649 34.488C747.609 35.704 746.249 36.328 744.569 36.36C743.769 36.344 743.041 36.192 742.385 35.904C741.729 35.6 741.201 35.208 740.801 34.728H740.753V41.4H738.881ZM744.425 34.608C745.641 34.592 746.601 34.136 747.305 33.24C748.009 32.36 748.369 31.16 748.385 29.64C748.369 28.12 748.017 26.92 747.329 26.04C746.625 25.144 745.689 24.688 744.521 24.672C743.433 24.704 742.545 25.064 741.857 25.752C741.153 26.456 740.785 27.336 740.753 28.392V30.864C740.785 31.936 741.145 32.824 741.833 33.528C742.521 34.216 743.385 34.576 744.425 34.608ZM757.191 36.36C755.767 36.344 754.663 35.92 753.879 35.088C753.111 34.272 752.719 33.088 752.703 31.536V23.28H754.575V31.272C754.575 32.392 754.831 33.232 755.343 33.792C755.871 34.336 756.671 34.608 757.743 34.608C758.719 34.592 759.495 34.288 760.071 33.696C760.631 33.088 760.919 32.28 760.935 31.272V23.28H762.807V36H760.983V34.824H760.935C760.535 35.304 760.007 35.68 759.351 35.952C758.695 36.224 757.975 36.36 757.191 36.36ZM771.783 24.96H768.663V33.096C768.663 33.496 768.767 33.792 768.975 33.984C769.183 34.16 769.543 34.248 770.055 34.248H771.111V36H769.911C768.775 36.016 767.967 35.8 767.487 35.352C767.007 34.904 766.775 34.144 766.791 33.072V24.96H764.871V23.28H766.791V20.4H768.663V23.28H771.783V24.96ZM773.94 21.048V18.96H776.1V21.048H773.94ZM774.084 36V23.28H775.956V36H774.084ZM779.1 36V23.28H780.924V24.456H780.972C781.372 23.992 781.892 23.624 782.532 23.352C783.172 23.064 783.844 22.92 784.548 22.92C786.036 22.936 787.212 23.376 788.076 24.24C788.924 25.104 789.356 26.28 789.372 27.768V36H787.5V28.008C787.484 26.968 787.204 26.152 786.66 25.56C786.1 24.984 785.324 24.688 784.332 24.672C783.308 24.688 782.5 25 781.908 25.608C781.3 26.2 780.988 27 780.972 28.008V36H779.1ZM798.148 41.76C796.916 41.744 795.852 41.44 794.956 40.848C794.06 40.24 793.404 39.384 792.988 38.28L794.692 37.512C795.06 38.408 795.516 39.056 796.06 39.456C796.604 39.84 797.3 40.032 798.148 40.032C799.188 40.016 799.996 39.68 800.572 39.024C801.148 38.352 801.436 37.432 801.436 36.264V34.656H801.388C801.004 35.216 800.492 35.64 799.852 35.928C799.212 36.216 798.468 36.36 797.62 36.36C795.908 36.328 794.54 35.696 793.516 34.464C792.492 33.248 791.964 31.64 791.932 29.64C791.964 27.624 792.492 26.008 793.516 24.792C794.556 23.576 795.932 22.952 797.644 22.92C798.396 22.92 799.1 23.072 799.756 23.376C800.396 23.664 800.94 24.08 801.388 24.624H801.436V23.28H803.308V36.384C803.292 38.016 802.82 39.312 801.892 40.272C800.98 41.248 799.732 41.744 798.148 41.76ZM797.764 34.608C798.804 34.576 799.668 34.208 800.356 33.504C801.044 32.8 801.404 31.92 801.436 30.864V28.392C801.404 27.336 801.036 26.456 800.332 25.752C799.628 25.064 798.732 24.704 797.644 24.672C796.476 24.688 795.548 25.144 794.86 26.04C794.172 26.936 793.82 28.136 793.804 29.64C793.82 31.16 794.18 32.36 794.884 33.24C795.588 34.136 796.548 34.592 797.764 34.608Z" fill="#01111A"/>
<rect x="232.317" y="130.317" width="276.365" height="52.5058" rx="24.8167" fill="#58BDF6" stroke="white" stroke-width="0.634928"/>
<path d="M255.531 165.36C253.355 165.328 251.635 164.536 250.371 162.984C249.123 161.416 248.483 159.288 248.451 156.6C248.483 153.928 249.131 151.808 250.395 150.24C251.659 148.672 253.371 147.872 255.531 147.84C257.275 147.856 258.723 148.384 259.875 149.424C261.011 150.464 261.707 151.888 261.963 153.696L259.995 154.032C259.755 152.624 259.259 151.552 258.507 150.816C257.755 150.08 256.763 149.712 255.531 149.712C253.947 149.728 252.707 150.344 251.811 151.56C250.915 152.776 250.459 154.456 250.443 156.6C250.459 158.76 250.915 160.448 251.811 161.664C252.691 162.864 253.931 163.472 255.531 163.488C256.827 163.488 257.851 163.088 258.603 162.288C259.355 161.488 259.811 160.32 259.971 158.784L262.011 159.048C261.835 161.016 261.179 162.56 260.043 163.68C258.907 164.784 257.403 165.344 255.531 165.36ZM269.824 165.36C268.032 165.328 266.608 164.712 265.552 163.512C264.512 162.296 263.976 160.672 263.944 158.64C263.976 156.608 264.52 154.984 265.576 153.768C266.632 152.568 268.048 151.952 269.824 151.92C271.568 151.952 272.944 152.536 273.952 153.672C274.976 154.808 275.496 156.328 275.512 158.232V159.192H265.84C265.872 160.44 266.24 161.488 266.944 162.336C267.648 163.184 268.592 163.624 269.776 163.656C270.656 163.672 271.392 163.48 271.984 163.08C272.576 162.696 273.136 162.04 273.664 161.112L275.224 162.048C274.664 163.136 273.936 163.96 273.04 164.52C272.128 165.08 271.056 165.36 269.824 165.36ZM265.888 157.68H273.616C273.568 156.512 273.208 155.552 272.536 154.8C271.864 154.048 270.96 153.656 269.824 153.624C268.704 153.656 267.776 154.064 267.04 154.848C266.32 155.632 265.936 156.576 265.888 157.68ZM278.182 165V152.28H280.006V153.456H280.054C280.454 152.992 280.974 152.624 281.614 152.352C282.254 152.064 282.926 151.92 283.63 151.92C285.118 151.936 286.294 152.376 287.158 153.24C288.006 154.104 288.438 155.28 288.454 156.768V165H286.582V157.008C286.566 155.968 286.286 155.152 285.742 154.56C285.182 153.984 284.406 153.688 283.414 153.672C282.39 153.688 281.582 154 280.99 154.608C280.382 155.2 280.07 156 280.054 157.008V165H278.182ZM297.302 153.96H294.182V162.096C294.182 162.496 294.286 162.792 294.494 162.984C294.702 163.16 295.062 163.248 295.574 163.248H296.63V165H295.43C294.294 165.016 293.486 164.8 293.006 164.352C292.526 163.904 292.294 163.144 292.31 162.072V153.96H290.39V152.28H292.31V149.4H294.182V152.28H297.302V153.96ZM299.604 165V152.28H301.38V153.336H301.428C301.668 152.936 302.012 152.624 302.46 152.4C302.924 152.176 303.46 152.064 304.068 152.064C304.292 152.064 304.508 152.08 304.716 152.112C304.924 152.144 305.132 152.192 305.34 152.256L304.932 154.2C304.708 154.12 304.5 154.064 304.308 154.032C304.1 154 303.892 153.984 303.684 153.984C302.948 153.968 302.396 154.232 302.028 154.776C301.66 155.32 301.476 156.184 301.476 157.368V165H299.604ZM311.104 165.36C309.808 165.344 308.792 165.016 308.056 164.376C307.32 163.752 306.944 162.88 306.928 161.76C306.912 160.688 307.256 159.84 307.96 159.216C308.664 158.592 309.808 158.096 311.392 157.728C312.592 157.44 313.44 157.136 313.936 156.816C314.416 156.48 314.648 156.064 314.632 155.568C314.616 154.976 314.376 154.504 313.912 154.152C313.448 153.8 312.816 153.624 312.016 153.624C311.168 153.624 310.472 153.864 309.928 154.344C309.368 154.824 309 155.496 308.824 156.36L306.928 156C307.168 154.736 307.736 153.744 308.632 153.024C309.544 152.304 310.672 151.936 312.016 151.92C313.456 151.936 314.576 152.304 315.376 153.024C316.176 153.76 316.584 154.768 316.6 156.048V165H314.848V163.656H314.8C314.432 164.184 313.928 164.6 313.288 164.904C312.648 165.208 311.92 165.36 311.104 165.36ZM311.248 163.608C312.288 163.592 313.12 163.32 313.744 162.792C314.384 162.248 314.712 161.552 314.728 160.704V157.848H314.68C314.552 158.152 314.272 158.424 313.84 158.664C313.392 158.904 312.744 159.128 311.896 159.336C310.792 159.608 310 159.928 309.52 160.296C309.024 160.648 308.784 161.096 308.8 161.64C308.8 162.28 309.008 162.768 309.424 163.104C309.84 163.44 310.448 163.608 311.248 163.608ZM319.643 165V147.48H321.515V165H319.643ZM324.514 150.048V147.96H326.674V150.048H324.514ZM324.658 165V152.28H326.53V165H324.658ZM328.81 165V163.32L336.898 154.008V153.96H329.098V152.28H339.178V153.96L331.09 163.272V163.32H339.37V165H328.81ZM347.074 165.36C345.282 165.328 343.858 164.712 342.802 163.512C341.762 162.296 341.226 160.672 341.194 158.64C341.226 156.608 341.77 154.984 342.826 153.768C343.882 152.568 345.298 151.952 347.074 151.92C348.818 151.952 350.194 152.536 351.202 153.672C352.226 154.808 352.746 156.328 352.762 158.232V159.192H343.09C343.122 160.44 343.49 161.488 344.194 162.336C344.898 163.184 345.842 163.624 347.026 163.656C347.906 163.672 348.642 163.48 349.234 163.08C349.826 162.696 350.386 162.04 350.914 161.112L352.474 162.048C351.914 163.136 351.186 163.96 350.29 164.52C349.378 165.08 348.306 165.36 347.074 165.36ZM343.138 157.68H350.866C350.818 156.512 350.458 155.552 349.786 154.8C349.114 154.048 348.21 153.656 347.074 153.624C345.954 153.656 345.026 154.064 344.29 154.848C343.57 155.632 343.186 156.576 343.138 157.68ZM360.664 165.36C358.968 165.328 357.6 164.704 356.56 163.488C355.52 162.272 354.984 160.656 354.952 158.64C354.984 156.624 355.52 155.008 356.56 153.792C357.6 152.576 358.968 151.952 360.664 151.92C361.464 151.92 362.184 152.08 362.824 152.4C363.464 152.704 363.992 153.112 364.408 153.624H364.456V147.48H366.328V165H364.528V163.728H364.48C364.048 164.24 363.504 164.64 362.848 164.928C362.176 165.216 361.448 165.36 360.664 165.36ZM360.784 163.608C361.824 163.576 362.688 163.216 363.376 162.528C364.064 161.824 364.424 160.936 364.456 159.864V157.392C364.424 156.336 364.056 155.456 363.352 154.752C362.648 154.064 361.752 153.704 360.664 153.672C359.512 153.688 358.584 154.144 357.88 155.04C357.192 155.92 356.84 157.12 356.824 158.64C356.84 160.16 357.2 161.36 357.904 162.24C358.608 163.136 359.568 163.592 360.784 163.608ZM381.363 169.728C379.715 167.904 378.499 166.032 377.715 164.112C376.947 162.192 376.563 160.128 376.563 157.92C376.563 155.712 376.947 153.648 377.715 151.728C378.499 149.808 379.715 147.936 381.363 146.112L382.659 147.168C381.203 148.896 380.155 150.608 379.515 152.304C378.859 154.016 378.539 155.888 378.555 157.92C378.539 159.952 378.859 161.824 379.515 163.536C380.155 165.232 381.203 166.944 382.659 168.672L381.363 169.728ZM385.232 165V148.2H387.2V155.496H394.784V148.2H396.752V165H394.784V157.224H387.2V165H385.232ZM404.104 165.36C402.808 165.344 401.792 165.016 401.056 164.376C400.32 163.752 399.944 162.88 399.928 161.76C399.912 160.688 400.256 159.84 400.96 159.216C401.664 158.592 402.808 158.096 404.392 157.728C405.592 157.44 406.44 157.136 406.936 156.816C407.416 156.48 407.648 156.064 407.632 155.568C407.616 154.976 407.376 154.504 406.912 154.152C406.448 153.8 405.816 153.624 405.016 153.624C404.168 153.624 403.472 153.864 402.928 154.344C402.368 154.824 402 155.496 401.824 156.36L399.928 156C400.168 154.736 400.736 153.744 401.632 153.024C402.544 152.304 403.672 151.936 405.016 151.92C406.456 151.936 407.576 152.304 408.376 153.024C409.176 153.76 409.584 154.768 409.6 156.048V165H407.848V163.656H407.8C407.432 164.184 406.928 164.6 406.288 164.904C405.648 165.208 404.92 165.36 404.104 165.36ZM404.248 163.608C405.288 163.592 406.12 163.32 406.744 162.792C407.384 162.248 407.712 161.552 407.728 160.704V157.848H407.68C407.552 158.152 407.272 158.424 406.84 158.664C406.392 158.904 405.744 159.128 404.896 159.336C403.792 159.608 403 159.928 402.52 160.296C402.024 160.648 401.784 161.096 401.8 161.64C401.8 162.28 402.008 162.768 402.424 163.104C402.84 163.44 403.448 163.608 404.248 163.608ZM412.643 165V152.28H414.419V153.336H414.467C414.707 152.936 415.051 152.624 415.499 152.4C415.963 152.176 416.499 152.064 417.107 152.064C417.331 152.064 417.547 152.08 417.755 152.112C417.963 152.144 418.171 152.192 418.379 152.256L417.971 154.2C417.747 154.12 417.539 154.064 417.347 154.032C417.139 154 416.931 153.984 416.723 153.984C415.987 153.968 415.435 154.232 415.067 154.776C414.699 155.32 414.515 156.184 414.515 157.368V165H412.643ZM425.679 165.36C423.983 165.328 422.615 164.704 421.575 163.488C420.535 162.272 419.999 160.656 419.967 158.64C419.999 156.624 420.535 155.008 421.575 153.792C422.615 152.576 423.983 151.952 425.679 151.92C426.479 151.92 427.199 152.08 427.839 152.4C428.479 152.704 429.007 153.112 429.423 153.624H429.471V147.48H431.343V165H429.543V163.728H429.495C429.063 164.24 428.519 164.64 427.863 164.928C427.191 165.216 426.463 165.36 425.679 165.36ZM425.799 163.608C426.839 163.576 427.703 163.216 428.391 162.528C429.079 161.824 429.439 160.936 429.471 159.864V157.392C429.439 156.336 429.071 155.456 428.367 154.752C427.663 154.064 426.767 153.704 425.679 153.672C424.527 153.688 423.599 154.144 422.895 155.04C422.207 155.92 421.855 157.12 421.839 158.64C421.855 160.16 422.215 161.36 422.919 162.24C423.623 163.136 424.583 163.592 425.799 163.608ZM436.574 165L433.526 152.28H435.374L437.678 162.168H437.726L441.134 152.28H442.838L446.246 162.168H446.294L448.598 152.28H450.446L447.398 165H445.622L442.022 154.608H441.974L438.35 165H436.574ZM456.323 165.36C455.027 165.344 454.011 165.016 453.275 164.376C452.539 163.752 452.163 162.88 452.147 161.76C452.131 160.688 452.475 159.84 453.179 159.216C453.883 158.592 455.027 158.096 456.611 157.728C457.811 157.44 458.659 157.136 459.155 156.816C459.635 156.48 459.867 156.064 459.851 155.568C459.835 154.976 459.595 154.504 459.131 154.152C458.667 153.8 458.035 153.624 457.235 153.624C456.387 153.624 455.691 153.864 455.147 154.344C454.587 154.824 454.219 155.496 454.043 156.36L452.147 156C452.387 154.736 452.955 153.744 453.851 153.024C454.763 152.304 455.891 151.936 457.235 151.92C458.675 151.936 459.795 152.304 460.595 153.024C461.395 153.76 461.803 154.768 461.819 156.048V165H460.067V163.656H460.019C459.651 164.184 459.147 164.6 458.507 164.904C457.867 165.208 457.139 165.36 456.323 165.36ZM456.467 163.608C457.507 163.592 458.339 163.32 458.963 162.792C459.603 162.248 459.931 161.552 459.947 160.704V157.848H459.899C459.771 158.152 459.491 158.424 459.059 158.664C458.611 158.904 457.963 159.128 457.115 159.336C456.011 159.608 455.219 159.928 454.739 160.296C454.243 160.648 454.003 161.096 454.019 161.64C454.019 162.28 454.227 162.768 454.643 163.104C455.059 163.44 455.667 163.608 456.467 163.608ZM464.861 165V152.28H466.637V153.336H466.685C466.925 152.936 467.269 152.624 467.717 152.4C468.181 152.176 468.717 152.064 469.325 152.064C469.549 152.064 469.765 152.08 469.973 152.112C470.181 152.144 470.389 152.192 470.597 152.256L470.189 154.2C469.965 154.12 469.757 154.064 469.565 154.032C469.357 154 469.149 153.984 468.941 153.984C468.205 153.968 467.653 154.232 467.285 154.776C466.917 155.32 466.733 156.184 466.733 157.368V165H464.861ZM478.066 165.36C476.274 165.328 474.85 164.712 473.794 163.512C472.754 162.296 472.218 160.672 472.186 158.64C472.218 156.608 472.762 154.984 473.818 153.768C474.874 152.568 476.29 151.952 478.066 151.92C479.81 151.952 481.186 152.536 482.194 153.672C483.218 154.808 483.738 156.328 483.754 158.232V159.192H474.082C474.114 160.44 474.482 161.488 475.186 162.336C475.89 163.184 476.834 163.624 478.018 163.656C478.898 163.672 479.634 163.48 480.226 163.08C480.818 162.696 481.378 162.04 481.906 161.112L483.466 162.048C482.906 163.136 482.178 163.96 481.282 164.52C480.37 165.08 479.298 165.36 478.066 165.36ZM474.13 157.68H481.858C481.81 156.512 481.45 155.552 480.778 154.8C480.106 154.048 479.202 153.656 478.066 153.624C476.946 153.656 476.018 154.064 475.282 154.848C474.562 155.632 474.178 156.576 474.13 157.68ZM486.64 169.728L485.344 168.672C486.8 166.944 487.848 165.232 488.488 163.536C489.144 161.824 489.464 159.952 489.448 157.92C489.464 155.888 489.144 154.016 488.488 152.304C487.848 150.608 486.8 148.896 485.344 147.168L486.64 146.112C488.288 147.936 489.504 149.808 490.288 151.728C491.056 153.648 491.44 155.712 491.44 157.92C491.44 160.128 491.056 162.192 490.288 164.112C489.504 166.032 488.288 167.904 486.64 169.728Z" fill="#01111A"/>
<rect x="0.359059" y="352.877" width="227.643" height="52.4226" rx="24.7751" fill="#58BDF6" stroke="white" stroke-width="0.718118"/>
<path d="M90.454 389.277V372.477H92.782L100.414 386.181H100.462V372.477H102.454V389.277H100.102L92.47 375.573H92.422V389.277H90.454ZM105.955 374.325V372.237H108.115V374.325H105.955ZM106.099 389.277V376.557H107.971V389.277H106.099ZM116.923 378.237H113.803V386.373C113.803 386.773 113.907 387.069 114.115 387.261C114.323 387.437 114.683 387.525 115.195 387.525H116.251V389.277H115.051C113.915 389.293 113.107 389.077 112.627 388.629C112.147 388.181 111.915 387.421 111.931 386.349V378.237H110.011V376.557H111.931V373.677H113.803V376.557H116.923V378.237ZM119.224 389.277V376.557H121V377.613H121.048C121.288 377.213 121.632 376.901 122.08 376.677C122.544 376.453 123.08 376.341 123.688 376.341C123.912 376.341 124.128 376.357 124.336 376.389C124.544 376.421 124.752 376.469 124.96 376.533L124.552 378.477C124.328 378.397 124.12 378.341 123.928 378.309C123.72 378.277 123.512 378.261 123.304 378.261C122.568 378.245 122.016 378.509 121.648 379.053C121.28 379.597 121.096 380.461 121.096 381.645V389.277H119.224ZM132.525 389.637C130.701 389.605 129.253 388.989 128.181 387.789C127.125 386.573 126.581 384.949 126.549 382.917C126.581 380.885 127.125 379.261 128.181 378.045C129.253 376.845 130.701 376.229 132.525 376.197C134.349 376.229 135.797 376.845 136.869 378.045C137.941 379.261 138.493 380.885 138.525 382.917C138.493 384.949 137.941 386.573 136.869 387.789C135.797 388.989 134.349 389.605 132.525 389.637ZM132.525 387.885C133.805 387.869 134.805 387.421 135.525 386.541C136.261 385.661 136.637 384.453 136.653 382.917C136.637 381.381 136.261 380.173 135.525 379.293C134.805 378.413 133.805 377.965 132.525 377.949C131.245 377.965 130.245 378.413 129.525 379.293C128.805 380.173 128.437 381.381 128.421 382.917C128.437 384.453 128.805 385.661 129.525 386.541C130.245 387.421 131.245 387.869 132.525 387.885Z" fill="#01111A"/>
<rect x="256.008" y="352.877" width="227.643" height="52.4226" rx="24.7751" fill="#58BDF6" stroke="white" stroke-width="0.718118"/>
<path d="M355.232 389.277V374.349H350V372.477H362.456V374.349H357.224V389.277H355.232ZM365.356 389.277V372.477H370.588C372.748 372.493 374.484 373.229 375.796 374.685C377.124 376.125 377.804 378.181 377.836 380.853C377.804 383.797 377.124 385.941 375.796 387.285C374.452 388.629 372.668 389.293 370.444 389.277H365.356ZM367.324 387.405H370.324C372.052 387.421 373.396 386.925 374.356 385.917C375.332 384.893 375.828 383.205 375.844 380.853C375.828 378.709 375.34 377.085 374.38 375.981C373.42 374.893 372.116 374.349 370.468 374.349H367.324V387.405ZM379.165 389.277L384.349 380.757L379.309 372.477H381.637L385.549 379.197H385.597L389.509 372.477H391.837L386.797 380.757L391.957 389.277H389.653L385.597 382.317H385.549L381.493 389.277H379.165Z" fill="#01111A"/>
<rect x="768.747" y="608.888" width="227.643" height="52.4226" rx="24.7751" fill="#58BDF6" stroke="white" stroke-width="0.718118"/>
<path d="M802.197 646V631.072H796.965V629.2H809.421V631.072H804.189V646H802.197ZM813.906 646L810.858 633.28H812.706L815.01 643.168H815.058L818.466 633.28H820.17L823.578 643.168H823.626L825.93 633.28H827.778L824.73 646H822.954L819.354 635.608H819.306L815.682 646H813.906ZM829.815 631.048V628.96H831.975V631.048H829.815ZM829.959 646V633.28H831.831V646H829.959ZM839.895 646.36C838.247 646.344 836.935 645.936 835.959 645.136C834.983 644.32 834.415 643.16 834.255 641.656L836.079 641.32C836.255 642.472 836.647 643.312 837.255 643.84C837.863 644.368 838.743 644.624 839.895 644.608C840.775 644.608 841.463 644.44 841.959 644.104C842.439 643.784 842.687 643.344 842.703 642.784C842.719 642.208 842.471 641.728 841.959 641.344C841.447 640.976 840.527 640.6 839.199 640.216C837.599 639.768 836.471 639.264 835.815 638.704C835.159 638.144 834.839 637.432 834.855 636.568C834.871 635.48 835.287 634.608 836.103 633.952C836.919 633.28 837.983 632.936 839.295 632.92C840.591 632.936 841.671 633.28 842.535 633.952C843.399 634.608 843.959 635.528 844.215 636.712L842.391 637.12C842.167 636.32 841.799 635.712 841.287 635.296C840.759 634.88 840.095 634.672 839.295 634.672C838.511 634.672 837.895 634.84 837.447 635.176C836.983 635.496 836.743 635.936 836.727 636.496C836.711 636.928 836.927 637.296 837.375 637.6C837.839 637.904 838.655 638.224 839.823 638.56C841.567 639.056 842.807 639.624 843.543 640.264C844.263 640.888 844.615 641.704 844.599 642.712C844.583 643.832 844.151 644.712 843.303 645.352C842.471 646.008 841.335 646.344 839.895 646.36ZM852.83 634.96H849.71V643.096C849.71 643.496 849.814 643.792 850.022 643.984C850.23 644.16 850.59 644.248 851.102 644.248H852.158V646H850.958C849.822 646.016 849.014 645.8 848.534 645.352C848.054 644.904 847.822 644.144 847.838 643.072V634.96H845.918V633.28H847.838V630.4H849.71V633.28H852.83V634.96ZM860.531 646.36C858.739 646.328 857.315 645.712 856.259 644.512C855.219 643.296 854.683 641.672 854.651 639.64C854.683 637.608 855.227 635.984 856.283 634.768C857.339 633.568 858.755 632.952 860.531 632.92C862.275 632.952 863.651 633.536 864.659 634.672C865.683 635.808 866.203 637.328 866.219 639.232V640.192H856.547C856.579 641.44 856.947 642.488 857.651 643.336C858.355 644.184 859.299 644.624 860.483 644.656C861.363 644.672 862.099 644.48 862.691 644.08C863.283 643.696 863.843 643.04 864.371 642.112L865.931 643.048C865.371 644.136 864.643 644.96 863.747 645.52C862.835 646.08 861.763 646.36 860.531 646.36ZM856.595 638.68H864.323C864.275 637.512 863.915 636.552 863.243 635.8C862.571 635.048 861.667 634.656 860.531 634.624C859.411 634.656 858.483 635.064 857.747 635.848C857.027 636.632 856.643 637.576 856.595 638.68ZM874.121 646.36C872.425 646.328 871.057 645.704 870.017 644.488C868.977 643.272 868.441 641.656 868.409 639.64C868.441 637.624 868.977 636.008 870.017 634.792C871.057 633.576 872.425 632.952 874.121 632.92C874.921 632.92 875.641 633.08 876.281 633.4C876.921 633.704 877.449 634.112 877.865 634.624H877.913V628.48H879.785V646H877.985V644.728H877.937C877.505 645.24 876.961 645.64 876.305 645.928C875.633 646.216 874.905 646.36 874.121 646.36ZM874.241 644.608C875.281 644.576 876.145 644.216 876.833 643.528C877.521 642.824 877.881 641.936 877.913 640.864V638.392C877.881 637.336 877.513 636.456 876.809 635.752C876.105 635.064 875.209 634.704 874.121 634.672C872.969 634.688 872.041 635.144 871.337 636.04C870.649 636.92 870.297 638.12 870.281 639.64C870.297 641.16 870.657 642.36 871.361 643.24C872.065 644.136 873.025 644.592 874.241 644.608ZM889.9 646V629.2H899.98V631.072H891.868V636.448H899.308V638.224H891.868V644.128H899.98V646H889.9ZM902.873 646V628.48H904.745V646H902.873ZM914.465 646.36C912.289 646.328 910.569 645.536 909.305 643.984C908.057 642.416 907.417 640.288 907.385 637.6C907.417 634.896 908.057 632.768 909.305 631.216C910.569 629.664 912.289 628.872 914.465 628.84C916.177 628.856 917.601 629.36 918.737 630.352C919.873 631.344 920.577 632.688 920.849 634.384L918.881 634.744C918.641 633.416 918.145 632.416 917.393 631.744C916.641 631.056 915.665 630.712 914.465 630.712C912.881 630.728 911.641 631.344 910.745 632.56C909.849 633.776 909.393 635.456 909.377 637.6C909.393 639.744 909.849 641.424 910.745 642.64C911.641 643.856 912.881 644.472 914.465 644.488C915.921 644.472 917.041 644.032 917.825 643.168C918.609 642.304 918.985 641.104 918.953 639.568H914.681V637.696H920.897V639.4C920.881 641.544 920.305 643.232 919.169 644.464C918.017 645.696 916.449 646.328 914.465 646.36ZM927.264 646.36C925.968 646.344 924.952 646.016 924.216 645.376C923.48 644.752 923.104 643.88 923.088 642.76C923.072 641.688 923.416 640.84 924.12 640.216C924.824 639.592 925.968 639.096 927.552 638.728C928.752 638.44 929.6 638.136 930.096 637.816C930.576 637.48 930.808 637.064 930.792 636.568C930.776 635.976 930.536 635.504 930.072 635.152C929.608 634.8 928.976 634.624 928.176 634.624C927.328 634.624 926.632 634.864 926.088 635.344C925.528 635.824 925.16 636.496 924.984 637.36L923.088 637C923.328 635.736 923.896 634.744 924.792 634.024C925.704 633.304 926.832 632.936 928.176 632.92C929.616 632.936 930.736 633.304 931.536 634.024C932.336 634.76 932.744 635.768 932.76 637.048V646H931.008V644.656H930.96C930.592 645.184 930.088 645.6 929.448 645.904C928.808 646.208 928.08 646.36 927.264 646.36ZM927.408 644.608C928.448 644.592 929.28 644.32 929.904 643.792C930.544 643.248 930.872 642.552 930.888 641.704V638.848H930.84C930.712 639.152 930.432 639.424 930 639.664C929.552 639.904 928.904 640.128 928.056 640.336C926.952 640.608 926.16 640.928 925.68 641.296C925.184 641.648 924.944 642.096 924.96 642.64C924.96 643.28 925.168 643.768 925.584 644.104C926 644.44 926.608 644.608 927.408 644.608ZM935.803 646V633.28H937.651V634.264H937.699C938.051 633.848 938.499 633.52 939.043 633.28C939.603 633.04 940.187 632.92 940.795 632.92C941.531 632.92 942.187 633.072 942.763 633.376C943.339 633.664 943.795 634.056 944.131 634.552H944.179C944.611 634.04 945.131 633.64 945.739 633.352C946.347 633.064 947.011 632.92 947.731 632.92C948.979 632.936 950.019 633.312 950.851 634.048C951.699 634.784 952.139 635.816 952.171 637.144V646H950.299V637.384C950.283 636.552 950.035 635.896 949.555 635.416C949.059 634.936 948.411 634.688 947.611 634.672C946.779 634.688 946.115 634.952 945.619 635.464C945.139 635.992 944.891 636.688 944.875 637.552V646H943.075V637.384C943.059 636.552 942.803 635.896 942.307 635.416C941.827 634.936 941.187 634.688 940.387 634.672C939.555 634.688 938.899 634.952 938.419 635.464C937.939 635.992 937.691 636.696 937.675 637.576V646H935.803ZM958.905 646.36C957.609 646.344 956.593 646.016 955.857 645.376C955.121 644.752 954.745 643.88 954.729 642.76C954.713 641.688 955.057 640.84 955.761 640.216C956.465 639.592 957.609 639.096 959.193 638.728C960.393 638.44 961.241 638.136 961.737 637.816C962.217 637.48 962.449 637.064 962.433 636.568C962.417 635.976 962.177 635.504 961.713 635.152C961.249 634.8 960.617 634.624 959.817 634.624C958.969 634.624 958.273 634.864 957.729 635.344C957.169 635.824 956.801 636.496 956.625 637.36L954.729 637C954.969 635.736 955.537 634.744 956.433 634.024C957.345 633.304 958.473 632.936 959.817 632.92C961.257 632.936 962.377 633.304 963.177 634.024C963.977 634.76 964.385 635.768 964.401 637.048V646H962.649V644.656H962.601C962.233 645.184 961.729 645.6 961.089 645.904C960.449 646.208 959.721 646.36 958.905 646.36ZM959.049 644.608C960.089 644.592 960.921 644.32 961.545 643.792C962.185 643.248 962.513 642.552 962.529 641.704V638.848H962.481C962.353 639.152 962.073 639.424 961.641 639.664C961.193 639.904 960.545 640.128 959.697 640.336C958.593 640.608 957.801 640.928 957.321 641.296C956.825 641.648 956.585 642.096 956.601 642.64C956.601 643.28 956.809 643.768 957.225 644.104C957.641 644.44 958.249 644.608 959.049 644.608ZM967.443 646V628.48H969.315V646H967.443Z" fill="#01111A"/>
<rect x="511.655" y="352.877" width="227.643" height="52.4226" rx="24.7751" fill="#58BDF6" stroke="white" stroke-width="0.718118"/>
<path d="M611.182 389.637C609.118 389.637 607.502 389.125 606.334 388.101C605.15 387.093 604.462 385.629 604.27 383.709L606.238 383.373C606.398 384.861 606.886 385.965 607.702 386.685C608.518 387.405 609.686 387.765 611.206 387.765C612.39 387.749 613.326 387.501 614.014 387.021C614.702 386.541 615.054 385.885 615.07 385.053C615.102 384.221 614.766 383.525 614.062 382.965C613.374 382.389 612.166 381.837 610.438 381.309C608.454 380.669 607.062 379.997 606.262 379.293C605.446 378.573 605.054 377.661 605.086 376.557C605.118 375.229 605.622 374.165 606.598 373.365C607.558 372.549 608.846 372.133 610.462 372.117C612.062 372.133 613.406 372.573 614.494 373.437C615.566 374.301 616.254 375.493 616.558 377.013L614.614 377.421C614.342 376.301 613.854 375.453 613.15 374.877C612.446 374.285 611.542 373.989 610.438 373.989C609.398 374.005 608.582 374.237 607.99 374.685C607.382 375.149 607.07 375.773 607.054 376.557C607.038 377.181 607.326 377.717 607.918 378.165C608.526 378.597 609.582 379.045 611.086 379.509C613.246 380.197 614.782 380.965 615.694 381.813C616.622 382.661 617.07 383.733 617.038 385.029C617.006 386.421 616.462 387.533 615.406 388.365C614.35 389.197 612.942 389.621 611.182 389.637ZM626.028 389.637C623.852 389.605 622.132 388.813 620.868 387.261C619.62 385.693 618.98 383.565 618.948 380.877C618.98 378.173 619.62 376.045 620.868 374.493C622.132 372.941 623.852 372.149 626.028 372.117C627.74 372.133 629.164 372.637 630.3 373.629C631.436 374.621 632.14 375.965 632.412 377.661L630.444 378.021C630.204 376.693 629.708 375.693 628.956 375.021C628.204 374.333 627.228 373.989 626.028 373.989C624.444 374.005 623.204 374.621 622.308 375.837C621.412 377.053 620.956 378.733 620.94 380.877C620.956 383.021 621.412 384.701 622.308 385.917C623.204 387.133 624.444 387.749 626.028 387.765C627.484 387.749 628.604 387.309 629.388 386.445C630.172 385.581 630.548 384.381 630.516 382.845H626.244V380.973H632.46V382.677C632.444 384.821 631.868 386.509 630.732 387.741C629.58 388.973 628.012 389.605 626.028 389.637ZM633.787 389.277L638.971 380.757L633.931 372.477H636.259L640.171 379.197H640.219L644.131 372.477H646.459L641.419 380.757L646.579 389.277H644.275L640.219 382.317H640.171L636.115 389.277H633.787Z" fill="#01111A"/>
<rect x="1024.39" y="608.888" width="227.643" height="52.4226" rx="24.7751" fill="#58BDF6" stroke="white" stroke-width="0.718118"/>
<path d="M1117.01 647.559C1114.83 647.527 1113.11 646.735 1111.85 645.183C1110.6 643.615 1109.96 641.487 1109.93 638.799C1109.96 636.127 1110.61 634.007 1111.87 632.439C1113.14 630.871 1114.85 630.071 1117.01 630.039C1118.75 630.055 1120.2 630.583 1121.35 631.623C1122.49 632.663 1123.18 634.087 1123.44 635.895L1121.47 636.231C1121.23 634.823 1120.74 633.751 1119.98 633.015C1119.23 632.279 1118.24 631.911 1117.01 631.911C1115.42 631.927 1114.18 632.543 1113.29 633.759C1112.39 634.975 1111.94 636.655 1111.92 638.799C1111.94 640.959 1112.39 642.647 1113.29 643.863C1114.17 645.063 1115.41 645.671 1117.01 645.687C1118.3 645.687 1119.33 645.287 1120.08 644.487C1120.83 643.687 1121.29 642.519 1121.45 640.983L1123.49 641.247C1123.31 643.215 1122.66 644.759 1121.52 645.879C1120.38 646.983 1118.88 647.543 1117.01 647.559ZM1126.38 647.199V630.399H1128.35V639.111H1128.4L1135.52 630.399H1137.95L1131.83 637.767L1138.62 647.199H1136.2L1130.56 639.303H1130.51L1128.35 641.919V647.199H1126.38ZM1140.79 647.199V630.399H1142.76V639.111H1142.81L1149.94 630.399H1152.36L1146.24 637.767L1153.03 647.199H1150.61L1144.97 639.303H1144.92L1142.76 641.919V647.199H1140.79ZM1160.9 647.559C1158.83 647.559 1157.22 647.047 1156.05 646.023C1154.86 645.015 1154.18 643.551 1153.98 641.631L1155.95 641.295C1156.11 642.783 1156.6 643.887 1157.42 644.607C1158.23 645.327 1159.4 645.687 1160.92 645.687C1162.1 645.671 1163.04 645.423 1163.73 644.943C1164.42 644.463 1164.77 643.807 1164.78 642.975C1164.82 642.143 1164.48 641.447 1163.78 640.887C1163.09 640.311 1161.88 639.759 1160.15 639.231C1158.17 638.591 1156.78 637.919 1155.98 637.215C1155.16 636.495 1154.77 635.583 1154.8 634.479C1154.83 633.151 1155.34 632.087 1156.31 631.287C1157.27 630.471 1158.56 630.055 1160.18 630.039C1161.78 630.055 1163.12 630.495 1164.21 631.359C1165.28 632.223 1165.97 633.415 1166.27 634.935L1164.33 635.343C1164.06 634.223 1163.57 633.375 1162.86 632.799C1162.16 632.207 1161.26 631.911 1160.15 631.911C1159.11 631.927 1158.3 632.159 1157.7 632.607C1157.1 633.071 1156.78 633.695 1156.77 634.479C1156.75 635.103 1157.04 635.639 1157.63 636.087C1158.24 636.519 1159.3 636.967 1160.8 637.431C1162.96 638.119 1164.5 638.887 1165.41 639.735C1166.34 640.583 1166.78 641.655 1166.75 642.951C1166.72 644.343 1166.18 645.455 1165.12 646.287C1164.06 647.119 1162.66 647.543 1160.9 647.559Z" fill="#01111A"/>
<rect x="408.609" y="479.629" width="227.643" height="52.4226" rx="24.7751" fill="#58BDF6" stroke="white" stroke-width="0.718118"/>
<path d="M493.736 515V498.2H500.192C501.68 498.216 502.864 498.616 503.744 499.4C504.624 500.168 505.072 501.216 505.088 502.544C505.088 503.36 504.912 504.072 504.56 504.68C504.224 505.272 503.744 505.712 503.12 506V506.048C503.904 506.336 504.528 506.824 504.992 507.512C505.456 508.216 505.696 509.056 505.712 510.032C505.712 511.664 505.208 512.896 504.2 513.728C503.208 514.576 501.744 515 499.808 515H493.736ZM495.704 505.328H499.832C502.008 505.328 503.096 504.432 503.096 502.64C503.096 501.792 502.824 501.152 502.28 500.72C501.736 500.288 500.92 500.072 499.832 500.072H495.704V505.328ZM495.704 513.128H499.544C501 513.128 502.064 512.88 502.736 512.384C503.408 511.888 503.736 511.104 503.72 510.032C503.736 508.992 503.416 508.24 502.76 507.776C502.104 507.312 501.048 507.08 499.592 507.08H495.704V513.128ZM508.877 515V498.2H514.109C516.269 498.216 518.005 498.952 519.317 500.408C520.645 501.848 521.325 503.904 521.357 506.576C521.325 509.52 520.645 511.664 519.317 513.008C517.973 514.352 516.189 515.016 513.965 515H508.877ZM510.845 513.128H513.845C515.573 513.144 516.917 512.648 517.877 511.64C518.853 510.616 519.349 508.928 519.365 506.576C519.349 504.432 518.861 502.808 517.901 501.704C516.941 500.616 515.637 500.072 513.989 500.072H510.845V513.128ZM530.606 515.36C528.446 515.328 526.734 514.528 525.47 512.96C524.206 511.392 523.558 509.272 523.526 506.6C523.558 503.928 524.206 501.808 525.47 500.24C526.734 498.672 528.446 497.872 530.606 497.84C532.766 497.872 534.478 498.672 535.742 500.24C537.006 501.808 537.654 503.928 537.686 506.6C537.654 509.272 537.006 511.392 535.742 512.96C534.478 514.528 532.766 515.328 530.606 515.36ZM530.606 513.488C532.19 513.472 533.43 512.856 534.326 511.64C535.222 510.424 535.678 508.744 535.694 506.6C535.678 504.456 535.222 502.776 534.326 501.56C533.43 500.344 532.19 499.728 530.606 499.712C529.022 499.728 527.782 500.344 526.886 501.56C525.99 502.776 525.534 504.456 525.518 506.6C525.534 508.744 525.99 510.424 526.886 511.64C527.782 512.856 529.022 513.472 530.606 513.488ZM539.838 515V513.32L549.51 500.12V500.072H540.222V498.2H551.91V499.88L542.262 513.08V513.128H551.67V515H539.838Z" fill="#01111A"/>
<rect x="890.107" y="479.629" width="227.643" height="52.4226" rx="24.7751" fill="#58BDF6" stroke="white" stroke-width="0.718118"/>
<path d="M931.811 515V500.072H926.579V498.2H939.035V500.072H933.803V515H931.811ZM941.455 515V497.48H943.327V503.456H943.375C943.759 502.992 944.263 502.624 944.887 502.352C945.527 502.064 946.199 501.92 946.903 501.92C948.391 501.936 949.559 502.376 950.407 503.24C951.271 504.088 951.711 505.256 951.727 506.744V515H949.855V507.008C949.839 505.968 949.559 505.152 949.015 504.56C948.455 503.984 947.679 503.688 946.687 503.672C945.663 503.688 944.855 504 944.263 504.608C943.655 505.2 943.343 506 943.327 507.008V515H941.455ZM954.768 515V502.28H956.544V503.336H956.592C956.832 502.936 957.176 502.624 957.624 502.4C958.088 502.176 958.624 502.064 959.232 502.064C959.456 502.064 959.672 502.08 959.88 502.112C960.088 502.144 960.296 502.192 960.504 502.256L960.096 504.2C959.872 504.12 959.664 504.064 959.472 504.032C959.264 504 959.056 503.984 958.848 503.984C958.112 503.968 957.56 504.232 957.192 504.776C956.824 505.32 956.64 506.184 956.64 507.368V515H954.768ZM967.973 515.36C966.181 515.328 964.757 514.712 963.701 513.512C962.661 512.296 962.125 510.672 962.093 508.64C962.125 506.608 962.669 504.984 963.725 503.768C964.781 502.568 966.197 501.952 967.973 501.92C969.717 501.952 971.093 502.536 972.101 503.672C973.125 504.808 973.645 506.328 973.661 508.232V509.192H963.989C964.021 510.44 964.389 511.488 965.093 512.336C965.797 513.184 966.741 513.624 967.925 513.656C968.805 513.672 969.541 513.48 970.133 513.08C970.725 512.696 971.285 512.04 971.813 511.112L973.373 512.048C972.813 513.136 972.085 513.96 971.189 514.52C970.277 515.08 969.205 515.36 967.973 515.36ZM964.037 507.68H971.765C971.717 506.512 971.357 505.552 970.685 504.8C970.013 504.048 969.109 503.656 967.973 503.624C966.853 503.656 965.925 504.064 965.189 504.848C964.469 505.632 964.085 506.576 964.037 507.68ZM981.25 515.36C979.602 515.344 978.29 514.936 977.314 514.136C976.338 513.32 975.77 512.16 975.61 510.656L977.434 510.32C977.61 511.472 978.002 512.312 978.61 512.84C979.218 513.368 980.098 513.624 981.25 513.608C982.13 513.608 982.818 513.44 983.314 513.104C983.794 512.784 984.042 512.344 984.058 511.784C984.074 511.208 983.826 510.728 983.314 510.344C982.802 509.976 981.882 509.6 980.554 509.216C978.954 508.768 977.826 508.264 977.17 507.704C976.514 507.144 976.194 506.432 976.21 505.568C976.226 504.48 976.642 503.608 977.458 502.952C978.274 502.28 979.338 501.936 980.65 501.92C981.946 501.936 983.026 502.28 983.89 502.952C984.754 503.608 985.314 504.528 985.57 505.712L983.746 506.12C983.522 505.32 983.154 504.712 982.642 504.296C982.114 503.88 981.45 503.672 980.65 503.672C979.866 503.672 979.25 503.84 978.802 504.176C978.338 504.496 978.098 504.936 978.082 505.496C978.066 505.928 978.282 506.296 978.73 506.6C979.194 506.904 980.01 507.224 981.178 507.56C982.922 508.056 984.162 508.624 984.898 509.264C985.618 509.888 985.97 510.704 985.954 511.712C985.938 512.832 985.506 513.712 984.658 514.352C983.826 515.008 982.69 515.344 981.25 515.36ZM988.377 515V497.48H990.249V503.456H990.297C990.681 502.992 991.185 502.624 991.809 502.352C992.449 502.064 993.121 501.92 993.825 501.92C995.313 501.936 996.481 502.376 997.329 503.24C998.193 504.088 998.633 505.256 998.649 506.744V515H996.777V507.008C996.761 505.968 996.481 505.152 995.937 504.56C995.377 503.984 994.601 503.688 993.609 503.672C992.585 503.688 991.777 504 991.185 504.608C990.577 505.2 990.265 506 990.249 507.008V515H988.377ZM1007.19 515.36C1005.36 515.328 1003.91 514.712 1002.84 513.512C1001.79 512.296 1001.24 510.672 1001.21 508.64C1001.24 506.608 1001.79 504.984 1002.84 503.768C1003.91 502.568 1005.36 501.952 1007.19 501.92C1009.01 501.952 1010.46 502.568 1011.53 503.768C1012.6 504.984 1013.15 506.608 1013.19 508.64C1013.15 510.672 1012.6 512.296 1011.53 513.512C1010.46 514.712 1009.01 515.328 1007.19 515.36ZM1007.19 513.608C1008.47 513.592 1009.47 513.144 1010.19 512.264C1010.92 511.384 1011.3 510.176 1011.31 508.64C1011.3 507.104 1010.92 505.896 1010.19 505.016C1009.47 504.136 1008.47 503.688 1007.19 503.672C1005.91 503.688 1004.91 504.136 1004.19 505.016C1003.47 505.896 1003.1 507.104 1003.08 508.64C1003.1 510.176 1003.47 511.384 1004.19 512.264C1004.91 513.144 1005.91 513.592 1007.19 513.608ZM1015.85 515V497.48H1017.72V515H1015.85ZM1026.09 515.36C1024.4 515.328 1023.03 514.704 1021.99 513.488C1020.95 512.272 1020.41 510.656 1020.38 508.64C1020.41 506.624 1020.95 505.008 1021.99 503.792C1023.03 502.576 1024.4 501.952 1026.09 501.92C1026.89 501.92 1027.61 502.08 1028.25 502.4C1028.89 502.704 1029.42 503.112 1029.84 503.624H1029.89V497.48H1031.76V515H1029.96V513.728H1029.91C1029.48 514.24 1028.93 514.64 1028.28 514.928C1027.61 515.216 1026.88 515.36 1026.09 515.36ZM1026.21 513.608C1027.25 513.576 1028.12 513.216 1028.81 512.528C1029.49 511.824 1029.85 510.936 1029.89 509.864V507.392C1029.85 506.336 1029.49 505.456 1028.78 504.752C1028.08 504.064 1027.18 503.704 1026.09 503.672C1024.94 503.688 1024.01 504.144 1023.31 505.04C1022.62 505.92 1022.27 507.12 1022.25 508.64C1022.27 510.16 1022.63 511.36 1023.33 512.24C1024.04 513.136 1025 513.592 1026.21 513.608ZM1041.87 515V498.2H1043.84V505.496H1051.42V498.2H1053.39V515H1051.42V507.224H1043.84V515H1041.87ZM1057.53 515V498.2H1067.61V500.072H1059.5V505.448H1066.94V507.224H1059.5V513.128H1067.61V515H1057.53Z" fill="#01111A"/>
<rect x="647.019" y="479.629" width="227.643" height="52.4226" rx="24.7751" fill="#58BDF6" stroke="white" stroke-width="0.718118"/>
<path d="M734.549 515.36C732.485 515.36 730.869 514.848 729.701 513.824C728.517 512.816 727.829 511.352 727.637 509.432L729.605 509.096C729.765 510.584 730.253 511.688 731.069 512.408C731.885 513.128 733.053 513.488 734.573 513.488C735.757 513.472 736.693 513.224 737.381 512.744C738.069 512.264 738.421 511.608 738.437 510.776C738.469 509.944 738.133 509.248 737.429 508.688C736.741 508.112 735.533 507.56 733.805 507.032C731.821 506.392 730.429 505.72 729.629 505.016C728.813 504.296 728.421 503.384 728.453 502.28C728.485 500.952 728.989 499.888 729.965 499.088C730.925 498.272 732.213 497.856 733.829 497.84C735.429 497.856 736.773 498.296 737.861 499.16C738.933 500.024 739.621 501.216 739.925 502.736L737.981 503.144C737.709 502.024 737.221 501.176 736.517 500.6C735.813 500.008 734.909 499.712 733.805 499.712C732.765 499.728 731.949 499.96 731.357 500.408C730.749 500.872 730.437 501.496 730.421 502.28C730.405 502.904 730.693 503.44 731.285 503.888C731.893 504.32 732.949 504.768 734.453 505.232C736.613 505.92 738.149 506.688 739.061 507.536C739.989 508.384 740.437 509.456 740.405 510.752C740.373 512.144 739.829 513.256 738.773 514.088C737.717 514.92 736.309 515.344 734.549 515.36ZM743.299 515V498.2H749.779C751.571 498.216 752.955 498.68 753.931 499.592C754.891 500.504 755.379 501.768 755.395 503.384C755.379 505 754.891 506.256 753.931 507.152C752.955 508.048 751.571 508.504 749.779 508.52H745.267V515H743.299ZM745.267 506.648H749.659C750.923 506.648 751.867 506.384 752.491 505.856C753.099 505.328 753.403 504.504 753.403 503.384C753.403 502.264 753.091 501.432 752.467 500.888C751.859 500.344 750.923 500.072 749.659 500.072H745.267V506.648ZM758.064 515V498.2H763.296C765.456 498.216 767.192 498.952 768.504 500.408C769.832 501.848 770.512 503.904 770.544 506.576C770.512 509.52 769.832 511.664 768.504 513.008C767.16 514.352 765.376 515.016 763.152 515H758.064ZM760.032 513.128H763.032C764.76 513.144 766.104 512.648 767.064 511.64C768.04 510.616 768.536 508.928 768.552 506.576C768.536 504.432 768.048 502.808 767.088 501.704C766.128 500.616 764.824 500.072 763.176 500.072H760.032V513.128ZM772.713 515V513.32L782.385 500.12V500.072H773.097V498.2H784.785V499.88L775.137 513.08V513.128H784.545V515H772.713Z" fill="#01111A"/>
<rect x="1128.52" y="479.629" width="227.643" height="52.4226" rx="24.7751" fill="#58BDF6" stroke="white" stroke-width="0.718118"/>
<path d="M1223.66 502V487.072H1218.43V485.2H1230.89V487.072H1225.65V502H1223.66ZM1233.79 502V485.2H1235.75V502H1233.79ZM1239.88 502V485.2H1246.34C1247.82 485.216 1249.01 485.616 1249.89 486.4C1250.77 487.168 1251.22 488.216 1251.23 489.544C1251.23 490.36 1251.06 491.072 1250.7 491.68C1250.37 492.272 1249.89 492.712 1249.26 493V493.048C1250.05 493.336 1250.67 493.824 1251.14 494.512C1251.6 495.216 1251.84 496.056 1251.86 497.032C1251.86 498.664 1251.35 499.896 1250.34 500.728C1249.35 501.576 1247.89 502 1245.95 502H1239.88ZM1241.85 492.328H1245.98C1248.15 492.328 1249.24 491.432 1249.24 489.64C1249.24 488.792 1248.97 488.152 1248.42 487.72C1247.88 487.288 1247.06 487.072 1245.98 487.072H1241.85V492.328ZM1241.85 500.128H1245.69C1247.14 500.128 1248.21 499.88 1248.88 499.384C1249.55 498.888 1249.88 498.104 1249.86 497.032C1249.88 495.992 1249.56 495.24 1248.9 494.776C1248.25 494.312 1247.19 494.08 1245.74 494.08H1241.85V500.128ZM1255.02 502V485.2H1265.1V487.072H1256.99V492.448H1264.43V494.224H1256.99V500.128H1265.1V502H1255.02ZM1146.76 526.334C1145.25 524.662 1144.13 522.946 1143.42 521.186C1142.71 519.426 1142.36 517.534 1142.36 515.51C1142.36 513.486 1142.71 511.594 1143.42 509.834C1144.13 508.074 1145.25 506.358 1146.76 504.686L1147.95 505.654C1146.61 507.238 1145.65 508.807 1145.07 510.362C1144.46 511.931 1144.17 513.647 1144.19 515.51C1144.17 517.373 1144.46 519.089 1145.07 520.658C1145.65 522.213 1146.61 523.782 1147.95 525.366L1146.76 526.334ZM1151.76 522L1148.96 510.34H1150.66L1152.77 519.404H1152.81L1155.94 510.34H1157.5L1160.62 519.404H1160.67L1162.78 510.34H1164.47L1161.68 522H1160.05L1156.75 512.474H1156.71L1153.39 522H1151.76ZM1166.34 508.294V506.38H1168.32V508.294H1166.34ZM1166.47 522V510.34H1168.19V522H1166.47ZM1176.4 511.88H1173.54V519.338C1173.54 519.705 1173.63 519.976 1173.82 520.152C1174.01 520.313 1174.34 520.394 1174.81 520.394H1175.78V522H1174.68C1173.64 522.015 1172.9 521.817 1172.46 521.406C1172.02 520.995 1171.8 520.299 1171.82 519.316V511.88H1170.06V510.34H1171.82V507.7H1173.54V510.34H1176.4V511.88ZM1178.5 522V510.34H1180.18V511.418H1180.22C1180.59 510.993 1181.06 510.655 1181.65 510.406C1182.24 510.142 1182.85 510.01 1183.5 510.01C1184.86 510.025 1185.94 510.428 1186.73 511.22C1187.51 512.012 1187.91 513.09 1187.92 514.454V522H1186.2V514.674C1186.19 513.721 1185.93 512.973 1185.43 512.43C1184.92 511.902 1184.21 511.631 1183.3 511.616C1182.36 511.631 1181.62 511.917 1181.08 512.474C1180.52 513.017 1180.24 513.75 1180.22 514.674V522H1178.5ZM1195.66 522.33C1194.02 522.301 1192.71 521.736 1191.74 520.636C1190.79 519.521 1190.3 518.033 1190.27 516.17C1190.3 514.307 1190.8 512.819 1191.76 511.704C1192.73 510.604 1194.03 510.039 1195.66 510.01C1197.26 510.039 1198.52 510.575 1199.44 511.616C1200.38 512.657 1200.86 514.051 1200.87 515.796V516.676H1192.01C1192.04 517.82 1192.37 518.781 1193.02 519.558C1193.66 520.335 1194.53 520.739 1195.61 520.768C1196.42 520.783 1197.1 520.607 1197.64 520.24C1198.18 519.888 1198.69 519.287 1199.18 518.436L1200.61 519.294C1200.09 520.291 1199.43 521.047 1198.61 521.56C1197.77 522.073 1196.79 522.33 1195.66 522.33ZM1192.05 515.29H1199.13C1199.09 514.219 1198.76 513.339 1198.14 512.65C1197.53 511.961 1196.7 511.601 1195.66 511.572C1194.63 511.601 1193.78 511.975 1193.11 512.694C1192.45 513.413 1192.09 514.278 1192.05 515.29ZM1207.83 522.33C1206.32 522.315 1205.12 521.941 1204.22 521.208C1203.33 520.46 1202.81 519.397 1202.66 518.018L1204.33 517.71C1204.49 518.766 1204.85 519.536 1205.41 520.02C1205.97 520.504 1206.77 520.739 1207.83 520.724C1208.64 520.724 1209.27 520.57 1209.72 520.262C1210.16 519.969 1210.39 519.565 1210.4 519.052C1210.42 518.524 1210.19 518.084 1209.72 517.732C1209.25 517.395 1208.41 517.05 1207.19 516.698C1205.72 516.287 1204.69 515.825 1204.09 515.312C1203.49 514.799 1203.19 514.146 1203.21 513.354C1203.22 512.357 1203.61 511.557 1204.35 510.956C1205.1 510.34 1206.08 510.025 1207.28 510.01C1208.47 510.025 1209.46 510.34 1210.25 510.956C1211.04 511.557 1211.55 512.401 1211.79 513.486L1210.12 513.86C1209.91 513.127 1209.57 512.569 1209.11 512.188C1208.62 511.807 1208.01 511.616 1207.28 511.616C1206.56 511.616 1206 511.77 1205.59 512.078C1205.16 512.371 1204.94 512.775 1204.93 513.288C1204.91 513.684 1205.11 514.021 1205.52 514.3C1205.94 514.579 1206.69 514.872 1207.76 515.18C1209.36 515.635 1210.5 516.155 1211.17 516.742C1211.83 517.314 1212.16 518.062 1212.14 518.986C1212.13 520.013 1211.73 520.819 1210.95 521.406C1210.19 522.007 1209.15 522.315 1207.83 522.33ZM1218.87 522.33C1217.36 522.315 1216.16 521.941 1215.26 521.208C1214.37 520.46 1213.85 519.397 1213.7 518.018L1215.37 517.71C1215.54 518.766 1215.89 519.536 1216.45 520.02C1217.01 520.504 1217.82 520.739 1218.87 520.724C1219.68 520.724 1220.31 520.57 1220.76 520.262C1221.2 519.969 1221.43 519.565 1221.45 519.052C1221.46 518.524 1221.23 518.084 1220.76 517.732C1220.29 517.395 1219.45 517.05 1218.23 516.698C1216.77 516.287 1215.73 515.825 1215.13 515.312C1214.53 514.799 1214.24 514.146 1214.25 513.354C1214.27 512.357 1214.65 511.557 1215.4 510.956C1216.14 510.34 1217.12 510.025 1218.32 510.01C1219.51 510.025 1220.5 510.34 1221.29 510.956C1222.08 511.557 1222.6 512.401 1222.83 513.486L1221.16 513.86C1220.95 513.127 1220.62 512.569 1220.15 512.188C1219.66 511.807 1219.06 511.616 1218.32 511.616C1217.6 511.616 1217.04 511.77 1216.63 512.078C1216.2 512.371 1215.98 512.775 1215.97 513.288C1215.95 513.684 1216.15 514.021 1216.56 514.3C1216.99 514.579 1217.74 514.872 1218.81 515.18C1220.4 515.635 1221.54 516.155 1222.22 516.742C1222.88 517.314 1223.2 518.062 1223.18 518.986C1223.17 520.013 1222.77 520.819 1222 521.406C1221.23 522.007 1220.19 522.315 1218.87 522.33ZM1236.28 522.33C1234.64 522.301 1233.34 521.736 1232.37 520.636C1231.42 519.521 1230.92 518.033 1230.89 516.17C1230.92 514.307 1231.42 512.819 1232.39 511.704C1233.36 510.604 1234.66 510.039 1236.28 510.01C1237.88 510.039 1239.14 510.575 1240.07 511.616C1241.01 512.657 1241.48 514.051 1241.5 515.796V516.676H1232.63C1232.66 517.82 1233 518.781 1233.64 519.558C1234.29 520.335 1235.16 520.739 1236.24 520.768C1237.05 520.783 1237.72 520.607 1238.26 520.24C1238.81 519.888 1239.32 519.287 1239.8 518.436L1241.23 519.294C1240.72 520.291 1240.05 521.047 1239.23 521.56C1238.4 522.073 1237.41 522.33 1236.28 522.33ZM1232.68 515.29H1239.76C1239.72 514.219 1239.39 513.339 1238.77 512.65C1238.15 511.961 1237.33 511.601 1236.28 511.572C1235.26 511.601 1234.41 511.975 1233.73 512.694C1233.07 513.413 1232.72 514.278 1232.68 515.29ZM1243.95 522V510.34H1245.62V511.418H1245.66C1246.03 510.993 1246.51 510.655 1247.09 510.406C1247.68 510.142 1248.29 510.01 1248.94 510.01C1250.3 510.025 1251.38 510.428 1252.17 511.22C1252.95 512.012 1253.35 513.09 1253.36 514.454V522H1251.65V514.674C1251.63 513.721 1251.37 512.973 1250.88 512.43C1250.36 511.902 1249.65 511.631 1248.74 511.616C1247.8 511.631 1247.06 511.917 1246.52 512.474C1245.96 513.017 1245.68 513.75 1245.66 514.674V522H1243.95ZM1261.1 522.33C1259.49 522.301 1258.19 521.736 1257.21 520.636C1256.24 519.521 1255.74 518.033 1255.71 516.17C1255.74 514.307 1256.24 512.819 1257.21 511.704C1258.19 510.604 1259.49 510.039 1261.1 510.01C1262.46 510.025 1263.59 510.406 1264.49 511.154C1265.38 511.902 1265.95 512.936 1266.18 514.256L1264.51 514.608C1264.33 513.64 1263.95 512.899 1263.37 512.386C1262.78 511.873 1262.02 511.616 1261.1 511.616C1259.98 511.631 1259.1 512.049 1258.44 512.87C1257.78 513.677 1257.44 514.777 1257.43 516.17C1257.44 517.563 1257.78 518.663 1258.44 519.47C1259.1 520.291 1259.98 520.709 1261.1 520.724C1262.02 520.724 1262.78 520.467 1263.37 519.954C1263.95 519.441 1264.33 518.7 1264.51 517.732L1266.18 518.084C1265.95 519.389 1265.38 520.423 1264.49 521.186C1263.59 521.934 1262.46 522.315 1261.1 522.33ZM1268.55 522V510.34H1270.17V511.308H1270.22C1270.44 510.941 1270.75 510.655 1271.16 510.45C1271.59 510.245 1272.08 510.142 1272.64 510.142C1272.84 510.142 1273.04 510.157 1273.23 510.186C1273.42 510.215 1273.61 510.259 1273.8 510.318L1273.43 512.1C1273.22 512.027 1273.03 511.975 1272.86 511.946C1272.67 511.917 1272.48 511.902 1272.29 511.902C1271.61 511.887 1271.11 512.129 1270.77 512.628C1270.43 513.127 1270.26 513.919 1270.26 515.004V522H1268.55ZM1276.49 526.95L1278.96 521.01L1274.47 510.34H1276.29L1279.84 519.03H1279.88L1283.44 510.34H1285.27L1278.27 526.95H1276.49ZM1286.94 526.95V510.34H1288.65V511.572H1288.7C1289.08 511.103 1289.56 510.729 1290.15 510.45C1290.74 510.157 1291.39 510.01 1292.11 510.01C1293.68 510.039 1294.94 510.611 1295.89 511.726C1296.84 512.841 1297.34 514.322 1297.36 516.17C1297.34 518.018 1296.84 519.499 1295.89 520.614C1294.94 521.729 1293.69 522.301 1292.15 522.33C1291.42 522.315 1290.75 522.176 1290.15 521.912C1289.55 521.633 1289.06 521.274 1288.7 520.834H1288.65V526.95H1286.94ZM1292.02 520.724C1293.13 520.709 1294.01 520.291 1294.66 519.47C1295.3 518.663 1295.63 517.563 1295.65 516.17C1295.63 514.777 1295.31 513.677 1294.68 512.87C1294.04 512.049 1293.18 511.631 1292.11 511.616C1291.11 511.645 1290.3 511.975 1289.66 512.606C1289.02 513.251 1288.68 514.058 1288.65 515.026V517.292C1288.68 518.275 1289.01 519.089 1289.64 519.734C1290.27 520.365 1291.07 520.695 1292.02 520.724ZM1305.15 511.88H1302.29V519.338C1302.29 519.705 1302.39 519.976 1302.58 520.152C1302.77 520.313 1303.1 520.394 1303.57 520.394H1304.54V522H1303.44C1302.39 522.015 1301.65 521.817 1301.21 521.406C1300.77 520.995 1300.56 520.299 1300.58 519.316V511.88H1298.82V510.34H1300.58V507.7H1302.29V510.34H1305.15V511.88ZM1307.13 508.294V506.38H1309.11V508.294H1307.13ZM1307.26 522V510.34H1308.98V522H1307.26ZM1316.9 522.33C1315.22 522.301 1313.9 521.736 1312.91 520.636C1311.95 519.521 1311.45 518.033 1311.42 516.17C1311.45 514.307 1311.95 512.819 1312.91 511.704C1313.9 510.604 1315.22 510.039 1316.9 510.01C1318.57 510.039 1319.9 510.604 1320.88 511.704C1321.86 512.819 1322.37 514.307 1322.4 516.17C1322.37 518.033 1321.86 519.521 1320.88 520.636C1319.9 521.736 1318.57 522.301 1316.9 522.33ZM1316.9 520.724C1318.07 520.709 1318.99 520.299 1319.65 519.492C1320.32 518.685 1320.67 517.578 1320.68 516.17C1320.67 514.762 1320.32 513.655 1319.65 512.848C1318.99 512.041 1318.07 511.631 1316.9 511.616C1315.72 511.631 1314.81 512.041 1314.15 512.848C1313.49 513.655 1313.15 514.762 1313.13 516.17C1313.15 517.578 1313.49 518.685 1314.15 519.492C1314.81 520.299 1315.72 520.709 1316.9 520.724ZM1324.83 522V510.34H1326.51V511.418H1326.55C1326.92 510.993 1327.39 510.655 1327.98 510.406C1328.57 510.142 1329.18 510.01 1329.83 510.01C1331.19 510.025 1332.27 510.428 1333.06 511.22C1333.84 512.012 1334.24 513.09 1334.25 514.454V522H1332.53V514.674C1332.52 513.721 1332.26 512.973 1331.76 512.43C1331.25 511.902 1330.54 511.631 1329.63 511.616C1328.69 511.631 1327.95 511.917 1327.41 512.474C1326.85 513.017 1326.57 513.75 1326.55 514.674V522H1324.83ZM1337.24 526.334L1336.05 525.366C1337.38 523.782 1338.34 522.213 1338.93 520.658C1339.53 519.089 1339.82 517.373 1339.81 515.51C1339.82 513.647 1339.53 511.931 1338.93 510.362C1338.34 508.807 1337.38 507.238 1336.05 505.654L1337.24 504.686C1338.75 506.358 1339.86 508.074 1340.58 509.834C1341.28 511.594 1341.64 513.486 1341.64 515.51C1341.64 517.534 1341.28 519.426 1340.58 521.186C1339.86 522.946 1338.75 524.662 1337.24 526.334Z" fill="#01111A"/>
<rect x="1036.32" y="233.317" width="276.365" height="52.5058" rx="24.8167" fill="#58BDF6" stroke="white" stroke-width="0.634928"/>
<path d="M1076.02 268V251.2H1086.1V253.072H1077.99V258.448H1085.43V260.224H1077.99V266.128H1086.1V268H1076.02ZM1088.99 268V255.28H1090.81V256.456H1090.86C1091.26 255.992 1091.78 255.624 1092.42 255.352C1093.06 255.064 1093.73 254.92 1094.44 254.92C1095.93 254.936 1097.1 255.376 1097.97 256.24C1098.81 257.104 1099.25 258.28 1099.26 259.768V268H1097.39V260.008C1097.37 258.968 1097.09 258.152 1096.55 257.56C1095.99 256.984 1095.21 256.688 1094.22 256.672C1093.2 256.688 1092.39 257 1091.8 257.608C1091.19 258.2 1090.88 259 1090.86 260.008V268H1088.99ZM1107.7 268.36C1105.94 268.328 1104.53 267.712 1103.45 266.512C1102.4 265.296 1101.85 263.672 1101.82 261.64C1101.85 259.608 1102.4 257.984 1103.45 256.768C1104.53 255.568 1105.94 254.952 1107.7 254.92C1109.19 254.936 1110.42 255.352 1111.4 256.168C1112.37 256.984 1112.99 258.112 1113.25 259.552L1111.42 259.936C1111.23 258.88 1110.81 258.072 1110.17 257.512C1109.53 256.952 1108.71 256.672 1107.7 256.672C1106.49 256.688 1105.52 257.144 1104.8 258.04C1104.08 258.92 1103.71 260.12 1103.69 261.64C1103.71 263.16 1104.08 264.36 1104.8 265.24C1105.52 266.136 1106.49 266.592 1107.7 266.608C1108.71 266.608 1109.53 266.328 1110.17 265.768C1110.81 265.208 1111.23 264.4 1111.42 263.344L1113.25 263.728C1112.99 265.152 1112.37 266.28 1111.4 267.112C1110.42 267.928 1109.19 268.344 1107.7 268.36ZM1115.83 268V255.28H1117.6V256.336H1117.65C1117.89 255.936 1118.23 255.624 1118.68 255.4C1119.15 255.176 1119.68 255.064 1120.29 255.064C1120.51 255.064 1120.73 255.08 1120.94 255.112C1121.15 255.144 1121.35 255.192 1121.56 255.256L1121.15 257.2C1120.93 257.12 1120.72 257.064 1120.53 257.032C1120.32 257 1120.11 256.984 1119.91 256.984C1119.17 256.968 1118.62 257.232 1118.25 257.776C1117.88 258.32 1117.7 259.184 1117.7 260.368V268H1115.83ZM1124.49 273.4L1127.18 266.92L1122.29 255.28H1124.28L1128.14 264.76H1128.19L1132.08 255.28H1134.07L1126.44 273.4H1124.49ZM1135.89 273.4V255.28H1137.76V256.624H1137.81C1138.22 256.112 1138.75 255.704 1139.39 255.4C1140.03 255.08 1140.74 254.92 1141.53 254.92C1143.24 254.952 1144.62 255.576 1145.66 256.792C1146.7 258.008 1147.23 259.624 1147.26 261.64C1147.23 263.656 1146.7 265.272 1145.66 266.488C1144.62 267.704 1143.26 268.328 1141.58 268.36C1140.78 268.344 1140.05 268.192 1139.39 267.904C1138.74 267.6 1138.21 267.208 1137.81 266.728H1137.76V273.4H1135.89ZM1141.43 266.608C1142.65 266.592 1143.61 266.136 1144.31 265.24C1145.02 264.36 1145.38 263.16 1145.39 261.64C1145.38 260.12 1145.02 258.92 1144.34 258.04C1143.63 257.144 1142.7 256.688 1141.53 256.672C1140.44 256.704 1139.55 257.064 1138.86 257.752C1138.16 258.456 1137.79 259.336 1137.76 260.392V262.864C1137.79 263.936 1138.15 264.824 1138.84 265.528C1139.53 266.216 1140.39 266.576 1141.43 266.608ZM1155.76 256.96H1152.64V265.096C1152.64 265.496 1152.74 265.792 1152.95 265.984C1153.16 266.16 1153.52 266.248 1154.03 266.248H1155.09V268H1153.89C1152.75 268.016 1151.94 267.8 1151.46 267.352C1150.98 266.904 1150.75 266.144 1150.77 265.072V256.96H1148.85V255.28H1150.77V252.4H1152.64V255.28H1155.76V256.96ZM1163.46 268.36C1161.67 268.328 1160.24 267.712 1159.19 266.512C1158.15 265.296 1157.61 263.672 1157.58 261.64C1157.61 259.608 1158.16 257.984 1159.21 256.768C1160.27 255.568 1161.68 254.952 1163.46 254.92C1165.2 254.952 1166.58 255.536 1167.59 256.672C1168.61 257.808 1169.13 259.328 1169.15 261.232V262.192H1159.48C1159.51 263.44 1159.88 264.488 1160.58 265.336C1161.28 266.184 1162.23 266.624 1163.41 266.656C1164.29 266.672 1165.03 266.48 1165.62 266.08C1166.21 265.696 1166.77 265.04 1167.3 264.112L1168.86 265.048C1168.3 266.136 1167.57 266.96 1166.68 267.52C1165.76 268.08 1164.69 268.36 1163.46 268.36ZM1159.52 260.68H1167.25C1167.2 259.512 1166.84 258.552 1166.17 257.8C1165.5 257.048 1164.6 256.656 1163.46 256.624C1162.34 256.656 1161.41 257.064 1160.68 257.848C1159.96 258.632 1159.57 259.576 1159.52 260.68ZM1177.05 268.36C1175.35 268.328 1173.99 267.704 1172.95 266.488C1171.91 265.272 1171.37 263.656 1171.34 261.64C1171.37 259.624 1171.91 258.008 1172.95 256.792C1173.99 255.576 1175.35 254.952 1177.05 254.92C1177.85 254.92 1178.57 255.08 1179.21 255.4C1179.85 255.704 1180.38 256.112 1180.79 256.624H1180.84V250.48H1182.71V268H1180.91V266.728H1180.87C1180.43 267.24 1179.89 267.64 1179.23 267.928C1178.56 268.216 1177.83 268.36 1177.05 268.36ZM1177.17 266.608C1178.21 266.576 1179.07 266.216 1179.76 265.528C1180.45 264.824 1180.81 263.936 1180.84 262.864V260.392C1180.81 259.336 1180.44 258.456 1179.74 257.752C1179.03 257.064 1178.14 256.704 1177.05 256.672C1175.9 256.688 1174.97 257.144 1174.27 258.04C1173.58 258.92 1173.23 260.12 1173.21 261.64C1173.23 263.16 1173.59 264.36 1174.29 265.24C1174.99 266.136 1175.95 266.592 1177.17 266.608ZM1196.84 268V253.072H1191.61V251.2H1204.06V253.072H1198.83V268H1196.84ZM1205.02 268L1209.39 261.52L1205.16 255.28H1207.37L1210.49 260.056H1210.54L1213.68 255.28H1215.89L1211.64 261.52L1216.03 268H1213.83L1210.54 262.984H1210.49L1207.23 268H1205.02ZM1217.85 268.912L1216.53 268.36L1225.1 250.24L1226.44 250.84L1217.85 268.912ZM1228.9 268V251.2H1234.13C1236.29 251.216 1238.03 251.952 1239.34 253.408C1240.67 254.848 1241.35 256.904 1241.38 259.576C1241.35 262.52 1240.67 264.664 1239.34 266.008C1238 267.352 1236.21 268.016 1233.99 268H1228.9ZM1230.87 266.128H1233.87C1235.6 266.144 1236.94 265.648 1237.9 264.64C1238.88 263.616 1239.37 261.928 1239.39 259.576C1239.37 257.432 1238.88 255.808 1237.92 254.704C1236.96 253.616 1235.66 253.072 1234.01 253.072H1230.87V266.128ZM1247.75 268.36C1246.45 268.344 1245.44 268.016 1244.7 267.376C1243.96 266.752 1243.59 265.88 1243.57 264.76C1243.56 263.688 1243.9 262.84 1244.6 262.216C1245.31 261.592 1246.45 261.096 1248.04 260.728C1249.24 260.44 1250.08 260.136 1250.58 259.816C1251.06 259.48 1251.29 259.064 1251.28 258.568C1251.26 257.976 1251.02 257.504 1250.56 257.152C1250.09 256.8 1249.46 256.624 1248.66 256.624C1247.81 256.624 1247.12 256.864 1246.57 257.344C1246.01 257.824 1245.64 258.496 1245.47 259.36L1243.57 259C1243.81 257.736 1244.38 256.744 1245.28 256.024C1246.19 255.304 1247.32 254.936 1248.66 254.92C1250.1 254.936 1251.22 255.304 1252.02 256.024C1252.82 256.76 1253.23 257.768 1253.24 259.048V268H1251.49V266.656H1251.44C1251.08 267.184 1250.57 267.6 1249.93 267.904C1249.29 268.208 1248.56 268.36 1247.75 268.36ZM1247.89 266.608C1248.93 266.592 1249.76 266.32 1250.39 265.792C1251.03 265.248 1251.36 264.552 1251.37 263.704V260.848H1251.32C1251.2 261.152 1250.92 261.424 1250.48 261.664C1250.04 261.904 1249.39 262.128 1248.54 262.336C1247.44 262.608 1246.64 262.928 1246.16 263.296C1245.67 263.648 1245.43 264.096 1245.44 264.64C1245.44 265.28 1245.65 265.768 1246.07 266.104C1246.48 266.44 1247.09 266.608 1247.89 266.608ZM1262.1 256.96H1258.98V265.096C1258.98 265.496 1259.08 265.792 1259.29 265.984C1259.5 266.16 1259.86 266.248 1260.37 266.248H1261.42V268H1260.22C1259.09 268.016 1258.28 267.8 1257.8 267.352C1257.32 266.904 1257.09 266.144 1257.1 265.072V256.96H1255.18V255.28H1257.1V252.4H1258.98V255.28H1262.1V256.96ZM1268.09 268.36C1266.8 268.344 1265.78 268.016 1265.04 267.376C1264.31 266.752 1263.93 265.88 1263.92 264.76C1263.9 263.688 1264.24 262.84 1264.95 262.216C1265.65 261.592 1266.8 261.096 1268.38 260.728C1269.58 260.44 1270.43 260.136 1270.92 259.816C1271.4 259.48 1271.64 259.064 1271.62 258.568C1271.6 257.976 1271.36 257.504 1270.9 257.152C1270.44 256.8 1269.8 256.624 1269 256.624C1268.16 256.624 1267.46 256.864 1266.92 257.344C1266.36 257.824 1265.99 258.496 1265.81 259.36L1263.92 259C1264.16 257.736 1264.72 256.744 1265.62 256.024C1266.53 255.304 1267.66 254.936 1269 254.92C1270.44 254.936 1271.56 255.304 1272.36 256.024C1273.16 256.76 1273.57 257.768 1273.59 259.048V268H1271.84V266.656H1271.79C1271.42 267.184 1270.92 267.6 1270.28 267.904C1269.64 268.208 1268.91 268.36 1268.09 268.36ZM1268.24 266.608C1269.28 266.592 1270.11 266.32 1270.73 265.792C1271.37 265.248 1271.7 264.552 1271.72 263.704V260.848H1271.67C1271.54 261.152 1271.26 261.424 1270.83 261.664C1270.38 261.904 1269.73 262.128 1268.88 262.336C1267.78 262.608 1266.99 262.928 1266.51 263.296C1266.01 263.648 1265.77 264.096 1265.79 264.64C1265.79 265.28 1266 265.768 1266.41 266.104C1266.83 266.44 1267.44 266.608 1268.24 266.608Z" fill="#01111A"/>
<rect x="234.317" y="233.317" width="276.365" height="52.5058" rx="24.8167" fill="#58BDF6" stroke="white" stroke-width="0.634928"/>
<path d="M355.198 270V255.072H349.966V253.2H362.422V255.072H357.19V270H355.198ZM365.323 270V253.2H375.403V255.072H367.291V260.448H374.731V262.224H367.291V268.128H375.403V270H365.323ZM378.776 270V253.2H388.856V255.072H380.744V260.448H388.184V262.224H380.744V268.128H388.856V270H378.776Z" fill="#01111A"/>
<rect x="738.317" y="233.317" width="276.365" height="52.5058" rx="24.8167" fill="#58BDF6" stroke="white" stroke-width="0.634928"/>
<path d="M774.213 269V254.072H768.981V252.2H781.437V254.072H776.205V269H774.213ZM783.857 269V251.48H785.729V257.456H785.777C786.161 256.992 786.665 256.624 787.289 256.352C787.929 256.064 788.601 255.92 789.305 255.92C790.793 255.936 791.961 256.376 792.809 257.24C793.673 258.088 794.113 259.256 794.129 260.744V269H792.257V261.008C792.241 259.968 791.961 259.152 791.417 258.56C790.857 257.984 790.081 257.688 789.089 257.672C788.065 257.688 787.257 258 786.665 258.608C786.057 259.2 785.745 260 785.729 261.008V269H783.857ZM797.17 269V256.28H798.946V257.336H798.994C799.234 256.936 799.578 256.624 800.026 256.4C800.49 256.176 801.026 256.064 801.634 256.064C801.858 256.064 802.074 256.08 802.282 256.112C802.49 256.144 802.698 256.192 802.906 256.256L802.498 258.2C802.274 258.12 802.066 258.064 801.874 258.032C801.666 258 801.458 257.984 801.25 257.984C800.514 257.968 799.962 258.232 799.594 258.776C799.226 259.32 799.042 260.184 799.042 261.368V269H797.17ZM810.375 269.36C808.583 269.328 807.159 268.712 806.103 267.512C805.063 266.296 804.527 264.672 804.495 262.64C804.527 260.608 805.071 258.984 806.127 257.768C807.183 256.568 808.599 255.952 810.375 255.92C812.119 255.952 813.495 256.536 814.503 257.672C815.527 258.808 816.047 260.328 816.063 262.232V263.192H806.391C806.423 264.44 806.791 265.488 807.495 266.336C808.199 267.184 809.143 267.624 810.327 267.656C811.207 267.672 811.943 267.48 812.535 267.08C813.127 266.696 813.687 266.04 814.215 265.112L815.775 266.048C815.215 267.136 814.487 267.96 813.591 268.52C812.679 269.08 811.607 269.36 810.375 269.36ZM806.439 261.68H814.167C814.119 260.512 813.759 259.552 813.087 258.8C812.415 258.048 811.511 257.656 810.375 257.624C809.255 257.656 808.327 258.064 807.591 258.848C806.871 259.632 806.487 260.576 806.439 261.68ZM823.652 269.36C822.004 269.344 820.692 268.936 819.716 268.136C818.74 267.32 818.172 266.16 818.012 264.656L819.836 264.32C820.012 265.472 820.404 266.312 821.012 266.84C821.62 267.368 822.5 267.624 823.652 267.608C824.532 267.608 825.22 267.44 825.716 267.104C826.196 266.784 826.444 266.344 826.46 265.784C826.476 265.208 826.228 264.728 825.716 264.344C825.204 263.976 824.284 263.6 822.956 263.216C821.356 262.768 820.228 262.264 819.572 261.704C818.916 261.144 818.596 260.432 818.612 259.568C818.628 258.48 819.044 257.608 819.86 256.952C820.676 256.28 821.74 255.936 823.052 255.92C824.348 255.936 825.428 256.28 826.292 256.952C827.156 257.608 827.716 258.528 827.972 259.712L826.148 260.12C825.924 259.32 825.556 258.712 825.044 258.296C824.516 257.88 823.852 257.672 823.052 257.672C822.268 257.672 821.652 257.84 821.204 258.176C820.74 258.496 820.5 258.936 820.484 259.496C820.468 259.928 820.684 260.296 821.132 260.6C821.596 260.904 822.412 261.224 823.58 261.56C825.324 262.056 826.564 262.624 827.3 263.264C828.02 263.888 828.372 264.704 828.356 265.712C828.34 266.832 827.908 267.712 827.06 268.352C826.228 269.008 825.092 269.344 823.652 269.36ZM830.779 269V251.48H832.651V257.456H832.699C833.083 256.992 833.587 256.624 834.211 256.352C834.851 256.064 835.523 255.92 836.227 255.92C837.715 255.936 838.883 256.376 839.731 257.24C840.595 258.088 841.035 259.256 841.051 260.744V269H839.179V261.008C839.163 259.968 838.883 259.152 838.339 258.56C837.779 257.984 837.003 257.688 836.011 257.672C834.987 257.688 834.179 258 833.587 258.608C832.979 259.2 832.667 260 832.651 261.008V269H830.779ZM849.588 269.36C847.764 269.328 846.316 268.712 845.244 267.512C844.188 266.296 843.644 264.672 843.612 262.64C843.644 260.608 844.188 258.984 845.244 257.768C846.316 256.568 847.764 255.952 849.588 255.92C851.412 255.952 852.86 256.568 853.932 257.768C855.004 258.984 855.556 260.608 855.588 262.64C855.556 264.672 855.004 266.296 853.932 267.512C852.86 268.712 851.412 269.328 849.588 269.36ZM849.588 267.608C850.868 267.592 851.868 267.144 852.588 266.264C853.324 265.384 853.7 264.176 853.716 262.64C853.7 261.104 853.324 259.896 852.588 259.016C851.868 258.136 850.868 257.688 849.588 257.672C848.308 257.688 847.308 258.136 846.588 259.016C845.868 259.896 845.5 261.104 845.484 262.64C845.5 264.176 845.868 265.384 846.588 266.264C847.308 267.144 848.308 267.592 849.588 267.608ZM858.248 269V251.48H860.12V269H858.248ZM868.496 269.36C866.8 269.328 865.432 268.704 864.392 267.488C863.352 266.272 862.816 264.656 862.784 262.64C862.816 260.624 863.352 259.008 864.392 257.792C865.432 256.576 866.8 255.952 868.496 255.92C869.296 255.92 870.016 256.08 870.656 256.4C871.296 256.704 871.824 257.112 872.24 257.624H872.288V251.48H874.16V269H872.36V267.728H872.312C871.88 268.24 871.336 268.64 870.68 268.928C870.008 269.216 869.28 269.36 868.496 269.36ZM868.616 267.608C869.656 267.576 870.52 267.216 871.208 266.528C871.896 265.824 872.256 264.936 872.288 263.864V261.392C872.256 260.336 871.888 259.456 871.184 258.752C870.48 258.064 869.584 257.704 868.496 257.672C867.344 257.688 866.416 258.144 865.712 259.04C865.024 259.92 864.672 261.12 864.656 262.64C864.672 264.16 865.032 265.36 865.736 266.24C866.44 267.136 867.4 267.592 868.616 267.608ZM889.963 269.36C887.899 269.36 886.283 268.848 885.115 267.824C883.931 266.816 883.243 265.352 883.051 263.432L885.019 263.096C885.179 264.584 885.667 265.688 886.483 266.408C887.299 267.128 888.467 267.488 889.987 267.488C891.171 267.472 892.107 267.224 892.795 266.744C893.483 266.264 893.835 265.608 893.851 264.776C893.883 263.944 893.547 263.248 892.843 262.688C892.155 262.112 890.947 261.56 889.219 261.032C887.235 260.392 885.843 259.72 885.043 259.016C884.227 258.296 883.835 257.384 883.867 256.28C883.899 254.952 884.403 253.888 885.379 253.088C886.339 252.272 887.627 251.856 889.243 251.84C890.843 251.856 892.187 252.296 893.275 253.16C894.347 254.024 895.035 255.216 895.339 256.736L893.395 257.144C893.123 256.024 892.635 255.176 891.931 254.6C891.227 254.008 890.323 253.712 889.219 253.712C888.179 253.728 887.363 253.96 886.771 254.408C886.163 254.872 885.851 255.496 885.835 256.28C885.819 256.904 886.107 257.44 886.699 257.888C887.307 258.32 888.363 258.768 889.867 259.232C892.027 259.92 893.563 260.688 894.475 261.536C895.403 262.384 895.851 263.456 895.819 264.752C895.787 266.144 895.243 267.256 894.187 268.088C893.131 268.92 891.723 269.344 889.963 269.36ZM898.088 254.048V251.96H900.248V254.048H898.088ZM898.232 269V256.28H900.104V269H898.232ZM908.984 274.76C907.752 274.744 906.688 274.44 905.792 273.848C904.896 273.24 904.24 272.384 903.824 271.28L905.528 270.512C905.896 271.408 906.352 272.056 906.896 272.456C907.44 272.84 908.136 273.032 908.984 273.032C910.024 273.016 910.832 272.68 911.408 272.024C911.984 271.352 912.272 270.432 912.272 269.264V267.656H912.224C911.84 268.216 911.328 268.64 910.688 268.928C910.048 269.216 909.304 269.36 908.456 269.36C906.744 269.328 905.376 268.696 904.352 267.464C903.328 266.248 902.8 264.64 902.768 262.64C902.8 260.624 903.328 259.008 904.352 257.792C905.392 256.576 906.768 255.952 908.48 255.92C909.232 255.92 909.936 256.072 910.592 256.376C911.232 256.664 911.776 257.08 912.224 257.624H912.272V256.28H914.144V269.384C914.128 271.016 913.656 272.312 912.728 273.272C911.816 274.248 910.568 274.744 908.984 274.76ZM908.6 267.608C909.64 267.576 910.504 267.208 911.192 266.504C911.88 265.8 912.24 264.92 912.272 263.864V261.392C912.24 260.336 911.872 259.456 911.168 258.752C910.464 258.064 909.568 257.704 908.48 257.672C907.312 257.688 906.384 258.144 905.696 259.04C905.008 259.936 904.656 261.136 904.64 262.64C904.656 264.16 905.016 265.36 905.72 266.24C906.424 267.136 907.384 267.592 908.6 267.608ZM917.193 269V256.28H919.017V257.456H919.065C919.465 256.992 919.985 256.624 920.625 256.352C921.265 256.064 921.937 255.92 922.641 255.92C924.129 255.936 925.305 256.376 926.169 257.24C927.017 258.104 927.449 259.28 927.465 260.768V269H925.593V261.008C925.577 259.968 925.297 259.152 924.753 258.56C924.193 257.984 923.417 257.688 922.425 257.672C921.401 257.688 920.593 258 920.001 258.608C919.393 259.2 919.081 260 919.065 261.008V269H917.193ZM934.202 269.36C932.906 269.344 931.89 269.016 931.154 268.376C930.418 267.752 930.042 266.88 930.026 265.76C930.01 264.688 930.354 263.84 931.058 263.216C931.762 262.592 932.906 262.096 934.49 261.728C935.69 261.44 936.538 261.136 937.034 260.816C937.514 260.48 937.746 260.064 937.73 259.568C937.714 258.976 937.474 258.504 937.01 258.152C936.546 257.8 935.914 257.624 935.114 257.624C934.266 257.624 933.57 257.864 933.026 258.344C932.466 258.824 932.098 259.496 931.922 260.36L930.026 260C930.266 258.736 930.834 257.744 931.73 257.024C932.642 256.304 933.77 255.936 935.114 255.92C936.554 255.936 937.674 256.304 938.474 257.024C939.274 257.76 939.682 258.768 939.698 260.048V269H937.946V267.656H937.898C937.53 268.184 937.026 268.6 936.386 268.904C935.746 269.208 935.018 269.36 934.202 269.36ZM934.346 267.608C935.386 267.592 936.218 267.32 936.842 266.792C937.482 266.248 937.81 265.552 937.826 264.704V261.848H937.778C937.65 262.152 937.37 262.424 936.938 262.664C936.49 262.904 935.842 263.128 934.994 263.336C933.89 263.608 933.098 263.928 932.618 264.296C932.122 264.648 931.882 265.096 931.898 265.64C931.898 266.28 932.106 266.768 932.522 267.104C932.938 267.44 933.546 267.608 934.346 267.608ZM948.548 257.96H945.428V266.096C945.428 266.496 945.532 266.792 945.74 266.984C945.948 267.16 946.308 267.248 946.82 267.248H947.876V269H946.676C945.54 269.016 944.732 268.8 944.252 268.352C943.772 267.904 943.54 267.144 943.556 266.072V257.96H941.636V256.28H943.556V253.4H945.428V256.28H948.548V257.96ZM955.098 269.36C953.674 269.344 952.57 268.92 951.786 268.088C951.018 267.272 950.626 266.088 950.61 264.536V256.28H952.482V264.272C952.482 265.392 952.738 266.232 953.25 266.792C953.778 267.336 954.578 267.608 955.65 267.608C956.626 267.592 957.402 267.288 957.978 266.696C958.538 266.088 958.826 265.28 958.842 264.272V256.28H960.714V269H958.89V267.824H958.842C958.442 268.304 957.914 268.68 957.258 268.952C956.602 269.224 955.882 269.36 955.098 269.36ZM963.881 269V256.28H965.657V257.336H965.705C965.945 256.936 966.289 256.624 966.737 256.4C967.201 256.176 967.737 256.064 968.345 256.064C968.569 256.064 968.785 256.08 968.993 256.112C969.201 256.144 969.409 256.192 969.617 256.256L969.209 258.2C968.985 258.12 968.777 258.064 968.585 258.032C968.377 258 968.169 257.984 967.961 257.984C967.225 257.968 966.673 258.232 966.305 258.776C965.937 259.32 965.753 260.184 965.753 261.368V269H963.881ZM977.086 269.36C975.294 269.328 973.87 268.712 972.814 267.512C971.774 266.296 971.238 264.672 971.206 262.64C971.238 260.608 971.782 258.984 972.838 257.768C973.894 256.568 975.31 255.952 977.086 255.92C978.83 255.952 980.206 256.536 981.214 257.672C982.238 258.808 982.758 260.328 982.774 262.232V263.192H973.102C973.134 264.44 973.502 265.488 974.206 266.336C974.91 267.184 975.854 267.624 977.038 267.656C977.918 267.672 978.654 267.48 979.246 267.08C979.838 266.696 980.398 266.04 980.926 265.112L982.486 266.048C981.926 267.136 981.198 267.96 980.302 268.52C979.39 269.08 978.318 269.36 977.086 269.36ZM973.15 261.68H980.878C980.83 260.512 980.47 259.552 979.798 258.8C979.126 258.048 978.222 257.656 977.086 257.624C975.966 257.656 975.038 258.064 974.302 258.848C973.582 259.632 973.198 260.576 973.15 261.68Z" fill="#01111A"/>
<rect x="876.317" y="130.317" width="276.365" height="52.5058" rx="24.8167" fill="#58BDF6" stroke="white" stroke-width="0.634928"/>
<path d="M905.271 165V148.2H910.503C912.663 148.216 914.399 148.952 915.711 150.408C917.039 151.848 917.719 153.904 917.751 156.576C917.719 159.52 917.039 161.664 915.711 163.008C914.367 164.352 912.583 165.016 910.359 165H905.271ZM907.239 163.128H910.239C911.967 163.144 913.311 162.648 914.271 161.64C915.247 160.616 915.743 158.928 915.759 156.576C915.743 154.432 915.255 152.808 914.295 151.704C913.335 150.616 912.031 150.072 910.383 150.072H907.239V163.128ZM925.824 165.36C924.032 165.328 922.608 164.712 921.552 163.512C920.512 162.296 919.976 160.672 919.944 158.64C919.976 156.608 920.52 154.984 921.576 153.768C922.632 152.568 924.048 151.952 925.824 151.92C927.568 151.952 928.944 152.536 929.952 153.672C930.976 154.808 931.496 156.328 931.512 158.232V159.192H921.84C921.872 160.44 922.24 161.488 922.944 162.336C923.648 163.184 924.592 163.624 925.776 163.656C926.656 163.672 927.392 163.48 927.984 163.08C928.576 162.696 929.136 162.04 929.664 161.112L931.224 162.048C930.664 163.136 929.936 163.96 929.04 164.52C928.128 165.08 927.056 165.36 925.824 165.36ZM921.888 157.68H929.616C929.568 156.512 929.208 155.552 928.536 154.8C927.864 154.048 926.96 153.656 925.824 153.624C924.704 153.656 923.776 154.064 923.04 154.848C922.32 155.632 921.936 156.576 921.888 157.68ZM939.582 165.36C937.822 165.328 936.406 164.712 935.334 163.512C934.278 162.296 933.734 160.672 933.702 158.64C933.734 156.608 934.278 154.984 935.334 153.768C936.406 152.568 937.822 151.952 939.582 151.92C941.07 151.936 942.302 152.352 943.278 153.168C944.254 153.984 944.87 155.112 945.126 156.552L943.302 156.936C943.11 155.88 942.694 155.072 942.054 154.512C941.414 153.952 940.59 153.672 939.582 153.672C938.366 153.688 937.398 154.144 936.678 155.04C935.958 155.92 935.59 157.12 935.574 158.64C935.59 160.16 935.958 161.36 936.678 162.24C937.398 163.136 938.366 163.592 939.582 163.608C940.59 163.608 941.414 163.328 942.054 162.768C942.694 162.208 943.11 161.4 943.302 160.344L945.126 160.728C944.87 162.152 944.254 163.28 943.278 164.112C942.302 164.928 941.07 165.344 939.582 165.36ZM953.105 165.36C951.313 165.328 949.889 164.712 948.833 163.512C947.793 162.296 947.257 160.672 947.225 158.64C947.257 156.608 947.801 154.984 948.857 153.768C949.913 152.568 951.329 151.952 953.105 151.92C954.849 151.952 956.225 152.536 957.233 153.672C958.257 154.808 958.777 156.328 958.793 158.232V159.192H949.121C949.153 160.44 949.521 161.488 950.225 162.336C950.929 163.184 951.873 163.624 953.057 163.656C953.937 163.672 954.673 163.48 955.265 163.08C955.857 162.696 956.417 162.04 956.945 161.112L958.505 162.048C957.945 163.136 957.217 163.96 956.321 164.52C955.409 165.08 954.337 165.36 953.105 165.36ZM949.169 157.68H956.897C956.849 156.512 956.489 155.552 955.817 154.8C955.145 154.048 954.241 153.656 953.105 153.624C951.985 153.656 951.057 154.064 950.321 154.848C949.601 155.632 949.217 156.576 949.169 157.68ZM961.463 165V152.28H963.287V153.456H963.335C963.735 152.992 964.255 152.624 964.895 152.352C965.535 152.064 966.207 151.92 966.911 151.92C968.399 151.936 969.575 152.376 970.439 153.24C971.287 154.104 971.719 155.28 971.735 156.768V165H969.863V157.008C969.847 155.968 969.567 155.152 969.023 154.56C968.463 153.984 967.687 153.688 966.695 153.672C965.671 153.688 964.863 154 964.271 154.608C963.663 155.2 963.351 156 963.335 157.008V165H961.463ZM980.583 153.96H977.463V162.096C977.463 162.496 977.567 162.792 977.775 162.984C977.983 163.16 978.343 163.248 978.855 163.248H979.911V165H978.711C977.575 165.016 976.767 164.8 976.287 164.352C975.807 163.904 975.575 163.144 975.591 162.072V153.96H973.671V152.28H975.591V149.4H977.463V152.28H980.583V153.96ZM982.885 165V152.28H984.661V153.336H984.709C984.949 152.936 985.293 152.624 985.741 152.4C986.205 152.176 986.741 152.064 987.349 152.064C987.573 152.064 987.789 152.08 987.997 152.112C988.205 152.144 988.413 152.192 988.621 152.256L988.213 154.2C987.989 154.12 987.781 154.064 987.589 154.032C987.381 154 987.173 153.984 986.965 153.984C986.229 153.968 985.677 154.232 985.309 154.776C984.941 155.32 984.757 156.184 984.757 157.368V165H982.885ZM994.385 165.36C993.089 165.344 992.073 165.016 991.337 164.376C990.601 163.752 990.225 162.88 990.209 161.76C990.193 160.688 990.537 159.84 991.241 159.216C991.945 158.592 993.089 158.096 994.673 157.728C995.873 157.44 996.721 157.136 997.217 156.816C997.697 156.48 997.929 156.064 997.913 155.568C997.897 154.976 997.657 154.504 997.193 154.152C996.729 153.8 996.097 153.624 995.297 153.624C994.449 153.624 993.753 153.864 993.209 154.344C992.649 154.824 992.281 155.496 992.105 156.36L990.209 156C990.449 154.736 991.017 153.744 991.913 153.024C992.825 152.304 993.953 151.936 995.297 151.92C996.737 151.936 997.857 152.304 998.657 153.024C999.457 153.76 999.865 154.768 999.881 156.048V165H998.129V163.656H998.081C997.713 164.184 997.209 164.6 996.569 164.904C995.929 165.208 995.201 165.36 994.385 165.36ZM994.529 163.608C995.569 163.592 996.401 163.32 997.025 162.792C997.665 162.248 997.993 161.552 998.009 160.704V157.848H997.961C997.833 158.152 997.553 158.424 997.121 158.664C996.673 158.904 996.025 159.128 995.177 159.336C994.073 159.608 993.281 159.928 992.801 160.296C992.305 160.648 992.065 161.096 992.081 161.64C992.081 162.28 992.289 162.768 992.705 163.104C993.121 163.44 993.729 163.608 994.529 163.608ZM1002.92 165V147.48H1004.8V165H1002.92ZM1007.8 150.048V147.96H1009.96V150.048H1007.8ZM1007.94 165V152.28H1009.81V165H1007.94ZM1012.09 165V163.32L1020.18 154.008V153.96H1012.38V152.28H1022.46V153.96L1014.37 163.272V163.32H1022.65V165H1012.09ZM1030.36 165.36C1028.56 165.328 1027.14 164.712 1026.08 163.512C1025.04 162.296 1024.51 160.672 1024.48 158.64C1024.51 156.608 1025.05 154.984 1026.11 153.768C1027.16 152.568 1028.58 151.952 1030.36 151.92C1032.1 151.952 1033.48 152.536 1034.48 153.672C1035.51 154.808 1036.03 156.328 1036.04 158.232V159.192H1026.37C1026.4 160.44 1026.77 161.488 1027.48 162.336C1028.18 163.184 1029.12 163.624 1030.31 163.656C1031.19 163.672 1031.92 163.48 1032.52 163.08C1033.11 162.696 1033.67 162.04 1034.2 161.112L1035.76 162.048C1035.2 163.136 1034.47 163.96 1033.57 164.52C1032.66 165.08 1031.59 165.36 1030.36 165.36ZM1026.42 157.68H1034.15C1034.1 156.512 1033.74 155.552 1033.07 154.8C1032.4 154.048 1031.49 153.656 1030.36 153.624C1029.24 153.656 1028.31 154.064 1027.57 154.848C1026.85 155.632 1026.47 156.576 1026.42 157.68ZM1043.94 165.36C1042.25 165.328 1040.88 164.704 1039.84 163.488C1038.8 162.272 1038.26 160.656 1038.23 158.64C1038.26 156.624 1038.8 155.008 1039.84 153.792C1040.88 152.576 1042.25 151.952 1043.94 151.92C1044.74 151.92 1045.46 152.08 1046.1 152.4C1046.74 152.704 1047.27 153.112 1047.69 153.624H1047.74V147.48H1049.61V165H1047.81V163.728H1047.76C1047.33 164.24 1046.78 164.64 1046.13 164.928C1045.46 165.216 1044.73 165.36 1043.94 165.36ZM1044.06 163.608C1045.1 163.576 1045.97 163.216 1046.66 162.528C1047.34 161.824 1047.7 160.936 1047.74 159.864V157.392C1047.7 156.336 1047.34 155.456 1046.63 154.752C1045.93 154.064 1045.03 153.704 1043.94 153.672C1042.79 153.688 1041.86 154.144 1041.16 155.04C1040.47 155.92 1040.12 157.12 1040.1 158.64C1040.12 160.16 1040.48 161.36 1041.18 162.24C1041.89 163.136 1042.85 163.592 1044.06 163.608ZM1064.64 169.728C1063 167.904 1061.78 166.032 1061 164.112C1060.23 162.192 1059.84 160.128 1059.84 157.92C1059.84 155.712 1060.23 153.648 1061 151.728C1061.78 149.808 1063 147.936 1064.64 146.112L1065.94 147.168C1064.48 148.896 1063.44 150.608 1062.8 152.304C1062.14 154.016 1061.82 155.888 1061.84 157.92C1061.82 159.952 1062.14 161.824 1062.8 163.536C1063.44 165.232 1064.48 166.944 1065.94 168.672L1064.64 169.728ZM1068.51 165V148.2H1071.15L1076.6 161.544H1076.65L1082.1 148.2H1084.74V165H1082.75V151.368H1082.7L1077.03 165H1076.19L1070.53 151.368H1070.48V165H1068.51ZM1088.83 165V148.2H1095.31C1097.11 148.216 1098.49 148.68 1099.47 149.592C1100.43 150.504 1100.91 151.768 1100.93 153.384C1100.91 155 1100.43 156.256 1099.47 157.152C1098.49 158.048 1097.11 158.504 1095.31 158.52H1090.8V165H1088.83ZM1090.8 156.648H1095.19C1096.46 156.648 1097.4 156.384 1098.03 155.856C1098.63 155.328 1098.94 154.504 1098.94 153.384C1098.94 152.264 1098.63 151.432 1098 150.888C1097.39 150.344 1096.46 150.072 1095.19 150.072H1090.8V156.648ZM1109.7 165.36C1107.52 165.328 1105.8 164.536 1104.54 162.984C1103.29 161.416 1102.65 159.288 1102.62 156.6C1102.65 153.928 1103.3 151.808 1104.56 150.24C1105.82 148.672 1107.54 147.872 1109.7 147.84C1111.44 147.856 1112.89 148.384 1114.04 149.424C1115.18 150.464 1115.87 151.888 1116.13 153.696L1114.16 154.032C1113.92 152.624 1113.42 151.552 1112.67 150.816C1111.92 150.08 1110.93 149.712 1109.7 149.712C1108.11 149.728 1106.87 150.344 1105.98 151.56C1105.08 152.776 1104.62 154.456 1104.61 156.6C1104.62 158.76 1105.08 160.448 1105.98 161.664C1106.86 162.864 1108.1 163.472 1109.7 163.488C1110.99 163.488 1112.02 163.088 1112.77 162.288C1113.52 161.488 1113.98 160.32 1114.14 158.784L1116.18 159.048C1116 161.016 1115.34 162.56 1114.21 163.68C1113.07 164.784 1111.57 165.344 1109.7 165.36ZM1118.8 169.728L1117.51 168.672C1118.96 166.944 1120.01 165.232 1120.65 163.536C1121.31 161.824 1121.63 159.952 1121.61 157.92C1121.63 155.888 1121.31 154.016 1120.65 152.304C1120.01 150.608 1118.96 148.896 1117.51 147.168L1118.8 146.112C1120.45 147.936 1121.67 149.808 1122.45 151.728C1123.22 153.648 1123.6 155.712 1123.6 157.92C1123.6 160.128 1123.22 162.192 1122.45 164.112C1121.67 166.032 1120.45 167.904 1118.8 169.728Z" fill="#01111A"/>
<line x1="678.841" y1="53.4512" x2="678.841" y2="102.555" stroke="white" stroke-width="0.634928"/>
<line x1="369.753" y1="285.58" x2="369.753" y2="352.54" stroke="white" stroke-width="0.718118"/>
<line x1="114.539" y1="321.641" x2="114.539" y2="352.52" stroke="white" stroke-width="0.718118"/>
<line x1="625.121" y1="321.641" x2="625.121" y2="352.52" stroke="white" stroke-width="0.718118"/>
<line x1="1014.8" y1="182.908" x2="1014.8" y2="210.808" stroke="white" stroke-width="0.718118"/>
<line x1="998.058" y1="532.211" x2="998.058" y2="573.503" stroke="white" stroke-width="0.718118"/>
<line x1="522.43" y1="445.514" x2="522.43" y2="479.624" stroke="white" stroke-width="0.718118"/>
<line x1="756.536" y1="446.232" x2="756.536" y2="479.266" stroke="white" stroke-width="0.718118"/>
<line x1="997.825" y1="446.232" x2="997.825" y2="479.625" stroke="white" stroke-width="0.718118"/>
<line x1="882.566" y1="572.623" x2="882.566" y2="608.888" stroke="white" stroke-width="0.718118"/>
<line x1="882.566" y1="572.623" x2="882.566" y2="608.888" stroke="white" stroke-width="0.718118"/>
<line x1="1138.58" y1="572.623" x2="1138.58" y2="608.529" stroke="white" stroke-width="0.718118"/>
<line x1="1242.7" y1="445.873" x2="1242.7" y2="479.266" stroke="white" stroke-width="0.718118"/>
<line x1="1153.18" y1="285.58" x2="1153.18" y2="446.283" stroke="white" stroke-width="0.718118"/>
<line x1="874.667" y1="211.768" x2="874.667" y2="232.952" stroke="white" stroke-width="0.718118"/>
<line x1="1152.94" y1="211.768" x2="1152.94" y2="232.952" stroke="white" stroke-width="0.718118"/>
<line x1="370.162" y1="102.59" x2="370.162" y2="130.209" stroke="white" stroke-width="0.634928"/>
<line x1="1013.94" y1="102.254" x2="1013.94" y2="130.62" stroke="white" stroke-width="0.634928"/>
<line x1="369.83" y1="102.655" x2="1013.98" y2="102.655" stroke="white" stroke-width="0.634928"/>
<line x1="522.431" y1="445.873" x2="1243.06" y2="445.873" stroke="white" stroke-width="0.718118"/>
<line x1="114.18" y1="321.641" x2="625.479" y2="321.641" stroke="white" stroke-width="0.718118"/>
<line x1="874.308" y1="211.409" x2="1153.3" y2="211.408" stroke="white" stroke-width="0.718118"/>
<line x1="882.566" y1="572.981" x2="1138.22" y2="572.981" stroke="white" stroke-width="0.718118"/>
</svg>
