<svg width="316" height="316" viewBox="0 0 316 316" fill="none" xmlns="http://www.w3.org/2000/svg">
<path d="M132.821 150.816L132.061 147.266H123.883L123.81 147.365C124.151 147.445 124.417 147.594 124.605 147.806C124.794 148.018 124.924 148.35 124.997 148.797C125.07 149.245 125.106 149.878 125.106 150.694V159.999C125.106 160.815 125.07 161.448 124.997 161.896C124.924 162.343 124.794 162.672 124.605 162.874C124.417 163.076 124.151 163.229 123.81 163.328L123.883 163.427H127.656L127.728 163.328C127.387 163.229 127.122 163.079 126.933 162.874C126.744 162.672 126.615 162.343 126.542 161.896C126.469 161.448 126.432 160.815 126.432 159.999V155.567H128.169C128.952 155.567 129.542 155.726 129.933 156.044C130.324 156.363 130.626 156.883 130.838 157.599L130.938 157.5V153.286L130.838 153.213C130.626 153.929 130.311 154.45 129.897 154.768C129.479 155.086 128.905 155.245 128.169 155.245H126.432V147.581H128.219C129.035 147.581 129.718 147.697 130.265 147.935C130.812 148.174 131.276 148.529 131.66 149.013C132.045 149.493 132.39 150.12 132.701 150.886L132.824 150.813L132.821 150.816Z" fill="black"/>
<path d="M139.884 162.977C139.712 163.034 139.546 163.063 139.384 163.063C139.089 163.063 138.843 162.957 138.648 162.745C138.452 162.533 138.353 162.205 138.353 161.767V154.666C138.353 153.95 138.227 153.35 137.971 152.866C137.72 152.382 137.378 152.027 136.954 151.788C136.529 151.55 136.049 151.434 135.508 151.434C135.018 151.434 134.56 151.526 134.136 151.715C133.711 151.904 133.347 152.173 133.045 152.524C132.743 152.876 132.525 153.297 132.395 153.784L132.495 153.834C132.806 153.23 133.198 152.806 133.672 152.561C134.146 152.315 134.593 152.193 135.018 152.193C135.687 152.193 136.211 152.438 136.596 152.929C136.977 153.419 137.172 154.063 137.172 154.865V155.893C137.172 156.155 136.98 156.4 136.596 156.629C136.211 156.857 135.727 157.07 135.137 157.265C134.941 157.331 134.66 157.431 134.292 157.57C133.924 157.709 133.546 157.918 133.151 158.193C132.76 158.469 132.428 158.83 132.16 159.271C131.891 159.712 131.755 160.259 131.755 160.912C131.755 161.843 132.031 162.556 132.578 163.054C133.125 163.551 133.735 163.799 134.401 163.799C134.941 163.799 135.435 163.654 135.896 163.359C136.354 163.063 136.771 162.593 137.146 161.94H137.196C137.196 162.593 137.355 163.067 137.673 163.359C137.991 163.654 138.346 163.799 138.737 163.799C139.062 163.799 139.377 163.71 139.679 163.531C139.981 163.352 140.246 163.107 140.474 162.795L140.402 162.722C140.223 162.838 140.047 162.924 139.874 162.981L139.884 162.977ZM137.179 161.472C136.838 162.013 136.453 162.384 136.029 162.586C135.604 162.788 135.226 162.891 134.902 162.891C134.345 162.891 133.904 162.689 133.565 162.291C133.231 161.893 133.065 161.366 133.065 160.713C133.065 160.093 133.257 159.476 133.642 158.863C134.026 158.25 134.739 157.743 135.783 157.331C135.962 157.265 136.181 157.179 136.443 157.073C136.702 156.967 136.947 156.857 137.179 156.741V161.469V161.472Z" fill="black"/>
<path d="M143.093 162.536C142.92 162.118 142.834 161.439 142.834 160.49V151.526L142.761 151.453L140.484 152.09L140.411 152.189C140.868 152.318 141.19 152.597 141.379 153.021C141.568 153.446 141.66 154.115 141.66 155.03V160.49C141.66 161.439 141.574 162.118 141.402 162.536C141.23 162.954 140.931 163.219 140.507 163.332L140.58 163.431H143.912L143.984 163.332C143.56 163.219 143.262 162.95 143.089 162.536H143.093Z" fill="black"/>
<path d="M141.611 149.572C141.774 149.672 141.953 149.718 142.151 149.718C142.35 149.718 142.526 149.668 142.692 149.572C142.854 149.473 142.987 149.343 143.083 149.181C143.182 149.018 143.229 148.839 143.229 148.644C143.229 148.448 143.179 148.269 143.083 148.103C142.984 147.941 142.854 147.808 142.692 147.712C142.526 147.613 142.35 147.566 142.151 147.566C141.953 147.566 141.777 147.616 141.611 147.712C141.445 147.812 141.316 147.941 141.22 148.103C141.12 148.266 141.074 148.445 141.074 148.644C141.074 148.843 141.124 149.018 141.22 149.181C141.319 149.343 141.449 149.476 141.611 149.572Z" fill="black"/>
<path d="M149.081 151.424C148.574 151.546 148.133 151.798 147.758 152.183C147.384 152.568 147.115 153.062 146.95 153.665H146.926V151.533L146.853 151.46L144.576 152.097L144.503 152.193C144.96 152.322 145.282 152.601 145.471 153.025C145.66 153.449 145.753 154.119 145.753 155.034V160.494C145.753 161.443 145.667 162.122 145.494 162.54C145.322 162.958 145.023 163.223 144.599 163.336L144.672 163.435H148.004L148.077 163.336C147.652 163.223 147.354 162.958 147.182 162.54C147.009 162.122 146.923 161.443 146.923 160.494V154.023C147.132 153.556 147.404 153.194 147.755 152.949C148.13 152.69 148.538 152.558 148.979 152.558C149.207 152.558 149.433 152.591 149.652 152.657C149.874 152.723 150.086 152.823 150.301 152.952L150.351 152.902L150.669 151.53C150.112 151.334 149.585 151.298 149.078 151.421L149.081 151.424Z" fill="black"/>
<path d="M157.945 151.799L157.872 151.898C158.234 151.978 158.466 152.193 158.582 152.535C158.698 152.876 158.662 153.317 158.482 153.858L156.059 161.473L153.609 153.858C153.447 153.367 153.433 152.946 153.573 152.598C153.712 152.246 153.977 152.014 154.368 151.902L154.295 151.802H150.867L150.794 151.902C151.136 151.981 151.431 152.197 151.676 152.538C151.922 152.88 152.14 153.364 152.336 153.984L154.882 161.844C155.061 162.351 155.157 162.756 155.177 163.057C155.19 163.359 155.2 163.578 155.2 163.707C155.2 164.311 155.078 164.864 154.832 165.362C154.587 165.859 154.266 166.26 153.864 166.562C153.467 166.863 153.036 167.016 152.578 167.016C152.366 167.016 152.154 166.993 151.942 166.943C151.729 166.893 151.534 166.82 151.355 166.724L151.282 166.824L150.841 168.319C151.086 168.415 151.322 168.484 151.55 168.528C151.779 168.571 151.985 168.587 152.164 168.587C152.833 168.587 153.413 168.355 153.914 167.891C154.411 167.427 154.816 166.698 155.127 165.7L158.9 153.994C159.112 153.357 159.335 152.873 159.573 152.535C159.812 152.2 160.1 151.991 160.442 151.912L160.369 151.812H157.945V151.799Z" fill="black"/>
<path d="M169.481 161.946C169.415 161.498 169.358 160.848 169.309 159.999L169.259 158.899C169.226 158.097 169.063 157.417 168.768 156.853C168.473 156.29 168.049 155.855 167.495 155.544C166.938 155.232 166.255 155.053 165.44 155.007V154.957C166.321 154.957 167.064 154.761 167.667 154.37C168.274 153.979 168.725 153.485 169.027 152.888C169.328 152.292 169.481 151.675 169.481 151.038C169.481 150.402 169.315 149.798 168.99 149.225C168.662 148.655 168.188 148.184 167.568 147.816C166.948 147.448 166.189 147.266 165.29 147.266H160.712L160.639 147.365C160.981 147.445 161.246 147.594 161.435 147.806C161.624 148.018 161.753 148.35 161.826 148.797C161.899 149.245 161.935 149.878 161.935 150.694V159.999C161.935 160.815 161.899 161.448 161.826 161.896C161.753 162.343 161.624 162.672 161.435 162.874C161.246 163.076 160.981 163.229 160.639 163.328L160.712 163.427H164.485L164.558 163.328C164.216 163.229 163.951 163.079 163.762 162.874C163.573 162.672 163.444 162.343 163.371 161.896C163.298 161.448 163.262 160.815 163.262 159.999V155.149H164.634C165.632 155.149 166.428 155.464 167.021 156.091C167.618 156.721 167.913 157.589 167.913 158.7V161.027C167.913 161.647 167.992 162.171 168.148 162.595C168.301 163.02 168.52 163.298 168.798 163.427H170.535L170.608 163.328C170.267 163.229 170.008 163.089 169.839 162.9C169.667 162.711 169.551 162.393 169.484 161.946H169.481ZM164.508 154.834H163.258V147.587H164.654C165.37 147.587 165.983 147.76 166.491 148.101C166.994 148.443 167.386 148.88 167.654 149.411C167.923 149.941 168.059 150.525 168.059 151.111C168.059 151.698 167.923 152.278 167.654 152.849C167.382 153.422 166.985 153.893 166.454 154.267C165.924 154.642 165.274 154.831 164.508 154.831V154.834Z" fill="black"/>
<path d="M173.704 162.536C173.531 162.118 173.449 161.439 173.449 160.49V151.526L173.376 151.453L171.098 152.09L171.025 152.189C171.483 152.318 171.804 152.597 171.993 153.021C172.182 153.446 172.275 154.115 172.275 155.03V160.49C172.275 161.439 172.189 162.118 172.016 162.536C171.844 162.954 171.546 163.219 171.125 163.332L171.198 163.431H174.526L174.599 163.332C174.175 163.219 173.876 162.95 173.704 162.536Z" fill="black"/>
<path d="M172.221 149.572C172.38 149.672 172.562 149.718 172.758 149.718C172.953 149.718 173.132 149.668 173.295 149.572C173.461 149.473 173.59 149.343 173.686 149.181C173.782 149.018 173.832 148.839 173.832 148.644C173.832 148.448 173.782 148.269 173.686 148.103C173.587 147.941 173.457 147.808 173.295 147.712C173.129 147.613 172.953 147.566 172.758 147.566C172.562 147.566 172.383 147.616 172.221 147.712C172.055 147.812 171.926 147.941 171.83 148.103C171.733 148.266 171.68 148.445 171.68 148.644C171.68 148.843 171.73 149.018 171.83 149.181C171.926 149.343 172.058 149.476 172.221 149.572Z" fill="black"/>
<path d="M183.841 162.539C183.668 162.121 183.582 161.442 183.582 160.494V154.762C183.582 154.108 183.449 153.532 183.191 153.034C182.926 152.537 182.571 152.146 182.123 151.857C181.676 151.572 181.155 151.43 180.569 151.43C179.982 151.43 179.471 151.569 178.937 151.847C178.407 152.123 177.93 152.527 177.505 153.048V151.529L177.432 151.456L175.178 152.093L175.105 152.192C175.562 152.321 175.884 152.6 176.073 153.024C176.262 153.449 176.355 154.118 176.355 155.033V160.494C176.355 161.442 176.269 162.121 176.096 162.539C175.924 162.957 175.625 163.222 175.204 163.335L175.277 163.434H178.609L178.682 163.335C178.258 163.222 177.959 162.957 177.787 162.539C177.615 162.121 177.528 161.442 177.528 160.494V153.366C177.92 153.041 178.341 152.789 178.792 152.62C179.239 152.447 179.66 152.361 180.051 152.361C180.754 152.361 181.321 152.626 181.752 153.157C182.186 153.687 182.402 154.387 182.402 155.252V160.494C182.402 161.442 182.319 162.121 182.147 162.539C181.974 162.957 181.676 163.222 181.251 163.335L181.324 163.434H184.653L184.726 163.335C184.305 163.222 184.003 162.957 183.834 162.539H183.841Z" fill="black"/>
<path d="M190.001 161.863L188.115 161.717C187.657 161.684 187.276 161.558 186.964 161.336C186.653 161.117 186.497 160.836 186.497 160.491C186.497 160.246 186.583 160.02 186.755 159.818C186.928 159.616 187.143 159.47 187.405 159.39C187.896 159.636 188.453 159.758 189.073 159.758C190.18 159.758 191.075 159.38 191.742 158.621C192.411 157.862 192.746 156.854 192.746 155.598C192.746 154.832 192.613 154.149 192.355 153.552C192.093 152.959 191.725 152.478 191.254 152.12H193.363V151.802H190.744C190.253 151.556 189.699 151.434 189.076 151.434C187.982 151.434 187.1 151.815 186.431 152.571C185.764 153.33 185.426 154.338 185.426 155.594C185.426 156.426 185.578 157.156 185.88 157.786C186.179 158.416 186.593 158.893 187.117 159.218C186.696 159.397 186.358 159.645 186.112 159.964C185.867 160.282 185.744 160.663 185.744 161.054C185.744 161.446 185.86 161.79 186.099 162.082C186.334 162.377 186.649 162.589 187.041 162.719C186.374 162.981 185.824 163.372 185.399 163.896C184.978 164.416 184.763 165.006 184.763 165.659C184.763 166.23 184.935 166.737 185.277 167.178C185.622 167.619 186.089 167.96 186.686 168.205C187.283 168.451 187.972 168.573 188.755 168.573C189.653 168.573 190.452 168.411 191.155 168.083C191.858 167.758 192.408 167.32 192.809 166.773C193.207 166.226 193.409 165.61 193.409 164.923C193.409 164.058 193.104 163.352 192.504 162.805C191.897 162.258 191.065 161.943 190.008 161.863H190.001ZM186.842 155.448C186.842 154.255 187.021 153.337 187.379 152.693C187.737 152.05 188.261 151.725 188.947 151.725C189.683 151.725 190.253 152.073 190.661 152.766C191.069 153.459 191.274 154.467 191.274 155.694C191.274 156.92 191.095 157.852 190.747 158.498C190.396 159.142 189.878 159.466 189.192 159.466C188.456 159.466 187.883 159.112 187.465 158.402C187.05 157.693 186.842 156.708 186.842 155.452V155.448ZM191.778 166.859C191.49 167.284 191.108 167.619 190.628 167.864C190.144 168.109 189.603 168.232 188.997 168.232C188.098 168.232 187.365 167.963 186.792 167.423C186.222 166.886 185.937 166.206 185.937 165.391C185.937 164.867 186.046 164.393 186.265 163.959C186.484 163.524 186.799 163.13 187.21 162.772L189.437 162.991C190.27 163.07 190.939 163.332 191.446 163.773C191.954 164.214 192.206 164.777 192.206 165.464C192.206 165.971 192.063 166.435 191.778 166.859Z" fill="black"/>
<path d="M99.254 144.93H94.0557V150.128H99.254V144.93Z" fill="black"/>
<path d="M171.031 94.2207H165.833V99.419H171.031V94.2207Z" fill="black"/>
<path d="M221.809 144.93H216.611V150.128H221.809V144.93Z" fill="black"/>
<path d="M150.239 94.2207H145.041V99.419H150.239V94.2207Z" fill="black"/>
<path d="M292.632 116.816V112.188C292.632 108.435 295.685 105.382 299.438 105.382H300.973C301.112 105.408 301.281 105.441 301.513 105.478C302.441 105.624 303.529 105.667 303.529 105.667C304.507 105.736 305.465 105.849 306.373 105.972C307.693 106.157 310.093 106.853 310.802 107.062C310.816 107.066 310.829 107.066 310.842 107.069C311.058 110.918 311.88 111.094 311.986 111.1H312.013C312.032 111.097 313.992 110.686 313.992 108.362C313.992 107.149 314.406 106.29 314.758 105.786C315.066 105.342 315.066 104.745 314.758 104.301C314.409 103.797 313.992 102.941 313.992 101.725C313.992 99.4008 312.032 98.993 312.013 98.9897H311.986C311.88 98.9963 311.058 99.1721 310.842 103.014C310.819 103.021 310.799 103.024 310.776 103.031C310.113 103.25 308.469 103.77 307.537 103.929C306.257 104.132 304.908 104.321 303.525 104.417C303.525 104.417 302.438 104.453 301.51 104.599C301.245 104.642 301.062 104.679 300.91 104.709H299.434C296.411 104.709 293.802 106.515 292.628 109.108V97.0238C292.628 93.2709 295.682 90.2176 299.434 90.2176H300.969C301.109 90.2441 301.278 90.2772 301.51 90.3137C302.438 90.4596 303.525 90.5027 303.525 90.5027C304.503 90.5723 305.462 90.685 306.37 90.8077C307.689 90.9933 310.09 91.6895 310.799 91.8984C310.812 91.9017 310.826 91.9017 310.839 91.905C311.054 95.754 311.877 95.9297 311.983 95.9364H312.009C312.029 95.9331 313.988 95.522 313.988 93.198C313.988 91.9846 314.403 91.1259 314.754 90.622C315.063 90.1778 315.063 89.581 314.754 89.1368C314.406 88.6329 313.988 87.7775 313.988 86.5608C313.988 84.2369 312.029 83.8291 312.009 83.8258H311.983C311.877 83.8324 311.054 84.0081 310.839 87.8505C310.816 87.8571 310.796 87.8604 310.773 87.8671C310.11 88.0859 308.465 88.6064 307.534 88.7655C306.254 88.9677 304.905 89.1567 303.522 89.2528C303.522 89.2528 302.435 89.2893 301.506 89.4352C301.241 89.4783 301.059 89.5147 300.906 89.5446H299.431C295.314 89.5446 291.962 92.8963 291.962 97.0138V116.796C291.962 120.549 288.909 123.602 285.156 123.602H281.429C281.267 122.425 280.262 121.52 279.042 121.52C278.883 121.52 278.727 121.537 278.578 121.567C278.253 120.615 277.355 119.932 276.294 119.932C274.961 119.932 273.881 121.013 273.881 122.346C273.881 122.505 273.897 122.661 273.927 122.813H272.269V122.402C272.269 122.183 272.094 122.007 271.875 122.007C271.656 122.007 271.48 122.183 271.48 122.402V122.813H262.529V120.837H261.564V121.991H260.603V120.837H259.642V121.991H258.68V120.837H257.715V122.813H257.371C256.867 122.813 256.446 123.148 256.303 123.602H247.843C239.823 123.602 232.456 120.652 227.096 115.291C223.621 111.816 221.725 107.195 221.758 102.282C221.791 97.3851 223.734 92.8101 227.232 89.3887L235.327 81.147C235.732 81.3062 236.209 81.2266 236.534 80.8984L246.513 70.9195L246.805 71.2113C246.961 71.3671 247.209 71.3671 247.365 71.2113C247.521 71.0554 247.521 70.8068 247.365 70.651L247.073 70.3592L248.244 69.1889C248.33 69.3149 248.429 69.4409 248.542 69.5536C249.484 70.4952 251.009 70.4952 251.953 69.5536C252.703 68.8044 252.859 67.6838 252.414 66.7821C252.54 66.6959 252.663 66.5964 252.776 66.4837C253.638 65.6217 253.711 64.2691 252.991 63.3243L255.627 60.6886C258.282 58.0364 262.599 58.0364 265.251 60.6886L279.238 74.6757C280.65 76.088 282.523 76.8637 284.519 76.8637C286.515 76.8637 288.388 76.088 289.8 74.6757L290.884 73.5916C291.004 73.512 291.143 73.4159 291.335 73.2766C292.094 72.723 292.893 71.9837 292.893 71.9837C293.636 71.3405 294.392 70.7438 295.121 70.1868C296.182 69.3845 298.377 68.1778 299.023 67.8264C299.037 67.8197 299.047 67.8098 299.057 67.8032C301.931 70.3725 302.637 69.9183 302.717 69.8454L302.727 69.8354L302.736 69.8255C302.746 69.8089 303.844 68.1347 302.199 66.4903C301.341 65.6317 301.029 64.7333 300.92 64.1299C300.824 63.5994 300.402 63.1751 299.869 63.0789C299.265 62.9695 298.367 62.6579 297.508 61.7993C295.864 60.1549 294.19 61.2522 294.176 61.2655L294.167 61.2754L294.157 61.2854C294.084 61.365 293.629 62.0678 296.195 64.9388C296.186 64.9587 296.172 64.9786 296.162 64.9985C295.847 65.6217 295.055 67.1534 294.508 67.9225C293.745 68.9701 292.927 70.0575 292.015 71.1018C292.015 71.1018 291.272 71.8975 290.719 72.6567C290.56 72.8755 290.457 73.028 290.374 73.1606L289.33 74.2049C288.043 75.4912 286.336 76.1974 284.516 76.1974C282.696 76.1974 280.988 75.4879 279.702 74.2049L271.152 65.6549C272.004 65.9765 272.903 66.1455 273.801 66.1455C275.714 66.1455 277.627 65.4162 279.082 63.9608L280.166 62.8767C280.286 62.7971 280.425 62.701 280.617 62.5618C281.376 62.0081 282.175 61.2688 282.175 61.2688C282.918 60.6257 283.674 60.0289 284.403 59.472C285.467 58.6697 287.659 57.4629 288.305 57.1115C288.318 57.1049 288.328 57.0949 288.338 57.0883C291.213 59.6576 291.919 59.2034 291.998 59.1305L292.008 59.1205L292.018 59.1106C292.028 59.094 293.126 57.4198 291.481 55.7755C290.623 54.9168 290.311 54.0184 290.202 53.415C290.105 52.8846 289.684 52.4602 289.151 52.3641C288.547 52.2547 287.649 51.943 286.79 51.0844C285.146 49.44 283.472 50.5374 283.458 50.5506L283.448 50.5606L283.438 50.5705C283.365 50.6501 282.911 51.3529 285.477 54.2239C285.467 54.2438 285.454 54.2637 285.444 54.2836C285.129 54.9069 284.337 56.4385 283.79 57.2076C283.027 58.2553 282.208 59.3427 281.297 60.387C281.297 60.387 280.554 61.1826 280 61.9418C279.841 62.1606 279.739 62.3131 279.656 62.4424L278.611 63.4867C275.956 66.1389 271.639 66.1389 268.987 63.4867L265.715 60.2146C263.345 57.8442 259.768 57.4032 256.946 58.8918C257.51 57.8309 257.808 56.6407 257.808 55.4041C257.808 53.4084 257.032 51.5319 255.62 50.123L252.345 46.8475C249.692 44.192 249.692 39.8788 252.345 37.2233L253.429 36.1392C253.548 36.0597 253.687 35.9635 253.88 35.8243C254.639 35.2706 255.438 34.5313 255.438 34.5313C256.18 33.8882 256.936 33.2914 257.666 32.7345C258.727 31.9322 260.921 30.7254 261.568 30.374C261.581 30.3674 261.591 30.3575 261.601 30.3508C264.475 32.9201 265.181 32.4659 265.261 32.393L265.271 32.3831L265.281 32.3731C265.291 32.3565 266.388 30.6823 264.744 29.038C263.885 28.1793 263.573 27.2809 263.464 26.6775C263.368 26.1471 262.947 25.7227 262.413 25.6266C261.81 25.5172 260.911 25.2056 260.053 24.3469C258.408 22.7025 256.734 23.7999 256.721 23.8132L256.711 23.8231L256.701 23.833C256.628 23.9126 256.174 24.6154 258.74 27.4864C258.73 27.5063 258.717 27.5262 258.707 27.5461C258.392 28.1694 257.599 29.701 257.052 30.4702C256.29 31.5178 255.471 32.6052 254.559 33.6495C254.559 33.6495 253.817 34.4451 253.263 35.2043C253.104 35.4231 253.001 35.5756 252.918 35.7083L251.874 36.7526C249.732 38.8942 249.172 42.0205 250.18 44.6826L241.63 36.1326C240.343 34.8463 239.637 33.1389 239.637 31.3189C239.637 29.4988 240.347 27.7914 241.63 26.5051L242.714 25.421C242.833 25.3415 242.972 25.2453 243.165 25.1061C243.924 24.5525 244.723 23.8132 244.723 23.8132C245.466 23.17 246.221 22.5732 246.951 22.0163C248.015 21.214 250.206 20.0072 250.853 19.6558C250.866 19.6492 250.876 19.6393 250.886 19.6326C253.76 22.2019 254.466 21.7477 254.546 21.6748L254.556 21.6649L254.566 21.6549C254.576 21.6383 255.673 19.9641 254.029 18.3198C253.17 17.4611 252.859 16.5627 252.749 15.9593C252.653 15.4289 252.232 15.0045 251.698 14.9084C251.095 14.799 250.196 14.4874 249.338 13.6287C247.693 11.9843 246.019 13.0817 246.006 13.095L245.996 13.1049L245.986 13.1148C245.913 13.1944 245.459 13.8972 248.025 16.7682C248.015 16.7881 248.002 16.808 247.992 16.8279C247.677 17.4512 246.884 18.9828 246.337 19.752C245.575 20.7996 244.756 21.887 243.844 22.9313C243.844 22.9313 243.102 23.727 242.548 24.4861C242.389 24.705 242.286 24.8575 242.203 24.9867L241.159 26.0311C239.747 27.44 238.971 29.3165 238.971 31.3122C238.971 33.308 239.747 35.1811 241.159 36.5934L251.874 47.3083L255.146 50.5805C256.432 51.8668 257.139 53.5741 257.139 55.3942C257.139 57.2143 256.429 58.9216 255.146 60.2079L252.51 62.8436C251.566 62.1275 250.213 62.1971 249.351 63.0591C249.238 63.1718 249.142 63.2944 249.056 63.4204C248.154 62.9762 247.034 63.1287 246.284 63.8779C245.343 64.8195 245.343 66.3478 246.284 67.2893C246.397 67.402 246.52 67.5015 246.649 67.5877L245.479 68.758L245.187 68.4662C245.031 68.3104 244.783 68.3104 244.627 68.4662C244.471 68.622 244.471 68.8707 244.627 69.0265L244.919 69.3182L238.586 75.6504L237.191 74.2546L236.508 74.9376L237.323 75.7531L236.644 76.4328L235.828 75.6172L235.148 76.2968L235.964 77.1124L235.284 77.792L234.469 76.9765L233.786 77.6594L235.182 79.0551L234.936 79.3005C234.552 79.685 234.505 80.2818 234.797 80.7161L226.784 88.8716C226.764 88.8915 226.748 88.9114 226.728 88.9279L226.708 88.9478C223.287 92.4322 218.702 94.3683 213.798 94.4014C208.908 94.4412 204.284 92.5581 200.812 89.1202C195.279 83.6335 192.233 76.3366 192.233 68.5789V59.5283C192.687 59.3858 193.015 58.9647 193.015 58.4641V58.1193H194.991V57.1546H193.837V56.1932H194.991V55.2318H193.837V54.2703H194.991V53.3056H193.015V44.3544H193.426C193.645 44.3544 193.821 44.1787 193.821 43.9599C193.821 43.7411 193.645 43.5654 193.426 43.5654H193.015V41.9078C193.167 41.9376 193.323 41.9542 193.482 41.9542C194.815 41.9542 195.896 40.8767 195.896 39.5407C195.896 38.4798 195.213 37.5814 194.262 37.2565C194.291 37.1073 194.308 36.9515 194.308 36.7923C194.308 35.5723 193.403 34.5678 192.226 34.4054V30.679C192.226 26.9262 195.279 23.8728 199.032 23.8728H218.814C222.932 23.8728 226.283 20.5211 226.283 16.4036V14.9283C226.317 14.7758 226.353 14.5968 226.393 14.3282C226.539 13.4 226.575 12.3126 226.575 12.3126C226.671 10.9301 226.86 9.58079 227.063 8.3011C227.222 7.36952 227.742 5.72516 227.961 5.06211C227.968 5.0389 227.974 5.01901 227.978 4.9958C231.82 4.78031 231.996 3.96145 232.002 3.85204V3.82552C232.002 3.80563 231.591 1.84632 229.267 1.84632C228.054 1.84632 227.195 1.43191 226.691 1.08049C226.247 0.772177 225.65 0.772177 225.206 1.08049C224.702 1.4286 223.847 1.84632 222.63 1.84632C220.306 1.84632 219.898 3.80563 219.892 3.82552V3.85204C219.898 3.95813 220.074 4.78031 223.923 4.9958C223.926 5.00906 223.926 5.02232 223.93 5.03559C224.142 5.74173 224.838 8.14529 225.02 9.46476C225.143 10.3731 225.256 11.3312 225.325 12.3092C225.325 12.3092 225.369 13.3966 225.514 14.3249C225.551 14.557 225.584 14.7261 225.611 14.8653V16.4003C225.611 20.1531 222.557 23.2065 218.804 23.2065H206.72C209.309 22.0329 211.12 19.4238 211.12 16.4003V14.925C211.153 14.7725 211.189 14.5934 211.229 14.3249C211.375 13.3966 211.411 12.3092 211.411 12.3092C211.507 10.9268 211.696 9.57748 211.899 8.29779C212.058 7.36621 212.578 5.72184 212.797 5.05879C212.804 5.03559 212.81 5.01569 212.814 4.99249C216.656 4.777 216.832 3.95813 216.838 3.84873V3.8222C216.838 3.80231 216.427 1.843 214.103 1.843C212.89 1.843 212.031 1.4286 211.527 1.07718C211.083 0.768861 210.486 0.768861 210.042 1.07718C209.538 1.42528 208.683 1.843 207.466 1.843C205.142 1.843 204.734 3.80231 204.728 3.8222V3.84873C204.734 3.95481 204.91 4.777 208.759 4.99249C208.762 5.00575 208.762 5.01901 208.766 5.03227C208.978 5.73842 209.674 8.14197 209.856 9.46144C209.979 10.3698 210.092 11.3279 210.161 12.3059C210.161 12.3059 210.205 13.3933 210.35 14.3216C210.387 14.5537 210.42 14.7227 210.447 14.862V16.3969C210.447 20.1498 207.393 23.2031 203.64 23.2031H199.012C195.661 23.2031 192.816 25.4244 191.875 28.4711C190.933 25.4244 188.089 23.2031 184.737 23.2031H180.109C176.356 23.2031 173.303 20.1498 173.303 16.3969V14.9217C173.336 14.7692 173.372 14.5901 173.412 14.3216C173.558 13.3933 173.594 12.3059 173.594 12.3059C173.69 10.9235 173.879 9.57416 174.082 8.29447C174.241 7.36289 174.761 5.71853 174.98 5.05548C174.987 5.03227 174.993 5.01238 174.997 4.98917C178.839 4.77368 179.015 3.95481 179.021 3.84541V3.81889C179.021 3.799 178.61 1.83969 176.286 1.83969C175.073 1.83969 174.214 1.42528 173.71 1.07386C173.266 0.765546 172.669 0.765546 172.225 1.07386C171.721 1.42197 170.866 1.83969 169.649 1.83969C167.325 1.83969 166.917 3.799 166.911 3.81889V3.84541C166.917 3.9515 167.093 4.77368 170.942 4.98917C170.945 5.00243 170.945 5.01569 170.949 5.02895C171.161 5.7351 171.857 8.13866 172.039 9.45813C172.162 10.3665 172.275 11.3246 172.344 12.3026C172.344 12.3026 172.388 13.39 172.533 14.3183C172.57 14.5503 172.603 14.7194 172.63 14.8587V16.3936C172.63 19.4171 174.436 22.0262 177.029 23.1998H164.945C161.215 23.1998 158.178 20.183 158.142 16.4599C158.142 16.4367 158.142 16.4168 158.142 16.3936V14.8951C158.172 14.7493 158.208 14.5736 158.248 14.3216C158.394 13.3933 158.43 12.3059 158.43 12.3059C158.45 12.0407 158.473 11.7755 158.497 11.5136C158.507 11.4141 158.513 11.3147 158.523 11.2152C158.603 10.4394 158.705 9.68025 158.818 8.93763C159.077 7.58501 159.637 5.65222 159.823 5.03227C159.823 5.02895 159.823 5.02564 159.823 5.01901C159.823 5.00906 159.829 4.99912 159.829 4.98917C163.678 4.77368 163.854 3.9515 163.857 3.84541V3.81889C163.854 3.799 163.443 1.83969 161.119 1.83969C159.906 1.83969 159.047 1.42528 158.543 1.07386C158.321 0.921363 158.059 0.841797 157.8 0.841797C157.539 0.841797 157.28 0.918048 157.058 1.07386C156.554 1.42197 155.699 1.83969 154.482 1.83969C152.158 1.83969 151.75 3.799 151.743 3.81889V3.84541C151.75 3.9515 151.926 4.77368 155.771 4.98917C155.771 4.99912 155.778 5.00906 155.778 5.01901C155.778 5.02232 155.778 5.02564 155.778 5.03227C155.964 5.65222 156.524 7.58501 156.783 8.93763C156.895 9.68025 156.998 10.4394 157.078 11.2152C157.088 11.3147 157.094 11.4141 157.104 11.5136C157.127 11.7755 157.154 12.0407 157.171 12.3059C157.171 12.3059 157.207 13.3933 157.353 14.3216C157.393 14.5736 157.429 14.7493 157.459 14.8984V16.3969C157.459 16.4201 157.459 16.44 157.459 16.4632C157.423 20.1863 154.386 23.2031 150.656 23.2031H138.572C141.161 22.0295 142.971 19.4204 142.971 16.3969V14.862C142.998 14.7227 143.031 14.5537 143.067 14.3216C143.213 13.3933 143.256 12.3059 143.256 12.3059C143.326 11.3279 143.439 10.3698 143.561 9.46144C143.747 8.14197 144.443 5.74173 144.652 5.03227C144.655 5.01901 144.655 5.00575 144.659 4.99249C148.508 4.777 148.684 3.95481 148.69 3.84873V3.8222C148.687 3.80231 148.276 1.843 145.952 1.843C144.738 1.843 143.88 1.4286 143.376 1.07718C142.932 0.768861 142.335 0.768861 141.891 1.07718C141.387 1.42528 140.531 1.843 139.315 1.843C136.991 1.843 136.583 3.80231 136.58 3.8222V3.84873C136.586 3.95481 136.762 4.777 140.604 4.99249C140.611 5.01569 140.614 5.03559 140.621 5.05879C140.84 5.72184 141.36 7.36621 141.519 8.29779C141.721 9.57748 141.91 10.9268 142.007 12.3092C142.007 12.3092 142.043 13.3966 142.189 14.3249C142.232 14.5901 142.268 14.7725 142.298 14.925V16.4003C142.298 20.1531 139.245 23.2065 135.492 23.2065H130.864C127.512 23.2065 124.668 25.4277 123.726 28.4744C122.785 25.4277 119.94 23.2065 116.589 23.2065H111.961C108.208 23.2065 105.154 20.1531 105.154 16.4003V14.8653C105.181 14.7261 105.214 14.557 105.25 14.3249C105.396 13.3966 105.439 12.3092 105.439 12.3092C105.509 11.3312 105.622 10.3731 105.744 9.46476C105.93 8.14529 106.626 5.74505 106.835 5.03559C106.838 5.02232 106.838 5.00906 106.842 4.9958C110.691 4.78031 110.866 3.95813 110.873 3.85204V3.82552C110.87 3.80563 110.459 1.84632 108.135 1.84632C106.921 1.84632 106.063 1.43191 105.559 1.08049C105.115 0.772177 104.518 0.772177 104.074 1.08049C103.57 1.4286 102.714 1.84632 101.498 1.84632C99.1736 1.84632 98.7658 3.80563 98.7625 3.82552V3.85204C98.7691 3.95813 98.9448 4.78031 102.787 4.9958C102.794 5.01901 102.797 5.0389 102.804 5.06211C103.023 5.72516 103.543 7.36952 103.702 8.3011C103.904 9.58079 104.093 10.9301 104.19 12.3126C104.19 12.3126 104.226 13.4 104.372 14.3282C104.415 14.5934 104.451 14.7758 104.481 14.9283V16.4036C104.481 19.4271 106.288 22.0362 108.881 23.2098H96.7966C93.0437 23.2098 89.9903 20.1564 89.9903 16.4036V14.8686C90.0169 14.7294 90.05 14.5603 90.0865 14.3282C90.2324 13.4 90.2755 12.3126 90.2755 12.3126C90.3451 11.3346 90.4578 10.3764 90.5805 9.46807C90.7661 8.1486 91.4623 5.74836 91.6712 5.0389C91.6745 5.02564 91.6745 5.01238 91.6778 4.99912C95.5268 4.78363 95.7025 3.96145 95.7092 3.85536V3.82884C95.7058 3.80894 95.2948 1.84963 92.9708 1.84963C91.7574 1.84963 90.8987 1.43523 90.3948 1.08381C89.9506 0.775492 89.3538 0.775492 88.9096 1.08381C88.4057 1.43191 87.5503 1.84963 86.3336 1.84963C84.0096 1.84963 83.6019 3.80894 83.5985 3.82884V3.85536C83.6052 3.96145 83.7809 4.78363 87.6233 4.99912C87.6299 5.02232 87.6332 5.04222 87.6398 5.06542C87.8586 5.72847 88.3791 7.37284 88.5383 8.30442C88.7405 9.58411 88.9295 10.9334 89.0256 12.3159C89.0256 12.3159 89.0621 13.4033 89.208 14.3315C89.2511 14.5968 89.2875 14.7791 89.3174 14.9316V16.4069C89.3174 20.5244 92.6691 23.8761 96.7866 23.8761H116.569C120.322 23.8761 123.375 26.9295 123.375 30.6823V34.4087C122.198 34.5711 121.293 35.5756 121.293 36.7957C121.293 36.9548 121.309 37.1106 121.339 37.2598C120.388 37.5847 119.705 38.4831 119.705 39.544C119.705 40.8767 120.786 41.9575 122.118 41.9575C122.278 41.9575 122.433 41.9409 122.586 41.9111V43.5687H122.175C121.956 43.5687 121.78 43.7444 121.78 43.9632C121.78 44.182 121.956 44.3577 122.175 44.3577H122.586V46.0353H122.327C122.158 46.0353 122.019 46.1745 122.019 46.3436V46.4563C122.019 46.6287 122.158 46.7646 122.327 46.7646H122.586V53.3089H120.61V54.2736H121.764V55.2351H120.61V56.1965H121.764V57.1579H120.61V58.1227H122.586V58.4674C122.586 58.9714 122.921 59.3924 123.375 59.5349V68.5823C123.375 76.3433 120.328 83.6368 114.792 89.1235C111.354 92.5349 106.785 94.3981 101.895 94.3616C96.9623 94.3285 92.3475 92.3758 88.8963 88.8616C88.8532 88.8218 88.8101 88.7754 88.767 88.7323L80.8104 80.7194C81.1055 80.2818 81.0591 79.6883 80.6712 79.3005L70.6923 69.3216L70.984 69.0298C71.1398 68.874 71.1398 68.6254 70.984 68.4695C70.8282 68.3137 70.5796 68.3137 70.4238 68.4695L70.132 68.7613L68.9617 67.591C69.0877 67.5048 69.2137 67.4053 69.3264 67.2926C70.2679 66.3511 70.2679 64.8261 69.3264 63.8812C68.5772 63.132 67.4566 62.9762 66.5549 63.4204C66.4687 63.2944 66.3692 63.1718 66.2565 63.0591C65.3945 62.1971 64.0419 62.1241 63.0971 62.8436L60.4614 60.2079C57.8092 57.5557 57.8092 53.236 60.4614 50.5838L63.7336 47.3116L74.4485 36.5967C77.3593 33.686 77.3593 28.9452 74.4485 26.0344L73.3644 24.9503C73.2848 24.8309 73.1887 24.6917 73.0494 24.4994C72.4958 23.7402 71.7565 22.9412 71.7565 22.9412C71.1133 22.1986 70.5166 21.4427 69.9596 20.7134C69.1573 19.6492 67.9506 17.4578 67.5992 16.8113C67.5925 16.7981 67.5826 16.7881 67.576 16.7782C70.1453 13.9039 69.6911 13.1977 69.6181 13.1182L69.6082 13.1082L69.5983 13.0983C69.5817 13.0883 67.9075 11.991 66.2631 13.6353C65.4045 14.494 64.506 14.8056 63.9027 14.915C63.3722 15.0112 62.9479 15.4322 62.8517 15.966C62.7423 16.5693 62.4307 17.4678 61.572 18.3264C59.9277 19.9708 61.025 21.645 61.0383 21.6582L61.0482 21.6682L61.0582 21.6781C61.1377 21.7511 61.8406 22.2053 64.7116 19.6393C64.7315 19.6492 64.7514 19.6625 64.7713 19.6724C65.3945 19.9874 66.9262 20.7797 67.6953 21.3267C68.7429 22.0892 69.8303 22.9081 70.8746 23.8198C70.8746 23.8198 71.667 24.5624 72.4295 25.116C72.6483 25.2752 72.8008 25.3779 72.9301 25.4608L73.9744 26.5051C76.6266 29.1573 76.6266 33.4771 73.9744 36.1293L65.4244 44.6793C66.4322 42.0172 65.8686 38.8909 63.7303 36.7492L62.6462 35.6652C62.5666 35.5458 62.4705 35.4066 62.3312 35.2143C61.7776 34.4551 61.0383 33.6561 61.0383 33.6561C60.3951 32.9135 59.7984 32.1576 59.2414 31.4283C58.4391 30.3641 57.2324 28.1727 56.881 27.5262C56.8743 27.513 56.8644 27.503 56.8578 27.4931C59.4271 24.6188 58.9729 23.9126 58.9 23.833L58.89 23.8231L58.8801 23.8132C58.8635 23.8032 57.1893 22.7059 55.5449 24.3502C54.6863 25.2089 53.7878 25.5205 53.1845 25.6299C52.654 25.726 52.2297 26.1471 52.1335 26.6808C52.0241 27.2842 51.7125 28.1826 50.8538 29.0413C49.2095 30.6857 50.3068 32.3599 50.3201 32.3731L50.33 32.3831L50.34 32.393C50.4195 32.4659 51.1224 32.9201 53.9934 30.3541C54.0133 30.3641 54.0332 30.3773 54.0531 30.3873C54.6763 30.7022 56.208 31.4946 56.9771 32.0416C58.0247 32.8041 59.1121 33.623 60.1564 34.5347C60.1564 34.5347 60.9488 35.2773 61.7113 35.8309C61.9301 35.9901 62.0826 36.0928 62.2119 36.1757L63.2562 37.22C65.9084 39.8722 65.9084 44.1887 63.2562 46.8442L59.9807 50.1196C57.6103 52.49 57.1694 56.0672 58.6579 58.8885C57.5937 58.3249 56.4069 58.0265 55.1703 58.0265C53.1745 58.0265 51.3014 58.8023 49.8891 60.2146L46.617 63.4867C45.3306 64.773 43.6233 65.4792 41.8032 65.4792C39.9831 65.4792 38.2758 64.773 36.9895 63.4867L35.9054 62.4026C35.8258 62.2833 35.7297 62.144 35.5904 61.9518C35.0368 61.1926 34.2975 60.3936 34.2975 60.3936C33.6543 59.651 33.0576 58.8951 32.5006 58.1657C31.6983 57.1016 30.4916 54.9102 30.1402 54.2637C30.1335 54.2504 30.1236 54.2405 30.117 54.2305C32.6863 51.3562 32.2321 50.6501 32.1592 50.5705L32.1492 50.5606L32.1393 50.5506C32.1227 50.5407 30.4485 49.4433 28.8041 51.0877C27.9455 51.9463 27.0471 52.258 26.4437 52.3674C25.9132 52.4635 25.4889 52.8846 25.3927 53.4183C25.2833 54.0217 24.9717 54.9201 24.1131 55.7788C22.4687 57.4231 23.566 59.0973 23.5793 59.1106L23.5892 59.1205L23.5992 59.1305C23.6788 59.2034 24.3816 59.6576 27.2526 57.0916C27.2725 57.1016 27.2924 57.1148 27.3123 57.1248C27.9355 57.4397 29.4672 58.2321 30.2363 58.7791C31.2839 59.5416 32.3713 60.3604 33.4156 61.2721C33.4156 61.2721 34.208 62.0148 34.9705 62.5684C35.1893 62.7275 35.3418 62.8303 35.4711 62.9132L36.5154 63.9575C37.9244 65.3698 39.8008 66.1455 41.7966 66.1455C42.7149 66.1455 43.6067 65.9732 44.4388 65.6582L35.8921 74.2049C33.2399 76.8571 28.9202 76.8571 26.268 74.2049L25.1839 73.1208C25.1043 73.0015 25.0082 72.8622 24.8689 72.67C24.3153 71.9108 23.576 71.1118 23.576 71.1118C22.9328 70.3692 22.3361 69.6133 21.7791 68.8839C20.9768 67.8231 19.7701 65.6284 19.4187 64.9819C19.412 64.9686 19.4021 64.9587 19.3955 64.9487C21.9648 62.0744 21.5106 61.3683 21.4377 61.2887L21.4277 61.2788L21.4178 61.2688C21.4012 61.2589 19.727 60.1615 18.0826 61.8059C17.224 62.6645 16.3255 62.9762 15.7222 63.0856C15.1917 63.1817 14.7674 63.6028 14.6712 64.1365C14.5618 64.7399 14.2502 65.6383 13.3915 66.497C11.7472 68.1413 12.8445 69.8155 12.8578 69.8288L12.8677 69.8387L12.8777 69.8487C12.9572 69.9216 13.6601 70.3758 16.5311 67.8098C16.551 67.8197 16.5709 67.833 16.5908 67.843C17.214 68.1579 18.7457 68.9502 19.5148 69.4973C20.5624 70.2598 21.6498 71.0786 22.6941 71.9903C22.6941 71.9903 23.4865 72.7329 24.249 73.2866C24.4678 73.4457 24.6203 73.5485 24.7529 73.6314L25.7972 74.6757C27.2526 76.1311 29.1655 76.8604 31.0784 76.8604C32.9913 76.8604 34.9042 76.1311 36.3596 74.6757L50.3466 60.6886C51.6329 59.4023 53.3403 58.6962 55.1604 58.6962C56.9804 58.6962 58.6878 59.4056 59.9741 60.6886L62.6097 63.3243C61.8936 64.2691 61.9632 65.6217 62.8252 66.4837C62.9379 66.5964 63.0606 66.6926 63.1866 66.7788C62.7423 67.6805 62.8948 68.8011 63.6441 69.5503C64.5856 70.4918 66.1139 70.4918 67.0555 69.5503C67.1682 69.4376 67.2676 69.3149 67.3538 69.1856L68.5241 70.3559L68.2324 70.6477C68.0766 70.8035 68.0766 71.0521 68.2324 71.2079C68.3882 71.3637 68.6368 71.3637 68.7927 71.2079L69.0844 70.9162L75.4165 77.2483L74.0208 78.644L74.7037 79.327L75.5193 78.5114L76.1989 79.191L75.3834 80.0066L76.063 80.6862L76.8785 79.8707L77.5582 80.5503L76.7426 81.3659L77.4256 82.0488L78.8213 80.6531L79.0666 80.8984C79.3915 81.2233 79.8689 81.3062 80.2734 81.147L88.2797 89.213C91.7972 92.6377 93.7532 97.2293 93.7863 102.139C93.8195 107.049 91.9231 111.667 88.4521 115.138C82.909 120.678 75.5425 123.731 67.7053 123.731H59.3276C59.2315 123.211 58.7773 122.813 58.227 122.813H57.8822V120.837H56.9174V121.991H55.956V120.837H54.9946V121.991H54.0332V120.837H53.0684V122.813H44.1173V122.402C44.1173 122.183 43.9416 122.007 43.7227 122.007C43.5039 122.007 43.3282 122.183 43.3282 122.402V122.813H41.6706C41.7004 122.661 41.717 122.505 41.717 122.346C41.717 121.013 40.6396 119.932 39.3035 119.932C38.2426 119.932 37.3442 120.615 37.0193 121.567C36.8701 121.537 36.7143 121.52 36.5552 121.52C35.3352 121.52 34.3307 122.425 34.1682 123.602H30.4419C26.689 123.602 23.6357 120.549 23.6357 116.796V97.0138C23.6357 92.8963 20.2839 89.5446 16.1664 89.5446H14.6911C14.5386 89.5114 14.3596 89.4749 14.0911 89.4352C13.1628 89.2893 12.0754 89.2528 12.0754 89.2528C10.6929 89.1567 9.34363 88.9677 8.06394 88.7655C7.13236 88.6064 5.48799 88.0859 4.82494 87.8671C4.80174 87.8604 4.78185 87.8538 4.75864 87.8505C4.54315 84.0081 3.72428 83.8324 3.61488 83.8258H3.58836C3.56847 83.8258 1.60915 84.2369 1.60915 86.5608C1.60915 87.7742 1.19475 88.6329 0.843331 89.1368C0.535013 89.581 0.535013 90.1778 0.843331 90.622C1.19143 91.1259 1.60915 91.9813 1.60915 93.198C1.60915 95.522 3.56847 95.9297 3.58836 95.9364H3.61488C3.72097 95.9297 4.54315 95.754 4.75864 91.905C4.7719 91.9017 4.78516 91.9017 4.79842 91.8984C5.50457 91.6862 7.90812 90.99 9.22759 90.8077C10.136 90.685 11.0941 90.5723 12.0721 90.5027C12.0721 90.5027 13.1595 90.4596 14.0877 90.3137C14.3198 90.2772 14.4889 90.2441 14.6281 90.2176H16.1631C19.916 90.2176 22.9693 93.2709 22.9693 97.0238V109.108C21.7957 106.519 19.1866 104.709 16.1631 104.709H14.6878C14.5353 104.675 14.3563 104.639 14.0877 104.599C13.1595 104.453 12.0721 104.417 12.0721 104.417C10.6896 104.321 9.34031 104.128 8.06063 103.929C7.12904 103.77 5.48468 103.25 4.82163 103.031C4.79842 103.024 4.77853 103.018 4.75532 103.014C4.53983 99.1721 3.72097 98.9963 3.61156 98.9897H3.58504C3.56515 98.9897 1.60584 99.4008 1.60584 101.725C1.60584 102.938 1.19143 103.797 0.840016 104.301C0.531698 104.745 0.531698 105.342 0.840016 105.786C1.18812 106.29 1.60584 107.145 1.60584 108.362C1.60584 110.686 3.56515 111.094 3.58504 111.1H3.61156C3.71765 111.094 4.53983 110.918 4.75532 107.069C4.76859 107.066 4.78185 107.066 4.79511 107.062C5.50126 106.85 7.90481 106.154 9.22428 105.972C10.1327 105.849 11.0908 105.736 12.0688 105.667C12.0688 105.667 13.1562 105.624 14.0844 105.478C14.3165 105.441 14.4856 105.408 14.6248 105.382H16.1598C19.9126 105.382 22.966 108.435 22.966 112.188V116.816C22.966 120.168 25.1872 123.012 28.2339 123.954C25.1872 124.895 22.966 127.74 22.966 131.091V135.719C22.966 139.472 19.9126 142.526 16.1598 142.526H14.6845C14.532 142.492 14.353 142.456 14.0844 142.416C13.1562 142.27 12.0688 142.234 12.0688 142.234C10.6863 142.138 9.337 141.949 8.05731 141.746C7.12573 141.587 5.48136 141.067 4.81831 140.848C4.79511 140.841 4.77522 140.835 4.75201 140.831C4.53652 136.989 3.71765 136.813 3.60825 136.807H3.58173C3.56184 136.807 1.60252 137.218 1.60252 139.542C1.60252 140.755 1.18812 141.614 0.836701 142.118C0.528383 142.562 0.528383 143.159 0.836701 143.603C1.1848 144.107 1.60252 144.962 1.60252 146.179C1.60252 148.503 3.56184 148.911 3.58173 148.917H3.60825C3.71434 148.911 4.53652 148.735 4.75201 144.886C4.76527 144.883 4.77853 144.883 4.79179 144.879C5.49794 144.667 7.90149 143.971 9.22096 143.789C10.1293 143.666 11.0874 143.553 12.0654 143.484C12.0654 143.484 13.1528 143.441 14.0811 143.295C14.3132 143.258 14.4823 143.225 14.6215 143.199H16.1565C19.18 143.199 21.7891 141.392 22.9627 138.799V150.883C22.9627 154.613 19.9458 157.65 16.2261 157.686C16.2029 157.686 16.1797 157.686 16.1565 157.686H14.6547C14.5088 157.656 14.3331 157.62 14.0811 157.58C13.1528 157.434 12.0654 157.398 12.0654 157.398C11.8002 157.378 11.535 157.351 11.2731 157.328C11.1736 157.318 11.0742 157.312 10.9747 157.302C10.199 157.222 9.43977 157.119 8.69715 157.007C7.34453 156.748 5.41174 156.188 4.79179 156.002C4.78848 156.002 4.78516 156.002 4.77853 156.002C4.76859 156.002 4.75864 155.995 4.74869 155.995C4.5332 152.146 3.71102 151.971 3.60493 151.967H3.57841C3.55852 151.971 1.59921 152.382 1.59921 154.706C1.59921 155.919 1.1848 156.778 0.833386 157.282C0.680884 157.504 0.601318 157.766 0.601318 158.024C0.601318 158.286 0.677569 158.545 0.833386 158.767C1.18149 159.271 1.59921 160.126 1.59921 161.343C1.59921 163.667 3.55852 164.075 3.57841 164.081H3.60493C3.71102 164.075 4.5332 163.899 4.74869 160.053C4.75864 160.053 4.76859 160.047 4.77853 160.047C4.78185 160.047 4.78516 160.047 4.79179 160.047C5.41174 159.861 7.34453 159.301 8.69715 159.042C9.43977 158.929 10.199 158.827 10.9747 158.747C11.0742 158.737 11.1736 158.73 11.2731 158.721C11.535 158.697 11.8002 158.671 12.0654 158.651C12.0654 158.651 13.1528 158.614 14.0811 158.469C14.3331 158.429 14.5088 158.392 14.6547 158.362H16.1565C16.1797 158.362 16.2029 158.362 16.2261 158.362C19.9458 158.399 22.9627 161.436 22.9627 165.165V177.249C21.7891 174.66 19.18 172.85 16.1565 172.85H14.6215C14.4823 172.824 14.3132 172.79 14.0811 172.754C13.1528 172.608 12.0654 172.565 12.0654 172.565C11.0874 172.495 10.1293 172.383 9.22096 172.26C7.90149 172.074 5.50126 171.378 4.79179 171.169C4.77853 171.166 4.76527 171.166 4.75201 171.163C4.53652 167.314 3.71434 167.138 3.60825 167.131H3.58173C3.56184 167.135 1.60252 167.546 1.60252 169.87C1.60252 171.083 1.18812 171.942 0.836701 172.446C0.528383 172.89 0.528383 173.487 0.836701 173.931C1.1848 174.435 1.60252 175.29 1.60252 176.507C1.60252 178.831 3.56184 179.239 3.58173 179.242H3.60825C3.71434 179.235 4.53652 179.06 4.75201 175.217C4.77522 175.211 4.79511 175.207 4.81831 175.201C5.48136 174.982 7.12573 174.461 8.05731 174.302C9.337 174.1 10.6863 173.911 12.0688 173.815C12.0688 173.815 13.1562 173.778 14.0844 173.633C14.3497 173.589 14.532 173.553 14.6845 173.523H16.1598C19.9126 173.523 22.966 176.576 22.966 180.329V184.957C22.966 188.309 25.1872 191.154 28.2339 192.095C25.1872 193.037 22.966 195.881 22.966 199.233V203.861C22.966 207.614 19.9126 210.667 16.1598 210.667H14.6248C14.4856 210.641 14.3165 210.607 14.0844 210.571C13.1562 210.425 12.0688 210.382 12.0688 210.382C11.0908 210.312 10.1327 210.2 9.22428 210.077C7.90481 209.891 5.50457 209.195 4.79511 208.986C4.78185 208.983 4.76859 208.983 4.75532 208.98C4.53983 205.131 3.71765 204.955 3.61156 204.948H3.58504C3.56515 204.952 1.60584 205.363 1.60584 207.687C1.60584 208.9 1.19143 209.759 0.840016 210.263C0.531698 210.707 0.531698 211.304 0.840016 211.748C1.18812 212.252 1.60584 213.107 1.60584 214.324C1.60584 216.648 3.56515 217.056 3.58504 217.059H3.61156C3.71765 217.052 4.53983 216.877 4.75532 213.034C4.77853 213.028 4.79842 213.024 4.82163 213.018C5.48468 212.799 7.12904 212.278 8.06063 212.119C9.34031 211.917 10.6896 211.728 12.0721 211.632C12.0721 211.632 13.1595 211.595 14.0877 211.45C14.3563 211.406 14.5353 211.37 14.6878 211.34H16.1631C19.1866 211.34 21.7957 209.533 22.9693 206.941V219.025C22.9693 222.778 19.916 225.831 16.1631 225.831H14.6281C14.4889 225.805 14.3198 225.771 14.0877 225.735C13.1595 225.589 12.0721 225.546 12.0721 225.546C11.0941 225.476 10.136 225.364 9.22759 225.241C7.90812 225.055 5.50789 224.359 4.79842 224.15C4.78516 224.147 4.7719 224.147 4.75864 224.144C4.54315 220.295 3.72097 220.119 3.61488 220.112H3.58836C3.56847 220.116 1.60915 220.527 1.60915 222.851C1.60915 224.064 1.19475 224.923 0.843331 225.427C0.535013 225.871 0.535013 226.468 0.843331 226.912C1.19143 227.416 1.60915 228.271 1.60915 229.488C1.60915 231.812 3.56847 232.22 3.58836 232.223H3.61488C3.72097 232.216 4.54315 232.041 4.75864 228.198C4.78185 228.192 4.80174 228.188 4.82494 228.182C5.48799 227.963 7.13236 227.442 8.06394 227.283C9.34363 227.081 10.6929 226.892 12.0754 226.796C12.0754 226.796 13.1628 226.759 14.0911 226.613C14.3563 226.57 14.5386 226.534 14.6911 226.504H16.1664C20.2839 226.504 23.6357 223.152 23.6357 219.035V199.253C23.6357 195.5 26.689 192.447 30.4419 192.447H34.1682C34.3307 193.623 35.3352 194.529 36.5552 194.529C36.7143 194.529 36.8701 194.512 37.0193 194.482C37.3442 195.434 38.2426 196.117 39.3035 196.117C40.6362 196.117 41.717 195.036 41.717 193.703C41.717 193.544 41.7004 193.388 41.6706 193.236H43.3282V193.647C43.3282 193.865 43.5039 194.041 43.7227 194.041C43.9416 194.041 44.1173 193.865 44.1173 193.647V193.236H53.0684V195.211H54.0332V194.058H54.9946V195.211H55.956V194.058H56.9174V195.211H57.8822V193.236H58.227C58.7408 193.236 59.1685 192.887 59.3011 192.42H67.7053C75.5425 192.42 82.909 195.473 88.4521 201.013C91.9231 204.484 93.8195 209.102 93.7863 214.012C93.7532 218.922 91.7972 223.514 88.2731 226.945L80.4325 234.988C80.0015 234.729 79.4346 234.782 79.0633 235.154L78.818 235.399L77.4222 234.003L76.7393 234.686L77.5548 235.502L76.8752 236.181L76.0597 235.366L75.3801 236.045L76.1956 236.861L75.516 237.541L74.7004 236.725L74.0175 237.408L75.4132 238.804L69.0811 245.136L68.7893 244.844C68.6335 244.688 68.3849 244.688 68.2291 244.844C68.0732 245 68.0732 245.249 68.2291 245.404L68.5208 245.696L67.3505 246.866C67.2643 246.737 67.1649 246.614 67.0521 246.502C66.1106 245.56 64.5823 245.557 63.6408 246.502C62.8915 247.251 62.739 248.371 63.1833 249.273C63.0573 249.359 62.9346 249.456 62.8219 249.568C61.9599 250.43 61.8903 251.783 62.6064 252.728L59.9708 255.363C57.3186 258.016 52.9988 258.016 50.3466 255.363L47.0745 252.091L36.3596 241.376C33.4488 238.465 28.708 238.465 25.7972 241.376L24.7529 242.421C24.6236 242.507 24.4678 242.606 24.249 242.765C23.4898 243.319 22.6941 244.062 22.6941 244.062C21.6498 244.97 20.5624 245.789 19.5148 246.551C18.7457 247.098 17.214 247.891 16.5908 248.206C16.5709 248.216 16.551 248.229 16.5311 248.239C13.6601 245.673 12.9572 246.13 12.8777 246.2L12.8677 246.21L12.8578 246.22C12.8578 246.22 11.7472 247.911 13.3915 249.552C14.2502 250.41 14.5618 251.309 14.6712 251.912C14.7674 252.443 15.1884 252.867 15.7222 252.963C16.3255 253.072 17.224 253.384 18.0826 254.243C19.727 255.887 21.4012 254.79 21.4178 254.78L21.4277 254.77L21.4377 254.76C21.5106 254.68 21.9648 253.974 19.3955 251.1C19.4021 251.087 19.412 251.077 19.4187 251.067C19.7701 250.417 20.9768 248.226 21.7791 247.165C22.3361 246.435 22.9328 245.679 23.576 244.937C23.576 244.937 24.3153 244.138 24.8689 243.379C25.0082 243.19 25.1043 243.047 25.1839 242.928L26.268 241.844C28.9202 239.192 33.2399 239.192 35.8921 241.844L44.4422 250.394C41.78 249.386 38.6537 249.95 36.5121 252.088L35.4678 253.132C35.3385 253.218 35.1827 253.318 34.9672 253.477C34.208 254.031 33.4123 254.773 33.4123 254.773C32.368 255.682 31.2806 256.5 30.233 257.263C29.4639 257.81 27.9322 258.602 27.309 258.917C27.2891 258.927 27.2692 258.94 27.2493 258.95C24.3783 256.384 23.6754 256.842 23.5959 256.912L23.5859 256.921L23.576 256.931C23.576 256.931 22.4654 258.622 24.1097 260.263C24.9684 261.122 25.28 262.02 25.3894 262.624C25.4856 263.154 25.9099 263.578 26.4404 263.675C27.0437 263.784 27.9422 264.096 28.8008 264.954C30.4452 266.599 32.1194 265.501 32.136 265.491L32.1459 265.481L32.1558 265.471C32.2288 265.392 32.683 264.686 30.1137 261.811C30.1203 261.798 30.1302 261.788 30.1369 261.778C30.4883 261.129 31.695 258.937 32.4973 257.876C33.0543 257.144 33.651 256.391 34.2942 255.648C34.2942 255.648 35.0335 254.849 35.5871 254.09C35.7264 253.898 35.8225 253.759 35.9021 253.639L36.9862 252.555C39.6384 249.903 43.9548 249.903 46.6103 252.555L49.8858 255.831C51.3412 257.286 53.2541 258.016 55.167 258.016C56.3671 258.016 57.5672 257.727 58.6546 257.154C58.091 258.214 57.7927 259.405 57.7927 260.641C57.7927 262.637 58.5684 264.51 59.9807 265.922L63.2529 269.195C65.9051 271.847 65.9051 276.167 63.2529 278.819L62.2086 279.863C62.0793 279.949 61.9235 280.049 61.7047 280.208C60.9455 280.761 60.1498 281.504 60.1498 281.504C59.1055 282.412 58.0181 283.231 56.9705 283.994C56.2013 284.541 54.6697 285.333 54.0464 285.648C54.0265 285.658 54.0066 285.671 53.9868 285.681C51.1157 283.115 50.4129 283.573 50.3334 283.642L50.3234 283.652L50.3135 283.662C50.3135 283.662 49.2029 285.353 50.8472 286.994C51.7059 287.853 52.0175 288.751 52.1269 289.355C52.223 289.885 52.6441 290.309 53.1778 290.405C53.7812 290.515 54.6796 290.827 55.5383 291.685C57.1827 293.33 58.8569 292.232 58.8734 292.222L58.8834 292.212L58.8933 292.202C58.9663 292.123 59.4204 291.417 56.8511 288.542C56.8578 288.529 56.8677 288.519 56.8743 288.509C57.2258 287.859 58.4325 285.668 59.2348 284.607C59.7918 283.878 60.3885 283.122 61.0317 282.379C61.0317 282.379 61.771 281.58 62.3246 280.821C62.4638 280.632 62.56 280.49 62.6396 280.37L63.7236 279.286C65.8653 277.145 66.4256 274.018 65.4177 271.356L73.9678 279.906C76.62 282.558 76.62 286.878 73.9678 289.53L72.9234 290.575C72.7942 290.661 72.6383 290.76 72.4229 290.919C71.6637 291.473 70.868 292.216 70.868 292.216C69.8237 293.124 68.7363 293.943 67.6887 294.705C66.9195 295.252 65.3879 296.045 64.7646 296.36C64.7447 296.37 64.7248 296.383 64.7049 296.393C61.8339 293.827 61.1311 294.284 61.0515 294.354L61.0416 294.364L61.0317 294.374C61.0317 294.374 59.921 296.065 61.5654 297.706C62.4241 298.564 62.7357 299.463 62.8451 300.066C62.9412 300.597 63.3623 301.021 63.896 301.117C64.4994 301.226 65.3978 301.538 66.2565 302.397C67.9008 304.041 69.5751 302.944 69.5916 302.934L69.6016 302.924L69.6115 302.914C69.6845 302.834 70.1386 302.128 67.5693 299.254C67.576 299.241 67.5859 299.231 67.5925 299.221C67.9439 298.571 69.1507 296.38 69.953 295.319C70.5099 294.586 71.1067 293.833 71.7499 293.091C71.7499 293.091 72.4892 292.292 73.0428 291.533C73.182 291.34 73.2782 291.201 73.3577 291.082L74.4418 289.998C77.3526 287.087 77.3526 282.346 74.4418 279.435L60.4548 265.448C59.1685 264.162 58.4623 262.455 58.4623 260.635C58.4623 258.814 59.1718 257.107 60.4548 255.821L63.0904 253.185C64.0353 253.905 65.3879 253.832 66.2499 252.97C66.3626 252.857 66.462 252.738 66.5482 252.608C67.45 253.053 68.5672 252.9 69.3198 252.148C70.2613 251.206 70.2646 249.681 69.3198 248.736C69.2071 248.623 69.0811 248.524 68.9551 248.438L70.1254 247.267L70.4171 247.559C70.5729 247.715 70.8216 247.715 70.9774 247.559C71.1332 247.403 71.1332 247.155 70.9774 246.999L70.6857 246.707L80.6646 236.728C81.006 236.387 81.079 235.886 80.89 235.472L88.7538 227.403C88.7869 227.373 88.8168 227.336 88.8466 227.306C92.2779 223.815 96.8662 221.873 101.766 221.84C106.633 221.803 111.238 223.676 114.696 227.104C120.229 232.591 123.279 239.888 123.279 247.645V256.52C122.864 256.686 122.573 257.087 122.573 257.561V257.906H120.597V258.871H121.75V259.832H120.597V260.794H121.75V261.755H120.597V262.72H122.573V271.671H122.162C121.943 271.671 121.767 271.847 121.767 272.066C121.767 272.284 121.943 272.46 122.162 272.46H122.573V274.118C122.42 274.088 122.264 274.071 122.105 274.071C120.772 274.071 119.692 275.149 119.692 276.485C119.692 277.546 120.375 278.444 121.326 278.769C121.296 278.918 121.28 279.074 121.28 279.233C121.28 280.453 122.185 281.458 123.362 281.62V285.346C123.362 289.099 120.308 292.153 116.555 292.153H96.7734C92.6558 292.153 89.3041 295.504 89.3041 299.622V301.097C89.271 301.25 89.2345 301.429 89.1947 301.697C89.0488 302.625 89.0124 303.713 89.0124 303.713C88.9162 305.095 88.7272 306.445 88.525 307.724C88.3659 308.656 87.8454 310.3 87.6266 310.963C87.6199 310.987 87.6133 311.006 87.61 311.03C83.7676 311.245 83.5919 312.064 83.5853 312.173V312.2C83.5853 312.22 83.9964 314.179 86.3204 314.179C87.5338 314.179 88.3924 314.594 88.8963 314.945C89.3406 315.253 89.9373 315.253 90.3816 314.945C90.8855 314.597 91.7408 314.179 92.9575 314.179C95.2815 314.179 95.6893 312.22 95.6959 312.2V312.173C95.6893 312.067 95.5136 311.245 91.6646 311.03C91.6612 311.016 91.6612 311.003 91.6579 310.99C91.4457 310.284 90.7495 307.88 90.5672 306.561C90.4445 305.652 90.3318 304.694 90.2622 303.716C90.2622 303.716 90.2191 302.629 90.0732 301.701C90.0368 301.468 90.0036 301.299 89.9771 301.16V299.625C89.9771 295.872 93.0304 292.819 96.7833 292.819H108.867C106.278 293.993 104.468 296.602 104.468 299.625V301.1C104.435 301.253 104.398 301.432 104.359 301.701C104.213 302.629 104.176 303.716 104.176 303.716C104.08 305.099 103.891 306.448 103.689 307.728C103.53 308.659 103.009 310.304 102.791 310.967C102.784 310.99 102.777 311.01 102.774 311.033C98.9316 311.248 98.7559 312.067 98.7492 312.177V312.203C98.7492 312.223 99.1603 314.182 101.484 314.182C102.698 314.182 103.556 314.597 104.06 314.948C104.505 315.257 105.101 315.257 105.545 314.948C106.049 314.6 106.905 314.182 108.121 314.182C110.445 314.182 110.853 312.223 110.86 312.203V312.177C110.853 312.071 110.677 311.248 106.828 311.033C106.825 311.02 106.825 311.006 106.822 310.993C106.61 310.287 105.913 307.883 105.731 306.564C105.608 305.656 105.496 304.698 105.426 303.72C105.426 303.72 105.383 302.632 105.237 301.704C105.201 301.472 105.168 301.303 105.141 301.163V299.629C105.141 295.876 108.194 292.822 111.947 292.822H116.575C119.927 292.822 122.772 290.601 123.713 287.554C124.655 290.601 127.499 292.822 130.851 292.822H135.479C139.232 292.822 142.285 295.876 142.285 299.629V301.104C142.252 301.256 142.215 301.435 142.176 301.704C142.03 302.632 141.993 303.72 141.993 303.72C141.897 305.102 141.708 306.451 141.506 307.731C141.347 308.663 140.826 310.307 140.608 310.97C140.601 310.993 140.594 311.013 140.591 311.036C136.749 311.252 136.573 312.071 136.566 312.18V312.207C136.566 312.226 136.977 314.186 139.301 314.186C140.515 314.186 141.373 314.6 141.877 314.952C142.322 315.26 142.918 315.26 143.363 314.952C143.866 314.603 144.722 314.186 145.938 314.186C148.262 314.186 148.67 312.226 148.677 312.207V312.18C148.67 312.074 148.495 311.252 144.646 311.036C144.642 311.023 144.642 311.01 144.639 310.996C144.427 310.29 143.731 307.887 143.548 306.567C143.426 305.659 143.313 304.701 143.243 303.723C143.243 303.723 143.2 302.635 143.054 301.707C143.018 301.475 142.985 301.306 142.958 301.167V299.632C142.958 296.608 141.151 293.999 138.559 292.826H150.643C154.372 292.826 157.409 295.842 157.446 299.566C157.446 299.589 157.446 299.609 157.446 299.632V301.13C157.416 301.276 157.379 301.452 157.34 301.707C157.194 302.635 157.157 303.723 157.157 303.723C157.137 303.988 157.114 304.253 157.091 304.515C157.081 304.615 157.074 304.714 157.064 304.814C156.985 305.589 156.882 306.349 156.769 307.091C156.511 308.444 155.951 310.377 155.765 310.996C155.765 311 155.765 311.003 155.765 311.01C155.765 311.02 155.758 311.03 155.758 311.04C151.909 311.255 151.734 312.077 151.73 312.183V312.21C151.734 312.23 152.145 314.189 154.469 314.189C155.682 314.189 156.541 314.603 157.045 314.955C157.267 315.107 157.529 315.187 157.787 315.187C158.049 315.187 158.308 315.111 158.53 314.955C159.034 314.607 159.889 314.189 161.106 314.189C163.43 314.189 163.838 312.23 163.844 312.21V312.183C163.838 312.077 163.662 311.255 159.816 311.04C159.816 311.03 159.809 311.02 159.809 311.01C159.809 311.006 159.809 311.003 159.809 310.996C159.624 310.377 159.064 308.444 158.805 307.091C158.692 306.349 158.589 305.589 158.51 304.814C158.5 304.714 158.493 304.615 158.483 304.515C158.46 304.253 158.434 303.988 158.417 303.723C158.417 303.723 158.381 302.635 158.235 301.707C158.195 301.455 158.158 301.28 158.129 301.134V299.635C158.129 299.612 158.129 299.592 158.129 299.569C158.165 295.846 161.202 292.829 164.932 292.829H177.016C174.426 294.003 172.616 296.612 172.616 299.635V301.17C172.59 301.309 172.557 301.478 172.52 301.71C172.374 302.639 172.331 303.726 172.331 303.726C172.262 304.704 172.149 305.662 172.026 306.571C171.841 307.89 171.144 310.29 170.935 311C170.932 311.013 170.932 311.026 170.929 311.04C167.08 311.255 166.904 312.077 166.897 312.183V312.21C166.901 312.23 167.312 314.189 169.636 314.189C170.849 314.189 171.708 314.603 172.212 314.955C172.656 315.263 173.253 315.263 173.697 314.955C174.201 314.607 175.056 314.189 176.273 314.189C178.597 314.189 179.005 312.23 179.008 312.21V312.183C179.001 312.077 178.826 311.255 174.983 311.04C174.977 311.016 174.973 310.996 174.967 310.973C174.748 310.31 174.227 308.666 174.068 307.734C173.866 306.455 173.677 305.105 173.581 303.723C173.581 303.723 173.545 302.635 173.399 301.707C173.356 301.439 173.319 301.26 173.289 301.107V299.632C173.289 295.879 176.343 292.826 180.095 292.826H184.724C188.075 292.826 190.92 290.604 191.861 287.558C192.803 290.604 195.647 292.826 198.999 292.826H203.627C207.38 292.826 210.433 295.879 210.433 299.632V301.167C210.407 301.306 210.374 301.475 210.337 301.707C210.191 302.635 210.148 303.723 210.148 303.723C210.079 304.701 209.966 305.659 209.843 306.567C209.658 307.887 208.961 310.287 208.752 310.996C208.749 311.01 208.749 311.023 208.746 311.036C204.897 311.252 204.721 312.074 204.714 312.18V312.207C204.718 312.226 205.129 314.186 207.453 314.186C208.666 314.186 209.525 314.6 210.029 314.952C210.473 315.26 211.07 315.26 211.514 314.952C212.018 314.603 212.873 314.186 214.09 314.186C216.414 314.186 216.822 312.226 216.825 312.207V312.18C216.818 312.074 216.643 311.252 212.8 311.036C212.794 311.013 212.79 310.993 212.784 310.97C212.565 310.307 212.045 308.663 211.885 307.731C211.683 306.451 211.494 305.102 211.398 303.72C211.398 303.72 211.362 302.632 211.216 301.704C211.173 301.439 211.136 301.256 211.106 301.104V299.629C211.106 296.605 209.299 293.996 206.707 292.822H218.791C222.544 292.822 225.597 295.876 225.597 299.629V301.163C225.571 301.303 225.538 301.472 225.501 301.704C225.355 302.632 225.312 303.72 225.312 303.72C225.243 304.698 225.13 305.656 225.007 306.564C224.821 307.883 224.125 310.284 223.916 310.993C223.913 311.006 223.913 311.02 223.91 311.033C220.061 311.248 219.885 312.071 219.878 312.177V312.203C219.882 312.223 220.293 314.182 222.617 314.182C223.83 314.182 224.689 314.597 225.193 314.948C225.637 315.257 226.234 315.257 226.678 314.948C227.182 314.6 228.037 314.182 229.254 314.182C231.578 314.182 231.986 312.223 231.989 312.203V312.177C231.982 312.071 231.807 311.248 227.964 311.033C227.958 311.01 227.954 310.99 227.948 310.967C227.729 310.304 227.208 308.659 227.049 307.728C226.847 306.448 226.658 305.099 226.562 303.716C226.562 303.716 226.526 302.629 226.38 301.701C226.337 301.432 226.3 301.253 226.27 301.1V299.625C226.27 295.508 222.919 292.156 218.801 292.156H199.019C195.266 292.156 192.213 289.103 192.213 285.35V281.623C193.39 281.461 194.295 280.456 194.295 279.236C194.295 279.077 194.278 278.921 194.248 278.772C195.2 278.447 195.883 277.549 195.883 276.488C195.883 275.155 194.802 274.075 193.469 274.075C193.31 274.075 193.154 274.091 193.002 274.121V272.463H193.413C193.632 272.463 193.807 272.288 193.807 272.069C193.807 271.85 193.632 271.674 193.413 271.674H193.002V262.723H194.978V261.758H193.824V260.797H194.978V259.836H193.824V258.874H194.978V257.909H193.002V257.565C193.002 257.064 192.67 256.646 192.219 256.5V247.705C192.219 239.944 195.266 232.651 200.799 227.164C204.237 223.756 208.799 221.883 213.659 221.883C213.702 221.883 213.742 221.883 213.785 221.883C218.688 221.916 223.273 223.852 226.698 227.336L234.724 235.425C234.509 235.846 234.568 236.377 234.923 236.732L235.168 236.977L233.773 238.373L234.456 239.056L235.271 238.24L235.951 238.92L235.135 239.735L235.815 240.415L236.63 239.599L237.31 240.279L236.494 241.094L237.177 241.777L238.573 240.382L244.905 246.714L244.614 247.006C244.458 247.161 244.458 247.41 244.614 247.566C244.769 247.722 245.018 247.722 245.174 247.566L245.466 247.274L246.636 248.444C246.507 248.531 246.384 248.63 246.271 248.743C245.33 249.684 245.326 251.213 246.271 252.154C247.02 252.903 248.141 253.056 249.043 252.612C249.129 252.738 249.225 252.86 249.338 252.973C250.2 253.835 251.552 253.905 252.497 253.189L255.133 255.824C257.785 258.476 257.785 262.796 255.133 265.448L251.861 268.72L241.146 279.435C239.733 280.844 238.958 282.721 238.958 284.717C238.958 286.712 239.733 288.585 241.146 289.998L242.19 291.042C242.276 291.171 242.376 291.327 242.535 291.546C243.089 292.305 243.831 293.101 243.831 293.101C244.74 294.148 245.562 295.236 246.324 296.283C246.871 297.053 247.664 298.584 247.978 299.207C247.988 299.227 248.002 299.247 248.012 299.267C245.446 302.138 245.903 302.841 245.973 302.921L245.983 302.931L245.993 302.94C245.993 302.94 247.683 304.051 249.324 302.407C250.183 301.548 251.082 301.236 251.685 301.127C252.215 301.031 252.64 300.61 252.736 300.076C252.845 299.473 253.157 298.574 254.016 297.716C255.66 296.071 254.563 294.397 254.553 294.38L254.543 294.371L254.533 294.361C254.453 294.288 253.747 293.833 250.873 296.403C250.859 296.396 250.849 296.386 250.84 296.38C250.19 296.028 247.998 294.821 246.938 294.019C246.208 293.462 245.452 292.865 244.71 292.222C244.71 292.222 243.911 291.483 243.151 290.929C242.963 290.79 242.82 290.694 242.701 290.614L241.617 289.53C240.33 288.244 239.624 286.537 239.624 284.717C239.624 282.896 240.334 281.189 241.617 279.903L250.163 271.356C249.848 272.191 249.676 273.08 249.676 273.998C249.676 275.994 250.452 277.867 251.864 279.28L252.908 280.324C252.994 280.453 253.094 280.609 253.253 280.828C253.807 281.587 254.549 282.383 254.549 282.383C255.458 283.43 256.28 284.518 257.042 285.565C257.589 286.334 258.382 287.866 258.697 288.489C258.707 288.509 258.72 288.529 258.73 288.549C256.164 291.42 256.621 292.123 256.691 292.202L256.701 292.212L256.711 292.222C256.711 292.222 258.402 293.333 260.043 291.688C260.901 290.83 261.8 290.518 262.403 290.409C262.934 290.313 263.358 289.892 263.454 289.358C263.563 288.755 263.875 287.856 264.734 286.997C266.378 285.353 265.281 283.679 265.271 283.662L265.261 283.652L265.251 283.642C265.171 283.569 264.465 283.115 261.591 285.685C261.578 285.678 261.568 285.668 261.558 285.661C260.908 285.31 258.717 284.103 257.656 283.301C256.923 282.744 256.17 282.147 255.428 281.504C255.428 281.504 254.629 280.765 253.87 280.211C253.681 280.072 253.538 279.976 253.419 279.896L252.335 278.812C251.048 277.526 250.342 275.818 250.342 273.998C250.342 272.178 251.048 270.474 252.335 269.188L255.61 265.912C257.981 263.542 258.422 259.965 256.933 257.144C257.994 257.707 259.184 258.006 260.421 258.006C262.416 258.006 264.293 257.23 265.702 255.818L268.974 252.545C270.26 251.259 271.968 250.553 273.788 250.553C275.608 250.553 277.315 251.259 278.601 252.545L279.646 253.59C279.732 253.719 279.831 253.875 279.991 254.094C280.544 254.853 281.287 255.648 281.287 255.648C282.195 256.696 283.017 257.783 283.78 258.831C284.327 259.6 285.119 261.132 285.434 261.755C285.444 261.775 285.457 261.795 285.467 261.815C282.901 264.686 283.359 265.389 283.428 265.468L283.438 265.478L283.448 265.488C283.448 265.488 285.139 266.599 286.78 264.954C287.639 264.096 288.537 263.784 289.141 263.675C289.671 263.578 290.095 263.157 290.192 262.624C290.301 262.02 290.613 261.122 291.471 260.263C293.116 258.619 292.018 256.945 292.008 256.928L291.998 256.918L291.988 256.908C291.909 256.835 291.203 256.381 288.328 258.95C288.315 258.944 288.305 258.934 288.295 258.927C287.645 258.576 285.454 257.369 284.393 256.567C283.664 256.01 282.908 255.413 282.165 254.77C282.165 254.77 281.366 254.031 280.607 253.477C280.418 253.338 280.276 253.242 280.156 253.162L279.072 252.078C277.66 250.666 275.787 249.89 273.791 249.89C272.873 249.89 271.981 250.062 271.149 250.377L279.695 241.83C282.348 239.178 286.667 239.178 289.32 241.83L290.364 242.875C290.45 243.004 290.55 243.16 290.709 243.379C291.262 244.138 292.005 244.934 292.005 244.934C292.913 245.981 293.736 247.069 294.498 248.116C295.045 248.885 295.837 250.417 296.152 251.04C296.162 251.06 296.176 251.08 296.186 251.1C293.62 253.971 294.077 254.674 294.147 254.753L294.157 254.763L294.167 254.773C294.167 254.773 295.857 255.884 297.498 254.239C298.357 253.381 299.255 253.069 299.859 252.96C300.389 252.864 300.814 252.443 300.91 251.909C301.019 251.305 301.331 250.407 302.189 249.548C303.834 247.904 302.736 246.23 302.727 246.213L302.717 246.203L302.707 246.193C302.627 246.12 301.921 245.666 299.047 248.236C299.033 248.229 299.023 248.219 299.013 248.212C298.364 247.861 296.172 246.654 295.111 245.852C294.379 245.295 293.626 244.698 292.884 244.055C292.884 244.055 292.085 243.316 291.325 242.762C291.136 242.623 290.994 242.527 290.874 242.447L289.79 241.363C286.88 238.452 282.139 238.452 279.228 241.363L265.241 255.35C263.955 256.636 262.247 257.343 260.427 257.343C258.607 257.343 256.9 256.633 255.614 255.35L252.978 252.714C253.694 251.77 253.624 250.417 252.762 249.555C252.65 249.442 252.53 249.343 252.401 249.257C252.845 248.355 252.693 247.238 251.94 246.485C250.999 245.544 249.474 245.54 248.529 246.485C248.416 246.598 248.317 246.724 248.23 246.85L247.06 245.679L247.352 245.388C247.508 245.232 247.508 244.983 247.352 244.827C247.196 244.672 246.947 244.672 246.792 244.827L246.5 245.119L236.521 235.14C236.163 234.782 235.623 234.723 235.198 234.951L227.238 226.932C223.741 223.527 221.798 218.959 221.765 214.069C221.732 209.139 223.638 204.497 227.132 201.007C232.675 195.467 240.042 192.413 247.879 192.413H250.322C250.624 192.433 250.926 192.447 251.231 192.447V192.413H256.277C256.409 192.884 256.837 193.229 257.351 193.229H257.695V195.205H258.66V194.051H259.622V195.205H260.583V194.051H261.544V195.205H262.509V193.229H271.46V193.64C271.46 193.859 271.636 194.035 271.855 194.035C272.074 194.035 272.249 193.859 272.249 193.64V193.229H273.907C273.877 193.381 273.861 193.537 273.861 193.696C273.861 195.029 274.938 196.11 276.274 196.11C277.335 196.11 278.233 195.427 278.558 194.475C278.708 194.505 278.863 194.522 279.022 194.522C280.242 194.522 281.247 193.617 281.409 192.44H285.136C288.889 192.44 291.942 195.493 291.942 199.246V219.028C291.942 223.146 295.294 226.497 299.411 226.497H300.887C301.039 226.531 301.218 226.567 301.487 226.607C302.415 226.753 303.502 226.789 303.502 226.789C304.885 226.885 306.234 227.074 307.514 227.277C308.445 227.436 310.09 227.956 310.753 228.175C310.776 228.182 310.796 228.188 310.819 228.192C311.035 232.034 311.853 232.21 311.963 232.216H311.989C312.009 232.216 313.969 231.805 313.969 229.481C313.969 228.268 314.383 227.409 314.734 226.905C315.043 226.461 315.043 225.864 314.734 225.42C314.386 224.916 313.969 224.061 313.969 222.844C313.969 220.52 312.009 220.112 311.989 220.106H311.963C311.857 220.112 311.035 220.288 310.819 224.137C310.806 224.14 310.792 224.14 310.779 224.144C310.073 224.356 307.67 225.052 306.35 225.234C305.442 225.357 304.484 225.47 303.506 225.539C303.506 225.539 302.418 225.582 301.49 225.728C301.258 225.765 301.089 225.798 300.95 225.824H299.415C295.662 225.824 292.608 222.771 292.608 219.018V206.934C293.782 209.523 296.391 211.334 299.415 211.334H300.89C301.042 211.367 301.221 211.403 301.49 211.443C302.418 211.589 303.506 211.625 303.506 211.625C304.888 211.721 306.237 211.914 307.517 212.113C308.449 212.272 310.093 212.792 310.756 213.011C310.779 213.018 310.799 213.024 310.822 213.028C311.038 216.87 311.857 217.046 311.966 217.052H311.993C312.013 217.052 313.972 216.641 313.972 214.317C313.972 213.104 314.386 212.245 314.738 211.741C315.046 211.297 315.046 210.7 314.738 210.256C314.39 209.752 313.972 208.897 313.972 207.68C313.972 205.356 312.013 204.948 311.993 204.942H311.966C311.86 204.948 311.038 205.124 310.822 208.973C310.809 208.976 310.796 208.976 310.783 208.98C310.076 209.192 307.673 209.888 306.353 210.07C305.445 210.193 304.487 210.306 303.509 210.375C303.509 210.375 302.422 210.419 301.493 210.564C301.261 210.601 301.092 210.634 300.953 210.661H299.418C295.665 210.661 292.612 207.607 292.612 203.854V199.226C292.612 195.875 290.39 193.03 287.344 192.089C290.39 191.147 292.612 188.302 292.612 184.951V180.323C292.612 176.57 295.665 173.516 299.418 173.516H300.893C301.046 173.55 301.225 173.586 301.493 173.626C302.422 173.772 303.509 173.808 303.509 173.808C304.891 173.904 306.241 174.093 307.52 174.296C308.452 174.455 310.096 174.975 310.759 175.194C310.783 175.201 310.802 175.207 310.826 175.211C311.041 179.053 311.86 179.229 311.969 179.235H311.996C312.016 179.235 313.975 178.824 313.975 176.5C313.975 175.287 314.39 174.428 314.741 173.924C315.049 173.48 315.049 172.883 314.741 172.439C314.393 171.935 313.975 171.08 313.975 169.863C313.975 167.539 312.016 167.131 311.996 167.125H311.969C311.863 167.131 311.041 167.307 310.826 171.156C310.812 171.159 310.799 171.159 310.786 171.163C310.08 171.375 307.676 172.071 306.357 172.253C305.448 172.376 304.49 172.489 303.512 172.558C303.512 172.558 302.425 172.601 301.497 172.747C301.264 172.784 301.095 172.817 300.956 172.843H299.421C296.398 172.843 293.789 174.65 292.615 177.243V165.159C292.615 161.429 295.632 158.392 299.352 158.356C299.375 158.356 299.398 158.356 299.421 158.356H300.923C301.069 158.386 301.245 158.422 301.497 158.462C302.425 158.608 303.512 158.644 303.512 158.644C303.777 158.664 304.043 158.691 304.305 158.714C304.404 158.724 304.503 158.73 304.603 158.74C305.379 158.82 306.138 158.923 306.88 159.035C308.233 159.294 310.166 159.854 310.786 160.04C310.789 160.04 310.793 160.04 310.799 160.04C310.809 160.04 310.819 160.047 310.829 160.047C311.044 163.896 311.867 164.071 311.973 164.075H311.999C312.019 164.071 313.978 163.66 313.978 161.336C313.978 160.123 314.393 159.264 314.744 158.76C314.897 158.538 314.976 158.276 314.976 158.018C314.976 157.756 314.9 157.497 314.744 157.275C314.396 156.771 313.978 155.916 313.978 154.699C313.978 152.375 312.019 151.967 311.999 151.961H311.973C311.867 151.967 311.044 152.143 310.829 155.989C310.819 155.989 310.809 155.995 310.799 155.995C310.796 155.995 310.792 155.995 310.786 155.995C310.166 156.181 308.233 156.741 306.88 157C306.138 157.113 305.379 157.215 304.603 157.295C304.503 157.305 304.404 157.312 304.305 157.322C304.043 157.345 303.777 157.371 303.512 157.391C303.512 157.391 302.425 157.428 301.497 157.573C301.245 157.613 301.069 157.65 300.923 157.68H299.421C299.398 157.68 299.375 157.68 299.352 157.68C295.632 157.643 292.615 154.606 292.615 150.877V138.793C293.789 141.382 296.398 143.192 299.421 143.192H300.956C301.095 143.218 301.264 143.252 301.497 143.288C302.425 143.434 303.512 143.477 303.512 143.477C304.49 143.547 305.448 143.659 306.357 143.782C307.676 143.968 310.076 144.664 310.786 144.873C310.799 144.876 310.812 144.876 310.826 144.879C311.041 148.728 311.863 148.904 311.969 148.911H311.996C312.016 148.907 313.975 148.496 313.975 146.172C313.975 144.959 314.39 144.1 314.741 143.596C315.049 143.152 315.049 142.555 314.741 142.111C314.393 141.607 313.975 140.752 313.975 139.535C313.975 137.211 312.016 136.803 311.996 136.8H311.969C311.863 136.807 311.041 136.982 310.826 140.825C310.802 140.831 310.783 140.835 310.759 140.841C310.096 141.06 308.452 141.581 307.52 141.74C306.241 141.942 304.891 142.131 303.509 142.227C303.509 142.227 302.422 142.264 301.493 142.41C301.228 142.453 301.046 142.489 300.893 142.519H299.418C295.665 142.519 292.612 139.466 292.612 135.713V131.085C292.612 127.733 290.39 124.888 287.344 123.947C290.39 123.005 292.612 120.161 292.612 116.809L292.632 116.816ZM249.039 64.7896C249.039 64.2426 249.252 63.732 249.636 63.3442C250.021 62.9596 250.535 62.7474 251.082 62.7474C251.629 62.7474 252.139 62.9596 252.527 63.3442C253.323 64.1398 253.323 65.4361 252.527 66.2317C251.731 67.0274 250.435 67.0274 249.639 66.2317C249.255 65.8472 249.043 65.3333 249.043 64.7863L249.039 64.7896ZM66.6842 64.7896C66.6842 65.3366 66.472 65.8472 66.0874 66.2351C65.2917 67.0307 63.9955 67.0307 63.1998 66.2351C62.8153 65.8505 62.6031 65.3366 62.6031 64.7896C62.6031 64.2426 62.8153 63.732 63.1998 63.3442C63.5844 62.9596 64.0983 62.7474 64.6453 62.7474C65.1923 62.7474 65.7028 62.9596 66.0907 63.3442C66.4753 63.7287 66.6875 64.2426 66.6875 64.7896H66.6842ZM66.6842 251.229C66.6842 251.776 66.472 252.287 66.0874 252.675C65.2917 253.47 63.9955 253.47 63.1998 252.675C62.8153 252.29 62.6031 251.776 62.6031 251.229C62.6031 250.682 62.8153 250.172 63.1998 249.784C63.5844 249.399 64.0983 249.187 64.6453 249.187C65.1923 249.187 65.7028 249.399 66.0907 249.784C66.4753 250.168 66.6875 250.682 66.6875 251.229H66.6842ZM249.039 251.229C249.039 250.682 249.252 250.172 249.636 249.784C250.034 249.386 250.558 249.187 251.082 249.187C251.605 249.187 252.126 249.386 252.527 249.784C253.323 250.579 253.323 251.876 252.527 252.671C252.142 253.056 251.629 253.268 251.082 253.268C250.535 253.268 250.024 253.056 249.636 252.671C249.252 252.287 249.039 251.773 249.039 251.226V251.229ZM277.017 123.954C277.017 122.826 277.932 121.911 279.059 121.911C280.186 121.911 281.101 122.826 281.101 123.954C281.101 125.081 280.186 125.996 279.059 125.996C277.932 125.996 277.017 125.081 277.017 123.954ZM200.365 89.6241C203.929 93.1582 208.656 95.0976 213.689 95.0976C213.732 95.0976 213.775 95.0976 213.818 95.0976C217.634 95.0711 221.264 93.934 224.337 91.8387C222.255 94.8987 221.125 98.5057 221.098 102.295C221.065 107.387 223.028 112.178 226.632 115.778C231.939 121.086 239.173 124.08 247.063 124.265C241.295 126.089 237.098 131.575 237.098 138.043V144.286C237.098 151.613 230.686 157.799 223.094 157.799H216.427C213.268 157.819 210.715 155.816 208.895 153.413C208.358 152.72 207.808 152.004 207.327 151.274C205.908 149.04 205.126 146.481 204.496 143.921C203.674 140.473 203.123 136.969 202.765 133.442C202.208 128.134 201.91 122.75 201.028 117.459C201.028 117.442 201.021 117.426 201.018 117.406C202.553 117.867 204.038 118.46 205.434 119.276C209.75 121.742 211.385 126.695 211.431 131.512C211.481 135.922 211.322 136.883 211.322 144.896H216.517C216.517 133.084 215.705 128.824 214.866 126.619C213.692 123.539 211.587 120.86 208.971 118.831C206.511 116.938 203.587 115.944 200.627 115.317C199.997 112.38 199.006 109.492 197.129 107.052C195.097 104.437 192.418 102.328 189.342 101.158C187.137 100.319 182.877 99.5069 171.065 99.5069V104.705C179.078 104.705 180.039 104.546 184.448 104.596C189.265 104.642 194.218 106.277 196.685 110.593C197.484 111.966 198.071 113.424 198.528 114.933C193.247 114.054 187.876 113.756 182.579 113.199C179.051 112.841 175.547 112.29 172.099 111.468C169.536 110.838 166.98 110.056 164.746 108.637C164.017 108.156 163.304 107.606 162.608 107.069C160.181 105.232 158.165 102.656 158.218 99.4605V93.9472H158.198V92.2598C158.198 84.7839 164.282 78.7004 171.758 78.7004H178.03C184.382 78.7004 189.773 74.5165 191.593 68.758C191.629 76.6449 194.739 84.0512 200.368 89.6308L200.365 89.6241ZM199.045 199.385C197.07 199.846 195.037 200.161 193.008 200.503C189.507 201.04 185.967 201.447 182.433 201.975C177.148 202.827 171.764 203.715 166.834 205.913C165.187 206.649 163.725 207.557 162.346 208.705C160.177 210.422 158.198 212.931 157.863 215.773C157.525 212.931 155.549 210.422 153.381 208.705C152.002 207.557 150.54 206.649 148.892 205.913C143.963 203.715 138.579 202.83 133.294 201.975C129.76 201.447 126.219 201.04 122.718 200.503C120.816 200.184 118.906 199.889 117.046 199.472C116.562 197.446 116.24 195.354 115.892 193.265C115.355 189.765 114.948 186.224 114.42 182.69C113.568 177.405 112.68 172.021 110.482 167.092C109.746 165.444 108.745 163.889 107.598 162.51C105.92 160.391 103.56 158.522 100.818 158.137C103.56 157.752 105.92 155.886 107.598 153.764C108.745 152.385 109.746 150.83 110.482 149.183C112.68 144.253 113.565 138.869 114.42 133.584C114.948 130.05 115.355 126.51 115.892 123.009C116.24 120.923 116.565 118.831 117.046 116.803C118.906 116.388 120.816 116.09 122.718 115.771C126.219 115.234 129.76 114.827 133.294 114.3C138.582 113.448 143.966 112.559 148.892 110.361C150.54 109.625 152.188 108.531 153.567 107.381C155.718 105.677 157.535 103.343 157.863 100.564C158.192 103.343 160.008 105.677 162.16 107.381C163.539 108.528 165.187 109.625 166.838 110.361C171.768 112.559 177.152 113.444 182.436 114.3C185.97 114.827 189.511 115.234 193.012 115.771C195.041 116.113 197.076 116.428 199.049 116.889C199.52 118.888 199.838 120.95 200.183 123.009C200.72 126.51 201.127 130.05 201.655 133.584C202.507 138.872 203.395 144.256 205.593 149.183C206.329 150.83 207.423 152.478 208.573 153.857C210.244 155.969 212.525 157.759 215.237 158.134C212.525 158.508 210.244 160.299 208.573 162.41C207.426 163.79 206.329 165.437 205.593 167.085C203.395 172.015 202.51 177.399 201.655 182.683C201.127 186.217 200.72 189.758 200.183 193.259C199.838 195.318 199.52 197.38 199.049 199.379L199.045 199.385ZM191.911 34.7667C193.038 34.7667 193.953 35.6817 193.953 36.8089C193.953 37.9361 193.038 38.8511 191.911 38.8511C190.784 38.8511 189.869 37.9361 189.869 36.8089C189.869 35.6817 190.784 34.7667 191.911 34.7667ZM121.76 36.8089C121.76 35.6817 122.675 34.7667 123.803 34.7667C124.93 34.7667 125.845 35.6817 125.845 36.8089C125.845 37.9361 124.93 38.8511 123.803 38.8511C122.675 38.8511 121.76 37.9361 121.76 36.8089ZM124.134 59.5615C124.592 59.4189 124.926 58.9979 124.926 58.494V46.7911H125.381C125.55 46.7911 125.689 46.6519 125.689 46.4828V46.3701C125.689 46.1977 125.55 46.0618 125.381 46.0618H124.926V44.3843H125.341C125.56 44.3843 125.735 44.2086 125.735 43.9897C125.735 43.7709 125.56 43.5952 125.341 43.5952H124.926V41.9376C125.076 41.9674 125.235 41.984 125.394 41.984C126.727 41.984 127.804 40.9066 127.804 39.5705C127.804 38.5096 127.121 37.6112 126.17 37.2863C126.199 37.1371 126.213 36.9813 126.213 36.8222C126.213 35.6022 125.308 34.5977 124.131 34.4352V30.7089C124.131 26.956 127.184 23.9027 130.937 23.9027H150.719C154.067 23.9027 156.909 21.6881 157.853 18.6447C158.798 21.6881 161.639 23.9027 164.988 23.9027H184.77C188.523 23.9027 191.576 26.956 191.576 30.7089V34.4352C190.399 34.5977 189.494 35.6022 189.494 36.8222C189.494 36.9813 189.511 37.1371 189.537 37.2863C188.586 37.6112 187.903 38.5096 187.903 39.5705C187.903 40.9033 188.98 41.984 190.313 41.984C190.472 41.984 190.631 41.9674 190.781 41.9376V43.5952H190.366C190.147 43.5952 189.972 43.7709 189.972 43.9897C189.972 44.2086 190.147 44.3843 190.366 44.3843H190.781V58.4973C190.781 59.0045 191.119 59.4255 191.579 59.5648V64.468C191.579 71.9439 185.496 78.0274 178.02 78.0274H171.748C164.951 78.0274 159.253 82.8213 157.857 89.2064C156.458 82.8213 150.762 78.0274 143.966 78.0274H137.693C130.218 78.0274 124.134 71.9439 124.134 64.468V59.5615ZM89.0389 115.626C92.6359 112.029 94.6019 107.241 94.5654 102.152C94.5389 98.3731 93.415 94.776 91.3463 91.7227C94.4527 93.861 98.1293 95.0247 101.992 95.0479C102.035 95.0479 102.078 95.0479 102.121 95.0479C107.127 95.0479 111.825 93.1217 115.359 89.6175C120.985 84.0379 124.098 76.6284 124.134 68.7447C125.954 74.5033 131.348 78.6871 137.697 78.6871H143.969C151.445 78.6871 157.529 84.7706 157.529 92.2465V93.934H157.512V99.4472C157.562 102.643 155.543 105.219 153.119 107.056C152.426 107.593 151.71 108.143 150.981 108.624C148.746 110.043 146.187 110.825 143.628 111.455C140.18 112.277 136.676 112.831 133.148 113.186C127.973 113.729 122.728 114.028 117.563 114.863C118.021 113.375 118.601 111.936 119.39 110.58C121.857 106.263 126.809 104.629 131.627 104.583C136.036 104.533 136.997 104.692 145.01 104.692V99.4969C133.198 99.4969 128.938 100.309 126.733 101.148C123.653 102.322 120.975 104.427 118.946 107.042C117.086 109.463 116.095 112.324 115.465 115.234C112.378 115.858 109.318 116.852 106.759 118.822C104.143 120.854 102.035 123.532 100.864 126.609C100.026 128.814 99.2134 133.074 99.2134 144.886H104.412C104.412 136.873 104.253 135.912 104.302 131.502C104.349 126.685 105.983 121.732 110.3 119.266C111.808 118.387 113.416 117.771 115.08 117.293C115.07 117.346 115.064 117.396 115.054 117.449C114.172 122.74 113.873 128.127 113.316 133.432C112.958 136.959 112.408 140.463 111.586 143.911C110.956 146.474 110.174 149.03 108.755 151.265C108.274 151.991 107.724 152.707 107.187 153.403C105.35 155.83 102.774 157.845 99.578 157.792H98.5603H94.3599H92.4337C84.9943 157.792 78.9406 151.729 78.9406 144.276V138.033C78.9406 131.618 74.7336 126.178 68.9617 124.375C76.5536 124.096 83.6483 121.013 89.0488 115.616L89.0389 115.626ZM34.6158 123.954C34.6158 122.826 35.5308 121.911 36.658 121.911C37.7851 121.911 38.7001 122.826 38.7001 123.954C38.7001 125.081 37.7851 125.996 36.658 125.996C35.5308 125.996 34.6158 125.081 34.6158 123.954ZM38.7001 192.062C38.7001 193.189 37.7851 194.104 36.658 194.104C35.5308 194.104 34.6158 193.189 34.6158 192.062C34.6158 190.935 35.5308 190.02 36.658 190.02C37.7851 190.02 38.7001 190.935 38.7001 192.062ZM59.4039 191.704C59.2547 191.26 58.8403 190.938 58.3463 190.938H44.2333V190.524C44.2333 190.305 44.0576 190.129 43.8388 190.129C43.62 190.129 43.4443 190.305 43.4443 190.524V190.938H41.7866C41.8165 190.789 41.8331 190.63 41.8331 190.471C41.8331 189.138 40.7556 188.06 39.4196 188.06C38.3587 188.06 37.4602 188.743 37.1353 189.695C36.9862 189.665 36.8303 189.652 36.6712 189.652C35.4512 189.652 34.4467 190.557 34.2842 191.734H30.5579C26.805 191.734 23.7517 188.68 23.7517 184.928V165.145C23.7517 161.797 21.5371 158.956 18.4937 158.011C21.5371 157.066 23.7517 154.225 23.7517 150.877V131.095C23.7517 127.342 26.805 124.288 30.5579 124.288H34.2842C34.4467 125.465 35.4512 126.37 36.6712 126.37C36.8303 126.37 36.9862 126.354 37.1353 126.327C37.4602 127.279 38.3587 127.962 39.4196 127.962C40.7523 127.962 41.8331 126.884 41.8331 125.551C41.8331 125.392 41.8165 125.233 41.7866 125.084H43.4443V125.498C43.4443 125.717 43.62 125.893 43.8388 125.893C44.0576 125.893 44.2333 125.717 44.2333 125.498V125.084H58.3463C58.8038 125.084 59.1917 124.812 59.3674 124.421H64.7746C72.214 124.421 78.2676 130.534 78.2676 138.053V144.296C78.2676 151.062 83.025 156.735 89.3671 158.14C83.0316 159.543 78.2676 165.328 78.2676 172.233V178.476C78.2676 185.899 72.34 191.714 64.7746 191.714H59.4039V191.704ZM115.276 226.594C111.722 223.07 107.014 221.133 102.005 221.133C101.962 221.133 101.919 221.133 101.876 221.133C98.053 221.16 94.4162 222.307 91.333 224.415C93.4117 221.356 94.5455 217.752 94.5687 213.962C94.6019 208.874 92.6392 204.09 89.0422 200.489C83.6748 195.122 76.6266 192.042 69.0877 191.734C74.8562 189.983 78.9373 184.778 78.9373 178.466V172.224C78.9373 164.638 84.9512 158.465 92.3409 158.465H99.5747C102.771 158.416 105.347 160.431 107.183 162.858C107.72 163.551 108.271 164.267 108.751 164.996C110.17 167.231 110.953 169.79 111.583 172.35C112.405 175.797 112.958 179.302 113.313 182.829C113.87 188.137 114.168 193.521 115.05 198.812C115.06 198.865 115.067 198.915 115.077 198.968C113.413 198.49 111.805 197.87 110.296 196.995C105.98 194.529 104.345 189.576 104.299 184.758C104.253 180.349 104.408 179.388 104.408 171.375H99.2101C99.2101 183.187 100.022 187.447 100.861 189.652C102.035 192.732 104.14 195.41 106.756 197.439C109.318 199.409 112.375 200.406 115.461 201.026C116.091 203.937 117.083 206.802 118.942 209.218C120.975 211.834 123.653 213.943 126.73 215.113C128.935 215.955 133.195 216.764 145.007 216.764V211.569C136.994 211.569 136.033 211.728 131.623 211.678C126.806 211.632 121.853 209.997 119.387 205.681C118.598 204.325 118.017 202.886 117.56 201.398C122.725 202.23 127.97 202.532 133.145 203.075C136.672 203.433 140.177 203.984 143.624 204.806C146.187 205.436 148.743 206.218 150.978 207.637C151.704 208.118 152.42 208.668 153.116 209.205C155.543 211.042 157.558 213.618 157.505 216.814V222.327H157.525V224.014C157.525 231.49 151.442 237.574 143.966 237.574H137.693C131.245 237.574 125.788 241.89 124.051 247.785V247.599C124.051 239.662 120.935 232.2 115.272 226.587L115.276 226.594ZM123.803 281.252C122.675 281.252 121.76 280.337 121.76 279.21C121.76 278.083 122.675 277.168 123.803 277.168C124.93 277.168 125.845 278.083 125.845 279.21C125.845 280.337 124.93 281.252 123.803 281.252ZM193.953 279.21C193.953 280.337 193.038 281.252 191.911 281.252C190.784 281.252 189.869 280.337 189.869 279.21C189.869 278.083 190.784 277.168 191.911 277.168C193.038 277.168 193.953 278.083 193.953 279.21ZM191.586 256.454C191.125 256.593 190.787 257.014 190.787 257.522V271.635H190.373C190.154 271.635 189.978 271.81 189.978 272.029C189.978 272.248 190.154 272.424 190.373 272.424H190.787V274.081C190.638 274.051 190.479 274.035 190.32 274.035C188.987 274.035 187.91 275.112 187.91 276.448C187.91 277.509 188.592 278.408 189.544 278.732C189.514 278.882 189.501 279.038 189.501 279.197C189.501 280.417 190.406 281.421 191.583 281.584V285.31C191.583 289.063 188.529 292.116 184.777 292.116H164.995C161.646 292.116 158.805 294.331 157.86 297.374C156.915 294.331 154.074 292.116 150.726 292.116H130.944C127.191 292.116 124.137 289.063 124.137 285.31V281.584C125.314 281.421 126.219 280.417 126.219 279.197C126.219 279.038 126.203 278.882 126.176 278.732C127.128 278.408 127.811 277.509 127.811 276.448C127.811 275.116 126.733 274.035 125.401 274.035C125.241 274.035 125.082 274.051 124.933 274.081V272.424H125.347C125.566 272.424 125.742 272.248 125.742 272.029C125.742 271.81 125.566 271.635 125.347 271.635H124.933V257.522C124.933 256.988 124.558 256.544 124.058 256.431V251.806H124.141C124.141 244.33 130.224 238.247 137.7 238.247H143.973C150.769 238.247 156.468 233.453 157.863 227.068C159.262 233.453 164.958 238.247 171.754 238.247H178.027C185.503 238.247 191.586 244.33 191.586 251.806V256.454ZM226.685 200.493C223.064 204.113 221.089 208.92 221.125 214.029C221.152 217.802 222.275 221.392 224.344 224.435C221.271 222.34 217.641 221.2 213.821 221.176C208.726 221.15 203.959 223.086 200.365 226.65C194.739 232.23 191.626 239.639 191.589 247.523C189.769 241.764 184.375 237.58 178.027 237.58H171.754C164.278 237.58 158.195 231.497 158.195 224.021V222.333H158.212V216.82C158.162 213.624 160.181 211.048 162.604 209.212C163.297 208.675 164.013 208.124 164.743 207.644C166.977 206.225 169.536 205.442 172.096 204.812C175.544 203.99 179.048 203.437 182.575 203.082C187.87 202.525 193.244 202.23 198.525 201.348C198.067 202.856 197.481 204.315 196.682 205.688C194.215 210.004 189.262 211.639 184.445 211.685C180.036 211.731 179.074 211.576 171.061 211.576V216.774C182.874 216.774 187.134 215.962 189.338 215.123C192.418 213.949 195.097 211.844 197.126 209.228C199.002 206.788 199.994 203.897 200.623 200.963C203.587 200.337 206.508 199.342 208.968 197.449C211.584 195.417 213.692 192.738 214.862 189.662C215.705 187.457 216.513 183.197 216.513 171.385H211.318C211.318 179.398 211.478 180.359 211.428 184.768C211.381 189.585 209.747 194.538 205.431 197.005C204.035 197.817 202.55 198.411 201.015 198.875C201.015 198.858 201.021 198.842 201.025 198.822C201.906 193.531 202.205 188.147 202.762 182.839C203.12 179.312 203.67 175.807 204.492 172.359C205.122 169.797 205.905 167.241 207.324 165.006C207.804 164.28 208.355 163.564 208.892 162.868C210.728 160.441 213.304 158.425 216.5 158.479H221.075V158.472H223.091C230.683 158.472 237.095 164.671 237.095 172.008V178.251C237.095 184.556 241.239 189.907 246.944 191.734C239.289 191.972 232.125 195.059 226.685 200.499V200.493ZM281.101 192.062C281.101 193.189 280.186 194.104 279.059 194.104C277.932 194.104 277.017 193.189 277.017 192.062C277.017 190.935 277.932 190.02 279.059 190.02C280.186 190.02 281.101 190.935 281.101 192.062ZM291.969 131.091V150.873C291.969 154.222 294.183 157.063 297.227 158.008C294.183 158.953 291.969 161.794 291.969 165.142V184.924C291.969 188.677 288.915 191.73 285.162 191.73H281.436C281.274 190.554 280.269 189.648 279.049 189.648C278.89 189.648 278.734 189.665 278.585 189.692C278.26 188.74 277.362 188.057 276.301 188.057C274.968 188.057 273.887 189.135 273.887 190.467C273.887 190.626 273.904 190.786 273.934 190.935H272.276V190.52C272.276 190.302 272.1 190.126 271.881 190.126C271.663 190.126 271.487 190.302 271.487 190.52V190.935H257.374C256.88 190.935 256.466 191.256 256.316 191.701H250.369C243.34 191.243 237.764 185.382 237.764 178.241V171.998C237.764 165.318 232.705 159.543 226.171 158.13C232.705 156.721 237.764 150.953 237.764 144.286V138.043C237.764 130.458 243.818 124.285 251.257 124.285H256.31C256.452 124.743 256.873 125.077 257.377 125.077H271.49V125.492C271.49 125.711 271.666 125.886 271.885 125.886C272.104 125.886 272.279 125.711 272.279 125.492V125.077H273.937C273.907 125.227 273.89 125.386 273.89 125.545C273.89 126.878 274.968 127.955 276.304 127.955C277.365 127.955 278.263 127.272 278.588 126.321C278.737 126.35 278.893 126.364 279.052 126.364C280.272 126.364 281.277 125.459 281.439 124.282H285.166C288.918 124.282 291.972 127.335 291.972 131.088L291.969 131.091Z" fill="black"/>
<path d="M99.254 166.154H94.0557V171.353H99.254V166.154Z" fill="black"/>
<path d="M171.031 216.855H165.833V222.054H171.031V216.855Z" fill="black"/>
<path d="M221.809 166.152H216.611V171.351H221.809V166.152Z" fill="black"/>
<path d="M150.239 216.855H145.041V222.054H150.239V216.855Z" fill="black"/>
</svg>
