<svg width="103" height="104" viewBox="0 0 103 104" fill="none" xmlns="http://www.w3.org/2000/svg">
<path d="M20.2661 95.248H16.9795V98.5321H20.2661V95.248Z" fill="black"/>
<path d="M30.1157 52.5508H26.8291V55.8349H30.1157V52.5508Z" fill="black"/>
<path d="M26.8291 55.834H23.5425V59.1181H26.8291V55.834Z" fill="black"/>
<path d="M30.1157 45.9824H26.8291V49.2665H30.1157V45.9824Z" fill="black"/>
<path d="M26.8291 42.6973H23.5425V45.9814H26.8291V42.6973Z" fill="black"/>
<path d="M59.709 78.8242H56.4224V82.1083H59.709V78.8242Z" fill="black"/>
<path d="M49.8501 82.1074H46.5635V85.3928V88.6769H49.8501V85.3928V82.1074Z" fill="black"/>
<path d="M46.562 78.8242H43.2754V82.1083H46.562V78.8242Z" fill="black"/>
<path d="M62.9956 75.543H59.709V78.8271H62.9956V75.543Z" fill="black"/>
<path d="M43.2749 75.543H39.9883V78.8271H43.2749V75.543Z" fill="black"/>
<path d="M53.1367 88.6797H49.8501V91.9638H53.1367V88.6797Z" fill="black"/>
<path d="M20.2676 91.9648V95.2489H23.5542H26.8408V91.9648H23.5542H20.2676Z" fill="black"/>
<path d="M30.1265 88.6797H26.8398V91.9638H30.1265V88.6797Z" fill="black"/>
<path d="M20.2661 3.2832H16.9795V6.5673H20.2661V3.2832Z" fill="black"/>
<path d="M33.4136 9.85156H30.127V13.1357H33.4136V9.85156Z" fill="black"/>
<path d="M26.8408 9.85246H30.1275V6.56836H26.8408H23.5542H20.2676V9.85246H23.5542H26.8408Z" fill="black"/>
<path d="M85.9922 95.248H82.7056V98.5321H85.9922V95.248Z" fill="black"/>
<path d="M76.1431 52.5508H72.8564V55.8349H76.1431V52.5508Z" fill="black"/>
<path d="M79.4307 55.834H76.144V59.1181H79.4307V55.834Z" fill="black"/>
<path d="M76.1431 45.9824H72.8564V49.2665H76.1431V45.9824Z" fill="black"/>
<path d="M79.4307 42.6973H76.144V45.9814H79.4307V42.6973Z" fill="black"/>
<path d="M79.419 91.9648H76.1323V95.2489H79.419H82.7069V91.9648H79.419Z" fill="black"/>
<path d="M76.1323 88.6797H72.8457V91.9638H76.1323V88.6797Z" fill="black"/>
<path d="M69.9161 96.6284C68.6895 95.7811 67.2762 95.1926 65.8144 94.9233C63.8976 94.5581 61.8914 94.7223 60.0798 95.4028C59.7985 94.2941 59.7065 93.1013 59.7065 91.961H59.7078V88.6769H56.4225V85.3928V82.1074H53.1359V85.3928V88.6769H56.4212V91.961H56.4199C56.4199 91.961 56.4199 94.6921 57.5018 96.6691C57.5242 96.7112 57.5491 96.7519 57.5715 96.7926C57.5373 96.8189 57.5018 96.8425 57.4676 96.8701C56.8682 97.3457 56.3502 97.8974 55.8703 98.482C55.6731 98.7118 55.4759 98.9614 55.2919 99.2202C55.0605 99.5289 54.8331 99.8429 54.6083 100.156C54.1915 100.709 53.6788 101.493 53.0688 102.083C52.5561 102.558 52.0145 102.889 51.482 102.889C51.0377 102.889 50.5841 102.655 50.1477 102.298C49.4338 101.695 48.8409 100.778 48.3716 100.156C48.1178 99.8035 47.8615 99.4514 47.5985 99.1046C47.4855 98.9496 47.3672 98.7999 47.2488 98.6554C46.7296 98.0064 46.1695 97.3929 45.5122 96.8701C45.478 96.8438 45.4425 96.8189 45.4083 96.7926C45.432 96.7506 45.4557 96.7099 45.478 96.6691C46.56 94.6908 46.56 91.961 46.56 91.961V88.6769H43.2733V91.961C43.2733 93.1026 43.1813 94.2941 42.9 95.4028C41.0884 94.7223 39.0822 94.5581 37.1655 94.9233C35.7036 95.1926 34.2916 95.7811 33.0638 96.6284C31.5887 97.5769 29.6654 99.6183 31.0523 101.392C32.2276 102.732 34.7386 102.661 36.3767 102.592C40.201 102.382 43.3706 100.297 45.3045 96.9765C45.7883 97.3312 46.2431 97.7358 46.6625 98.1877C46.6743 98.2008 46.6875 98.2153 46.6993 98.2284C46.9439 98.4951 47.1779 98.7762 47.3974 99.0744C47.4513 99.1401 47.5039 99.2071 47.5565 99.2741C47.5854 99.3148 47.6156 99.3568 47.6446 99.3976C47.7037 99.4856 47.7681 99.5788 47.8339 99.6774C48.6779 100.928 50.0924 103.021 51.4899 103.021C52.8808 103.021 54.2967 100.924 55.142 99.6708C55.2064 99.5749 55.2682 99.4843 55.3261 99.3976C55.3405 99.3765 55.355 99.3568 55.3695 99.3358C55.4378 99.2478 55.5062 99.1598 55.5758 99.0744C56.1819 98.2521 56.8892 97.5506 57.6701 96.9765C59.6039 100.297 62.7736 102.382 66.5979 102.592C68.2359 102.661 70.7456 102.732 71.9222 101.392C73.3144 99.6183 71.3911 97.5769 69.9161 96.6284ZM42.3754 96.8885C42.01 97.6438 41.5157 98.3532 40.9149 98.9404C39.5042 100.341 37.5927 101.208 35.6194 101.417C34.6111 101.523 33.5094 101.465 32.5366 101.178C32.2421 101.091 31.9476 100.974 31.7294 100.758C31.1483 100.182 31.4599 99.232 31.8293 98.6278C32.204 98.0143 32.7653 97.5493 33.3227 97.1092C34.4297 96.2369 35.8916 95.7194 37.2693 95.3988C39.1769 94.9456 41.0936 95.0547 42.8316 95.6668C42.7107 96.0898 42.5608 96.501 42.3754 96.8885ZM71.2544 100.757C71.0375 100.973 70.7417 101.09 70.4472 101.176C69.4743 101.464 68.3713 101.522 67.3643 101.415C65.391 101.206 63.4782 100.339 62.0689 98.9391C61.4681 98.3519 60.9738 97.6425 60.6083 96.8872C60.423 96.4997 60.2731 96.0898 60.1522 95.6655C61.8901 95.0533 63.8069 94.9443 65.7144 95.3975C67.0909 95.7181 68.5541 96.2343 69.661 97.1079C70.2198 97.548 70.7798 98.0117 71.1545 98.6265C71.5239 99.232 71.8355 100.18 71.2544 100.757Z" fill="black"/>
<path d="M39.9855 59.1186V62.3962V62.4027V65.6868H43.2708V68.9709H43.2735H46.5601V69.9417V72.255H49.8454H49.8467V75.5391H53.1333V72.255H56.4187V69.9417V68.9709H58.062H59.7053V68.9644V65.6855H59.7079H62.9945V62.4014H62.9972V59.1173H66.2825V55.8332V52.5491H69.5691V49.265H66.2825V45.9809V43.1014V37.5618V36.5332C54.7254 39.4061 51.6438 29.4225 51.5518 29.0665C51.5531 29.0612 51.5531 29.0586 51.5531 29.0586C51.5531 29.0586 51.5518 29.0612 51.5505 29.0665C51.5492 29.0612 51.5479 29.0586 51.5479 29.0586C51.5479 29.0586 51.5492 29.0612 51.5492 29.0665C51.4572 29.4225 48.256 39.4061 36.7002 36.5332V37.5618V43.1014V47.489V49.2663H33.4136V52.5504H36.7002V59.1186H39.9855ZM46.5627 52.5491H49.8493V55.8319H53.136V52.5478H49.8493V49.2637H46.5627V45.9796H49.8493V42.6955H53.136V45.9796H56.4226V49.2637H53.136V52.5478H56.4226V55.8319H53.136V59.116H49.8493V55.8332H46.5627V52.5491Z" fill="black"/>
<path d="M53.1367 45.9824H49.8501V49.2665H53.1367V45.9824Z" fill="black"/>
<path d="M85.9844 3.26367H82.6978V6.54777H85.9844V3.26367Z" fill="black"/>
<path d="M72.8359 9.83203H69.5493V13.1161H72.8359V9.83203Z" fill="black"/>
<path d="M79.4105 9.83488H82.6971V6.55078H79.4105H76.1239H72.8359V9.83488H76.1239H79.4105Z" fill="black"/>
<path d="M53.1367 3.2841V0H49.8501V3.2841H53.1367Z" fill="black"/>
<path d="M46.562 9.85246V6.56836H43.2754V9.85246V13.1366H46.562V9.85246Z" fill="black"/>
<path d="M56.4224 9.85141H59.709V6.5673H56.4224V3.2832H53.1357V6.5673H56.4224V9.85141Z" fill="black"/>
<path d="M13.7277 52.5508H13.7041V52.5521C13.641 52.556 13.5818 52.5521 13.5226 52.5521C10.4608 52.5521 8.71496 53.4887 6.73509 54.8996C4.39633 56.5666 3.34592 59.1807 3.50368 62.0169C3.54312 62.8471 3.68247 63.7062 3.94672 64.518C2.69385 65.2616 1.65133 66.3479 1.04134 67.6905C0.0422015 69.8015 -0.364026 72.0071 0.504959 73.9355C-0.237819 75.6564 0.00276234 77.64 0.850712 79.5986C1.42916 81.1579 2.56765 82.4348 3.97432 83.2768C3.89413 83.5251 3.82577 83.7747 3.77318 84.0269C3.21446 86.6476 3.59439 89.3051 5.3718 91.3662C7.4713 93.7978 10.4871 95.227 13.6922 95.2467V95.248H16.9789V91.9639H13.754V91.9626C12.0962 91.9626 10.4161 91.9166 8.85694 91.294C7.98927 90.9472 7.18865 90.4388 6.53001 89.7741C5.62027 88.8454 5.12727 87.604 4.99844 86.2982C4.91298 85.4864 4.92482 84.6364 5.08126 83.8286C5.94893 84.1767 6.8797 84.3711 7.81968 84.3829C9.30655 84.4066 10.9249 84.0768 12.0949 83.1034C12.7286 82.578 13.0296 81.6571 12.743 80.8571C12.4486 80.0729 11.6322 79.6078 10.8697 79.3806C9.34205 78.9352 7.64352 79.1717 6.30652 80.0571C5.22456 80.7494 4.47652 81.8594 4.04663 83.0601C2.99754 82.4479 2.09963 81.5836 1.49489 80.5103C0.399787 78.4637 -0.212841 76.17 0.598299 74.1326C0.911186 74.7566 1.3608 75.349 1.97474 75.8981C4.11894 77.7871 6.58522 76.9595 8.60978 75.374C9.12644 74.9773 9.60103 74.5385 10.0533 74.0774C11.7005 75.8548 13.0625 77.9408 15.162 79.2203C17.669 80.7717 20.8019 80.5366 23.2642 79.0285C25.0232 77.9789 26.5298 76.375 27.5224 74.5227C27.7261 74.997 27.8944 75.4804 28.0246 75.9638C28.2402 76.7191 28.3611 77.5901 28.3572 78.4689C27.4908 78.775 26.6626 79.1822 25.9001 79.7234C25.3151 80.178 24.7524 80.7376 24.5158 81.4574C24.237 82.243 24.5302 83.1087 25.44 83.219C26.6258 83.353 27.638 82.3993 28.0614 81.3681C28.4729 80.4394 28.6885 79.4752 28.741 78.507C29.163 78.3717 29.589 78.2561 30.011 78.1563C32.2275 77.619 34.5032 77.7201 36.7657 77.64V77.4719C35.9729 77.5126 35.1776 77.5113 34.3822 77.5336C32.5088 77.6019 30.5553 77.7687 28.7502 78.3375C28.8015 76.8334 28.4558 75.3254 27.8195 73.9303C28.4755 72.5155 28.8318 70.9825 28.7779 69.4534C30.5921 70.0248 32.5154 70.2022 34.4111 70.2639C35.1999 70.2876 35.9835 70.2862 36.7657 70.3257V70.1575C34.5137 70.08 32.2485 70.1772 30.0439 69.6439C29.6205 69.544 29.1946 69.4284 28.7739 69.2931C28.7213 68.325 28.507 67.3608 28.0942 66.432C27.6709 65.4021 26.6573 64.4471 25.4728 64.5811C24.2831 64.7374 24.2502 66.0248 24.7839 66.8576C25.4886 67.9769 26.6981 68.6508 27.8891 69.1381C28.0548 69.2038 28.2204 69.2655 28.3874 69.3233C28.4005 70.6816 28.0903 72.0583 27.5329 73.3483C26.5403 71.4646 25.0166 69.8317 23.2353 68.769C20.7743 67.2609 17.6401 67.0258 15.1331 68.5772C13.0467 69.8501 11.6874 71.9191 10.0533 73.6886C9.61023 73.2393 9.14616 72.8111 8.64265 72.4248C6.79557 70.9693 4.41342 70.0669 2.33495 71.6367C1.5317 72.2633 0.963772 72.9726 0.59567 73.7359C-0.257539 71.68 0.359033 69.3575 1.46597 67.2872C2.07071 66.2126 2.96993 65.347 4.02165 64.7348C4.45286 65.9433 5.17329 67.0324 6.27628 67.7417C7.61196 68.6284 9.31181 68.8649 10.8394 68.4182C11.6006 68.1897 12.417 67.726 12.7115 66.9417C12.9981 66.1417 12.6984 65.2208 12.0634 64.6954C11.0327 63.8336 9.66545 63.4921 8.3508 63.4225C7.22809 63.3581 6.09354 63.5551 5.04971 63.9729C4.89327 63.1637 4.88012 62.3124 4.96689 61.5006C5.09572 60.1949 5.59003 58.9535 6.49845 58.0247C8.23379 56.2723 10.5055 55.8362 13.0717 55.8362C13.2137 55.8362 13.4332 55.8362 13.7211 55.8362V55.8349H16.9907V52.5508H13.7277ZM6.83369 80.8006C7.89987 79.977 9.38806 79.6761 10.7053 79.9862C11.314 80.1359 12.0121 80.4538 12.2685 81.0397C12.5169 81.6492 12.304 82.3533 11.8136 82.7987C11.0564 83.512 9.93627 83.8601 8.9069 84.0295C7.63957 84.2121 6.32886 84.0453 5.13648 83.5842C5.38757 82.4952 5.91606 81.4995 6.83369 80.8006ZM27.2989 82.1918C26.7704 82.8499 25.7699 83.3609 24.9654 82.913C24.1463 82.3468 24.6367 81.1711 25.1954 80.5839C26.0486 79.6591 27.17 79.0574 28.3558 78.6357C28.3256 79.9323 28.0127 81.2328 27.2989 82.1918ZM25.2283 67.215C24.7682 66.7092 24.3764 65.9447 24.6617 65.2694C24.9851 64.5785 25.9277 64.6244 26.5127 64.9384C27.149 65.2642 27.6131 65.8645 27.8589 66.5305C28.1902 67.3765 28.3572 68.2632 28.3835 69.1605C27.2003 68.7401 26.0802 68.1384 25.2283 67.215ZM13.2163 70.6015C14.2286 69.5677 15.4144 68.6954 16.8053 68.2711C21.1437 66.9811 25.3427 70.0918 27.2555 73.9434C25.6319 77.1776 22.4478 79.7339 18.9495 79.8285C16.7527 79.8916 14.7334 78.7566 13.2492 77.1973C12.2014 76.1424 11.2759 74.9575 10.2426 73.8817C11.2628 72.8163 12.1804 71.6459 13.2163 70.6015ZM1.71838 72.3999C3.82708 70.1667 6.34595 70.8642 8.49147 72.6101C8.98446 72.9976 9.43933 73.4298 9.87185 73.883C9.43013 74.348 8.96737 74.7907 8.46254 75.1874C6.31309 76.9346 3.79947 77.6295 1.68946 75.3976C1.25037 74.9326 0.920389 74.44 0.683752 73.9316C0.923018 73.3996 1.26088 72.8859 1.71838 72.3999ZM8.87271 63.7693C9.9034 63.9387 11.0222 64.2868 11.7794 65.0002C12.2685 65.4455 12.4827 66.1496 12.2343 66.7591C11.9779 67.345 11.2798 67.6629 10.6712 67.8127C9.35519 68.124 7.86701 67.8232 6.80082 66.9995C5.8832 66.3007 5.35471 65.3049 5.10229 64.2159C6.29468 63.7522 7.60539 63.5867 8.87271 63.7693Z" fill="black"/>
<path d="M101.949 21.6853C101.339 20.3428 100.298 19.2564 99.0437 18.5129C99.3066 17.7011 99.4473 16.8432 99.4867 16.013C99.6445 13.1769 98.5941 10.5614 96.2553 8.89572C94.2754 7.48487 92.5296 6.54824 89.4678 6.54824C89.4007 6.54824 89.3363 6.55349 89.2627 6.54693V6.54824H85.9839V9.83234H89.2706C89.5572 9.83234 89.7767 9.83234 89.9187 9.83234C92.4849 9.83234 94.7566 10.2685 96.4919 12.0209C97.4004 12.9496 97.8947 14.191 98.0235 15.4968C98.109 16.3086 98.0971 17.1598 97.9407 17.969C96.8969 17.5513 95.7623 17.3542 94.6396 17.4186C93.3263 17.4869 91.9577 17.8298 90.927 18.6915C90.2921 19.217 89.9923 20.1365 90.2789 20.9379C90.5734 21.7221 91.3898 22.1871 92.151 22.4144C93.6786 22.8597 95.3771 22.6233 96.7141 21.7379C97.8171 21.0298 98.5362 19.9421 98.9688 18.7336C100.02 19.3457 100.918 20.2101 101.523 21.2847C102.626 23.3458 103.241 25.6578 102.401 27.7084C102.033 26.9543 101.469 26.2555 100.675 25.6354C98.5967 24.0656 96.2159 24.9681 94.3675 26.4236C93.86 26.8138 93.392 27.2446 92.9463 27.6979C91.3083 25.9258 89.9476 23.8502 87.856 22.5747C85.3503 21.0232 82.2162 21.2584 79.7538 22.7664C77.979 23.8252 76.4606 25.4502 75.4667 27.3248C74.9146 26.0414 74.6096 24.6725 74.6227 23.3221C74.7897 23.263 74.9566 23.2026 75.121 23.1369C76.3121 22.6495 77.5215 21.9756 78.2262 20.8564C78.7599 20.0236 78.7271 18.7362 77.5373 18.5799C76.3528 18.4459 75.3392 19.3996 74.9159 20.4308C74.5044 21.3595 74.2888 22.3238 74.2362 23.2919C73.8155 23.4272 73.3883 23.5428 72.9663 23.6426C72.7191 23.7018 72.472 23.753 72.2248 23.7977C71.8225 22.7481 70.7879 21.7996 69.9123 21.2374C68.6871 20.3901 67.2765 19.8029 65.8159 19.5336C63.8912 19.1658 61.8746 19.3339 60.0564 20.0223C59.7212 18.8176 59.7159 17.6656 59.7159 16.4242L58.8929 16.4216H59.7093V13.1375V9.85336H56.4227V13.1375V16.4216H56.4266C56.4266 16.5253 56.428 16.6278 56.4293 16.7316L56.4253 16.725C56.4253 16.725 56.3215 18.9897 57.5651 21.4108C57.5362 21.4331 57.506 21.4541 57.4771 21.4765C57.0393 21.8233 56.6449 22.2095 56.2781 22.6206C55.9323 22.9871 55.5471 23.4325 55.2198 23.9133C55.1764 23.9763 55.1317 24.0433 55.0844 24.1129C55.0029 23.9185 54.9227 23.7215 54.8451 23.5165C53.8473 20.8643 53.1295 18.0032 53.1295 15.1697C53.1295 13.8087 53.1242 12.4334 53.119 11.0317C53.1729 9.52495 53.1361 8.03003 53.1361 6.56794H53.1085C53.1085 6.56138 53.1085 6.55612 53.1085 6.54955L49.8494 6.54693V3.28516H46.5628V6.56926H49.8245C49.8245 8.02477 49.7877 9.51444 49.8416 11.0146C49.8363 12.4294 49.831 13.8179 49.831 15.192C49.831 18.0255 49.1132 20.8866 48.1154 23.5389C48.0431 23.728 47.9682 23.9133 47.8932 24.0945C47.8196 23.9947 47.7447 23.8949 47.6698 23.795C47.4896 23.5415 47.2964 23.2972 47.1018 23.0712C46.6246 22.4919 46.1093 21.9454 45.515 21.4738C45.4861 21.4515 45.4559 21.4292 45.4256 21.4081C46.6667 18.9884 46.5628 16.7263 46.5628 16.7263C46.5654 16.6212 46.5654 16.5161 46.5654 16.4111H46.5615V13.1388H43.2749V16.4229H43.2762C43.2762 17.6643 43.2709 18.8163 42.9357 20.0196C41.1175 19.3313 39.1009 19.1631 37.1762 19.531C35.7169 19.8016 34.3063 20.3874 33.0798 21.2347C32.1989 21.8009 31.1551 22.7599 30.7594 23.8187C30.5096 23.774 30.2611 23.7228 30.0127 23.6624C29.5894 23.5625 29.1634 23.4469 28.7427 23.3116C28.6901 22.3435 28.4758 21.3792 28.063 20.4505C27.6397 19.4206 26.6261 18.4656 25.4416 18.5996C24.2519 18.7559 24.219 20.0433 24.7528 20.8761C25.4574 21.9953 26.6669 22.6692 27.858 23.1566C28.0236 23.2223 28.1892 23.284 28.3562 23.3418C28.3694 24.6988 28.0604 26.0742 27.503 27.3642C26.5104 25.4817 24.9868 23.8515 23.2067 22.7888C20.7444 21.2807 17.6102 21.0456 15.1045 22.597C13.0169 23.8699 11.6588 25.9389 10.0247 27.7097C9.58036 27.2591 9.11629 26.8309 8.61146 26.4433C6.76438 24.9878 4.38223 24.0853 2.30377 25.6551C1.50051 26.2818 0.933899 26.9885 0.565796 27.7517C-0.286098 25.6959 0.330474 23.3747 1.43741 21.307C2.04215 20.2324 2.94137 19.3681 3.99178 18.7559C4.42298 19.9645 5.14341 21.0521 6.2464 21.7602C7.58341 22.6456 9.28193 22.8821 10.8096 22.4367C11.5707 22.2095 12.3871 21.7444 12.6816 20.9602C12.9682 20.1589 12.6685 19.2393 12.0335 18.7139C11.0028 17.8521 9.63426 17.5093 8.32092 17.4409C7.19821 17.3766 6.06367 17.5736 5.01983 17.9914C4.86339 17.1822 4.85156 16.3309 4.93701 15.5191C5.06585 14.2133 5.56016 12.9719 6.46858 12.0432C8.20392 10.2908 10.4756 9.85467 13.0418 9.85467C13.1838 9.85467 13.4034 9.85467 13.6913 9.85467L13.6926 9.19654V9.85336H16.9792V6.56926H13.6926C13.6216 6.57451 13.5585 6.57057 13.4928 6.57057C10.4309 6.57057 8.68508 7.5072 6.70522 8.91805C4.36645 10.5837 3.31605 13.1992 3.4738 16.0354C3.51324 16.8656 3.6526 17.7234 3.91684 18.5352C2.66398 19.2787 1.62146 20.3651 1.01146 21.7077C0.0123282 23.8187 -0.392584 26.023 0.475086 27.9514C-0.269007 29.6736 -0.0297406 31.6572 0.819524 33.6171C1.39797 35.1764 2.53646 36.4533 3.94314 37.2953C3.86294 37.5436 3.79458 37.7932 3.74199 38.0454C3.18327 40.6661 3.5632 43.3236 5.34061 45.3847C7.44931 47.8268 10.4835 49.2586 13.7044 49.2665H16.9911V52.5506H20.2553V55.8347H23.542V52.5506H20.2777V49.2665H23.5433V45.9824H20.2553V49.2652H16.9911V45.9824H13.7228V45.9811C12.0651 45.9811 10.3849 45.9351 8.82575 45.3125C7.95808 44.9657 7.15746 44.4573 6.49882 43.7926C5.58908 42.8638 5.09608 41.6224 4.96725 40.3167C4.8818 39.5049 4.89363 38.6549 5.05007 37.847C5.91774 38.1952 6.84851 38.3896 7.78849 38.4014C9.27536 38.425 10.8937 38.0953 12.0637 37.1219C12.6974 36.5965 12.9985 35.6756 12.7119 34.8756C12.4174 34.0913 11.601 33.6263 10.8385 33.3991C9.31086 32.9537 7.61233 33.1902 6.27533 34.0756C5.19337 34.7679 4.44533 35.8779 4.01544 37.0786C2.96635 36.4664 2.06844 35.602 1.4637 34.5288C0.368599 32.4808 -0.245343 30.1872 0.568426 28.1484C0.881313 28.7724 1.33092 29.3662 1.94487 29.9153C4.08775 31.8043 6.55535 30.9767 8.57991 29.3911C9.09525 28.9957 9.56984 28.557 10.0221 28.0959C11.6693 29.8732 13.0313 31.9593 15.1308 33.2388C17.6379 34.7902 20.7707 34.5551 23.233 33.047C24.992 31.9974 26.4999 30.3921 27.4925 28.5386C27.6963 29.0128 27.8645 29.4962 27.9947 29.981C28.2103 30.7363 28.3325 31.6086 28.3273 32.4874C27.4622 32.7935 26.6353 33.1994 25.8728 33.7419C25.2878 34.1951 24.7251 34.756 24.4885 35.4759C24.2098 36.2615 24.503 37.1285 25.4127 37.2375C26.5972 37.3715 27.6108 36.4165 28.0341 35.3866C28.4456 34.4579 28.6612 33.4923 28.7125 32.5229C29.1332 32.3876 29.5578 32.2733 29.9798 32.1734C32.8655 31.4759 35.855 31.8595 38.7827 31.5153C40.823 31.2289 42.8805 30.7468 44.7328 29.8168C46.5247 28.8131 47.8183 27.3497 48.8227 25.6578C49.5997 26.6601 50.5488 27.6112 51.4914 27.6112C52.4275 27.6112 53.374 26.6614 54.151 25.6591C55.1527 27.3419 56.4437 28.7974 58.2277 29.7957C60.0801 30.7258 62.1375 31.2079 64.1778 31.4943C67.1056 31.8385 70.0951 31.4549 72.9807 32.1524C73.4027 32.2522 73.8274 32.3678 74.2481 32.5018C74.2993 33.4713 74.5149 34.4355 74.9264 35.3656C75.3497 36.3955 76.3633 37.3505 77.5478 37.2165C78.4576 37.1075 78.7507 36.2405 78.472 35.4549C78.2354 34.735 77.6727 34.1741 77.0877 33.7209C76.3252 33.1797 75.4983 32.7724 74.6332 32.4664C74.628 31.5862 74.7502 30.7153 74.9659 29.9599C75.0973 29.4686 75.2682 28.98 75.4759 28.4992C76.4685 30.3606 77.9804 31.9738 79.7459 33.0286C82.2083 34.5367 85.3411 34.7718 87.8481 33.2204C89.9437 31.9422 91.3057 29.8601 92.949 28.0854C93.3986 28.5425 93.8692 28.9773 94.3806 29.3701C96.4052 30.9557 98.8728 31.7833 101.016 29.8943C101.636 29.3386 102.09 28.7383 102.403 28.1077C103.23 30.1517 102.617 32.4545 101.515 34.5104C100.91 35.5836 100.014 36.448 98.9635 37.0602C98.5336 35.8595 97.7856 34.7482 96.7036 34.0572C95.3679 33.1718 93.6681 32.934 92.1405 33.3807C91.3793 33.6092 90.5616 34.073 90.2671 34.8572C89.9805 35.6572 90.2815 36.5781 90.9152 37.1035C92.0852 38.0769 93.7023 38.4067 95.1904 38.383C96.1304 38.3725 97.0612 38.1781 97.9289 37.8287C98.0853 38.6379 98.0971 39.4878 98.0117 40.2983C97.8829 41.6041 97.3899 42.8454 96.4801 43.7742C95.8215 44.4389 95.0209 44.9473 94.1532 45.2941C92.5953 45.9181 90.9165 45.9627 89.2601 45.9627V45.9614H85.9734V49.2455H89.2495V49.2481C92.4796 49.2481 95.5244 47.815 97.6383 45.3663C99.4171 43.3052 99.7957 40.6477 99.2369 38.027C99.183 37.7761 99.1147 37.5252 99.0358 37.2769C100.442 36.4349 101.582 35.158 102.159 33.5987C103.011 31.6309 103.249 29.6381 102.495 27.9107C103.35 25.9849 102.944 23.7885 101.949 21.6853ZM96.1896 20.9957C95.1234 21.8193 93.6352 22.1201 92.3179 21.8101C91.7092 21.659 91.0112 21.3411 90.7548 20.7566C90.5063 20.1484 90.7206 19.4429 91.2097 18.9976C91.9682 18.2843 93.0857 17.9362 94.1164 17.7667C95.3837 17.5841 96.6944 17.751 97.8881 18.2134C97.6344 19.3011 97.1072 20.2968 96.1896 20.9957ZM75.1538 20.528C75.3997 19.862 75.8638 19.2603 76.5001 18.9359C77.0838 18.6206 78.0277 18.5746 78.3511 19.2669C78.6377 19.9421 78.2446 20.7067 77.7845 21.2124C76.9326 22.1359 75.8125 22.7375 74.6293 23.1579C74.6556 22.2607 74.8226 21.374 75.1538 20.528ZM25.1971 21.2321C24.737 20.7264 24.3452 19.9618 24.6305 19.2866C24.9539 18.5956 25.8965 18.6416 26.4815 18.9556C27.1178 19.2814 27.5819 19.8817 27.8277 20.5477C28.159 21.3937 28.326 22.2804 28.3523 23.1776C27.1691 22.7573 26.049 22.1556 25.1971 21.2321ZM8.84415 17.7878C9.87484 17.9572 10.9923 18.3053 11.7508 19.0186C12.2399 19.464 12.4542 20.1694 12.2057 20.7776C11.9494 21.3622 11.2513 21.6801 10.6426 21.8311C9.32532 22.1412 7.83713 21.8403 6.77095 21.0167C5.85332 20.3178 5.32615 19.3221 5.07242 18.2344C6.26612 17.772 7.57683 17.6052 8.84415 17.7878ZM6.8025 34.8165C7.86868 33.9928 9.35687 33.692 10.6742 34.002C11.2828 34.1518 11.9809 34.4697 12.2373 35.0556C12.4857 35.6651 12.2728 36.3692 11.7824 36.8145C11.0252 37.5278 9.90508 37.8759 8.87571 38.0454C7.60838 38.228 6.29768 38.0612 5.10529 37.6001C5.35639 36.5124 5.88356 35.5153 6.8025 34.8165ZM94.1085 38.0257C93.0778 37.8562 91.959 37.5081 91.2018 36.7948C90.7114 36.3495 90.4985 35.6454 90.7469 35.0359C91.0033 34.45 91.7 34.1321 92.31 33.9823C93.626 33.671 95.1155 33.9718 96.1817 34.7968C97.098 35.4956 97.6252 36.4914 97.8789 37.5804C96.6865 38.0428 95.3758 38.2083 94.1085 38.0257ZM65.7186 19.9855C67.7458 20.4676 69.6941 21.5723 70.9641 23.2394C71.1192 23.4469 71.252 23.686 71.3387 23.9317C69.6547 24.1379 67.9456 24.0972 66.2445 24.1563V24.3244C67.0293 24.2837 67.8141 24.2837 68.599 24.2627C69.5245 24.2325 70.4566 24.1747 71.3782 24.0564C71.5543 24.666 71.4386 25.2978 70.7182 25.6092C69.7414 26.0348 68.5122 25.9271 67.4474 25.8456C65.4714 25.6354 63.4758 24.9471 62.0652 23.5454C61.1397 22.639 60.506 21.4948 60.1274 20.264C61.8719 19.6426 63.8005 19.5296 65.7186 19.9855ZM32.0267 23.238C33.2954 21.5723 35.2437 20.4676 37.2722 19.9842C39.1903 19.5283 41.1175 19.6413 42.8634 20.2626C42.4835 21.4948 41.8498 22.639 40.9256 23.5441C39.515 24.9458 37.5193 25.6354 35.5434 25.8443C34.4785 25.9258 33.2493 26.0322 32.2726 25.6079C31.5587 25.3005 31.4391 24.6791 31.606 24.0761C32.5263 24.1931 33.4557 24.2509 34.3799 24.2811C35.1674 24.3034 35.9523 24.3034 36.7345 24.3428V24.1747C35.0346 24.1156 33.3282 24.1563 31.6455 23.9514C31.7322 23.6978 31.8676 23.4509 32.0267 23.238ZM8.43398 29.2059C6.28453 30.9544 3.77092 31.648 1.6609 29.4161C1.22049 28.9498 0.890516 28.4558 0.653878 27.9461C0.893145 27.4154 1.2297 26.9018 1.68719 26.4171C3.79589 24.1839 6.31477 24.8814 8.46028 26.6272C8.95459 27.0161 9.40946 27.4483 9.84198 27.9028C9.40157 28.3678 8.93881 28.8092 8.43398 29.2059ZM18.9183 33.8457C16.7215 33.9087 14.7022 32.7738 13.218 31.2145C12.1702 30.1596 11.2447 28.9747 10.2114 27.8988C11.2316 26.8322 12.1505 25.6617 13.1864 24.6174C14.1987 23.5835 15.3845 22.71 16.7754 22.287C21.1138 20.997 25.3128 24.1064 27.2256 27.9593C25.6007 31.1935 22.4179 33.7511 18.9183 33.8457ZM27.2677 36.2089C26.7392 36.8671 25.7387 37.3781 24.9342 36.9301C24.1151 36.3639 24.6055 35.1882 25.1642 34.601C26.0174 33.6762 27.1388 33.0733 28.3247 32.6529C28.2944 33.9495 27.9815 35.25 27.2677 36.2089ZM40.852 30.6706C39.8239 31.0411 38.7498 31.3077 37.66 31.422C36.5623 31.5363 35.4593 31.5219 34.3536 31.5521C32.479 31.6191 30.5267 31.7859 28.7217 32.356C28.773 30.8506 28.4272 29.3412 27.7896 27.9461C28.4443 26.5327 28.8006 24.9996 28.7467 23.4719C29.3908 23.6755 30.0495 23.8279 30.716 23.9435C30.5004 24.6121 30.5517 25.3149 31.071 25.9809C32.2436 27.3169 34.7507 27.2447 36.3848 27.1777C39.0943 27.0292 41.483 26.0006 43.2604 24.197C43.2657 24.1931 43.2696 24.1891 43.2749 24.1852C44.1938 23.372 44.8551 22.4696 45.3323 21.5815C45.6255 21.7983 45.9094 22.0334 46.1802 22.2857C46.4852 22.5825 46.8796 22.9924 47.2517 23.46C47.3056 23.5284 47.3595 23.5967 47.4108 23.6676C47.4226 23.6821 47.4344 23.6965 47.4449 23.711C47.5133 23.8016 47.5804 23.8949 47.6435 23.9881C47.7 24.0709 47.7605 24.1602 47.8236 24.2535C46.4156 27.5153 44.3161 29.4043 40.852 30.6706ZM51.4822 27.4785C50.9971 27.4785 50.5028 27.2 50.0295 26.7875C49.6154 26.4118 49.2447 25.9402 48.916 25.4949C50.044 23.5402 50.7986 21.2965 51.4822 19.1066C52.1685 21.3031 52.927 23.552 54.0629 25.5093C53.8447 25.8049 53.6067 26.111 53.3504 26.3934C52.7588 27.0134 52.1146 27.4785 51.4822 27.4785ZM77.7963 34.58C78.355 35.1672 78.8454 36.3429 78.0264 36.9091C77.2218 37.3571 76.2213 36.8461 75.6929 36.1879C74.979 35.229 74.6661 33.9285 74.6359 32.6319C75.8217 33.0523 76.9431 33.6552 77.7963 34.58ZM74.2389 32.335C72.4338 31.7649 70.4803 31.5994 68.6069 31.5311C67.5013 31.5008 66.3983 31.5153 65.3005 31.401C64.2107 31.2867 63.1366 31.0201 62.1086 30.6496C58.6537 29.3872 56.5555 27.5034 55.1462 24.2561C55.2014 24.1734 55.2553 24.0959 55.3052 24.0197C55.396 23.9014 55.4867 23.7845 55.58 23.6689C56.1808 22.8532 56.8841 22.1569 57.6585 21.5842C58.1357 22.4709 58.797 23.3707 59.7133 24.1826C59.7198 24.1891 59.7264 24.1944 59.733 24.1996C61.5104 26.0006 63.8978 27.0292 66.6073 27.179C68.2414 27.246 70.7485 27.3182 71.9211 25.9822C72.447 25.3083 72.493 24.5977 72.2682 23.9211C72.9321 23.8055 73.5894 23.6532 74.2323 23.4509C74.1797 24.9707 74.5307 26.4959 75.1801 27.9028C74.536 29.3058 74.1876 30.823 74.2389 32.335ZM89.7609 31.1961C88.2767 32.7554 86.2574 33.8904 84.0606 33.8273C80.5544 33.7314 77.3651 31.1646 75.7441 27.9199C77.6609 24.0761 81.8533 20.9773 86.1851 22.266C87.576 22.6889 88.7618 23.5625 89.7741 24.5964C90.814 25.6446 91.7355 26.8203 92.7597 27.8896C91.7303 28.9629 90.8061 30.1439 89.7609 31.1961ZM101.3 29.3951C99.1896 31.627 96.676 30.9334 94.5266 29.1849C94.0257 28.7921 93.5669 28.3547 93.1291 27.8923C93.5642 27.4338 94.0217 26.999 94.5187 26.6088C96.6642 24.863 99.183 24.1655 101.292 26.3987C101.743 26.8768 102.078 27.3813 102.316 27.9054C102.078 28.423 101.745 28.9222 101.3 29.3951Z" fill="black"/>
<path d="M101.935 67.6903C101.325 66.3478 100.284 65.2614 99.0294 64.5179C99.2936 63.7061 99.433 62.8469 99.4724 62.0167C99.6302 59.1806 98.5798 56.5651 96.241 54.8994C94.2612 53.4886 92.5153 52.5519 89.4535 52.5519C89.3904 52.5519 89.3286 52.5559 89.2602 52.5506H85.9815V49.2652H82.7172V45.9824H79.4306V49.2665H82.6949V52.5506H79.4306V55.8347H82.7172V52.5506H85.9736V55.8347H89.255V55.836C89.5429 55.836 89.7624 55.836 89.9044 55.836C92.4706 55.836 94.7423 56.2722 96.4777 58.0246C97.3861 58.9533 97.8804 60.1947 98.0092 61.5005C98.096 62.3123 98.0829 63.1635 97.9264 63.9727C96.8826 63.555 95.748 63.3579 94.6253 63.4223C93.312 63.4906 91.9434 63.8335 90.9127 64.6952C90.2778 65.2207 89.978 66.1402 90.2646 66.9416C90.5591 67.7258 91.3755 68.1908 92.1367 68.4181C93.6643 68.8634 95.3628 68.627 96.6998 67.7416C97.8028 67.0322 98.5233 65.9445 98.9545 64.7346C100.006 65.3468 100.905 66.2125 101.51 67.287C102.613 69.3481 103.23 71.6628 102.387 73.7147C102.019 72.9593 101.455 72.2592 100.66 71.6378C98.5811 70.068 96.2003 70.9705 94.3519 72.426C93.8444 72.8148 93.3777 73.247 92.9321 73.6989C91.294 71.9268 89.9333 69.8526 87.843 68.577C85.3373 67.0256 82.2032 67.2608 79.7408 68.7688C77.9647 69.8289 76.4463 71.4539 75.4538 73.3298C74.9016 72.0451 74.5953 70.6749 74.6071 69.3245C74.7741 69.2654 74.941 69.205 75.1054 69.1393C76.2964 68.6519 77.5059 67.978 78.2106 66.8588C78.7443 66.026 78.7115 64.7386 77.5217 64.5823C76.3372 64.4483 75.3236 65.402 74.9003 66.4332C74.4888 67.3619 74.2732 68.3261 74.2206 69.2943C73.7999 69.4296 73.3727 69.5452 72.9507 69.645C70.746 70.1784 68.4809 70.0812 66.2289 70.1587V70.3268C67.0137 70.2861 67.7985 70.2874 68.5834 70.2651C70.4791 70.2033 72.4025 70.026 74.2167 69.4546C74.1641 70.9758 74.5164 72.5022 75.1659 73.9104C74.523 75.3108 74.1746 76.8267 74.2259 78.3374C72.4209 77.7686 70.4673 77.6018 68.5939 77.5334C67.7985 77.5111 67.0032 77.5124 66.2104 77.4717V77.6398C68.473 77.72 70.7499 77.6201 72.9651 78.1561C73.3871 78.2559 73.8144 78.3716 74.2351 78.5069C74.2877 79.475 74.502 80.4392 74.9148 81.368C75.3381 82.3979 76.3517 83.3529 77.5362 83.2189C78.4459 83.1099 78.7391 82.2428 78.4604 81.4573C78.2237 80.7374 77.6611 80.1765 77.076 79.7233C76.3135 79.1807 75.4853 78.7748 74.619 78.4688C74.615 77.5899 74.736 76.719 74.9516 75.9636C75.083 75.4723 75.2539 74.9837 75.4616 74.5029C76.4542 76.363 77.9661 77.9748 79.7303 79.0297C82.1927 80.5377 85.3255 80.7729 87.8325 79.2215C89.9281 77.9433 91.2901 75.8625 92.9334 74.0865C93.383 74.5436 93.8549 74.9797 94.3663 75.3738C96.3909 76.9594 98.8585 77.787 101.001 75.898C101.622 75.3423 102.075 74.7433 102.388 74.1114C103.213 76.1554 102.6 78.4556 101.5 80.5115C100.895 81.5847 99.9983 82.4491 98.9479 83.0612C98.518 81.8606 97.77 80.7492 96.688 80.0583C95.3523 79.1729 93.6525 78.9351 92.1249 79.3817C91.3637 79.6103 90.546 80.074 90.2515 80.8583C89.9649 81.6583 90.2659 82.5791 90.8996 83.1046C92.0696 84.078 93.6867 84.4077 95.1748 84.3841C96.1148 84.3736 97.0456 84.1792 97.9133 83.8297C98.0697 84.6389 98.0815 85.4889 97.9961 86.2994C97.8672 87.6051 97.3743 88.8465 96.4645 89.7753C95.8059 90.44 95.0053 90.9483 94.1376 91.2951C92.5784 91.9191 90.8983 91.9638 89.2405 91.9638H85.9933V95.2479H89.2339V95.2492C92.464 95.2492 95.5088 93.816 97.6227 91.3674C99.4014 89.3063 99.7801 86.6488 99.2213 84.0281C99.1674 83.7772 99.0991 83.5263 99.0202 83.278C100.427 82.4359 101.567 81.1591 102.144 79.5998C102.996 77.6333 103.234 75.6405 102.48 73.9144C103.336 71.9912 102.93 69.7935 101.935 67.6903ZM96.1753 66.9994C95.1091 67.823 93.6209 68.1238 92.305 67.8125C91.6963 67.6614 90.9982 67.3435 90.7418 66.759C90.4934 66.1507 90.7077 65.4453 91.1967 65C91.9553 64.2867 93.0727 63.9386 94.1034 63.7691C95.3707 63.5865 96.6814 63.7534 97.8738 64.2158C97.6214 65.3048 97.0929 66.3005 96.1753 66.9994ZM75.1382 66.5317C75.3841 65.8657 75.8482 65.264 76.4845 64.9396C77.0682 64.6243 78.0121 64.5783 78.3355 65.2706C78.6221 65.9458 78.229 66.7104 77.7689 67.2161C76.917 68.1383 75.7969 68.7399 74.6137 69.1616C74.64 68.2644 74.807 67.3777 75.1382 66.5317ZM77.7807 80.585C78.3394 81.1722 78.8298 82.3479 78.0108 82.9141C77.2062 83.3621 76.2057 82.8511 75.6773 82.1929C74.9634 81.2327 74.6518 79.9335 74.6203 78.6369C75.8048 79.0586 76.9275 79.6602 77.7807 80.585ZM94.0929 84.0294C93.0622 83.8599 91.9434 83.5118 91.1862 82.7985C90.6958 82.3532 90.4829 81.6491 90.7313 81.0396C90.9877 80.4537 91.6844 80.1358 92.2944 79.986C93.6104 79.6747 95.0999 79.9755 96.1661 80.8005C97.0824 81.4993 97.6096 82.4951 97.8633 83.5841C96.6709 84.0465 95.3602 84.212 94.0929 84.0294ZM89.7453 77.1985C88.2611 78.7578 86.2418 79.8927 84.045 79.8297C80.5401 79.7338 77.3508 77.1683 75.7298 73.9249C77.6466 70.0812 81.839 66.9823 86.1708 68.271C87.5617 68.694 88.7475 69.5675 89.7598 70.6014C90.7997 71.6483 91.7199 72.8227 92.7441 73.892C91.7147 74.9653 90.7892 76.1462 89.7453 77.1985ZM101.287 75.3975C99.1766 77.6293 96.6617 76.9357 94.5136 75.1873C94.0127 74.7932 93.5526 74.3558 93.1148 73.8934C93.5499 73.4362 94.0061 73.0014 94.5031 72.6112C96.6486 70.8654 99.1674 70.1679 101.276 72.401C101.728 72.8805 102.064 73.3863 102.302 73.9104C102.064 74.4267 101.732 74.9259 101.287 75.3975Z" fill="black"/>
</svg>
