<svg width="880" height="880" viewBox="0 0 880 880" fill="none" xmlns="http://www.w3.org/2000/svg">
<path d="M347.189 443.785V454.676C347.189 457.629 348.448 458.258 353.191 458.645V460.049H338.379V458.742C341.961 458.306 342.639 458.064 342.639 455.305V430.812C342.639 428.053 341.961 427.811 338.379 427.375V426.068H362.727L362.921 434.297H361.953C360.21 429.07 358.225 427.666 354.934 427.666H347.189V442.187H353.869C355.95 442.187 356.676 440.542 357.161 437.637H358.467V448.335H357.161C356.676 445.43 355.95 443.785 353.869 443.785H347.189ZM372.236 457.677C374.22 457.677 375.672 456.757 377.657 455.112V446.011L371.848 448.383C369.428 449.351 368.024 450.707 368.024 453.272C368.024 455.886 369.477 457.677 372.236 457.677ZM382.062 441.849V454.676C382.062 456.806 382.546 457.871 383.95 457.871C384.724 457.871 385.45 457.58 386.176 457.241L386.418 457.967C385.257 459.71 383.611 460.533 381.771 460.533C379.4 460.533 377.996 458.839 377.754 456.128C376.06 458.113 373.349 460.533 369.961 460.533C366.185 460.533 363.813 458.064 363.813 454.482C363.813 450.416 366.863 448.722 370.687 447.27L377.657 444.656V441.364C377.657 438.025 376.398 435.604 373.204 435.604C370.445 435.604 369.283 437.444 369.283 439.912C369.283 440.735 369.38 441.461 369.622 442.429L367.056 442.817C365.846 442.429 365.169 441.51 365.169 440.154C365.169 436.524 368.944 434.394 373.833 434.394C379.351 434.394 382.062 436.766 382.062 441.849ZM394.898 434.394V456.37C394.898 458.258 395.673 458.645 398.238 458.79V460.049H387.202V458.79C389.767 458.645 390.542 458.258 390.542 456.37V439.041L387.396 437.347V436.814L394.317 434.394H394.898ZM392.478 430.619C390.784 430.619 389.429 429.215 389.429 427.521C389.429 425.826 390.784 424.423 392.478 424.423C394.221 424.423 395.576 425.826 395.576 427.521C395.576 429.215 394.221 430.619 392.478 430.619ZM407.661 442.333V456.37C407.661 458.258 408.775 458.645 411.969 458.79V460.049H399.965V458.79C402.53 458.645 403.305 458.258 403.305 456.37V439.041L400.159 437.347V436.814L407.274 434.394H407.855L407.661 441.268C410.324 436.33 411.485 434.394 414.196 434.394C415.067 434.394 415.697 434.733 416.035 435.169V438.799H415.358C412.405 438.799 410.372 439.041 407.661 442.333ZM430.958 455.499L437.008 439.041C437.202 438.509 437.299 438.121 437.299 437.734C437.299 436.572 436.331 436.427 433.911 436.137V434.878H441.704V436.137C439.913 436.572 439.622 436.96 439.235 437.928L428.973 465.083C427.618 468.617 426.166 470.601 423.261 470.601C421.809 470.601 420.163 469.73 419.776 468.181V466.777C420.599 467.019 421.277 467.213 422.584 467.213C425.149 467.213 426.892 466.487 428.053 463.195L428.973 460.726L419.244 437.928C418.808 436.911 418.566 436.572 416.775 436.137V434.878H427.473V436.137C425.052 436.427 424.084 436.572 424.084 437.734C424.084 438.121 424.181 438.509 424.375 439.089L430.958 455.499ZM455.228 427.666H452.13V443.591H455.421C461.133 443.591 463.699 440.542 463.699 435.314C463.699 431.151 461.085 427.666 455.228 427.666ZM452.13 445.188V455.305C452.13 458.064 452.807 458.306 456.389 458.742V460.049H443.32V458.742C446.902 458.306 447.58 458.064 447.58 455.305V430.812C447.58 428.053 446.902 427.811 443.32 427.375V426.068H456.293C464.521 426.068 468.587 429.941 468.587 435.314C468.587 440.977 463.65 443.785 460.02 444.462L467.958 454.676C470.282 457.677 471.879 458.693 474.59 458.742V460.049H467.377C465.974 459.081 464.812 457.677 463.36 455.741L455.47 445.188H452.13ZM483.294 434.394V456.37C483.294 458.258 484.069 458.645 486.634 458.79V460.049H475.598V458.79C478.163 458.645 478.938 458.258 478.938 456.37V439.041L475.791 437.347V436.814L482.713 434.394H483.294ZM480.874 430.619C479.18 430.619 477.824 429.215 477.824 427.521C477.824 425.826 479.18 424.423 480.874 424.423C482.617 424.423 483.972 425.826 483.972 427.521C483.972 429.215 482.617 430.619 480.874 430.619ZM507.045 456.37V442.284C507.045 438.702 505.593 437.202 502.737 437.202C500.269 437.202 497.897 438.557 496.057 440.154V456.37C496.057 458.258 496.832 458.645 499.397 458.79V460.049H488.361V458.79C490.926 458.645 491.701 458.258 491.701 456.37V439.041L488.555 437.347V436.814L495.67 434.394H496.251L496.057 438.993C498.332 436.476 501.14 434.394 504.867 434.394C509.32 434.394 511.402 436.96 511.402 442.187V456.37C511.402 458.258 512.176 458.645 514.742 458.79V460.049H503.705V458.79C506.271 458.645 507.045 458.258 507.045 456.37ZM526.559 450.803C525.01 450.803 523.509 450.561 522.202 450.077C521.04 451.239 520.266 452.498 520.266 453.563C520.266 454.821 520.944 455.45 522.251 455.45H531.593C536.191 455.45 539.241 457.338 539.241 461.501C539.241 467.406 533.045 470.795 525.784 470.795C519.346 470.795 515.377 468.52 515.377 464.599C515.377 462.033 517.458 460.388 519.975 459.323C518.184 458.645 517.216 457.29 517.216 455.354C517.216 452.885 519.443 451.142 521.379 449.739C518.862 448.48 517.168 446.205 517.168 442.913C517.168 437.589 521.234 434.394 526.559 434.394C528.204 434.394 529.414 434.733 530.576 435.12L538.321 434.927V437.202H536.53L532.706 437.008C534.303 438.025 535.804 440.251 535.804 442.671C535.804 447.609 532.125 450.803 526.559 450.803ZM531.012 459.516H520.508C519.54 460.533 519.104 461.84 519.104 463.437C519.104 467.068 521.718 469.343 526.268 469.343C531.447 469.343 535.901 467.31 535.901 463.195C535.901 460.436 534.013 459.516 531.012 459.516ZM526.801 449.593C529.947 449.593 531.496 446.641 531.496 443.107C531.496 439.041 529.802 435.653 526.365 435.653C523.17 435.653 521.621 438.605 521.621 442.139C521.621 446.205 523.315 449.593 526.801 449.593Z" fill="black"/>
<path d="M275.833 402.869H261.299V417.404H275.833V402.869Z" fill="black"/>
<path d="M476.527 261.092H461.992V275.626H476.527V261.092Z" fill="black"/>
<path d="M618.502 402.869H603.968V417.404H618.502V402.869Z" fill="black"/>
<path d="M418.389 261.092H403.854V275.626H418.389V261.092Z" fill="black"/>
<path d="M816.524 324.266V311.326C816.524 300.833 825.061 292.296 835.554 292.296H839.846C840.235 292.37 840.708 292.462 841.357 292.564C843.952 292.972 846.992 293.093 846.992 293.093C849.727 293.287 852.406 293.603 854.946 293.946C858.635 294.465 865.346 296.411 867.33 296.995C867.367 297.004 867.404 297.004 867.441 297.014C868.044 307.776 870.342 308.267 870.639 308.285H870.713C870.769 308.276 876.247 307.127 876.247 300.629C876.247 297.236 877.406 294.835 878.388 293.426C879.25 292.184 879.25 290.516 878.388 289.274C877.415 287.865 876.247 285.473 876.247 282.071C876.247 275.573 870.769 274.433 870.713 274.424H870.639C870.342 274.442 868.044 274.934 867.441 285.677C867.376 285.696 867.321 285.705 867.256 285.723C865.402 286.335 860.804 287.791 858.199 288.235C854.621 288.801 850.849 289.329 846.983 289.598C846.983 289.598 843.943 289.7 841.347 290.108C840.606 290.228 840.096 290.33 839.67 290.414H835.545C827.091 290.414 819.796 295.466 816.514 302.714V268.927C816.514 258.434 825.052 249.897 835.545 249.897H839.836C840.226 249.971 840.698 250.064 841.347 250.166C843.943 250.573 846.983 250.694 846.983 250.694C849.718 250.889 852.397 251.204 854.936 251.547C858.626 252.066 865.337 254.012 867.321 254.596C867.358 254.606 867.395 254.606 867.432 254.615C868.034 265.377 870.333 265.868 870.63 265.887H870.704C870.76 265.877 876.238 264.728 876.238 258.23C876.238 254.837 877.397 252.437 878.379 251.028C879.241 249.786 879.241 248.117 878.379 246.875C877.406 245.466 876.238 243.074 876.238 239.673C876.238 233.175 870.76 232.034 870.704 232.025H870.63C870.333 232.044 868.034 232.535 867.432 243.278C867.367 243.297 867.311 243.306 867.246 243.325C865.392 243.937 860.795 245.392 858.19 245.837C854.612 246.402 850.839 246.931 846.974 247.199C846.974 247.199 843.934 247.301 841.338 247.709C840.597 247.83 840.087 247.932 839.66 248.015H835.535C824.023 248.015 814.651 257.387 814.651 268.899V324.21C814.651 334.704 806.114 343.241 795.621 343.241H785.202C784.748 339.95 781.939 337.42 778.528 337.42C778.083 337.42 777.647 337.466 777.23 337.549C776.322 334.889 773.81 332.979 770.843 332.979C767.117 332.979 764.095 336.001 764.095 339.728C764.095 340.173 764.142 340.608 764.225 341.035H759.59V339.885C759.59 339.273 759.099 338.782 758.487 338.782C757.875 338.782 757.384 339.273 757.384 339.885V341.035H732.356V335.51H729.659V338.736H726.971V335.51H724.283V338.736H721.595V335.51H718.897V341.035H717.933C716.524 341.035 715.347 341.971 714.948 343.241H691.292C668.87 343.241 648.273 334.991 633.284 320.002C623.569 310.288 618.267 297.366 618.36 283.629C618.453 269.937 623.885 257.146 633.664 247.579L656.3 224.535C657.431 224.98 658.766 224.758 659.674 223.84L687.575 195.939L688.391 196.755C688.827 197.19 689.522 197.19 689.958 196.755C690.393 196.319 690.393 195.624 689.958 195.188L689.142 194.372L692.414 191.1C692.655 191.453 692.933 191.805 693.248 192.12C695.881 194.752 700.145 194.752 702.787 192.12C704.882 190.025 705.317 186.892 704.075 184.371C704.427 184.13 704.77 183.852 705.086 183.536C707.496 181.126 707.699 177.344 705.688 174.703L713.057 167.333C720.482 159.918 732.551 159.918 739.967 167.333L779.075 206.441C783.024 210.39 788.261 212.559 793.841 212.559C799.421 212.559 804.659 210.39 808.607 206.441L811.639 203.41C811.972 203.188 812.362 202.919 812.899 202.53C815.022 200.982 817.256 198.914 817.256 198.914C819.332 197.116 821.446 195.448 823.485 193.89C826.451 191.647 832.588 188.273 834.395 187.29C834.432 187.272 834.46 187.244 834.488 187.226C842.525 194.409 844.499 193.14 844.721 192.936L844.749 192.908L844.777 192.88C844.805 192.834 847.873 188.153 843.275 183.555C840.875 181.154 840.003 178.642 839.697 176.955C839.429 175.472 838.251 174.285 836.759 174.017C835.072 173.711 832.56 172.839 830.159 170.439C825.561 165.841 820.88 168.909 820.843 168.946L820.815 168.974L820.788 169.002C820.584 169.224 819.314 171.189 826.488 179.217C826.46 179.272 826.423 179.328 826.396 179.384C825.515 181.126 823.3 185.409 821.77 187.559C819.638 190.488 817.349 193.529 814.799 196.449C814.799 196.449 812.723 198.673 811.175 200.796C810.73 201.408 810.443 201.834 810.211 202.205L807.291 205.125C803.695 208.722 798.921 210.696 793.832 210.696C788.743 210.696 783.969 208.712 780.372 205.125L756.466 181.219C758.849 182.118 761.361 182.591 763.873 182.591C769.221 182.591 774.57 180.552 778.639 176.482L781.67 173.451C782.004 173.229 782.393 172.96 782.931 172.571C785.054 171.023 787.288 168.955 787.288 168.955C789.364 167.157 791.477 165.489 793.517 163.931C796.492 161.688 802.619 158.314 804.427 157.331C804.464 157.313 804.492 157.285 804.52 157.267C812.556 164.45 814.531 163.18 814.753 162.977L814.781 162.949L814.809 162.921C814.837 162.875 817.905 158.194 813.307 153.596C810.906 151.195 810.035 148.683 809.729 146.996C809.46 145.513 808.283 144.326 806.791 144.057C805.104 143.752 802.592 142.88 800.191 140.479C795.593 135.882 790.912 138.95 790.875 138.987L790.847 139.015L790.819 139.043C790.615 139.265 789.345 141.23 796.52 149.258C796.492 149.313 796.455 149.369 796.427 149.425C795.547 151.167 793.331 155.45 791.802 157.6C789.67 160.529 787.38 163.57 784.831 166.49C784.831 166.49 782.755 168.714 781.207 170.837C780.762 171.449 780.474 171.875 780.243 172.237L777.323 175.157C769.898 182.572 757.829 182.572 750.413 175.157L741.264 166.008C734.637 159.38 724.635 158.147 716.747 162.309C718.322 159.343 719.157 156.015 719.157 152.558C719.157 146.977 716.988 141.731 713.039 137.791L703.88 128.633C696.465 121.208 696.465 109.149 703.88 101.724L706.912 98.6925C707.245 98.47 707.635 98.2012 708.172 97.8119C710.295 96.2639 712.529 94.1968 712.529 94.1968C714.605 92.3985 716.719 90.73 718.758 89.1727C721.724 86.9295 727.861 83.5554 729.668 82.5728C729.705 82.5543 729.733 82.5265 729.761 82.5079C737.798 89.6918 739.772 88.4219 739.994 88.218L740.022 88.1901L740.05 88.1623C740.078 88.116 743.146 83.4349 738.548 78.8372C736.148 76.4364 735.276 73.9244 734.97 72.2373C734.702 70.7542 733.524 69.5677 732.032 69.2989C730.345 68.993 727.833 68.1217 725.432 65.7208C720.834 61.1232 716.153 64.1914 716.116 64.2285L716.088 64.2563L716.061 64.2841C715.857 64.5065 714.587 66.4717 721.761 74.4991C721.734 74.5547 721.697 74.6103 721.669 74.6659C720.788 76.4086 718.573 80.6911 717.043 82.8416C714.911 85.7708 712.622 88.8112 710.073 91.7311C710.073 91.7311 707.996 93.9558 706.448 96.0785C706.003 96.6903 705.716 97.1167 705.484 97.4875L702.564 100.407C696.576 106.395 695.01 115.137 697.827 122.58L673.921 98.674C670.325 95.0774 668.35 90.3036 668.35 85.2146C668.35 80.1257 670.334 75.3519 673.921 71.7553L676.953 68.7242C677.286 68.5017 677.676 68.2329 678.213 67.8436C680.336 66.2956 682.57 64.2285 682.57 64.2285C684.646 62.4302 686.76 60.7617 688.799 59.2044C691.774 56.9612 697.902 53.5871 699.709 52.6045C699.746 52.5859 699.774 52.5581 699.802 52.5396C707.839 59.7235 709.813 58.4535 710.035 58.2496L710.063 58.2218L710.091 58.194C710.119 58.1477 713.187 53.4665 708.589 48.8689C706.189 46.4681 705.317 43.956 705.011 42.269C704.743 40.7859 703.565 39.5994 702.073 39.3305C700.386 39.0246 697.874 38.1533 695.473 35.7525C690.875 31.1548 686.194 34.223 686.157 34.2601L686.129 34.2879L686.102 34.3157C685.898 34.5382 684.628 36.5033 691.802 44.5307C691.774 44.5864 691.737 44.642 691.71 44.6976C690.829 46.4403 688.614 50.7228 687.084 52.8733C684.952 55.8025 682.663 58.8429 680.113 61.7628C680.113 61.7628 678.037 63.9874 676.489 66.1102C676.044 66.722 675.757 67.1484 675.525 67.5099L672.605 70.4298C668.656 74.3693 666.487 79.6158 666.487 85.1961C666.487 90.7763 668.656 96.0136 672.605 99.9624L702.564 129.921L711.713 139.071C715.31 142.667 717.284 147.441 717.284 152.53C717.284 157.619 715.3 162.393 711.713 165.989L704.344 173.358C701.702 171.356 697.92 171.551 695.51 173.961C695.195 174.276 694.926 174.619 694.685 174.971C692.164 173.729 689.031 174.156 686.936 176.251C684.303 178.883 684.303 183.156 686.936 185.789C687.251 186.104 687.594 186.382 687.955 186.623L684.683 189.895L683.868 189.08C683.432 188.644 682.737 188.644 682.301 189.08C681.865 189.515 681.865 190.21 682.301 190.646L683.117 191.462L665.412 209.167L661.51 205.264L659.6 207.174L661.88 209.454L659.98 211.354L657.7 209.074L655.8 210.974L658.08 213.254L656.18 215.155L653.899 212.874L651.99 214.784L655.892 218.686L655.206 219.372C654.131 220.448 654.001 222.116 654.817 223.33L632.413 246.133C632.357 246.189 632.311 246.245 632.255 246.291L632.199 246.347C622.633 256.089 609.813 261.502 596.104 261.595C582.431 261.706 569.5 256.441 559.795 246.829C544.324 231.488 535.806 211.085 535.806 189.395V164.089C537.076 163.69 537.993 162.513 537.993 161.113V160.149H543.518V157.452H540.292V154.764H543.518V152.076H540.292V149.387H543.518V146.69H537.993V121.662H539.143C539.754 121.662 540.246 121.171 540.246 120.559C540.246 119.947 539.754 119.456 539.143 119.456H537.993V114.821C538.42 114.905 538.855 114.951 539.3 114.951C543.027 114.951 546.048 111.939 546.048 108.203C546.048 105.237 544.139 102.725 541.479 101.816C541.562 101.399 541.608 100.964 541.608 100.519C541.608 97.1074 539.078 94.2988 535.787 93.8446V83.4256C535.787 72.9325 544.324 64.3953 554.817 64.3953H610.129C621.641 64.3953 631.013 55.0238 631.013 43.5111V39.3862C631.106 38.9598 631.207 38.4592 631.319 37.7084C631.727 35.1129 631.829 32.0725 631.829 32.0725C632.097 28.2071 632.626 24.4344 633.191 20.8564C633.636 18.2517 635.091 13.654 635.703 11.8001C635.722 11.7352 635.74 11.6796 635.75 11.6147C646.493 11.0122 646.984 8.72261 647.003 8.41672V8.34256C647.003 8.28694 645.853 2.80866 639.355 2.80866C635.963 2.80866 633.562 1.64997 632.153 0.667405C630.911 -0.19466 629.242 -0.19466 628 0.667405C626.591 1.6407 624.2 2.80866 620.798 2.80866C614.3 2.80866 613.16 8.28694 613.141 8.34256V8.41672C613.16 8.71334 613.651 11.0122 624.413 11.6147C624.422 11.6518 624.422 11.6889 624.431 11.7259C625.025 13.7003 626.971 20.4207 627.481 24.11C627.824 26.6498 628.139 29.3287 628.334 32.0632C628.334 32.0632 628.454 35.1036 628.862 37.6991C628.964 38.348 629.057 38.8207 629.131 39.21V43.5018C629.131 53.9949 620.594 62.5321 610.101 62.5321H576.313C583.553 59.2507 588.614 51.9556 588.614 43.5018V39.3769C588.707 38.9505 588.809 38.4499 588.92 37.6991C589.328 35.1036 589.43 32.0632 589.43 32.0632C589.699 28.1979 590.227 24.4252 590.792 20.8471C591.237 18.2424 592.693 13.6447 593.304 11.7908C593.323 11.7259 593.342 11.6703 593.351 11.6054C604.094 11.0029 604.585 8.71334 604.604 8.40745V8.33329C604.604 8.27767 603.455 2.79939 596.957 2.79939C593.564 2.79939 591.163 1.6407 589.754 0.658135C588.512 -0.203929 586.844 -0.203929 585.601 0.658135C584.193 1.63143 581.801 2.79939 578.399 2.79939C571.901 2.79939 570.761 8.27767 570.742 8.33329V8.40745C570.761 8.70407 571.252 11.0029 582.014 11.6054C582.023 11.6425 582.023 11.6796 582.033 11.7167C582.626 13.6911 584.573 20.4115 585.082 24.1007C585.425 26.6406 585.741 29.3195 585.935 32.054C585.935 32.054 586.056 35.0944 586.464 37.6898C586.565 38.3387 586.658 38.8114 586.732 39.2008V43.4926C586.732 53.9856 578.195 62.5229 567.702 62.5229H554.762C545.39 62.5229 537.437 68.7334 534.805 77.2521C532.172 68.7334 524.219 62.5229 514.847 62.5229H501.907C491.414 62.5229 482.877 53.9856 482.877 43.4926V39.3676C482.969 38.9412 483.071 38.4407 483.183 37.6898C483.59 35.0944 483.692 32.054 483.692 32.054C483.961 28.1886 484.49 24.4159 485.055 20.8379C485.5 18.2331 486.955 13.6355 487.567 11.7816C487.586 11.7167 487.604 11.661 487.613 11.5962C498.357 10.9936 498.848 8.70407 498.867 8.39818V8.32402C498.867 8.26841 497.717 2.79012 491.219 2.79012C487.827 2.79012 485.426 1.63143 484.017 0.648866C482.775 -0.213199 481.106 -0.213199 479.864 0.648866C478.455 1.62216 476.064 2.79012 472.662 2.79012C466.164 2.79012 465.024 8.26841 465.005 8.32402V8.39818C465.024 8.6948 465.515 10.9936 476.277 11.5962C476.286 11.6332 476.286 11.6703 476.295 11.7074C476.889 13.6818 478.835 20.4022 479.345 24.0915C479.688 26.6313 480.003 29.3102 480.198 32.0447C480.198 32.0447 480.318 35.0851 480.726 37.6806C480.828 38.3294 480.921 38.8022 480.995 39.1915V43.4833C480.995 51.9371 486.047 59.2322 493.296 62.5136H459.508C449.08 62.5136 440.589 54.0783 440.487 43.6687C440.487 43.6038 440.487 43.5482 440.487 43.4833V39.2935C440.571 38.8856 440.673 38.3943 440.784 37.6898C441.192 35.0944 441.294 32.054 441.294 32.054C441.349 31.3124 441.414 30.5709 441.479 29.8386C441.507 29.5605 441.525 29.2824 441.553 29.0043C441.776 26.8352 442.063 24.7125 442.378 22.6362C443.101 18.8542 444.668 13.4501 445.187 11.7167C445.187 11.7074 445.187 11.6981 445.187 11.6796C445.187 11.6518 445.205 11.624 445.205 11.5962C455.967 10.9936 456.459 8.6948 456.468 8.39818V8.32402C456.459 8.26841 455.309 2.79012 448.811 2.79012C445.419 2.79012 443.018 1.63143 441.609 0.648866C440.988 0.222468 440.256 0 439.533 0C438.8 0 438.077 0.213199 437.456 0.648866C436.047 1.62216 433.656 2.79012 430.254 2.79012C423.756 2.79012 422.616 8.26841 422.597 8.32402V8.39818C422.616 8.6948 423.107 10.9936 433.86 11.5962C433.86 11.624 433.878 11.6518 433.878 11.6796C433.878 11.6889 433.878 11.6981 433.878 11.7167C434.397 13.4501 435.964 18.8542 436.687 22.6362C437.002 24.7125 437.289 26.8352 437.512 29.0043C437.54 29.2824 437.558 29.5605 437.586 29.8386C437.651 30.5709 437.725 31.3124 437.771 32.054C437.771 32.054 437.873 35.0944 438.281 37.6898C438.392 38.3943 438.494 38.8856 438.578 39.3027V43.4926C438.578 43.5574 438.578 43.6131 438.578 43.6779C438.476 54.0876 429.985 62.5229 419.557 62.5229H385.769C393.009 59.2415 398.07 51.9463 398.07 43.4926V39.2008C398.144 38.8114 398.237 38.3387 398.339 37.6898C398.747 35.0944 398.867 32.054 398.867 32.054C399.062 29.3195 399.377 26.6406 399.72 24.1007C400.239 20.4115 402.186 13.7003 402.77 11.7167C402.779 11.6796 402.779 11.6425 402.788 11.6054C413.55 11.0029 414.041 8.70407 414.06 8.40745V8.33329C414.051 8.27767 412.901 2.79939 406.403 2.79939C403.011 2.79939 400.61 1.6407 399.201 0.658135C397.959 -0.203929 396.29 -0.203929 395.048 0.658135C393.639 1.63143 391.248 2.79939 387.846 2.79939C381.348 2.79939 380.208 8.27767 380.198 8.33329V8.40745C380.217 8.70407 380.708 11.0029 391.452 11.6054C391.47 11.6703 391.479 11.7259 391.498 11.7908C392.11 13.6447 393.565 18.2424 394.01 20.8471C394.575 24.4252 395.104 28.1979 395.373 32.0632C395.373 32.0632 395.475 35.1036 395.882 37.6991C396.003 38.4407 396.105 38.9505 396.188 39.3769V43.5018C396.188 53.9949 387.651 62.5321 377.158 62.5321H364.218C354.846 62.5321 346.893 68.7427 344.26 77.2614C341.628 68.7427 333.675 62.5321 324.303 62.5321H311.363C300.87 62.5321 292.333 53.9949 292.333 43.5018V39.21C292.407 38.8207 292.499 38.348 292.601 37.6991C293.009 35.1036 293.13 32.0632 293.13 32.0632C293.324 29.3287 293.64 26.6498 293.983 24.11C294.502 20.4207 296.448 13.7096 297.032 11.7259C297.042 11.6889 297.042 11.6518 297.051 11.6147C307.813 11.0122 308.304 8.71334 308.323 8.41672V8.34256C308.313 8.28694 307.164 2.80866 300.666 2.80866C297.273 2.80866 294.872 1.64997 293.464 0.667405C292.221 -0.19466 290.553 -0.19466 289.311 0.667405C287.902 1.6407 285.51 2.80866 282.108 2.80866C275.61 2.80866 274.47 8.28694 274.461 8.34256V8.41672C274.48 8.71334 274.971 11.0122 285.714 11.6147C285.733 11.6796 285.742 11.7352 285.761 11.8001C286.372 13.654 287.828 18.2517 288.273 20.8564C288.838 24.4344 289.366 28.2071 289.635 32.0725C289.635 32.0725 289.737 35.1129 290.145 37.7084C290.266 38.4499 290.368 38.9598 290.451 39.3862V43.5111C290.451 51.9649 295.503 59.26 302.752 62.5414H268.964C258.471 62.5414 249.934 54.0042 249.934 43.5111V39.2193C250.008 38.83 250.101 38.3572 250.203 37.7084C250.611 35.1129 250.731 32.0725 250.731 32.0725C250.926 29.338 251.241 26.6591 251.584 24.1193C252.103 20.43 254.05 13.7189 254.634 11.7352C254.643 11.6981 254.643 11.661 254.652 11.624C265.414 11.0215 265.905 8.72261 265.924 8.42599V8.35183C265.915 8.29621 264.765 2.81793 258.267 2.81793C254.875 2.81793 252.474 1.65924 251.065 0.676674C249.823 -0.18539 248.154 -0.18539 246.912 0.676674C245.503 1.64997 243.112 2.81793 239.71 2.81793C233.212 2.81793 232.072 8.29621 232.062 8.35183V8.42599C232.081 8.72261 232.572 11.0215 243.315 11.624C243.334 11.6889 243.343 11.7445 243.362 11.8094C243.974 13.6633 245.429 18.2609 245.874 20.8657C246.439 24.4437 246.968 28.2164 247.236 32.0818C247.236 32.0818 247.338 35.1222 247.746 37.7176C247.867 38.4592 247.969 38.969 248.052 39.3954V43.5204C248.052 55.0331 257.424 64.4046 268.936 64.4046H324.248C334.741 64.4046 343.278 72.9418 343.278 83.4349V93.8538C339.987 94.308 337.457 97.1167 337.457 100.528C337.457 100.973 337.503 101.408 337.586 101.826C334.926 102.734 333.017 105.246 333.017 108.212C333.017 111.939 336.038 114.961 339.765 114.961C340.21 114.961 340.645 114.914 341.072 114.831V119.465H339.922C339.311 119.465 338.819 119.957 338.819 120.569C338.819 121.18 339.311 121.672 339.922 121.672H341.072V126.362H340.349C339.876 126.362 339.487 126.751 339.487 127.224V127.539C339.487 128.021 339.876 128.401 340.349 128.401H341.072V146.699H335.547V149.397H338.773V152.085H335.547V154.773H338.773V157.461H335.547V160.159H341.072V161.123C341.072 162.532 342.008 163.709 343.278 164.107V189.404C343.278 211.104 334.759 231.497 319.279 246.838C309.667 256.376 296.893 261.586 283.221 261.484C269.428 261.391 256.525 255.931 246.875 246.106C246.754 245.994 246.634 245.865 246.513 245.744L224.267 223.34C225.092 222.116 224.962 220.457 223.877 219.372L195.976 191.471L196.792 190.655C197.227 190.22 197.227 189.524 196.792 189.089C196.356 188.653 195.661 188.653 195.225 189.089L194.409 189.905L191.137 186.632C191.49 186.391 191.842 186.113 192.157 185.798C194.79 183.166 194.79 178.902 192.157 176.26C190.062 174.165 186.929 173.729 184.408 174.971C184.167 174.619 183.889 174.276 183.573 173.961C181.163 171.551 177.381 171.347 174.74 173.358L167.37 165.989C159.955 158.574 159.955 146.495 167.37 139.08L176.519 129.931L206.478 99.9717C214.617 91.8331 214.617 78.5777 206.478 70.439L203.447 67.4079C203.225 67.0742 202.956 66.6849 202.567 66.1472C201.019 64.0245 198.952 61.7906 198.952 61.7906C197.153 59.7142 195.485 57.6008 193.927 55.5615C191.684 52.5859 188.31 46.4588 187.328 44.6512C187.309 44.6142 187.281 44.5864 187.263 44.5585C194.447 36.5219 193.177 34.5475 192.973 34.325L192.945 34.2972L192.917 34.2694C192.871 34.2416 188.19 31.1734 183.592 35.7711C181.191 38.1719 178.679 39.0432 176.992 39.3491C175.509 39.6179 174.322 40.7951 174.054 42.2875C173.748 43.9746 172.876 46.4866 170.476 48.8874C165.878 53.4851 168.946 58.1662 168.983 58.2033L169.011 58.2311L169.039 58.2589C169.261 58.4628 171.226 59.7327 179.254 52.5581C179.309 52.5859 179.365 52.623 179.421 52.6508C181.163 53.5314 185.446 55.7468 187.596 57.2763C190.526 59.4083 193.566 61.6979 196.486 64.247C196.486 64.247 198.701 66.3234 200.833 67.8714C201.445 68.3163 201.871 68.6037 202.233 68.8354L205.153 71.7553C212.568 79.1709 212.568 91.2491 205.153 98.6647L181.247 122.571C184.065 115.127 182.489 106.386 176.51 100.398L173.479 97.367C173.256 97.0333 172.988 96.6439 172.598 96.1063C171.05 93.9836 168.983 91.7496 168.983 91.7496C167.185 89.6733 165.516 87.5598 163.959 85.5205C161.716 82.545 158.342 76.4179 157.359 74.6103C157.341 74.5732 157.313 74.5454 157.294 74.5176C164.478 66.4809 163.208 64.5065 163.004 64.2841L162.977 64.2563L162.949 64.2285C162.902 64.2006 158.221 61.1324 153.624 65.7301C151.223 68.1309 148.711 69.0023 147.024 69.3082C145.541 69.577 144.354 70.7542 144.085 72.2466C143.779 73.9336 142.908 76.4457 140.507 78.8465C135.91 83.4442 138.978 88.1253 139.015 88.1623L139.043 88.1901L139.071 88.218C139.293 88.4219 141.258 89.6918 149.286 82.5172C149.341 82.545 149.397 82.5821 149.452 82.6099C151.195 83.4905 155.478 85.7059 157.628 87.2354C160.557 89.3674 163.598 91.6569 166.518 94.2061C166.518 94.2061 168.733 96.2824 170.865 97.8304C171.477 98.2754 171.903 98.5627 172.265 98.7945L175.185 101.714C182.6 109.13 182.6 121.199 175.185 128.624L166.026 137.782C159.399 144.41 158.166 154.412 162.328 162.3C159.352 160.724 156.034 159.89 152.576 159.89C146.996 159.89 141.759 162.059 137.81 166.008L128.661 175.157C125.064 178.753 120.29 180.728 115.202 180.728C110.113 180.728 105.339 178.753 101.742 175.157L98.711 172.126C98.4886 171.792 98.2198 171.403 97.8304 170.865C96.2824 168.742 94.2153 166.508 94.2153 166.508C92.417 164.432 90.7485 162.318 89.1913 160.279C86.948 157.304 83.5739 151.176 82.5914 149.369C82.5728 149.332 82.545 149.304 82.5265 149.276C89.7103 141.24 88.4404 139.265 88.2365 139.043L88.2087 139.015L88.1809 138.987C88.1345 138.959 83.4534 135.891 78.8557 140.489C76.4549 142.89 73.9429 143.761 72.2559 144.067C70.7727 144.336 69.5862 145.513 69.3174 147.005C69.0115 148.692 68.1402 151.204 65.7394 153.605C61.1417 158.203 64.2099 162.884 64.247 162.921L64.2748 162.949L64.3026 162.977C64.5251 163.18 66.4902 164.45 74.5176 157.276C74.5732 157.304 74.6288 157.341 74.6845 157.369C76.4271 158.249 80.7096 160.465 82.8602 161.994C85.7893 164.126 88.8297 166.416 91.7496 168.965C91.7496 168.965 93.9651 171.041 96.097 172.589C96.7088 173.034 97.1352 173.321 97.4967 173.553L100.417 176.473C104.356 180.422 109.603 182.591 115.183 182.591C117.751 182.591 120.244 182.109 122.571 181.228L98.674 205.125C91.2584 212.541 79.1802 212.541 71.7646 205.125L68.7334 202.094C68.511 201.76 68.2422 201.371 67.8528 200.833C66.3048 198.711 64.2377 196.477 64.2377 196.477C62.4394 194.4 60.7709 192.287 59.2136 190.247C56.9704 187.281 53.5963 181.145 52.6138 179.337C52.5952 179.3 52.5674 179.272 52.5489 179.245C59.7327 171.208 58.4628 169.233 58.2589 169.011L58.2311 168.983L58.2033 168.955C58.1569 168.928 53.4758 165.859 48.8781 170.457C46.4773 172.858 43.9653 173.729 42.2782 174.035C40.7951 174.304 39.6086 175.481 39.3398 176.974C39.0339 178.661 38.1626 181.173 35.7618 183.573C31.1641 188.171 34.2323 192.852 34.2694 192.889L34.2972 192.917L34.325 192.945C34.5475 193.149 36.5126 194.419 44.54 187.244C44.5956 187.272 44.6512 187.309 44.7069 187.337C46.4495 188.217 50.732 190.433 52.8826 191.962C55.8117 194.094 58.8521 196.384 61.772 198.933C61.772 198.933 63.9874 201.009 66.1194 202.557C66.7312 203.002 67.1576 203.29 67.5284 203.521L70.4483 206.441C74.5176 210.511 79.8661 212.55 85.2146 212.55C90.5631 212.55 95.9117 210.511 99.981 206.441L139.089 167.333C142.686 163.737 147.459 161.762 152.548 161.762C157.637 161.762 162.411 163.746 166.008 167.333L173.377 174.703C171.375 177.344 171.569 181.126 173.979 183.536C174.295 183.852 174.638 184.12 174.99 184.361C173.748 186.883 174.174 190.016 176.269 192.111C178.902 194.743 183.175 194.743 185.807 192.111C186.123 191.795 186.401 191.453 186.642 191.091L189.914 194.363L189.098 195.179C188.662 195.615 188.662 196.31 189.098 196.745C189.534 197.181 190.229 197.181 190.665 196.745L191.48 195.93L209.185 213.634L205.283 217.537L207.192 219.446L209.472 217.166L211.373 219.066L209.092 221.347L210.993 223.247L213.273 220.967L215.173 222.867L212.893 225.147L214.802 227.057L218.705 223.154L219.391 223.84C220.299 224.749 221.634 224.98 222.765 224.535L245.151 247.088C254.986 256.664 260.455 269.502 260.547 283.23C260.64 296.958 255.338 309.871 245.633 319.576C230.134 335.065 209.537 343.602 187.624 343.602H164.2C163.931 342.147 162.661 341.035 161.123 341.035H160.159V335.51H157.461V338.736H154.773V335.51H152.085V338.736H149.397V335.51H146.699V341.035H121.672V339.885C121.672 339.273 121.18 338.782 120.569 338.782C119.957 338.782 119.465 339.273 119.465 339.885V341.035H114.831C114.914 340.608 114.96 340.173 114.96 339.728C114.96 336.001 111.948 332.979 108.212 332.979C105.246 332.979 102.734 334.889 101.826 337.549C101.408 337.466 100.973 337.42 100.528 337.42C97.1167 337.42 94.308 339.95 93.8538 343.241H83.4349C72.9418 343.241 64.4046 334.704 64.4046 324.21V268.899C64.4046 257.387 55.0331 248.015 43.5204 248.015H39.3954C38.969 247.922 38.4685 247.82 37.7176 247.709C35.1222 247.301 32.0818 247.199 32.0818 247.199C28.2164 246.931 24.4437 246.402 20.8657 245.837C18.2609 245.392 13.6633 243.937 11.8094 243.325C11.7445 243.306 11.6889 243.288 11.624 243.278C11.0215 232.535 8.73188 232.044 8.42599 232.025H8.35183C8.29621 232.025 2.81793 233.175 2.81793 239.673C2.81793 243.065 1.65924 245.466 0.676674 246.875C-0.18539 248.117 -0.18539 249.786 0.676674 251.028C1.64997 252.437 2.81793 254.828 2.81793 258.23C2.81793 264.728 8.29621 265.868 8.35183 265.887H8.42599C8.72261 265.868 11.0215 265.377 11.624 254.615C11.661 254.606 11.6981 254.606 11.7352 254.596C13.7096 254.003 20.43 252.057 24.1193 251.547C26.6591 251.204 29.338 250.889 32.0725 250.694C32.0725 250.694 35.1129 250.573 37.7084 250.166C38.3572 250.064 38.83 249.971 39.2193 249.897H43.5111C54.0042 249.897 62.5414 258.434 62.5414 268.927V302.714C59.26 295.475 51.9649 290.414 43.5111 290.414H39.3862C38.9598 290.321 38.4592 290.219 37.7084 290.108C35.1129 289.7 32.0725 289.598 32.0725 289.598C28.2071 289.329 24.4344 288.792 20.8564 288.235C18.2517 287.791 13.654 286.335 11.8001 285.723C11.7352 285.705 11.6796 285.686 11.6147 285.677C11.0122 274.934 8.72261 274.442 8.41672 274.424H8.34256C8.28694 274.424 2.80866 275.573 2.80866 282.071C2.80866 285.464 1.64997 287.865 0.667405 289.274C-0.19466 290.516 -0.19466 292.184 0.667405 293.426C1.6407 294.835 2.80866 297.227 2.80866 300.629C2.80866 307.127 8.28694 308.267 8.34256 308.285H8.41672C8.71334 308.267 11.0122 307.776 11.6147 297.014C11.6518 297.004 11.6889 297.004 11.7259 296.995C13.7003 296.402 20.4207 294.455 24.11 293.946C26.6498 293.603 29.3287 293.287 32.0632 293.093C32.0632 293.093 35.1036 292.972 37.6991 292.564C38.348 292.462 38.8207 292.37 39.21 292.296H43.5018C53.9949 292.296 62.5321 300.833 62.5321 311.326V324.266C62.5321 333.638 68.7427 341.591 77.2614 344.223C68.7427 346.856 62.5321 354.809 62.5321 364.181V377.121C62.5321 387.614 53.9949 396.151 43.5018 396.151H39.3769C38.9505 396.058 38.4499 395.957 37.6991 395.845C35.1036 395.437 32.0632 395.335 32.0632 395.335C28.1979 395.067 24.4252 394.538 20.8471 393.973C18.2424 393.528 13.6447 392.073 11.7908 391.461C11.7259 391.442 11.6703 391.424 11.6054 391.414C11.0029 380.671 8.71334 380.18 8.40745 380.161H8.33329C8.27768 380.161 2.79939 381.311 2.79939 387.809C2.79939 391.201 1.6407 393.602 0.658135 395.011C-0.203929 396.253 -0.203929 397.922 0.658135 399.164C1.63143 400.573 2.79939 402.964 2.79939 406.366C2.79939 412.864 8.27768 414.004 8.33329 414.023H8.40745C8.70407 414.004 11.0029 413.513 11.6054 402.751C11.6425 402.742 11.6796 402.742 11.7167 402.733C13.6911 402.139 20.4115 400.193 24.1007 399.683C26.6406 399.34 29.3195 399.025 32.054 398.83C32.054 398.83 35.0944 398.71 37.6898 398.302C38.3387 398.2 38.8115 398.107 39.2008 398.033H43.4926C51.9463 398.033 59.2415 392.981 62.5229 385.732V419.52C62.5229 429.948 54.0876 438.439 43.6872 438.541C43.6223 438.541 43.5574 438.541 43.4926 438.541H39.2935C38.8856 438.457 38.3943 438.355 37.6898 438.244C35.0944 437.836 32.054 437.734 32.054 437.734C31.3124 437.679 30.5709 437.604 29.8386 437.54C29.5605 437.512 29.2824 437.493 29.0043 437.465C26.8352 437.243 24.7125 436.956 22.6362 436.64C18.8542 435.917 13.4501 434.351 11.7167 433.832C11.7074 433.832 11.6981 433.832 11.6796 433.832C11.6518 433.832 11.624 433.813 11.5962 433.813C10.9936 423.051 8.6948 422.56 8.39818 422.551H8.32402C8.26841 422.56 2.79012 423.709 2.79012 430.207C2.79012 433.6 1.63143 436.001 0.648866 437.41C0.222468 438.031 0 438.763 0 439.486C0 440.218 0.213199 440.941 0.648866 441.563C1.62216 442.971 2.79012 445.363 2.79012 448.765C2.79012 455.263 8.26841 456.403 8.32402 456.422H8.39818C8.6948 456.403 10.9936 455.912 11.5962 445.159C11.624 445.159 11.6518 445.141 11.6796 445.141C11.6889 445.141 11.6981 445.141 11.7167 445.141C13.4501 444.621 18.8542 443.055 22.6362 442.332C24.7125 442.017 26.8352 441.729 29.0043 441.507C29.2824 441.479 29.5605 441.461 29.8386 441.433C30.5709 441.368 31.3124 441.294 32.054 441.238C32.054 441.238 35.0944 441.136 37.6898 440.728C38.3943 440.617 38.8856 440.515 39.2935 440.432H43.4926C43.5574 440.432 43.6223 440.432 43.6872 440.432C54.0876 440.534 62.5229 449.024 62.5229 459.453V493.24C59.2415 486.001 51.9463 480.939 43.4926 480.939H39.2008C38.8115 480.865 38.3387 480.773 37.6898 480.671C35.0944 480.263 32.054 480.142 32.054 480.142C29.3195 479.948 26.6406 479.632 24.1007 479.289C20.4115 478.77 13.7003 476.824 11.7167 476.24C11.6796 476.231 11.6425 476.23 11.6054 476.221C11.0029 465.459 8.70407 464.968 8.40745 464.949H8.33329C8.27768 464.959 2.79939 466.108 2.79939 472.606C2.79939 475.999 1.6407 478.4 0.658135 479.809C-0.203929 481.051 -0.203929 482.719 0.658135 483.961C1.63143 485.37 2.79939 487.762 2.79939 491.164C2.79939 497.662 8.27768 498.802 8.33329 498.811H8.40745C8.70407 498.792 11.0029 498.301 11.6054 487.558C11.6703 487.539 11.7259 487.53 11.7908 487.511C13.6447 486.9 18.2424 485.444 20.8471 484.999C24.4252 484.434 28.1979 483.906 32.0632 483.637C32.0632 483.637 35.1036 483.535 37.6991 483.127C38.4407 483.007 38.9505 482.905 39.3769 482.821H43.5018C53.9949 482.821 62.5321 491.358 62.5321 501.851V514.792C62.5321 524.163 68.7427 532.116 77.2614 534.749C68.7427 537.381 62.5321 545.335 62.5321 554.706V567.646C62.5321 578.14 53.9949 586.677 43.5018 586.677H39.21C38.8207 586.603 38.348 586.51 37.6991 586.408C35.1036 586 32.0632 585.88 32.0632 585.88C29.3287 585.685 26.6498 585.37 24.11 585.027C20.4207 584.508 13.7096 582.561 11.7259 581.977C11.6889 581.968 11.6518 581.968 11.6147 581.959C11.0122 571.197 8.71334 570.705 8.41672 570.687H8.34256C8.28694 570.696 2.80866 571.846 2.80866 578.343C2.80866 581.736 1.64997 584.137 0.667405 585.546C-0.19466 586.788 -0.19466 588.456 0.667405 589.699C1.6407 591.108 2.80866 593.499 2.80866 596.901C2.80866 603.399 8.28694 604.539 8.34256 604.548H8.41672C8.71334 604.53 11.0122 604.039 11.6147 593.295C11.6796 593.277 11.7352 593.267 11.8001 593.249C13.654 592.637 18.2517 591.182 20.8564 590.737C24.4344 590.171 28.2071 589.643 32.0725 589.374C32.0725 589.374 35.1129 589.272 37.7084 588.864C38.4592 588.744 38.9598 588.642 39.3862 588.558H43.5111C51.9649 588.558 59.26 583.507 62.5414 576.258V610.045C62.5414 620.538 54.0042 629.076 43.5111 629.076H39.2193C38.83 629.001 38.3572 628.909 37.7084 628.807C35.1129 628.399 32.0725 628.278 32.0725 628.278C29.338 628.084 26.6591 627.768 24.1193 627.426C20.43 626.906 13.7189 624.96 11.7352 624.376C11.6981 624.367 11.661 624.367 11.624 624.357C11.0215 613.595 8.72261 613.104 8.42599 613.086H8.35183C8.29621 613.095 2.81793 614.244 2.81793 620.742C2.81793 624.135 1.65924 626.536 0.676674 627.945C-0.18539 629.187 -0.18539 630.855 0.676674 632.097C1.64997 633.506 2.81793 635.898 2.81793 639.3C2.81793 645.798 8.29621 646.938 8.35183 646.947H8.42599C8.72261 646.929 11.0215 646.437 11.624 635.694C11.6889 635.675 11.7445 635.666 11.8094 635.648C13.6633 635.036 18.2609 633.58 20.8657 633.136C24.4437 632.57 28.2164 632.042 32.0818 631.773C32.0818 631.773 35.1222 631.671 37.7176 631.263C38.4592 631.143 38.969 631.041 39.3954 630.957H43.5204C55.0331 630.957 64.4046 621.586 64.4046 610.073V554.762C64.4046 544.269 72.9418 535.732 83.4349 535.732H93.8538C94.308 539.022 97.1167 541.553 100.528 541.553C100.973 541.553 101.408 541.506 101.826 541.423C102.734 544.083 105.246 545.993 108.212 545.993C111.939 545.993 114.96 542.971 114.96 539.245C114.96 538.8 114.914 538.364 114.831 537.938H119.465V539.087C119.465 539.699 119.957 540.19 120.569 540.19C121.18 540.19 121.672 539.699 121.672 539.087V537.938H146.699V543.462H149.397V540.236H152.085V543.462H154.773V540.236H157.461V543.462H160.159V537.938H161.123C162.559 537.938 163.755 536.964 164.126 535.657H187.624C209.537 535.657 230.134 544.195 245.633 559.684C255.338 569.389 260.64 582.302 260.547 596.03C260.455 609.758 254.986 622.596 245.132 632.19L223.21 654.678C222.005 653.955 220.42 654.103 219.382 655.141L218.696 655.827L214.793 651.925L212.884 653.834L215.164 656.115L213.264 658.015L210.983 655.735L209.083 657.635L211.363 659.915L209.463 661.815L207.183 659.535L205.273 661.445L209.176 665.347L191.471 683.052L190.655 682.236C190.22 681.8 189.524 681.8 189.089 682.236C188.653 682.672 188.653 683.367 189.089 683.803L189.905 684.618L186.632 687.891C186.391 687.529 186.113 687.186 185.798 686.871C183.166 684.238 178.892 684.229 176.26 686.871C174.165 688.966 173.738 692.099 174.981 694.62C174.628 694.861 174.285 695.13 173.97 695.445C171.56 697.855 171.365 701.637 173.368 704.279L165.998 711.648C158.583 719.064 146.505 719.064 139.089 711.648L129.94 702.499L99.981 672.54C91.8423 664.402 78.5869 664.402 70.4483 672.54L67.5284 675.46C67.1669 675.701 66.7312 675.979 66.1194 676.424C63.9967 677.972 61.772 680.049 61.772 680.049C58.8521 682.588 55.8117 684.878 52.8826 687.01C50.732 688.539 46.4495 690.755 44.7069 691.635C44.6512 691.663 44.5956 691.7 44.54 691.728C36.5126 684.554 34.5475 685.833 34.325 686.027L34.2972 686.055L34.2694 686.083C34.2694 686.083 31.1641 690.81 35.7618 695.399C38.1626 697.8 39.0339 700.312 39.3398 701.999C39.6086 703.482 40.7859 704.668 42.2782 704.937C43.9653 705.243 46.4773 706.114 48.8781 708.515C53.4758 713.113 58.1569 710.045 58.2033 710.017L58.2311 709.989L58.2589 709.961C58.4628 709.739 59.7327 707.764 52.5489 699.728C52.5674 699.691 52.5952 699.663 52.6138 699.635C53.5963 697.818 56.9704 691.691 59.2136 688.725C60.7709 686.686 62.4394 684.572 64.2377 682.496C64.2377 682.496 66.3048 680.262 67.8528 678.139C68.2422 677.611 68.511 677.212 68.7334 676.878L71.7646 673.847C79.1802 666.432 91.2584 666.432 98.674 673.847L122.58 697.753C115.137 694.935 106.395 696.511 100.407 702.49L97.4875 705.41C97.126 705.651 96.6903 705.929 96.0878 706.374C93.965 707.922 91.7404 709.998 91.7404 709.998C88.8205 712.538 85.7801 714.828 82.8509 716.96C80.7004 718.489 76.4179 720.705 74.6752 721.585C74.6196 721.613 74.564 721.65 74.5083 721.678C66.4809 714.503 64.5158 715.783 64.2933 715.977L64.2655 716.005L64.2377 716.033C64.2377 716.033 61.1324 720.76 65.7301 725.349C68.1309 727.749 69.0023 730.261 69.3081 731.949C69.577 733.432 70.7635 734.618 72.2466 734.887C73.9336 735.193 76.4457 736.064 78.8465 738.465C83.4442 743.063 88.1253 739.994 88.1716 739.967L88.1994 739.939L88.2272 739.911C88.4312 739.689 89.7011 737.714 82.5172 729.678C82.5357 729.64 82.5635 729.613 82.5821 729.585C83.5647 727.768 86.9388 721.641 89.182 718.675C90.7393 716.626 92.4078 714.522 94.2061 712.445C94.2061 712.445 96.2732 710.212 97.8212 708.089C98.2105 707.551 98.4793 707.162 98.7018 706.828L101.733 703.797C109.149 696.381 121.217 696.381 128.642 703.797L137.801 712.955C141.87 717.025 147.218 719.064 152.567 719.064C155.922 719.064 159.278 718.257 162.318 716.654C160.743 719.62 159.908 722.948 159.908 726.405C159.908 731.986 162.077 737.223 166.026 741.172L175.175 750.321C182.591 757.736 182.591 769.814 175.175 777.23L172.255 780.15C171.894 780.391 171.458 780.669 170.846 781.114C168.724 782.662 166.499 784.738 166.499 784.738C163.579 787.278 160.539 789.568 157.61 791.7C155.459 793.229 151.176 795.445 149.434 796.325C149.378 796.353 149.323 796.39 149.267 796.418C141.24 789.243 139.274 790.523 139.052 790.717L139.024 790.745L138.996 790.773C138.996 790.773 135.891 795.5 140.489 800.089C142.89 802.49 143.761 805.002 144.067 806.689C144.336 808.172 145.513 809.358 147.005 809.627C148.692 809.933 151.204 810.804 153.605 813.205C158.203 817.803 162.884 814.735 162.93 814.707L162.958 814.679L162.986 814.651C163.19 814.429 164.46 812.454 157.276 804.418C157.294 804.381 157.322 804.353 157.341 804.325C158.323 802.508 161.697 796.381 163.941 793.415C165.498 791.375 167.166 789.262 168.965 787.186C168.965 787.186 171.032 784.952 172.58 782.829C172.969 782.301 173.238 781.902 173.46 781.568L176.492 778.537C182.48 772.549 184.046 763.808 181.228 756.364L205.134 780.271C212.55 787.686 212.55 799.764 205.134 807.18L202.214 810.1C201.853 810.341 201.417 810.619 200.815 811.064C198.692 812.612 196.467 814.688 196.467 814.688C193.547 817.228 190.507 819.518 187.578 821.65C185.427 823.179 181.145 825.395 179.402 826.275C179.347 826.303 179.291 826.34 179.235 826.368C171.208 819.193 169.243 820.472 169.02 820.667L168.992 820.695L168.965 820.723C168.965 820.723 165.859 825.45 170.457 830.039C172.858 832.439 173.729 834.951 174.035 836.638C174.304 838.122 175.481 839.308 176.974 839.577C178.661 839.883 181.173 840.754 183.573 843.155C188.171 847.753 192.852 844.684 192.899 844.657L192.926 844.629L192.954 844.601C193.158 844.378 194.428 842.404 187.244 834.367C187.263 834.33 187.291 834.303 187.309 834.275C188.292 832.458 191.666 826.331 193.909 823.364C195.466 821.316 197.135 819.212 198.933 817.135C198.933 817.135 201 814.901 202.548 812.779C202.937 812.241 203.206 811.852 203.429 811.518L206.46 808.487C214.598 800.348 214.598 787.093 206.46 778.954L167.352 739.846C163.755 736.25 161.781 731.476 161.781 726.387C161.781 721.298 163.764 716.524 167.352 712.927L174.721 705.558C177.363 707.57 181.145 707.366 183.555 704.956C183.87 704.641 184.148 704.307 184.389 703.945C186.91 705.187 190.034 704.761 192.138 702.657C194.771 700.024 194.78 695.76 192.138 693.119C191.823 692.803 191.471 692.525 191.119 692.284L194.391 689.012L195.207 689.828C195.642 690.264 196.338 690.264 196.773 689.828C197.209 689.392 197.209 688.697 196.773 688.261L195.957 687.446L223.859 659.544C224.813 658.59 225.017 657.19 224.489 656.031L246.476 633.469C246.569 633.386 246.652 633.284 246.736 633.2C256.33 623.44 269.159 618.008 282.859 617.915C296.467 617.813 309.342 623.05 319.01 632.635C334.481 647.976 343.009 668.378 343.009 690.069V714.883C341.85 715.347 341.035 716.468 341.035 717.794V718.758H335.51V721.455H338.736V724.144H335.51V726.832H338.736V729.52H335.51V732.217H341.035V757.245H339.885C339.273 757.245 338.782 757.736 338.782 758.348C338.782 758.96 339.273 759.451 339.885 759.451H341.035V764.086C340.608 764.003 340.173 763.956 339.728 763.956C336.001 763.956 332.979 766.969 332.979 770.704C332.979 773.671 334.889 776.183 337.549 777.091C337.466 777.508 337.42 777.944 337.42 778.389C337.42 781.8 339.95 784.609 343.241 785.063V795.482C343.241 805.975 334.704 814.512 324.21 814.512H268.899C257.387 814.512 248.015 823.884 248.015 835.396V839.521C247.922 839.948 247.82 840.448 247.709 841.199C247.301 843.794 247.199 846.835 247.199 846.835C246.931 850.7 246.402 854.473 245.837 858.051C245.392 860.656 243.937 865.253 243.325 867.107C243.306 867.172 243.288 867.228 243.278 867.293C232.535 867.895 232.044 870.185 232.025 870.491V870.565C232.025 870.62 233.175 876.099 239.673 876.099C243.065 876.099 245.466 877.257 246.875 878.24C248.117 879.102 249.786 879.102 251.028 878.24C252.437 877.267 254.828 876.099 258.23 876.099C264.728 876.099 265.868 870.62 265.887 870.565V870.491C265.868 870.194 265.377 867.895 254.615 867.293C254.606 867.256 254.606 867.219 254.596 867.181C254.003 865.207 252.057 858.487 251.547 854.797C251.204 852.258 250.889 849.579 250.694 846.844C250.694 846.844 250.573 843.804 250.166 841.208C250.064 840.559 249.971 840.087 249.897 839.697V835.406C249.897 824.912 258.434 816.375 268.927 816.375H302.714C295.475 819.657 290.414 826.952 290.414 835.406V839.531C290.321 839.957 290.219 840.457 290.108 841.208C289.7 843.804 289.598 846.844 289.598 846.844C289.329 850.71 288.801 854.482 288.236 858.06C287.791 860.665 286.335 865.263 285.723 867.117C285.705 867.181 285.686 867.237 285.677 867.302C274.934 867.905 274.442 870.194 274.424 870.5V870.574C274.424 870.63 275.573 876.108 282.071 876.108C285.464 876.108 287.865 877.267 289.274 878.249C290.516 879.111 292.184 879.111 293.426 878.249C294.835 877.276 297.227 876.108 300.629 876.108C307.127 876.108 308.267 870.63 308.285 870.574V870.5C308.267 870.203 307.776 867.905 297.014 867.302C297.004 867.265 297.004 867.228 296.995 867.191C296.402 865.216 294.455 858.496 293.946 854.807C293.603 852.267 293.287 849.588 293.093 846.853C293.093 846.853 292.972 843.813 292.564 841.218C292.462 840.569 292.37 840.096 292.296 839.707V835.415C292.296 824.922 300.833 816.385 311.326 816.385H324.266C333.638 816.385 341.591 810.174 344.223 801.655C346.856 810.174 354.809 816.385 364.181 816.385H377.121C387.614 816.385 396.151 824.922 396.151 835.415V839.54C396.059 839.966 395.957 840.467 395.845 841.218C395.437 843.813 395.335 846.853 395.335 846.853C395.067 850.719 394.538 854.492 393.973 858.07C393.528 860.674 392.073 865.272 391.461 867.126C391.442 867.191 391.424 867.246 391.414 867.311C380.671 867.914 380.18 870.203 380.161 870.509V870.583C380.161 870.639 381.311 876.117 387.809 876.117C391.201 876.117 393.602 877.276 395.011 878.259C396.253 879.121 397.922 879.121 399.164 878.259C400.573 877.285 402.964 876.117 406.366 876.117C412.864 876.117 414.004 870.639 414.023 870.583V870.509C414.004 870.213 413.513 867.914 402.751 867.311C402.742 867.274 402.742 867.237 402.733 867.2C402.139 865.226 400.193 858.505 399.683 854.816C399.34 852.276 399.025 849.597 398.83 846.863C398.83 846.863 398.71 843.822 398.302 841.227C398.2 840.578 398.107 840.105 398.033 839.716V835.424C398.033 826.97 392.981 819.675 385.732 816.394H419.52C429.948 816.394 438.439 824.829 438.541 835.239C438.541 835.304 438.541 835.359 438.541 835.424V839.614C438.457 840.022 438.355 840.513 438.244 841.227C437.836 843.822 437.734 846.863 437.734 846.863C437.679 847.604 437.614 848.346 437.549 849.078C437.521 849.356 437.502 849.634 437.475 849.912C437.252 852.081 436.965 854.204 436.65 856.281C435.927 860.062 434.36 865.467 433.841 867.2C433.841 867.209 433.841 867.219 433.841 867.237C433.841 867.265 433.822 867.293 433.822 867.32C423.061 867.923 422.569 870.222 422.56 870.518V870.593C422.569 870.648 423.719 876.127 430.217 876.127C433.609 876.127 436.01 877.285 437.419 878.268C438.04 878.694 438.772 878.917 439.495 878.917C440.228 878.917 440.951 878.703 441.572 878.268C442.981 877.294 445.372 876.127 448.774 876.127C455.272 876.127 456.412 870.648 456.431 870.593V870.518C456.412 870.222 455.921 867.923 445.168 867.32C445.168 867.293 445.15 867.265 445.15 867.237C445.15 867.228 445.15 867.219 445.15 867.2C444.631 865.467 443.064 860.062 442.341 856.281C442.026 854.204 441.739 852.081 441.516 849.912C441.488 849.634 441.47 849.356 441.442 849.078C441.377 848.346 441.303 847.604 441.257 846.863C441.257 846.863 441.155 843.822 440.747 841.227C440.636 840.522 440.534 840.031 440.45 839.623V835.433C440.45 835.369 440.45 835.313 440.45 835.248C440.552 824.838 449.043 816.403 459.471 816.403H493.259C486.019 819.684 480.958 826.98 480.958 835.433V839.725C480.884 840.115 480.791 840.587 480.689 841.236C480.281 843.832 480.161 846.872 480.161 846.872C479.966 849.606 479.651 852.285 479.308 854.825C478.789 858.514 476.842 865.226 476.258 867.209C476.249 867.246 476.249 867.283 476.24 867.32C465.478 867.923 464.987 870.222 464.968 870.518V870.593C464.977 870.648 466.127 876.127 472.625 876.127C476.017 876.127 478.418 877.285 479.827 878.268C481.069 879.13 482.738 879.13 483.98 878.268C485.389 877.294 487.78 876.127 491.182 876.127C497.68 876.127 498.82 870.648 498.83 870.593V870.518C498.811 870.222 498.32 867.923 487.576 867.32C487.558 867.256 487.549 867.2 487.53 867.135C486.918 865.281 485.463 860.684 485.018 858.079C484.453 854.501 483.924 850.728 483.655 846.863C483.655 846.863 483.553 843.822 483.146 841.227C483.025 840.476 482.923 839.975 482.84 839.549V835.424C482.84 824.931 491.377 816.394 501.87 816.394H514.81C524.182 816.394 532.135 810.183 534.767 801.665C537.4 810.183 545.353 816.394 554.725 816.394H567.665C578.158 816.394 586.695 824.931 586.695 835.424V839.716C586.621 840.105 586.528 840.578 586.426 841.227C586.019 843.822 585.898 846.863 585.898 846.863C585.703 849.597 585.388 852.276 585.045 854.816C584.526 858.505 582.58 865.216 581.996 867.2C581.986 867.237 581.986 867.274 581.977 867.311C571.215 867.914 570.724 870.213 570.705 870.509V870.583C570.715 870.639 571.864 876.117 578.362 876.117C581.755 876.117 584.155 877.276 585.564 878.259C586.807 879.121 588.475 879.121 589.717 878.259C591.126 877.285 593.518 876.117 596.92 876.117C603.418 876.117 604.558 870.639 604.567 870.583V870.509C604.548 870.213 604.057 867.914 593.314 867.311C593.295 867.246 593.286 867.191 593.267 867.126C592.656 865.272 591.2 860.674 590.755 858.07C590.19 854.492 589.662 850.719 589.393 846.853C589.393 846.853 589.291 843.813 588.883 841.218C588.762 840.476 588.66 839.966 588.577 839.54V835.415C588.577 826.961 583.525 819.666 576.276 816.385H610.064C620.557 816.385 629.094 824.922 629.094 835.415V839.707C629.02 840.096 628.927 840.569 628.825 841.218C628.417 843.813 628.297 846.853 628.297 846.853C628.102 849.588 627.787 852.267 627.444 854.807C626.925 858.496 624.978 865.207 624.394 867.191C624.385 867.228 624.385 867.265 624.376 867.302C613.614 867.905 613.123 870.203 613.104 870.5V870.574C613.113 870.63 614.263 876.108 620.761 876.108C624.153 876.108 626.554 877.267 627.963 878.249C629.205 879.111 630.874 879.111 632.116 878.249C633.525 877.276 635.916 876.108 639.318 876.108C645.816 876.108 646.956 870.63 646.966 870.574V870.5C646.947 870.203 646.456 867.905 635.712 867.302C635.694 867.237 635.685 867.181 635.666 867.117C635.054 865.263 633.599 860.665 633.154 858.06C632.589 854.482 632.06 850.71 631.791 846.844C631.791 846.844 631.69 843.804 631.282 841.208C631.161 840.457 631.059 839.957 630.976 839.531V835.406C630.976 823.893 621.604 814.521 610.092 814.521H554.78C544.287 814.521 535.75 805.984 535.75 795.491V785.072C539.041 784.618 541.571 781.809 541.571 778.398C541.571 777.953 541.525 777.517 541.442 777.1C544.102 776.192 546.011 773.68 546.011 770.714C546.011 766.987 542.99 763.965 539.263 763.965C538.818 763.965 538.383 764.012 537.956 764.095V759.46H539.106C539.717 759.46 540.209 758.969 540.209 758.357C540.209 757.746 539.717 757.254 539.106 757.254H537.956V732.227H543.481V729.529H540.255V726.841H543.481V724.153H540.255V721.465H543.481V718.767H537.956V717.803C537.956 716.404 537.029 715.236 535.769 714.828V690.236C535.769 668.536 544.287 648.143 559.758 632.802C569.371 623.273 582.125 618.035 595.715 618.035C595.835 618.035 595.946 618.035 596.067 618.035C609.776 618.128 622.596 623.542 632.172 633.284L654.613 655.901C654.01 657.079 654.177 658.562 655.169 659.554L655.855 660.24L651.953 664.142L653.862 666.052L656.143 663.771L658.043 665.672L655.762 667.952L657.663 669.852L659.943 667.572L661.843 669.472L659.563 671.752L661.472 673.662L665.375 669.759L683.08 687.464L682.264 688.28C681.828 688.716 681.828 689.411 682.264 689.846C682.7 690.282 683.395 690.282 683.831 689.846L684.646 689.031L687.918 692.303C687.557 692.544 687.214 692.822 686.899 693.137C684.266 695.77 684.257 700.043 686.899 702.675C688.994 704.77 692.127 705.197 694.648 703.955C694.889 704.307 695.158 704.65 695.473 704.965C697.883 707.375 701.665 707.57 704.307 705.567L711.676 712.937C719.092 720.352 719.092 732.431 711.676 739.846L702.527 748.995L672.568 778.954C668.619 782.894 666.45 788.14 666.45 793.721C666.45 799.301 668.619 804.538 672.568 808.487L675.488 811.407C675.729 811.768 676.007 812.204 676.452 812.816C678 814.938 680.076 817.163 680.076 817.163C682.616 820.092 684.915 823.133 687.047 826.062C688.576 828.212 690.792 832.495 691.673 834.238C691.7 834.293 691.737 834.349 691.765 834.404C684.591 842.432 685.87 844.397 686.064 844.619L686.092 844.647L686.12 844.675C686.12 844.675 690.848 847.78 695.436 843.183C697.837 840.782 700.349 839.911 702.036 839.605C703.519 839.336 704.705 838.159 704.974 836.666C705.28 834.979 706.152 832.467 708.552 830.066C713.15 825.469 710.082 820.788 710.054 820.741L710.026 820.713L709.998 820.686C709.776 820.482 707.801 819.212 699.765 826.396C699.728 826.377 699.7 826.349 699.672 826.331C697.855 825.348 691.728 821.974 688.762 819.731C686.723 818.174 684.609 816.505 682.533 814.707C682.533 814.707 680.299 812.64 678.176 811.092C677.648 810.702 677.249 810.434 676.915 810.211L673.884 807.18C670.288 803.583 668.313 798.81 668.313 793.721C668.313 788.632 670.297 783.858 673.884 780.261L697.781 756.364C696.901 758.7 696.418 761.185 696.418 763.752C696.418 769.332 698.588 774.57 702.536 778.519L705.456 781.438C705.697 781.8 705.975 782.236 706.42 782.847C707.968 784.97 710.045 787.195 710.045 787.195C712.585 790.124 714.883 793.164 717.015 796.094C718.545 798.244 720.76 802.527 721.641 804.269C721.669 804.325 721.706 804.381 721.734 804.436C714.559 812.464 715.838 814.429 716.033 814.651L716.061 814.679L716.088 814.707C716.088 814.707 720.816 817.812 725.404 813.214C727.805 810.814 730.317 809.942 732.004 809.636C733.487 809.368 734.674 808.19 734.943 806.698C735.248 805.011 736.12 802.499 738.521 800.098C743.118 795.5 740.05 790.819 740.022 790.773L739.994 790.745L739.967 790.717C739.744 790.513 737.77 789.243 729.733 796.427C729.696 796.409 729.668 796.381 729.64 796.362C727.824 795.38 721.696 792.006 718.73 789.762C716.682 788.205 714.578 786.537 712.501 784.738C712.501 784.738 710.267 782.671 708.144 781.123C707.616 780.734 707.218 780.465 706.884 780.243L703.853 777.212C700.256 773.615 698.282 768.841 698.282 763.752C698.282 758.663 700.256 753.899 703.853 750.302L713.011 741.144C719.639 734.516 720.871 724.514 716.709 716.626C719.676 718.202 723.003 719.036 726.461 719.036C732.041 719.036 737.288 716.867 741.227 712.918L750.376 703.769C753.973 700.173 758.747 698.198 763.836 698.198C768.925 698.198 773.698 700.173 777.295 703.769L780.215 706.689C780.456 707.051 780.734 707.486 781.179 708.098C782.727 710.221 784.803 712.445 784.803 712.445C787.343 715.375 789.642 718.415 791.774 721.344C793.303 723.495 795.519 727.777 796.4 729.52C796.427 729.576 796.464 729.631 796.492 729.687C789.318 737.714 790.597 739.679 790.791 739.902L790.819 739.93L790.847 739.957C790.847 739.957 795.575 743.063 800.163 738.465C802.564 736.064 805.076 735.193 806.763 734.887C808.246 734.618 809.432 733.441 809.701 731.949C810.007 730.261 810.878 727.749 813.279 725.349C817.877 720.751 814.809 716.07 814.781 716.024L814.753 715.996L814.725 715.968C814.503 715.764 812.528 714.494 804.492 721.678C804.455 721.659 804.427 721.632 804.399 721.613C802.582 720.63 796.455 717.256 793.489 715.013C791.45 713.456 789.336 711.787 787.26 709.989C787.26 709.989 785.026 707.922 782.903 706.374C782.375 705.985 781.976 705.716 781.642 705.493L778.611 702.462C774.662 698.513 769.425 696.344 763.845 696.344C761.277 696.344 758.784 696.826 756.457 697.707L780.354 673.81C787.77 666.395 799.848 666.395 807.263 673.81L810.183 676.73C810.424 677.092 810.702 677.527 811.147 678.139C812.695 680.262 814.772 682.486 814.772 682.486C817.312 685.416 819.61 688.456 821.742 691.385C823.272 693.536 825.487 697.818 826.368 699.561C826.396 699.616 826.433 699.672 826.461 699.728C819.286 707.755 820.565 709.72 820.76 709.943L820.788 709.971L820.815 709.998C820.815 709.998 825.543 713.104 830.131 708.506C832.532 706.105 835.044 705.234 836.731 704.928C838.214 704.659 839.401 703.482 839.67 701.989C839.975 700.302 840.847 697.79 843.248 695.39C847.845 690.792 844.777 686.111 844.749 686.064L844.721 686.037L844.694 686.009C844.471 685.805 842.497 684.535 834.46 691.719C834.423 691.7 834.395 691.672 834.367 691.654C832.551 690.671 826.423 687.297 823.457 685.054C821.409 683.497 819.304 681.828 817.228 680.03C817.228 680.03 814.994 677.963 812.871 676.415C812.343 676.026 811.944 675.757 811.611 675.534L808.58 672.503C800.441 664.365 787.186 664.365 779.047 672.503L739.939 711.611C736.342 715.208 731.569 717.182 726.48 717.182C721.391 717.182 716.617 715.199 713.02 711.611L705.651 704.242C707.653 701.6 707.458 697.818 705.048 695.408C704.733 695.093 704.4 694.815 704.038 694.574C705.28 692.053 704.854 688.929 702.75 686.825C700.117 684.192 695.853 684.183 693.211 686.825C692.896 687.14 692.618 687.492 692.377 687.844L689.105 684.572L689.921 683.756C690.356 683.321 690.356 682.625 689.921 682.19C689.485 681.754 688.79 681.754 688.354 682.19L687.538 683.006L659.637 655.104C658.636 654.103 657.125 653.936 655.939 654.576L633.682 632.153C623.903 622.633 618.471 609.86 618.378 596.187C618.286 582.403 623.616 569.426 633.386 559.665C648.884 544.176 669.481 535.639 691.394 535.639H698.226C699.07 535.694 699.913 535.732 700.766 535.732V535.639H714.874C715.245 536.955 716.441 537.919 717.877 537.919H718.841V543.444H721.539V540.218H724.227V543.444H726.915V540.218H729.603V543.444H732.301V537.919H757.328V539.069C757.328 539.68 757.82 540.172 758.432 540.172C759.043 540.172 759.535 539.68 759.535 539.069V537.919H764.169C764.086 538.345 764.04 538.781 764.04 539.226C764.04 542.952 767.052 545.974 770.788 545.974C773.754 545.974 776.266 544.065 777.175 541.404C777.592 541.488 778.027 541.534 778.472 541.534C781.883 541.534 784.692 539.004 785.146 535.713H795.565C806.058 535.713 814.596 544.25 814.596 554.743V610.054C814.596 621.567 823.967 630.939 835.48 630.939H839.605C840.031 631.031 840.532 631.133 841.282 631.245C843.878 631.652 846.918 631.754 846.918 631.754C850.784 632.023 854.556 632.552 858.134 633.117C860.739 633.562 865.337 635.017 867.191 635.629C867.256 635.648 867.311 635.666 867.376 635.675C867.979 646.419 870.268 646.91 870.574 646.929H870.648C870.704 646.929 876.182 645.779 876.182 639.281C876.182 635.889 877.341 633.488 878.323 632.079C879.186 630.837 879.186 629.168 878.323 627.926C877.35 626.517 876.182 624.126 876.182 620.724C876.182 614.226 870.704 613.086 870.648 613.067H870.574C870.277 613.086 867.979 613.577 867.376 624.339C867.339 624.348 867.302 624.348 867.265 624.357C865.29 624.951 858.57 626.897 854.881 627.407C852.341 627.75 849.662 628.065 846.928 628.26C846.928 628.26 843.887 628.38 841.292 628.788C840.643 628.89 840.17 628.983 839.781 629.057H835.489C824.996 629.057 816.459 620.52 816.459 610.027V576.239C819.74 583.479 827.035 588.54 835.489 588.54H839.614C840.04 588.633 840.541 588.735 841.292 588.846C843.887 589.254 846.928 589.356 846.928 589.356C850.793 589.624 854.566 590.162 858.144 590.718C860.748 591.163 865.346 592.618 867.2 593.23C867.265 593.249 867.321 593.267 867.385 593.277C867.988 604.02 870.277 604.511 870.583 604.53H870.658C870.713 604.53 876.191 603.38 876.191 596.882C876.191 593.49 877.35 591.089 878.333 589.68C879.195 588.438 879.195 586.769 878.333 585.527C877.359 584.118 876.191 581.727 876.191 578.325C876.191 571.827 870.713 570.687 870.658 570.668H870.583C870.287 570.687 867.988 571.178 867.385 581.94C867.348 581.949 867.311 581.949 867.274 581.959C865.3 582.552 858.579 584.498 854.89 585.008C852.35 585.351 849.671 585.666 846.937 585.861C846.937 585.861 843.896 585.982 841.301 586.389C840.652 586.491 840.179 586.584 839.79 586.658H835.498C825.005 586.658 816.468 578.121 816.468 567.628V554.688C816.468 545.316 810.257 537.363 801.739 534.73C810.257 532.098 816.468 524.145 816.468 514.773V501.833C816.468 491.34 825.005 482.803 835.498 482.803H839.623C840.05 482.895 840.55 482.997 841.301 483.108C843.896 483.516 846.937 483.618 846.937 483.618C850.802 483.887 854.575 484.415 858.153 484.981C860.758 485.426 865.355 486.881 867.209 487.493C867.274 487.511 867.33 487.53 867.395 487.539C867.997 498.283 870.287 498.774 870.593 498.792H870.667C870.722 498.792 876.201 497.643 876.201 491.145C876.201 487.752 877.359 485.352 878.342 483.943C879.204 482.701 879.204 481.032 878.342 479.79C877.369 478.381 876.201 475.989 876.201 472.588C876.201 466.09 870.722 464.95 870.667 464.931H870.593C870.296 464.95 867.997 465.441 867.395 476.203C867.358 476.212 867.321 476.212 867.283 476.221C865.309 476.814 858.589 478.761 854.899 479.271C852.36 479.614 849.681 479.929 846.946 480.124C846.946 480.124 843.906 480.244 841.31 480.652C840.661 480.754 840.189 480.847 839.799 480.921H835.508C827.054 480.921 819.759 485.973 816.477 493.221V459.434C816.477 449.006 824.913 440.515 835.313 440.413C835.378 440.413 835.443 440.413 835.508 440.413H839.707C840.114 440.497 840.606 440.598 841.31 440.71C843.906 441.118 846.946 441.22 846.946 441.22C847.688 441.275 848.429 441.349 849.162 441.414C849.44 441.442 849.718 441.461 849.996 441.488C852.165 441.711 854.288 441.998 856.364 442.313C860.146 443.036 865.55 444.603 867.283 445.122C867.293 445.122 867.302 445.122 867.321 445.122C867.348 445.122 867.376 445.141 867.404 445.141C868.006 455.902 870.305 456.394 870.602 456.403H870.676C870.732 456.394 876.21 455.244 876.21 448.746C876.21 445.354 877.369 442.953 878.351 441.544C878.778 440.923 879 440.191 879 439.468C879 438.735 878.787 438.012 878.351 437.391C877.378 435.982 876.21 433.591 876.21 430.189C876.21 423.691 870.732 422.551 870.676 422.532H870.602C870.305 422.551 868.006 423.042 867.404 433.795C867.376 433.795 867.348 433.813 867.321 433.813C867.311 433.813 867.302 433.813 867.283 433.813C865.55 434.332 860.146 435.899 856.364 436.622C854.288 436.937 852.165 437.224 849.996 437.447C849.718 437.475 849.44 437.493 849.162 437.521C848.429 437.586 847.688 437.66 846.946 437.716C846.946 437.716 843.906 437.818 841.31 438.226C840.606 438.337 840.114 438.439 839.707 438.522H835.508C835.443 438.522 835.378 438.522 835.313 438.522C824.913 438.42 816.477 429.929 816.477 419.501V385.714C819.759 392.953 827.054 398.014 835.508 398.014H839.799C840.189 398.089 840.661 398.181 841.31 398.283C843.906 398.691 846.946 398.812 846.946 398.812C849.681 399.006 852.36 399.321 854.899 399.664C858.589 400.183 865.3 402.13 867.283 402.714C867.321 402.723 867.358 402.723 867.395 402.733C867.997 413.494 870.296 413.986 870.593 414.004H870.667C870.722 413.995 876.201 412.846 876.201 406.348C876.201 402.955 877.359 400.554 878.342 399.145C879.204 397.903 879.204 396.235 878.342 394.992C877.369 393.584 876.201 391.192 876.201 387.79C876.201 381.292 870.722 380.152 870.667 380.143H870.593C870.296 380.161 867.997 380.653 867.395 391.396C867.33 391.414 867.274 391.424 867.209 391.442C865.355 392.054 860.758 393.509 858.153 393.954C854.575 394.52 850.802 395.048 846.937 395.317C846.937 395.317 843.896 395.419 841.301 395.827C840.559 395.947 840.05 396.049 839.623 396.133H835.498C825.005 396.133 816.468 387.595 816.468 377.102V364.162C816.468 354.791 810.257 346.837 801.739 344.205C810.257 341.572 816.468 333.619 816.468 324.248L816.524 324.266ZM694.639 178.8C694.639 177.27 695.232 175.843 696.307 174.758C697.383 173.683 698.819 173.09 700.349 173.09C701.878 173.09 703.306 173.683 704.39 174.758C706.615 176.983 706.615 180.607 704.39 182.832C702.166 185.057 698.541 185.057 696.317 182.832C695.241 181.757 694.648 180.32 694.648 178.79L694.639 178.8ZM184.769 178.8C184.769 180.329 184.176 181.757 183.101 182.841C180.876 185.066 177.252 185.066 175.027 182.841C173.952 181.766 173.358 180.329 173.358 178.8C173.358 177.27 173.952 175.843 175.027 174.758C176.102 173.683 177.539 173.09 179.068 173.09C180.598 173.09 182.025 173.683 183.11 174.758C184.185 175.833 184.778 177.27 184.778 178.8H184.769ZM184.769 700.089C184.769 701.619 184.176 703.046 183.101 704.131C180.876 706.355 177.252 706.355 175.027 704.131C173.952 703.055 173.358 701.619 173.358 700.089C173.358 698.56 173.952 697.132 175.027 696.048C176.102 694.972 177.539 694.379 179.068 694.379C180.598 694.379 182.025 694.972 183.11 696.048C184.185 697.123 184.778 698.56 184.778 700.089H184.769ZM694.639 700.089C694.639 698.56 695.232 697.132 696.307 696.048C697.42 694.935 698.884 694.379 700.349 694.379C701.813 694.379 703.269 694.935 704.39 696.048C706.615 698.272 706.615 701.897 704.39 704.121C703.315 705.197 701.878 705.79 700.349 705.79C698.819 705.79 697.392 705.197 696.307 704.121C695.232 703.046 694.639 701.609 694.639 700.08V700.089ZM772.864 344.223C772.864 341.072 775.423 338.513 778.574 338.513C781.726 338.513 784.284 341.072 784.284 344.223C784.284 347.375 781.726 349.933 778.574 349.933C775.423 349.933 772.864 347.375 772.864 344.223ZM558.544 248.238C568.508 258.119 581.727 263.542 595.798 263.542C595.918 263.542 596.039 263.542 596.159 263.542C606.829 263.467 616.979 260.288 625.572 254.43C619.75 262.985 616.589 273.071 616.515 283.666C616.423 297.904 621.91 311.298 631.986 321.365C646.827 336.205 667.053 344.576 689.114 345.095C672.985 350.193 661.25 365.534 661.25 383.619V401.073C661.25 421.559 643.323 438.856 622.096 438.856H603.455C594.621 438.911 587.483 433.313 582.394 426.592C580.893 424.655 579.354 422.653 578.01 420.613C574.042 414.366 571.855 407.21 570.094 400.054C567.795 390.413 566.256 380.615 565.255 370.753C563.698 355.912 562.863 340.859 560.398 326.064C560.398 326.018 560.379 325.972 560.37 325.916C564.662 327.205 568.814 328.864 572.717 331.144C584.786 338.041 589.356 351.889 589.485 365.358C589.624 377.686 589.179 380.374 589.179 402.779H603.705C603.705 369.752 601.434 357.84 599.089 351.676C595.807 343.065 589.921 335.575 582.607 329.902C575.729 324.609 567.554 321.828 559.276 320.076C557.515 311.863 554.743 303.79 549.497 296.967C543.815 289.654 536.325 283.758 527.723 280.486C521.558 278.141 509.647 275.87 476.62 275.87V290.405C499.024 290.405 501.712 289.96 514.041 290.099C527.509 290.228 541.358 294.798 548.255 306.867C550.489 310.705 552.129 314.783 553.408 319.001C538.642 316.545 523.626 315.71 508.813 314.153C498.95 313.152 489.152 311.613 479.512 309.314C472.347 307.553 465.2 305.366 458.952 301.398C456.913 300.054 454.92 298.515 452.973 297.014C446.188 291.878 440.552 284.676 440.7 275.74V260.325H440.645V255.607C440.645 234.704 457.654 217.695 478.557 217.695H496.095C513.855 217.695 528.928 205.996 534.017 189.895C534.119 211.947 542.813 232.656 558.553 248.256L558.544 248.238ZM554.855 555.133C549.33 556.421 543.648 557.302 537.975 558.256C528.186 559.758 518.286 560.898 508.405 562.372C493.629 564.754 478.576 567.239 464.792 573.384C460.185 575.442 456.097 577.982 452.241 581.189C446.179 585.991 440.645 593.008 439.709 600.952C438.763 593.008 433.239 585.991 427.176 581.189C423.32 577.982 419.232 575.442 414.625 573.384C400.842 567.239 385.788 564.764 371.012 562.372C361.131 560.898 351.231 559.758 341.443 558.256C336.122 557.367 330.783 556.542 325.582 555.374C324.229 549.71 323.33 543.861 322.357 538.021C320.855 528.232 319.715 518.333 318.241 508.451C315.859 493.676 313.374 478.622 307.229 464.838C305.171 460.231 302.372 455.884 299.164 452.028C294.474 446.105 287.874 440.877 280.208 439.801C287.874 438.726 294.474 433.507 299.164 427.575C302.372 423.719 305.171 419.371 307.229 414.764C313.374 400.981 315.849 385.927 318.241 371.151C319.715 361.27 320.855 351.37 322.357 341.582C323.33 335.751 324.238 329.902 325.582 324.229C330.783 323.07 336.122 322.236 341.443 321.346C351.231 319.845 361.131 318.704 371.012 317.231C385.797 314.848 400.851 312.364 414.625 306.218C419.232 304.161 423.839 301.102 427.695 297.885C433.711 293.121 438.791 286.595 439.709 278.827C440.626 286.595 445.706 293.121 451.722 297.885C455.578 301.092 460.185 304.161 464.801 306.218C478.585 312.364 493.639 314.839 508.414 317.231C518.296 318.704 528.195 319.845 537.984 321.346C543.657 322.301 549.348 323.182 554.864 324.47C556.18 330.06 557.07 335.825 558.034 341.582C559.536 351.37 560.676 361.27 562.15 371.151C564.532 385.936 567.016 400.99 573.162 414.764C575.22 419.371 578.279 423.978 581.495 427.834C586.167 433.739 592.544 438.745 600.127 439.792C592.544 440.839 586.167 445.845 581.495 451.75C578.288 455.606 575.22 460.213 573.162 464.82C567.016 478.603 564.541 493.657 562.15 508.433C560.676 518.314 559.536 528.214 558.034 538.003C557.07 543.759 556.18 549.525 554.864 555.114L554.855 555.133ZM534.907 94.8549C538.058 94.8549 540.617 97.4133 540.617 100.565C540.617 103.717 538.058 106.275 534.907 106.275C531.755 106.275 529.197 103.717 529.197 100.565C529.197 97.4133 531.755 94.8549 534.907 94.8549ZM338.764 100.565C338.764 97.4133 341.322 94.8549 344.474 94.8549C347.625 94.8549 350.184 97.4133 350.184 100.565C350.184 103.717 347.625 106.275 344.474 106.275C341.322 106.275 338.764 103.717 338.764 100.565ZM345.401 164.182C346.68 163.783 347.616 162.606 347.616 161.197V128.475H348.886C349.359 128.475 349.748 128.086 349.748 127.613V127.298C349.748 126.816 349.359 126.436 348.886 126.436H347.616V121.746H348.775C349.386 121.746 349.878 121.254 349.878 120.643C349.878 120.031 349.386 119.54 348.775 119.54H347.616V114.905C348.033 114.988 348.478 115.035 348.923 115.035C352.649 115.035 355.662 112.022 355.662 108.286C355.662 105.32 353.752 102.808 351.092 101.9C351.176 101.483 351.213 101.047 351.213 100.602C351.213 97.1908 348.682 94.3822 345.391 93.928V83.509C345.391 73.016 353.929 64.4787 364.422 64.4787H419.733C429.095 64.4787 437.039 58.2867 439.681 49.7773C442.323 58.2867 450.267 64.4787 459.629 64.4787H514.94C525.433 64.4787 533.97 73.016 533.97 83.509V93.928C530.68 94.3822 528.149 97.1908 528.149 100.602C528.149 101.047 528.195 101.483 528.27 101.9C525.609 102.808 523.7 105.32 523.7 108.286C523.7 112.013 526.712 115.035 530.439 115.035C530.884 115.035 531.329 114.988 531.746 114.905V119.54H530.587C529.975 119.54 529.484 120.031 529.484 120.643C529.484 121.254 529.975 121.746 530.587 121.746H531.746V161.206C531.746 162.624 532.691 163.802 533.98 164.191V177.9C533.98 198.803 516.97 215.813 496.067 215.813H478.529C459.527 215.813 443.593 229.217 439.69 247.07C435.778 229.217 419.853 215.813 400.851 215.813H383.313C362.41 215.813 345.401 198.803 345.401 177.9V164.182ZM247.274 320.938C257.331 310.881 262.828 297.496 262.726 283.267C262.652 272.7 259.509 262.642 253.725 254.105C262.411 260.084 272.691 263.338 283.49 263.402C283.61 263.402 283.731 263.402 283.851 263.402C297.848 263.402 310.983 258.017 320.864 248.219C336.595 232.618 345.299 211.901 345.401 189.858C350.49 205.959 365.571 217.657 383.322 217.657H400.86C421.763 217.657 438.772 234.667 438.772 255.57V260.288H438.726V275.703C438.865 284.639 433.22 291.841 426.444 296.977C424.507 298.478 422.504 300.017 420.465 301.361C414.217 305.328 407.061 307.516 399.905 309.277C390.265 311.576 380.467 313.124 370.604 314.116C356.135 315.636 341.47 316.47 327.028 318.806C328.308 314.644 329.93 310.621 332.136 306.83C339.032 294.761 352.881 290.191 366.35 290.062C378.678 289.923 381.366 290.367 403.771 290.367V275.842C370.743 275.842 358.832 278.113 352.668 280.458C344.057 283.74 336.567 289.626 330.894 296.94C325.694 303.706 322.922 311.706 321.161 319.845C312.531 321.587 303.975 324.368 296.819 329.874C289.505 335.556 283.61 343.046 280.338 351.648C277.993 357.812 275.722 369.724 275.722 402.751H290.256C290.256 380.347 289.811 377.658 289.95 365.33C290.08 351.861 294.65 338.013 306.719 331.116C310.937 328.66 315.432 326.936 320.086 325.601C320.058 325.749 320.039 325.888 320.011 326.037C317.546 340.831 316.711 355.894 315.154 370.725C314.153 380.588 312.614 390.386 310.316 400.026C308.554 407.191 306.367 414.338 302.399 420.586C301.055 422.616 299.517 424.618 298.015 426.564C292.88 433.35 285.677 438.986 276.741 438.837H273.896H262.151H256.766C235.965 438.837 219.039 421.883 219.039 401.045V383.591C219.039 365.654 207.276 350.443 191.137 345.401C212.365 344.622 232.201 336.001 247.301 320.911L247.274 320.938ZM95.1052 344.223C95.1052 341.072 97.6636 338.513 100.815 338.513C103.967 338.513 106.525 341.072 106.525 344.223C106.525 347.375 103.967 349.933 100.815 349.933C97.6636 349.933 95.1052 347.375 95.1052 344.223ZM106.525 534.656C106.525 537.808 103.967 540.366 100.815 540.366C97.6636 540.366 95.1052 537.808 95.1052 534.656C95.1052 531.505 97.6636 528.946 100.815 528.946C103.967 528.946 106.525 531.505 106.525 534.656ZM164.413 533.655C163.996 532.413 162.838 531.514 161.456 531.514H121.996V530.355C121.996 529.743 121.505 529.252 120.893 529.252C120.281 529.252 119.79 529.743 119.79 530.355V531.514H115.155C115.239 531.097 115.285 530.652 115.285 530.207C115.285 526.481 112.272 523.468 108.537 523.468C105.57 523.468 103.058 525.377 102.15 528.038C101.733 527.954 101.297 527.917 100.852 527.917C97.4411 527.917 94.6325 530.448 94.1782 533.739H83.7593C73.2662 533.739 64.729 525.201 64.729 514.708V459.397C64.729 450.035 58.537 442.091 50.0276 439.449C58.537 436.807 64.729 428.863 64.729 419.501V364.19C64.729 353.697 73.2662 345.16 83.7593 345.16H94.1782C94.6325 348.45 97.4411 350.981 100.852 350.981C101.297 350.981 101.733 350.934 102.15 350.86C103.058 353.521 105.57 355.43 108.537 355.43C112.263 355.43 115.285 352.418 115.285 348.691C115.285 348.246 115.239 347.801 115.155 347.384H119.79V348.543C119.79 349.155 120.281 349.646 120.893 349.646C121.505 349.646 121.996 349.155 121.996 348.543V347.384H161.456C162.736 347.384 163.82 346.624 164.311 345.53H179.43C200.231 345.53 217.157 362.623 217.157 383.647V401.101C217.157 420.02 230.459 435.88 248.191 439.811C230.477 443.732 217.157 459.907 217.157 479.215V496.67C217.157 517.424 200.583 533.683 179.43 533.683H164.413V533.655ZM320.632 631.207C310.696 621.354 297.533 615.941 283.527 615.941C283.406 615.941 283.286 615.941 283.165 615.941C272.477 616.015 262.309 619.222 253.688 625.117C259.5 616.562 262.67 606.486 262.735 595.891C262.828 581.662 257.34 568.286 247.283 558.219C232.275 543.212 212.568 534.601 191.49 533.739C207.619 528.844 219.029 514.291 219.029 496.642V479.187C219.029 457.979 235.844 440.719 256.506 440.719H276.732C285.668 440.58 292.87 446.216 298.006 453.001C299.507 454.938 301.046 456.941 302.39 458.98C306.357 465.228 308.545 472.384 310.306 479.54C312.605 489.18 314.153 498.978 315.145 508.841C316.702 523.681 317.536 538.735 320.002 553.529C320.03 553.677 320.048 553.816 320.076 553.965C315.423 552.63 310.927 550.896 306.71 548.449C294.641 541.553 290.071 527.704 289.941 514.236C289.811 501.907 290.247 499.219 290.247 476.814H275.712C275.712 509.842 277.983 521.753 280.329 527.917C283.61 536.529 289.496 544.018 296.81 549.691C303.975 555.197 312.522 557.988 321.152 559.721C322.913 567.86 325.684 575.868 330.885 582.626C336.567 589.94 344.057 595.835 352.659 599.107C358.823 601.462 370.734 603.723 403.761 603.723V589.198C381.357 589.198 378.669 589.643 366.34 589.504C352.872 589.374 339.023 584.804 332.127 572.735C329.921 568.944 328.298 564.921 327.019 560.759C341.461 563.086 356.125 563.929 370.595 565.45C380.458 566.451 390.256 567.989 399.896 570.288C407.061 572.049 414.208 574.237 420.456 578.204C422.486 579.549 424.488 581.087 426.435 582.589C433.22 587.724 438.856 594.927 438.708 603.862V619.278H438.763V623.996C438.763 644.899 421.754 661.908 400.851 661.908H383.313C365.284 661.908 350.026 673.977 345.169 690.458V689.939C345.169 667.748 336.456 646.882 320.623 631.189L320.632 631.207ZM344.474 784.034C341.322 784.034 338.764 781.476 338.764 778.324C338.764 775.172 341.322 772.614 344.474 772.614C347.625 772.614 350.184 775.172 350.184 778.324C350.184 781.476 347.625 784.034 344.474 784.034ZM540.617 778.324C540.617 781.476 538.058 784.034 534.907 784.034C531.755 784.034 529.197 781.476 529.197 778.324C529.197 775.172 531.755 772.614 534.907 772.614C538.058 772.614 540.617 775.172 540.617 778.324ZM533.998 714.698C532.71 715.087 531.764 716.265 531.764 717.683V757.143H530.605C529.994 757.143 529.502 757.634 529.502 758.246C529.502 758.858 529.994 759.349 530.605 759.349H531.764V763.984C531.347 763.901 530.902 763.854 530.457 763.854C526.731 763.854 523.718 766.867 523.718 770.602C523.718 773.569 525.628 776.081 528.288 776.989C528.205 777.406 528.168 777.842 528.168 778.287C528.168 781.698 530.698 784.507 533.989 784.961V795.38C533.989 805.873 525.452 814.41 514.959 814.41H459.647C450.285 814.41 442.341 820.602 439.699 829.112C437.058 820.602 429.114 814.41 419.751 814.41H364.44C353.947 814.41 345.41 805.873 345.41 795.38V784.961C348.701 784.507 351.231 781.698 351.231 778.287C351.231 777.842 351.185 777.406 351.111 776.989C353.771 776.081 355.68 773.569 355.68 770.602C355.68 766.876 352.668 763.854 348.942 763.854C348.497 763.854 348.052 763.901 347.635 763.984V759.349H348.793C349.405 759.349 349.896 758.858 349.896 758.246C349.896 757.634 349.405 757.143 348.793 757.143H347.635V717.683C347.635 716.19 346.587 714.948 345.187 714.633V701.702H345.419C345.419 680.799 362.429 663.79 383.331 663.79H400.869C419.872 663.79 435.806 650.386 439.709 632.533C443.62 650.386 459.545 663.79 478.548 663.79H496.086C516.989 663.79 533.998 680.799 533.998 701.702V714.698ZM632.134 558.229C622.012 568.351 616.487 581.792 616.589 596.076C616.664 606.625 619.806 616.664 625.59 625.173C616.997 619.315 606.847 616.126 596.169 616.061C581.922 615.987 568.592 621.4 558.544 631.365C542.813 646.966 534.109 667.683 534.007 689.726C528.918 673.625 513.837 661.927 496.086 661.927H478.548C457.645 661.927 440.636 644.917 440.636 624.014V619.296H440.682V603.881C440.543 594.945 446.188 587.743 452.964 582.607C454.901 581.106 456.904 579.567 458.943 578.223C465.191 574.256 472.347 572.068 479.503 570.307C489.143 568.008 498.941 566.46 508.804 565.468C523.607 563.911 538.633 563.086 553.399 560.62C552.12 564.838 550.479 568.916 548.245 572.754C541.349 584.823 527.5 589.393 514.032 589.522C501.703 589.652 499.015 589.217 476.611 589.217V603.751C509.638 603.751 521.549 601.48 527.713 599.135C536.325 595.854 543.815 589.967 549.487 582.654C554.734 575.831 557.506 567.748 559.267 559.545C567.554 557.793 575.72 555.012 582.598 549.719C589.912 544.037 595.807 536.547 599.079 527.945C601.434 521.781 603.696 509.87 603.696 476.842H589.17C589.17 499.247 589.615 501.935 589.476 514.263C589.346 527.732 584.777 541.581 572.708 548.477C568.805 550.748 564.652 552.407 560.361 553.705C560.361 553.659 560.379 553.612 560.388 553.557C562.854 538.763 563.688 523.709 565.246 508.868C566.247 499.006 567.785 489.208 570.084 479.568C571.846 472.402 574.033 465.255 578 459.008C579.345 456.978 580.883 454.975 582.385 453.029C587.52 446.244 594.723 440.608 603.659 440.756H616.45V440.738H622.086C643.313 440.738 661.241 458.072 661.241 478.585V496.039C661.241 513.67 672.828 528.631 688.78 533.739C667.377 534.406 647.346 543.036 632.134 558.247V558.229ZM784.284 534.656C784.284 537.808 781.726 540.366 778.574 540.366C775.423 540.366 772.864 537.808 772.864 534.656C772.864 531.505 775.423 528.946 778.574 528.946C781.726 528.946 784.284 531.505 784.284 534.656ZM814.67 364.181V419.492C814.67 428.854 820.862 436.798 829.371 439.44C820.862 442.082 814.67 450.026 814.67 459.388V514.699C814.67 525.192 806.132 533.729 795.639 533.729H785.22C784.766 530.439 781.958 527.908 778.546 527.908C778.101 527.908 777.666 527.954 777.249 528.029C776.34 525.368 773.828 523.459 770.862 523.459C767.136 523.459 764.114 526.471 764.114 530.198C764.114 530.643 764.16 531.087 764.244 531.505H759.609V530.346C759.609 529.734 759.118 529.243 758.506 529.243C757.894 529.243 757.403 529.734 757.403 530.346V531.505H717.942C716.561 531.505 715.402 532.404 714.985 533.646H698.356C678.704 532.367 663.113 515.978 663.113 496.012V478.557C663.113 459.879 648.968 443.732 630.698 439.783C648.968 435.843 663.113 419.714 663.113 401.073V383.619C663.113 362.41 680.039 345.15 700.84 345.15H714.967C715.365 346.43 716.543 347.366 717.952 347.366H757.412V348.524C757.412 349.136 757.903 349.627 758.515 349.627C759.127 349.627 759.618 349.136 759.618 348.524V347.366H764.253C764.169 347.783 764.123 348.228 764.123 348.673C764.123 352.399 767.136 355.412 770.871 355.412C773.837 355.412 776.35 353.502 777.258 350.842C777.675 350.925 778.111 350.962 778.556 350.962C781.967 350.962 784.775 348.432 785.23 345.141H795.649C806.142 345.141 814.679 353.678 814.679 364.171L814.67 364.181Z" fill="black"/>
<path d="M275.833 462.219H261.299V476.753H275.833V462.219Z" fill="black"/>
<path d="M476.527 603.977H461.992V618.511H476.527V603.977Z" fill="black"/>
<path d="M618.502 462.209H603.968V476.744H618.502V462.209Z" fill="black"/>
<path d="M418.389 603.977H403.854V618.511H418.389V603.977Z" fill="black"/>
</svg>
