<svg width="327" height="323" viewBox="0 0 327 323" fill="none" xmlns="http://www.w3.org/2000/svg">
<path d="M107.209 163.742H96.9775V173.973H107.209V163.742Z" fill="white"/>
<path d="M230.006 163.742H219.774V173.973H230.006V163.742Z" fill="white"/>
<path d="M199.304 163.717H189.068V163.726H188.082C190.107 160.623 191.83 157.398 193.197 154.059C196.431 146.16 197.675 137.651 196.267 128.762C194.253 116.03 187.537 104.484 178.803 95.1448C180.633 95.018 182.45 95.1858 184.189 95.7342C185.884 96.2785 187.373 97.1871 188.72 98.2921C188.978 98.5336 189.71 99.2211 189.972 99.4667C190.991 100.576 191.986 101.775 192.825 103.027C193.177 103.494 193.799 104.427 194.102 104.926C194.859 106.068 195.862 107.791 196.611 108.97C199.41 113.496 202.709 117.671 207.272 120.687C213.513 124.964 221.965 124.841 226.97 118.956C216.129 124.952 207.931 117.192 202.475 108.25C200.9 105.716 199.553 103.027 197.544 100.785C196.987 100.228 196.21 99.3562 195.608 98.861C195.231 98.5786 194.384 97.8173 194.004 97.5718C193.627 97.3221 192.665 96.7001 192.272 96.4463C191.683 96.1271 191.036 95.812 190.435 95.505C187.746 94.3059 184.856 93.7533 181.959 93.7574C180.58 93.7779 179.233 93.9334 177.911 94.2035C177.604 93.8843 177.293 93.5692 176.982 93.2581C176.368 92.6401 175.742 92.0344 175.112 91.4369C173.724 90.1272 172.304 88.8626 170.839 87.6512C170.847 87.6594 170.851 87.6675 170.856 87.6757C168.662 85.6335 166.292 83.7018 163.759 82.0197C171.629 77.5259 181.234 75.4182 188.474 81.2462L189.039 81.68C189.358 81.9788 190.283 82.8464 190.603 83.1493C190.922 83.5094 191.708 84.3975 192.027 84.7413C193.042 86.0059 194.053 87.4097 194.986 88.7521C196.918 91.7111 198.661 94.8338 200.65 97.756C203.781 102.323 207.411 106.506 212.191 109.653C216.018 112.183 220.675 113.754 225.288 113.349C229.724 112.985 233.977 110.852 236.784 107.505C221.989 115.604 211.508 103.555 204.677 91.5719C203.065 88.7153 201.231 85.875 198.866 83.5749C198.518 83.2434 198.01 82.6868 197.634 82.3962C196.864 81.7782 195.751 80.8001 194.908 80.3089L193.467 79.3799L191.937 78.5859C188.421 76.7974 184.476 76.0239 180.596 76.0157C174.342 76.1017 168.551 78.4263 163.399 81.7946C158.266 78.4509 152.496 76.1508 146.271 76.0608C142.391 76.069 138.446 76.8466 134.93 78.631L133.399 79.4249L131.959 80.354C131.112 80.8492 130.007 81.8314 129.233 82.4412C128.857 82.7318 128.353 83.2925 128.001 83.6199C125.636 85.92 123.802 88.7603 122.19 91.617C115.367 103.596 104.874 115.649 90.0828 107.55C92.8903 110.897 97.1426 113.034 101.579 113.394C106.187 113.803 110.853 112.228 114.676 109.698C119.456 106.555 123.082 102.368 126.217 97.801C128.202 94.8788 129.949 91.752 131.881 88.7971C132.814 87.4547 133.825 86.0509 134.84 84.7863C135.159 84.4425 135.941 83.5585 136.264 83.1943C136.6 82.8791 137.509 82.0279 137.828 81.725L138.393 81.2912C145.612 75.4796 155.181 77.5587 163.034 82.0238C160.522 83.7018 158.164 85.6253 155.987 87.6512C154.522 88.8626 153.097 90.1272 151.714 91.4369C151.08 92.0344 150.458 92.6401 149.844 93.2581C149.533 93.5692 149.222 93.8884 148.915 94.2076C147.593 93.9375 146.246 93.7779 144.867 93.7574C141.97 93.7533 139.08 94.3059 136.391 95.505C135.794 95.8079 135.143 96.1271 134.554 96.4463C134.169 96.696 133.195 97.3221 132.822 97.5718C132.438 97.8255 131.599 98.5786 131.214 98.861C130.612 99.3603 129.839 100.228 129.278 100.785C127.269 103.031 125.922 105.72 124.347 108.25C118.883 117.196 110.706 124.952 99.8519 118.956C104.861 124.841 113.305 124.964 119.55 120.687C123.381 118.17 126.286 114.818 128.795 111.164C130.146 109.215 131.423 106.903 132.72 104.926C133.023 104.423 133.645 103.494 133.997 103.027C134.836 101.775 135.831 100.576 136.85 99.4667C137.12 99.2129 137.848 98.5336 138.102 98.2921C139.448 97.1871 140.938 96.2785 142.633 95.7342C144.372 95.1858 146.189 95.018 148.018 95.1448C139.739 103.997 133.277 114.818 130.907 126.785C128.165 140.635 131.689 152.311 139.158 163.726H137.897H127.666V173.957H137.897V184.189H148.129H158.361V194.421V204.652V214.884V225.115V235.347V245.579V255.81V266.042H148.129V276.274H158.361V286.505H148.129V296.737H158.361H168.592V286.505H178.824V276.274H168.592V266.042H178.824V255.81H168.592V245.579V235.347H168.605V225.115V214.884V204.652V194.421V184.189H178.836H189.068V173.957V173.953H199.304V163.717ZM151.931 94.2608C152.308 93.5487 152.68 92.8611 153.052 92.2104C153.093 92.1367 153.138 92.0508 153.179 91.9771C154.043 90.4792 154.988 89.055 155.975 87.6757C158.107 85.7358 160.64 83.8409 163.399 82.2284C166.178 83.845 168.731 85.7522 170.876 87.7044C171.854 89.0795 172.795 90.4956 173.651 91.9812C173.692 92.0549 173.737 92.1408 173.778 92.2145C174.15 92.8652 174.527 93.5528 174.899 94.2649C175.01 94.4777 175.124 94.6947 175.235 94.9157C170.864 96.3563 166.877 98.9919 163.411 102.037C159.944 98.9919 155.962 96.3563 151.591 94.9157C151.706 94.6906 151.816 94.4736 151.931 94.2608ZM144.004 133.657C141.204 121.612 146.017 106.068 151.223 95.6441C155.655 96.7164 159.977 99.2416 163.354 102.029C153.556 110.214 145.89 121.313 144.004 133.657ZM166.972 146.389C165.871 147.285 164.671 147.993 163.411 148.57C162.15 147.993 160.951 147.285 159.85 146.389C148.432 137.074 155.389 115.629 161.426 105.151C162.04 104.087 162.711 103.072 163.407 102.086C163.415 102.086 163.415 102.086 163.411 102.082C163.415 102.082 163.415 102.082 163.415 102.082C163.415 102.082 163.415 102.082 163.415 102.086C164.111 103.072 164.782 104.087 165.396 105.151C171.437 115.629 178.39 137.074 166.972 146.389ZM163.476 102.029C166.853 99.2375 171.179 96.7164 175.611 95.6441C180.813 106.064 185.626 121.612 182.831 133.657C180.944 121.317 173.278 110.214 163.476 102.029Z" fill="white"/>
<path d="M219.77 163.717V153.486H209.539H199.307V163.717H209.539H219.77Z" fill="white"/>
<path d="M127.671 163.717V153.486H117.439H107.208V163.717H117.439H127.671Z" fill="white"/>
<path d="M168.611 40.9373H158.38V51.1689H168.611V40.9373Z" fill="white"/>
<path d="M178.838 30.7036H168.606V40.9352H178.838V30.7036Z" fill="white"/>
<path d="M168.611 20.4549H158.38V30.6865H168.611V20.4549Z" fill="white"/>
<path d="M158.363 10.2361H148.131V20.4678H158.363V10.2361Z" fill="white"/>
<path d="M178.838 10.2361H168.606V20.4678H178.838V10.2361Z" fill="white"/>
<path d="M199.307 10.2341V0.00244141H189.071H178.84V10.2341H189.071H199.307Z" fill="white"/>
<path d="M148.139 10.2341V0.00244141H137.903H127.671V10.2341H137.903H148.139Z" fill="white"/>
<path d="M128.341 287.261C123.982 289.279 121.453 293.519 119.137 298.172C119.624 295.406 119.595 292.557 118.932 289.782C118.744 289.14 118.547 288.444 118.343 287.805C118.167 287.38 117.729 286.308 117.553 285.894C117.373 285.469 116.788 284.507 116.583 284.077C116.202 283.394 115.49 282.477 115.048 281.822C113.211 279.436 110.812 277.615 108.614 275.601C100.83 268.607 94.7035 259.104 102.586 249.555C95.8822 253.398 94.2124 261.678 97.2696 268.603C99.0418 272.83 101.8 276.301 104.935 279.44C106.601 281.126 108.639 282.804 110.346 284.441C110.784 284.83 111.582 285.612 111.979 286.046C113.055 287.097 114.05 288.297 114.954 289.504C115.15 289.815 115.687 290.654 115.879 290.953C116.718 292.475 117.336 294.108 117.561 295.876C117.933 298.942 117.197 302.011 115.805 304.892C114.934 306.517 113.996 308.089 112.92 309.525C112.531 310.033 112.126 310.532 111.709 311.015C109.617 313.364 107.022 315.218 103.536 316.139C97.2287 317.694 89.248 316.687 84.0012 312.992C78.8527 309.394 76.4134 302.78 76.5199 296.744V286.512V276.28V266.049H66.2882V276.28V286.508H66.2841V296.74C66.2841 296.74 66.1777 304.413 69.3372 310.07C73.9578 318.337 83.3219 322.589 92.6327 322.859C123.438 323.723 116.8 295.074 128.791 288.162C130.392 287.245 132.266 286.803 134.165 286.696V286.287C132.221 286.193 130.199 286.443 128.341 287.261Z" fill="white"/>
<path d="M117.45 204.647V194.428H107.219V204.66H117.45V214.891H127.682V217.687C127.682 218.939 127.682 220.183 127.682 221.431C127.682 223.224 127.682 225.012 127.682 226.805C127.682 228.307 127.723 229.793 127.6 231.291C127.465 232.944 127.211 234.585 126.851 236.206C125.357 242.901 121.506 248.701 114.078 248.48C101.661 248.185 98.6322 232.641 92.1658 224.505C90.1686 221.853 87.2669 219.721 83.8905 219.364L83.8455 219.77C90.8275 220.461 93.6883 227.935 96.0702 233.566C97.9774 238.146 99.7536 243.061 103.069 246.978C106.089 250.645 110.276 252.777 115.04 253.166C119.677 253.641 124.42 252.417 127.993 249.36C131.93 245.991 134.885 240.708 136.428 235.809C137.533 232.305 137.819 228.724 137.893 225.111H137.922V221.321V217.674V214.879V204.647H127.69H117.45Z" fill="white"/>
<path d="M88.515 210.198L88.5519 209.969L87.6392 209.822C83.5752 209.392 79.7526 212.404 76.5153 216.411V214.897V204.665V194.433V184.202H66.2837V194.433V204.665V214.897V225.128V235.36H76.5153V232.102C76.7159 227.617 77.2766 222.738 78.84 218.547C80.3952 214.549 83.5997 209.83 88.515 210.198Z" fill="white"/>
<path d="M66.2744 173.968H56.0427V184.2H66.2744V173.968Z" fill="white"/>
<path d="M66.2744 255.815H56.0427V266.047H66.2744V255.815Z" fill="white"/>
<path d="M76.5153 245.596H66.2837V255.828H76.5153V245.596Z" fill="white"/>
<path d="M86.7529 235.363H76.5212V245.594H86.7529V235.363Z" fill="white"/>
<path d="M66.2744 122.799H56.0427V133.031H66.2744V122.799Z" fill="white"/>
<path d="M76.5153 163.728V153.496V143.265V133.033H66.2837V143.265V153.496V163.728V173.964H76.5153V163.728Z" fill="white"/>
<path d="M76.5153 30.6994V20.4678V10.2361H66.2837V20.4678V30.6994V40.9352H76.5153V30.6994Z" fill="white"/>
<path d="M66.2765 92.0793V102.311V108.667C66.2438 108.626 66.2111 108.585 66.1783 108.544C64.0992 106.121 61.083 103.224 57.6001 104.165L57.6369 104.349C59.8265 103.878 61.1034 105.11 62.147 106.187C65.0324 109.346 66.2479 114.323 66.2765 118.551V122.778H76.5082V115.117C76.7087 110.631 77.2694 105.753 78.8328 101.562C80.388 97.5634 83.5926 92.8446 88.5079 93.2129L88.5447 92.9837L87.632 92.8364C83.568 92.4067 79.7455 95.4189 76.5082 99.4256V92.0793V81.8476V71.616H66.2765V81.8476V92.0793Z" fill="white"/>
<path d="M66.2744 40.9373H56.0427V51.1689H66.2744V40.9373Z" fill="white"/>
<path d="M56.0517 214.873H45.8201V225.105H56.0517V214.873Z" fill="white"/>
<path d="M45.8144 102.337V92.1058H35.5828V102.337V112.569V122.801H45.8144V112.569V102.337Z" fill="white"/>
<path d="M45.8144 194.433V184.202H35.5828V194.433V204.665V214.897H45.8144V204.665V194.433Z" fill="white"/>
<path d="M20.3764 62.6802C22.0585 59.6393 23.6465 56.4961 25.6069 53.6558C28.439 49.5673 31.7991 46.6574 36.9026 48.3436C42.7224 50.2098 44.4536 56.9914 45.2434 62.4632C45.6814 65.4877 45.8205 67.5954 45.8205 71.6226V81.8543V92.0859H56.0522V81.8543V71.6226H56.0481C56.3509 62.0131 52.4915 50.7009 43.9051 45.5237C40.2177 43.3014 35.6011 42.6916 31.5862 44.21C18.8581 49.1867 20.7038 77.7207 0.608887 77.7944V78.1095C2.36873 78.0808 4.14085 77.8803 5.83521 77.3687C12.8623 75.3224 17.0368 68.7291 20.3764 62.6802ZM54.6075 71.6185H48.6444C50.568 71.6185 53.04 71.6144 54.6075 71.6185Z" fill="white"/>
<path d="M56.0482 235.368L56.0523 225.136H45.8207V235.344C45.8207 239.371 45.6815 241.478 45.2436 244.503C44.4537 249.975 42.7266 256.756 36.9028 258.623C31.8033 260.309 28.4392 257.399 25.607 253.31C23.6466 250.47 22.0587 247.327 20.3766 244.286C17.037 238.233 12.8625 231.644 5.83131 229.602C4.13695 229.09 2.36482 228.894 0.60498 228.861V229.176C20.6999 229.25 18.8541 257.788 31.5823 262.76C35.5972 264.275 40.2178 263.669 43.9012 261.447C52.4835 256.269 56.3429 244.974 56.0482 235.368Z" fill="white"/>
<path d="M6.28726 208.786C10.2039 212.097 15.1192 213.873 19.6989 215.785C25.3304 218.167 32.8036 221.027 33.4953 228.009L33.9004 227.964C33.5444 224.588 31.4121 221.686 28.7601 219.689C20.6239 213.219 5.08402 210.194 4.78526 197.777C4.56425 190.349 10.3595 186.498 17.0591 185.004C18.6798 184.644 20.321 184.39 21.9744 184.255C23.4723 184.132 24.958 184.173 26.46 184.173C28.2526 184.173 30.0411 184.173 31.8336 184.173C33.0819 184.173 34.3302 184.173 35.5784 184.173V173.966H45.8101V163.734H35.5784V173.941C34.3629 173.941 33.1474 173.941 31.9319 173.941C28.7396 173.941 26.505 173.941 24.6265 174.056C24.6101 174.056 24.5896 174.06 24.5733 174.06C24.2581 174.08 23.9553 174.101 23.6565 174.13C17.7999 174.543 11.7182 174.396 11.2148 167.287C11.0634 164.45 12.2544 161.815 13.5313 159.261C14.4153 157.587 15.2911 155.86 16.0237 154.084C17.4766 157.35 18.0741 161.013 17.4725 164.557L17.6444 164.581C17.7794 163.607 17.8736 162.629 17.8818 161.647C17.9718 158.811 17.2842 156.093 16.2652 153.486C17.2883 150.879 17.9718 148.162 17.8818 145.325C17.8736 144.343 17.7794 143.365 17.6444 142.391L17.4725 142.416C18.0741 145.96 17.4807 149.623 16.0237 152.889C15.2911 151.112 14.4112 149.389 13.5313 147.711C12.2544 145.162 11.0634 142.522 11.2148 139.686C11.7182 132.577 17.804 132.429 23.6565 132.843C23.9512 132.867 24.2581 132.892 24.5733 132.912C24.5896 132.912 24.6101 132.917 24.6265 132.917C26.505 133.031 28.7396 133.031 31.9319 133.031C33.1474 133.031 34.3629 133.031 35.5784 133.031V143.259H45.8101V133.027H35.5784V122.795C34.3261 122.795 33.0819 122.795 31.8336 122.795C30.0411 122.795 28.2526 122.795 26.46 122.795C24.958 122.795 23.4723 122.836 21.9744 122.714C20.321 122.578 18.6798 122.325 17.0591 121.965C10.3635 120.471 4.56425 116.62 4.78526 109.191C5.07993 96.7742 20.6239 93.7456 28.7601 87.2792C31.4121 85.282 33.5444 82.3803 33.9004 79.0039L33.4953 78.9589C32.8036 85.9409 25.3304 88.8017 19.6989 91.1836C15.1192 93.0908 10.2039 94.867 6.28726 98.1821C2.62024 101.202 0.487963 105.389 0.09916 110.153C-0.375589 114.79 0.848117 119.534 3.90533 123.106C6.35274 125.967 9.81104 128.304 13.3921 129.962C12.1561 130.817 11.0839 131.889 10.2858 133.236C8.59961 136.158 8.73467 139.903 9.91745 142.853C11.4113 146.627 13.9201 149.643 15.6349 153.237C15.6758 153.318 15.7127 153.404 15.7536 153.486C15.7127 153.568 15.6758 153.654 15.6349 153.736C13.9242 157.329 11.4154 160.346 9.91745 164.119C8.73467 167.07 8.60371 170.815 10.2858 173.737C11.0839 175.083 12.1561 176.155 13.3921 177.011C9.80695 178.668 6.34865 181.005 3.90533 183.866C0.848117 187.439 -0.375589 192.182 0.09916 196.819C0.487963 201.575 2.62024 205.762 6.28726 208.786Z" fill="white"/>
<path d="M35.5881 153.501H25.3564V163.732H35.5881V153.501Z" fill="white"/>
<path d="M35.5881 143.259H25.3564V153.491H35.5881V143.259Z" fill="white"/>
<path d="M260.707 296.74V286.508V276.276V266.045H250.475V276.281V286.512V296.744H250.487C250.594 302.78 248.155 309.394 243.006 312.992C237.759 316.683 229.778 317.694 223.472 316.139C219.985 315.218 217.39 313.364 215.299 311.015C214.881 310.532 214.476 310.037 214.087 309.525C213.011 308.089 212.07 306.517 211.202 304.892C209.81 302.015 209.074 298.942 209.446 295.876C209.671 294.112 210.289 292.479 211.128 290.953C211.316 290.654 211.853 289.815 212.053 289.504C212.958 288.297 213.952 287.101 215.029 286.046C215.426 285.612 216.224 284.83 216.662 284.441C218.368 282.804 220.406 281.126 222.072 279.44C225.207 276.301 227.965 272.83 229.738 268.603C232.795 261.678 231.129 253.398 224.421 249.555C232.304 259.104 226.177 268.607 218.393 275.601C216.195 277.615 213.797 279.436 211.959 281.822C211.517 282.477 210.801 283.394 210.424 284.077C210.216 284.503 209.634 285.469 209.454 285.894C209.278 286.308 208.84 287.376 208.664 287.805C208.46 288.444 208.263 289.14 208.075 289.782C207.412 292.557 207.383 295.41 207.87 298.172C205.554 293.519 203.025 289.279 198.662 287.261C196.804 286.443 194.782 286.197 192.838 286.287V286.696C194.737 286.803 196.612 287.245 198.212 288.161C210.203 295.07 203.569 323.719 234.37 322.859C243.681 322.589 253.045 318.337 257.666 310.07C260.825 304.409 260.719 296.74 260.719 296.74H260.707Z" fill="white"/>
<path d="M260.705 225.128V214.897V204.665V194.433V184.202H250.474V194.433V204.665V214.897V216.399C247.236 212.396 243.422 209.392 239.358 209.822L238.445 209.969L238.482 210.198C243.397 209.83 246.602 214.553 248.157 218.547C249.696 222.673 250.265 227.457 250.474 231.881V235.356H260.705V225.128Z" fill="white"/>
<path d="M270.941 173.968H260.709V184.2H270.941V173.968Z" fill="white"/>
<path d="M270.941 255.815H260.709V266.047H270.941V255.815Z" fill="white"/>
<path d="M260.707 245.596H250.476V255.828H260.707V245.596Z" fill="white"/>
<path d="M250.47 235.363H240.238V245.594H250.47V235.363Z" fill="white"/>
<path d="M270.941 122.799H260.709V133.031H270.941V122.799Z" fill="white"/>
<path d="M260.711 153.496V143.265V133.033H250.476V143.265V153.496V163.728V173.964H260.711V163.728V153.496Z" fill="white"/>
<path d="M260.711 20.4678V10.2361H250.476V20.4678V30.6994V40.9352H260.711V30.6994V20.4678Z" fill="white"/>
<path d="M270.941 40.9373H260.709V51.1689H270.941V40.9373Z" fill="white"/>
<path d="M281.178 214.873H270.947V225.105H281.178V214.873Z" fill="white"/>
<path d="M281.173 102.337V112.569V122.801H291.405V112.569V102.337V92.1058H281.173V102.337Z" fill="white"/>
<path d="M291.405 133.033H281.173V143.265H291.405V133.033Z" fill="white"/>
<path d="M291.405 163.727H301.636V153.491V143.259H291.405V153.491V163.723H281.173V173.958H291.405V163.727Z" fill="white"/>
<path d="M291.405 204.665V194.433V184.202H281.173V194.433V204.665V214.897H291.405V204.665Z" fill="white"/>
<path d="M219.758 194.428H209.526V204.66H219.758V194.428Z" fill="white"/>
<path d="M260.702 92.0793V81.8476V71.616H250.47V81.8476V92.0793V99.4092C247.233 95.4066 243.418 92.4026 239.354 92.8323L238.442 92.9797L238.478 93.2088C243.394 92.8405 246.598 97.5634 248.154 101.558C249.692 105.683 250.261 110.468 250.47 114.892V122.774H260.702V118.694C260.71 118.698 260.714 118.698 260.714 118.698C260.714 114.437 261.925 109.383 264.843 106.183C265.887 105.102 267.164 103.874 269.354 104.345L269.39 104.161C265.912 103.219 262.895 106.117 260.812 108.54C260.775 108.585 260.738 108.63 260.702 108.675V102.311V92.0793Z" fill="white"/>
<path d="M66.2876 51.1662V61.3978H76.5192C76.5192 61.4142 76.5192 61.4305 76.5192 61.4469H76.5233V71.6294H86.755V61.3978C86.755 61.3978 86.5135 51.1662 91.9486 45.6206C97.531 39.9236 105.823 37.0383 113.726 37.951C116.218 38.2988 118.522 39.2401 120.614 40.5784C120.024 41.3601 119.468 42.1909 118.952 43.075C117.049 46.2386 115.878 49.9179 115.813 53.6136C115.645 57.5671 116.173 61.0663 115.391 64.6392C113.353 73.8681 104.488 80.5965 95.2964 81.6565L95.3455 82.0616C100.289 81.3168 105.061 79.3482 109.023 76.291C113.091 73.1928 116.271 68.8915 117.683 63.9271C118.625 60.5629 118.801 57.1251 119.488 54.076C120.237 50.3599 122.451 47.0162 125.349 44.6097C128.185 47.6014 130.653 51.0229 133.358 54.1702C139.657 61.7007 146.978 66.1166 156.809 67.324C158.99 67.6105 161.192 67.7251 163.39 67.7537V67.7578C163.431 67.7578 163.472 67.7537 163.513 67.7537C163.554 67.7537 163.595 67.7578 163.636 67.7578V67.7537C165.833 67.721 168.031 67.6105 170.217 67.324C180.047 66.1166 187.369 61.7007 193.668 54.1702C196.377 51.0229 198.841 47.6055 201.677 44.6097C204.574 47.0162 206.789 50.3599 207.538 54.076C208.221 57.1292 208.397 60.567 209.342 63.9271C210.754 68.8915 213.934 73.1928 218.003 76.291C221.964 79.3482 226.736 81.3127 231.68 82.0616L231.729 81.6565C222.537 80.5965 213.672 73.8681 211.634 64.6392C210.853 61.0663 211.381 57.5671 211.213 53.6136C211.147 49.9179 209.977 46.2386 208.074 43.075C207.558 42.1909 207.001 41.356 206.412 40.5784C208.503 39.2401 210.808 38.2988 213.3 37.951C221.199 37.0383 229.495 39.9195 235.077 45.6206C240.512 51.1662 240.271 61.3978 240.271 61.3978H240.258V71.6294H250.49V61.4469L250.486 61.451C250.486 61.4346 250.486 61.4183 250.486 61.4019H260.705V51.1702H250.474V60.743C250.404 58.2751 249.921 55.8318 249.197 53.4785C246.893 45.9194 241.736 38.8513 234.435 35.4831C233.252 34.9183 232.044 34.4558 230.821 34.0752C225.738 32.5937 220.634 30.4205 216.505 27.0604C214.065 25.0632 212.056 22.1901 212.437 18.8873L212.04 18.7932C210.321 24.1096 213.869 29.0208 217.921 32.7942C213.558 33.138 209.154 34.4395 205.622 37.0301C205.139 37.378 204.673 37.7381 204.227 38.1147C200.306 34.2225 195.239 32.0248 189.419 31.2676C185.969 30.7929 183.559 30.7029 178.856 30.7029V40.9427C188.302 40.9427 193.565 39.3998 199.536 43.0872C198.395 44.5524 197.335 46.0831 196.295 47.6055C189.8 57.6039 183.35 64.8602 170.986 66.7919C168.514 67.1766 166.005 67.3813 163.501 67.3567C160.996 67.3813 158.487 67.1766 156.015 66.7919C143.651 64.8602 137.201 57.608 130.706 47.6055C129.667 46.079 128.607 44.5524 127.465 43.0872C133.436 39.3998 138.699 40.9427 148.145 40.9427V40.9386H158.372V30.7069H148.145V30.6988C143.442 30.6988 141.032 30.7888 137.582 31.2636C131.758 32.0207 126.695 34.2184 122.775 38.1106C122.324 37.734 121.862 37.3698 121.379 37.026C117.847 34.4354 113.447 33.1339 109.08 32.7901C113.132 29.0167 116.681 24.1055 114.962 18.7891L114.565 18.8833C114.945 22.1901 112.936 25.0591 110.497 27.0563C106.367 30.4164 101.263 32.5896 96.1804 34.0711C94.9567 34.4517 93.7494 34.9183 92.5666 35.479C85.2653 38.8432 80.1085 45.9112 77.8043 53.4744C77.0267 55.9996 76.5274 58.6271 76.5192 61.2791V51.1662H66.2876Z" fill="white"/>
<path d="M270.956 71.6249H270.939V81.8566V92.0882H281.171V81.8566V71.6249C281.175 71.6249 281.183 71.6249 281.183 71.6249C281.183 67.5977 281.322 65.49 281.76 62.4655C282.55 56.9937 284.277 50.2121 290.101 48.3459C295.201 46.6597 298.565 49.5696 301.397 53.6581C303.357 56.4984 304.945 59.6416 306.627 62.6825C309.967 68.7355 314.141 75.3247 321.173 77.3669C322.867 77.8785 324.639 78.075 326.399 78.1077V77.7926C306.304 77.7189 308.15 49.1808 295.422 44.2082C291.407 42.6939 286.786 43.2996 283.103 45.5219C274.512 50.7032 270.653 62.0153 270.956 71.6249ZM278.359 71.6249H272.396C273.96 71.6208 276.436 71.6249 278.359 71.6249Z" fill="white"/>
<path d="M306.623 244.286C304.941 247.323 303.353 250.47 301.393 253.31C298.56 257.399 295.2 260.309 290.097 258.623C284.277 256.756 282.546 249.975 281.756 244.503C281.318 241.478 281.179 239.371 281.179 235.344C281.179 235.344 281.171 235.344 281.167 235.344V225.136H270.935V235.368H270.947C270.653 244.974 274.512 256.269 283.09 261.442C286.778 263.665 291.394 264.275 295.409 262.756C308.137 257.78 306.292 229.245 326.386 229.172V228.857C324.627 228.885 322.855 229.086 321.16 229.597C314.137 231.644 309.963 238.233 306.623 244.286Z" fill="white"/>
<path d="M313.608 177.011C314.844 176.155 315.916 175.083 316.714 173.737C318.4 170.815 318.265 167.07 317.083 164.119C315.589 160.346 313.08 157.329 311.365 153.736C311.324 153.654 311.283 153.568 311.246 153.486C311.287 153.404 311.324 153.318 311.365 153.237C313.076 149.643 315.585 146.627 317.083 142.853C318.265 139.903 318.396 136.158 316.714 133.236C315.916 131.889 314.844 130.817 313.608 129.962C317.193 128.304 320.651 125.967 323.095 123.106C326.152 119.533 327.376 114.79 326.901 110.153C326.512 105.393 324.38 101.202 320.713 98.1821C316.796 94.8711 311.881 93.0949 307.301 91.1836C301.67 88.8017 294.196 85.9409 293.505 78.9589L293.1 79.0039C293.456 82.3803 295.588 85.282 298.24 87.2792C306.376 93.7497 321.916 96.7742 322.215 109.191C322.436 116.62 316.641 120.471 309.941 121.965C308.324 122.325 306.679 122.578 305.026 122.713C303.528 122.836 302.042 122.795 300.54 122.795C298.747 122.795 296.959 122.795 295.166 122.795C293.918 122.795 292.67 122.795 291.422 122.795V133.027C292.637 133.027 293.853 133.027 295.068 133.027C298.26 133.027 300.495 133.027 302.374 132.912C302.39 132.912 302.41 132.908 302.427 132.908C302.742 132.888 303.045 132.867 303.344 132.839C309.2 132.425 315.282 132.573 315.785 139.682C315.937 142.518 314.746 145.154 313.469 147.707C312.585 149.381 311.709 151.108 310.976 152.885C309.523 149.619 308.926 145.956 309.528 142.411L309.356 142.387C309.221 143.361 309.126 144.339 309.118 145.321C309.028 148.158 309.716 150.875 310.735 153.482C309.712 156.089 309.028 158.807 309.118 161.643C309.126 162.625 309.221 163.603 309.356 164.577L309.528 164.553C308.926 161.009 309.519 157.346 310.976 154.08C311.709 155.856 312.589 157.579 313.469 159.257C314.746 161.807 315.937 164.446 315.785 167.283C315.282 174.392 309.196 174.539 303.344 174.125C303.045 174.101 302.742 174.076 302.427 174.056C302.41 174.056 302.39 174.052 302.374 174.052C300.495 173.937 298.256 173.937 295.068 173.937C293.853 173.937 292.637 173.937 291.422 173.937V184.169C292.674 184.169 293.918 184.169 295.166 184.169C296.959 184.169 298.747 184.169 300.54 184.169C302.042 184.169 303.528 184.128 305.026 184.251C306.679 184.386 308.32 184.64 309.941 185C316.637 186.494 322.436 190.345 322.215 197.773C321.92 210.19 306.376 213.219 298.24 219.685C295.588 221.682 293.456 224.584 293.1 227.96L293.505 228.005C294.196 221.023 301.67 218.163 307.301 215.781C311.881 213.873 316.796 212.097 320.713 208.782C324.38 205.762 326.512 201.575 326.901 196.811C327.376 192.174 326.152 187.431 323.095 183.858C320.651 181.005 317.193 178.668 313.608 177.011Z" fill="white"/>
<path d="M199.018 249.354C202.591 252.411 207.334 253.635 211.971 253.16C216.731 252.772 220.922 250.639 223.942 246.972C227.253 243.056 229.029 238.14 230.941 233.561C233.322 227.929 236.183 220.456 243.165 219.764L243.12 219.359C239.744 219.715 236.842 221.847 234.845 224.499C228.374 232.636 225.35 248.175 212.933 248.474C205.505 248.695 201.653 242.9 200.16 236.2C199.799 234.58 199.546 232.938 199.411 231.285C199.288 229.787 199.329 228.302 199.329 226.8C199.329 225.007 199.329 223.218 199.329 221.426C199.329 220.178 199.329 218.929 199.329 217.681H199.312V214.886H209.544V204.654H199.312H189.081V214.886V225.117H189.126C189.199 228.731 189.486 232.308 190.591 235.816C192.13 240.698 195.081 245.986 199.018 249.354Z" fill="white"/>
</svg>
