<svg width="490" height="366" viewBox="0 0 490 366" fill="none" xmlns="http://www.w3.org/2000/svg">
<path d="M475.267 90.2987V79H461.021V90.2987V92.2566V105.517H475.267V118.694H489.517V105.434H475.267V92.2566V90.2987Z" fill="white"/>
<path d="M14.2511 90.2987V79H28.4971V90.2987V92.2566V105.517H14.2511V118.694H0.00135948V105.434H14.2511V92.2566V90.2987Z" fill="white"/>
<path d="M447.263 52.0261C446.992 52.4128 446.502 53.0897 446.227 53.4833C444.116 56.7085 443.002 60.4794 443.036 64.2536C443.259 80.4972 443.374 97.093 443.144 113.319C443.144 113.319 443.144 113.333 443.144 113.34V252.132H443.886V113.34C443.667 98.2256 443.756 82.721 443.949 67.5894C443.986 65.1342 443.893 62.5064 444.62 60.1271C445.196 58.0553 446.268 56.0939 447.641 54.3811C447.942 54.0565 448.454 53.4868 448.754 53.1691C449.077 52.8859 449.66 52.3507 449.983 52.0675C450.565 51.6359 451.281 51.0868 451.923 50.7277C454.272 49.2808 457.059 48.4383 459.853 48.2138C460.392 48.2173 461.149 48.1206 461.679 48.1689L462.585 48.2207C463.112 48.2069 463.839 48.3761 464.366 48.4521C464.885 48.5039 465.572 48.7629 466.077 48.901C469.517 50.0371 472.211 52.6787 473.988 55.4171C475.254 57.3301 475.884 59.5746 476.126 61.7916C476.241 63.9291 475.992 66.0631 475.929 68.1971C475.792 72.0094 475.706 75.8217 475.907 79.6339H489.841C490.101 74.5095 489.897 69.3816 489.622 64.264C489.607 63.9947 489.533 63.4249 489.518 63.1555C488.828 54.5676 482.096 46.5563 473.064 44.3774C469.22 43.4001 465.175 43.2758 461.271 43.8491C457.126 44.5155 453.397 46.2732 450.35 48.8492C449.2 49.7746 448.198 50.9107 447.259 52.0192L447.263 52.0261Z" fill="white"/>
<path d="M42.7416 52.0261C43.0125 52.4128 43.5023 53.0897 43.7769 53.4833C45.8884 56.7085 47.0017 60.4794 46.9683 64.2536C46.7456 80.4972 46.6306 97.093 46.8606 113.319C46.8606 113.319 46.8606 113.333 46.8606 113.34V252.132H46.1185V113.34C46.3374 98.2256 46.2484 82.721 46.0554 67.5894C46.0183 65.1342 46.111 62.5064 45.3837 60.1271C44.8085 58.0553 43.7361 56.0939 42.3631 54.3811C42.0625 54.0565 41.5504 53.4868 41.2498 53.1691C40.927 52.8859 40.3444 52.3507 40.0215 52.0675C39.4389 51.6359 38.7228 51.0868 38.0808 50.7277C35.7318 49.2808 32.9449 48.4383 30.1507 48.2138C29.6126 48.2173 28.8556 48.1206 28.3249 48.1689L27.4194 48.2207C26.8925 48.2069 26.1652 48.3761 25.6382 48.4521C25.1187 48.5039 24.4322 48.7629 23.9275 48.901C20.4876 50.0371 17.7935 52.6787 16.016 55.4171C14.7506 57.3301 14.1197 59.5746 13.8785 61.7916C13.7635 63.9291 14.0121 66.0631 14.0752 68.1971C14.2125 72.0094 14.2979 75.8217 14.0975 79.6339H0.163177C-0.0965832 74.5095 0.107501 69.3816 0.382105 64.264C0.396949 63.9947 0.471177 63.4249 0.48602 63.1555C1.17624 54.5676 7.90773 46.5563 16.94 44.3774C20.7844 43.4001 24.8293 43.2758 28.7331 43.8491C32.8781 44.5155 36.6076 46.2732 39.6542 48.8492C40.8045 49.7746 41.8065 50.9107 42.7453 52.0192L42.7416 52.0261Z" fill="white"/>
<path d="M461.504 271.863V285.123H475.75V271.95H490V258.689H475.75V271.863H461.504Z" fill="white"/>
<path d="M28.5037 271.863V285.123H14.2577V271.95H0.00795128V258.689H14.2577V271.863H28.5037Z" fill="white"/>
<path d="M475.906 285.117C475.706 288.929 475.791 292.742 475.928 296.554C475.991 298.688 476.24 300.822 476.125 302.96C475.884 305.176 475.253 307.421 473.987 309.334C472.206 312.076 469.516 314.714 466.076 315.85C465.575 315.995 464.885 316.247 464.365 316.299C463.842 316.378 463.111 316.544 462.584 316.53L461.678 316.582C461.148 316.63 460.395 316.523 459.853 316.537C457.058 316.313 454.272 315.47 451.923 314.023C451.281 313.668 450.568 313.115 449.982 312.684C449.663 312.4 449.076 311.869 448.754 311.582C448.46 311.261 447.941 310.701 447.64 310.37C446.687 309.154 445.803 307.797 445.243 306.378C444.416 304.52 444.089 302.504 443.989 300.501C443.766 284.25 443.636 267.648 443.892 251.415H443.132C443.328 264.025 443.291 276.913 443.172 289.541C443.158 290.967 443.061 297.783 443.054 299.071C442.968 301.658 443.158 304.303 444.041 306.772C444.315 307.659 444.809 308.685 445.199 309.531C445.533 310.114 445.867 310.701 446.226 311.271C446.431 311.551 446.909 312.248 447.113 312.521C447.291 312.801 447.893 313.443 448.104 313.706C448.78 314.483 449.544 315.232 450.353 315.898C453.4 318.474 457.129 320.232 461.274 320.899C465.178 321.472 469.223 321.347 473.067 320.37C482.099 318.195 488.831 310.18 489.521 301.592C489.554 301.312 489.595 300.753 489.625 300.484C489.9 295.366 490.104 290.238 489.844 285.114H475.91L475.906 285.117Z" fill="white"/>
<path d="M14.0982 285.117C14.2986 288.929 14.2132 292.742 14.0759 296.554C14.0129 298.688 13.7642 300.822 13.8793 302.96C14.1205 305.176 14.7513 307.421 16.0167 309.334C17.7979 312.076 20.4883 314.714 23.9283 315.85C24.4293 315.995 25.1195 316.247 25.639 316.299C26.1622 316.378 26.8932 316.544 27.4202 316.53L28.3257 316.582C28.8563 316.63 29.6096 316.523 30.1514 316.537C32.9457 316.313 35.7325 315.47 38.0815 314.023C38.7235 313.668 39.436 313.115 40.0223 312.684C40.3414 312.4 40.9277 311.869 41.2506 311.582C41.5437 311.261 42.0632 310.701 42.3638 310.37C43.3175 309.154 44.2007 307.797 44.7611 306.378C45.5886 304.52 45.9152 302.504 46.0153 300.501C46.238 284.25 46.3679 267.648 46.1118 251.415H46.8725C46.6759 264.025 46.713 276.913 46.8317 289.541C46.8466 290.967 46.943 297.783 46.9504 299.071C47.0358 301.658 46.8466 304.303 45.9634 306.772C45.6888 307.659 45.1952 308.685 44.8056 309.531C44.4716 310.114 44.1376 310.701 43.7777 311.271C43.5736 311.551 43.0949 312.248 42.8908 312.521C42.7127 312.801 42.1115 313.443 41.9 313.706C41.2246 314.483 40.4602 315.232 39.6512 315.898C36.6046 318.474 32.8752 320.232 28.7301 320.899C24.8263 321.472 20.7815 321.347 16.937 320.37C7.90476 318.195 1.17328 310.18 0.483056 301.592C0.449658 301.312 0.408828 300.753 0.379141 300.484C0.104537 295.366 -0.0995474 290.238 0.160213 285.114H14.0945L14.0982 285.117Z" fill="white"/>
<path d="M29.019 339.005H43.2688V352.265H57.4294V365.525H43.1797V352.265H29.019V339.005Z" fill="white"/>
<path d="M4.36564 328.095C5.12013 327.028 6.04636 326.1 6.95007 325.229C7.26538 324.978 7.81718 324.524 8.13812 324.269C10.7676 322.312 13.8419 321.28 16.919 321.311C30.1678 321.517 43.7037 321.627 56.9384 321.418V321.411H406.673V322.099H56.9384V322.092C44.6158 321.896 31.9752 321.978 19.6386 322.161C17.6369 322.195 15.4945 322.109 13.5547 322.783C11.8656 323.316 10.2665 324.311 8.8701 325.584C8.60546 325.862 8.14094 326.337 7.88193 326.616C7.65108 326.915 7.21471 327.455 6.98385 327.754C6.63194 328.294 6.18431 328.958 5.89152 329.553C4.71192 331.731 4.02499 334.315 3.84199 336.905C3.80539 337.768 3.77724 338.563 3.84762 339.44C3.83636 339.929 3.97431 340.603 4.03625 341.092C4.07848 341.573 4.28962 342.21 4.40223 342.677C5.32846 345.866 7.48216 348.364 9.71468 350.012C11.2744 351.185 13.1043 351.77 14.9117 351.993C16.6544 352.1 18.3942 351.869 20.1341 351.811C23.2422 351.68 26.3502 351.604 29.4583 351.79V364.704C25.2804 364.945 21.0997 364.756 16.9275 364.501C16.7079 364.488 16.2433 364.419 16.0238 364.405C9.02212 363.765 2.49065 357.525 0.714204 349.152C-0.0825233 345.588 -0.183873 341.838 0.283465 338.219C0.826816 334.376 2.2598 330.919 4.36 328.095H4.36564Z" fill="white"/>
<path d="M428.607 338.295H442.857V351.555H428.7V364.815H414.45V351.555H428.607V338.295Z" fill="white"/>
<path d="M455.152 351.726C457.446 351.784 459.739 352.016 462.036 351.909C464.418 351.684 466.83 351.097 468.886 349.92C471.833 348.262 474.668 345.759 475.889 342.558C476.045 342.091 476.315 341.449 476.371 340.966C476.456 340.479 476.635 339.799 476.62 339.308L476.675 338.466C476.727 337.972 476.616 337.271 476.627 336.767C476.386 334.167 475.48 331.573 473.926 329.387C473.543 328.79 472.95 328.127 472.486 327.581C472.182 327.284 471.61 326.739 471.302 326.438C470.957 326.166 470.356 325.679 470 325.402C468.693 324.515 467.235 323.693 465.71 323.172C463.713 322.402 461.546 322.098 459.394 322.005C441.931 321.797 424.089 321.68 406.644 321.915V321.2C420.196 321.383 434.045 321.352 447.616 321.238C449.148 321.224 456.473 321.134 457.858 321.127C460.637 321.048 463.48 321.224 466.133 322.046C467.087 322.302 468.189 322.761 469.098 323.123C469.725 323.434 470.356 323.745 470.968 324.08C471.269 324.27 472.018 324.715 472.311 324.905C472.612 325.071 473.302 325.63 473.584 325.827C474.419 326.456 475.224 327.167 475.941 327.92C478.709 330.755 480.598 334.225 481.314 338.082C481.93 341.715 481.796 345.479 480.746 349.056C478.408 357.461 469.795 363.725 460.567 364.368C460.266 364.399 459.665 364.437 459.375 364.464C453.876 364.72 448.365 364.91 442.858 364.668V351.702C446.955 351.515 451.052 351.594 455.149 351.722L455.152 351.726Z" fill="white"/>
<path d="M30.0918 26.5201H44.3415V13.26H58.5022V0H44.2524V13.26H30.0918V26.5201Z" fill="white"/>
<path d="M5.84806 36.7206C6.60256 37.7871 7.52879 38.7159 8.43249 39.5862C8.74781 39.8374 9.2996 40.2915 9.62055 40.546C12.25 42.5034 15.3243 43.5355 18.4014 43.5045C31.6502 43.2981 45.1861 43.188 58.4208 43.3979V43.4047H408.156V42.7167H58.4208V42.7236C46.0983 42.9197 33.4576 42.8371 21.121 42.6548C19.1193 42.6204 16.9769 42.7064 15.0372 42.0321C13.348 41.4989 11.7489 40.5047 10.3525 39.2319C10.0879 38.9533 9.62336 38.4785 9.36435 38.1999C9.1335 37.9006 8.69713 37.3605 8.46628 37.0612C8.11436 36.5211 7.66673 35.8572 7.37394 35.262C6.19434 33.0844 5.50741 30.5009 5.32441 27.9105C5.28781 27.0471 5.25966 26.2524 5.33004 25.3752C5.31878 24.8867 5.45673 24.2124 5.51867 23.7239C5.5609 23.2423 5.77204 22.6059 5.88466 22.138C6.81089 18.9491 8.96458 16.4515 11.1971 14.8037C12.7568 13.6307 14.5867 13.0458 16.3941 12.8222C18.1368 12.7156 19.8766 12.9461 21.6165 13.0046C24.7246 13.1353 27.8327 13.211 30.9407 13.0252V0.111045C26.7628 -0.129763 22.5821 0.059443 18.4099 0.314011C18.1903 0.327771 17.7258 0.396573 17.5062 0.410334C10.5045 1.05019 3.97307 7.29054 2.19663 15.6638C1.3999 19.2277 1.29855 22.9774 1.76589 26.5964C2.30924 30.439 3.74222 33.8963 5.84243 36.7206H5.84806Z" fill="white"/>
<path d="M430.09 26.5201H444.339V13.26H430.182V0H415.933V13.26H430.09V26.5201Z" fill="white"/>
<path d="M456.635 13.0897C458.928 13.031 461.221 12.7997 463.518 12.9067C465.901 13.1312 468.313 13.7182 470.369 14.8957C473.315 16.5532 476.15 19.0567 477.371 22.2578C477.527 22.724 477.798 23.3663 477.853 23.8497C477.939 24.3366 478.117 25.0169 478.102 25.5072L478.158 26.3498C478.21 26.8436 478.098 27.5445 478.11 28.0487C477.868 30.6489 476.963 33.2422 475.408 35.4281C475.026 36.0255 474.432 36.6885 473.968 37.2341C473.664 37.531 473.092 38.0766 472.784 38.377C472.439 38.6498 471.838 39.1367 471.482 39.413C470.176 40.3004 468.717 41.1223 467.192 41.6437C465.196 42.4138 463.029 42.7176 460.876 42.8109C443.413 43.0181 425.571 43.1355 408.126 42.9006V43.6154C421.679 43.4324 435.527 43.4635 449.098 43.5775C450.631 43.5913 457.956 43.6811 459.34 43.688C462.119 43.7674 464.962 43.5913 467.615 42.7694C468.569 42.5139 469.671 42.0546 470.58 41.6921C471.207 41.3813 471.838 41.0705 472.451 40.7355C472.751 40.5456 473.501 40.1002 473.794 39.9102C474.094 39.7445 474.785 39.1851 475.067 38.9882C475.902 38.3598 476.707 37.6484 477.423 36.8956C480.191 34.0606 482.08 30.5902 482.796 26.7331C483.412 23.1004 483.279 19.3364 482.229 15.759C479.891 7.35405 471.278 1.09006 462.049 0.447777C461.748 0.416699 461.147 0.378714 460.858 0.351089C455.358 0.0955569 449.848 -0.0943656 444.341 0.147354V13.1139C448.438 13.3004 452.534 13.2209 456.631 13.0932L456.635 13.0897Z" fill="white"/>
</svg>
