<svg width="449" height="45" viewBox="0 0 449 45" fill="none" xmlns="http://www.w3.org/2000/svg">
<path d="M27 17.8959H40.2601V31.156H53.4372V44.416H40.1772V31.156H27V17.8959Z" fill="white"/>
<path d="M4.05903 6.9864C4.76113 5.91997 5.62303 4.99114 6.46397 4.1208C6.75739 3.86967 7.27086 3.41557 7.56952 3.16101C10.0164 1.20359 12.8772 0.171557 15.7406 0.202518C28.0692 0.408924 40.665 0.519007 52.9805 0.30916V0.302281H378.426V0.990302H52.9805V0.98342C41.5138 0.787334 29.7511 0.869899 18.2713 1.05222C16.4086 1.08663 14.415 1.00062 12.6099 1.67488C11.0381 2.2081 9.55006 3.20229 8.25065 4.47513C8.0044 4.75377 7.57213 5.22851 7.33112 5.50716C7.1163 5.80645 6.71023 6.34654 6.49541 6.64583C6.16794 7.18593 5.7514 7.84987 5.47894 8.44501C4.38126 10.6226 3.74204 13.2061 3.57175 15.7965C3.5377 16.66 3.5115 17.4546 3.57699 18.3319C3.56651 18.8204 3.69488 19.4946 3.75252 19.9831C3.79181 20.4647 3.9883 21.1011 4.09309 21.569C4.95499 24.758 6.95911 27.2555 9.03658 28.9033C10.4879 30.0764 12.1908 30.6612 13.8727 30.8848C15.4943 30.9914 17.1133 30.761 18.7323 30.7025C21.6246 30.5718 24.5168 30.4961 27.409 30.6818V43.596C23.5213 43.8368 19.6309 43.6476 15.7484 43.393C15.5441 43.3793 15.1118 43.3105 14.9075 43.2967C8.39212 42.6568 2.31427 36.4165 0.661194 28.0433C-0.0801997 24.4793 -0.174511 20.7296 0.26037 17.1106C0.765985 13.268 2.09944 9.81073 4.05379 6.9864H4.05903Z" fill="white"/>
<path d="M398.836 17.1869H412.096V30.447H398.923V43.707H385.663V30.447H398.836V17.1869Z" fill="white"/>
<path d="M423.538 30.6161C425.672 30.6748 427.806 30.9062 429.943 30.7991C432.16 30.5747 434.405 29.9876 436.318 28.8101C439.06 27.1526 441.698 24.6491 442.834 21.448C442.979 20.9818 443.231 20.3396 443.283 19.8561C443.362 19.3692 443.528 18.689 443.514 18.1986L443.566 17.3561C443.614 16.8623 443.511 16.1613 443.521 15.6571C443.297 13.0569 442.454 10.4636 441.007 8.27775C440.652 7.68036 440.099 7.01735 439.667 6.47176C439.384 6.17479 438.853 5.62919 438.566 5.32877C438.245 5.05597 437.685 4.56908 437.354 4.29283C436.138 3.40537 434.781 2.58353 433.362 2.0621C431.504 1.29205 429.488 0.988176 427.485 0.894942C411.234 0.687753 394.632 0.570348 378.398 0.805162V0.0903625C391.009 0.273379 403.896 0.242301 416.524 0.128347C417.951 0.114535 424.767 0.0247532 426.055 0.0178469C428.642 -0.0615753 431.287 0.114533 433.756 0.93638C434.643 1.19191 435.669 1.65118 436.515 2.01376C437.098 2.32454 437.685 2.63532 438.255 2.97028C438.535 3.1602 439.232 3.60566 439.505 3.79558C439.785 3.96133 440.427 4.52074 440.69 4.71756C441.467 5.34604 442.216 6.05738 442.882 6.81017C445.458 9.64519 447.216 13.1156 447.882 16.9728C448.456 20.6055 448.331 24.3694 447.354 27.9468C445.179 36.3518 437.164 42.6158 428.576 43.258C428.296 43.2891 427.737 43.3271 427.468 43.3547C422.35 43.6103 417.222 43.8002 412.098 43.5585V30.5919C415.91 30.4055 419.722 30.4849 423.534 30.6126L423.538 30.6161Z" fill="white"/>
</svg>
