<svg width="44" height="278" viewBox="0 0 44 278" fill="none" xmlns="http://www.w3.org/2000/svg">
<path d="M29.9934 46.7928V35.4941H16.7368V46.7928V48.7507V62.0108H29.9934V75.188H43.2535V61.9279H29.9934V48.7507V46.7928Z" fill="white"/>
<path d="M3.93381 8.52023C3.68173 8.90698 3.2259 9.58379 2.97037 9.97745C1.00553 13.2027 -0.0303989 16.9735 0.000679326 20.7478C0.207868 36.9913 0.314928 53.5871 0.100834 69.8134C0.100834 69.8134 0.100834 69.8272 0.100834 69.8341V208.626H0.791461V69.8341C0.587726 54.7198 0.670575 39.2152 0.850138 24.0835C0.884669 21.6283 0.798361 19.0005 1.47518 16.6213C2.01041 14.5494 3.00837 12.588 4.28603 10.8753C4.56574 10.5507 5.04227 9.9809 5.32198 9.66321C5.6224 9.38006 6.16452 8.84482 6.46494 8.56166C7.00709 8.13002 7.67353 7.58097 8.27093 7.22185C10.4568 5.77498 13.0501 4.93242 15.6503 4.70796C16.151 4.71142 16.8554 4.61473 17.3492 4.66307L18.1918 4.71487C18.6822 4.70105 19.359 4.87026 19.8493 4.94623C20.3327 4.99803 20.9716 5.25701 21.4412 5.39514C24.6423 6.53122 27.1493 9.17287 28.8033 11.9112C29.9808 13.8242 30.5679 16.0688 30.7923 18.2857C30.8994 20.4232 30.668 22.5572 30.6093 24.6913C30.4815 28.5035 30.4021 32.3158 30.5886 36.1281H43.5551C43.7968 31.0036 43.6069 25.8757 43.3514 20.7581C43.3376 20.4888 43.2685 19.919 43.2547 19.6497C42.6124 11.0617 36.3484 3.05046 27.9435 0.871526C24.366 -0.105712 20.6021 -0.230025 16.9694 0.343196C13.1122 1.00965 9.64183 2.7673 6.8068 5.34334C5.73633 6.26878 4.804 7.40486 3.93035 8.51332L3.93381 8.52023Z" fill="white"/>
<path d="M17.1865 228.357V241.617H30.4431V228.444H43.7032V215.184H30.4431V228.357H17.1865Z" fill="white"/>
<path d="M30.5879 241.611C30.4014 245.423 30.4808 249.235 30.6086 253.048C30.6673 255.182 30.8987 257.316 30.7916 259.453C30.5672 261.67 29.9801 263.915 28.8026 265.828C27.1451 268.569 24.6416 271.208 21.4405 272.344C20.9743 272.489 20.332 272.741 19.8486 272.793C19.3617 272.872 18.6815 273.038 18.1911 273.024L17.3485 273.076C16.8547 273.124 16.1537 273.017 15.6496 273.031C13.0494 272.806 10.4561 271.964 8.27023 270.517C7.67284 270.161 7.00984 269.609 6.46424 269.177C6.16727 268.894 5.6217 268.362 5.32128 268.076C5.04848 267.755 4.56504 267.195 4.28534 266.864C3.39788 265.648 2.576 264.291 2.05458 262.872C1.28453 261.014 0.980653 258.997 0.887418 256.995C0.68023 240.744 0.559367 224.141 0.797633 207.908H0.0897654C0.272782 220.519 0.238245 233.406 0.127745 246.034C0.113932 247.46 0.0241693 254.277 0.017263 255.565C-0.0621591 258.151 0.11392 260.796 0.935767 263.265C1.1913 264.153 1.65057 265.178 2.01314 266.025C2.32393 266.608 2.63472 267.195 2.96967 267.765C3.15959 268.045 3.60505 268.742 3.79498 269.015C3.96073 269.295 4.52015 269.937 4.71698 270.199C5.34545 270.976 6.05677 271.726 6.80956 272.392C9.64458 274.968 13.115 276.726 16.9722 277.392C20.6049 277.965 24.3688 277.841 27.9462 276.864C36.3512 274.688 42.6152 266.674 43.2574 258.086C43.2885 257.806 43.3265 257.247 43.3541 256.977C43.6097 251.86 43.7996 246.732 43.5579 241.607H30.5913L30.5879 241.611Z" fill="white"/>
</svg>
