<svg width="449" height="44" viewBox="0 0 449 44" fill="none" xmlns="http://www.w3.org/2000/svg">
<path d="M26.6191 26.5201H39.8792V13.26H53.0564V0H39.7963V13.26H26.6191V26.5201Z" fill="white"/>
<path d="M4.05903 36.7206C4.76113 37.7871 5.62303 38.7159 6.46397 39.5862C6.75739 39.8374 7.27086 40.2915 7.56952 40.546C10.0164 42.5034 12.8772 43.5355 15.7406 43.5045C28.0692 43.2981 40.665 43.188 52.9805 43.3979V43.4047H378.426V42.7167H52.9805V42.7236C41.5138 42.9197 29.7511 42.8371 18.2713 42.6548C16.4086 42.6204 14.415 42.7064 12.6099 42.0321C11.0381 41.4989 9.55006 40.5047 8.25065 39.2319C8.0044 38.9533 7.57213 38.4785 7.33112 38.1999C7.1163 37.9006 6.71023 37.3605 6.49541 37.0612C6.16794 36.5211 5.7514 35.8572 5.47894 35.262C4.38126 33.0844 3.74204 30.5009 3.57175 27.9105C3.5377 27.0471 3.5115 26.2524 3.57699 25.3752C3.56651 24.8867 3.69488 24.2124 3.75252 23.7239C3.79181 23.2423 3.9883 22.6059 4.09309 22.138C4.95499 18.9491 6.95911 16.4515 9.03658 14.8037C10.4879 13.6307 12.1908 13.0458 13.8727 12.8222C15.4943 12.7156 17.1133 12.9461 18.7323 13.0046C21.6246 13.1353 24.5168 13.211 27.409 13.0252V0.111045C23.5213 -0.129763 19.6309 0.059443 15.7484 0.314011C15.5441 0.327771 15.1118 0.396573 14.9075 0.410334C8.39212 1.05019 2.31427 7.29054 0.661194 15.6638C-0.0801997 19.2277 -0.174511 22.9774 0.26037 26.5964C0.765985 30.439 2.09944 33.8963 4.05379 36.7206H4.05903Z" fill="white"/>
<path d="M398.836 26.5201H412.096V13.26H398.923V0H385.663V13.26H398.836V26.5201Z" fill="white"/>
<path d="M423.538 13.089C425.672 13.0303 427.806 12.7989 429.943 12.906C432.16 13.1304 434.405 13.7175 436.318 14.895C439.06 16.5525 441.698 19.056 442.834 22.2571C442.979 22.7232 443.231 23.3655 443.283 23.849C443.362 24.3358 443.528 25.0161 443.514 25.5065L443.566 26.349C443.614 26.8428 443.511 27.5438 443.521 28.048C443.297 30.6482 442.454 33.2415 441.007 35.4273C440.652 36.0247 440.099 36.6877 439.667 37.2333C439.384 37.5303 438.853 38.0759 438.566 38.3763C438.245 38.6491 437.685 39.136 437.354 39.4122C436.138 40.2997 434.781 41.1216 433.362 41.643C431.504 42.413 429.488 42.7169 427.485 42.8101C411.234 43.0173 394.632 43.1347 378.398 42.8999V43.6147C391.009 43.4317 403.896 43.4628 416.524 43.5767C417.951 43.5905 424.767 43.6803 426.055 43.6872C428.642 43.7667 431.287 43.5905 433.756 42.7687C434.643 42.5132 435.669 42.0539 436.515 41.6913C437.098 41.3805 437.685 41.0698 438.255 40.7348C438.535 40.5449 439.232 40.0994 439.505 39.9095C439.785 39.7437 440.427 39.1843 440.69 38.9875C441.467 38.359 442.216 37.6477 442.882 36.8949C445.458 34.0599 447.216 30.5895 447.882 26.7323C448.456 23.0996 448.331 19.3357 447.354 15.7583C445.179 7.35332 437.164 1.08933 428.576 0.447044C428.296 0.415966 427.737 0.377982 427.468 0.350357C422.35 0.0948245 417.222 -0.0950981 412.098 0.146622V13.1132C415.91 13.2996 419.722 13.2202 423.534 13.0924L423.538 13.089Z" fill="white"/>
</svg>
