<svg width="188" height="283" viewBox="0 0 188 283" fill="none" xmlns="http://www.w3.org/2000/svg">
<path d="M21.9443 112.389H8.83228V125.501H21.9443V112.389Z" fill="white"/>
<path d="M179.302 112.389H166.19V125.501H179.302V112.389Z" fill="white"/>
<path d="M139.968 112.391H126.851V112.401H125.587C128.183 108.426 130.391 104.293 132.143 100.013C136.286 89.8907 137.881 78.9867 136.076 67.595C133.496 51.2784 124.889 36.4829 113.697 24.5142C116.041 24.3516 118.37 24.5667 120.599 25.2695C122.77 25.967 124.679 27.1314 126.405 28.5475C126.735 28.8569 127.674 29.738 128.01 30.0527C129.316 31.4741 130.59 33.0108 131.666 34.6157C132.117 35.2136 132.914 36.4094 133.302 37.0493C134.272 38.5126 135.557 40.7207 136.517 42.2312C140.104 48.0319 144.332 53.3816 150.18 57.247C158.178 62.7279 169.009 62.5705 175.423 55.0285C161.529 62.7121 151.024 52.768 144.033 41.3081C142.014 38.0615 140.288 34.6157 137.713 31.7416C137 31.0283 136.003 29.9111 135.232 29.2765C134.749 28.9146 133.664 27.9391 133.176 27.6244C132.694 27.3044 131.461 26.5072 130.958 26.1821C130.202 25.773 129.374 25.3691 128.603 24.9758C125.157 23.439 121.454 22.731 117.741 22.7362C115.973 22.7624 114.248 22.9617 112.553 23.3079C112.16 22.8988 111.762 22.495 111.363 22.0964C110.576 21.3044 109.774 20.5282 108.966 19.7624C107.188 18.0841 105.368 16.4634 103.49 14.911C103.501 14.9215 103.506 14.932 103.511 14.9424C100.7 12.3253 97.6635 9.84974 94.417 7.69413C104.503 1.93533 116.812 -0.765742 126.09 6.70286L126.814 7.25881C127.223 7.64168 128.409 8.75357 128.818 9.14169C129.227 9.60323 130.234 10.7414 130.643 11.1819C131.944 12.8026 133.239 14.6015 134.435 16.3218C136.91 20.1138 139.145 24.1156 141.694 27.8604C145.706 33.7136 150.358 39.0738 156.484 43.107C161.388 46.3483 167.356 48.3623 173.267 47.8431C178.953 47.3763 184.402 44.6438 188 40.3535C169.04 50.733 155.608 35.2923 146.855 19.9355C144.788 16.2746 142.438 12.6347 139.407 9.68715C138.961 9.26232 138.311 8.54903 137.828 8.17665C136.842 7.38468 135.416 6.13117 134.335 5.50179L132.489 4.31123L130.527 3.29374C126.022 1.00176 120.966 0.0104896 115.994 0C107.98 0.110141 100.559 3.08919 93.9554 7.40566C87.3784 3.12066 79.9833 0.173079 72.0059 0.0576932C67.0338 0.0681828 61.9778 1.06469 57.4726 3.35143L55.511 4.36892L53.6648 5.55949C52.5792 6.19411 51.1631 7.45287 50.1718 8.23434C49.6893 8.60672 49.0442 9.32526 48.5931 9.74485C45.5616 12.6924 43.2119 16.3323 41.1455 19.9932C32.4024 35.3447 18.9547 50.7907 0 40.4112C3.59794 44.7015 9.04729 47.4393 14.7327 47.9008C20.6383 48.4253 26.6174 46.406 31.516 43.1647C37.642 39.1367 42.2888 33.7713 46.3064 27.9181C48.8501 24.1733 51.0896 20.1663 53.5652 16.3795C54.761 14.6592 56.0565 12.8603 57.3572 11.2396C57.7663 10.799 58.768 9.66617 59.1824 9.19938C59.6124 8.79553 60.7768 7.70462 61.1859 7.3165L61.9097 6.76055C71.1615 -0.68707 83.4239 1.97729 93.4886 7.69937C90.2683 9.84974 87.2473 12.3148 84.4571 14.911C82.5794 16.4634 80.7542 18.0841 78.9815 19.7624C78.1686 20.5282 77.3713 21.3044 76.5846 22.0964C76.186 22.495 75.7874 22.9041 75.3941 23.3132C73.7 22.967 71.9744 22.7624 70.2069 22.7362C66.4936 22.731 62.7908 23.439 59.345 24.9758C58.5792 25.3639 57.7453 25.773 56.99 26.1821C56.497 26.502 55.2488 27.3044 54.7715 27.6244C54.2785 27.9496 53.2033 28.9146 52.7103 29.2765C51.9393 29.9164 50.948 31.0283 50.2295 31.7416C47.6543 34.621 45.9287 38.0668 43.9095 41.3081C36.9077 52.7732 26.4286 62.7121 12.5193 55.0285C18.939 62.5705 29.759 62.7279 37.7626 57.247C42.6717 54.0215 46.3955 49.726 49.6106 45.0424C51.3414 42.5458 52.9778 39.5825 54.6404 37.0493C55.0285 36.4042 55.8257 35.2136 56.2767 34.6157C57.3519 33.0108 58.6264 31.4741 59.9324 30.0527C60.2785 29.7276 61.2121 28.8569 61.5373 28.5475C63.2628 27.1314 65.1719 25.967 67.3433 25.2695C69.5723 24.5667 71.901 24.3516 74.2454 24.5142C63.6352 35.8587 55.3537 49.726 52.3169 65.0618C48.8029 82.8102 53.3187 97.7736 62.8904 112.401H61.275H48.163V125.513H61.275V138.625H74.387H87.4991V151.737V164.849V177.961V191.073V204.185V217.297V230.409V243.521H74.387V256.634H87.4991V269.746H74.387V282.858H87.4991H100.611V269.746H113.723V256.634H100.611V243.521H113.723V230.409H100.611V217.297V204.185H100.627V191.073V177.961V164.849V151.737V138.625H113.739H126.851V125.513V125.508H139.968V112.391ZM79.2595 23.3813C79.742 22.4687 80.2193 21.5876 80.6965 20.7537C80.749 20.6593 80.8067 20.5491 80.8591 20.4547C81.9658 18.5351 83.1773 16.7099 84.4413 14.9424C87.1739 12.4564 90.4204 10.0281 93.9554 7.96161C97.5166 10.0333 100.789 12.4774 103.538 14.9792C104.791 16.7414 105.997 18.5561 107.094 20.46C107.146 20.5544 107.204 20.6645 107.256 20.7589C107.734 21.5929 108.216 22.474 108.693 23.3866C108.835 23.6593 108.982 23.9373 109.123 24.2205C103.522 26.0667 98.4135 29.4443 93.9711 33.3465C89.5288 29.4443 84.4256 26.0667 78.8242 24.2205C78.971 23.932 79.1126 23.6541 79.2595 23.3813ZM69.1003 73.8678C65.5128 58.4324 71.6807 38.5126 78.3521 25.1541C84.0322 26.5282 89.5708 29.7643 93.8977 33.336C81.3417 43.8256 71.5182 58.0495 69.1003 73.8678ZM98.5341 90.1844C97.1233 91.333 95.5865 92.2404 93.9711 92.9799C92.3557 92.2404 90.819 91.333 89.4082 90.1844C74.7752 78.2472 83.6913 50.7645 91.4274 37.3378C92.2141 35.9741 93.0743 34.6734 93.9659 33.4094C93.9764 33.4094 93.9764 33.4094 93.9711 33.4042C93.9764 33.4042 93.9764 33.4042 93.9764 33.4042C93.9764 33.4042 93.9764 33.4042 93.9764 33.4094C94.868 34.6734 95.7282 35.9741 96.5149 37.3378C104.256 50.7645 113.167 78.2472 98.5341 90.1844ZM94.0551 33.336C98.382 29.759 103.926 26.5282 109.606 25.1541C116.272 38.5074 122.44 58.4324 118.858 73.8678C116.44 58.0547 106.616 43.8256 94.0551 33.336Z" fill="white"/>
<path d="M166.19 112.391V99.2793H153.078H139.966V112.391H153.078H166.19Z" fill="white"/>
<path d="M48.1735 112.391V99.2793H35.0615H21.9495V112.391H35.0615H48.1735Z" fill="white"/>
</svg>
