<svg width="385" height="246" viewBox="0 0 385 246" fill="none" xmlns="http://www.w3.org/2000/svg">
<path d="M374.718 60.771V53.167H365.149V60.771V62.0887V71.0128H374.718V79.8811H384.289V70.957H374.718V62.0887V60.771Z" fill="white"/>
<path d="M355.582 35.0139C355.4 35.2742 355.071 35.7297 354.886 35.9947C353.468 38.1653 352.72 40.703 352.743 43.2431C352.892 54.1751 352.97 65.3442 352.815 76.2646C352.815 76.2646 352.815 76.2739 352.815 76.2785V169.686H353.314V76.2785C353.167 66.1064 353.226 55.6718 353.356 45.4881C353.381 43.8358 353.319 42.0672 353.807 40.466C354.194 39.0716 354.914 37.7516 355.836 36.5989C356.038 36.3804 356.382 35.997 356.584 35.7832C356.801 35.5926 357.192 35.2324 357.409 35.0418C357.8 34.7513 358.281 34.3818 358.712 34.1401C360.29 33.1664 362.162 32.5993 364.039 32.4483C364.4 32.4506 364.909 32.3855 365.265 32.4181L365.873 32.4529C366.227 32.4436 366.716 32.5575 367.07 32.6086C367.418 32.6435 367.88 32.8178 368.219 32.9107C370.529 33.6753 372.339 35.4532 373.532 37.2961C374.382 38.5836 374.806 40.0942 374.968 41.5861C375.045 43.0247 374.878 44.4609 374.836 45.8971C374.744 48.4628 374.686 51.0285 374.821 53.5941H384.18C384.355 50.1454 384.218 46.6943 384.033 43.2501C384.023 43.0688 383.973 42.6854 383.963 42.5041C383.5 36.7244 378.978 31.3328 372.912 29.8663C370.33 29.2086 367.613 29.125 364.991 29.5108C362.207 29.9593 359.702 31.1422 357.656 32.8759C356.883 33.4987 356.21 34.2633 355.579 35.0093L355.582 35.0139Z" fill="white"/>
<path d="M365.145 182.965V191.889H374.714V183.023H384.285V174.099H374.714V182.965H365.145Z" fill="white"/>
<path d="M374.821 191.885C374.686 194.451 374.743 197.017 374.835 199.582C374.878 201.019 375.045 202.455 374.968 203.893C374.806 205.385 374.382 206.896 373.532 208.183C372.336 210.029 370.529 211.804 368.218 212.569C367.882 212.666 367.418 212.836 367.069 212.871C366.718 212.924 366.227 213.036 365.873 213.027L365.264 213.061C364.908 213.094 364.402 213.022 364.038 213.031C362.161 212.88 360.29 212.313 358.712 211.339C358.281 211.1 357.802 210.728 357.408 210.438C357.194 210.247 356.8 209.889 356.583 209.696C356.386 209.48 356.037 209.104 355.836 208.881C355.195 208.063 354.602 207.149 354.225 206.194C353.67 204.944 353.45 203.587 353.383 202.239C353.233 191.302 353.146 180.128 353.318 169.203H352.807C352.939 177.691 352.914 186.364 352.835 194.862C352.825 195.822 352.76 200.41 352.755 201.277C352.698 203.017 352.825 204.797 353.418 206.459C353.602 207.056 353.934 207.747 354.196 208.316C354.42 208.709 354.644 209.104 354.886 209.487C355.023 209.675 355.345 210.145 355.482 210.328C355.601 210.517 356.005 210.949 356.147 211.126C356.601 211.648 357.114 212.153 357.658 212.601C359.704 214.335 362.209 215.518 364.993 215.966C367.615 216.352 370.332 216.269 372.914 215.611C378.98 214.147 383.502 208.753 383.965 202.973C383.988 202.785 384.015 202.408 384.035 202.227C384.22 198.783 384.357 195.332 384.182 191.883H374.823L374.821 191.885Z" fill="white"/>
<path d="M364.799 228.152H355.228V237.076H345.717V246H355.288V237.076H364.799V228.152Z" fill="white"/>
<path d="M381.357 220.81C380.851 220.092 380.228 219.467 379.621 218.881C379.41 218.712 379.039 218.406 378.823 218.235C377.057 216.918 374.992 216.223 372.926 216.244C364.027 216.383 354.935 216.457 346.046 216.316V216.311H111.142V216.774H346.046V216.77C354.323 216.638 362.813 216.693 371.099 216.816C372.444 216.839 373.882 216.781 375.185 217.235C376.32 217.594 377.394 218.263 378.332 219.119C378.51 219.307 378.822 219.626 378.996 219.814C379.151 220.015 379.444 220.379 379.599 220.58C379.835 220.944 380.136 221.391 380.332 221.791C381.125 223.257 381.586 224.995 381.709 226.739C381.734 227.32 381.753 227.855 381.705 228.445C381.713 228.774 381.62 229.228 381.579 229.556C381.55 229.881 381.408 230.309 381.333 230.624C380.711 232.77 379.264 234.451 377.765 235.56C376.717 236.349 375.488 236.743 374.274 236.893C373.103 236.965 371.935 236.81 370.766 236.771C368.679 236.683 366.591 236.632 364.503 236.757V245.448C367.31 245.61 370.118 245.483 372.92 245.311C373.068 245.302 373.38 245.256 373.527 245.247C378.23 244.816 382.617 240.616 383.81 234.981C384.345 232.582 384.413 230.059 384.099 227.623C383.734 225.037 382.772 222.71 381.361 220.81H381.357Z" fill="white"/>
<path d="M364.078 17.8482H354.507V8.92408H344.996V0H354.567V8.92408H364.078V17.8482Z" fill="white"/>
<path d="M380.362 24.7132C379.855 25.4309 379.233 26.056 378.626 26.6417C378.414 26.8107 378.043 27.1163 377.828 27.2877C376.062 28.605 373.997 29.2996 371.93 29.2787C363.031 29.1398 353.94 29.0657 345.051 29.207V29.2116H110.146V28.7486H345.051V28.7532C353.327 28.8852 361.817 28.8296 370.103 28.7069C371.448 28.6837 372.887 28.7416 374.19 28.2878C375.324 27.929 376.398 27.2599 377.336 26.4033C377.514 26.2157 377.826 25.8962 378 25.7087C378.155 25.5073 378.448 25.1438 378.603 24.9424C378.84 24.5789 379.14 24.132 379.337 23.7315C380.129 22.266 380.591 20.5273 380.713 18.7839C380.738 18.2028 380.757 17.668 380.71 17.0776C380.717 16.7489 380.625 16.2951 380.583 15.9663C380.555 15.6422 380.413 15.2139 380.337 14.899C379.715 12.7528 378.268 11.072 376.769 9.96298C375.721 9.1735 374.492 8.77991 373.278 8.62942C372.108 8.55765 370.939 8.71277 369.771 8.75213C367.683 8.84011 365.595 8.89104 363.508 8.76602V0.0747335C366.314 -0.0873309 369.122 0.0400054 371.924 0.211331C372.072 0.220592 372.384 0.266896 372.531 0.276157C377.234 0.706785 381.621 4.90657 382.814 10.5418C383.349 12.9403 383.417 15.4639 383.104 17.8995C382.739 20.4856 381.776 22.8124 380.366 24.7132H380.362Z" fill="white"/>
<path d="M9.57113 60.771V53.167H19.1396V60.771V62.0887V71.0128H9.57113V79.8811H0.000121797V70.957H9.57113V62.0887V60.771Z" fill="white"/>
<path d="M28.7072 35.0139C28.8892 35.2742 29.2182 35.7297 29.4026 35.9947C30.8208 38.1653 31.5686 40.703 31.5461 43.2431C31.3966 54.1751 31.3193 65.3442 31.4738 76.2646C31.4738 76.2646 31.4738 76.2739 31.4738 76.2785V169.686H30.9754V76.2785C31.1224 66.1064 31.0626 55.6718 30.933 45.4881C30.9081 43.8358 30.9704 42.0672 30.4819 40.466C30.0955 39.0716 29.3752 37.7516 28.453 36.5989C28.2511 36.3804 27.9072 35.997 27.7053 35.7832C27.4884 35.5926 27.0971 35.2324 26.8803 35.0418C26.489 34.7513 26.0079 34.3818 25.5767 34.1401C23.999 33.1664 22.1272 32.5993 20.2504 32.4483C19.889 32.4506 19.3805 32.3855 19.0241 32.4181L18.4159 32.4529C18.062 32.4436 17.5735 32.5575 17.2195 32.6086C16.8706 32.6435 16.4095 32.8178 16.0705 32.9107C13.76 33.6753 11.9505 35.4532 10.7566 37.2961C9.90669 38.5836 9.48297 40.0942 9.32096 41.5861C9.24369 43.0247 9.41069 44.4609 9.45306 45.8971C9.54529 48.4628 9.60263 51.0285 9.46803 53.5941H0.108874C-0.0655971 50.1454 0.0714791 46.6943 0.25592 43.2501C0.26589 43.0688 0.315746 42.6854 0.325716 42.5041C0.789312 36.7244 5.31061 31.3328 11.3772 29.8663C13.9594 29.2086 16.6762 29.125 19.2982 29.5108C22.0823 29.9593 24.5872 31.1422 26.6335 32.8759C27.4062 33.4987 28.0791 34.2633 28.7097 35.0093L28.7072 35.0139Z" fill="white"/>
<path d="M19.144 182.965V191.889H9.57553V183.023H0.00451633V174.099H9.57553V182.965H19.144Z" fill="white"/>
<path d="M9.46854 191.885C9.60313 194.451 9.54579 197.017 9.45357 199.582C9.4112 201.019 9.2442 202.455 9.32146 203.893C9.48347 205.385 9.90719 206.896 10.7571 208.183C11.9535 210.029 13.7605 211.804 16.071 212.569C16.4075 212.666 16.8711 212.836 17.2201 212.871C17.5715 212.924 18.0625 213.036 18.4164 213.027L19.0246 213.061C19.381 213.094 19.887 213.022 20.2509 213.031C22.1277 212.88 23.9995 212.313 25.5772 211.339C26.0084 211.1 26.487 210.728 26.8808 210.438C27.0951 210.247 27.4889 209.889 27.7058 209.696C27.9027 209.48 28.2516 209.104 28.4535 208.881C29.0941 208.063 29.6873 207.149 30.0636 206.194C30.6195 204.944 30.8388 203.587 30.9061 202.239C31.0556 191.302 31.1429 180.128 30.9709 169.203H31.4818C31.3497 177.691 31.3747 186.364 31.4544 194.862C31.4644 195.822 31.5292 200.41 31.5342 201.277C31.5915 203.017 31.4644 204.797 30.8712 206.459C30.6868 207.056 30.3553 207.747 30.0936 208.316C29.8692 208.709 29.6449 209.104 29.4031 209.487C29.2661 209.675 28.9445 210.145 28.8074 210.328C28.6878 210.517 28.284 210.949 28.142 211.126C27.6883 211.648 27.1749 212.153 26.6315 212.601C24.5852 214.335 22.0803 215.518 19.2963 215.966C16.6742 216.352 13.9574 216.269 11.3752 215.611C5.30862 214.147 0.787321 208.753 0.323725 202.973C0.301293 202.785 0.273869 202.408 0.253929 202.227C0.0694881 198.783 -0.0675881 195.332 0.106883 191.883H9.46604L9.46854 191.885Z" fill="white"/>
<path d="M19.4902 228.152H29.0612V237.076H38.5724V246H29.0014V237.076H19.4902V228.152Z" fill="white"/>
<path d="M2.93173 220.81C3.4385 220.092 4.06062 219.467 4.6676 218.881C4.87939 218.712 5.25001 218.406 5.46557 218.235C7.2317 216.918 9.29659 216.223 11.3634 216.244C20.2621 216.383 29.3537 216.457 38.2429 216.316V216.311H273.147V216.774H38.2429V216.77C29.9663 216.638 21.4761 216.693 13.19 216.816C11.8456 216.839 10.4066 216.781 9.10372 217.235C7.96916 217.594 6.89512 218.263 5.95722 219.119C5.77947 219.307 5.46746 219.626 5.2935 219.814C5.13844 220.015 4.84535 220.379 4.69029 220.58C4.45393 220.944 4.15327 221.391 3.95661 221.791C3.16432 223.257 2.70293 224.995 2.58002 226.739C2.55544 227.32 2.53653 227.855 2.5838 228.445C2.57624 228.774 2.66889 229.228 2.71049 229.556C2.73886 229.881 2.88068 230.309 2.95631 230.624C3.57843 232.77 5.02499 234.451 6.52449 235.56C7.57207 236.349 8.80117 236.743 10.0151 236.893C11.1856 236.965 12.3542 236.81 13.5228 236.771C15.6104 236.683 17.698 236.632 19.7856 236.757V245.448C16.9794 245.61 14.1714 245.483 11.3691 245.311C11.2216 245.302 10.9096 245.256 10.7621 245.247C6.05932 244.816 1.67237 240.616 0.479198 234.981C-0.0559345 232.582 -0.124008 230.059 0.189886 227.623C0.554835 225.037 1.51732 222.71 2.92795 220.81H2.93173Z" fill="white"/>
<path d="M20.2107 17.8482H29.7817V8.92408H39.2929V0H29.7219V8.92408H20.2107V17.8482Z" fill="white"/>
<path d="M3.92734 24.7132C4.43411 25.4309 5.05622 26.056 5.66321 26.6417C5.87499 26.8107 6.24561 27.1163 6.46118 27.2877C8.22731 28.605 10.2922 29.2996 12.359 29.2787C21.2577 29.1398 30.3493 29.0657 39.2385 29.207V29.2116H274.143V28.7486H39.2385V28.7532C30.9619 28.8852 22.4717 28.8296 14.1856 28.7069C12.8412 28.6837 11.4022 28.7416 10.0993 28.2878C8.96477 27.929 7.89072 27.2599 6.95282 26.4033C6.77507 26.2157 6.46307 25.8962 6.2891 25.7087C6.13405 25.5073 5.84095 25.1438 5.6859 24.9424C5.44953 24.5789 5.14888 24.132 4.95222 23.7315C4.15992 22.266 3.69853 20.5273 3.57562 18.7839C3.55104 18.2028 3.53213 17.668 3.57941 17.0776C3.57184 16.7489 3.6645 16.2951 3.7061 15.9663C3.73446 15.6422 3.87628 15.2139 3.95192 14.899C4.57403 12.7528 6.02059 11.072 7.5201 9.96298C8.56767 9.1735 9.79678 8.77991 11.0108 8.62942C12.1812 8.55765 13.3498 8.71277 14.5184 8.75213C16.606 8.84011 18.6936 8.89104 20.7812 8.76602V0.0747335C17.975 -0.0873309 15.167 0.0400054 12.3647 0.211331C12.2172 0.220592 11.9052 0.266896 11.7577 0.276157C7.05493 0.706785 2.66798 4.90657 1.4748 10.5418C0.939671 12.9403 0.871598 15.4639 1.18549 17.8995C1.55044 20.4856 2.51292 22.8124 3.92355 24.7132H3.92734Z" fill="white"/>
</svg>
