<svg width="44" height="278" viewBox="0 0 44 278" fill="none" xmlns="http://www.w3.org/2000/svg">
<path d="M13.26 46.7928V35.4941H26.5166V46.7928V48.7507V62.0108H13.26V75.188H-5.30884e-05V61.9279H13.26V48.7507V46.7928Z" fill="white"/>
<path d="M39.7718 8.52023C40.0238 8.90698 40.4797 9.58379 40.7352 9.97745C42.7 13.2027 43.736 16.9735 43.7049 20.7478C43.4977 36.9913 43.3906 53.5871 43.6047 69.8134C43.6047 69.8134 43.6047 69.8272 43.6047 69.8341V208.626H42.9141V69.8341C43.1178 54.7198 43.035 39.2152 42.8554 24.0835C42.8209 21.6283 42.9072 19.0005 42.2304 16.6213C41.6952 14.5494 40.6972 12.588 39.4195 10.8753C39.1398 10.5507 38.6633 9.9809 38.3836 9.66321C38.0832 9.38006 37.541 8.84482 37.2406 8.56166C36.6985 8.13002 36.032 7.58097 35.4346 7.22185C33.2488 5.77498 30.6555 4.93242 28.0553 4.70796C27.5546 4.71142 26.8501 4.61473 26.3563 4.66307L25.5137 4.71487C25.0234 4.70105 24.3466 4.87026 23.8563 4.94623C23.3728 4.99803 22.734 5.25701 22.2644 5.39514C19.0633 6.53122 16.5563 9.17287 14.9023 11.9112C13.7247 13.8242 13.1377 16.0688 12.9132 18.2857C12.8062 20.4232 13.0376 22.5572 13.0963 24.6913C13.224 28.5035 13.3035 32.3158 13.117 36.1281H0.150461C-0.0912589 31.0036 0.0986519 25.8757 0.354184 20.7581C0.367997 20.4888 0.437069 19.919 0.450882 19.6497C1.09317 11.0617 7.35715 3.05046 15.7621 0.871526C19.3395 -0.105712 23.1035 -0.230025 26.7362 0.343196C30.5933 1.00965 34.0637 2.7673 36.8988 5.34334C37.9692 6.26878 38.9016 7.40486 39.7752 8.51332L39.7718 8.52023Z" fill="white"/>
<path d="M26.5225 228.357V241.617H13.2659V228.444H0.00580629V215.184H13.2659V228.357H26.5225Z" fill="white"/>
<path d="M13.1177 241.611C13.3042 245.423 13.2247 249.235 13.097 253.048C13.0383 255.182 12.8069 257.316 12.9139 259.453C13.1384 261.67 13.7254 263.915 14.903 265.828C16.5605 268.569 19.064 271.208 22.2651 272.344C22.7312 272.489 23.3735 272.741 23.857 272.793C24.3439 272.872 25.0241 273.038 25.5144 273.024L26.357 273.076C26.8508 273.124 27.5518 273.017 28.056 273.031C30.6562 272.806 33.2495 271.964 35.4353 270.517C36.0327 270.161 36.6957 269.609 37.2413 269.177C37.5383 268.894 38.0839 268.362 38.3843 268.076C38.6571 267.755 39.1405 267.195 39.4202 266.864C40.3077 265.648 41.1296 264.291 41.651 262.872C42.421 261.014 42.7249 258.997 42.8181 256.995C43.0253 240.744 43.1462 224.141 42.9079 207.908H43.6158C43.4328 220.519 43.4673 233.406 43.5778 246.034C43.5916 247.46 43.6814 254.277 43.6883 255.565C43.7677 258.151 43.5916 260.796 42.7698 263.265C42.5143 264.153 42.055 265.178 41.6924 266.025C41.3816 266.608 41.0709 267.195 40.7359 267.765C40.546 268.045 40.1005 268.742 39.9106 269.015C39.7448 269.295 39.1854 269.937 38.9886 270.199C38.3601 270.976 37.6488 271.726 36.896 272.392C34.061 274.968 30.5906 276.726 26.7334 277.392C23.1007 277.965 19.3368 277.841 15.7593 276.864C7.35439 274.688 1.09041 266.674 0.448124 258.086C0.417045 257.806 0.379051 257.247 0.351426 256.977C0.0958935 251.86 -0.0940172 246.732 0.147702 241.607H13.1143L13.1177 241.611Z" fill="white"/>
</svg>
