<svg width="286" height="286" viewBox="0 0 286 286" fill="none" xmlns="http://www.w3.org/2000/svg">
<path d="M142.858 92.8887L98.0874 118.845L142.914 144.886L187.742 118.84L142.858 92.8887Z" fill="#D4FA62"/>
<path d="M98.0615 126.204L142.889 152.25V144.928L98.0615 118.887V126.204Z" fill="#D4FA62"/>
<path d="M187.767 126.204V118.887L158.673 135.788C158.65 135.291 158.627 134.795 158.606 134.299C158.518 132.29 158.263 130.247 156.835 128.712C155.291 127.053 152.849 126.728 150.818 127.646C150.359 127.854 149.956 128.107 149.608 128.471C149.137 128.964 148.649 129.481 148.32 130.082C148.033 130.608 147.882 131.161 147.832 131.755C147.78 132.376 147.664 133 147.6 133.623C147.465 134.932 147.391 136.246 147.329 137.559C147.315 137.847 147.302 138.135 147.289 138.422C147.228 139.779 147.182 141.137 147.129 142.494L142.94 144.927V152.25L146.713 150.058C146.647 150.991 146.546 151.923 146.302 152.825C145.99 153.984 145.448 155.073 145.156 156.238C144.713 158.012 144.869 159.872 144.949 161.698C145.113 165.41 144.942 169.135 144.455 172.819C143.9 170.181 140.172 168.274 137.477 168.2C136.969 168.186 136.459 168.205 135.96 168.296C134.229 168.612 132.746 169.782 131.703 171.198C130.659 172.614 130.001 174.272 129.389 175.921C128.908 177.22 128.438 178.546 127.628 179.67C126.496 181.244 124.775 182.318 123.649 183.897C121.06 184.414 116.879 185.074 114.487 186.19C112.094 187.306 109.912 189.089 108.845 191.504C106.481 190.947 103.898 191.203 101.782 192.396C99.6673 193.59 98.0785 195.755 97.7703 198.164C97.3689 201.302 99.0573 204.319 99.3665 207.467C99.4968 208.795 99.38 210.133 99.3898 211.467C99.4281 216.66 101.372 221.62 102.595 226.667C103.817 231.715 104.233 237.378 101.499 241.793L147.79 252.143C151.499 245.122 156.618 238.851 162.755 233.813C163.864 232.903 165.03 232.005 165.771 230.777C166.864 228.966 166.869 226.732 167.268 224.655C167.82 221.771 169.163 219.11 170.145 216.343C171.128 213.575 171.746 210.508 170.812 207.725C170.433 206.595 169.814 205.563 169.238 204.519C166.387 199.356 164.496 193.665 163.689 187.822C163.605 187.21 163.518 186.562 163.13 186.08C162.81 185.682 162.328 185.455 161.863 185.242C161.027 184.859 160.192 184.475 159.356 184.092C159.256 182.582 158.903 181.077 158.594 179.587C157.985 176.646 157.56 173.665 157.323 170.671C157.196 169.064 157.124 167.428 157.483 165.857C157.916 163.964 158.958 162.231 159.203 160.305C159.458 158.292 158.821 156.29 158.399 154.306C157.637 150.714 157.588 146.976 158.238 143.362L187.767 126.204Z" fill="#A5AB56"/>
<path d="M161.658 106.543C158.257 104.58 152.767 104.58 149.39 106.542C146.68 108.117 146.158 110.476 147.811 112.36L146.22 113.284L145.297 112.751C145.067 112.618 144.697 112.619 144.47 112.751L143.992 113.029C143.766 113.16 143.767 113.374 143.997 113.506L144.92 114.039L145.099 114.143L145.092 114.139L144.92 114.039L144.883 114.061C144.676 114.017 144.435 114.043 144.27 114.138L143.79 114.417C143.625 114.514 143.581 114.653 143.658 114.773L143.621 114.794L142.697 114.261C142.467 114.128 142.099 114.128 141.873 114.26L141.394 114.538C141.168 114.669 141.167 114.884 141.397 115.017L142.321 115.55L121.767 127.494C120.749 128.086 120.755 129.043 121.78 129.635C122.792 130.219 124.423 130.225 125.473 129.634C125.463 129.64 125.453 129.645 125.443 129.651L130.2 132.397L131.779 131.479L129.871 130.378L131.451 129.46L133.359 130.562L134.938 129.644L133.03 128.542L134.61 127.624L136.517 128.726L138.097 127.808L133.341 125.062L146.027 117.69L146.953 118.224C147.181 118.356 147.551 118.354 147.777 118.223L148.255 117.945C148.482 117.814 148.48 117.6 148.253 117.469L147.327 116.934L147.06 116.78L147.155 116.835L147.327 116.934L147.364 116.913C147.571 116.957 147.812 116.931 147.977 116.835L148.457 116.556C148.622 116.46 148.666 116.32 148.589 116.201L148.627 116.179L149.552 116.714C149.78 116.845 150.148 116.845 150.375 116.714L150.853 116.436C151.079 116.304 151.08 116.09 150.852 115.958L149.926 115.424L151.471 114.526C154.762 115.546 158.938 115.254 161.699 113.649C165.076 111.686 165.056 108.505 161.658 106.543ZM143.793 114.894C143.746 114.867 143.711 114.835 143.684 114.803C143.712 114.835 143.746 114.867 143.793 114.894ZM159.877 109.295C159.023 109.791 157.638 109.79 156.781 109.295C155.921 108.799 155.914 107.996 156.768 107.5C157.62 107.005 159.008 107.005 159.867 107.502C160.724 107.996 160.728 108.8 159.877 109.295Z" fill="#A5AB56"/>
<path d="M143.229 57.4609H142.556V79.8393H143.229V57.4609Z" fill="white"/>
<path d="M153.755 61.8922L148.625 79.75L149.271 79.9358L154.401 62.078L153.755 61.8922Z" fill="white"/>
<path d="M132.018 61.8863L131.372 62.0723L136.507 79.9282L137.154 79.7422L132.018 61.8863Z" fill="white"/>
<path d="M146.563 161.044C146.436 161.18 146.445 161.393 146.581 161.519C146.742 161.668 146.889 161.833 147.006 161.988C147.03 162.056 147.013 162.295 147.002 162.438C146.974 162.834 146.946 163.244 147.232 163.45C147.292 163.493 147.36 163.513 147.428 163.513C147.533 163.513 147.636 163.465 147.702 163.373C147.799 163.238 147.781 163.055 147.668 162.94C147.648 162.851 147.664 162.624 147.674 162.485C147.698 162.148 147.72 161.83 147.562 161.614C147.407 161.401 147.23 161.203 147.038 161.026C146.902 160.899 146.688 160.907 146.563 161.044Z" fill="white"/>
<path d="M152.081 156.722C152.112 156.905 152.285 157.03 152.468 156.998C153.755 156.783 155.125 157.152 156.13 157.984C156.193 158.036 156.269 158.061 156.344 158.061C156.441 158.061 156.537 158.02 156.604 157.939C156.722 157.796 156.702 157.584 156.559 157.465C155.405 156.511 153.836 156.088 152.357 156.335C152.174 156.365 152.05 156.539 152.081 156.722Z" fill="white"/>
<path d="M149.414 157.741C149.373 157.922 149.486 158.102 149.668 158.143C150.969 158.438 152.299 158.586 153.631 158.586C153.863 158.586 154.096 158.582 154.328 158.573C154.514 158.566 154.658 158.409 154.651 158.223C154.644 158.038 154.491 157.888 154.302 157.9C152.797 157.957 151.287 157.82 149.816 157.487C149.635 157.446 149.455 157.559 149.414 157.741Z" fill="white"/>
<path d="M149.067 159.435C148.956 159.584 148.987 159.795 149.136 159.905C149.772 160.377 150.593 160.598 151.385 160.766C152.035 160.904 152.697 160.973 153.357 160.973C153.428 160.973 153.499 160.973 153.57 160.971C154.025 160.961 154.869 160.852 155.424 160.241C155.549 160.103 155.539 159.89 155.401 159.766C155.263 159.64 155.051 159.65 154.926 159.788C154.54 160.214 153.902 160.29 153.556 160.298C152.876 160.316 152.194 160.25 151.526 160.108C150.808 159.955 150.07 159.76 149.538 159.365C149.389 159.254 149.177 159.285 149.067 159.435Z" fill="white"/>
<path d="M156.715 156.568C157.144 157.105 157.246 157.758 157.319 158.436C157.337 158.609 157.483 158.737 157.653 158.737C157.664 158.737 157.677 158.736 157.689 158.735C157.874 158.715 158.007 158.549 157.987 158.364C157.907 157.614 157.783 156.826 157.24 156.148C156.382 155.075 154.907 154.223 153.295 153.869C153.114 153.83 152.934 153.944 152.895 154.125C152.855 154.307 152.97 154.487 153.151 154.526C154.617 154.849 155.949 155.612 156.715 156.568Z" fill="white"/>
<path d="M149.012 155.079C148.407 155.181 147.866 155.587 147.599 156.14C147.518 156.307 147.588 156.508 147.756 156.589C147.803 156.612 147.853 156.623 147.902 156.623C148.027 156.623 148.147 156.553 148.205 156.433C148.376 156.079 148.737 155.808 149.123 155.743C149.307 155.712 149.43 155.539 149.4 155.356C149.369 155.172 149.195 155.046 149.012 155.079Z" fill="white"/>
<path d="M147.506 159.546C147.569 159.655 147.682 159.716 147.799 159.716C147.856 159.716 147.913 159.702 147.965 159.673C148.126 159.581 148.183 159.375 148.092 159.214C147.818 158.731 147.814 158.106 148.083 157.62C148.172 157.457 148.113 157.252 147.95 157.163C147.788 157.073 147.583 157.133 147.493 157.295C147.115 157.981 147.12 158.864 147.506 159.546Z" fill="white"/>
<path d="M29.3242 127.779V136.191H37.736V127.781H46.1477V119.369H37.736V110.959H29.3242V119.371H37.736V127.779H29.3242Z" fill="white"/>
<path d="M29.3224 136.193H20.9106V144.605H29.3224V136.193Z" fill="white"/>
<path d="M20.9103 144.605H12.4985V153.017H20.9103V144.605Z" fill="white"/>
<path d="M37.736 161.43H29.3242V169.841H37.736V161.43Z" fill="white"/>
<path d="M29.3224 153.047H20.9106V161.459H29.3224V153.047Z" fill="white"/>
<path d="M20.9103 161.432H12.4985V169.843H20.9103V161.432Z" fill="white"/>
<path d="M20.9103 127.781H12.4985V136.193H20.9103V127.781Z" fill="white"/>
<path d="M12.4977 110.959H4.08594V127.783H12.4977V110.959Z" fill="white"/>
<path d="M12.4982 169.842H4.08643V186.668H12.4982V169.842Z" fill="white"/>
<path d="M46.1481 169.875H37.7363V178.287H46.1481V169.875Z" fill="white"/>
<path d="M37.736 178.285H29.3242V186.697H37.736V178.285Z" fill="white"/>
<path d="M88.1486 270.85H79.7368V279.261H88.1486V270.85Z" fill="white"/>
<path d="M79.737 262.438H71.3252V270.849H79.737V262.438Z" fill="white"/>
<path d="M88.2516 10.0195H79.8398V18.4313H88.2516V10.0195Z" fill="white"/>
<path d="M121.902 26.8418H113.49V35.2536H121.902V26.8418Z" fill="white"/>
<path d="M130.317 35.2617H121.905V43.6735H130.317V35.2617Z" fill="white"/>
<path d="M138.729 26.8496H130.317V35.2614H138.729V26.8496Z" fill="white"/>
<path d="M113.49 18.4316H88.2515V26.8434H113.49V18.4316Z" fill="white"/>
<path d="M205.966 10.0195H197.554V18.4313H205.966V10.0195Z" fill="white"/>
<path d="M172.316 26.8418H163.904V35.2536H172.316V26.8418Z" fill="white"/>
<path d="M163.9 35.2617H155.488V43.6735H163.9V35.2617Z" fill="white"/>
<path d="M155.488 26.8496H147.077V35.2614H155.488V26.8496Z" fill="white"/>
<path d="M197.554 18.4316H172.315V26.8434H197.554V18.4316Z" fill="white"/>
<path d="M254.895 72.6758C253.114 71.6007 251.065 70.9904 249.008 70.9197C250.091 66.5631 249.01 61.7997 246.84 57.2099C245.279 53.7745 242.611 50.9885 239.404 49.0841C240.081 47.0047 240.437 44.8042 240.538 42.6777C240.942 35.4133 238.254 28.7142 232.268 24.4477C227.201 20.834 222.732 18.435 214.896 18.435C214.726 18.435 214.566 18.4478 214.378 18.432H205.966V26.8437H214.378L214.388 26.8471C215.125 26.8471 215.687 26.8471 216.05 26.8471C222.618 26.8471 228.432 27.9642 232.873 32.4527C235.198 34.8316 236.464 38.0112 236.793 41.3557C237.015 43.4351 236.982 45.6154 236.581 47.6881C233.906 46.6181 231.006 46.1134 228.133 46.2783C224.768 46.4566 221.269 47.3314 218.631 49.5387C217.006 50.8846 216.238 53.2432 216.972 55.2923C217.726 57.3011 219.815 58.4888 221.763 59.0743C225.673 60.2183 230.024 59.6126 233.442 57.3414C236.265 55.5245 238.109 52.7352 239.213 49.6396C241.904 51.2076 244.206 53.4249 245.754 56.1773C248.273 60.8875 249.797 66.1099 248.572 70.9103C247.278 70.9147 245.988 71.1354 244.767 71.596C241.283 72.957 239.127 76.4674 237.191 80.5455C234.01 80.4348 230.794 78.8126 227.846 76.4126C221.531 71.4463 217.735 63.731 210.774 59.4814C204.357 55.5077 196.336 56.1096 190.037 59.9726C182.832 64.2751 177.273 72.2165 176.129 80.5872L171.338 83.3651C168.883 82.9193 166.38 82.6753 163.903 82.533V82.9098C166.242 83.0111 168.569 83.2066 170.876 83.6326L149.216 96.1897L143.004 92.5982C142.899 92.5373 142.771 92.5373 142.667 92.5982L136.52 96.1621L114.913 83.6356C117.225 83.2076 119.558 83.0111 121.901 82.9095V82.5327C119.419 82.675 116.91 82.9196 114.45 83.3674L109.677 80.6006C108.538 72.2249 102.977 64.2771 95.7678 59.9723C89.469 56.1096 81.4476 55.5073 75.0311 59.4811C68.0695 63.7307 64.2741 71.446 57.9586 76.4123C55.0104 78.8123 51.7947 80.4344 48.6134 80.5451C46.6777 76.4668 44.5223 72.9567 41.0378 71.5957C39.8164 71.1351 38.527 70.9143 37.2333 70.91C36.0082 66.1095 37.5318 60.8872 40.0513 56.1769C41.599 53.4246 43.9005 51.2072 46.5922 49.6393C47.6959 52.7348 49.5397 55.5242 52.3627 57.3411C55.7812 59.6123 60.1318 60.2179 64.0416 59.0739C65.9898 58.4885 68.0793 57.3007 68.8329 55.292C69.5665 53.2429 68.7993 50.8842 67.1741 49.5383C64.5362 47.3311 61.0369 46.4563 57.6722 46.2779C54.7988 46.1131 51.8984 46.6178 49.2234 47.6878C48.823 45.6151 48.7894 43.4348 49.0115 41.3554C49.3412 38.0109 50.6063 34.8312 52.9313 32.4524C57.3728 27.9639 63.187 26.8468 69.7549 26.8468C70.1183 26.8468 70.6802 26.8468 71.417 26.8468L71.4271 26.8434H79.8389V18.4316H71.4271C71.2384 18.4475 71.0786 18.4347 70.909 18.4347C63.0726 18.4347 58.6042 20.8337 53.537 24.4474C47.5512 28.7138 44.8628 35.413 45.2665 42.6774C45.3675 44.8039 45.7241 47.0044 46.4004 49.0838C43.1939 50.9882 40.5257 53.7742 38.9645 57.2095C36.7946 61.7993 35.7141 66.5628 36.7966 70.9194C34.7397 70.99 32.6913 71.6004 30.9097 72.6754C23.8472 76.9351 20.6742 86.2352 20.9232 94.1355H20.9098V102.547V110.959H29.3215V102.547V94.1355C29.3249 94.1355 29.3316 94.1355 29.3316 94.1355C29.3316 90.8246 29.446 89.0918 29.8061 86.6053C30.4554 82.1067 31.8754 76.5314 36.6633 74.9971C37.2481 74.8036 37.8043 74.6862 38.3366 74.6323C39.0943 75.8934 40.0873 77.0997 41.3534 78.2322C43.1565 79.8221 45.0485 80.6568 46.9603 80.922C48.1313 82.8217 49.1679 84.8274 50.25 86.7833C52.9956 91.7597 56.4276 97.1769 62.2082 98.8559C63.6012 99.2765 65.0581 99.438 66.5049 99.4649V99.2058C55.6928 99.1661 52.6067 89.1036 48.8315 81.0078C52.1252 80.8547 55.4101 79.1818 58.3351 76.8894C62.8539 73.417 66.1479 68.6761 70.125 64.6654C72.7158 62.0174 75.7508 59.7832 79.3106 58.6964C92.3119 54.827 104.825 66.4083 108.025 78.4001C108.158 78.8665 108.276 79.351 108.38 79.8483L98.2327 73.9654L97.8953 74.5475L108.545 80.7214C108.766 82.035 108.883 83.4216 108.876 84.8166C106.659 85.6006 104.539 86.6403 102.588 88.0299C101.09 89.1941 99.6503 90.6275 99.0446 92.4713C98.3313 94.4834 99.0817 96.7008 101.41 96.9834C104.445 97.33 107.036 94.8838 108.119 92.2425C109.172 89.8637 109.724 87.394 109.859 84.9142C110.936 84.5676 112.029 84.2715 113.109 84.0158C113.377 83.9505 113.646 83.8927 113.915 83.8345L135.848 96.5504L97.8953 118.554C97.8367 118.588 97.793 118.639 97.764 118.698C97.7257 118.753 97.7021 118.818 97.7021 118.888V125.564L53.57 99.9211L53.2318 100.503L97.4535 126.197L53.2332 151.834L53.5706 152.416L98.076 126.615L142.174 152.238L98.1934 177.792L98.5315 178.374L142.892 152.599L145.563 154.15C145.54 154.213 145.516 154.277 145.493 154.339C145.273 154.925 145.046 155.531 144.889 156.158C144.483 157.784 144.565 159.474 144.644 161.109L144.672 161.714C144.816 164.977 144.699 168.244 144.338 171.483C143.024 169.293 139.78 167.926 137.545 167.864C136.943 167.849 136.425 167.881 135.958 167.966C134.294 168.27 132.708 169.347 131.491 171C130.422 172.45 129.74 174.169 129.133 175.805L129.061 175.999C128.616 177.201 128.157 178.443 127.414 179.475C126.87 180.23 126.162 180.889 125.477 181.526C124.794 182.162 124.093 182.82 123.522 183.591C120.708 184.154 117.858 184.573 115.139 185.579C112.468 186.64 109.998 188.493 108.717 191.122C106.32 190.62 103.721 190.916 101.571 192.167C99.3562 193.462 97.7089 195.787 97.4733 198.372C97.2257 200.893 98.2398 203.328 98.7856 205.721C99.2371 207.422 99.1607 209.417 99.1123 211.164C99.0537 217.201 101.802 223.369 102.869 229.43C99.8835 233.354 95.9518 236.589 91.54 238.339C91.1992 237.725 90.8428 237.118 90.4532 236.526C88.2937 233.26 84.9798 228.918 80.64 229.046C76.1182 229.422 74.7865 233.646 75.6169 237.434C73.5546 236.267 71.6977 234.732 70.0267 233.025C66.0497 229.014 62.7556 224.273 58.2368 220.801C55.3368 218.528 52.0814 216.864 48.8153 216.687C52.5982 208.585 55.6773 198.492 66.5059 198.452V198.193C65.0591 198.22 63.6022 198.382 62.2092 198.802C56.4286 200.481 52.9966 205.898 50.251 210.875C49.1652 212.838 48.1249 214.851 46.9489 216.756C45.0071 217.008 43.0849 217.844 41.2551 219.458C40.0018 220.578 39.0153 221.771 38.2602 223.018C37.7515 222.961 37.2209 222.845 36.6643 222.661C31.8764 221.127 30.4565 215.551 29.8071 211.053C29.447 208.566 29.3326 206.833 29.3326 203.522C29.3326 203.522 29.3259 203.522 29.3226 203.522V195.111V186.699H20.9108V195.111V203.522H20.9242C20.6753 211.422 23.8482 220.723 30.9107 224.983C32.6657 226.041 34.6795 226.65 36.7051 226.736C35.6082 231.1 36.6876 235.876 38.8628 240.477C40.4241 243.916 43.0889 246.698 46.2988 248.603C45.6225 250.682 45.2659 252.883 45.1649 255.009C44.7612 262.274 47.4496 268.973 53.4354 273.239C58.5026 276.853 62.971 279.252 70.8074 279.252C70.979 279.252 71.1438 279.238 71.3323 279.255L71.3154 270.84C70.5786 270.84 70.0167 270.84 69.6533 270.84C63.0854 270.84 57.2711 269.723 52.8297 265.235C50.5047 262.856 49.2396 259.676 48.9098 256.332C48.6878 254.252 48.7214 252.072 49.1218 249.999C51.7934 251.069 54.6971 251.574 57.5706 251.409C60.9319 251.234 64.4346 250.356 67.0725 248.149C68.6977 246.803 69.4648 244.447 68.7313 242.395C67.9776 240.386 65.8882 239.195 63.94 238.613C60.0302 237.472 55.683 238.078 52.2611 240.346C49.4381 242.162 47.5942 244.949 46.4906 248.048C43.7989 246.48 41.4974 244.262 39.9496 241.51C37.4271 236.792 35.9016 231.558 37.1404 226.748C38.4651 226.755 39.7875 226.534 41.0385 226.063C44.5142 224.705 46.6676 221.209 48.5996 217.143C51.752 217.281 54.9357 218.897 57.8566 221.274C64.1722 226.241 67.9675 233.956 74.9291 238.206C75.2905 238.429 75.6576 238.637 76.0284 238.832C76.0802 238.97 76.1347 239.106 76.1926 239.242C78.9331 245.793 87.7089 248.806 94.5985 247.125C95.4081 249.573 96.1557 252.049 97.0413 254.47C95.7472 255.003 94.4666 255.545 93.2018 256.07L93.3324 256.38C94.6066 255.845 95.8801 255.308 97.1591 254.787C97.2371 254.997 97.3148 255.207 97.3953 255.416C99.2674 260.104 101.847 264.622 105.553 268.106C108.022 270.429 111.177 272.18 114.611 272.388C119.763 272.722 124.916 269.748 127.106 265.06C130.644 257.463 124.776 251.814 117.491 250.65C110.602 249.394 103.896 251.673 97.5221 254.274C96.6544 251.879 95.9151 249.421 95.115 246.988C96.2701 246.661 97.3673 246.203 98.3626 245.597C99.2411 245.051 100.035 244.362 100.707 243.57L100.588 243.993L101.843 241.971C104.538 237.593 104.217 232.157 103.154 227.344C101.943 221.958 99.7654 216.739 99.7849 211.168C99.836 209.366 99.9053 207.321 99.4413 205.571C98.907 203.191 97.9168 200.896 98.1429 198.436C98.3542 196.086 99.8737 193.935 101.91 192.749C103.867 191.604 106.266 191.321 108.494 191.761C108.443 191.968 108.401 192.178 108.384 192.391C108.369 192.576 108.507 192.738 108.692 192.753C108.701 192.754 108.711 192.754 108.72 192.754C108.893 192.754 109.041 192.621 109.055 192.445C109.077 192.18 109.131 191.918 109.217 191.667C109.223 191.65 109.221 191.633 109.224 191.617C110.379 189.058 112.81 187.223 115.38 186.207C117.823 185.306 120.432 184.874 123.002 184.378C122.697 184.898 122.431 185.443 122.173 185.976C121.568 187.23 120.997 188.413 119.964 189.197C119.816 189.309 119.787 189.52 119.9 189.668C119.966 189.755 120.066 189.801 120.168 189.801C120.239 189.801 120.31 189.779 120.371 189.733C121.533 188.852 122.166 187.538 122.779 186.269C123.139 185.523 123.51 184.753 123.981 184.093C124.527 183.328 125.243 182.663 125.934 182.019C126.644 181.36 127.377 180.678 127.96 179.868C128.755 178.762 129.231 177.476 129.691 176.233L129.763 176.039C130.378 174.382 131.013 172.78 132.032 171.399C133.147 169.885 134.584 168.902 136.078 168.628C136.498 168.552 136.971 168.521 137.526 168.537C140.185 168.61 143.639 170.503 144.171 172.844C143.921 174.722 143.594 176.59 143.175 178.441C142.942 179.472 142.657 180.543 141.984 181.303C141.371 181.995 140.256 182.411 139.451 181.907C139.293 181.809 139.086 181.857 138.987 182.015C138.888 182.172 138.937 182.38 139.094 182.478C140.201 183.168 141.688 182.65 142.487 181.749C143.266 180.87 143.579 179.706 143.831 178.589C144.255 176.716 144.586 174.826 144.839 172.925C144.845 172.905 144.846 172.884 144.848 172.862C145.337 169.161 145.508 165.421 145.344 161.684L145.315 161.076C145.238 159.49 145.158 157.85 145.541 156.321C145.688 155.732 145.909 155.144 146.122 154.575C146.323 154.039 146.532 153.484 146.686 152.914C147.015 151.692 147.09 150.428 147.163 149.206L147.375 145.659C147.465 144.15 147.522 142.617 147.576 141.133C147.61 140.235 147.643 139.336 147.683 138.439L147.723 137.577C147.782 136.327 147.856 134.988 147.992 133.659C148.021 133.383 148.06 133.106 148.098 132.83C148.146 132.488 148.196 132.135 148.225 131.784C148.273 131.213 148.42 130.709 148.673 130.245C148.74 130.122 148.818 130.005 148.898 129.888C148.899 130.566 148.9 131.289 148.904 131.895C148.905 132.127 148.907 132.416 149.025 132.687C149.354 133.444 150.121 133.49 150.68 133.524L152.993 133.671C153.097 133.678 153.205 133.685 153.317 133.693C153.642 133.717 154.007 133.744 154.381 133.744C155.146 133.744 155.946 133.631 156.51 133.147C156.986 132.739 157.184 132.127 157.314 131.582C157.388 131.272 157.457 130.824 157.523 130.234C158.144 131.516 158.27 132.982 158.328 134.314C158.376 135.412 158.424 136.512 158.475 137.606C158.554 139.264 158.416 140.984 158.067 142.722C157.299 146.538 157.32 150.567 158.129 154.376C158.21 154.758 158.299 155.141 158.388 155.525C158.751 157.084 159.126 158.695 158.927 160.262C158.794 161.31 158.419 162.29 158.022 163.328C157.72 164.119 157.407 164.936 157.214 165.782C156.832 167.452 156.927 169.195 157.046 170.697C157.283 173.695 157.713 176.709 158.323 179.655L158.465 180.328C158.854 182.164 159.256 184.062 159.059 185.914C159.016 186.306 158.947 186.707 158.879 187.095C158.77 187.718 158.657 188.362 158.649 189.017C158.634 190.301 159.017 191.534 159.387 192.727L159.432 192.871C160.252 195.512 160.988 198.22 161.621 200.918C162.354 204.041 162.838 207.29 161.44 209.892C161.352 210.055 161.413 210.26 161.577 210.347C161.627 210.375 161.682 210.387 161.736 210.387C161.856 210.387 161.972 210.324 162.033 210.21C163.537 207.411 163.039 204.016 162.277 200.764C161.64 198.05 160.899 195.328 160.075 192.672L160.03 192.527C159.675 191.384 159.308 190.203 159.322 189.025C159.329 188.424 159.433 187.835 159.542 187.211C159.611 186.812 159.684 186.399 159.728 185.985C159.776 185.532 159.788 185.08 159.778 184.628C160.446 184.934 161.5 185.418 161.5 185.418C162.195 185.74 162.929 186.002 163.183 186.756C163.575 188.316 163.679 190.016 164.082 191.593C164.797 194.853 165.842 198.04 167.211 201.083C168.149 203.374 169.613 205.445 170.516 207.729C171.862 211.7 170.105 215.789 168.623 219.488C168.011 221.03 167.415 222.605 167.066 224.261C166.536 226.681 166.686 229.234 165.12 231.21C164.106 232.47 162.704 233.413 161.486 234.492C155.844 239.362 151.124 245.284 147.62 251.861L147.588 251.849C146.539 253.959 146.219 256.413 146.695 258.718C147.619 263.441 152.041 266.689 156.589 267.51C161.191 268.443 165.884 266.901 169.851 264.609C179.7 258.732 187.523 250.135 195.165 241.727L196.429 240.334C201.283 241.507 206.462 240.941 210.877 238.205C211.958 237.545 212.963 236.8 213.913 235.997C213.564 238.166 211.969 240.271 210.753 242.013C209.408 243.841 207.917 245.56 206.4 247.257L206.651 247.482C208.175 245.787 209.679 244.064 211.041 242.225C212.358 240.355 213.795 238.464 214.27 236.168C214.311 235.983 214.336 235.798 214.354 235.614C219.282 231.271 222.769 225.348 227.949 221.274C230.87 218.896 234.054 217.28 237.206 217.143C239.138 221.208 241.292 224.704 244.767 226.062C246.018 226.534 247.34 226.754 248.665 226.748C249.904 231.558 248.379 236.792 245.856 241.51C244.308 244.262 242.007 246.479 239.315 248.047C238.212 244.948 236.368 242.162 233.545 240.345C230.123 238.078 225.776 237.472 221.866 238.613C219.918 239.195 217.828 240.386 217.074 242.395C216.341 244.447 217.108 246.802 218.733 248.148C221.371 250.356 224.874 251.234 228.235 251.409C231.109 251.573 234.012 251.069 236.684 249.999C237.084 252.071 237.118 254.252 236.896 256.331C236.566 259.676 235.301 262.855 232.976 265.234C228.535 269.723 222.72 270.84 216.153 270.84C215.789 270.84 215.227 270.84 214.49 270.84L214.474 279.255C214.662 279.238 214.827 279.252 214.998 279.252C222.835 279.252 227.303 276.853 232.37 273.239C238.356 268.972 241.045 262.273 240.641 255.009C240.54 252.882 240.183 250.682 239.507 248.602C242.717 246.698 245.382 243.915 246.943 240.477C249.118 235.876 250.198 231.1 249.101 226.735C251.126 226.65 253.14 226.041 254.895 224.982C261.958 220.722 265.131 211.422 264.882 203.522H264.895V195.11V186.699H256.483V195.11V203.522C256.48 203.522 256.473 203.522 256.473 203.522C256.473 206.833 256.359 208.566 255.999 211.052C255.349 215.551 253.929 221.126 249.141 222.661C248.585 222.845 248.054 222.96 247.546 223.018C246.791 221.771 245.804 220.578 244.551 219.458C242.721 217.843 240.799 217.007 238.857 216.756C237.681 214.85 236.641 212.837 235.555 210.874C232.809 205.898 229.377 200.481 223.597 198.802C222.204 198.381 220.747 198.22 219.3 198.193V198.452C230.128 198.492 233.208 208.585 236.99 216.687C233.724 216.864 230.469 218.527 227.569 220.801C223.05 224.273 219.756 229.013 215.779 233.025C215.309 233.505 214.825 233.971 214.325 234.42C214.056 232.655 212.817 231.116 211.01 230.587C209.898 230.221 208.703 230.125 207.545 230.255C205.168 230.501 203.297 232.185 201.747 233.851C200.677 234.994 198.588 237.286 196.862 239.18C187.801 236.911 180.26 228.215 177.879 219.29C177.327 217.355 177.017 215.125 177.027 212.874C179.245 212.09 181.365 211.05 183.316 209.66C184.813 208.5 186.253 207.063 186.859 205.219C187.572 203.207 186.822 200.986 184.494 200.707C181.462 200.364 178.868 202.81 177.784 205.448C176.728 207.827 176.18 210.296 176.045 212.776C174.968 213.123 173.875 213.419 172.795 213.674C172.283 213.799 171.768 213.905 171.254 214.003C171.561 212.716 171.728 211.4 171.645 210.029C171.581 208.323 170.91 206.663 170.066 205.213C169.25 203.769 168.495 202.316 167.824 200.81C165.968 196.683 164.715 192.289 164.085 187.808C163.929 186.117 163.353 185.435 161.78 184.808L159.738 183.872C159.638 182.628 159.379 181.396 159.123 180.191L158.982 179.521C158.378 176.602 157.952 173.616 157.716 170.646C157.601 169.193 157.509 167.512 157.869 165.934C158.053 165.134 158.356 164.339 158.65 163.571C158.838 163.08 159.028 162.581 159.192 162.071L187.252 178.375L187.59 177.793L159.385 161.405C159.475 161.059 159.549 160.707 159.595 160.349C159.809 158.662 159.42 156.991 159.043 155.374C158.955 154.994 158.867 154.615 158.787 154.237C158.044 150.739 157.991 147.051 158.61 143.523L187.707 126.616L232.212 152.417L232.55 151.835L188.329 126.197L232.551 100.503L232.213 99.9215L188.081 125.564V118.888C188.081 118.821 188.06 118.759 188.024 118.705C187.996 118.641 187.95 118.585 187.888 118.549L149.888 96.5783L171.874 83.8321C172.148 83.8913 172.422 83.9505 172.695 84.0168C173.775 84.2726 174.869 84.5686 175.946 84.9152C176.08 87.395 176.632 89.8647 177.685 92.2435C178.769 94.8848 181.359 97.331 184.394 96.9844C186.723 96.7018 187.473 94.4844 186.76 92.4723C186.154 90.6285 184.714 89.1951 183.217 88.0309C181.265 86.6413 179.146 85.6016 176.928 84.8176C176.922 83.4179 177.04 82.0266 177.262 80.7087L187.888 74.5485L187.55 73.9665L177.428 79.8345C177.531 79.3426 177.648 78.8628 177.779 78.4011C180.979 66.4093 193.493 54.828 206.494 58.6974C210.054 59.7842 213.089 62.0184 215.679 64.6664C219.657 68.6771 222.951 73.418 227.469 76.8904C230.394 79.1828 233.679 80.8557 236.973 81.0088C233.198 89.1046 230.112 99.1671 219.3 99.2068V99.4659C220.746 99.439 222.203 99.2775 223.596 98.8569C229.377 97.1779 232.809 91.7607 235.554 86.7843C236.637 84.8284 237.673 82.8224 238.844 80.923C240.756 80.6575 242.648 79.8227 244.451 78.2332C245.717 77.1007 246.71 75.8944 247.468 74.6333C248 74.6872 248.556 74.8046 249.141 74.9981C253.929 76.5324 255.349 82.1077 255.998 86.6063C256.358 89.0928 256.473 90.8257 256.473 94.1365C256.473 94.1365 256.48 94.1365 256.483 94.1365V102.548V110.96H264.895V102.548V94.1365H264.881C265.131 86.2355 261.958 76.9351 254.895 72.6758ZM232.103 55.4367C229.374 57.5467 225.562 58.3169 222.194 57.5194C220.636 57.1359 218.849 56.3216 218.193 54.8209C217.557 53.2597 218.106 51.4562 219.357 50.3156C221.296 48.4886 224.159 47.5969 226.797 47.1629C230.037 46.6952 233.392 47.1225 236.45 48.3069C235.804 51.0962 234.452 53.6467 232.103 55.4367ZM59.0087 47.1629C61.6466 47.5969 64.51 48.4886 66.448 50.3156C67.6997 51.4562 68.2482 53.2597 67.6122 54.8209C66.9561 56.3216 65.1695 57.1359 63.6116 57.5194C60.2435 58.3169 56.4313 57.5463 53.7025 55.4367C51.354 53.6467 50.0014 51.0962 49.3553 48.3069C52.4139 47.1225 55.7685 46.6952 59.0087 47.1629ZM40.6239 76.9506C39.9086 76.1922 39.3066 75.4072 38.8066 74.6007C41.8433 74.5105 44.0441 76.6118 45.9509 79.3645C46.1878 79.7077 46.4163 80.0572 46.641 80.4102C44.5643 80.0485 42.5297 78.9678 40.6239 76.9506ZM106.168 94.3495C104.816 96.0352 102.255 97.3475 100.196 96.1967C98.0998 94.7466 99.3549 91.7351 100.785 90.2311C102.969 87.8624 105.839 86.3213 108.874 85.2412C108.796 88.5622 107.999 91.8933 106.168 94.3495ZM109.883 84.4808C109.917 83.4647 109.878 82.4479 109.776 81.4354L113.452 83.5663C112.245 83.8156 111.051 84.1121 109.883 84.4808ZM53.6033 242.25C56.3321 240.14 60.1409 239.37 63.509 240.167C65.0668 240.554 66.8535 241.369 67.5096 242.866C68.1455 244.424 67.5971 246.231 66.3454 247.372C64.404 249.199 61.544 250.09 58.9061 250.524C55.6625 250.992 52.3079 250.565 49.2561 249.383C49.9021 246.59 51.2547 244.037 53.6033 242.25ZM45.9506 218.293C44.027 221.07 41.8043 223.183 38.7259 223.053C39.2215 222.259 39.8157 221.484 40.521 220.736C42.4553 218.688 44.5226 217.606 46.6319 217.261C46.4102 217.609 46.1844 217.955 45.9506 218.293ZM102.685 252.71C105.848 251.667 109.117 250.823 112.454 250.68C115.759 250.58 119.16 251.085 122.143 252.552C127.011 254.908 129.169 259.89 126.717 264.874C124.6 269.395 119.602 272.258 114.641 271.926C106.218 271.243 100.727 262.376 97.8754 255.229C97.795 255.018 97.7183 254.804 97.6402 254.592C99.3064 253.92 100.983 253.278 102.685 252.71ZM76.7767 231.978C77.9735 229.841 80.8083 229.08 83.0091 230.029C86.3796 231.473 89.0791 235.085 91.0087 238.545C87.3049 239.901 83.2827 240.204 79.2121 238.993C78.2195 238.691 77.2696 238.296 76.3568 237.831C75.8103 235.889 75.769 233.746 76.7767 231.978ZM76.8638 239.244C81.5327 241.396 86.823 241.386 91.6096 239.662C91.8822 240.188 92.1362 240.704 92.3711 241.202C93.1409 242.93 93.7876 244.707 94.3916 246.503C87.894 248.076 79.596 245.307 76.8638 239.244ZM101.715 240.783C101.478 241.198 101.288 241.529 101.288 241.527C100.535 242.963 99.3868 244.174 98.01 245.037C97.0622 245.616 96.0141 246.054 94.9081 246.366C94.119 244.006 93.25 241.68 92.1356 239.465C93.3543 238.99 94.538 238.406 95.6655 237.714C98.4568 236.047 100.996 233.828 103.133 231.255C103.498 234.48 103.256 237.669 101.715 240.783ZM226.899 250.524C224.262 250.09 221.402 249.198 219.46 247.371C218.208 246.231 217.66 244.424 218.296 242.866C218.952 241.369 220.739 240.554 222.297 240.167C225.665 239.37 229.473 240.14 232.202 242.25C234.551 244.037 235.903 246.59 236.549 249.383C233.498 250.564 230.143 250.991 226.899 250.524ZM245.284 220.736C245.989 221.484 246.584 222.258 247.079 223.053C244.001 223.183 241.778 221.07 239.855 218.293C239.621 217.955 239.395 217.609 239.173 217.262C241.283 217.606 243.35 218.688 245.284 220.736ZM199.755 236.666C201.294 235.026 202.725 233.197 204.549 231.879C205.566 231.145 206.763 230.7 208.009 230.619C210.014 230.51 212.354 231.057 213.411 232.924C213.739 233.524 213.912 234.13 213.965 234.735C211.798 236.617 209.354 238.153 206.593 238.993C203.447 239.929 200.331 239.959 197.367 239.299L199.755 236.666ZM179.74 203.334C181.092 201.648 183.653 200.339 185.712 201.487C187.808 202.937 186.553 205.948 185.123 207.452C182.94 209.821 180.066 211.362 177.035 212.442C177.112 209.121 177.913 205.79 179.74 203.334ZM176.025 213.206C175.695 222.933 181.826 232.748 190.14 237.714C191.953 238.826 193.909 239.665 195.928 240.205C195.502 240.673 195.124 241.087 194.823 241.416C187.186 249.764 179.38 258.299 169.57 264.115C163.647 267.604 156.381 268.726 150.714 264.128C147.235 261.382 146.18 256.326 148.089 252.37C148.115 252.323 148.141 252.277 148.167 252.23L148.173 252.233C148.173 252.233 148.179 252.213 148.181 252.203C151.343 246.46 155.266 241.109 160.09 236.658C161.853 234.88 164.036 233.523 165.648 231.627C167.297 229.604 167.219 226.76 167.723 224.402C168.465 220.971 170.28 217.767 171.164 214.362C172.813 214.074 174.442 213.705 176.025 213.206ZM142.53 151.61L98.795 126.198L98.3761 125.955V119.472L142.53 145.122V151.61H142.53ZM146.036 152.739C145.966 152.996 145.884 153.252 145.796 153.508L143.61 152.238L146.387 150.624C146.321 151.339 146.221 152.052 146.036 152.739ZM146.703 145.619L146.492 149.166C146.48 149.359 146.468 149.555 146.455 149.75L143.254 151.61V145.122L146.829 143.046C146.794 143.904 146.754 144.765 146.703 145.619ZM153.367 133.023C153.252 133.014 153.142 133.006 153.037 133L150.722 132.853C150.588 132.845 150.467 132.836 150.356 132.823C150.947 132.346 151.627 132.113 152.424 132.113C152.431 132.113 152.438 132.113 152.445 132.113C153.016 132.116 153.582 132.206 154.081 132.374C154.48 132.509 154.947 132.699 155.245 132.999C154.659 133.115 153.966 133.067 153.367 133.023ZM156.66 131.426C156.55 131.888 156.402 132.355 156.073 132.637C156.023 132.68 155.965 132.712 155.909 132.747C155.52 132.209 154.851 131.924 154.295 131.737C153.729 131.546 153.091 131.444 152.448 131.44C151.372 131.423 150.467 131.786 149.694 132.51C149.675 132.482 149.657 132.453 149.642 132.419C149.579 132.274 149.578 132.08 149.577 131.892C149.572 131.03 149.57 129.927 149.572 129.062C149.686 128.939 149.799 128.82 149.909 128.705C150.198 128.403 150.549 128.164 151.015 127.954C152.998 127.057 155.262 127.455 156.647 128.943C156.751 129.055 156.847 129.171 156.939 129.289C156.852 130.295 156.758 131.014 156.66 131.426ZM187.408 125.955L186.989 126.198L158.776 142.591C159.098 140.889 159.225 139.203 159.148 137.575C159.122 137.028 159.099 136.48 159.074 135.932L187.408 119.473L187.408 125.955ZM187.048 118.841L159.038 135.116C159.026 134.839 159.012 134.562 159 134.286C158.917 132.356 158.697 130.157 157.14 128.484C155.557 126.785 152.984 126.324 150.738 127.341C150.191 127.588 149.773 127.874 149.423 128.241C148.963 128.723 148.441 129.268 148.084 129.923C147.784 130.471 147.611 131.061 147.556 131.728C147.528 132.06 147.48 132.404 147.433 132.737C147.393 133.021 147.353 133.306 147.324 133.59C147.186 134.936 147.111 136.286 147.052 137.545L147.012 138.408C146.972 139.308 146.938 140.208 146.905 141.108C146.892 141.464 146.877 141.83 146.863 142.191L142.893 144.497L98.7361 118.846L142.837 93.2778L187.048 118.841ZM175.922 84.4808C174.75 84.11 173.55 83.8129 172.338 83.5629L176.031 81.422C175.929 82.4391 175.888 83.4603 175.922 84.4808ZM185.021 90.2311C186.451 91.7351 187.706 94.7466 185.609 96.1967C183.55 97.3475 180.99 96.0352 179.637 94.3495C177.807 91.8933 177.009 88.5622 176.932 85.2412C179.967 86.3213 182.837 87.8624 185.021 90.2311ZM245.182 76.9506C243.276 78.9678 241.241 80.0485 239.165 80.4102C239.39 80.0572 239.618 79.7077 239.855 79.3645C241.762 76.6118 243.962 74.5105 246.999 74.6007C246.499 75.4072 245.897 76.1922 245.182 76.9506Z" fill="white"/>
<path d="M264.895 136.193H256.483V144.605H264.895V136.193Z" fill="white"/>
<path d="M273.307 144.605H264.896V153.017H273.307V144.605Z" fill="white"/>
<path d="M256.482 161.43H248.07V169.841H256.482V161.43Z" fill="white"/>
<path d="M264.895 153.047H256.483V161.459H264.895V153.047Z" fill="white"/>
<path d="M273.307 161.432H264.896V169.843H273.307V161.432Z" fill="white"/>
<path d="M273.307 127.781H264.896V136.193H273.307V127.781Z" fill="white"/>
<path d="M281.72 110.959H273.309V127.783H281.72V110.959Z" fill="white"/>
<path d="M281.719 169.842H273.308V186.668H281.719V169.842Z" fill="white"/>
<path d="M256.482 119.371V110.959H248.07V119.369H239.659V127.781H248.07V136.191H256.482V127.779H248.07V119.371H256.482Z" fill="white"/>
<path d="M248.07 169.875H239.658V178.287H248.07V169.875Z" fill="white"/>
<path d="M256.482 178.285H248.07V186.697H256.482V178.285Z" fill="white"/>
<path d="M206.068 270.85H197.657V279.261H206.068V270.85Z" fill="white"/>
<path d="M214.48 262.438H206.068V270.849H214.48V262.438Z" fill="white"/>
<path d="M141.682 113.968L141.203 114.246C140.988 114.37 140.866 114.564 140.866 114.776C140.867 114.989 140.991 115.182 141.207 115.306L141.628 115.549L121.577 127.202C120.978 127.55 120.649 128.032 120.649 128.56C120.65 129.09 120.984 129.575 121.59 129.925C122.147 130.246 122.867 130.408 123.592 130.408C124.23 130.408 124.864 130.275 125.4 130.025L130.178 132.784L132.429 131.477L130.521 130.376L131.43 129.848L133.337 130.949L135.587 129.641L133.68 128.54L134.588 128.012L136.496 129.113L138.746 127.806L133.99 125.06L146.006 118.077L146.763 118.514C146.928 118.61 147.135 118.657 147.342 118.657C147.55 118.657 147.759 118.609 147.925 118.512L148.403 118.234C148.617 118.11 148.739 117.917 148.739 117.706C148.738 117.494 148.615 117.301 148.399 117.176L148.216 117.071L148.604 116.846C148.692 116.795 148.752 116.737 148.801 116.68L149.362 117.004C149.528 117.099 149.735 117.147 149.942 117.147C150.149 117.147 150.357 117.099 150.522 117.003L151 116.725C151.215 116.6 151.338 116.407 151.338 116.194C151.337 115.982 151.214 115.79 150.999 115.665L150.576 115.421L151.492 114.889C154.951 115.916 159.093 115.539 161.847 113.938C163.581 112.93 164.536 111.57 164.533 110.108C164.531 108.635 163.562 107.265 161.803 106.25C158.317 104.238 152.662 104.237 149.199 106.25C147.698 107.122 146.759 108.292 146.554 109.546C146.401 110.484 146.651 111.417 147.28 112.265L146.198 112.894L145.443 112.458C145.11 112.266 144.61 112.266 144.279 112.459L143.801 112.737C143.587 112.861 143.464 113.053 143.465 113.265C143.465 113.477 143.59 113.671 143.807 113.796L143.987 113.9L143.599 114.125C143.52 114.171 143.454 114.228 143.401 114.291L142.843 113.969C142.51 113.776 142.011 113.776 141.682 113.968ZM137.403 127.808L136.495 128.336L134.587 127.234L132.337 128.542L134.245 129.643L133.336 130.171L131.429 129.07L129.178 130.378L131.086 131.479L130.177 132.007L126.093 129.648L133.319 125.449L137.403 127.808ZM131.312 125.838L125.282 129.341C124.343 129.867 122.838 129.869 121.926 129.342C121.543 129.121 121.323 128.835 121.323 128.559C121.322 128.281 121.533 128.006 121.915 127.783L142.3 115.937L145.287 117.662L145.334 117.689L131.312 125.838ZM148.311 112.444L148.041 112.137C147.363 111.364 147.079 110.506 147.218 109.655C147.39 108.603 148.213 107.601 149.537 106.831C152.815 104.927 158.166 104.927 161.467 106.833C163.009 107.723 163.859 108.886 163.86 110.108C163.862 111.32 163.027 112.474 161.509 113.356C158.909 114.866 154.814 115.214 151.549 114.203L151.408 114.159L149.904 115.033L146.87 113.281L148.311 112.444ZM144.617 113.04C144.74 112.969 144.983 112.969 145.106 113.041L145.527 113.284L145.726 113.398L150.571 116.196L150.183 116.421C150.062 116.491 149.822 116.491 149.699 116.42L144.234 113.263L144.617 113.04ZM144.417 114.428C144.505 114.377 144.662 114.361 144.79 114.389C144.846 114.401 144.881 114.417 144.902 114.429L145.939 115.027L148.174 116.317L147.786 116.542C147.698 116.593 147.541 116.609 147.413 116.582C147.357 116.57 147.322 116.554 147.301 116.542L144.03 114.653L144.417 114.428ZM142.507 114.552L147.972 117.707L147.586 117.931C147.463 118.002 147.222 118.003 147.099 117.932L141.634 114.774L142.02 114.55C142.142 114.48 142.383 114.48 142.507 114.552Z" fill="white"/>
<path d="M156.589 109.586C157.072 109.865 157.69 110.004 158.307 110.004C158.926 110.004 159.543 109.864 160.023 109.586C160.542 109.284 160.827 108.864 160.826 108.401C160.826 107.936 160.537 107.513 160.012 107.21C159.045 106.651 157.536 106.652 156.577 107.209C156.057 107.511 155.772 107.931 155.772 108.393C155.773 108.859 156.063 109.282 156.589 109.586ZM156.914 107.791C157.659 107.358 158.924 107.358 159.675 107.793C159.978 107.968 160.153 108.19 160.153 108.402C160.153 108.611 159.982 108.831 159.685 109.004C158.939 109.437 157.676 109.436 156.926 109.003C156.621 108.828 156.445 108.604 156.445 108.393C156.445 108.184 156.616 107.964 156.914 107.791Z" fill="white"/>
</svg>
