<svg width="311" height="311" viewBox="0 0 311 311" fill="none" xmlns="http://www.w3.org/2000/svg">
<path d="M178.24 162.306H171.751V162.312H171.125C172.41 160.32 173.502 158.249 174.369 156.105C176.418 151.034 177.207 145.571 176.314 139.864C175.038 131.69 170.78 124.277 165.244 118.281C166.403 118.2 167.555 118.308 168.658 118.66C169.732 119.009 170.677 119.592 171.53 120.302C171.694 120.457 172.158 120.898 172.324 121.056C172.97 121.768 173.601 122.538 174.132 123.342C174.356 123.642 174.75 124.241 174.942 124.561C175.422 125.294 176.058 126.401 176.532 127.157C178.307 130.063 180.398 132.744 183.291 134.68C187.248 137.426 192.605 137.347 195.778 133.569C188.906 137.418 183.709 132.436 180.25 126.695C179.251 125.068 178.398 123.342 177.124 121.902C176.771 121.545 176.278 120.985 175.897 120.667C175.658 120.486 175.121 119.997 174.88 119.839C174.641 119.679 174.031 119.28 173.782 119.117C173.409 118.912 172.999 118.71 172.617 118.513C170.913 117.743 169.081 117.388 167.244 117.391C166.37 117.404 165.516 117.504 164.678 117.677C164.483 117.472 164.286 117.27 164.089 117.07C163.7 116.673 163.303 116.284 162.903 115.901C162.024 115.06 161.124 114.248 160.195 113.47C160.2 113.475 160.203 113.481 160.205 113.486C158.814 112.175 157.312 110.935 155.706 109.855C160.695 106.97 166.785 105.616 171.374 109.358L171.733 109.637C171.935 109.828 172.521 110.385 172.724 110.58C172.926 110.811 173.424 111.381 173.627 111.602C174.27 112.414 174.911 113.315 175.502 114.177C176.727 116.077 177.832 118.082 179.093 119.958C181.078 122.89 183.379 125.575 186.41 127.596C188.835 129.22 191.788 130.229 194.712 129.969C197.524 129.735 200.22 128.366 202 126.217C192.621 131.417 185.976 123.681 181.646 115.987C180.624 114.153 179.462 112.33 177.962 110.853C177.741 110.64 177.42 110.283 177.181 110.096C176.693 109.7 175.988 109.072 175.453 108.756L174.54 108.16L173.569 107.65C171.341 106.502 168.84 106.005 166.38 106C162.416 106.055 158.744 107.548 155.478 109.71C152.224 107.563 148.566 106.087 144.62 106.029C142.16 106.034 139.659 106.533 137.431 107.679L136.46 108.189L135.547 108.785C135.01 109.103 134.309 109.734 133.819 110.125C133.58 110.312 133.261 110.672 133.038 110.882C131.538 112.359 130.376 114.182 129.354 116.016C125.029 123.707 118.377 131.445 109 126.246C110.78 128.395 113.476 129.766 116.288 129.998C119.209 130.26 122.167 129.249 124.59 127.625C127.621 125.607 129.919 122.919 131.907 119.987C133.165 118.111 134.273 116.103 135.498 114.206C136.089 113.344 136.73 112.443 137.373 111.631C137.576 111.41 138.071 110.843 138.276 110.609C138.489 110.406 139.065 109.86 139.267 109.665L139.626 109.387C144.202 105.656 150.268 106.991 155.247 109.857C153.654 110.935 152.16 112.17 150.779 113.47C149.85 114.248 148.948 115.06 148.071 115.901C147.668 116.284 147.274 116.673 146.885 117.07C146.688 117.27 146.491 117.475 146.296 117.68C145.458 117.506 144.604 117.404 143.73 117.391C141.893 117.388 140.061 117.743 138.357 118.513C137.978 118.707 137.565 118.912 137.192 119.117C136.948 119.277 136.331 119.679 136.094 119.839C135.851 120.002 135.319 120.486 135.075 120.667C134.693 120.988 134.203 121.545 133.848 121.902C132.574 123.345 131.72 125.071 130.721 126.695C127.258 132.439 122.074 137.418 115.193 133.569C118.369 137.347 123.721 137.426 127.68 134.68C130.109 133.064 131.951 130.912 133.541 128.566C134.398 127.315 135.207 125.83 136.03 124.561C136.222 124.238 136.616 123.642 136.839 123.342C137.371 122.538 138.001 121.768 138.647 121.056C138.819 120.893 139.28 120.457 139.441 120.302C140.295 119.592 141.239 119.009 142.313 118.66C143.416 118.308 144.568 118.2 145.728 118.281C140.479 123.965 136.382 130.912 134.88 138.595C133.142 147.487 135.376 154.983 140.111 162.312H139.312H132.825V168.881H139.312V175.45H145.798H152.284V182.019V188.587V195.156V201.725V208.294V214.863V221.432V228.001H145.798V234.57H152.284V241.139H145.798V247.708H152.284H158.77V241.139H165.257V234.57H158.77V228.001H165.257V221.432H158.77V214.863V208.294H158.778V201.725V195.156V188.587V182.019V175.45H165.264H171.751V168.881V168.878H178.24V162.306ZM148.208 117.714C148.447 117.257 148.683 116.815 148.919 116.397C148.945 116.35 148.974 116.295 148.999 116.248C149.547 115.286 150.146 114.371 150.772 113.486C152.123 112.241 153.729 111.024 155.478 109.989C157.24 111.027 158.859 112.251 160.218 113.504C160.838 114.387 161.435 115.296 161.977 116.25C162.003 116.297 162.032 116.353 162.058 116.4C162.294 116.818 162.532 117.259 162.768 117.716C162.839 117.853 162.911 117.992 162.981 118.134C160.21 119.059 157.683 120.751 155.486 122.706C153.288 120.751 150.764 119.059 147.993 118.134C148.065 117.99 148.135 117.85 148.208 117.714ZM143.183 143.007C141.408 135.274 144.459 125.294 147.759 118.602C150.569 119.29 153.309 120.912 155.449 122.701C149.238 127.956 144.379 135.082 143.183 143.007ZM157.743 151.181C157.045 151.757 156.285 152.211 155.486 152.582C154.687 152.211 153.926 151.757 153.229 151.181C145.99 145.201 150.401 131.432 154.227 124.706C154.617 124.023 155.042 123.371 155.483 122.738C155.488 122.738 155.488 122.738 155.486 122.735C155.488 122.735 155.488 122.735 155.488 122.735C155.488 122.735 155.488 122.735 155.488 122.738C155.929 123.371 156.355 124.023 156.744 124.706C160.574 131.432 164.982 145.201 157.743 151.181ZM155.527 122.701C157.668 120.909 160.41 119.29 163.22 118.602C166.518 125.292 169.569 135.274 167.797 143.007C166.601 135.085 161.741 127.956 155.527 122.701Z" fill="white"/>
<path d="M67.398 288.734H58.0898V298.035H67.398V288.734Z" fill="white"/>
<path d="M95.2925 167.812H85.9844V177.113H95.2925V167.812Z" fill="white"/>
<path d="M85.9878 177.125H76.6797V186.426H85.9878V177.125Z" fill="white"/>
<path d="M95.2925 149.211H85.9844V158.512H95.2925V149.211Z" fill="white"/>
<path d="M85.9878 139.914H76.6797V149.215H85.9878V139.914Z" fill="white"/>
<path d="M179.105 242.227H169.797V251.528H179.105V242.227Z" fill="white"/>
<path d="M151.183 251.531H141.875V260.836V270.137H151.183V260.836V251.531Z" fill="white"/>
<path d="M141.867 242.227H132.559V251.528H141.867V242.227Z" fill="white"/>
<path d="M188.414 232.922H179.105V242.223H188.414V232.922Z" fill="white"/>
<path d="M132.562 232.922H123.254V242.223H132.562V232.922Z" fill="white"/>
<path d="M160.488 270.141H151.18V279.442H160.488V270.141Z" fill="white"/>
<path d="M67.4023 279.438V288.738H76.7105H86.0186V279.438H76.7105H67.4023Z" fill="white"/>
<path d="M95.3237 270.141H86.0156V279.442H95.3237V270.141Z" fill="white"/>
<path d="M67.398 28.2891H58.0898V37.59H67.398V28.2891Z" fill="white"/>
<path d="M104.632 46.8906H95.3242V56.1916H104.632V46.8906Z" fill="white"/>
<path d="M86.0186 46.8947H95.3267V37.5938H86.0186H76.7105H67.4023V46.8947H76.7105H86.0186Z" fill="white"/>
<path d="M253.546 288.734H244.238V298.035H253.546V288.734Z" fill="white"/>
<path d="M225.648 167.812H216.34V177.113H225.648V167.812Z" fill="white"/>
<path d="M234.957 177.125H225.648V186.426H234.957V177.125Z" fill="white"/>
<path d="M225.648 149.211H216.34V158.512H225.648V149.211Z" fill="white"/>
<path d="M234.957 139.914H225.648V149.215H234.957V139.914Z" fill="white"/>
<path d="M234.925 279.438H225.617V288.738H234.925H244.237V279.438H234.925Z" fill="white"/>
<path d="M225.621 270.141H216.312V279.442H225.621V270.141Z" fill="white"/>
<path d="M208.012 292.656C204.538 290.257 200.536 288.59 196.395 287.827C190.967 286.793 185.285 287.258 180.155 289.185C179.358 286.045 179.097 282.667 179.097 279.438H179.101V270.137H169.797V260.836V251.531H160.488V260.836V270.137H169.793V279.438H169.789C169.789 279.438 169.789 287.173 172.853 292.772C172.917 292.891 172.987 293.006 173.051 293.121C172.954 293.196 172.853 293.263 172.757 293.341C171.059 294.688 169.592 296.25 168.233 297.906C167.674 298.557 167.116 299.264 166.595 299.997C165.939 300.871 165.295 301.76 164.658 302.646C163.478 304.212 162.026 306.433 160.299 308.103C158.846 309.45 157.312 310.388 155.805 310.388C154.546 310.388 153.262 309.725 152.025 308.714C150.004 307.006 148.325 304.409 146.995 302.646C146.277 301.649 145.551 300.651 144.806 299.669C144.486 299.23 144.151 298.806 143.816 298.397C142.345 296.559 140.759 294.822 138.897 293.341C138.801 293.267 138.7 293.196 138.603 293.121C138.67 293.002 138.737 292.887 138.801 292.772C141.865 287.169 141.865 279.438 141.865 279.438V270.137H132.557V279.438C132.557 282.671 132.296 286.045 131.499 289.185C126.369 287.258 120.687 286.793 115.258 287.827C111.118 288.59 107.119 290.257 103.642 292.656C99.4644 295.342 94.0173 301.124 97.9453 306.146C101.274 309.941 108.385 309.74 113.024 309.547C123.855 308.952 132.832 303.047 138.309 293.642C139.679 294.647 140.967 295.793 142.155 297.072C142.189 297.11 142.226 297.151 142.259 297.188C142.952 297.943 143.615 298.739 144.236 299.584C144.389 299.77 144.538 299.959 144.687 300.149C144.769 300.265 144.855 300.384 144.936 300.499C145.104 300.748 145.286 301.012 145.473 301.291C147.863 304.833 151.869 310.76 155.827 310.76C159.766 310.76 163.776 304.822 166.17 301.273C166.353 301.001 166.528 300.744 166.691 300.499C166.732 300.439 166.773 300.384 166.814 300.324C167.008 300.075 167.201 299.826 167.399 299.584C169.115 297.255 171.118 295.268 173.33 293.642C178.807 303.047 187.784 308.952 198.614 309.547C203.254 309.74 210.361 309.941 213.694 306.146C217.637 301.124 212.189 295.342 208.012 292.656ZM130.014 293.393C128.979 295.532 127.579 297.541 125.877 299.204C121.882 303.17 116.468 305.626 110.88 306.217C108.024 306.519 104.904 306.355 102.149 305.54C101.315 305.294 100.481 304.963 99.8628 304.353C98.2171 302.72 99.0995 300.03 100.146 298.319C101.207 296.581 102.797 295.264 104.375 294.018C107.51 291.548 111.651 290.082 115.553 289.174C120.955 287.891 126.383 288.199 131.306 289.933C130.963 291.131 130.539 292.295 130.014 293.393ZM211.802 304.35C211.188 304.96 210.35 305.291 209.516 305.536C206.761 306.351 203.637 306.515 200.785 306.213C195.196 305.622 189.779 303.166 185.788 299.201C184.086 297.538 182.686 295.529 181.651 293.389C181.126 292.292 180.702 291.131 180.359 289.929C185.281 288.196 190.71 287.887 196.112 289.17C200.011 290.078 204.155 291.54 207.29 294.014C208.872 295.261 210.458 296.574 211.519 298.315C212.565 300.03 213.448 302.716 211.802 304.35Z" fill="white"/>
<path d="M253.519 28.2344H244.211V37.5353H253.519V28.2344Z" fill="white"/>
<path d="M216.285 46.8359H206.977V56.1369H216.285V46.8359Z" fill="white"/>
<path d="M234.901 46.84H244.209V37.5391H234.901H225.593H216.281V46.84H225.593H234.901Z" fill="white"/>
<path d="M160.488 28.2853V18.9844H151.18V28.2853H160.488Z" fill="white"/>
<path d="M141.867 46.8947V37.5938H132.559V46.8947V56.1957H141.867V46.8947Z" fill="white"/>
<path d="M169.8 46.891H179.108V37.59H169.8V28.2891H160.492V37.59H169.8V46.891Z" fill="white"/>
<path d="M48.8815 167.812H48.8145V167.816C48.6357 167.827 48.4682 167.816 48.3006 167.816C39.6292 167.816 34.6847 170.469 29.0775 174.465C22.4539 179.186 19.479 186.589 19.9258 194.622C20.0375 196.973 20.4322 199.406 21.1805 201.705C17.6323 203.811 14.6797 206.888 12.9522 210.69C10.1225 216.669 8.972 222.915 11.4331 228.377C9.32943 233.25 10.0108 238.868 12.4123 244.415C14.0505 248.831 17.2748 252.447 21.2587 254.832C21.0316 255.535 20.838 256.242 20.6891 256.957C19.1067 264.379 20.1827 271.905 25.2165 277.742C31.1625 284.629 39.7037 288.677 48.7809 288.732V288.736H58.0891V279.435H48.9559V279.431C44.2609 279.431 39.5026 279.301 35.0868 277.538C32.6295 276.556 30.362 275.116 28.4967 273.233C25.9202 270.603 24.524 267.087 24.1591 263.389C23.9171 261.09 23.9506 258.683 24.3937 256.395C26.851 257.381 29.4871 257.931 32.1492 257.965C36.3602 258.032 40.9435 257.098 44.2572 254.341C46.0518 252.853 46.9044 250.245 46.0928 247.979C45.2588 245.758 42.9466 244.441 40.7871 243.798C36.4607 242.536 31.6503 243.206 27.8638 245.714C24.7995 247.674 22.681 250.818 21.4635 254.218C18.4923 252.485 15.9494 250.037 14.2367 246.997C11.1352 241.201 9.40018 234.705 11.6974 228.935C12.5836 230.702 13.8569 232.38 15.5957 233.935C21.6683 239.285 28.6531 236.941 34.3869 232.45C35.8501 231.327 37.1942 230.084 38.475 228.778C43.1402 233.812 46.9975 239.72 52.9435 243.344C60.0438 247.737 68.9163 247.072 75.8899 242.801C80.8716 239.828 85.1384 235.285 87.9495 230.04C88.5266 231.383 89.0032 232.752 89.3718 234.121C89.9824 236.26 90.3249 238.727 90.3137 241.216C87.8601 242.082 85.5145 243.236 83.355 244.769C81.6982 246.056 80.1046 247.641 79.4344 249.68C78.6451 251.904 79.4754 254.356 82.0519 254.669C85.4102 255.048 88.2771 252.347 89.476 249.427C90.6414 246.796 91.252 244.065 91.4009 241.324C92.5961 240.94 93.8024 240.613 94.9976 240.33C101.275 238.809 107.72 239.095 114.128 238.868V238.392C111.883 238.507 109.63 238.503 107.377 238.567C102.072 238.76 96.539 239.233 91.427 240.844C91.5722 236.584 90.593 232.313 88.7909 228.362C90.6488 224.355 91.6578 220.013 91.5052 215.683C96.6433 217.301 102.09 217.803 107.459 217.978C109.693 218.045 111.912 218.041 114.128 218.153V217.677C107.75 217.457 101.335 217.733 95.0907 216.222C93.8918 215.939 92.6855 215.612 91.494 215.229C91.3451 212.487 90.7382 209.756 89.5691 207.126C88.3702 204.209 85.4996 201.504 82.1449 201.884C78.7754 202.326 78.6823 205.972 80.194 208.331C82.1896 211.501 85.615 213.41 88.9883 214.79C89.4574 214.976 89.9265 215.151 90.3994 215.314C90.4366 219.161 89.5579 223.06 87.9793 226.714C85.1682 221.379 80.853 216.754 75.808 213.744C68.8381 209.473 59.9619 208.807 52.8616 213.201C46.9528 216.806 43.103 222.666 38.475 227.677C37.2203 226.405 35.906 225.192 34.48 224.098C29.2488 219.976 22.5023 217.42 16.6158 221.866C14.3409 223.641 12.7325 225.65 11.69 227.811C9.27359 221.989 11.0198 215.411 14.1548 209.548C15.8675 206.504 18.4142 204.053 21.3927 202.319C22.614 205.742 24.6543 208.826 27.7781 210.835C31.5609 213.346 36.3751 214.016 40.7015 212.751C42.8573 212.104 45.1694 210.79 46.0034 208.569C46.8151 206.304 45.9662 203.696 44.1678 202.207C41.2488 199.767 37.3766 198.8 33.6534 198.602C30.4737 198.42 27.2606 198.978 24.3043 200.161C23.8613 197.869 23.824 195.459 24.0698 193.159C24.4346 189.461 25.8346 185.946 28.4073 183.315C33.322 178.352 39.7558 177.117 47.0236 177.117C47.4257 177.117 48.0475 177.117 48.8629 177.117V177.113H58.1226V167.812H48.8815ZM29.3568 247.819C32.3763 245.487 36.591 244.635 40.3217 245.513C42.0456 245.937 44.0226 246.837 44.7487 248.496C45.4524 250.223 44.8492 252.217 43.4604 253.478C41.3158 255.498 38.1436 256.484 35.2283 256.964C31.6391 257.481 27.927 257.009 24.5501 255.703C25.2612 252.619 26.7579 249.799 29.3568 247.819ZM87.3165 251.759C85.8198 253.623 82.9864 255.07 80.7078 253.802C78.3882 252.198 79.777 248.868 81.3593 247.205C83.7757 244.586 86.9517 242.882 90.31 241.688C90.2244 245.36 89.3383 249.043 87.3165 251.759ZM81.4524 209.343C80.1493 207.911 79.0398 205.746 79.8477 203.833C80.7636 201.876 83.4332 202.007 85.09 202.896C86.8921 203.818 88.2064 205.519 88.9026 207.405C89.8409 209.801 90.3137 212.312 90.3882 214.853C87.0373 213.662 83.8651 211.959 81.4524 209.343ZM47.4331 218.934C50.3 216.006 53.6584 213.536 57.5976 212.334C69.8843 208.681 81.7764 217.491 87.1937 228.399C82.5955 237.559 73.5778 244.798 63.6702 245.066C57.4487 245.245 51.7298 242.03 47.5262 237.614C44.5588 234.627 41.9376 231.271 39.0111 228.224C41.9004 225.207 44.4992 221.892 47.4331 218.934ZM14.8696 224.027C20.8417 217.703 27.9754 219.678 34.0518 224.623C35.448 225.72 36.7362 226.944 37.9612 228.228C36.7102 229.545 35.3996 230.799 33.9699 231.922C27.8824 236.87 20.7635 238.838 14.7877 232.517C13.5441 231.2 12.6096 229.805 11.9394 228.365C12.6171 226.859 13.5739 225.404 14.8696 224.027ZM35.1315 199.585C38.0505 200.065 41.219 201.05 43.3636 203.071C44.7487 204.332 45.3556 206.326 44.6519 208.052C43.9258 209.711 41.9488 210.612 40.2249 211.036C36.498 211.918 32.2832 211.066 29.2637 208.733C26.6649 206.754 25.1681 203.934 24.4533 200.849C27.8302 199.536 31.5423 199.067 35.1315 199.585Z" fill="white"/>
<path d="M298.732 80.4005C297.004 76.5982 294.055 73.5215 290.503 71.4157C291.248 69.1165 291.646 66.6871 291.758 64.3358C292.205 56.3035 289.23 48.8963 282.606 44.1788C276.999 40.1831 272.055 37.5305 263.383 37.5305C263.193 37.5305 263.011 37.5454 262.802 37.5268V37.5305H253.517V46.8314H262.825C263.636 46.8314 264.258 46.8314 264.66 46.8314C271.928 46.8314 278.362 48.0666 283.276 53.0296C285.849 55.6599 287.249 59.1757 287.614 62.8737C287.856 65.1729 287.823 67.5837 287.379 69.8755C284.423 68.6924 281.21 68.1344 278.03 68.3167C274.311 68.5101 270.435 69.4811 267.516 71.9217C265.718 73.4099 264.869 76.0141 265.68 78.2836C266.514 80.5046 268.827 81.8216 270.982 82.4653C275.309 83.7265 280.119 83.0568 283.906 80.5493C287.029 78.544 289.066 75.4635 290.291 72.0408C293.27 73.7745 295.813 76.2225 297.525 79.2657C300.649 85.103 302.392 91.6509 300.012 97.4584C298.97 95.3229 297.373 93.3437 295.124 91.5876C289.237 87.1418 282.495 89.6977 277.26 93.8199C275.823 94.9248 274.497 96.1451 273.235 97.4286C268.596 92.4098 264.742 86.5316 258.818 82.9192C251.722 78.5254 242.846 79.1913 235.872 83.4623C230.846 86.461 226.545 91.0631 223.731 96.3721C222.167 92.7372 221.303 88.8606 221.34 85.0361C221.813 84.8686 222.286 84.6975 222.751 84.5115C226.125 83.1312 229.55 81.2227 231.546 78.0529C233.057 75.6942 232.964 72.0482 229.595 71.6055C226.24 71.226 223.369 73.927 222.171 76.8475C221.005 79.4778 220.395 82.2086 220.246 84.9505C219.054 85.3337 217.844 85.6611 216.649 85.9438C215.949 86.1112 215.249 86.2563 214.549 86.3828C213.41 83.4102 210.48 80.7241 208 79.1318C204.53 76.7322 200.535 75.0691 196.398 74.3065C190.947 73.2648 185.236 73.741 180.087 75.6905C179.137 72.2789 179.122 69.0161 179.122 65.5003L176.792 65.4929H179.104V56.1919V46.891H169.796V56.1919V65.4929H169.807C169.807 65.7868 169.811 66.077 169.814 66.3709L169.803 66.3523C169.803 66.3523 169.509 72.7662 173.031 79.6229C172.949 79.6861 172.864 79.7457 172.782 79.8089C171.542 80.7911 170.425 81.8849 169.386 83.0494C168.407 84.0874 167.316 85.3486 166.389 86.7102C166.266 86.8888 166.139 87.0785 166.005 87.2757C165.775 86.7251 165.547 86.1671 165.328 85.5867C162.502 78.0752 160.469 69.9722 160.469 61.9474C160.469 58.093 160.454 54.1978 160.439 50.2282C160.592 45.9609 160.488 41.7271 160.488 37.5863H160.409C160.409 37.5677 160.409 37.5528 160.409 37.5342L151.179 37.5268V28.2891H141.871V37.59H151.109C151.109 41.7122 151.004 45.9311 151.157 50.1798C151.142 54.1866 151.127 58.1191 151.127 62.0106C151.127 70.0355 149.094 78.1385 146.268 85.6499C146.064 86.1856 145.851 86.7102 145.639 87.2236C145.431 86.9409 145.219 86.6581 145.006 86.3754C144.496 85.6574 143.949 84.9654 143.398 84.3255C142.046 82.6848 140.587 81.1371 138.904 79.8015C138.822 79.7382 138.736 79.675 138.651 79.6155C142.165 72.7625 141.871 66.356 141.871 66.356C141.879 66.0584 141.879 65.7608 141.879 65.4631H141.868V56.1956H132.559V65.4966H132.563C132.563 69.0124 132.548 72.2751 131.599 75.683C126.45 73.7335 120.738 73.2573 115.287 74.299C111.155 75.0654 107.16 76.7247 103.686 79.1244C101.191 80.7278 98.2349 83.4437 97.1142 86.4424C96.4068 86.3159 95.7031 86.1708 94.9994 85.9996C93.8005 85.7169 92.5942 85.3895 91.4027 85.0063C91.2538 82.2644 90.6469 79.5336 89.4778 76.9033C88.2789 73.9865 85.4083 71.2818 82.0537 71.6613C78.6841 72.104 78.591 75.75 80.1027 78.1087C82.0983 81.2785 85.5237 83.187 88.897 84.5673C89.3661 84.7533 89.8352 84.9282 90.3081 85.0919C90.3453 88.935 89.4704 92.8302 87.8917 96.4837C85.0807 91.1524 80.7654 86.5354 75.7241 83.5256C68.7505 79.2546 59.8743 78.5886 52.7778 82.9824C46.8653 86.5875 43.0191 92.4471 38.3912 97.4621C37.1327 96.186 35.8184 94.9732 34.3887 93.8757C29.1575 89.7535 22.411 87.1976 16.5245 91.6435C14.2496 93.4181 12.6449 95.4196 11.6024 97.5812C9.18974 91.7588 10.9359 85.1849 14.0709 79.329C15.7836 76.2857 18.3303 73.8377 21.3052 72.104C22.5264 75.5268 24.5667 78.6072 27.6905 80.6125C31.4771 83.12 36.2875 83.7897 40.6139 82.5285C42.7697 81.8849 45.0818 80.5679 45.9158 78.3468C46.7275 76.0774 45.8786 73.4731 44.0803 71.985C41.1612 69.5444 37.2853 68.5734 33.5658 68.3799C30.3862 68.1976 27.173 68.7557 24.2168 69.9387C23.7737 67.647 23.7402 65.2362 23.9822 62.937C24.3471 59.2389 25.747 55.7232 28.3198 53.0928C33.2345 48.1299 39.6682 46.8947 46.936 46.8947C47.3381 46.8947 47.9599 46.8947 48.7753 46.8947L48.779 45.0308V46.891H58.0871V37.59H48.779C48.578 37.6049 48.3992 37.5937 48.2131 37.5937C39.5416 37.5937 34.5972 40.2464 28.99 44.2421C22.3663 48.9595 19.3914 56.3668 19.8382 64.3991C19.9499 66.7504 20.3446 69.1798 21.093 71.479C17.5447 73.5847 14.5922 76.6615 12.8646 80.4637C10.0349 86.4424 8.88816 92.6852 11.3455 98.1467C9.23814 103.024 9.91577 108.642 12.321 114.193C13.9592 118.609 17.1835 122.225 21.1674 124.61C20.9403 125.313 20.7467 126.02 20.5978 126.734C19.0154 134.156 20.0914 141.683 25.1252 147.52C31.0973 154.436 39.6906 158.491 48.8125 158.514H58.1206V167.815H67.3655V177.116H76.6736V167.815H67.4288V158.514H76.6773V149.213H67.3655V158.51H58.1206V149.213H48.8646V149.209C44.1696 149.209 39.4113 149.079 34.9956 147.315C32.5382 146.333 30.2708 144.893 28.4054 143.011C25.8289 140.38 24.4327 136.865 24.0678 133.167C23.8258 130.867 23.8593 128.46 24.3024 126.172C26.7597 127.158 29.3958 127.709 32.0579 127.742C36.2689 127.809 40.8522 126.875 44.1659 124.119C45.9605 122.631 46.8131 120.023 46.0015 117.757C45.1675 115.536 42.8553 114.219 40.6958 113.575C36.3694 112.314 31.559 112.984 27.7725 115.491C24.7082 117.452 22.5897 120.595 21.3722 123.996C18.401 122.262 15.8581 119.814 14.1454 116.775C11.0439 110.975 9.30516 104.479 11.6098 98.7047C12.496 100.472 13.7693 102.154 15.5081 103.709C21.577 109.059 28.5655 106.715 34.2993 102.224C35.7588 101.104 37.1029 99.8618 38.3837 98.5559C43.0489 103.59 46.9062 109.498 52.8522 113.121C59.9525 117.515 68.825 116.849 75.7986 112.578C80.7803 109.605 85.0509 105.059 87.8619 99.8097C88.439 101.153 88.9156 102.522 89.2842 103.895C89.8948 106.034 90.2411 108.504 90.2262 110.993C87.7763 111.86 85.4344 113.01 83.2749 114.546C81.618 115.83 80.0245 117.418 79.3543 119.457C78.565 121.682 79.3953 124.137 81.9717 124.446C85.3264 124.826 88.197 122.121 89.3959 119.204C90.5613 116.574 91.1719 113.839 91.3171 111.094C92.5085 110.71 93.7111 110.387 94.9063 110.104C103.079 108.128 111.545 109.215 119.837 108.24C125.616 107.429 131.443 106.064 136.689 103.43C141.763 100.587 145.427 96.4427 148.272 91.6509C150.472 94.4895 153.16 97.1831 155.83 97.1831C158.481 97.1831 161.161 94.4933 163.362 91.6546C166.199 96.4204 169.855 100.543 174.908 103.37C180.154 106.004 185.981 107.37 191.759 108.181C200.051 109.155 208.517 108.069 216.69 110.044C217.885 110.327 219.088 110.655 220.279 111.034C220.424 113.78 221.035 116.51 222.2 119.145C223.399 122.061 226.27 124.766 229.624 124.387C232.201 124.078 233.031 121.622 232.242 119.397C231.572 117.359 229.978 115.77 228.321 114.487C226.162 112.954 223.82 111.8 221.37 110.934C221.355 108.441 221.701 105.974 222.312 103.835C222.684 102.444 223.168 101.06 223.757 99.6981C226.568 104.97 230.849 109.538 235.85 112.526C242.823 116.797 251.696 117.463 258.796 113.069C264.731 109.449 268.588 103.552 273.242 98.5262C274.516 99.8209 275.849 101.052 277.297 102.165C283.031 106.655 290.019 108.999 296.088 103.649C297.846 102.075 299.13 100.375 300.016 98.5894C302.358 104.378 300.623 110.9 297.503 116.723C295.79 119.762 293.251 122.21 290.276 123.944C289.059 120.543 286.94 117.396 283.876 115.439C280.093 112.931 275.279 112.258 270.953 113.523C268.797 114.17 266.481 115.484 265.647 117.705C264.835 119.97 265.688 122.578 267.482 124.067C270.796 126.823 275.376 127.757 279.59 127.69C282.253 127.66 284.889 127.11 287.346 126.12C287.789 128.412 287.823 130.819 287.581 133.115C287.216 136.813 285.819 140.328 283.243 142.959C281.378 144.841 279.11 146.281 276.653 147.263C272.241 149.03 267.486 149.157 262.795 149.157V149.153H253.487V158.454H262.765V158.462C271.913 158.462 280.536 154.403 286.523 147.468C291.561 141.631 292.633 134.104 291.051 126.682C290.898 125.971 290.704 125.261 290.481 124.558C294.465 122.173 297.693 118.557 299.327 114.141C301.74 108.567 302.414 102.924 300.277 98.0313C302.701 92.5773 301.55 86.3568 298.732 80.4005ZM282.42 78.4473C279.401 80.7799 275.186 81.6319 271.455 80.7539C269.731 80.326 267.754 79.4257 267.028 77.7701C266.325 76.0476 266.931 74.0498 268.316 72.7886C270.465 70.7684 273.63 69.7825 276.549 69.3026C280.138 68.7854 283.85 69.2579 287.231 70.5675C286.512 73.648 285.019 76.468 282.42 78.4473ZM222.844 77.1228C223.541 75.2366 224.855 73.5326 226.657 72.6137C228.31 71.7208 230.983 71.5906 231.899 73.5512C232.711 75.4635 231.598 77.6288 230.295 79.0611C227.882 81.6765 224.71 83.3805 221.359 84.571C221.433 82.03 221.906 79.5187 222.844 77.1228ZM81.3611 79.1169C80.058 77.6846 78.9485 75.5193 79.7564 73.607C80.6723 71.6501 83.3419 71.7803 84.9987 72.6695C86.8008 73.5922 88.1151 75.2924 88.8113 77.1786C89.7496 79.5745 90.2225 82.0858 90.2969 84.6268C86.946 83.4363 83.7738 81.7324 81.3611 79.1169ZM35.0477 69.3621C37.9667 69.842 41.1315 70.8279 43.2798 72.8481C44.6648 74.1093 45.2717 76.1071 44.568 77.8297C43.842 79.4852 41.8649 80.3856 40.1411 80.8134C36.4104 81.6914 32.1957 80.8395 29.1761 78.5068C26.5773 76.5275 25.0843 73.7075 24.3657 70.627C27.7464 69.3174 31.4585 68.8449 35.0477 69.3621ZM29.2655 117.589C32.285 115.257 36.4997 114.405 40.2304 115.283C41.9543 115.707 43.9313 116.607 44.6574 118.267C45.3611 119.993 44.7579 121.987 43.3691 123.248C41.2245 125.268 38.0523 126.254 35.137 126.734C31.5478 127.251 27.8358 126.779 24.4588 125.473C25.1699 122.392 26.6629 119.569 29.2655 117.589ZM276.526 126.678C273.607 126.198 270.439 125.212 268.294 123.192C266.905 121.931 266.302 119.937 267.006 118.211C267.732 116.551 269.705 115.651 271.433 115.227C275.16 114.345 279.378 115.197 282.398 117.534C284.993 119.513 286.486 122.333 287.204 125.417C283.828 126.727 280.115 127.195 276.526 126.678ZM196.123 75.5863C201.864 76.9517 207.382 80.0805 210.978 84.8017C211.418 85.3895 211.794 86.0666 212.04 86.7623C207.27 87.3464 202.43 87.2311 197.612 87.3985V87.8747C199.835 87.7594 202.058 87.7594 204.28 87.6998C206.902 87.6143 209.541 87.4506 212.151 87.1157C212.65 88.842 212.323 90.6315 210.282 91.5132C207.516 92.7186 204.035 92.4136 201.019 92.1829C195.423 91.5876 189.771 89.6382 185.776 85.6685C183.155 83.1015 181.36 79.861 180.288 76.375C185.229 74.6153 190.691 74.2953 196.123 75.5863ZM100.703 84.7979C104.296 80.0805 109.814 76.9517 115.559 75.5826C120.991 74.2916 126.45 74.6115 131.394 76.3713C130.318 79.861 128.523 83.1015 125.906 85.6648C121.911 89.6344 116.259 91.5876 110.663 92.1792C107.647 92.4099 104.166 92.7112 101.4 91.5095C99.3779 90.6389 99.0391 88.8792 99.512 87.1715C102.118 87.5027 104.751 87.6664 107.368 87.7519C109.598 87.8152 111.821 87.8152 114.036 87.9268V87.4506C109.222 87.2832 104.389 87.3985 99.6236 86.8181C99.8694 86.1001 100.253 85.4006 100.703 84.7979ZM33.886 101.7C27.7985 106.651 20.6797 108.616 14.7039 102.295C13.4566 100.974 12.522 99.5753 11.8519 98.1318C12.5295 96.6288 13.4826 95.1741 14.7783 93.8013C20.7504 87.4766 27.8842 89.4521 33.9605 94.3965C35.3604 95.4978 36.6487 96.7218 37.8736 98.009C36.6263 99.326 35.3158 100.576 33.886 101.7ZM63.5789 114.84C57.3574 115.019 51.6385 111.804 47.4349 107.388C44.4675 104.401 41.8463 101.045 38.9199 97.9979C41.8091 94.9769 44.4116 91.662 47.3456 88.7043C50.2125 85.7764 53.5708 83.3024 57.51 82.1044C69.7967 78.451 81.6888 87.2571 87.1061 98.169C82.5042 107.329 73.4902 114.572 63.5789 114.84ZM87.2252 121.533C85.7285 123.397 82.8951 124.844 80.6165 123.575C78.2969 121.972 79.6857 118.642 81.2681 116.979C83.6844 114.36 86.8604 112.652 90.2187 111.462C90.1331 115.134 89.247 118.817 87.2252 121.533ZM125.698 105.848C122.786 106.897 119.744 107.652 116.657 107.976C113.549 108.3 110.425 108.259 107.294 108.344C101.984 108.534 96.4552 109.006 91.3432 110.621C91.4884 106.358 90.5091 102.083 88.7034 98.1318C90.5576 94.1287 91.5666 89.787 91.4139 85.4602C93.2383 86.0368 95.1036 86.4684 96.9913 86.7958C96.3807 88.6895 96.5259 90.6799 97.9966 92.5661C101.318 96.3497 108.418 96.1451 113.046 95.9554C120.72 95.535 127.485 92.6219 132.519 87.5138C132.533 87.5027 132.545 87.4915 132.559 87.4803C135.162 85.1774 137.035 82.6215 138.386 80.1065C139.217 80.7204 140.021 81.3864 140.788 82.1007C141.652 82.9415 142.769 84.1022 143.822 85.4267C143.975 85.6201 144.128 85.8136 144.273 86.0145C144.306 86.0554 144.34 86.0964 144.37 86.1373C144.563 86.394 144.753 86.6581 144.932 86.9223C145.092 87.1567 145.263 87.4097 145.442 87.6738C141.454 96.9115 135.508 102.261 125.698 105.848ZM155.804 96.8073C154.43 96.8073 153.03 96.0186 151.69 94.8504C150.517 93.7864 149.467 92.4508 148.536 91.1896C151.73 85.6536 153.868 79.2992 155.804 73.0973C157.747 79.3178 159.896 85.6871 163.112 91.2305C162.494 92.0676 161.82 92.9344 161.094 93.7343C159.419 95.4903 157.595 96.8073 155.804 96.8073ZM230.328 116.92C231.911 118.583 233.299 121.912 230.98 123.516C228.701 124.785 225.868 123.337 224.371 121.473C222.349 118.758 221.463 115.074 221.377 111.402C224.736 112.593 227.912 114.301 230.328 116.92ZM220.253 110.562C215.141 108.947 209.608 108.478 204.303 108.285C201.171 108.199 198.048 108.24 194.939 107.916C191.852 107.593 188.81 106.837 185.899 105.788C176.114 102.213 170.172 96.878 166.18 87.6812C166.337 87.4469 166.489 87.2274 166.631 87.0116C166.888 86.6767 167.145 86.3456 167.409 86.0182C169.111 83.7079 171.103 81.7361 173.296 80.114C174.647 82.6252 176.52 85.1737 179.115 87.4729C179.134 87.4915 179.152 87.5064 179.171 87.5213C184.205 92.6219 190.966 95.535 198.64 95.9591C203.268 96.1488 210.368 96.3535 213.689 92.5698C215.178 90.6613 215.309 88.6485 214.672 86.7325C216.552 86.4052 218.414 85.9736 220.234 85.4007C220.086 89.7051 221.08 94.0245 222.919 98.009C221.095 101.982 220.108 106.279 220.253 110.562ZM264.213 107.336C260.01 111.752 254.291 114.967 248.069 114.788C238.14 114.516 229.107 107.247 224.516 98.0574C229.945 87.1716 241.818 78.3952 254.086 82.0449C258.025 83.2428 261.384 85.7169 264.251 88.6448C267.196 91.6137 269.806 94.9434 272.706 97.9718C269.791 101.011 267.173 104.356 264.213 107.336ZM296.892 102.235C290.917 108.556 283.798 106.592 277.71 101.64C276.292 100.528 274.992 99.2888 273.752 97.9793C274.985 96.6809 276.28 95.4494 277.688 94.3444C283.764 89.4001 290.898 87.4245 296.87 93.7492C298.147 95.1034 299.097 96.532 299.77 98.0165C299.097 99.4823 298.155 100.896 296.892 102.235Z" fill="white"/>
<path d="M298.695 210.69C296.967 206.888 294.019 203.811 290.467 201.706C291.215 199.406 291.61 196.973 291.721 194.622C292.168 186.59 289.193 179.182 282.57 174.465C276.962 170.469 272.018 167.817 263.347 167.817C263.168 167.817 262.993 167.828 262.799 167.813H253.513V158.508H244.269V149.211H234.96V158.512H244.205V167.813H234.96V177.114H244.269V167.813H253.491V177.114H262.784V177.118C263.6 177.118 264.221 177.118 264.624 177.118C271.891 177.118 278.325 178.353 283.24 183.316C285.813 185.946 287.213 189.462 287.577 193.16C287.823 195.459 287.786 197.87 287.343 200.162C284.387 198.978 281.173 198.42 277.994 198.603C274.274 198.796 270.398 199.767 267.479 202.208C265.681 203.696 264.832 206.3 265.644 208.57C266.478 210.791 268.79 212.108 270.946 212.751C275.272 214.013 280.082 213.343 283.869 210.835C286.993 208.826 289.033 205.746 290.254 202.319C293.233 204.053 295.78 206.505 297.492 209.548C300.616 215.385 302.362 221.941 299.976 227.752C298.933 225.613 297.336 223.63 295.083 221.87C289.197 217.424 282.454 219.98 277.219 224.102C275.782 225.203 274.46 226.427 273.198 227.707C268.559 222.688 264.705 216.814 258.786 213.202C251.689 208.808 242.813 209.474 235.839 213.745C230.809 216.747 226.509 221.349 223.698 226.662C222.134 223.023 221.266 219.143 221.3 215.318C221.773 215.151 222.246 214.98 222.711 214.794C226.084 213.414 229.51 211.505 231.505 208.335C233.017 205.977 232.924 202.331 229.554 201.888C226.2 201.508 223.329 204.209 222.13 207.13C220.965 209.76 220.354 212.491 220.205 215.233C219.014 215.616 217.804 215.943 216.609 216.226C210.365 217.737 203.95 217.461 197.572 217.681V218.157C199.794 218.042 202.017 218.045 204.24 217.982C209.609 217.807 215.056 217.305 220.194 215.687C220.045 219.995 221.043 224.318 222.882 228.306C221.062 232.272 220.075 236.566 220.22 240.844C215.108 239.233 209.575 238.761 204.27 238.567C202.017 238.504 199.765 238.508 197.52 238.392V238.868C203.927 239.095 210.376 238.813 216.65 240.331C217.845 240.613 219.055 240.941 220.246 241.324C220.395 244.066 221.002 246.797 222.171 249.427C223.37 252.344 226.241 255.048 229.595 254.669C232.172 254.36 233.002 251.905 232.213 249.68C231.543 247.641 229.949 246.052 228.292 244.769C226.133 243.232 223.787 242.083 221.333 241.216C221.322 238.727 221.665 236.26 222.275 234.121C222.648 232.73 223.132 231.346 223.72 229.984C226.531 235.252 230.813 239.817 235.809 242.805C242.783 247.076 251.656 247.742 258.756 243.348C264.691 239.728 268.548 233.835 273.202 228.805C274.475 230.099 275.812 231.335 277.26 232.451C282.994 236.941 289.983 239.285 296.051 233.935C297.809 232.361 299.093 230.665 299.98 228.875C302.314 234.664 300.579 241.179 297.463 247.001C295.75 250.041 293.211 252.489 290.236 254.222C289.018 250.822 286.9 247.675 283.836 245.718C280.053 243.21 275.239 242.537 270.912 243.802C268.756 244.449 266.441 245.762 265.607 247.983C264.795 250.249 265.647 252.857 267.442 254.345C270.756 257.102 275.335 258.036 279.55 257.969C282.212 257.939 284.848 257.388 287.306 256.399C287.749 258.691 287.782 261.098 287.54 263.393C287.175 267.091 285.779 270.607 283.203 273.237C281.337 275.12 279.07 276.56 276.612 277.542C272.197 279.309 267.438 279.435 262.743 279.435H253.547V288.736H262.725V288.74C271.873 288.74 280.496 284.681 286.483 277.746C291.52 271.909 292.593 264.383 291.01 256.961C290.858 256.25 290.664 255.539 290.441 254.836C294.424 252.452 297.652 248.835 299.287 244.419C301.7 238.85 302.374 233.206 300.24 228.317C302.664 222.871 301.513 216.647 298.695 210.69ZM282.383 208.733C279.364 211.066 275.149 211.918 271.422 211.036C269.698 210.608 267.721 209.708 266.995 208.052C266.292 206.33 266.898 204.332 268.284 203.071C270.432 201.051 273.597 200.065 276.516 199.585C280.105 199.068 283.817 199.54 287.194 200.85C286.479 203.934 284.982 206.754 282.383 208.733ZM222.804 207.409C223.5 205.523 224.815 203.819 226.617 202.9C228.27 202.007 230.943 201.877 231.859 203.837C232.671 205.75 231.557 207.915 230.254 209.347C227.842 211.959 224.669 213.663 221.319 214.857C221.393 212.316 221.866 209.805 222.804 207.409ZM230.288 247.21C231.87 248.873 233.259 252.202 230.939 253.806C228.661 255.074 225.827 253.627 224.331 251.763C222.309 249.044 221.426 245.364 221.337 241.692C224.692 242.886 227.871 244.59 230.288 247.21ZM276.486 256.964C273.567 256.484 270.398 255.499 268.254 253.478C266.865 252.217 266.262 250.223 266.966 248.497C267.692 246.837 269.665 245.937 271.392 245.513C275.119 244.631 279.338 245.483 282.357 247.82C284.952 249.799 286.446 252.619 287.164 255.703C283.787 257.013 280.075 257.482 276.486 256.964ZM264.173 237.618C259.97 242.034 254.251 245.249 248.029 245.07C238.103 244.799 229.07 237.533 224.48 228.347C229.908 217.461 241.781 208.685 254.05 212.335C257.989 213.533 261.347 216.007 264.214 218.935C267.159 221.9 269.765 225.226 272.666 228.254C269.75 231.294 267.129 234.638 264.173 237.618ZM296.859 232.518C290.884 238.839 283.761 236.874 277.677 231.922C276.259 230.806 274.956 229.567 273.716 228.258C274.948 226.963 276.24 225.732 277.648 224.627C283.724 219.682 290.858 217.707 296.83 224.032C298.11 225.389 299.06 226.822 299.734 228.306C299.06 229.768 298.122 231.182 296.859 232.518Z" fill="white"/>
</svg>
