<svg width="311" height="311" viewBox="0 0 311 311" fill="none" xmlns="http://www.w3.org/2000/svg">
<path d="M67.3989 288.738H58.0908V298.039H67.3989V288.738Z" fill="white"/>
<path d="M95.2925 167.818H85.9844V177.119H95.2925V167.818Z" fill="white"/>
<path d="M85.9863 177.125H76.6782V186.426H85.9863V177.125Z" fill="white"/>
<path d="M95.2925 149.213H85.9844V158.514H95.2925V149.213Z" fill="white"/>
<path d="M85.9863 139.914H76.6782V149.215H85.9863V139.914Z" fill="white"/>
<path d="M179.105 242.227H169.797V251.528H179.105V242.227Z" fill="white"/>
<path d="M151.182 251.533H141.874V260.838V270.139H151.182V260.838V251.533Z" fill="white"/>
<path d="M141.869 242.227H132.561V251.528H141.869V242.227Z" fill="white"/>
<path d="M188.415 232.928H179.107V242.229H188.415V232.928Z" fill="white"/>
<path d="M132.562 232.928H123.254V242.229H132.562V232.928Z" fill="white"/>
<path d="M160.489 270.139H151.181V279.44H160.489V270.139Z" fill="white"/>
<path d="M67.4009 279.438V288.738H76.709H86.0171V279.438H76.709H67.4009Z" fill="white"/>
<path d="M95.3257 270.139H86.0176V279.44H95.3257V270.139Z" fill="white"/>
<path d="M67.3989 28.293H58.0908V37.5939H67.3989V28.293Z" fill="white"/>
<path d="M104.632 46.8906H95.3237V56.1916H104.632V46.8906Z" fill="white"/>
<path d="M86.0171 46.8928H95.3252V37.5918H86.0171H76.709H67.4009V46.8928H76.709H86.0171Z" fill="white"/>
<path d="M253.545 288.738H244.237V298.039H253.545V288.738Z" fill="white"/>
<path d="M225.648 167.818H216.34V177.119H225.648V167.818Z" fill="white"/>
<path d="M234.958 177.125H225.65V186.426H234.958V177.125Z" fill="white"/>
<path d="M225.648 149.213H216.34V158.514H225.648V149.213Z" fill="white"/>
<path d="M234.958 139.914H225.65V149.215H234.958V139.914Z" fill="white"/>
<path d="M234.925 279.438H225.617V288.738H234.925H244.237V279.438H234.925Z" fill="white"/>
<path d="M225.619 270.139H216.311V279.44H225.619V270.139Z" fill="white"/>
<path d="M208.013 292.658C204.54 290.259 200.537 288.592 196.397 287.829C190.968 286.795 185.287 287.26 180.156 289.187C179.359 286.047 179.099 282.669 179.099 279.44H179.102V270.139H169.798V260.838V251.533H160.49V260.838V270.139H169.794V279.44H169.791C169.791 279.44 169.791 287.174 172.855 292.774C172.918 292.893 172.989 293.008 173.052 293.123C172.955 293.198 172.855 293.265 172.758 293.343C171.06 294.69 169.593 296.252 168.234 297.908C167.676 298.559 167.117 299.266 166.596 299.999C165.941 300.873 165.297 301.762 164.66 302.648C163.48 304.214 162.028 306.435 160.3 308.105C158.848 309.452 157.314 310.39 155.806 310.39C154.548 310.39 153.263 309.727 152.027 308.715C150.005 307.008 148.326 304.411 146.997 302.648C146.278 301.65 145.552 300.653 144.808 299.671C144.487 299.232 144.152 298.808 143.817 298.399C142.346 296.561 140.76 294.824 138.899 293.343C138.802 293.268 138.701 293.198 138.605 293.123C138.672 293.004 138.739 292.889 138.802 292.774C141.866 287.171 141.866 279.44 141.866 279.44V270.139H132.558V279.44C132.558 282.673 132.297 286.047 131.501 289.187C126.37 287.26 120.688 286.795 115.26 287.829C111.12 288.592 107.121 290.259 103.643 292.658C99.4659 295.344 94.0188 301.126 97.9468 306.148C101.275 309.943 108.387 309.742 113.026 309.549C123.857 308.954 132.834 303.049 138.31 293.644C139.681 294.649 140.969 295.795 142.157 297.074C142.19 297.112 142.227 297.153 142.261 297.19C142.953 297.945 143.616 298.741 144.238 299.586C144.391 299.772 144.539 299.961 144.688 300.151C144.77 300.266 144.856 300.386 144.938 300.501C145.105 300.75 145.288 301.014 145.474 301.293C147.864 304.835 151.871 310.762 155.828 310.762C159.768 310.762 163.777 304.824 166.172 301.275C166.354 301.003 166.529 300.746 166.693 300.501C166.734 300.441 166.775 300.386 166.816 300.326C167.009 300.077 167.203 299.827 167.4 299.586C169.117 297.257 171.12 295.27 173.331 293.644C178.808 303.049 187.785 308.954 198.616 309.549C203.255 309.742 210.363 309.943 213.695 306.148C217.638 301.126 212.191 295.344 208.013 292.658ZM130.015 293.395C128.98 295.534 127.58 297.543 125.879 299.206C121.884 303.172 116.47 305.628 110.881 306.219C108.026 306.52 104.906 306.357 102.15 305.542C101.316 305.296 100.482 304.965 99.8643 304.355C98.2186 302.722 99.101 300.032 100.147 298.321C101.208 296.583 102.798 295.266 104.377 294.02C107.512 291.55 111.652 290.084 115.554 289.176C120.956 287.893 126.385 288.201 131.307 289.935C130.965 291.133 130.54 292.297 130.015 293.395ZM211.804 304.351C211.189 304.962 210.352 305.293 209.518 305.538C206.762 306.353 203.639 306.517 200.787 306.215C195.198 305.624 189.781 303.168 185.789 299.202C184.088 297.539 182.688 295.53 181.653 293.391C181.128 292.294 180.703 291.133 180.361 289.931C185.283 288.198 190.711 287.889 196.114 289.172C200.012 290.08 204.156 291.542 207.291 294.016C208.873 295.263 210.46 296.576 211.521 298.317C212.567 300.032 213.449 302.718 211.804 304.351Z" fill="white"/>
<path d="M253.52 28.2344H244.211V37.5353H253.52V28.2344Z" fill="white"/>
<path d="M216.283 46.8398H206.975V56.1408H216.283V46.8398Z" fill="white"/>
<path d="M234.901 46.842H244.209V37.541H234.901H225.593H216.281V46.842H225.593H234.901Z" fill="white"/>
<path d="M160.489 28.2873V18.9863H151.181V28.2873H160.489Z" fill="white"/>
<path d="M141.869 46.8928V37.5918H132.561V46.8928V56.1937H141.869V46.8928Z" fill="white"/>
<path d="M169.799 46.8949H179.107V37.5939H169.799V28.293H160.491V37.5939H169.799V46.8949Z" fill="white"/>
<path d="M48.8815 167.818H48.8145V167.822C48.6357 167.833 48.4682 167.822 48.3006 167.822C39.6292 167.822 34.6847 170.475 29.0775 174.47C22.4539 179.192 19.479 186.595 19.9258 194.627C20.0375 196.979 20.4322 199.412 21.1805 201.711C17.6323 203.817 14.6797 206.894 12.9522 210.696C10.1225 216.674 8.972 222.921 11.4331 228.382C9.32943 233.256 10.0108 238.874 12.4123 244.421C14.0505 248.837 17.2748 252.453 21.2587 254.838C21.0316 255.541 20.838 256.248 20.6891 256.962C19.1067 264.385 20.1827 271.911 25.2165 277.748C31.1625 284.635 39.7037 288.682 48.7809 288.738V288.742H58.0891V279.441H48.9559V279.437C44.2609 279.437 39.5026 279.307 35.0868 277.544C32.6295 276.561 30.362 275.122 28.4967 273.239C25.9202 270.609 24.524 267.093 24.1591 263.395C23.9171 261.096 23.9506 258.689 24.3937 256.401C26.851 257.387 29.4871 257.937 32.1492 257.971C36.3602 258.038 40.9435 257.104 44.2572 254.347C46.0518 252.859 46.9044 250.251 46.0928 247.985C45.2588 245.764 42.9466 244.447 40.7871 243.803C36.4607 242.542 31.6503 243.212 27.8638 245.719C24.7995 247.68 22.681 250.824 21.4635 254.224C18.4923 252.491 15.9494 250.043 14.2367 247.003C11.1352 241.207 9.40018 234.711 11.6974 228.941C12.5836 230.708 13.8569 232.386 15.5957 233.941C21.6683 239.291 28.6531 236.947 34.3869 232.456C35.8501 231.333 37.1942 230.09 38.475 228.784C43.1402 233.818 46.9975 239.726 52.9435 243.35C60.0438 247.743 68.9163 247.077 75.8899 242.806C80.8716 239.834 85.1384 235.291 87.9495 230.045C88.5266 231.389 89.0032 232.758 89.3718 234.127C89.9824 236.266 90.3249 238.733 90.3137 241.222C87.8601 242.088 85.5145 243.242 83.355 244.774C81.6982 246.062 80.1046 247.647 79.4344 249.685C78.6451 251.91 79.4754 254.362 82.0519 254.674C85.4102 255.054 88.2771 252.353 89.476 249.432C90.6414 246.802 91.252 244.071 91.4009 241.329C92.5961 240.946 93.8024 240.619 94.9976 240.336C101.275 238.814 107.72 239.101 114.128 238.874V238.398C111.883 238.513 109.63 238.509 107.377 238.573C102.072 238.766 96.539 239.239 91.427 240.849C91.5722 236.59 90.593 232.319 88.7909 228.368C90.6488 224.361 91.6578 220.019 91.5052 215.689C96.6433 217.307 102.09 217.809 107.459 217.984C109.693 218.051 111.912 218.047 114.128 218.159V217.683C107.75 217.463 101.335 217.738 95.0907 216.228C93.8918 215.945 92.6855 215.618 91.494 215.235C91.3451 212.493 90.7382 209.762 89.5691 207.132C88.3702 204.215 85.4996 201.51 82.1449 201.89C78.7754 202.332 78.6823 205.978 80.194 208.337C82.1896 211.507 85.615 213.415 88.9883 214.796C89.4574 214.982 89.9265 215.157 90.3994 215.32C90.4366 219.167 89.5579 223.066 87.9793 226.719C85.1682 221.384 80.853 216.76 75.808 213.75C68.8381 209.479 59.9619 208.813 52.8616 213.207C46.9528 216.812 43.103 222.672 38.475 227.683C37.2203 226.411 35.906 225.198 34.48 224.104C29.2488 219.982 22.5023 217.426 16.6158 221.872C14.3409 223.646 12.7325 225.655 11.69 227.817C9.27359 221.995 11.0198 215.417 14.1548 209.554C15.8675 206.51 18.4142 204.059 21.3927 202.325C22.614 205.748 24.6543 208.832 27.7781 210.841C31.5609 213.352 36.3751 214.022 40.7015 212.757C42.8573 212.11 45.1694 210.796 46.0034 208.575C46.8151 206.309 45.9662 203.701 44.1678 202.213C41.2488 199.773 37.3766 198.805 33.6534 198.608C30.4737 198.426 27.2606 198.984 24.3043 200.167C23.8613 197.875 23.824 195.465 24.0698 193.165C24.4346 189.467 25.8346 185.952 28.4073 183.321C33.322 178.358 39.7558 177.123 47.0236 177.123C47.4257 177.123 48.0475 177.123 48.8629 177.123V177.119H58.1226V167.818H48.8815ZM29.3568 247.825C32.3763 245.492 36.591 244.641 40.3217 245.519C42.0456 245.943 44.0226 246.843 44.7487 248.502C45.4524 250.229 44.8492 252.223 43.4604 253.484C41.3158 255.504 38.1436 256.49 35.2283 256.97C31.6391 257.487 27.927 257.015 24.5501 255.709C25.2612 252.624 26.7579 249.804 29.3568 247.825ZM87.3165 251.765C85.8198 253.629 82.9864 255.076 80.7078 253.808C78.3882 252.204 79.777 248.874 81.3593 247.211C83.7757 244.592 86.9517 242.888 90.31 241.694C90.2244 245.366 89.3383 249.049 87.3165 251.765ZM81.4524 209.349C80.1493 207.917 79.0398 205.751 79.8477 203.839C80.7636 201.882 83.4332 202.012 85.09 202.902C86.8921 203.824 88.2064 205.524 88.9026 207.411C89.8409 209.807 90.3137 212.318 90.3882 214.859C87.0373 213.668 83.8651 211.964 81.4524 209.349ZM47.4331 218.94C50.3 216.012 53.6584 213.542 57.5976 212.34C69.8843 208.687 81.7764 217.497 87.1937 228.405C82.5955 237.564 73.5778 244.804 63.6702 245.072C57.4487 245.251 51.7298 242.036 47.5262 237.62C44.5588 234.633 41.9376 231.277 39.0111 228.23C41.9004 225.213 44.4992 221.898 47.4331 218.94ZM14.8696 224.033C20.8417 217.709 27.9754 219.684 34.0518 224.629C35.448 225.726 36.7362 226.95 37.9612 228.234C36.7102 229.551 35.3996 230.804 33.9699 231.928C27.8824 236.876 20.7635 238.844 14.7877 232.523C13.5441 231.206 12.6096 229.811 11.9394 228.371C12.6171 226.865 13.5739 225.41 14.8696 224.033ZM35.1315 199.59C38.0505 200.07 41.219 201.056 43.3636 203.076C44.7487 204.338 45.3556 206.332 44.6519 208.058C43.9258 209.717 41.9488 210.618 40.2249 211.042C36.498 211.923 32.2832 211.072 29.2637 208.739C26.6649 206.76 25.1681 203.94 24.4533 200.855C27.8302 199.542 31.5423 199.073 35.1315 199.59Z" fill="white"/>
<path d="M298.733 80.4044C297.006 76.6021 294.057 73.5254 290.505 71.4196C291.249 69.1204 291.648 66.691 291.759 64.3397C292.206 56.3074 289.231 48.9002 282.608 44.1827C277.001 40.187 272.056 37.5344 263.385 37.5344C263.195 37.5344 263.012 37.5493 262.804 37.5307V37.5344H253.518V46.8354H262.826C263.638 46.8354 264.26 46.8354 264.662 46.8354C271.929 46.8354 278.363 48.0705 283.278 53.0335C285.851 55.6638 287.251 59.1796 287.616 62.8776C287.858 65.1768 287.824 67.5876 287.381 69.8794C284.425 68.6963 281.212 68.1383 278.032 68.3206C274.312 68.514 270.436 69.485 267.517 71.9256C265.719 73.4138 264.87 76.018 265.682 78.2875C266.516 80.5085 268.828 81.8255 270.984 82.4692C275.31 83.7304 280.121 83.0607 283.907 80.5532C287.031 78.5479 289.068 75.4674 290.293 72.0447C293.271 73.7784 295.814 76.2264 297.527 79.2696C300.651 85.1069 302.393 91.6548 300.014 97.4623C298.971 95.3268 297.374 93.3476 295.125 91.5915C289.239 87.1457 282.496 89.7016 277.261 93.8238C275.824 94.9287 274.499 96.149 273.236 97.4325C268.597 92.4138 264.744 86.5356 258.82 82.9231C251.723 78.5293 242.847 79.1952 235.874 83.4662C230.847 86.4649 226.547 91.067 223.732 96.376C222.168 92.7411 221.305 88.8645 221.342 85.04C221.815 84.8725 222.287 84.7014 222.753 84.5154C226.126 83.1351 229.552 81.2266 231.547 78.0568C233.059 75.6981 232.966 72.0521 229.596 71.6094C226.242 71.2299 223.371 73.9309 222.172 76.8514C221.007 79.4817 220.396 82.2125 220.247 84.9544C219.056 85.3376 217.846 85.665 216.65 85.9477C215.95 86.1151 215.251 86.2602 214.551 86.3867C213.411 83.4141 210.481 80.728 208.001 79.1357C204.531 76.7361 200.536 75.0731 196.4 74.3104C190.949 73.2687 185.237 73.7449 180.088 75.6944C179.139 72.2828 179.124 69.02 179.124 65.5042L176.793 65.4968H179.105V56.1958V46.8949H169.797V56.1958V65.4968H169.808C169.808 65.7907 169.812 66.0809 169.816 66.3748L169.805 66.3562C169.805 66.3562 169.51 72.7701 173.033 79.6268C172.951 79.6901 172.865 79.7496 172.783 79.8128C171.543 80.795 170.426 81.8888 169.388 83.0533C168.408 84.0913 167.317 85.3525 166.39 86.7141C166.267 86.8927 166.141 87.0824 166.007 87.2796C165.776 86.729 165.549 86.171 165.329 85.5906C162.503 78.0791 160.47 69.9761 160.47 61.9513C160.47 58.0969 160.455 54.2017 160.441 50.2321C160.593 45.9648 160.489 41.731 160.489 37.5902H160.411C160.411 37.5716 160.411 37.5567 160.411 37.5381L151.181 37.5307V28.293H141.873V37.5939H151.11C151.11 41.7161 151.006 45.935 151.159 50.1837C151.144 54.1905 151.129 58.123 151.129 62.0145C151.129 70.0394 149.096 78.1424 146.27 85.6538C146.065 86.1896 145.853 86.7141 145.641 87.2275C145.432 86.9448 145.22 86.662 145.008 86.3793C144.498 85.6613 143.95 84.9693 143.399 84.3294C142.048 82.6887 140.588 81.141 138.905 79.8054C138.823 79.7421 138.738 79.6789 138.652 79.6194C142.167 72.7664 141.873 66.3599 141.873 66.3599C141.88 66.0623 141.88 65.7647 141.88 65.467H141.869V56.1996H132.561V65.5005H132.565C132.565 69.0163 132.55 72.279 131.6 75.6869C126.451 73.7374 120.74 73.2612 115.289 74.3029C111.156 75.0693 107.161 76.7286 103.687 79.1283C101.193 80.7317 98.2363 83.4476 97.1157 86.4463C96.4082 86.3198 95.7045 86.1747 95.0008 86.0035C93.802 85.7208 92.5956 85.3934 91.4042 85.0102C91.2553 82.2683 90.6484 79.5375 89.4793 76.9072C88.2804 73.9904 85.4098 71.2857 82.0551 71.6652C78.6856 72.1079 78.5925 75.7539 80.1041 78.1126C82.0998 81.2824 85.5252 83.1909 88.8984 84.5712C89.3676 84.7572 89.8367 84.9321 90.3096 85.0958C90.3468 88.9389 89.4718 92.8342 87.8932 96.4876C85.0821 91.1563 80.7669 86.5393 75.7256 83.5295C68.752 79.2585 59.8757 78.5925 52.7792 82.9863C46.8667 86.5914 43.0206 92.451 38.3926 97.466C37.1342 96.1899 35.8199 94.9771 34.3901 93.8796C29.159 89.7574 22.4124 87.2015 16.526 91.6474C14.2511 93.422 12.6464 95.4235 11.6039 97.5851C9.1912 91.7627 10.9374 85.1888 14.0724 79.3329C15.7851 76.2896 18.3318 73.8416 21.3066 72.1079C22.5279 75.5307 24.5682 78.6111 27.692 80.6164C31.4786 83.124 36.289 83.7936 40.6154 82.5324C42.7712 81.8888 45.0833 80.5718 45.9173 78.3507C46.729 76.0813 45.8801 73.477 44.0817 71.9889C41.1627 69.5483 37.2868 68.5773 33.5673 68.3838C30.3876 68.2015 27.1745 68.7596 24.2182 69.9426C23.7752 67.6509 23.7416 65.2401 23.9837 62.9409C24.3485 59.2428 25.7485 55.7271 28.3212 53.0968C33.2359 48.1338 39.6697 46.8986 46.9375 46.8986C47.3396 46.8986 47.9614 46.8986 48.7767 46.8986L48.7805 45.0347V46.8949H58.0886V37.5939H48.7805C48.5794 37.6088 48.4007 37.5976 48.2145 37.5976C39.5431 37.5976 34.5986 40.2503 28.9914 44.246C22.3678 48.9634 19.3929 56.3707 19.8397 64.403C19.9514 66.7543 20.346 69.1837 21.0944 71.4829C17.5462 73.5886 14.5936 76.6654 12.866 80.4676C10.0364 86.4463 8.88962 92.6891 11.347 98.1506C9.23961 103.028 9.91724 108.646 12.3225 114.197C13.9607 118.613 17.185 122.229 21.1689 124.614C20.9418 125.317 20.7482 126.024 20.5992 126.738C19.0168 134.16 20.0929 141.686 25.1267 147.524C31.0988 154.44 39.692 158.495 48.814 158.518H58.1221V167.818H67.3669V177.119H76.675V167.818H67.4302V158.518H76.6788V149.217H67.3669V158.514H58.1221V149.217H48.8661V149.213C44.1711 149.213 39.4128 149.083 34.997 147.319C32.5397 146.337 30.2722 144.897 28.4069 143.015C25.8304 140.384 24.4342 136.869 24.0693 133.171C23.8273 130.871 23.8608 128.464 24.3039 126.176C26.7612 127.162 29.3973 127.713 32.0594 127.746C36.2704 127.813 40.8537 126.879 44.1674 124.123C45.962 122.634 46.8146 120.026 46.0029 117.761C45.1689 115.54 42.8568 114.223 40.6973 113.579C36.3709 112.318 31.5605 112.987 27.7739 115.495C24.7097 117.456 22.5912 120.599 21.3737 124C18.4025 122.266 15.8595 119.818 14.1468 116.779C11.0454 110.978 9.30662 104.483 11.6113 98.7086C12.4974 100.476 13.7708 102.157 15.5096 103.713C21.5784 109.062 28.567 106.719 34.3008 102.228C35.7603 101.108 37.1044 99.8657 38.3852 98.5598C43.0504 103.594 46.9077 109.501 52.8537 113.125C59.9539 117.519 68.8264 116.853 75.8001 112.582C80.7818 109.609 85.0523 105.063 87.8634 99.8136C88.4405 101.157 88.9171 102.526 89.2857 103.899C89.8963 106.038 90.2425 108.508 90.2276 110.997C87.7778 111.864 85.4358 113.014 83.2763 114.55C81.6195 115.834 80.026 117.422 79.3558 119.461C78.5664 121.686 79.3967 124.141 81.9732 124.45C85.3279 124.829 88.1985 122.125 89.3974 119.208C90.5627 116.578 91.1733 113.843 91.3186 111.098C92.51 110.714 93.7126 110.391 94.9078 110.108C103.08 108.132 111.547 109.219 119.839 108.244C125.617 107.433 131.444 106.068 136.69 103.434C141.765 100.591 145.428 96.4466 148.273 91.6548C150.473 94.4934 153.162 97.187 155.831 97.187C158.482 97.187 161.163 94.4972 163.363 91.6585C166.2 96.4243 169.857 100.547 174.909 103.374C180.155 106.008 185.982 107.373 191.761 108.184C200.052 109.159 208.519 108.073 216.691 110.048C217.887 110.331 219.089 110.659 220.281 111.038C220.426 113.784 221.036 116.514 222.202 119.148C223.401 122.065 226.271 124.77 229.626 124.39C232.202 124.082 233.033 121.626 232.243 119.401C231.573 117.363 229.98 115.774 228.323 114.491C226.163 112.958 223.821 111.804 221.372 110.938C221.357 108.445 221.703 105.978 222.313 103.839C222.686 102.448 223.17 101.064 223.758 99.702C226.569 104.974 230.851 109.542 235.851 112.53C242.825 116.801 251.697 117.467 258.798 113.073C264.732 109.453 268.59 103.556 273.244 98.5301C274.517 99.8248 275.85 101.056 277.298 102.169C283.032 106.659 290.021 109.003 296.09 103.653C297.847 102.079 299.132 100.379 300.018 98.5933C302.36 104.382 300.625 110.904 297.504 116.726C295.792 119.766 293.253 122.214 290.278 123.948C289.06 120.547 286.942 117.4 283.877 115.443C280.095 112.935 275.28 112.262 270.954 113.527C268.798 114.174 266.482 115.488 265.648 117.709C264.837 119.974 265.689 122.582 267.484 124.07C270.798 126.827 275.377 127.761 279.592 127.694C282.254 127.664 284.89 127.114 287.347 126.124C287.791 128.416 287.824 130.823 287.582 133.118C287.217 136.817 285.821 140.332 283.244 142.963C281.379 144.845 279.112 146.285 276.654 147.267C272.242 149.034 267.488 149.161 262.796 149.161V149.157H253.488V158.458H262.767V158.465C271.915 158.465 280.538 154.406 286.525 147.472C291.562 141.634 292.634 134.108 291.052 126.686C290.899 125.975 290.706 125.265 290.482 124.562C294.466 122.177 297.694 118.561 299.329 114.144C301.742 108.571 302.415 102.928 300.278 98.0352C302.702 92.5812 301.552 86.3607 298.733 80.4044ZM282.422 78.4512C279.402 80.7838 275.187 81.6358 271.457 80.7578C269.733 80.3299 267.756 79.4296 267.03 77.7741C266.326 76.0515 266.933 74.0537 268.318 72.7925C270.466 70.7723 273.631 69.7864 276.55 69.3065C280.139 68.7893 283.851 69.2618 287.232 70.5714C286.513 73.6519 285.02 76.4719 282.422 78.4512ZM222.846 77.1267C223.542 75.2405 224.856 73.5365 226.659 72.6176C228.312 71.7247 230.985 71.5945 231.901 73.5551C232.713 75.4674 231.599 77.6327 230.296 79.065C227.883 81.6805 224.711 83.3844 221.36 84.5749C221.435 82.0339 221.908 79.5226 222.846 77.1267ZM81.3626 79.1208C80.0595 77.6885 78.9499 75.5232 79.7579 73.6109C80.6738 71.654 83.3434 71.7842 85.0002 72.6734C86.8023 73.5961 88.1166 75.2963 88.8128 77.1825C89.7511 79.5784 90.2239 82.0897 90.2984 84.6307C86.9475 83.4402 83.7753 81.7363 81.3626 79.1208ZM35.0491 69.366C37.9682 69.8459 41.1329 70.8318 43.2812 72.852C44.6663 74.1132 45.2732 76.111 44.5695 77.8336C43.8434 79.4891 41.8664 80.3895 40.1425 80.8173C36.4119 81.6953 32.1971 80.8434 29.1776 78.5107C26.5788 76.5314 25.0857 73.7114 24.3672 70.6309C27.7479 69.3213 31.4599 68.8489 35.0491 69.366ZM29.2669 117.593C32.2865 115.261 36.5012 114.409 40.2319 115.287C41.9558 115.711 43.9328 116.611 44.6588 118.27C45.3625 119.997 44.7594 121.991 43.3706 123.252C41.226 125.272 38.0538 126.258 35.1385 126.738C31.5493 127.255 27.8372 126.783 24.4602 125.477C25.1714 122.396 26.6644 119.573 29.2669 117.593ZM276.528 126.682C273.609 126.202 270.44 125.216 268.296 123.196C266.907 121.935 266.304 119.941 267.007 118.215C267.733 116.555 269.707 115.655 271.434 115.231C275.161 114.349 279.38 115.201 282.399 117.537C284.994 119.517 286.487 122.337 287.206 125.421C283.829 126.731 280.117 127.199 276.528 126.682ZM196.124 75.5902C201.865 76.9556 207.383 80.0844 210.98 84.8056C211.419 85.3934 211.795 86.0705 212.041 86.7662C207.272 87.3503 202.431 87.235 197.613 87.4024V87.8786C199.836 87.7633 202.059 87.7633 204.282 87.7038C206.903 87.6182 209.543 87.4545 212.153 87.1196C212.652 88.8459 212.324 90.6354 210.284 91.5171C207.517 92.7225 204.036 92.4175 201.02 92.1868C195.424 91.5915 189.772 89.6421 185.777 85.6724C183.156 83.1054 181.362 79.8649 180.289 76.3789C185.23 74.6192 190.692 74.2992 196.124 75.5902ZM100.705 84.8018C104.298 80.0844 109.816 76.9556 115.561 75.5865C120.993 74.2955 126.451 74.6154 131.396 76.3752C130.32 79.8649 128.525 83.1054 125.908 85.6687C121.912 89.6384 116.261 91.5916 110.665 92.1831C107.649 92.4138 104.167 92.7151 101.401 91.5134C99.3794 90.6429 99.0406 88.8831 99.5134 87.1755C102.12 87.5066 104.752 87.6703 107.369 87.7558C109.6 87.8191 111.822 87.8191 114.038 87.9307V87.4545C109.224 87.2871 104.391 87.4024 99.6251 86.822C99.8708 86.104 100.254 85.4045 100.705 84.8018ZM33.8875 101.704C27.8 106.655 20.6811 108.62 14.7053 102.299C13.458 100.978 12.5235 99.5792 11.8533 98.1357C12.531 96.6327 13.4841 95.178 14.7798 93.8052C20.7519 87.4805 27.8856 89.4561 33.962 94.4004C35.3619 95.5017 36.6501 96.7257 37.8751 98.0129C36.6278 99.3299 35.3172 100.58 33.8875 101.704ZM63.5804 114.844C57.3588 115.023 51.6399 111.808 47.4364 107.392C44.469 104.405 41.8478 101.049 38.9213 98.0018C41.8106 94.9808 44.4131 91.666 47.347 88.7082C50.2139 85.7803 53.5723 83.3063 57.5115 82.1083C69.7982 78.4549 81.6902 87.261 87.1076 98.1729C82.5056 107.332 73.4917 114.576 63.5804 114.844ZM87.2267 121.537C85.73 123.401 82.8966 124.848 80.618 123.579C78.2984 121.976 79.6871 118.646 81.2695 116.983C83.6859 114.364 86.8618 112.656 90.2202 111.466C90.1346 115.138 89.2484 118.821 87.2267 121.537ZM125.699 105.852C122.787 106.901 119.746 107.656 116.659 107.98C113.55 108.304 110.426 108.263 107.295 108.348C101.986 108.538 96.4566 109.01 91.3446 110.625C91.4898 106.361 90.5106 102.087 88.7048 98.1357C90.559 94.1326 91.568 89.7909 91.4154 85.4641C93.2398 86.0407 95.1051 86.4723 96.9928 86.7997C96.3822 88.6934 96.5274 90.6838 97.9981 92.57C101.319 96.3536 108.419 96.149 113.047 95.9593C120.721 95.5389 127.486 92.6258 132.52 87.5177C132.535 87.5066 132.546 87.4954 132.561 87.4843C135.164 85.1813 137.036 82.6254 138.388 80.1105C139.218 80.7243 140.022 81.3903 140.789 82.1046C141.653 82.9454 142.77 84.1061 143.824 85.4306C143.976 85.6241 144.129 85.8175 144.274 86.0184C144.308 86.0593 144.341 86.1003 144.371 86.1412C144.565 86.3979 144.755 86.662 144.933 86.9262C145.093 87.1606 145.265 87.4136 145.443 87.6777C141.456 96.9154 135.51 102.265 125.699 105.852ZM155.805 96.8113C154.431 96.8113 153.031 96.0225 151.691 94.8543C150.518 93.7903 149.468 92.4547 148.537 91.1935C151.732 85.6575 153.869 79.3031 155.805 73.1012C157.749 79.3217 159.897 85.691 163.114 91.2344C162.496 92.0715 161.822 92.9383 161.096 93.7382C159.42 95.4942 157.596 96.8113 155.805 96.8113ZM230.33 116.924C231.912 118.587 233.301 121.916 230.981 123.52C228.703 124.789 225.869 123.341 224.372 121.477C222.351 118.762 221.465 115.078 221.379 111.406C224.737 112.597 227.913 114.304 230.33 116.924ZM220.255 110.565C215.143 108.951 209.61 108.482 204.304 108.289C201.173 108.203 198.049 108.244 194.94 107.92C191.854 107.597 188.812 106.841 185.9 105.792C176.115 102.217 170.173 96.8819 166.182 87.6851C166.338 87.4508 166.491 87.2313 166.632 87.0155C166.889 86.6806 167.146 86.3495 167.411 86.0221C169.112 83.7118 171.104 81.74 173.297 80.1179C174.649 82.6291 176.521 85.1776 179.116 87.4768C179.135 87.4954 179.154 87.5103 179.172 87.5252C184.206 92.6258 190.968 95.5389 198.641 95.963C203.269 96.1527 210.369 96.3574 213.69 92.5737C215.18 90.6652 215.31 88.6524 214.673 86.7365C216.554 86.4091 218.415 85.9775 220.236 85.4046C220.087 89.709 221.081 94.0284 222.92 98.0129C221.096 101.986 220.109 106.283 220.255 110.565ZM264.215 107.34C260.011 111.756 254.292 114.97 248.071 114.792C238.141 114.52 229.108 107.251 224.518 98.0613C229.946 87.1755 241.82 78.3991 254.088 82.0488C258.027 83.2467 261.385 85.7208 264.252 88.6487C267.197 91.6176 269.807 94.9473 272.708 97.9757C269.792 101.015 267.175 104.36 264.215 107.34ZM296.894 102.239C290.918 108.56 283.799 106.596 277.712 101.644C276.293 100.532 274.994 99.2927 273.754 97.9832C274.986 96.6848 276.282 95.4533 277.689 94.3483C283.766 89.404 290.899 87.4284 296.871 93.7531C298.149 95.1073 299.098 96.5359 299.772 98.0204C299.098 99.4862 298.156 100.9 296.894 102.239Z" fill="white"/>
<path d="M298.694 210.692C296.966 206.89 294.018 203.813 290.466 201.707C291.214 199.408 291.609 196.975 291.72 194.624C292.167 186.592 289.192 179.184 282.569 174.467C276.961 170.471 272.017 167.819 263.346 167.819C263.167 167.819 262.992 167.83 262.798 167.815H253.512V158.51H244.268V149.213H234.96V158.514H244.204V167.815H234.96V177.116H244.268V167.815H253.49V177.116H262.783V177.119C263.599 177.119 264.22 177.119 264.623 177.119C271.89 177.119 278.324 178.355 283.239 183.318C285.812 185.948 287.212 189.464 287.576 193.162C287.822 195.461 287.785 197.872 287.342 200.164C284.386 198.98 281.172 198.422 277.993 198.605C274.273 198.798 270.397 199.769 267.478 202.21C265.68 203.698 264.831 206.302 265.643 208.572C266.477 210.793 268.789 212.11 270.945 212.753C275.271 214.014 280.082 213.345 283.868 210.837C286.992 208.828 289.032 205.748 290.253 202.321C293.232 204.055 295.779 206.507 297.491 209.55C300.615 215.387 302.361 221.943 299.975 227.754C298.932 225.615 297.335 223.632 295.082 221.872C289.196 217.426 282.453 219.982 277.218 224.104C275.781 225.205 274.459 226.429 273.197 227.709C268.558 222.69 264.705 216.816 258.785 213.203C251.688 208.81 242.812 209.476 235.838 213.747C230.808 216.749 226.508 221.351 223.697 226.664C222.133 223.025 221.265 219.145 221.299 215.32C221.772 215.153 222.245 214.982 222.71 214.796C226.083 213.416 229.509 211.507 231.504 208.337C233.016 205.978 232.923 202.333 229.553 201.89C226.199 201.51 223.328 204.211 222.129 207.132C220.964 209.762 220.353 212.493 220.204 215.235C219.013 215.618 217.803 215.945 216.608 216.228C210.364 217.739 203.949 217.463 197.571 217.683V218.159C199.793 218.044 202.016 218.047 204.239 217.984C209.608 217.809 215.055 217.307 220.193 215.689C220.044 219.997 221.042 224.32 222.881 228.308C221.061 232.274 220.074 236.567 220.219 240.846C215.107 239.235 209.574 238.762 204.269 238.569C202.016 238.506 199.764 238.51 197.519 238.394V238.87C203.926 239.097 210.375 238.815 216.649 240.332C217.844 240.615 219.054 240.943 220.245 241.326C220.394 244.068 221.001 246.799 222.17 249.429C223.369 252.346 226.24 255.05 229.594 254.671C232.171 254.362 233.001 251.907 232.212 249.682C231.542 247.643 229.948 246.054 228.291 244.771C226.132 243.234 223.786 242.085 221.332 241.218C221.321 238.729 221.664 236.262 222.274 234.123C222.647 232.732 223.131 231.348 223.719 229.986C226.53 235.254 230.812 239.819 235.808 242.807C242.782 247.078 251.655 247.744 258.755 243.35C264.69 239.73 268.547 233.837 273.201 228.807C274.474 230.101 275.811 231.337 277.259 232.453C282.993 236.943 289.982 239.287 296.051 233.937C297.808 232.363 299.092 230.667 299.979 228.877C302.313 234.666 300.578 241.181 297.462 247.003C295.749 250.043 293.21 252.491 290.235 254.224C289.017 250.824 286.899 247.677 283.835 245.72C280.052 243.212 275.238 242.539 270.911 243.804C268.755 244.451 266.44 245.764 265.606 247.985C264.794 250.251 265.646 252.859 267.441 254.347C270.755 257.104 275.334 258.038 279.549 257.971C282.211 257.941 284.847 257.39 287.305 256.401C287.748 258.693 287.781 261.1 287.539 263.395C287.174 267.093 285.778 270.609 283.202 273.239C281.336 275.122 279.069 276.562 276.611 277.544C272.196 279.311 267.437 279.437 262.742 279.437H253.546V288.738H262.724V288.742C271.872 288.742 280.495 284.683 286.482 277.748C291.519 271.911 292.592 264.385 291.009 256.963C290.857 256.252 290.663 255.541 290.44 254.838C294.423 252.453 297.652 248.837 299.286 244.421C301.699 238.852 302.373 233.208 300.239 228.319C302.663 222.873 301.513 216.649 298.694 210.692ZM282.382 208.735C279.363 211.068 275.148 211.92 271.421 211.038C269.697 210.61 267.72 209.71 266.994 208.054C266.291 206.332 266.898 204.334 268.283 203.073C270.431 201.053 273.596 200.067 276.515 199.587C280.104 199.07 283.816 199.542 287.193 200.852C286.478 203.936 284.981 206.756 282.382 208.735ZM222.803 207.411C223.499 205.525 224.814 203.821 226.616 202.902C228.269 202.009 230.942 201.879 231.858 203.839C232.67 205.752 231.556 207.917 230.253 209.349C227.841 211.961 224.668 213.665 221.318 214.859C221.392 212.318 221.865 209.807 222.803 207.411ZM230.287 247.211C231.869 248.874 233.258 252.204 230.938 253.808C228.66 255.076 225.826 253.629 224.33 251.765C222.308 249.046 221.426 245.366 221.336 241.694C224.691 242.888 227.87 244.592 230.287 247.211ZM276.485 256.966C273.566 256.486 270.397 255.5 268.253 253.48C266.864 252.219 266.261 250.225 266.965 248.499C267.691 246.839 269.664 245.939 271.391 245.515C275.118 244.633 279.337 245.485 282.356 247.822C284.952 249.801 286.445 252.621 287.163 255.705C283.786 257.015 280.074 257.483 276.485 256.966ZM264.172 237.62C259.969 242.036 254.25 245.251 248.028 245.072C238.102 244.801 229.069 237.535 224.479 228.349C229.907 217.463 241.781 208.687 254.049 212.337C257.988 213.535 261.346 216.009 264.213 218.937C267.158 221.902 269.764 225.228 272.665 228.256C269.75 231.296 267.128 234.64 264.172 237.62ZM296.858 232.52C290.883 238.841 283.76 236.876 277.676 231.924C276.258 230.808 274.955 229.569 273.715 228.26C274.947 226.965 276.239 225.734 277.647 224.629C283.723 219.684 290.857 217.709 296.829 224.033C298.109 225.391 299.059 226.824 299.733 228.308C299.059 229.77 298.121 231.184 296.858 232.52Z" fill="white"/>
<path d="M177.74 157.306H171.251V157.312H170.625C171.91 155.32 173.002 153.249 173.869 151.105C175.918 146.034 176.707 140.571 175.814 134.864C174.538 126.69 170.28 119.277 164.744 113.281C165.903 113.2 167.055 113.308 168.158 113.66C169.232 114.009 170.177 114.592 171.03 115.302C171.194 115.457 171.658 115.898 171.824 116.056C172.47 116.768 173.101 117.538 173.632 118.342C173.856 118.642 174.25 119.241 174.442 119.561C174.922 120.294 175.558 121.401 176.032 122.157C177.807 125.063 179.898 127.744 182.791 129.68C186.748 132.426 192.105 132.347 195.278 128.569C188.406 132.418 183.209 127.436 179.75 121.695C178.751 120.068 177.898 118.342 176.624 116.902C176.271 116.545 175.778 115.985 175.397 115.667C175.158 115.486 174.621 114.997 174.38 114.839C174.141 114.679 173.531 114.28 173.282 114.117C172.909 113.912 172.499 113.71 172.117 113.513C170.413 112.743 168.581 112.388 166.744 112.391C165.87 112.404 165.016 112.504 164.178 112.677C163.983 112.472 163.786 112.27 163.589 112.07C163.2 111.673 162.803 111.284 162.403 110.901C161.524 110.06 160.624 109.248 159.695 108.47C159.7 108.475 159.703 108.481 159.705 108.486C158.314 107.175 156.812 105.935 155.206 104.855C160.195 101.97 166.285 100.616 170.874 104.358L171.233 104.637C171.435 104.828 172.021 105.385 172.224 105.58C172.426 105.811 172.924 106.381 173.127 106.602C173.77 107.414 174.411 108.315 175.002 109.177C176.227 111.077 177.332 113.082 178.593 114.958C180.578 117.89 182.879 120.575 185.91 122.596C188.335 124.22 191.288 125.229 194.212 124.969C197.024 124.735 199.72 123.366 201.5 121.217C192.121 126.417 185.476 118.681 181.146 110.987C180.124 109.153 178.962 107.33 177.462 105.853C177.241 105.64 176.92 105.283 176.681 105.096C176.193 104.7 175.488 104.072 174.953 103.756L174.04 103.16L173.069 102.65C170.841 101.502 168.34 101.005 165.88 101C161.916 101.055 158.244 102.548 154.978 104.71C151.724 102.563 148.066 101.087 144.12 101.029C141.66 101.034 139.159 101.533 136.931 102.679L135.96 103.189L135.047 103.785C134.51 104.103 133.809 104.734 133.319 105.125C133.08 105.312 132.761 105.672 132.538 105.882C131.038 107.359 129.876 109.182 128.854 111.016C124.529 118.707 117.877 126.445 108.5 121.246C110.28 123.395 112.976 124.766 115.788 124.998C118.709 125.26 121.667 124.249 124.09 122.625C127.121 120.607 129.419 117.919 131.407 114.987C132.665 113.111 133.773 111.103 134.998 109.206C135.589 108.344 136.23 107.443 136.873 106.631C137.076 106.41 137.571 105.843 137.776 105.609C137.989 105.406 138.565 104.86 138.767 104.665L139.126 104.387C143.702 100.656 149.768 101.991 154.747 104.857C153.154 105.935 151.66 107.17 150.279 108.47C149.35 109.248 148.448 110.06 147.571 110.901C147.168 111.284 146.774 111.673 146.385 112.07C146.188 112.27 145.991 112.475 145.796 112.68C144.958 112.506 144.104 112.404 143.23 112.391C141.393 112.388 139.561 112.743 137.857 113.513C137.478 113.707 137.065 113.912 136.692 114.117C136.448 114.277 135.831 114.679 135.594 114.839C135.351 115.002 134.819 115.486 134.575 115.667C134.193 115.988 133.703 116.545 133.348 116.902C132.074 118.345 131.22 120.071 130.221 121.695C126.758 127.439 121.574 132.418 114.693 128.569C117.869 132.347 123.221 132.426 127.18 129.68C129.609 128.064 131.451 125.912 133.041 123.566C133.898 122.315 134.707 120.83 135.53 119.561C135.722 119.238 136.116 118.642 136.339 118.342C136.871 117.538 137.501 116.768 138.147 116.056C138.319 115.893 138.78 115.457 138.941 115.302C139.795 114.592 140.739 114.009 141.813 113.66C142.916 113.308 144.068 113.2 145.228 113.281C139.979 118.965 135.882 125.912 134.38 133.595C132.642 142.487 134.876 149.983 139.611 157.312H138.812H132.325V163.881H138.812V170.45H145.298H151.784V177.019V183.587V190.156V196.725V203.294V209.863V216.432V223.001H145.298V229.57H151.784V236.139H145.298V242.708H151.784H158.27V236.139H164.757V229.57H158.27V223.001H164.757V216.432H158.27V209.863V203.294H158.278V196.725V190.156V183.587V177.019V170.45H164.764H171.251V163.881V163.878H177.74V157.306ZM147.708 112.714C147.947 112.257 148.183 111.815 148.419 111.397C148.445 111.35 148.474 111.295 148.499 111.248C149.047 110.286 149.646 109.371 150.272 108.486C151.623 107.241 153.229 106.024 154.978 104.989C156.74 106.027 158.359 107.251 159.718 108.504C160.338 109.387 160.935 110.296 161.477 111.25C161.503 111.297 161.532 111.353 161.558 111.4C161.794 111.818 162.032 112.259 162.268 112.716C162.339 112.853 162.411 112.992 162.481 113.134C159.71 114.059 157.183 115.751 154.986 117.706C152.788 115.751 150.264 114.059 147.493 113.134C147.565 112.99 147.635 112.85 147.708 112.714ZM142.683 138.007C140.908 130.274 143.959 120.294 147.259 113.602C150.069 114.29 152.809 115.912 154.949 117.701C148.738 122.956 143.879 130.082 142.683 138.007ZM157.243 146.181C156.545 146.757 155.785 147.211 154.986 147.582C154.187 147.211 153.426 146.757 152.729 146.181C145.49 140.201 149.901 126.432 153.727 119.706C154.117 119.023 154.542 118.371 154.983 117.738C154.988 117.738 154.988 117.738 154.986 117.735C154.988 117.735 154.988 117.735 154.988 117.735C154.988 117.735 154.988 117.735 154.988 117.738C155.429 118.371 155.855 119.023 156.244 119.706C160.074 126.432 164.482 140.201 157.243 146.181ZM155.027 117.701C157.168 115.909 159.91 114.29 162.72 113.602C166.018 120.292 169.069 130.274 167.297 138.007C166.101 130.085 161.241 122.956 155.027 117.701Z" fill="#D4FA62"/>
</svg>
