<svg width="286" height="286" viewBox="0 0 286 286" fill="none" xmlns="http://www.w3.org/2000/svg">
<path d="M181.004 131.264L143.032 153.331L104.724 131.113L104.764 175.465L143.033 198.017L180.924 175.375L181.004 131.264Z" fill="#FFB164"/>
<path d="M135.655 100.855L131.364 103.349L131.375 119.898L135.663 117.406L135.683 105.842L139.974 103.349L135.655 100.855Z" fill="#EE7D4D"/>
<path d="M123.865 142.216L123.873 137.579L104.738 126.531L104.729 131.118L123.865 142.216Z" fill="#FFB164"/>
<path d="M162.186 128.503L162.145 142.225L181.004 131.265L181.038 117.531L162.186 128.503Z" fill="#EE7D4D"/>
<path d="M162.145 142.225V135.07L143.033 146.156L143.032 153.333L162.145 142.225Z" fill="#EE7D4D"/>
<path d="M123.83 135.07L123.865 135.069L132.618 129.982L128.418 127.558L132.708 125.064L136.908 127.489L140.753 125.295L135.705 122.388L135.676 117.405L131.389 119.896L123.747 115.484L104.738 126.531L123.826 137.551L123.83 135.07Z" fill="#FFB164"/>
<path d="M132.599 129.982L129.867 128.395L128.419 127.559L128.428 132.23L128.589 132.324L132.599 129.994V129.982Z" fill="#FFB164"/>
<path d="M128.423 127.555L128.419 127.553V127.557L128.423 127.555Z" fill="#FFB164"/>
<path d="M143.032 153.331L143.033 146.155L123.83 135.068L123.818 142.187L143.032 153.331Z" fill="#FFB164"/>
<path d="M153.755 130.226L153.754 130.226L155.551 131.264L151.26 133.757L146.941 131.264L148.694 130.245L146.956 129.266L146.978 126.314L143.033 124.02L136.908 127.488L132.708 125.064L128.418 127.557L132.618 129.981L123.864 135.068L143.033 146.155L162.144 135.07L153.755 130.226Z" fill="#FFB164"/>
<path d="M135.683 105.863L135.663 117.406L131.382 119.893L131.389 119.897L135.676 117.406L135.705 122.389L140.753 125.295L143.033 124.021L143.048 110.128L135.683 105.863Z" fill="#FFB164"/>
<path d="M131.364 103.369L123.863 99.0391L123.834 115.535L131.375 119.889L131.364 103.369Z" fill="#FFB164"/>
<path d="M146.992 124.564L151.165 122.14L143.04 117.781L143.033 124.02L146.979 126.301L146.992 124.564Z" fill="#FFB164"/>
<path d="M162.186 128.503L155.411 124.592L155.406 129.267L153.761 130.223L162.144 135.071L162.19 128.501L162.186 128.503Z" fill="#FFB164"/>
<path d="M146.992 124.564L146.956 129.266L151.246 131.684L151.238 127.016L146.992 124.564Z" fill="#FFB164"/>
<path d="M153.754 130.227L151.246 131.684L148.694 130.245L146.941 131.264L151.26 133.757L155.551 131.264L153.754 130.227Z" fill="#EE7D4D"/>
<path d="M155.411 124.592L155.406 129.267L151.246 131.685L151.238 127.017L155.411 124.592Z" fill="#EE7D4D"/>
<path d="M162.15 99.0383L143.033 87.9492L123.863 99.0373L131.364 103.368V103.346L135.654 100.853L139.973 103.347L135.683 105.84V105.861L143.033 110.126L151.304 105.341L155.55 107.82L159.868 105.314L155.595 102.847L162.15 99.0383Z" fill="#FFB164"/>
<path d="M162.06 106.559L159.849 107.863L159.845 110.135L155.541 112.636L153.642 111.525L143.04 117.78L151.165 122.138L146.993 124.563L151.238 127.015L155.411 124.59L162.231 128.501L181.038 117.53L162.06 106.559Z" fill="#FFB164"/>
<path d="M151.254 110.131L151.304 105.342L143.723 109.728L143.033 110.127L143.04 117.781L153.641 111.526L151.254 110.131Z" fill="#EE7D4D"/>
<path d="M155.595 102.848L159.868 105.315L159.854 105.323L159.849 107.864L162.06 106.56L162.168 99.0391L155.595 102.848Z" fill="#EE7D4D"/>
<path d="M157.457 111.523L155.541 112.637L153.642 111.527L151.259 112.932L155.535 115.426L159.864 112.933L157.457 111.523Z" fill="#EE7D4D"/>
<path d="M151.304 105.342L151.254 110.131L155.541 112.636L155.55 107.821L151.304 105.342Z" fill="#FFB164"/>
<path d="M159.854 105.32L159.845 110.137L155.541 112.638L155.55 107.822L159.854 105.32Z" fill="#EE7D4D"/>
<path d="M199.778 148.393H187.249V149.066H199.778V148.393Z" fill="white"/>
<path d="M185.507 154.486L185.2 155.084L195.197 160.214L195.504 159.615L185.507 154.486Z" fill="white"/>
<path d="M195.211 137.241L185.211 142.367L185.518 142.966L195.518 137.839L195.211 137.241Z" fill="white"/>
<path d="M97.7366 148.393H85.2085V149.066H97.7366V148.393Z" fill="white"/>
<path d="M89.7768 137.239L89.4697 137.838L99.4677 142.968L99.7747 142.369L89.7768 137.239Z" fill="white"/>
<path d="M99.4773 154.491L89.4771 159.617L89.7839 160.216L99.7841 155.089L99.4773 154.491Z" fill="white"/>
<path d="M79.7972 144.619H71.3848V153.032H79.7972V144.619Z" fill="white"/>
<path d="M5.92281 213.642C5.1348 210.987 5.50794 207.983 6.87603 205.579C10.5452 199.572 19.1616 197.542 25.5377 195.577C31.4754 193.851 37.224 191.11 40.2778 185.416C44.7212 177.177 42.1731 166.874 36.9848 159.593C33.1614 154.172 27.2958 149.825 20.6683 148.878C27.2954 147.93 33.1614 143.583 36.9848 138.162C42.1731 130.881 44.7212 120.578 40.2778 112.339C37.224 106.646 31.4754 103.905 25.5377 102.178C19.1616 100.213 10.5452 98.1833 6.87603 92.177C5.50794 89.7722 5.13513 86.7682 5.92281 84.1134C8.14688 77.1758 19.1414 74.2279 25.7988 74.1812L25.8035 73.9584C19.8779 73.8713 11.556 75.4746 7.24413 79.7713C4.67248 82.3948 3.63952 85.963 4.28655 89.575C4.66475 92.3647 6.31513 94.8694 8.38678 96.7005C13.0102 100.876 19.3029 102.032 25.0905 103.683C32.4633 105.622 38.7442 109.129 40.8626 116.918C44.4228 130.667 32.9057 148.2 18.3066 148.688C18.2471 148.687 18.1878 148.683 18.1283 148.683C18.0257 148.682 17.923 148.688 17.8204 148.691C16.4658 148.665 15.1011 148.321 13.9692 147.579C12.2114 146.521 10.8841 143.704 12.9019 142.255C16.1243 140.249 20.3086 142.831 22.851 144.928L23.0663 144.669C20.4062 142.502 16.0694 139.924 12.7286 142.014C10.5187 143.613 11.8676 146.65 13.7844 147.854C14.5351 148.356 15.379 148.688 16.2541 148.877C15.379 149.066 14.5351 149.397 13.7844 149.9C11.8676 151.104 10.5183 154.141 12.7286 155.74C16.0694 157.83 20.4062 155.252 23.0663 153.085L22.851 152.826C20.3086 154.923 16.1243 157.505 12.9019 155.499C10.8841 154.05 12.2114 151.233 13.9692 150.176C15.1011 149.433 16.4658 149.089 17.8204 149.064C17.923 149.066 18.0257 149.072 18.1283 149.071C18.1878 149.071 18.2471 149.068 18.3066 149.067C32.9057 149.555 44.4228 167.088 40.8626 180.836C38.7442 188.625 32.4633 192.132 25.0905 194.071C19.3029 195.723 13.0102 196.879 8.38678 201.054C6.31513 202.885 4.66475 205.39 4.28655 208.18C3.63952 211.791 4.67248 215.36 7.24413 217.983C11.556 222.28 19.8779 223.883 25.8035 223.796L25.7988 223.573C19.1414 223.527 8.14688 220.58 5.92281 213.642Z" fill="white"/>
<path d="M62.9726 228.745H62.9904C62.8296 231.252 62.8575 233.95 62.4982 236.428C61.8491 240.926 60.4275 246.503 55.6419 248.036C51.4488 249.422 48.6851 247.03 46.357 243.668C44.7443 241.331 43.4412 238.747 42.0566 236.249C39.3106 231.276 35.8743 225.858 30.0964 224.188C28.7031 223.771 27.2499 223.609 25.8037 223.588C25.8037 223.588 25.8037 223.787 25.8037 223.798V223.804C42.3315 223.895 40.7992 247.336 51.2708 251.437C54.5723 252.683 58.369 252.183 61.3993 250.356C65.7946 247.64 68.232 242.831 69.7417 238.113C70.6387 235.166 71.3568 232.166 71.3726 229.078L71.3665 228.745H71.3854V220.333V211.92H62.9729V220.333V228.745H62.9726Z" fill="white"/>
<path d="M30.0961 73.5692C35.874 71.8993 39.3103 66.4811 42.0563 61.5084C43.4409 59.0105 44.744 56.4264 46.3567 54.0893C48.6848 50.7276 51.4485 48.3353 55.6416 49.7209C60.4272 51.2538 61.8492 56.8305 62.4979 61.3287C62.8525 63.7732 62.8307 66.4303 62.9844 68.9071H62.9723V77.3077V77.3195V85.7084H54.5599V94.1208H62.9723V85.7202H71.3847V77.3195V77.3077V68.9071H71.3676L71.3716 68.6789C71.3558 65.5908 70.6374 62.5909 69.7407 59.6437C68.231 54.9257 65.7936 50.1172 61.3983 47.4012C58.368 45.5739 54.5713 45.0745 51.2699 46.3195C40.7982 50.421 42.3305 73.8619 25.8027 73.9535V73.9592C25.8027 73.97 25.8027 74.1691 25.8027 74.1691C27.2496 74.1476 28.7028 73.9861 30.0961 73.5692Z" fill="white"/>
<path d="M71.3851 94.1211H62.9727V102.534H71.3851V94.1211Z" fill="white"/>
<path d="M54.5601 110.946V119.358V127.771H62.9725V119.358V110.946V102.533H54.5601V110.946Z" fill="white"/>
<path d="M62.9727 144.596H71.3851V136.184V127.771H62.9727V136.184V144.596Z" fill="white"/>
<path d="M71.3851 195.096H62.9727V203.508H71.3851V195.096Z" fill="white"/>
<path d="M54.5601 178.27V186.683V195.095H62.9725V186.683V178.27V169.857H54.5601V178.27Z" fill="white"/>
<path d="M62.9727 161.444V169.856H71.3851V161.444V153.031H62.9727V161.444Z" fill="white"/>
<path d="M62.9725 203.508H54.5601V211.92H62.9725V203.508Z" fill="white"/>
<path d="M214.405 144.619H205.992V153.032H214.405V144.619Z" fill="white"/>
<path d="M277.403 201.056C272.78 196.881 266.487 195.725 260.7 194.073C253.327 192.134 247.046 188.627 244.927 180.838C241.367 167.09 252.884 149.557 267.483 149.069C267.543 149.07 267.602 149.073 267.662 149.073C267.764 149.074 267.867 149.068 267.97 149.066C269.324 149.091 270.689 149.435 271.821 150.178C273.579 151.235 274.906 154.052 272.888 155.501C269.666 157.507 265.481 154.925 262.939 152.828L262.724 153.087C265.384 155.254 269.721 157.832 273.061 155.742C275.271 154.143 273.922 151.106 272.006 149.902C271.255 149.399 270.411 149.068 269.536 148.879C270.411 148.689 271.255 148.358 272.006 147.856C273.922 146.652 275.272 143.615 273.061 142.016C269.721 139.926 265.384 142.504 262.724 144.671L262.939 144.93C265.481 142.833 269.666 140.251 272.888 142.257C274.906 143.706 273.579 146.524 271.821 147.58C270.689 148.323 269.324 148.667 267.97 148.693C267.867 148.69 267.764 148.684 267.662 148.685C267.602 148.685 267.543 148.688 267.483 148.69C252.884 148.202 241.367 130.668 244.927 116.92C247.046 109.131 253.327 105.624 260.7 103.685C266.487 102.033 272.78 100.878 277.403 96.7024C279.475 94.8717 281.125 92.3667 281.503 89.577C282.151 85.9653 281.118 82.3967 278.546 79.7733C274.234 75.4762 265.912 73.8732 259.987 73.9604L259.991 74.1831C266.649 74.2299 277.643 77.1774 279.867 84.1154C280.655 86.7702 280.282 89.7738 278.914 92.1789C275.245 98.1853 266.628 100.215 260.252 102.18C254.315 103.907 248.566 106.647 245.512 112.341C241.069 120.58 243.617 130.883 248.805 138.164C252.629 143.585 258.495 147.932 265.122 148.88C258.494 149.827 252.629 154.174 248.805 159.595C243.617 166.876 241.069 177.179 245.512 185.418C248.566 191.112 254.315 193.853 260.252 195.579C266.628 197.544 275.245 199.574 278.914 205.581C280.282 207.985 280.655 210.989 279.867 213.644C277.643 220.582 266.649 223.529 259.991 223.576L259.987 223.799C265.912 223.886 274.234 222.283 278.546 217.986C281.118 215.363 282.151 211.794 281.503 208.183C281.125 205.392 279.475 202.887 277.403 201.056Z" fill="white"/>
<path d="M255.694 224.188C249.916 225.858 246.48 231.276 243.734 236.249C242.349 238.747 241.046 241.331 239.433 243.668C237.105 247.03 234.341 249.422 230.148 248.036C225.363 246.503 223.941 240.926 223.292 236.428C222.933 233.95 222.961 231.252 222.8 228.745H222.818V220.333V211.92H214.405V220.333V228.745H214.424L214.418 229.078C214.434 232.166 215.152 235.166 216.049 238.113C217.559 242.831 219.996 247.64 224.391 250.356C227.422 252.183 231.218 252.683 234.52 251.437C244.991 247.336 243.459 223.895 259.987 223.804V223.798C259.987 223.787 259.987 223.588 259.987 223.588C258.541 223.609 257.087 223.771 255.694 224.188Z" fill="white"/>
<path d="M234.52 46.3195C231.218 45.0745 227.421 45.5739 224.391 47.4012C219.996 50.1169 217.559 54.9254 216.049 59.6437C215.152 62.5909 214.434 65.5908 214.418 68.6789L214.422 68.9071H214.405V77.3077V77.3195V85.7202H222.817V94.1208H231.23V85.7084H222.817V77.3195V77.3077V68.9071H222.805C222.959 66.4303 222.937 63.7732 223.292 61.3287C223.941 56.8305 225.362 51.2538 230.148 49.7209C234.341 48.3356 237.105 50.7276 239.433 54.0893C241.046 56.426 242.349 59.0105 243.733 61.5084C246.479 66.4808 249.916 71.8993 255.693 73.5692C257.087 73.9861 258.54 74.1479 259.986 74.1691C259.986 74.1691 259.986 73.97 259.986 73.9592V73.9535C243.459 73.8623 244.991 50.4214 234.52 46.3195Z" fill="white"/>
<path d="M222.817 94.1211H214.405V102.534H222.817V94.1211Z" fill="white"/>
<path d="M222.817 119.358V127.771H231.23V119.358V110.946V102.533H222.817V110.946V119.358Z" fill="white"/>
<path d="M214.405 136.184V144.596H222.817V136.184V127.771H214.405V136.184Z" fill="white"/>
<path d="M222.817 195.096H214.405V203.508H222.817V195.096Z" fill="white"/>
<path d="M231.23 186.683V178.27V169.857H222.817V178.27V186.683V195.095H231.23V186.683Z" fill="white"/>
<path d="M222.817 153.031H214.405V161.444V169.856H222.817V161.444V153.031Z" fill="white"/>
<path d="M231.229 203.508H222.817V211.92H231.229V203.508Z" fill="white"/>
<path d="M88.2083 211.932H79.7959V220.344H88.2083V228.726H96.6211V220.313H88.2083V211.932Z" fill="white"/>
<path d="M197.571 220.333H189.159V228.745H197.571V220.344H205.984V211.932H197.571V220.333Z" fill="white"/>
<path d="M147.096 220.328H138.684V228.741H147.096V220.328Z" fill="white"/>
<path d="M155.522 237.153V228.74H155.509H147.11H147.097V237.153H151.309H155.522Z" fill="white"/>
<path d="M138.684 237.154V245.567H147.096V237.154H142.89H138.684Z" fill="white"/>
<path d="M130.271 228.74H130.257V237.153H134.47H138.683V228.74H138.67H130.271Z" fill="white"/>
<path d="M147.096 270.796H138.684V262.391H138.67H130.271V270.803H138.684V279.208H142.89H147.096V270.803H155.509V262.391H147.097H147.096V270.796Z" fill="white"/>
<path d="M189.697 103.384C189.881 103.38 190.04 103.251 190.051 103.066C190.06 102.881 189.919 102.723 189.734 102.712C189.664 102.709 187.99 102.628 186.027 103.585C184.515 104.324 182.59 105.827 181.322 108.854L181.156 67.7949C181.156 67.7428 181.156 67.6906 181.156 67.6388C181.159 66.9389 181.172 66.2421 181.151 65.5466C181.134 64.9948 181.095 64.444 181.012 63.8932C180.831 62.6907 180.499 61.1648 180.1 60.0272C179.631 58.689 179.051 57.6433 178.158 56.5272C181.805 52.1023 182.622 45.1622 177.791 41.2309C174.867 38.7609 171.149 37.3433 167.37 36.7834C165.265 36.4608 163.175 36.6209 161.139 36.169C156.785 35.1956 155.509 31.3996 155.508 26.8515L147.097 26.8438C147.097 34.6455 150.644 39.6828 156.983 41.3238C158.083 41.5822 159.616 41.7013 160.739 41.6522C162.966 41.6293 165.154 40.9102 167.304 40.6357C171.202 40.1902 175.643 40.746 178.66 43.4745C182.237 46.9092 181.239 52.9784 178.02 56.3552C177.977 56.3028 177.936 56.2479 177.892 56.1961C175.039 52.8216 169.927 51.3597 165.658 52.7574C163.327 53.4411 161.429 55.3502 162.656 57.9108C164.104 60.4134 167.585 60.8727 170.167 60.722C173.165 60.4841 175.978 59.0433 177.873 56.8647C177.91 56.8226 177.945 56.7782 177.982 56.7355C178.044 56.8007 178.103 56.8684 178.162 56.937C179.129 58.0813 179.671 59.5773 180.07 61.0012C180.53 62.6415 180.82 64.3525 180.82 66.0584C180.82 66.8245 180.82 67.591 180.82 68.3572C180.82 69.5213 180.684 102.891 180.661 108.834C177.989 102.477 172.319 102.707 172.257 102.712C172.072 102.722 171.93 102.881 171.94 103.067C171.95 103.252 172.097 103.392 172.295 103.384C172.351 103.383 178.58 103.127 180.671 110.942C180.71 111.089 180.843 111.191 180.996 111.191C181.148 111.191 181.281 111.089 181.321 110.942C183.406 103.149 189.443 103.372 189.697 103.384ZM177.687 56.6877C175.69 58.6342 172.851 59.542 170.124 59.5093C168.126 59.4471 165.389 58.8677 164.339 57.0699C164.057 56.4414 164.159 55.761 164.715 55.2964C168.307 52.4781 174.438 53.3354 177.667 56.4108C177.718 56.4599 177.764 56.512 177.813 56.5618C177.771 56.6036 177.73 56.6466 177.687 56.6877Z" fill="white"/>
<path d="M96.6205 52.082H88.208V60.4945H96.6205V52.082Z" fill="white"/>
<path d="M197.571 52.082H189.159V60.4945H197.571V52.082Z" fill="white"/>
<path d="M205.983 43.6699H197.571V52.0824H205.983V43.6699Z" fill="white"/>
<path d="M155.509 52.082H147.097V60.4945H155.509V52.082Z" fill="white"/>
<path d="M147.096 60.4961H138.684V68.9085H147.096V60.4961Z" fill="white"/>
<path d="M138.67 52.082H130.257V60.4945H138.67V52.082Z" fill="white"/>
<path d="M147.096 43.6699H138.684V52.0824H147.096V43.6699Z" fill="white"/>
<path d="M88.2083 43.6699H79.7959V52.0824H88.2083V43.6699Z" fill="white"/>
<path d="M96.6205 35.2559H88.208V43.6683H96.6205V35.2559Z" fill="white"/>
<path d="M197.571 35.2559H189.159V43.6683H197.571V35.2559Z" fill="white"/>
<path d="M155.509 18.4316H147.096V26.8444H147.097H155.509V18.4316Z" fill="white"/>
<path d="M147.096 9.96094H138.684V18.3734H147.096V9.96094Z" fill="white"/>
<path d="M138.683 18.4316H130.271V26.8441H138.683V18.4316Z" fill="white"/>
<path d="M104.756 119.505C104.909 119.505 105.042 119.402 105.081 119.255C107.167 111.463 113.201 111.684 113.458 111.698C113.638 111.699 113.801 111.565 113.812 111.38C113.821 111.195 113.68 111.036 113.495 111.026C113.425 111.023 111.751 110.942 109.788 111.899C108.286 112.633 106.375 114.122 105.107 117.112C105.085 110.234 104.947 69.5264 104.947 68.3572C104.947 67.591 104.947 66.8249 104.947 66.0584C104.947 64.3525 105.237 62.6415 105.697 61.0012C106.096 59.5776 106.638 58.0813 107.605 56.937C107.663 56.868 107.723 56.8007 107.785 56.7355C107.821 56.7782 107.857 56.8226 107.894 56.8647C109.789 59.0433 112.602 60.4844 115.6 60.722C118.182 60.8727 121.663 60.4134 123.111 57.9108C124.337 55.3502 122.44 53.4411 120.109 52.7574C115.84 51.3597 110.728 52.8216 107.875 56.1961C107.831 56.2476 107.79 56.3028 107.747 56.3553C104.528 52.9781 103.529 46.9088 107.107 43.4745C110.124 40.746 114.565 40.1902 118.462 40.6357C120.612 40.9102 122.801 41.6293 125.028 41.6522C126.15 41.7013 127.684 41.5822 128.784 41.3238C135.122 39.6828 138.67 34.6452 138.67 26.8438L130.258 26.8515C130.258 31.3996 128.982 35.1956 124.627 36.169C122.592 36.6209 120.502 36.4608 118.396 36.7834C114.618 37.3433 110.9 38.7609 107.976 41.2309C103.145 45.1626 103.962 52.1026 107.609 56.5272C106.716 57.6429 106.136 58.689 105.667 60.0272C105.269 61.1648 104.936 62.6907 104.755 63.8932C104.672 64.444 104.633 64.9948 104.616 65.5466C104.595 66.2421 104.608 66.9389 104.611 67.6388C104.611 67.6906 104.611 67.7428 104.611 67.7949L104.445 117.201C101.783 110.79 96.082 111.023 96.0187 111.026C95.8333 111.036 95.691 111.195 95.7017 111.381C95.7118 111.566 95.8659 111.702 96.0564 111.698C96.1139 111.694 102.341 111.44 104.432 119.255C104.471 119.403 104.604 119.505 104.756 119.505ZM108.099 56.4104C111.328 53.3354 117.459 52.4778 121.051 55.296C121.608 55.7607 121.71 56.4414 121.427 57.0696C120.377 58.8677 117.641 59.4471 115.642 59.509C112.916 59.5416 110.076 58.6335 108.079 56.6873C108.036 56.6463 107.995 56.6032 107.953 56.5612C108.002 56.5117 108.049 56.4596 108.099 56.4104Z" fill="white"/>
<path d="M181.392 117.516C181.39 117.503 181.39 117.489 181.387 117.476C181.383 117.462 181.376 117.449 181.37 117.436C181.365 117.422 181.361 117.408 181.353 117.396C181.347 117.385 181.339 117.377 181.332 117.367C181.305 117.33 181.272 117.296 181.231 117.272L162.424 106.4L162.529 99.0771C162.53 98.9559 162.467 98.8432 162.362 98.7816C162.341 98.7695 162.32 98.7618 162.297 98.7544L143.227 87.6919C143.122 87.6313 142.994 87.6313 142.889 87.6919L123.719 98.78C123.621 98.8365 123.561 98.9384 123.554 99.0502C123.553 99.0572 123.551 99.0639 123.551 99.071L123.522 115.273L104.593 126.273C104.492 126.332 104.43 126.438 104.427 126.554C104.427 126.558 104.426 126.561 104.426 126.564L104.451 175.146H104.442L104.612 221.441C104.612 221.492 104.612 221.545 104.611 221.597C104.608 222.297 104.595 222.993 104.617 223.689C104.633 224.241 104.672 224.791 104.755 225.342C104.937 226.545 105.269 228.071 105.668 229.208C106.137 230.547 106.716 231.592 107.609 232.708C103.962 237.133 103.145 244.073 107.976 248.005C110.9 250.475 114.619 251.893 118.397 252.452C120.502 252.775 122.592 252.615 124.628 253.067C128.983 254.04 130.259 257.836 130.259 262.384L138.671 262.392C138.671 254.59 135.123 249.553 128.785 247.912C127.685 247.653 126.151 247.534 125.029 247.583C122.801 247.606 120.613 248.325 118.463 248.6C114.566 249.045 110.124 248.489 107.108 245.76C103.53 242.326 104.528 236.257 107.748 232.88C107.791 232.932 107.832 232.987 107.876 233.039C110.728 236.413 115.841 237.875 120.11 236.478C122.441 235.794 124.338 233.885 123.111 231.324C121.664 228.821 118.182 228.362 115.601 228.513C112.603 228.751 109.79 230.192 107.895 232.371C107.857 232.413 107.822 232.457 107.785 232.5C107.724 232.435 107.664 232.367 107.606 232.298C106.639 231.154 106.097 229.658 105.698 228.234C105.238 226.594 104.948 224.883 104.948 223.177C104.948 222.411 104.948 221.645 104.948 220.878C104.948 219.711 105.085 182.467 105.107 176.078L142.887 198.341C142.895 198.346 142.905 198.348 142.913 198.352C142.923 198.357 142.932 198.361 142.942 198.365C142.98 198.378 143.018 198.388 143.058 198.388C143.097 198.388 143.136 198.378 143.173 198.365C143.183 198.36 143.193 198.357 143.203 198.352C143.212 198.347 143.222 198.345 143.23 198.34L180.611 176.003C180.64 182.311 180.82 219.709 180.82 220.878C180.82 221.645 180.82 222.411 180.82 223.177C180.82 224.883 180.53 226.594 180.07 228.234C179.671 229.658 179.129 231.154 178.162 232.298C178.103 232.367 178.044 232.434 177.982 232.5C177.945 232.457 177.91 232.413 177.873 232.371C175.978 230.192 173.165 228.751 170.167 228.513C167.585 228.363 164.104 228.822 162.656 231.324C161.429 233.885 163.327 235.794 165.658 236.478C169.927 237.875 175.04 236.414 177.892 233.039C177.936 232.987 177.976 232.932 178.02 232.88C181.239 236.256 182.237 242.326 178.66 245.76C175.643 248.489 171.202 249.045 167.304 248.6C165.154 248.325 162.966 247.606 160.739 247.583C159.616 247.534 158.082 247.653 156.982 247.912C150.645 249.553 147.097 254.59 147.097 262.392L155.508 262.384C155.509 257.836 156.785 254.04 161.139 253.067C163.175 252.615 165.265 252.775 167.37 252.452C171.149 251.893 174.867 250.475 177.791 248.005C182.622 244.073 181.805 237.133 178.158 232.708C179.052 231.592 179.631 230.546 180.1 229.208C180.499 228.071 180.831 226.545 181.012 225.342C181.095 224.791 181.134 224.241 181.151 223.689C181.172 222.993 181.159 222.296 181.156 221.597C181.156 221.545 181.156 221.492 181.156 221.441L181.279 175.452C181.281 175.438 181.285 175.424 181.285 175.41L181.399 117.565C181.399 117.564 181.399 117.564 181.399 117.564C181.399 117.564 181.399 117.564 181.399 117.563C181.398 117.547 181.394 117.532 181.392 117.516ZM108.08 232.548C110.077 230.602 112.916 229.694 115.643 229.726C117.641 229.789 120.378 230.368 121.427 232.166C121.71 232.794 121.608 233.475 121.051 233.939C117.46 236.758 111.329 235.9 108.099 232.825C108.049 232.776 108.002 232.724 107.953 232.674C107.995 232.632 108.036 232.589 108.08 232.548ZM177.667 232.825C174.438 235.9 168.307 236.758 164.715 233.94C164.159 233.475 164.057 232.795 164.339 232.166C165.389 230.368 168.126 229.789 170.124 229.727C172.851 229.694 175.69 230.602 177.687 232.548C177.73 232.589 177.771 232.633 177.813 232.674C177.764 232.724 177.717 232.776 177.667 232.825ZM180.692 131.104L162.506 141.672L162.542 129.639L162.549 128.753L180.724 118.15L180.692 131.104ZM180.391 117.565L162.23 128.133L155.664 124.368L155.603 124.333C155.577 124.318 155.549 124.307 155.522 124.299C155.493 124.291 155.464 124.287 155.434 124.287C155.423 124.287 155.411 124.291 155.399 124.292C155.366 124.296 155.333 124.304 155.302 124.318C155.29 124.323 155.278 124.326 155.266 124.333C155.266 124.333 155.266 124.333 155.266 124.333L151.261 126.66L147.687 124.597L151.358 122.463C151.463 122.402 151.527 122.289 151.525 122.167C151.523 122.045 151.455 121.934 151.348 121.876L143.749 117.801L148.191 115.18L151.283 113.356L155.389 115.75C155.442 115.78 155.5 115.796 155.559 115.796C155.617 115.796 155.675 115.78 155.727 115.751L160.056 113.257C160.16 113.197 160.224 113.087 160.224 112.967C160.225 112.847 160.161 112.736 160.058 112.676L158.154 111.561L160.049 110.46C160.153 110.4 160.217 110.289 160.217 110.17L160.221 108.083L161.394 107.391L162.085 106.983L180.391 117.565ZM152.535 131.371L153.778 130.649L154.903 131.299L151.592 133.223V131.919L152.535 131.371ZM151.599 127.242L154.732 125.421L155.098 125.209L155.094 129.105L151.606 131.133L151.6 128.183L151.599 127.242ZM154.455 130.255L155.599 129.59C155.703 129.53 155.766 129.419 155.766 129.3L155.77 125.206L161.872 128.729L161.869 129.628L161.835 134.522L154.455 130.255ZM150.251 130.756L147.317 129.103L147.348 125.178L150.926 127.243L150.928 128.405L150.928 128.804H150.919V131.133L150.251 130.756ZM150.919 131.905V133.191L147.637 131.296L148.72 130.666L150.919 131.905ZM151.107 110.455L153 111.561L143.401 117.224L143.408 110.346L150.985 105.962L150.94 110.161C150.939 110.282 151.003 110.394 151.107 110.455ZM153.835 111.269C153.835 111.269 153.835 111.269 153.835 111.269L153.835 111.269L151.616 109.972L151.658 105.957L155.248 108.053L155.241 112.091L153.835 111.269ZM155.228 112.863L155.224 114.874L151.947 112.964L153.666 111.95L155.228 112.863ZM146.85 124.305C146.85 124.305 146.849 124.305 146.849 124.305C146.849 124.306 146.848 124.306 146.848 124.306L146.847 124.307C146.838 124.312 146.832 124.319 146.823 124.325C146.808 124.336 146.791 124.346 146.778 124.36C146.778 124.36 146.778 124.36 146.778 124.361C146.769 124.37 146.762 124.381 146.754 124.391C146.754 124.391 146.754 124.391 146.754 124.392C146.744 124.404 146.733 124.415 146.726 124.428C146.726 124.428 146.726 124.429 146.726 124.429C146.717 124.444 146.712 124.46 146.706 124.476C146.701 124.487 146.695 124.497 146.692 124.508C146.692 124.509 146.692 124.509 146.692 124.509C146.689 124.523 146.688 124.538 146.686 124.554C146.684 124.567 146.68 124.581 146.68 124.595L146.671 125.754L143.394 123.859L143.4 118.377L150.499 122.185L146.85 124.305ZM157.486 111.949L159.218 112.963L155.896 114.876L155.901 112.87L157.486 111.949ZM155.914 112.078L155.921 108.048L159.54 105.945L159.536 107.897L159.532 109.975L155.914 112.078ZM161.75 106.399L160.222 107.3L160.226 105.363C160.226 105.358 160.228 105.353 160.228 105.348C160.228 105.348 160.228 105.347 160.228 105.347C160.228 105.347 160.228 105.346 160.228 105.346C160.228 105.327 160.224 105.31 160.221 105.291C160.219 105.281 160.219 105.27 160.216 105.259C160.21 105.238 160.2 105.217 160.19 105.197C160.187 105.191 160.186 105.185 160.183 105.179C160.154 105.129 160.112 105.086 160.06 105.056L156.291 102.88L161.847 99.6605L161.75 106.399ZM143.057 88.3716L161.503 99.0724L155.449 102.59C155.431 102.601 155.416 102.615 155.4 102.628C155.393 102.634 155.386 102.638 155.379 102.644C155.362 102.662 155.348 102.682 155.334 102.703C155.332 102.707 155.328 102.71 155.326 102.713C155.297 102.763 155.281 102.821 155.282 102.882C155.282 103.001 155.346 103.113 155.45 103.173L159.219 105.349L155.574 107.465L151.497 105.084C151.392 105.024 151.263 105.023 151.159 105.084L143.063 109.767L136.589 106.018L136.358 105.884L140.165 103.671C140.269 103.611 140.333 103.5 140.333 103.38C140.333 103.26 140.269 103.149 140.165 103.089L135.846 100.596C135.741 100.535 135.613 100.535 135.509 100.596L131.368 103.002L124.559 99.0703L143.057 88.3716ZM136.042 106.479L136.148 106.54L142.721 110.354L142.727 117.814L142.721 123.856L140.779 124.941L136.064 122.226L136.037 117.436C136.037 117.405 136.031 117.375 136.023 117.346C136.023 117.345 136.023 117.345 136.023 117.344L136.042 106.479ZM136.029 105.297V101.478L139.326 103.381L136.029 105.297ZM135.37 105.874L135.35 117.244L131.735 119.344L131.731 113.4L131.724 103.574L135.356 101.463V105.873H135.37V105.874ZM124.223 99.6538L131.051 103.596L131.062 119.338L124.194 115.373L124.223 99.6538ZM123.771 115.906L131.19 120.19C131.204 120.2 131.216 120.212 131.231 120.221C131.283 120.251 131.341 120.266 131.399 120.266C131.401 120.266 131.403 120.265 131.405 120.265C131.407 120.265 131.41 120.265 131.412 120.265C131.417 120.265 131.422 120.264 131.427 120.263C131.451 120.262 131.475 120.26 131.499 120.254C131.527 120.247 131.555 120.235 131.581 120.22L135.367 118.02L135.392 122.423C135.393 122.543 135.456 122.653 135.56 122.712L140.1 125.326L136.932 127.134L132.9 124.806C132.795 124.745 132.667 124.745 132.562 124.806L128.292 127.288C128.288 127.29 128.284 127.291 128.281 127.293C128.251 127.309 128.226 127.33 128.203 127.353C128.199 127.358 128.196 127.363 128.192 127.368C128.178 127.384 128.163 127.401 128.152 127.42C128.122 127.471 128.105 127.53 128.105 127.591C128.105 127.594 128.106 127.596 128.106 127.598L128.114 132.256L123.783 134.773C123.781 134.774 123.779 134.775 123.777 134.776C123.745 134.783 123.714 134.794 123.685 134.811C123.684 134.812 123.683 134.813 123.682 134.814C123.675 134.818 123.669 134.824 123.662 134.828C123.641 134.844 123.62 134.861 123.603 134.88C123.596 134.888 123.59 134.897 123.583 134.906C123.569 134.926 123.557 134.947 123.547 134.969C123.543 134.979 123.538 134.989 123.535 134.999C123.524 135.032 123.517 135.066 123.517 135.102L123.513 137.002L105.432 126.563L123.771 115.906ZM128.81 128.192L131.963 130.02L128.787 131.865L128.78 128.174L128.81 128.192ZM105.097 127.146L123.513 137.779L123.506 141.638L105.091 130.957L105.097 127.146ZM142.721 197.462L105.124 175.307L105.085 131.732L142.721 153.56L142.721 197.462ZM124.189 135.684L142.715 146.38L142.721 146.383L142.721 147.98L142.719 152.781L124.226 142.056L124.189 135.684ZM143.057 145.8L142.831 145.669L124.559 135.101L128.782 132.647L132.792 130.317L132.792 130.316L132.81 130.306C132.914 130.245 132.978 130.134 132.978 130.015C132.977 129.894 132.913 129.783 132.809 129.723L129.113 127.589L132.733 125.486L136.763 127.813C136.867 127.873 136.994 127.874 137.097 127.814L143.054 124.441L146.664 126.54L146.643 129.297C146.642 129.419 146.708 129.532 146.814 129.592L148.04 130.283L146.796 131.006C146.693 131.067 146.629 131.178 146.629 131.298C146.629 131.418 146.693 131.529 146.797 131.589L151.116 134.082C151.168 134.112 151.226 134.127 151.285 134.127C151.343 134.127 151.402 134.112 151.454 134.081L155.576 131.685L161.496 135.103L143.057 145.8ZM143.393 146.382L161.831 135.687V142.064L143.392 152.78L143.393 146.382ZM143.393 197.458L143.394 153.558L180.69 131.883L180.612 175.102H180.606C180.606 175.11 180.606 175.155 180.607 175.221L143.393 197.458Z" fill="white"/>
</svg>
