<svg width="286" height="286" viewBox="0 0 286 286" fill="none" xmlns="http://www.w3.org/2000/svg">
<path d="M56.9146 113.194V135.122L75.905 124.16V102.232L56.9146 113.194Z" fill="#9D7BA1"/>
<path d="M75.9052 102.232L56.9148 113.194L37.9277 102.232L56.9148 91.2695L75.9052 102.232Z" fill="#FFA5FF"/>
<path d="M56.9148 113.195V135.122L37.9277 124.16V102.232L56.9148 113.195Z" fill="#9D7BA1"/>
<path d="M56.9146 177.294V199.222L75.905 188.26V166.332L56.9146 177.294Z" fill="#9D7BA1"/>
<path d="M75.9052 166.331L56.9148 177.294L37.9277 166.331L56.9148 155.369L75.9052 166.331Z" fill="#FFA5FF"/>
<path d="M56.9148 177.294V199.222L37.9277 188.26V166.332L56.9148 177.294Z" fill="#9D7BA1"/>
<path d="M142.9 177.294V199.222L161.891 188.26V166.332L142.9 177.294Z" fill="#9D7BA1"/>
<path d="M161.891 166.331L142.901 177.294L123.914 166.331L142.901 155.369L161.891 166.331Z" fill="#FFA5FF"/>
<path d="M142.901 177.294V199.222L123.914 188.26V166.332L142.901 177.294Z" fill="#9D7BA1"/>
<path d="M228.186 113.194V135.122L247.176 124.16V102.232L228.186 113.194Z" fill="#9D7BA1"/>
<path d="M247.176 102.232L228.186 113.194L209.199 102.232L228.186 91.2695L247.176 102.232Z" fill="#FFA5FF"/>
<path d="M228.186 113.195V135.122L209.199 124.16V102.232L228.186 113.195Z" fill="#9D7BA1"/>
<path d="M228.186 177.294V199.222L247.176 188.26V166.332L228.186 177.294Z" fill="#9D7BA1"/>
<path d="M247.177 166.331L228.186 177.294L209.199 166.331L228.186 155.369L247.177 166.331Z" fill="#FFA5FF"/>
<path d="M228.186 177.294V199.222L209.199 188.26V166.332L228.186 177.294Z" fill="#9D7BA1"/>
<path d="M186.199 143.675V165.603L205.19 154.641V132.713L186.199 143.675Z" fill="#9D7BA1"/>
<path d="M205.189 132.712L186.199 143.674L167.212 132.712L186.199 121.75L205.189 132.712Z" fill="#FFA5FF"/>
<path d="M186.199 143.675V165.603L167.212 154.641V132.713L186.199 143.675Z" fill="#9D7BA1"/>
<path d="M98.9575 143.675V165.603L117.948 154.641V132.713L98.9575 143.675Z" fill="#9D7BA1"/>
<path d="M117.948 132.712L98.9577 143.674L79.9707 132.712L98.9577 121.75L117.948 132.712Z" fill="#FFA5FF"/>
<path d="M98.9577 143.675V165.603L79.9707 154.641V132.713L98.9577 143.675Z" fill="#9D7BA1"/>
<path d="M156.929 102.518V96.0314C156.929 88.373 150.699 82.1426 143.04 82.1426C135.382 82.1426 129.152 88.373 129.152 96.0314V102.249C124.404 106.194 121.381 112.141 121.381 118.796C121.381 130.673 131.009 140.301 142.886 140.301C154.763 140.301 164.391 130.673 164.391 118.796C164.391 112.289 161.496 106.461 156.929 102.518ZM133.948 96.0314C133.948 91.0177 138.027 86.939 143.04 86.939C148.054 86.939 152.133 91.018 152.133 96.0314V99.3773C149.331 98.0408 146.196 97.2912 142.885 97.2912C139.695 97.2912 136.67 97.9913 133.948 99.2376V96.0314Z" fill="#FFA5FF"/>
<path d="M144.942 116.791C146.121 116.091 146.911 114.805 146.911 113.335C146.911 111.116 145.112 109.316 142.893 109.316C140.674 109.316 138.875 111.116 138.875 113.335C138.875 114.805 139.665 116.091 140.844 116.791L138.875 127.526H141.072H144.714H146.911L144.942 116.791Z" fill="#9D7BA1"/>
<path d="M142.886 103.494C143.685 103.494 144.334 102.846 144.334 102.046C144.334 101.246 143.685 100.598 142.886 100.598C142.086 100.598 141.438 101.246 141.438 102.046C141.438 102.846 142.086 103.494 142.886 103.494Z" fill="#9D7BA1"/>
<path d="M142.886 137.25C143.685 137.25 144.334 136.601 144.334 135.802C144.334 135.002 143.685 134.354 142.886 134.354C142.086 134.354 141.438 135.002 141.438 135.802C141.438 136.601 142.086 137.25 142.886 137.25Z" fill="#9D7BA1"/>
<path d="M159.756 120.244C160.556 120.244 161.204 119.596 161.204 118.796C161.204 117.996 160.556 117.348 159.756 117.348C158.956 117.348 158.308 117.996 158.308 118.796C158.308 119.596 158.956 120.244 159.756 120.244Z" fill="#9D7BA1"/>
<path d="M126.03 120.244C126.83 120.244 127.478 119.596 127.478 118.796C127.478 117.996 126.83 117.348 126.03 117.348C125.23 117.348 124.582 117.996 124.582 118.796C124.582 119.596 125.23 120.244 126.03 120.244Z" fill="#9D7BA1"/>
<path d="M154.899 108.232C155.699 108.232 156.348 107.584 156.348 106.784C156.348 105.984 155.699 105.336 154.899 105.336C154.1 105.336 153.451 105.984 153.451 106.784C153.451 107.584 154.1 108.232 154.899 108.232Z" fill="#9D7BA1"/>
<path d="M130.925 108.318C131.725 108.318 132.373 107.67 132.373 106.87C132.373 106.07 131.725 105.422 130.925 105.422C130.125 105.422 129.477 106.07 129.477 106.87C129.477 107.67 130.125 108.318 130.925 108.318Z" fill="#9D7BA1"/>
<path d="M130.925 132.133C131.725 132.133 132.373 131.484 132.373 130.685C132.373 129.885 131.725 129.236 130.925 129.236C130.125 129.236 129.477 129.885 129.477 130.685C129.477 131.484 130.125 132.133 130.925 132.133Z" fill="#9D7BA1"/>
<path d="M154.899 132.133C155.699 132.133 156.348 131.484 156.348 130.685C156.348 129.885 155.699 129.236 154.899 129.236C154.1 129.236 153.451 129.885 153.451 130.685C153.451 131.484 154.1 132.133 154.899 132.133Z" fill="#9D7BA1"/>
<path d="M20.9332 68.877H12.5215V77.2887H20.9332V68.877Z" fill="white"/>
<path d="M273.31 26.8145H264.898V35.2262H273.31V26.8145Z" fill="white"/>
<path d="M273.31 52.0508H264.898V60.4625H273.31V52.0508Z" fill="white"/>
<path d="M256.486 43.6383V52.0501H264.898V43.6383V35.2266H256.486V43.6383Z" fill="white"/>
<path d="M273.31 60.4824V68.8875H264.898V77.2992H273.31V68.8942H281.721V60.4824H273.31Z" fill="white"/>
<path d="M20.9298 26.8125H12.5181V35.2243H20.9298V26.8125Z" fill="white"/>
<path d="M29.3449 43.6383V35.2266H20.9331V43.6383V52.0501H29.3449V43.6383Z" fill="white"/>
<path d="M20.9332 52.0508H12.5215V60.4625H20.9332V52.0508Z" fill="white"/>
<path d="M12.5182 60.4648H4.10645V68.8766H12.5182V60.4648Z" fill="white"/>
<path d="M172.351 10.0195H163.939V18.4313H172.347H172.351V10.0195Z" fill="white"/>
<path d="M163.939 18.4316H155.527V26.8434H163.939V18.4316Z" fill="white"/>
<path d="M121.845 10.0195H113.433V18.4313H113.436H121.845V10.0195Z" fill="white"/>
<path d="M130.257 18.4316H121.845V26.8434H130.257V18.4316Z" fill="white"/>
<path d="M12.5182 220.341H20.93V211.93H12.5182V220.335H4.10645V228.747H12.5182V220.341Z" fill="white"/>
<path d="M20.9298 254.002H12.5181V262.414H20.9298V254.002Z" fill="white"/>
<path d="M29.3415 245.589V237.178H20.9297V245.589V254.001H29.3415V245.589Z" fill="white"/>
<path d="M20.9298 228.766H12.5181V237.177H20.9298V228.766Z" fill="white"/>
<path d="M273.31 254.006H264.898V262.418H273.31V254.006Z" fill="white"/>
<path d="M256.483 262.419H256.096V262.419C251.468 262.359 247.283 262.527 242.939 261.849C240.756 261.549 238.582 260.896 236.928 259.374C233.085 256.025 233.501 250.335 235.489 245.938C237.816 240.675 242.47 237.076 246.414 232.93C253.244 226.141 258.227 216.586 257.039 206.744C256.134 199.658 251.629 192.863 245.081 189.861L247.35 188.551C247.454 188.491 247.518 188.38 247.518 188.26V166.332C247.518 166.323 247.515 166.315 247.514 166.306C247.514 166.295 247.512 166.286 247.51 166.275C247.504 166.236 247.493 166.198 247.473 166.164C247.473 166.164 247.473 166.164 247.473 166.164C247.453 166.129 247.426 166.101 247.395 166.075C247.387 166.069 247.38 166.063 247.372 166.057C247.364 166.052 247.358 166.045 247.35 166.041L228.36 155.078C228.256 155.019 228.127 155.019 228.023 155.078L217.043 161.418L217.112 161.3L205.534 154.517V132.713C205.534 132.704 205.531 132.695 205.531 132.687C205.53 132.676 205.528 132.666 205.527 132.656C205.52 132.617 205.509 132.579 205.489 132.545C205.489 132.545 205.489 132.545 205.489 132.545C205.47 132.511 205.442 132.482 205.412 132.456C205.404 132.449 205.395 132.443 205.387 132.437C205.38 132.432 205.374 132.426 205.366 132.422L186.376 121.459C186.272 121.399 186.143 121.399 186.039 121.459L171.348 129.941L163.732 125.322C164.358 123.327 164.707 121.21 164.729 119.015H208.867V124.16C208.867 124.281 208.931 124.392 209.036 124.452L228.023 135.414C228.031 135.418 228.04 135.42 228.048 135.424C228.057 135.429 228.066 135.432 228.076 135.436C228.113 135.449 228.152 135.459 228.191 135.459C228.231 135.459 228.269 135.449 228.307 135.436C228.317 135.432 228.326 135.429 228.335 135.424C228.343 135.42 228.352 135.418 228.36 135.414L247.35 124.452C247.455 124.392 247.519 124.281 247.519 124.16V102.233C247.519 102.224 247.516 102.215 247.515 102.206C247.515 102.196 247.513 102.186 247.511 102.176C247.504 102.136 247.493 102.099 247.474 102.065C247.474 102.065 247.474 102.065 247.474 102.064C247.454 102.03 247.426 102.001 247.395 101.976C247.388 101.969 247.38 101.964 247.372 101.958C247.365 101.952 247.359 101.946 247.351 101.941L243.813 99.8989C251.049 97.2368 256.086 90.0262 257.048 82.4872C258.238 72.6465 253.253 63.0894 246.422 56.3011C242.478 52.1548 237.825 48.5579 235.498 43.2931C233.512 38.8908 233.089 33.2165 236.937 29.8579C238.592 28.3333 240.764 27.6829 242.948 27.3821C247.214 26.7162 251.327 26.8666 255.859 26.8155L256.486 26.8158H259.878H264.898V18.4041H259.878H256.486H255.859V18.4061C251.183 18.3681 245.98 18.7076 241.253 20.0884C237.786 21.0036 234.49 22.8976 232.313 25.7933C228.657 30.4776 228.594 37.0913 231.42 42.0738C235.805 49.9371 243.957 54.5138 249.561 61.26C255.518 68.5308 258.823 78.9227 255.204 87.9751C252.896 93.7593 248.49 97.9642 243.171 99.5285L228.36 90.9788C228.256 90.9189 228.127 90.9189 228.023 90.9788L223.502 93.5891C221.674 91.9663 219.938 90.1204 218.417 88.1611C221.503 86.929 224.223 84.8267 226.233 82.177C230.513 76.7555 232.312 66.5217 225.237 62.5029C222.275 60.7849 218.422 61.118 215.593 62.9323C211.829 65.2667 209.86 69.6684 209.717 73.949C209.523 79.0822 211.932 83.8012 215.06 87.7692C213.59 88.0898 212.07 88.1911 210.548 88.0343C207.133 87.7251 203.924 86.6147 200.737 85.3876C200.971 80.066 199.628 74.4907 196.167 70.376C193.546 67.5658 190.071 65.3488 186.305 64.4958C182.51 63.7297 178.407 64.1782 174.944 65.9501C171.452 67.7761 169.067 71.0789 167.175 74.4389C162.241 83.5004 161.553 96.8653 161.45 107.309C160.303 105.465 158.895 103.8 157.27 102.375C157.271 102.376 157.271 102.377 157.272 102.378V96.0319C157.272 88.2513 150.993 81.9136 143.237 81.8113V52.0854C143.47 49.5263 144.065 46.5014 145.806 44.7719C146.925 43.712 148.528 43.7289 149.949 43.9913C153.79 44.8291 156.874 47.5377 160.014 49.819C167.13 55.0915 176.649 53.5437 182.009 46.5115C185.344 42.2215 186.584 36.5755 186.015 31.229C185.338 23.9343 179.685 18.6517 172.348 18.433V26.8458C173.411 26.8229 174.488 26.9289 175.389 27.2586C177.404 27.9719 178.654 29.661 179.251 31.8144C181.054 38.342 178.413 46.2658 171.706 48.6817C169.064 49.6507 166.118 49.5195 163.463 48.4899C160.514 47.2854 157.983 45.2766 154.997 44.0485C152.352 42.918 149.027 41.959 146.282 43.3688C144.398 44.4893 143.694 46.7504 143.315 48.7692C143.151 49.7211 142.935 50.7661 142.892 51.7954C142.849 50.7661 142.633 49.7211 142.469 48.7692C142.09 46.7504 141.386 44.4893 139.502 43.3688C136.757 41.959 133.432 42.918 130.787 44.0485C127.801 45.2766 125.27 47.2854 122.321 48.4899C119.666 49.5195 116.72 49.6507 114.078 48.6817C107.371 46.2658 104.73 38.342 106.533 31.8144C107.13 29.661 108.38 27.9719 110.395 27.2586C111.296 26.9289 112.373 26.8229 113.436 26.8458V18.4327C106.099 18.6514 100.447 23.934 99.7693 31.2286C99.1993 36.5752 100.44 42.2211 103.775 46.5111C109.134 53.5434 118.653 55.0911 125.769 49.8186C128.91 47.5374 131.994 44.8288 135.835 43.991C137.256 43.7285 138.858 43.7117 139.978 44.7716C141.758 46.5394 142.34 49.4744 142.563 52.0811V81.8187C134.942 82.0747 128.82 88.3499 128.82 96.0319V102.11C128.821 102.109 128.821 102.109 128.821 102.109C127.09 103.571 125.591 105.299 124.381 107.227C124.368 103.789 124.265 100.349 123.997 96.9185C123.321 89.2651 122.377 81.2921 118.654 74.4389C115.636 68.9729 111.799 64.9884 105.325 64.2849C101.46 63.7418 97.452 64.6085 94.169 66.7223C90.6533 68.8178 88.1832 71.519 86.7159 75.3679C85.5695 78.21 84.8939 81.893 85.0628 85.3987C81.8852 86.6211 78.6864 87.7258 75.2813 88.0343C73.7598 88.1911 72.2396 88.0898 70.7699 87.7692C73.8974 83.8012 76.3058 79.0828 76.1127 73.949C76 68.5819 72.6746 62.9444 67.174 61.6352C63.8712 60.7852 60.1525 61.9814 58.023 64.6604C53.985 69.7145 56.0362 77.493 59.596 82.177C61.5822 84.8301 64.3369 86.9324 67.4193 88.1531C65.818 90.2166 63.9802 92.1574 62.0459 93.8404L57.0883 90.9788C56.9843 90.9189 56.8558 90.9189 56.7518 90.9788L42.1985 99.3811C37.0845 97.7119 32.8611 93.5854 30.6252 87.9751C27.0052 78.9237 30.3106 68.5298 36.2678 61.26C41.8731 54.5131 50.0241 49.9381 54.409 42.0738C57.2337 37.0869 57.1744 30.4827 53.5157 25.7933C51.3377 22.8953 48.044 21.0057 44.5756 20.0884C39.6376 18.646 34.1767 18.3374 29.3443 18.4128V18.4047H20.9325V26.8165H29.3443V26.8084C34.1249 26.8831 38.4189 26.686 42.8815 27.3828C45.0645 27.6826 47.2381 28.336 48.8922 29.8585C52.7354 33.2078 52.3199 38.8968 50.331 43.2938C48.0039 48.5576 43.3506 52.1558 39.4068 56.3018C32.5761 63.0911 27.593 72.6462 28.7814 82.4879C29.7255 89.8772 34.5835 96.9484 41.5905 99.7327L37.7648 101.942C37.7571 101.946 37.7513 101.953 37.7439 101.957C37.7352 101.964 37.7275 101.97 37.719 101.977C37.6884 102.002 37.6612 102.031 37.6413 102.065C37.6413 102.065 37.6413 102.065 37.6413 102.065C37.6218 102.099 37.6107 102.137 37.604 102.176C37.6023 102.187 37.6006 102.196 37.5999 102.207C37.5993 102.216 37.5966 102.224 37.5966 102.233V124.161C37.5966 124.281 37.6605 124.392 37.7648 124.452L56.7518 135.414C56.7596 135.419 56.7687 135.421 56.7767 135.424C56.7858 135.429 56.7949 135.432 56.8047 135.436C56.8424 135.45 56.8811 135.459 56.9204 135.459C56.9598 135.459 56.9985 135.45 57.0362 135.436C57.0459 135.432 57.0547 135.429 57.0641 135.424C57.0722 135.421 57.0809 135.419 57.089 135.414L76.0794 124.452C76.1837 124.392 76.2476 124.281 76.2476 124.161V119.015H121.056C121.077 121.146 121.409 123.202 122.002 125.147L113.748 129.897L99.1317 121.46C99.0277 121.4 98.8992 121.4 98.7952 121.46L79.8082 132.422C79.8008 132.426 79.7947 132.433 79.7876 132.438C79.7789 132.444 79.7708 132.45 79.7627 132.457C79.7321 132.482 79.7049 132.511 79.6853 132.545C79.6658 132.579 79.6547 132.617 79.648 132.656C79.6463 132.667 79.6446 132.677 79.644 132.687C79.6433 132.696 79.6406 132.704 79.6406 132.713V154.511L68.0064 161.3L68.0774 161.422L57.0897 155.079C56.9857 155.019 56.8572 155.019 56.7532 155.079L37.7662 166.041C37.7584 166.046 37.7527 166.052 37.7453 166.057C37.7365 166.063 37.7288 166.069 37.7204 166.076C37.6898 166.102 37.6625 166.13 37.6427 166.164C37.6232 166.198 37.612 166.236 37.6053 166.276C37.6036 166.286 37.602 166.296 37.6013 166.306C37.6006 166.315 37.5979 166.324 37.5979 166.333V188.26C37.5979 188.38 37.6618 188.492 37.7662 188.552L40.3499 190.043C34.0101 193.131 29.6606 199.797 28.7743 206.744C27.5842 216.585 32.5694 226.142 39.3997 232.93C43.3445 237.076 47.9965 240.674 50.3239 245.938C52.3101 250.341 52.7327 256.015 48.8852 259.374C47.2301 260.898 45.0578 261.549 42.8745 261.849C38.4132 262.545 34.1215 262.349 29.3419 262.423V262.415H20.9302V270.827H29.3419V270.819C34.1743 270.893 39.6319 270.585 44.5686 269.143C48.0362 268.228 51.3316 266.334 53.5086 263.439C57.1654 258.754 57.2283 252.141 54.4019 247.158C50.0177 239.295 41.865 234.718 36.2608 227.972C30.3036 220.701 26.9991 210.31 30.6182 201.257C32.6619 196.133 36.354 192.251 40.8664 190.343L56.7532 199.515C56.7609 199.519 56.77 199.521 56.7781 199.525C56.7872 199.53 56.7963 199.533 56.806 199.536C56.8437 199.55 56.8824 199.56 56.9218 199.56C56.9611 199.56 56.9998 199.55 57.0375 199.536C57.0473 199.533 57.056 199.529 57.0654 199.525C57.0735 199.521 57.0823 199.519 57.0903 199.515L62.8955 196.164C64.5115 197.658 66.0455 199.319 67.4062 201.071C64.3197 202.303 61.5997 204.406 59.5896 207.055C55.3097 212.477 53.5103 222.711 60.5856 226.729C63.5475 228.447 67.4008 228.114 70.2302 226.3C73.9936 223.966 75.963 219.564 76.106 215.284C76.2991 210.151 73.8903 205.431 70.7631 201.464C72.2329 201.143 73.753 201.042 75.2745 201.198C78.6901 201.508 81.8986 202.618 85.086 203.845C84.8515 209.166 86.1944 214.742 89.656 218.857C92.2771 221.667 95.7518 223.884 99.5179 224.737C103.313 225.503 107.416 225.054 110.879 223.283C114.371 221.457 116.755 218.154 118.647 214.794C122.547 207.632 123.793 197.782 124.195 188.809L142.561 199.413V236.249C142.328 238.808 141.733 241.833 139.992 243.563C138.873 244.622 137.27 244.606 135.849 244.343C132.008 243.506 128.924 240.797 125.783 238.516C118.667 233.243 109.148 234.791 103.789 241.823C100.454 246.113 99.2134 251.759 99.7831 257.106C100.46 264.4 106.113 269.683 113.45 269.901V261.489C112.387 261.511 111.31 261.405 110.408 261.076C108.394 260.362 107.144 258.673 106.547 256.52C104.744 249.992 107.385 242.069 114.092 239.653C116.733 238.684 119.68 238.815 122.334 239.844C125.284 241.049 127.815 243.058 130.801 244.286C133.446 245.416 136.771 246.375 139.516 244.966C141.4 243.845 142.104 241.584 142.483 239.565C142.647 238.613 142.863 237.568 142.906 236.539C142.949 237.569 143.165 238.613 143.329 239.565C143.708 241.584 144.412 243.845 146.295 244.966C149.04 246.375 152.365 245.416 155.01 244.286C157.996 243.058 160.527 241.049 163.477 239.844C166.131 238.815 169.077 238.684 171.719 239.653C178.426 242.069 181.067 249.992 179.264 256.52C178.667 258.673 177.417 260.362 175.402 261.076C174.501 261.405 173.424 261.511 172.361 261.489V269.901C179.698 269.683 185.351 264.4 186.028 257.106C186.598 251.759 185.358 246.113 182.023 241.823C176.663 234.791 167.144 233.243 160.028 238.516C156.887 240.797 153.803 243.506 149.962 244.343C148.541 244.605 146.939 244.622 145.819 243.563C144.039 241.795 143.457 238.86 143.234 236.253V199.422L161.614 188.812C161.669 189.98 161.734 191.147 161.825 192.313C162.501 199.967 163.445 207.939 167.168 214.793C170.187 220.259 174.022 224.243 180.497 224.947C184.362 225.49 188.37 224.623 191.653 222.509C195.168 220.414 197.638 217.712 199.106 213.864C200.252 211.022 200.928 207.339 200.759 203.833C203.937 202.61 207.135 201.506 210.54 201.197C212.062 201.041 213.582 201.142 215.052 201.463C211.924 205.431 209.516 210.149 209.709 215.282C209.822 220.65 213.147 226.287 218.648 227.597C221.95 228.446 225.669 227.25 227.799 224.571C231.837 219.517 229.786 211.738 226.226 207.055C224.239 204.401 221.485 202.299 218.403 201.078C219.691 199.419 221.134 197.844 222.655 196.414L228.024 199.514C228.032 199.518 228.041 199.52 228.049 199.524C228.058 199.529 228.067 199.532 228.077 199.535C228.115 199.549 228.153 199.559 228.193 199.559C228.232 199.559 228.271 199.549 228.308 199.535C228.318 199.532 228.327 199.528 228.336 199.524C228.344 199.52 228.353 199.518 228.361 199.514L244.537 190.176C249.239 192.021 253.096 195.984 255.197 201.257C258.817 210.308 255.512 220.702 249.555 227.972C243.949 234.719 235.798 239.293 231.413 247.158C228.588 252.144 228.648 258.749 232.307 263.438C234.485 266.336 237.778 268.226 241.247 269.143C246.185 270.586 251.646 270.894 256.478 270.819H256.485V270.827H264.897V262.415H256.485V262.419H256.483ZM204.467 154.673L186.543 165.02V143.87L204.86 133.296V154.123L195.872 148.857L195.531 149.438L204.467 154.673ZM186.206 122.139L204.524 132.713L186.206 143.287L167.892 132.713L186.206 122.139ZM175.445 149.088L167.556 154.057V133.296L185.87 143.87V165.02L167.892 154.64L175.804 149.657L175.445 149.088ZM227.855 134.54L209.54 123.967V119.015H218.562V118.342H209.54V102.816L227.855 113.39V134.54ZM246.845 123.966L228.527 134.54V113.389L246.845 102.815V123.966ZM228.191 91.6591L246.508 102.233L228.191 112.807L209.877 102.233L228.191 91.6591ZM212.847 76.6569C212.237 72.5412 213.522 67.6984 217.121 65.3464C219.855 63.4565 223.671 63.762 225.86 66.3074C229.205 70.2269 227.551 77.1969 224.815 81.1521C223.035 83.7645 220.463 85.8193 217.547 86.9986C215.102 83.5922 213.338 79.9439 212.847 76.6569ZM162.577 96.976C163.211 89.3556 164.251 81.6165 167.661 74.6872C168.47 72.956 169.433 71.2777 170.686 69.8282C171.92 68.3699 173.396 67.1082 175.084 66.2138C179.315 64.0688 184.583 63.7902 188.978 65.622C191.59 66.7842 194.052 68.4224 195.98 70.5422C199.394 74.5792 200.725 80.063 200.5 85.2971C198.398 84.4839 196.301 83.6269 194.159 82.9216C189.585 81.4169 184.123 79.9479 180.317 83.891C177.722 86.5491 177.982 90.5016 180.091 93.3657C182.126 96.1702 185.683 97.4921 189.061 97.5295C195.497 97.6254 200.159 93.1359 200.643 86.7803C200.658 86.6218 200.667 86.462 200.679 86.3028C205.611 88.3395 210.692 90.1083 216.001 88.9185C216.392 89.3775 216.791 89.8253 217.194 90.2611C218.602 91.7944 220.13 93.26 221.765 94.5921L209.036 101.941C209.028 101.945 209.023 101.952 209.016 101.957C209.007 101.963 208.999 101.969 208.99 101.976C208.96 102.002 208.932 102.03 208.913 102.064C208.893 102.098 208.882 102.136 208.876 102.175C208.874 102.186 208.872 102.196 208.872 102.206C208.871 102.215 208.868 102.223 208.868 102.232V118.342H164.721C164.647 114.767 163.713 111.402 162.113 108.446C162.131 104.618 162.289 100.79 162.577 96.976ZM200.445 86.2056C200.431 86.3883 200.42 86.572 200.402 86.754C199.919 92.9841 195.373 97.364 189.064 97.2644C185.306 97.2334 181.278 95.4989 179.584 91.9828C177.624 88.3388 179.119 84.177 182.884 82.5515C186.476 80.9634 190.426 82.3957 193.931 83.5774C196.077 84.3375 198.246 85.2934 200.445 86.2056ZM129.494 101.566V96.0319C129.494 88.5589 135.573 82.4795 143.046 82.4795C150.519 82.4795 156.599 88.5589 156.599 96.0319V101.809C156.599 101.809 156.599 101.809 156.599 101.809C155.333 100.785 153.951 99.8986 152.475 99.1745C152.475 99.1745 152.475 99.1745 152.475 99.1748V96.0315C152.475 90.8324 148.246 86.6026 143.046 86.6026C137.847 86.6026 133.618 90.8324 133.618 96.0315V99.0275C132.145 99.7209 130.764 100.576 129.493 101.566C129.493 101.566 129.494 101.566 129.494 101.566ZM151.802 96.0319V98.8633C149.079 97.6409 146.065 96.9551 142.892 96.9551C139.738 96.9551 136.741 97.6325 134.031 98.8407C134.118 98.8017 134.203 98.7606 134.29 98.7233V96.0319C134.29 91.2035 138.218 87.2759 143.046 87.2759C147.874 87.2759 151.802 91.2035 151.802 96.0319ZM61.0136 81.1521C58.2794 77.1959 56.6226 70.2283 59.9692 66.3074C62.1562 63.761 65.9748 63.4568 68.708 65.3461C72.3069 67.6973 73.5922 72.5418 72.9825 76.6569C72.4896 79.9472 70.7261 83.5946 68.282 86.9986C65.3662 85.8193 62.7942 83.7645 61.0136 81.1521ZM56.5843 134.54L38.2702 123.967V102.816L56.5843 113.39V134.54ZM56.9207 112.807L38.6067 102.233L56.9207 91.6591L75.2382 102.233L56.9207 112.807ZM75.575 118.342H66.5549C66.3688 118.342 66.2184 118.492 66.2184 118.678C66.2184 118.864 66.3688 119.015 66.5549 119.015H75.575V123.966L57.2576 134.54V113.389L75.575 102.815V118.342ZM76.248 118.342V102.233C76.248 102.224 76.2453 102.215 76.2446 102.206C76.2439 102.196 76.2422 102.186 76.2406 102.176C76.2338 102.136 76.2227 102.099 76.2032 102.065C76.2032 102.065 76.2032 102.065 76.2032 102.064C76.1834 102.03 76.1558 102.001 76.1248 101.976C76.1171 101.969 76.1097 101.964 76.1016 101.958C76.0942 101.952 76.0881 101.946 76.0801 101.941L63.7625 94.831C65.5119 93.436 67.1417 91.8879 68.636 90.2611C69.0414 89.823 69.4418 89.3721 69.8348 88.9105C71.646 89.3311 73.5252 89.4465 75.395 89.1955C78.7957 88.787 81.9861 87.6073 85.1267 86.3122C85.329 88.5064 85.8821 90.5945 86.8848 92.3169C88.9194 95.7102 92.8592 97.6409 96.769 97.5288C99.6737 97.4905 102.668 96.5342 104.78 94.4767C107.666 91.6665 108.5 86.9388 105.513 83.8907C101.71 79.9486 96.2447 81.4156 91.6711 82.921C89.5285 83.6262 87.4326 84.4828 85.3296 85.2964C85.1052 80.062 86.4363 74.5788 89.8498 70.5415C92.4379 67.7801 95.8676 65.5974 99.5825 64.7637C103.302 64.0174 107.364 64.4709 110.746 66.2135C114.151 68.017 116.597 71.2273 118.169 74.6872C119.837 78.1495 121.025 81.7857 121.748 85.5585C123.204 93.0538 123.643 100.727 123.716 108.356C122.086 111.334 121.138 114.732 121.063 118.342H76.248ZM85.3841 86.2059C87.5594 85.3042 89.7135 84.356 91.8989 83.5774C95.4039 82.3951 99.3531 80.9634 102.946 82.5515C106.728 84.1948 108.198 88.328 106.245 91.9828C104.553 95.4992 100.523 97.2334 96.7656 97.2644C90.4581 97.3643 85.9104 92.9865 85.4269 86.754C85.409 86.5723 85.3983 86.389 85.3841 86.2059ZM121.723 118.797C121.723 107.124 131.22 97.6281 142.892 97.6281C154.564 97.6281 164.06 107.124 164.06 118.797C164.06 130.469 154.564 139.965 142.892 139.965C131.22 139.965 121.723 130.469 121.723 118.797ZM122.213 125.802C125.138 134.418 133.299 140.638 142.892 140.638C152.42 140.638 160.534 134.502 163.51 125.976L170.682 130.325L167.051 132.422C167.044 132.426 167.037 132.432 167.03 132.437C167.022 132.443 167.014 132.45 167.006 132.456C166.975 132.482 166.948 132.511 166.928 132.545C166.928 132.545 166.928 132.545 166.928 132.545C166.909 132.579 166.898 132.617 166.891 132.656C166.889 132.666 166.887 132.676 166.887 132.687C166.886 132.695 166.883 132.704 166.883 132.713V154.481L155.003 161.965L143.074 155.079C142.97 155.019 142.842 155.019 142.738 155.079L130.532 162.126L130.541 162.112L118.291 154.395V132.713C118.291 132.704 118.288 132.695 118.288 132.687C118.287 132.676 118.285 132.666 118.284 132.656C118.277 132.617 118.266 132.579 118.246 132.545C118.246 132.545 118.246 132.545 118.246 132.545C118.227 132.511 118.199 132.482 118.168 132.456C118.16 132.449 118.152 132.443 118.144 132.437C118.137 132.432 118.13 132.426 118.123 132.422L114.423 130.285L122.213 125.802ZM161.223 166.332L142.905 176.906L124.591 166.332L142.905 155.759L161.223 166.332ZM117.353 154.6L99.3002 165.02V143.87L117.618 133.296V153.971L109.865 149.088L109.506 149.657L117.353 154.6ZM98.9634 122.139L117.281 132.713L98.9634 143.287L80.6493 132.713L98.9634 122.139ZM80.3132 133.296L98.6273 143.87V165.02L80.7018 154.671L89.6684 149.438L89.3293 148.857L80.3132 154.118V133.296ZM56.5843 198.64L38.2702 188.066V166.915L56.5843 177.489V198.64ZM56.9207 176.906L38.6067 166.332L56.9207 155.759L75.2382 166.332L56.9207 176.906ZM57.2572 198.64V177.489L75.5747 166.915V182.441H66.7164V183.114H75.5747V188.066L57.2572 198.64ZM72.9738 212.575C73.5838 216.69 72.2985 221.533 68.6996 223.885C65.9499 225.774 62.1643 225.475 59.9608 222.924C56.6159 219.005 58.2697 212.035 61.0055 208.08C62.7858 205.467 65.3577 203.412 68.2733 202.233C70.7191 205.639 72.4829 209.288 72.9738 212.575ZM123.502 188.061C123.431 189.46 123.349 190.859 123.244 192.256C122.61 199.876 121.57 207.615 118.16 214.544C117.351 216.276 116.388 217.954 115.135 219.403C113.901 220.862 112.425 222.124 110.737 223.018C106.506 225.163 101.238 225.441 96.8433 223.61C94.2313 222.448 91.7693 220.81 89.8407 218.69C86.4269 214.653 85.0965 209.169 85.3205 203.935C87.4238 204.748 89.5197 205.605 91.662 206.31C96.236 207.815 101.698 209.284 105.504 205.34C108.099 202.683 107.84 198.73 105.73 195.866C103.695 193.061 100.138 191.739 96.7602 191.702C90.3242 191.606 85.6621 196.096 85.1779 202.451C85.1627 202.61 85.154 202.769 85.1415 202.929C80.2102 200.892 75.1292 199.123 69.8197 200.313C69.4287 199.854 69.0307 199.406 68.6276 198.97C67.3941 197.628 66.0674 196.339 64.6599 195.144L76.0797 188.552C76.184 188.491 76.248 188.38 76.248 188.26V183.114H123.52L123.502 188.061ZM85.3761 203.026C85.3902 202.843 85.401 202.66 85.4188 202.478C85.902 196.247 90.4484 191.868 96.7575 191.967C100.515 191.998 104.544 193.733 106.237 197.249C108.198 200.893 106.703 205.055 102.937 206.68C99.3457 208.269 95.3958 206.836 91.8905 205.654C89.7438 204.894 87.5746 203.938 85.3761 203.026ZM123.75 166.041C123.743 166.045 123.737 166.052 123.73 166.056C123.721 166.063 123.713 166.069 123.704 166.076C123.674 166.102 123.647 166.13 123.627 166.164V166.164C123.608 166.198 123.596 166.236 123.59 166.275C123.588 166.286 123.586 166.296 123.586 166.306C123.585 166.315 123.582 166.323 123.582 166.332L123.523 182.441H76.248V166.332C76.248 166.323 76.2453 166.315 76.2446 166.306C76.2439 166.296 76.2422 166.286 76.2406 166.275C76.2338 166.236 76.2227 166.198 76.2032 166.164C76.2032 166.164 76.2032 166.164 76.2032 166.164C76.1834 166.13 76.1558 166.101 76.1248 166.075C76.1171 166.069 76.1097 166.063 76.1016 166.057C76.0942 166.052 76.0881 166.045 76.0801 166.041L68.6077 161.728L80.0322 155.062L98.7955 165.895C98.8033 165.899 98.8123 165.901 98.8204 165.905C98.8295 165.909 98.8386 165.912 98.8484 165.916C98.886 165.93 98.9247 165.939 98.9641 165.939C99.0035 165.939 99.0422 165.93 99.0798 165.916C99.0896 165.912 99.0983 165.909 99.1078 165.905C99.1158 165.901 99.1246 165.899 99.1327 165.895L117.997 155.005L129.89 162.497L123.75 166.041ZM138.228 196.133L138.226 196.132L124.255 188.066V183.114H133.334V182.441H124.255V166.915L142.569 177.489V198.115H142.56V198.635L138.228 196.133ZM161.559 182.441H151.783V183.114H161.559V188.066L143.242 198.64V177.489L161.559 166.915V182.441ZM162.232 166.332C162.232 166.323 162.23 166.315 162.229 166.306C162.228 166.296 162.227 166.286 162.225 166.275C162.218 166.236 162.207 166.198 162.188 166.164C162.188 166.164 162.188 166.164 162.188 166.164C162.168 166.13 162.14 166.101 162.109 166.075C162.101 166.069 162.094 166.063 162.086 166.057C162.079 166.052 162.073 166.046 162.064 166.041L155.661 162.345L167.248 155.046L186.038 165.895C186.046 165.899 186.055 165.901 186.063 165.905C186.072 165.909 186.081 165.912 186.091 165.916C186.128 165.93 186.167 165.939 186.207 165.939C186.246 165.939 186.285 165.93 186.322 165.916C186.332 165.912 186.341 165.909 186.35 165.905C186.358 165.901 186.367 165.899 186.375 165.895L205.136 155.065L216.508 161.727L209.036 166.041C209.029 166.045 209.023 166.051 209.016 166.056C209.006 166.062 208.998 166.069 208.99 166.076C208.96 166.101 208.932 166.13 208.913 166.163C208.913 166.163 208.913 166.163 208.913 166.164C208.893 166.198 208.882 166.235 208.875 166.275C208.874 166.285 208.872 166.295 208.871 166.305C208.871 166.314 208.868 166.323 208.868 166.332V182.441H162.28L162.232 166.332ZM224.807 208.08C227.542 212.036 229.198 219.003 225.852 222.924C223.665 225.47 219.846 225.775 217.113 223.885C213.514 221.534 212.229 216.689 212.839 212.574C213.331 209.284 215.095 205.637 217.539 202.233C220.455 203.412 223.027 205.467 224.807 208.08ZM217.185 198.97C216.78 199.408 216.379 199.859 215.986 200.321C214.175 199.9 212.296 199.785 210.426 200.036C207.025 200.444 203.835 201.624 200.694 202.919C200.492 200.725 199.939 198.637 198.936 196.914C196.902 193.521 192.962 191.59 189.052 191.702C186.147 191.74 183.153 192.697 181.041 194.754C178.155 197.564 177.321 202.292 180.308 205.34C184.111 209.283 189.576 207.815 194.15 206.31C196.293 205.605 198.388 204.748 200.491 203.935C200.716 209.169 199.385 214.652 195.971 218.69C193.383 221.451 189.953 223.633 186.238 224.467C182.519 225.214 178.457 224.76 175.075 223.018C171.67 221.214 169.225 218.004 167.652 214.544C165.984 211.082 164.796 207.445 164.074 203.673C163.066 198.49 162.546 193.221 162.296 187.942L162.282 183.113H208.867V188.259C208.867 188.379 208.931 188.491 209.036 188.551L220.872 195.384C219.568 196.512 218.336 197.717 217.185 198.97ZM200.437 203.026C198.262 203.928 196.108 204.876 193.922 205.654C190.417 206.837 186.468 208.269 182.875 206.68C179.093 205.038 177.624 200.904 179.576 197.249C181.268 193.733 185.298 191.998 189.055 191.968C195.363 191.868 199.91 196.246 200.394 202.478C200.412 202.659 200.423 202.843 200.437 203.026ZM227.855 198.639L209.54 188.065V183.114H218.401V182.441H209.54V166.914L227.855 177.488V198.639ZM228.191 176.906L209.877 166.332L228.191 155.758L246.508 166.332L228.191 176.906ZM228.527 198.639V177.489L246.845 166.915V188.065L228.527 198.639Z" fill="white"/>
<path d="M256.483 245.591V254.003H264.895V245.591V237.18H256.483V245.591Z" fill="white"/>
<path d="M273.306 228.768H264.895V237.179H273.306V228.768Z" fill="white"/>
<path d="M281.721 220.352H273.31V228.763H281.721V220.352Z" fill="white"/>
<path d="M273.306 211.939H264.895V220.351H273.306V211.939Z" fill="white"/>
<path d="M147.164 189.379C147.248 189.484 147.328 189.598 147.406 189.722C147.335 189.594 147.254 189.483 147.164 189.379Z" fill="white"/>
<path d="M138.644 189.379C138.553 189.484 138.473 189.594 138.402 189.722C138.479 189.598 138.56 189.483 138.644 189.379Z" fill="white"/>
<path d="M142.892 138.869C153.961 138.869 162.965 129.864 162.965 118.796C162.965 107.728 153.96 98.7227 142.892 98.7227C131.824 98.7227 122.819 107.728 122.819 118.796C122.819 129.864 131.823 138.869 142.892 138.869ZM142.892 99.3956C153.589 99.3956 162.292 108.098 162.292 118.796C162.292 129.493 153.589 138.196 142.892 138.196C132.195 138.196 123.492 129.493 123.492 118.796C123.492 108.098 132.195 99.3956 142.892 99.3956Z" fill="white"/>
<path d="M142.892 133.163C150.815 133.163 157.26 126.718 157.26 118.795C157.26 110.873 150.815 104.428 142.892 104.428C134.97 104.428 128.524 110.873 128.524 118.795C128.524 126.718 134.97 133.163 142.892 133.163ZM142.892 105.101C150.443 105.101 156.587 111.244 156.587 118.795C156.587 126.346 150.443 132.49 142.892 132.49C135.341 132.49 129.197 126.346 129.197 118.795C129.197 111.244 135.341 105.101 142.892 105.101Z" fill="white"/>
<path d="M140.478 116.954L138.55 127.465C138.532 127.563 138.558 127.664 138.622 127.741C138.686 127.818 138.781 127.862 138.881 127.862H146.918C147.018 127.862 147.112 127.817 147.176 127.741C147.24 127.664 147.267 127.563 147.249 127.465L145.32 116.954C146.519 116.15 147.255 114.784 147.255 113.335C147.255 110.934 145.301 108.98 142.9 108.98C140.499 108.98 138.545 110.934 138.545 113.335C138.544 114.785 139.28 116.151 140.478 116.954ZM142.899 109.653C144.929 109.653 146.581 111.305 146.581 113.335C146.581 114.627 145.889 115.84 144.776 116.502C144.655 116.574 144.591 116.714 144.617 116.852L146.513 127.189H139.285L141.181 116.852C141.206 116.714 141.143 116.574 141.022 116.502C139.908 115.841 139.217 114.627 139.217 113.335C139.217 111.305 140.869 109.653 142.899 109.653Z" fill="white"/>
<path d="M142.892 103.831C143.876 103.831 144.677 103.031 144.677 102.047C144.677 101.063 143.876 100.262 142.892 100.262C141.907 100.262 141.107 101.063 141.107 102.047C141.107 103.031 141.907 103.831 142.892 103.831ZM142.892 100.935C143.505 100.935 144.004 101.433 144.004 102.047C144.004 102.659 143.505 103.158 142.892 103.158C142.279 103.158 141.78 102.66 141.78 102.047C141.78 101.434 142.279 100.935 142.892 100.935Z" fill="white"/>
<path d="M142.892 134.018C141.907 134.018 141.107 134.818 141.107 135.803C141.107 136.787 141.907 137.587 142.892 137.587C143.876 137.587 144.677 136.787 144.677 135.803C144.677 134.818 143.876 134.018 142.892 134.018ZM142.892 136.914C142.279 136.914 141.78 136.416 141.78 135.803C141.78 135.19 142.279 134.691 142.892 134.691C143.505 134.691 144.004 135.189 144.004 135.803C144.004 136.415 143.505 136.914 142.892 136.914Z" fill="white"/>
<path d="M159.761 120.581C160.745 120.581 161.546 119.781 161.546 118.797C161.546 117.813 160.745 117.012 159.761 117.012C158.777 117.012 157.977 117.813 157.977 118.797C157.977 119.781 158.777 120.581 159.761 120.581ZM159.761 117.685C160.374 117.685 160.873 118.183 160.873 118.797C160.873 119.409 160.375 119.908 159.761 119.908C159.148 119.908 158.65 119.41 158.65 118.797C158.65 118.184 159.148 117.685 159.761 117.685Z" fill="white"/>
<path d="M126.036 117.012C125.052 117.012 124.251 117.813 124.251 118.797C124.251 119.781 125.052 120.581 126.036 120.581C127.021 120.581 127.821 119.781 127.821 118.797C127.821 117.813 127.021 117.012 126.036 117.012ZM126.036 119.908C125.423 119.908 124.924 119.41 124.924 118.797C124.924 118.184 125.423 117.685 126.036 117.685C126.649 117.685 127.148 118.183 127.148 118.797C127.148 119.409 126.649 119.908 126.036 119.908Z" fill="white"/>
<path d="M154.906 108.57C155.89 108.57 156.69 107.769 156.69 106.785C156.69 105.801 155.89 105 154.906 105C153.921 105 153.121 105.801 153.121 106.785C153.121 107.769 153.921 108.57 154.906 108.57ZM154.906 105.673C155.518 105.673 156.017 106.172 156.017 106.785C156.017 107.398 155.519 107.897 154.906 107.897C154.293 107.897 153.794 107.398 153.794 106.785C153.794 106.172 154.293 105.673 154.906 105.673Z" fill="white"/>
<path d="M130.931 108.654C131.915 108.654 132.716 107.853 132.716 106.869C132.716 105.885 131.915 105.084 130.931 105.084C129.946 105.084 129.146 105.885 129.146 106.869C129.146 107.853 129.946 108.654 130.931 108.654ZM130.931 105.757C131.544 105.757 132.043 106.256 132.043 106.869C132.043 107.482 131.544 107.981 130.931 107.981C130.318 107.981 129.819 107.482 129.819 106.869C129.819 106.256 130.318 105.757 130.931 105.757Z" fill="white"/>
<path d="M130.931 132.468C131.915 132.468 132.716 131.668 132.716 130.683C132.716 129.699 131.915 128.898 130.931 128.898C129.946 128.898 129.146 129.699 129.146 130.683C129.146 131.668 129.946 132.468 130.931 132.468ZM130.931 129.571C131.544 129.571 132.043 130.07 132.043 130.683C132.043 131.296 131.544 131.795 130.931 131.795C130.318 131.795 129.819 131.296 129.819 130.683C129.819 130.07 130.318 129.571 130.931 129.571Z" fill="white"/>
<path d="M154.906 128.898C153.921 128.898 153.121 129.699 153.121 130.683C153.121 131.668 153.921 132.468 154.906 132.468C155.89 132.468 156.69 131.668 156.69 130.683C156.69 129.699 155.89 128.898 154.906 128.898ZM154.906 131.795C154.293 131.795 153.794 131.296 153.794 130.683C153.794 130.07 154.292 129.571 154.906 129.571C155.518 129.571 156.017 130.07 156.017 130.683C156.017 131.296 155.518 131.795 154.906 131.795Z" fill="white"/>
<path d="M113.422 270.795V279.207H121.834V270.795H113.426H113.422Z" fill="white"/>
<path d="M130.246 262.383H121.834V270.795H130.246V262.383Z" fill="white"/>
<path d="M163.928 270.795V279.207H172.339V270.795H172.336H163.928Z" fill="white"/>
<path d="M163.927 262.383H155.516V270.795H163.927V262.383Z" fill="white"/>
</svg>
