<svg width="286" height="286" viewBox="0 0 286 286" fill="none" xmlns="http://www.w3.org/2000/svg">
<path d="M210.2 99.0957V192.312L193.39 195.797L193.38 195.74V108.349V102.565L210.2 99.0957Z" fill="#718BD2"/>
<path d="M210.2 99.0958L193.38 102.565L176.604 99.1058H176.59V99.0857L193.289 95.62L193.32 95.6133L210.2 99.0958Z" fill="#718BD2"/>
<path d="M176.563 152.75V111.829L193.306 108.35H193.38V195.741L193.39 195.798L176.563 199.288V152.75Z" fill="#718BD2"/>
<path d="M176.6 104.849L176.59 104.805V99.1055H176.604L193.38 102.564V108.348H193.306L176.59 104.856V104.849H176.6Z" fill="#58BDF6"/>
<path d="M176.563 111.828L176.432 111.855V111.788L159.877 108.349V108.322L162.539 107.77H162.542L176.59 104.85V104.856L193.306 108.349L176.563 111.828Z" fill="#718BD2"/>
<path d="M193.289 95.614V95.6207L176.59 99.0864V93.3025L193.289 89.8301V95.614Z" fill="#718BD2"/>
<path d="M193.289 89.8306L176.59 93.3029L159.864 89.8306L159.861 89.8104L176.388 86.375L193.289 89.8306Z" fill="#718BD2"/>
<path d="M176.59 99.0851V99.1053V104.805L176.6 104.849H176.59L162.542 107.769H162.539L159.864 107.191L159.82 107.201L159.817 107.191V89.812H159.837L159.861 89.8086L159.864 89.8288L176.59 93.3012V99.0851Z" fill="#58BDF6"/>
<path d="M176.563 152.748V199.286L159.588 202.805V162.21V156.234L176.328 152.718L176.331 152.701L176.563 152.748Z" fill="#718BD2"/>
<path d="M176.563 111.829V152.75L176.331 152.703L159.877 149.251V143.376V114.218V108.35L176.432 111.788V111.856L176.563 111.829Z" fill="#58BDF6"/>
<path d="M176.388 80.3535V86.373L159.861 89.8083L159.837 89.8117H159.817V83.8797L176.388 80.3535Z" fill="#718BD2"/>
<path d="M176.388 80.3546L159.817 83.8809L142.745 80.395L159.393 76.9967L159.962 76.8789L176.388 80.3546Z" fill="#718BD2"/>
<path d="M159.878 149.25L176.331 152.702L176.328 152.719L159.588 156.235L142.919 152.773L159.878 149.25Z" fill="#718BD2"/>
<path d="M162.539 107.77L159.877 108.322V108.349V114.217L143.017 110.714L143.013 110.694L146.015 110.068L159.82 107.201L159.864 107.191L162.539 107.77Z" fill="#718BD2"/>
<path d="M159.878 143.375V149.25L142.92 152.773L142.846 152.756H142.745V146.844L142.742 146.827L159.878 143.375Z" fill="#718BD2"/>
<path d="M142.991 134.088V116.575V110.697L143.014 110.693L143.018 110.714L159.878 114.216V143.375L143.085 139.879L143.082 139.865L142.991 139.886V139.879V134.088Z" fill="#58BDF6"/>
<path d="M159.878 143.375L142.742 146.827L142.661 146.844V146.803L126.191 143.378L142.991 139.885L143.082 139.865L143.085 139.879L159.878 143.375Z" fill="#718BD2"/>
<path d="M142.785 109.482L142.745 109.476V80.3945L159.817 83.8804V89.8123V107.191L159.821 107.201L146.015 110.068L142.785 109.482Z" fill="#58BDF6"/>
<path d="M159.588 162.211V202.806L142.926 206.262V165.579L159.588 162.211Z" fill="#718BD2"/>
<path d="M142.92 152.773L159.588 156.235V162.211L143.088 158.651L143.084 158.641L142.758 158.708L142.745 158.651V152.756H142.846L142.92 152.773Z" fill="#58BDF6"/>
<path d="M159.589 162.211L142.927 165.579L126.11 162.17L129.293 161.507L142.758 158.708L143.085 158.641L143.088 158.651L159.589 162.211Z" fill="#718BD2"/>
<path d="M159.393 71.0801V76.9952L142.745 80.3936V74.6366L142.755 74.5895L159.393 71.0801Z" fill="#718BD2"/>
<path d="M159.394 71.0813L142.755 74.5907L126.124 71.1116L142.836 67.6426L159.394 71.0813Z" fill="#718BD2"/>
<path d="M146.015 110.068L143.014 110.694L142.991 110.697V116.575L126.11 112.982L129.071 112.359L142.785 109.482L146.015 110.068Z" fill="#718BD2"/>
<path d="M142.991 139.878V139.885L126.191 143.378L126.107 143.361H126.043V137.57L126.033 137.526L142.745 134.051L142.749 134.037L142.991 134.088V139.878Z" fill="#718BD2"/>
<path d="M126.241 130.597L126.113 130.624L126.11 130.607V124.634V118.773V112.982L142.991 116.576V134.089L142.748 134.039L126.244 130.607L126.241 130.597Z" fill="#58BDF6"/>
<path d="M142.927 165.578V206.261L126.11 202.779V167.937V162.17L142.927 165.578Z" fill="#58BDF6"/>
<path d="M142.786 109.482L129.071 112.359L129.064 112.336L126.124 111.747V71.1113L142.755 74.5904L142.745 74.6375V80.3946V109.476L142.786 109.482Z" fill="#58BDF6"/>
<path d="M126.19 143.378L142.66 146.803V146.844L142.741 146.827L142.744 146.844V152.756V158.651L142.757 158.708L129.292 161.507L126.042 160.858V143.361H126.105L126.19 143.378Z" fill="#58BDF6"/>
<path d="M142.749 134.038L142.745 134.051L126.033 137.527L125.821 137.571V137.534L109.34 134.108L126.113 130.623L126.241 130.596L126.245 130.606L142.749 134.038Z" fill="#718BD2"/>
<path d="M129.292 161.507L126.109 162.17V167.937L109.292 164.441L112.169 163.825L126.042 160.857L129.292 161.507Z" fill="#718BD2"/>
<path d="M129.063 112.335L129.07 112.358L126.109 112.981V118.772L109.319 115.239L126.109 111.746H126.123L129.063 112.335Z" fill="#718BD2"/>
<path d="M126.109 130.607L126.113 130.624L109.34 134.11L109.292 134.1V128.154L126.106 124.635H126.109V130.607Z" fill="#718BD2"/>
<path d="M126.109 167.937V202.779L109.289 199.296L109.292 199.286V170.239V164.441L126.109 167.937Z" fill="#58BDF6"/>
<path d="M109.474 121.165L109.323 121.199L109.319 121.179V115.24L126.109 118.773V124.634H126.106L109.477 121.179L109.474 121.165Z" fill="#58BDF6"/>
<path d="M126.106 124.633L109.293 128.153L92.4995 124.684L109.323 121.198L109.474 121.164L109.478 121.178L126.106 124.633Z" fill="#718BD2"/>
<path d="M109.34 134.11L125.82 137.535V137.572L126.032 137.528L126.042 137.572V143.363V160.859L112.169 163.827L112.163 163.8L109.292 163.248V134.1L109.34 134.11Z" fill="#58BDF6"/>
<path d="M112.163 163.798L112.17 163.825L109.293 164.441V170.238L92.4731 166.742L95.8749 166.035L109.293 163.246L112.163 163.798Z" fill="#718BD2"/>
<path d="M109.292 170.238V199.286L109.289 199.296L92.4585 195.81L92.472 195.739V172.543V166.742L109.292 170.238Z" fill="#58BDF6"/>
<path d="M109.293 134.098V163.246L95.8743 166.036L93.1085 165.46L92.4995 165.588V124.684L109.293 128.153V134.098Z" fill="#58BDF6"/>
<path d="M95.8735 166.036L92.4718 166.743V172.544L75.5474 169.112L92.4987 165.589L93.1078 165.461L95.8735 166.036Z" fill="#718BD2"/>
<path d="M92.4718 172.543V195.74L92.4584 195.81L75.5474 192.311V169.111L92.4718 172.543Z" fill="#58BDF6"/>
<path d="M248.03 119.383H239.618V127.795H248.03V119.383Z" fill="white"/>
<path d="M256.442 127.795H248.03V136.207H256.442V127.795Z" fill="white"/>
<path d="M256.462 110.969H248.05V119.381H256.462V110.969Z" fill="white"/>
<path d="M248.03 161.506H239.618V169.918H248.03V161.506Z" fill="white"/>
<path d="M256.442 153.096H248.03V161.507H256.442V153.096Z" fill="white"/>
<path d="M256.462 169.922H248.05V178.334H256.462V169.922Z" fill="white"/>
<path d="M20.9093 77.3184H12.4976V85.7301H20.9093V77.3184Z" fill="white"/>
<path d="M29.3221 119.383H12.4976V127.795H29.3221V119.383Z" fill="white"/>
<path d="M29.3221 161.506H12.4976V169.918H29.3221V161.506Z" fill="white"/>
<path d="M20.9093 203.573V203.508H12.4976V211.92H20.9093V203.573Z" fill="white"/>
<path d="M46.1652 119.383H37.7534V127.795H46.1652V119.383Z" fill="white"/>
<path d="M37.7536 127.795H29.3418V136.207H37.7536V127.795Z" fill="white"/>
<path d="M37.7335 110.969H29.3218V119.381H37.7335V110.969Z" fill="white"/>
<path d="M29.3214 85.7305H20.9097V110.969H29.3214V85.7305Z" fill="white"/>
<path d="M46.1652 161.506H37.7534V169.918H46.1652V161.506Z" fill="white"/>
<path d="M37.7536 153.096H29.3418V161.507H37.7536V153.096Z" fill="white"/>
<path d="M37.7335 169.922H29.3218V178.334H37.7335V169.922Z" fill="white"/>
<path d="M29.3214 178.334H20.9097V203.573H29.3214V178.334Z" fill="white"/>
<path d="M12.4977 110.969H4.08594V119.381H12.4977V110.969Z" fill="white"/>
<path d="M12.4977 169.922H4.08594V178.334H12.4977V169.922Z" fill="white"/>
<path d="M273.285 161.506H256.461V169.918H273.285V161.506Z" fill="white"/>
<path d="M273.285 119.383H256.461V127.795H273.285V119.383Z" fill="white"/>
<path d="M281.697 169.922H273.286V178.334H281.697V169.922Z" fill="white"/>
<path d="M281.697 110.969H273.286V119.381H281.697V110.969Z" fill="white"/>
<path d="M273.286 77.3184H264.874V85.7301H273.286V77.3184Z" fill="white"/>
<path d="M264.874 203.573V211.92H273.286V203.508H264.874V203.573Z" fill="white"/>
<path d="M264.874 85.7305H256.462V110.969H264.874V85.7305Z" fill="white"/>
<path d="M264.874 178.334H256.462V203.573H264.874V178.334Z" fill="white"/>
<path d="M239.636 136.27V144.681V153.031H248.048V144.619V136.27L239.636 136.27Z" fill="white"/>
<path d="M46.1476 148.081V144.619V144.619V139.687V136.207H37.7358V139.687V144.619V144.619V148.081V153.031H46.1476V148.081Z" fill="white"/>
<path d="M256.462 211.984V220.366H256.459C256.459 221.103 256.459 221.664 256.459 222.028C256.459 228.596 255.342 234.41 250.853 238.851C248.474 241.176 245.295 242.442 241.95 242.771C239.871 242.993 237.69 242.96 235.618 242.559C236.688 239.888 237.192 236.984 237.028 234.111C236.853 230.75 235.974 227.247 233.767 224.609C232.421 222.984 230.066 222.217 228.014 222.95C226.005 223.703 224.814 225.793 224.232 227.741C223.091 231.651 223.697 235.998 225.964 239.42C227.781 242.243 230.567 244.087 233.666 245.19C232.098 247.882 229.881 250.184 227.129 251.731C223.085 253.894 218.662 255.325 214.452 254.909C214.611 254.025 214.682 253.096 214.648 252.122C214.416 245.572 211.098 239.592 207.296 234.44C207.153 234.246 207.006 234.056 206.86 233.866C206.871 233.852 206.881 233.838 206.893 233.825C211.859 227.509 219.574 223.713 223.824 216.752C227.798 210.339 227.195 202.317 223.333 196.015C220.413 191.127 215.816 186.996 210.548 184.486V104.719C215.816 102.21 220.412 98.0785 223.332 93.1906C227.195 86.8888 227.797 78.8673 223.824 72.4539C219.574 65.4926 211.859 61.6969 206.892 55.3814C206.881 55.3679 206.871 55.3541 206.86 55.3403C207.006 55.1502 207.153 54.9598 207.296 54.7663C211.098 49.6146 214.417 43.6328 214.648 37.0838C214.682 36.1097 214.611 35.1813 214.452 34.2964C218.661 33.8819 223.084 35.3126 227.128 37.4744C229.88 39.0225 232.097 41.3236 233.665 44.0154C230.566 45.119 227.78 46.9629 225.963 49.7855C223.696 53.2078 223.09 57.555 224.231 61.4644C224.813 63.4126 226.004 65.5021 228.013 66.2558C230.065 66.9896 232.42 66.2221 233.766 64.597C235.973 61.959 236.852 58.4564 237.027 55.095C237.191 52.2216 236.687 49.3178 235.617 46.6466C237.689 46.2462 239.87 46.2125 241.949 46.4346C245.294 46.764 248.473 48.0295 250.852 50.3542C255.341 54.7956 256.458 60.6098 256.458 67.1777C256.458 67.5411 256.458 68.103 256.458 68.8398H256.462V77.2223H264.874V68.8106H264.872C264.861 68.642 264.87 68.4886 264.87 68.3318C264.87 62.0428 263.033 55.8117 259.277 50.7323C255.412 45.507 249.624 42.8808 243.18 42.6601C242.329 42.6308 241.477 42.6419 240.627 42.6894C238.501 42.7903 236.3 43.1466 234.221 43.8229C232.316 40.613 229.534 37.9481 226.095 36.3869C222.192 34.5417 218.163 33.4849 214.366 33.8765C212.659 25.9594 203.612 21.7511 195.787 21.7528C191.873 21.7161 188.343 22.4399 185.124 23.8568C184.922 23.1875 184.696 22.526 184.442 21.8753C181.866 15.1472 174.918 10.0571 167.591 9.98777C157.179 9.84915 150.21 19.7061 146.616 28.352C144.773 32.8224 143.491 37.4693 142.906 42.1786C141.058 27.8315 131.112 5.97974 113.758 10.6456C110.916 11.4097 108.33 12.9356 106.162 14.8989C103.418 17.4117 101.673 20.4947 100.633 23.8453C97.4202 22.4358 93.8981 21.7155 89.9963 21.7528C82.1727 21.7511 73.1237 25.959 71.4175 33.8765C67.6204 33.4849 63.5908 34.5414 59.6874 36.3869C56.2487 37.9481 53.4661 40.6133 51.5616 43.8229C49.4823 43.1466 47.2817 42.7903 45.1553 42.6894C44.3053 42.6419 43.453 42.6311 42.6021 42.6601C36.158 42.8808 30.3701 45.507 26.5054 50.7323C22.749 55.8117 20.9125 62.0425 20.9125 68.3318C20.9125 68.4889 20.9213 68.6417 20.9105 68.8106H20.9092V77.2223H29.3209V68.8398H29.3243C29.3243 68.1033 29.3243 67.5414 29.3243 67.178C29.3243 60.6098 30.4414 54.7959 34.9299 50.3545C37.3088 48.0295 40.4884 46.764 43.8329 46.4346C45.9123 46.2125 48.0926 46.2458 50.1653 46.6466C49.0953 49.3178 48.5906 52.2219 48.7555 55.095C48.9305 58.4564 49.8086 61.959 52.0159 64.597C53.3618 66.2221 55.7171 66.9893 57.7695 66.2558C59.7783 65.5024 60.9694 63.4129 61.5515 61.4647C62.6921 57.555 62.0865 53.2078 59.8186 49.7859C58.0017 46.9625 55.2157 45.119 52.1168 44.0154C53.6848 41.3236 55.9021 39.0222 58.6544 37.4744C62.6982 35.3122 67.1211 33.8812 71.331 34.2964C71.1722 35.1813 71.1008 36.11 71.1348 37.0838C71.3666 43.6335 74.6856 49.6143 78.487 54.7663C78.6304 54.9598 78.7771 55.1499 78.9234 55.34C78.9123 55.3538 78.9019 55.3676 78.8905 55.3814C73.9242 61.6973 66.2089 65.4926 61.9593 72.4539C57.9855 78.8673 58.5878 86.8885 62.4505 93.1909C67.4168 101.505 77.2317 107.636 86.959 107.306C85.7343 111.188 85.2363 115.337 85.0075 119.412H85.3843C85.5122 116.431 85.7814 113.463 86.4913 110.536C86.7471 109.456 87.0432 108.362 87.3897 107.285C89.8695 107.151 92.3392 106.603 94.718 105.546C97.356 104.462 99.8021 101.868 99.4589 98.8369C99.1796 96.5085 96.9589 95.7582 94.9468 96.4715C93.103 97.0771 91.6663 98.5172 90.5054 100.015C89.1158 101.966 88.0761 104.086 87.2921 106.303C85.0411 106.313 82.8103 106.003 80.8756 105.452C68.8838 102.252 57.3025 89.7387 61.1716 76.7375C62.255 73.1776 64.4926 70.1427 67.1406 67.5518C71.1301 63.5956 75.8407 60.3144 79.308 55.8326C80.5947 57.4594 81.9608 59.0001 83.1835 60.667C85.6922 64.1521 89.2443 69.324 86.956 73.6009C86.5243 74.3159 85.9735 74.9377 85.344 75.4747C84.6401 74.3361 83.8497 73.3058 82.955 72.43C80.8417 70.356 77.7835 69.7463 75.0083 70.7362C72.8697 71.5626 71.336 74.3933 73.1355 76.3119C75.1846 78.5077 78.52 78.7159 81.309 78.2008C82.8682 77.9178 84.422 77.3115 85.7346 76.4135C87.7195 80.0224 88.8311 84.5332 89.5441 87.7307C90.1218 90.4803 90.5394 93.2602 90.8897 96.0485L91.0842 96.0233C90.2574 90.2074 89.0455 82.0958 85.8487 76.3367C87.8039 74.9592 89.1945 72.9199 89.2107 70.317C89.2376 65.0953 85.7376 60.2329 82.6081 56.3275C81.9853 55.5762 81.3349 54.776 80.6768 53.9352C83.8191 49.1405 84.9903 43.6348 80.7071 38.7796C78.2562 36.0387 75.4625 34.567 72.5032 34.034C72.5315 33.8267 72.5611 33.6198 72.5998 33.4135C73.5396 28.4519 78.1176 25.135 82.666 23.5405C87.3816 21.8716 92.6094 21.9332 97.434 23.1226C98.4889 23.4207 99.5178 23.7962 100.518 24.2366C98.9192 29.7056 99.1453 35.8479 99.9589 41.3748C100.654 46.479 102.69 51.7327 107.066 54.7787C112.704 58.5644 117.518 54.0964 117.49 48.0574C117.707 44.2048 116.653 40.3115 114.581 37.0656C113.436 34.8694 111.875 32.7517 110.178 30.8957C108.061 28.5885 105.789 26.6902 103.326 25.2309C104.641 22.529 106.52 20.1394 109.016 18.5715C112.693 16.0745 116.935 15.4948 121.241 16.3609C127.641 17.552 133.112 24.1653 136.532 29.6871C138.227 32.4788 139.682 35.4512 140.876 38.5484C141.977 41.404 142.527 44.443 142.547 47.5032L142.552 67.358L126.066 70.7799C125.91 70.8126 125.798 70.9502 125.798 71.1093V111.468L109.262 114.908C109.106 114.94 108.994 115.078 108.994 115.237V120.921L92.4425 124.352C92.2864 124.385 92.1743 124.523 92.1743 124.682V165.312L75.4908 168.78C75.3346 168.812 75.2226 168.95 75.2226 169.109V184.492C69.9595 187.002 65.368 191.13 62.4505 196.014C58.5878 202.316 57.9855 210.337 61.9593 216.751C66.2089 223.712 73.9242 227.508 78.8905 233.823C78.9016 233.837 78.912 233.85 78.9231 233.864C78.7764 234.054 78.63 234.245 78.4864 234.438C74.6849 239.59 71.366 245.572 71.1345 252.121C71.1008 253.095 71.1718 254.023 71.331 254.908C67.1214 255.323 62.6985 253.892 58.6551 251.73C55.9028 250.182 53.6855 247.881 52.1175 245.189C55.2164 244.086 58.0024 242.242 59.8193 239.419C62.0871 235.997 62.6928 231.65 61.5521 227.74C60.97 225.792 59.7789 223.702 57.7702 222.949C55.7177 222.215 53.3624 222.982 52.0166 224.608C49.8093 227.245 48.9311 230.748 48.7562 234.109C48.5913 236.983 49.096 239.887 50.166 242.558C48.0933 242.958 45.913 242.992 43.8336 242.77C40.4891 242.441 37.3094 241.175 34.9306 238.85C30.4421 234.409 29.325 228.595 29.325 222.027C29.325 221.663 29.325 221.102 29.325 220.365H29.3209V211.982H20.9092V220.394H20.9112C20.922 220.563 20.9132 220.716 20.9132 220.873C20.9132 227.162 22.7497 233.393 26.506 238.472C30.3707 243.698 36.1587 246.324 42.6028 246.544C43.4537 246.574 44.3057 246.563 45.1556 246.515C47.2821 246.414 49.4826 246.058 51.562 245.382C53.4664 248.592 56.249 251.256 59.6878 252.818C63.5911 254.663 67.62 255.72 71.4171 255.328C73.1234 263.245 82.1707 267.453 89.996 267.452C93.9095 267.488 97.4398 266.765 100.658 265.348C100.861 266.017 101.087 266.679 101.341 267.329C103.917 274.057 110.865 279.147 118.192 279.217C128.604 279.355 135.572 269.498 139.167 260.853C141.01 256.382 142.292 251.735 142.877 247.026C144.725 261.373 154.67 283.225 172.025 278.559C174.867 277.795 177.453 276.269 179.621 274.306C182.365 271.793 184.11 268.71 185.15 265.359C188.363 266.769 191.885 267.489 195.786 267.452C203.61 267.453 212.659 263.245 214.365 255.328C218.162 255.72 222.192 254.663 226.095 252.818C229.534 251.256 232.317 248.591 234.221 245.382C236.3 246.058 238.501 246.414 240.628 246.515C241.477 246.563 242.33 246.573 243.181 246.544C249.625 246.324 255.413 243.698 259.277 238.472C263.034 233.393 264.87 227.162 264.87 220.873C264.87 220.716 264.861 220.563 264.872 220.394H264.874V211.982H256.462V211.984ZM235.002 46.7818C236.183 49.8336 236.61 53.1882 236.142 56.4322C235.708 59.0701 234.817 61.9301 232.99 63.8712C231.849 65.1232 230.042 65.6716 228.484 65.0354C226.987 64.3793 226.173 62.5926 225.786 61.0347C224.988 57.6667 225.759 53.8578 227.869 51.129C229.655 48.7808 232.209 47.4279 235.002 46.7818ZM57.9142 51.1294C60.0239 53.8578 60.7944 57.667 59.997 61.0347C59.61 62.5926 58.7958 64.3793 57.2985 65.0354C55.7406 65.6716 53.9338 65.1232 52.7931 63.8712C50.9661 61.9297 50.0745 59.0698 49.6404 56.4322C49.1727 53.1882 49.6 49.834 50.781 46.7822C53.5737 47.4282 56.1276 48.7808 57.9142 51.1294ZM92.7123 98.208C94.2164 96.778 97.2278 95.523 98.678 97.6192C99.8253 99.6784 98.5165 102.239 96.8307 103.592C94.3745 105.419 91.0434 106.219 87.7225 106.297C88.8026 103.265 90.3436 100.392 92.7123 98.208ZM77.5029 77.8788C75.2923 77.7143 72.1116 76.2758 72.7452 73.6039C73.4773 70.8937 76.7451 70.1854 79.194 70.6511C81.7774 71.2285 83.7353 73.1295 85.2393 75.5679C83.1401 77.3007 80.1721 78.074 77.5029 77.8788ZM79.4281 38.0471C84.492 42.8307 83.6741 48.4245 80.3094 53.4628C76.1183 48.0298 71.7839 41.0151 72.4548 34.4556C74.9124 34.9004 77.2774 36.0195 79.4281 38.0471ZM114.3 37.2261C116.319 40.4481 117.353 44.2442 117.083 48.0453C117.039 50.4898 116.201 53.1115 114.208 54.6216C110.925 57.0762 106.897 54.4221 104.812 51.6267C100.543 46.159 100.096 36.6181 101.62 30.0609C101.979 28.5381 102.493 27.024 103.158 25.5882C107.832 28.3328 111.707 32.5374 114.3 37.2261ZM50.7817 242.425C49.6007 239.373 49.1734 236.019 49.6411 232.775C50.0751 230.137 50.9668 227.277 52.7938 225.336C53.9344 224.084 55.7413 223.535 57.2991 224.171C58.7964 224.828 59.6107 226.614 59.9976 228.172C60.7951 231.54 60.0246 235.349 57.9149 238.078C56.1282 240.426 53.5744 241.779 50.7817 242.425ZM224.612 212.469C223.528 216.029 221.291 219.064 218.643 221.655C214.653 225.611 209.943 228.892 206.475 233.374C205.189 231.747 203.823 230.206 202.6 228.54C200.091 225.054 196.539 219.883 198.827 215.606C199.259 214.891 199.81 214.269 200.439 213.732C201.143 214.87 201.934 215.901 202.828 216.777C204.942 218.851 208 219.46 210.775 218.47C212.914 217.644 214.447 214.813 212.648 212.895C210.599 210.699 207.263 210.491 204.474 211.006C202.915 211.289 201.361 211.895 200.049 212.793C198.064 209.184 196.952 204.673 196.239 201.476C195.841 199.582 195.523 197.673 195.247 195.758L210.28 192.641C210.436 192.608 210.548 192.47 210.548 192.311V185.96C220.198 190.955 227.865 201.539 224.612 212.469ZM200.544 213.639C202.643 211.906 205.611 211.133 208.281 211.328C210.491 211.493 213.672 212.931 213.038 215.603C212.306 218.313 209.038 219.021 206.589 218.556C204.006 217.979 202.048 216.077 200.544 213.639ZM161.48 108.334L162.6 108.102C162.608 108.101 162.615 108.1 162.622 108.099L176.585 105.195L191.668 108.347L176.507 111.497L176.503 111.498L176.511 111.456L161.48 108.334ZM127.855 143.378L143.064 140.216L158.212 143.369L142.738 146.486L142.74 146.474L127.855 143.378ZM142.672 146.843H142.664L142.668 146.823L142.672 146.843ZM94.1376 166.742L109.306 163.589L110.554 163.829L109.233 164.111C109.078 164.145 108.967 164.282 108.967 164.441V169.824L94.1376 166.742ZM108.968 170.512V198.884L92.8207 195.541V167.156L108.968 170.512ZM141.138 134.043L125.975 137.197L125.898 137.212L125.9 137.203L111.005 134.107L126.194 130.951L126.23 130.943L141.138 134.043ZM126.254 130.605H126.256L126.255 130.609L126.254 130.605ZM176.602 92.9571L161.481 89.8174L176.401 86.7162L191.634 89.8309L176.602 92.9571ZM192.964 90.2421V95.3453L176.938 98.672V93.5751L192.964 90.2421ZM144.632 110.703L159.876 107.534L160.927 107.762L159.821 107.991C159.665 108.024 159.553 108.188 159.553 108.348V113.802L144.632 110.703ZM159.553 114.49V142.96L143.338 139.585V111.121L159.553 114.49ZM160.165 106.908V90.232L176.265 93.5745V104.574L162.554 107.426L160.165 106.908ZM176.063 86.0991L160.165 89.4029V84.1523L176.063 80.7691V86.0991ZM159.827 83.5359L144.438 80.3936L159.473 77.325L159.973 77.221L174.779 80.3542L159.827 83.5359ZM159.068 76.7186L143.093 79.9814V74.8644L159.068 71.4949V76.7186ZM159.492 84.154V106.926L146.025 109.725L143.092 109.193V80.8057L159.492 84.154ZM144.267 110.09L142.955 110.363C142.789 110.386 142.665 110.528 142.665 110.696V116.158L127.748 112.983L142.8 109.824L144.267 110.09ZM143.096 139.878V139.879L143.095 139.878H143.096ZM142.665 116.847V133.673L126.457 130.303V113.397L142.665 116.847ZM142.665 134.413V139.61L126.39 142.995V137.797L142.665 134.413ZM125.831 137.57H125.824L125.827 137.552L125.831 137.57ZM125.784 130.349L109.641 133.704V128.426L125.784 125.047V130.349ZM125.717 137.853V160.585L112.237 163.469L112.238 163.467L109.641 162.968V134.512L125.717 137.853ZM109.641 164.854L125.784 168.21V202.366L109.641 199.023V164.854ZM110.935 164.436L126.056 161.201L127.622 161.514L126.052 161.84C125.896 161.872 125.784 162.01 125.784 162.169V167.523L110.935 164.436ZM126.39 160.581V143.761L142.42 147.094V158.437L129.305 161.164L126.39 160.581ZM159.553 143.785V148.975L143.093 152.395V147.102L159.553 143.785ZM143.093 153.148L159.264 156.508V161.793L143.17 158.321L143.099 158.653L143.098 158.648L143.096 158.303C143.095 158.303 143.094 158.304 143.093 158.304V153.148ZM144.586 152.772L159.889 149.593L174.743 152.71L159.6 155.891L144.586 152.772ZM159.936 156.507L176.238 153.083V199.012L159.936 202.392V156.507ZM160.226 148.976V108.761L176.238 112.087V152.334L160.226 148.976ZM176.911 112.1L193.055 108.746V195.525L176.911 198.872V112.1ZM176.938 104.582V99.5149L193.055 102.838V107.949L176.938 104.582ZM178.221 99.0923L193.332 95.956L208.546 99.0946L193.391 102.22L178.221 99.0923ZM193.728 102.838L209.875 99.5078V192.037L193.728 195.385V102.838ZM205.474 53.4645C202.109 48.4252 201.29 42.8307 206.355 38.0471C208.505 36.0198 210.87 34.9007 213.327 34.4556C214.006 41.1756 209.545 48.1294 205.474 53.4645ZM184.711 41.2143C184.302 44.9252 183.295 48.6543 180.971 51.6263C178.888 54.4214 174.854 57.0768 171.575 54.6213C169.582 53.1105 168.745 50.4894 168.7 48.045C168.431 44.2438 169.463 40.4474 171.483 37.2257C174.076 32.5374 177.95 28.3338 182.623 25.5896C184.836 30.3735 185.334 36.004 184.711 41.2143ZM144.98 38.3563C147.921 30.8402 152.448 23.5983 158.752 18.9493C160.47 17.6781 162.436 16.7411 164.542 16.3615C167.618 15.7619 170.894 15.8218 173.832 17.016C176.967 18.3144 179.592 20.3844 181.445 23.3857C181.814 23.9833 182.148 24.6014 182.454 25.2329C179.993 26.6919 177.722 28.5899 175.605 30.8964C173.899 32.7699 172.375 34.8227 171.196 37.0767C169.874 39.1897 168.853 41.6867 168.487 44.2183C168.167 46.7623 168.067 49.4268 168.986 51.8662C169.873 54.3329 172.269 56.4483 175.028 56.1556C180.201 55.5913 183.836 49.7949 185.045 45.1691C186.629 38.5154 187.166 30.9755 185.238 24.2487C186.247 23.8033 187.285 23.4241 188.349 23.1229C193.173 21.9338 198.401 21.8723 203.117 23.5411C207.665 25.1347 212.246 28.4526 213.183 33.4142C213.221 33.6205 213.252 33.8277 213.279 34.0347C210.32 34.568 207.527 36.0393 205.076 38.7802C200.791 43.6369 201.964 49.1449 205.109 53.9406C204.862 54.2606 204.616 54.5758 204.375 54.883C200.847 59.1216 196.546 64.5317 196.573 70.318C196.591 72.9185 197.976 74.9549 199.926 76.3317C199.348 77.4067 198.858 78.5238 198.427 79.5918C196.472 84.7169 195.499 90.1475 194.762 95.5637L194.954 95.6034C195.734 89.8437 196.944 82.01 200.071 76.4303C201.378 77.3192 202.922 77.9202 204.474 78.2018C206.981 78.6634 209.812 78.5464 211.928 76.9744C214.57 75.1201 213.434 71.8415 210.775 70.7372C209.424 70.2944 207.95 70.1164 206.542 70.4206C203.767 71.0582 201.842 73.0955 200.414 75.4737C195.528 71.47 199.443 64.8685 202.6 60.668C203.823 59.0011 205.188 57.4604 206.475 55.8342C209.942 60.3157 214.653 63.597 218.642 67.5528C221.29 70.1433 223.527 73.1786 224.611 76.7385C227.863 87.6677 220.197 98.2514 210.548 103.248V99.0953C210.548 98.9355 210.436 98.7978 210.279 98.7659L193.637 95.3325V89.8289C193.637 89.8289 193.637 89.8285 193.637 89.8282C193.636 89.6684 193.524 89.5311 193.368 89.4991L176.735 86.0988V80.3535C176.735 80.1944 176.624 80.0571 176.469 80.0241L160.042 76.5484C159.996 76.5383 159.95 76.5386 159.905 76.5481L159.741 76.5817V71.0804C159.741 70.9209 159.629 70.7833 159.472 70.751L143.216 67.3745L143.201 47.5917C143.222 44.4299 143.828 41.3007 144.98 38.3563ZM200.565 75.5935C201.27 74.4629 202.063 73.4411 202.961 72.5747C205.053 70.5629 208.002 70.0225 210.668 70.9902C213.066 71.9912 214.207 75.0565 211.709 76.6803C208.662 78.7654 204.233 78.0083 201.28 76.1016C201.022 75.9384 200.788 75.7678 200.565 75.5935ZM142.847 67.9849L157.762 71.0828L142.766 74.2459L127.783 71.112L142.847 67.9849ZM126.471 71.5245L142.419 74.861V109.218L129.137 112.004L126.47 111.47V71.5245H126.471ZM126.129 112.088L127.464 112.355L126.052 112.651C125.896 112.684 125.784 112.821 125.784 112.98V118.357L110.974 115.24L126.129 112.088ZM109.667 115.653L125.784 119.044V124.22L109.667 120.87V115.653ZM109.489 121.177L109.489 121.178L109.489 121.177H109.489ZM109.408 121.526L109.458 121.514L124.469 124.634L109.303 127.809L94.1719 124.683L109.408 121.526ZM92.8476 125.096L108.968 128.426V162.973L95.8846 165.692L93.1885 165.131C93.1424 165.121 93.0956 165.121 93.0508 165.131L92.8476 165.173V125.096ZM92.5801 165.917L93.1201 165.804L94.2312 166.035L92.4156 166.413C92.2594 166.445 92.1474 166.583 92.1474 166.742V172.131L77.2327 169.107L92.5801 165.917ZM75.8959 169.523L92.1477 172.818V195.401L75.8959 192.036V169.523ZM80.309 235.742C83.6747 240.782 84.493 246.376 79.4288 251.16C77.2784 253.187 74.9137 254.306 72.4568 254.751C71.7775 248.031 76.2384 241.077 80.309 235.742ZM101.072 247.993C101.481 244.282 102.488 240.553 104.812 237.581C106.895 234.785 110.929 232.13 114.208 234.586C116.201 236.096 117.038 238.717 117.083 241.162C117.352 244.963 116.32 248.759 114.3 251.981C111.707 256.67 107.833 260.873 103.16 263.617C100.947 258.834 100.449 253.203 101.072 247.993ZM140.804 250.851C137.863 258.367 133.335 265.609 127.031 270.258C125.313 271.529 123.347 272.466 121.241 272.845C118.165 273.445 114.889 273.385 111.951 272.191C108.817 270.892 106.191 268.823 104.339 265.821C103.969 265.224 103.636 264.605 103.329 263.974C105.79 262.515 108.061 260.617 110.178 258.31C111.884 256.437 113.408 254.384 114.587 252.13C115.909 250.017 116.931 247.52 117.296 244.989C117.617 242.445 117.717 239.78 116.798 237.341C115.91 234.874 113.515 232.759 110.756 233.051C105.582 233.616 101.947 239.412 100.738 244.038C99.1541 250.691 98.6174 258.231 100.545 264.958C99.5363 265.404 98.4986 265.783 97.4347 266.084C92.6101 267.273 87.3823 267.335 82.6663 265.666C78.1186 264.072 73.5379 260.754 72.6001 255.793C72.5621 255.586 72.5318 255.379 72.5043 255.172C75.4632 254.639 78.2569 253.168 80.7077 250.427C84.9924 245.57 83.8191 240.062 80.6744 235.266C80.9214 234.946 81.167 234.631 81.4086 234.324C84.9368 230.085 89.2369 224.675 89.2104 218.889C89.1925 216.288 87.8076 214.252 85.8578 212.875C86.4358 211.8 86.9257 210.683 87.3567 209.615C89.0526 205.168 90.0098 200.49 90.7147 195.792L90.5276 195.753C89.7315 201.207 88.4654 207.865 85.7131 212.777C84.4059 211.888 82.8615 211.287 81.3094 211.005C78.803 210.544 75.9723 210.661 73.8559 212.233C71.2142 214.087 72.3498 217.366 75.0089 218.47C76.3602 218.913 77.8339 219.091 79.2421 218.787C82.0166 218.149 83.9419 216.112 85.3695 213.734C90.2561 217.737 86.3409 224.339 83.1842 228.539C81.9611 230.206 80.5954 231.747 79.3087 233.373C75.8414 228.892 71.1311 225.61 67.1419 221.654C64.4939 219.064 62.2564 216.029 61.1729 212.469C57.9216 201.544 65.5797 190.965 75.2236 185.965V192.31C75.2236 192.47 75.3357 192.607 75.4921 192.639L142.555 206.525L142.582 241.615C142.561 244.777 141.955 247.906 140.804 250.851ZM85.2185 213.613C84.5136 214.744 83.7208 215.766 82.8228 216.632C80.7303 218.644 77.7811 219.184 75.1153 218.217C72.7176 217.216 71.5766 214.15 74.0749 212.527C77.121 210.441 81.5503 211.199 84.5031 213.105C84.7615 213.269 84.9954 213.439 85.2185 213.613ZM142.601 205.847L126.458 202.504V162.581L142.601 165.853V205.847ZM127.794 162.165L142.837 159.037L143.072 158.988L157.954 162.199L142.937 165.234L127.794 162.165ZM159.263 162.621V202.532L143.274 205.847V165.853L159.263 162.621ZM184.163 259.146C183.804 260.669 183.291 262.183 182.625 263.619C177.951 260.874 174.077 256.67 171.483 251.981C169.464 248.759 168.43 244.963 168.7 241.162C168.744 238.717 169.582 236.095 171.575 234.585C174.858 232.131 178.886 234.785 180.971 237.58C185.24 243.048 185.687 252.589 184.163 259.146ZM213.184 255.793C212.244 260.754 207.666 264.071 203.117 265.666C198.402 267.335 193.174 267.273 188.349 266.084C187.295 265.786 186.266 265.41 185.265 264.97C186.864 259.501 186.638 253.358 185.825 247.831C185.129 242.727 183.093 237.474 178.718 234.427C173.079 230.642 168.265 235.11 168.294 241.149C168.076 245.001 169.131 248.895 171.203 252.141C172.348 254.337 173.909 256.455 175.605 258.31C177.722 260.618 179.995 262.516 182.457 263.975C181.143 266.677 179.263 269.067 176.768 270.635C173.09 273.132 168.849 273.711 164.542 272.845C158.142 271.654 152.671 265.041 149.251 259.519C147.556 256.727 146.101 253.755 144.907 250.658C143.806 247.802 143.256 244.763 143.236 241.703L143.228 206.544L143.006 206.59L195.081 195.792C195.912 201.26 197.192 207.929 199.935 212.869C197.98 214.247 196.589 216.286 196.573 218.889C196.546 224.111 200.046 228.973 203.175 232.879C203.798 233.63 204.449 234.43 205.107 235.271C201.964 240.066 200.793 245.571 205.076 250.427C207.527 253.168 210.321 254.639 213.28 255.172C213.252 255.379 213.222 255.586 213.184 255.793ZM213.328 254.751C210.871 254.307 208.506 253.188 206.355 251.16C201.291 246.376 202.109 240.782 205.474 235.744C209.665 241.177 214 248.192 213.328 254.751ZM227.869 238.077C225.759 235.349 224.989 231.54 225.786 228.172C226.173 226.614 226.987 224.828 228.485 224.171C230.042 223.535 231.849 224.084 232.99 225.336C234.817 227.277 235.709 230.137 236.143 232.775C236.61 236.019 236.183 239.373 235.002 242.425C232.209 241.779 229.656 240.426 227.869 238.077Z" fill="white"/>
</svg>
