<svg width="286" height="286" viewBox="0 0 286 286" fill="none" xmlns="http://www.w3.org/2000/svg">
<path d="M146.385 101.748C146.818 101.748 147.169 101.397 147.169 100.964C147.169 100.531 146.818 100.18 146.385 100.18H145.206V95.4425H145.934C146.367 95.4425 146.718 95.0919 146.718 94.6588C146.718 94.2258 146.367 93.8745 145.934 93.8745H145.738C147.281 92.9324 148.315 91.2379 148.315 89.2972C148.315 87.601 147.526 86.0913 146.297 85.1078C146.546 84.9762 146.718 84.7178 146.718 84.4167C146.718 83.9836 146.367 83.633 145.934 83.633H144.792C145.237 83.1724 145.512 82.5466 145.512 81.8558C145.512 80.4413 144.365 79.2949 142.951 79.2949C141.536 79.2949 140.389 80.4416 140.389 81.8558C140.389 82.5466 140.664 83.1724 141.109 83.633H139.968C139.535 83.633 139.185 83.9836 139.185 84.4167C139.185 84.7178 139.356 84.9762 139.605 85.1074C138.376 86.0906 137.586 87.6007 137.586 89.2968C137.586 91.2373 138.62 92.9321 140.164 93.8742H139.968C139.535 93.8742 139.185 94.2255 139.185 94.6585C139.185 95.0915 139.535 95.4421 139.968 95.4421H140.739V100.179H139.513C139.08 100.179 138.729 100.531 138.729 100.964C138.729 101.397 139.08 101.747 139.513 101.747H140.027V116.705C140.026 116.704 140.025 116.704 140.024 116.703V116.709L140.027 116.707V171.769H139.513C139.08 171.769 138.729 172.12 138.729 172.553C138.729 172.987 139.08 173.338 139.513 173.338H146.385C146.818 173.338 147.17 172.987 147.17 172.553C147.17 172.12 146.818 171.769 146.385 171.769H145.921V116.706V101.747L146.385 101.748Z" fill="#D4FA62"/>
<path d="M132.646 107.027C122.557 107.027 112.808 120.365 107.054 120.365C104.696 120.365 102.503 119.518 100.434 118.458C98.4342 117.435 96.4544 116.126 94.1953 115.764C93.225 115.608 92.1984 115.668 91.3051 116.076C89.8004 116.767 88.9434 118.405 88.9434 120.029C88.9434 121.713 90.3084 123.079 91.9928 123.079C93.6768 123.079 95.0422 121.713 95.0422 120.029C95.0325 119.717 95.3642 119.507 95.6438 119.654C99.1845 121.524 102.905 124.032 107.058 124.032C115.791 124.032 122.561 114.136 132.649 114.136C132.649 114.136 137.28 113.964 140.024 116.704V109.264C140.024 109.264 138.635 107.027 132.646 107.027Z" fill="#D4FA62"/>
<path d="M194.642 116.076C193.749 115.668 192.722 115.608 191.752 115.764C189.493 116.127 187.513 117.435 185.513 118.458C183.514 119.481 181.251 120.365 178.893 120.365C173.139 120.365 163.39 107.027 153.301 107.027C147.312 107.027 145.923 109.263 145.923 109.263V116.705C148.668 113.964 153.298 114.136 153.298 114.136C163.386 114.136 170.157 124.032 178.89 124.032C183.042 124.032 186.763 121.524 190.304 119.654C190.583 119.507 190.916 119.717 190.905 120.029C190.905 121.713 192.27 123.079 193.955 123.079C195.639 123.079 197.005 121.713 197.005 120.029C197.004 118.405 196.147 116.767 194.642 116.076Z" fill="#D4FA62"/>
<path d="M145.923 116.711V116.705L145.92 116.708L145.923 116.711Z" fill="#D4FA62"/>
<path d="M166.144 198.349L151.07 186.57H151.07C151.339 186.466 151.498 186.191 151.445 185.909C151.333 185.291 150.927 184.138 149.532 182.905C146.16 179.534 145.921 173.342 145.921 173.342H140.029C140.029 173.342 139.79 179.534 136.418 182.905C135.022 184.138 134.621 185.294 134.504 185.909C134.451 186.191 134.61 186.466 134.879 186.57L119.804 198.349C119.02 198.96 118.562 199.9 118.562 200.897C118.562 202.435 119.641 203.761 121.15 204.066C125.395 204.927 134.248 206.478 142.975 206.478C151.701 206.478 160.551 204.927 164.799 204.066C166.308 203.761 167.387 202.435 167.387 200.897C167.386 199.904 166.928 198.964 166.144 198.349Z" fill="#D4FA62"/>
<path d="M92.0098 154.368V173.336L108.439 163.852V144.881L92.0098 154.368Z" fill="#A5AB56"/>
<path d="M108.439 144.881L92.0098 154.367L75.583 144.881L92.0098 135.396L108.439 144.881Z" fill="#D4FA62"/>
<path d="M92.0098 154.368V173.336L75.583 163.852V144.881L92.0098 154.368Z" fill="#A5AB56"/>
<path d="M92.0098 121.682C92.9711 121.682 93.7504 120.903 93.7504 119.942C93.7504 118.98 92.9711 118.201 92.0098 118.201C91.0482 118.201 90.2686 118.98 90.2686 119.942C90.2686 120.903 91.0478 121.682 92.0098 121.682Z" fill="#A5AB56"/>
<path d="M193.94 121.682C194.901 121.682 195.681 120.903 195.681 119.942C195.681 118.98 194.901 118.201 193.94 118.201C192.978 118.201 192.199 118.98 192.199 119.942C192.199 120.903 192.978 121.682 193.94 121.682Z" fill="#A5AB56"/>
<path d="M193.939 154.368V173.336L210.368 163.852V144.881L193.939 154.368Z" fill="#A5AB56"/>
<path d="M210.369 144.881L193.94 154.367L177.513 144.881L193.94 135.396L210.369 144.881Z" fill="#D4FA62"/>
<path d="M193.94 154.368V173.336L177.513 163.852V144.881L193.94 154.368Z" fill="#A5AB56"/>
<path d="M256.461 211.92H248.049V220.332H256.461V211.92Z" fill="white"/>
<path d="M264.874 203.508H256.462V211.92H264.874V203.508Z" fill="white"/>
<path d="M256.461 195.096H248.049V203.507H256.461V195.096Z" fill="white"/>
<path d="M113.448 52.0844H121.862V52.0837H121.872V43.6719H121.862V43.6709H113.449V43.6702H113.459V35.2585H113.449V35.2578H105.036V43.6713H113.448V52.0844Z" fill="white"/>
<path d="M256.461 68.9082H248.049V77.32H256.461V68.9082Z" fill="white"/>
<path d="M264.874 77.3203H256.462V85.7321H264.874V77.3203Z" fill="white"/>
<path d="M256.461 85.7324H248.049V94.1442H256.461V85.7324Z" fill="white"/>
<path d="M247.985 94.1445H239.573V110.969H247.985V94.1445Z" fill="white"/>
<path d="M256.461 110.971H248.049V119.382H256.461V110.971Z" fill="white"/>
<path d="M264.874 119.383H256.462V127.795H264.874V119.383Z" fill="white"/>
<path d="M256.461 127.795H248.049V136.207H256.461V127.795Z" fill="white"/>
<path d="M273.285 127.795H264.874V136.207H273.285V127.795Z" fill="white"/>
<path d="M273.285 153.033H264.874V161.445H273.285V153.033Z" fill="white"/>
<path d="M247.985 178.27H239.573V195.094H247.985V178.27Z" fill="white"/>
<path d="M256.461 169.857H248.049V178.269H256.461V169.857Z" fill="white"/>
<path d="M264.874 161.443H256.462V169.855H264.874V161.443Z" fill="white"/>
<path d="M256.461 153.031H248.049V161.443H256.461V153.031Z" fill="white"/>
<path d="M232.388 161.685C228.213 162.011 223.703 162.776 220.247 165.401C213.764 170.321 213.433 178.706 217.687 185.083C220.45 189.395 224.448 192.407 228.229 195.6C235.66 201.461 241.13 210.756 239.816 220.461C239.017 226.3 235.427 231.885 230.125 234.575C222.398 238.521 213.776 234.397 208.296 228.539C207.363 227.56 206.42 226.496 205.523 225.365C206.644 224.915 207.756 224.31 208.857 223.525C214.127 219.828 217.329 212.671 215.495 206.328C214.06 202.001 209.301 199.44 204.914 200.853C204.749 200.887 204.557 200.964 204.398 201.027C203.914 201.219 203.368 201.436 202.935 201.713C202.322 202.041 201.711 202.484 201.191 202.945C198.053 205.718 196.797 210.064 197.139 214.129C197.517 218.223 199.439 221.892 201.892 225.088C197.367 226.012 192.678 224.412 187.936 222.524C183.481 220.857 176.792 217.818 172.174 219.886C169.386 221.224 167.779 224.805 169.035 227.717L169.388 227.554C168.888 226.496 168.804 225.271 169.094 224.139C172.02 214.629 185.114 222.124 191.095 224.374C195.052 225.999 198.951 226.858 202.748 226.165C203.157 226.658 203.576 227.139 204.002 227.607C208.91 233.123 215.765 237.778 223.433 237.454C228.508 237.281 233.05 234.548 236.058 230.536C240.063 225.333 241.183 218.708 239.737 212.37C239.279 210.315 238.579 208.265 237.691 206.355C236.701 204.138 235.433 202.049 234.001 200.076C231.133 196.108 227.388 192.869 224.445 189.194C221.714 185.771 219.403 181.715 219.717 177.302C219.986 173.535 222.733 170.655 226.32 170.005C227.282 169.815 228.286 169.7 229.329 169.648C232.76 169.5 236.167 169.758 239.669 169.76L248.049 169.855V161.443H239.637C239.637 161.443 234.834 161.506 232.388 161.685ZM204.628 224.193C201.063 219.322 198.636 213.405 201.496 207.754C202.434 205.977 203.953 204.552 205.859 203.946C208.983 202.888 212.198 204.9 212.998 208.032C214.159 213.177 211.884 218.843 207.828 222.159C206.773 223.034 205.706 223.698 204.628 224.193Z" fill="white"/>
<path d="M229.329 119.59C228.286 119.538 227.282 119.422 226.32 119.233C222.733 118.583 219.986 115.703 219.717 111.936C219.402 107.523 221.714 103.467 224.445 100.044C227.388 96.3692 231.133 93.1303 234.001 89.1617C235.433 87.1886 236.7 85.0998 237.691 82.8828C238.579 80.973 239.278 78.9229 239.737 76.868C241.183 70.5299 240.063 63.9052 236.058 58.7023C233.05 54.6896 228.507 51.9568 223.433 51.7835C215.765 51.4601 208.91 56.1149 204.002 61.631C203.576 62.099 203.157 62.5795 202.748 63.0724C198.951 62.3803 195.052 63.2393 191.095 64.8641C185.114 67.1137 172.02 74.6093 169.094 65.099C168.804 63.9671 168.887 62.7416 169.388 61.6841L169.035 61.5209C167.779 64.4331 169.386 68.0138 172.173 69.352C176.792 71.4199 183.481 68.3812 187.936 66.714C192.678 64.8257 197.366 63.2255 201.892 64.1494C199.439 67.3462 197.516 71.0145 197.139 75.1093C196.797 79.1742 198.053 83.5201 201.191 86.2932C201.711 86.7539 202.321 87.198 202.935 87.5247C203.368 87.8023 203.914 88.0197 204.398 88.2115C204.557 88.2744 204.749 88.3518 204.914 88.3854C209.301 89.7986 214.06 87.2381 215.495 82.9107C217.329 76.5672 214.127 69.4108 208.857 65.7134C207.756 64.9284 206.645 64.3237 205.522 63.8739C206.42 62.743 207.363 61.6784 208.296 60.6999C213.776 54.842 222.398 50.7179 230.125 54.6643C235.427 57.3537 239.016 62.9388 239.816 68.7783C241.13 78.4831 235.66 87.7781 228.229 93.6387C224.448 96.8322 220.451 99.8433 217.687 104.155C213.433 110.533 213.764 118.918 220.247 123.838C223.703 126.463 228.213 127.228 232.388 127.554C234.834 127.733 239.636 127.795 239.636 127.795H248.048V119.383L239.668 119.478C236.167 119.48 232.759 119.738 229.329 119.59ZM207.828 67.0791C211.885 70.396 214.16 76.0618 212.998 81.2072C212.199 84.339 208.983 86.3508 205.859 85.2929C203.953 84.6866 202.434 83.2613 201.497 81.4841C198.637 75.8334 201.064 69.9162 204.628 65.0455C205.706 65.5397 206.773 66.2043 207.828 67.0791Z" fill="white"/>
<path d="M116.691 224.141C116.981 225.273 116.898 226.498 116.397 227.555L116.75 227.719C118.006 224.806 116.399 221.226 113.612 219.888C108.993 217.82 102.304 220.859 97.8487 222.525C93.1068 224.414 88.4187 226.014 83.8925 225.09C86.3457 221.893 88.2683 218.225 88.6459 214.131C88.9874 210.066 87.7313 205.72 84.5934 202.947C84.0736 202.486 83.4632 202.042 82.8491 201.715C82.4164 201.438 81.8707 201.22 81.3865 201.029C81.2277 200.966 81.0356 200.888 80.8707 200.855C76.4835 199.442 71.7244 202.002 70.29 206.329C68.4559 212.673 71.6575 219.829 76.9279 223.527C78.0285 224.312 79.1402 224.916 80.262 225.366C79.3647 226.497 78.4212 227.562 77.4888 228.541C72.0087 234.398 63.3867 238.523 55.6593 234.576C50.3572 231.887 46.7681 226.302 45.9679 220.463C44.654 210.757 50.124 201.462 57.555 195.602C61.3362 192.409 65.3335 189.397 68.0969 185.085C72.3516 178.708 72.0195 170.323 65.5374 165.403C62.0815 162.777 57.5708 162.013 53.3962 161.686C50.9504 161.508 46.1476 161.445 46.1476 161.445H37.7358V169.857L46.1156 169.762C49.6176 169.76 53.0251 169.502 56.4554 169.649C57.4991 169.702 58.5028 169.818 59.4644 170.007C63.0512 170.657 65.7988 173.537 66.0673 177.304C66.3823 181.717 64.0707 185.772 61.3396 189.196C58.3968 192.871 54.6516 196.11 51.7838 200.078C50.3515 202.051 49.0843 204.14 48.0934 206.357C47.2051 208.267 46.5063 210.317 46.048 212.372C44.6019 218.71 45.7216 225.335 49.727 230.538C52.7347 234.551 57.2777 237.283 62.352 237.456C70.0202 237.78 76.8751 233.125 81.7829 227.609C82.2088 227.141 82.6281 226.66 83.0369 226.167C86.834 226.86 90.7327 226.001 94.6899 224.376C100.671 222.126 113.765 214.631 116.691 224.141ZM81.1564 224.194C80.0783 223.7 79.0107 223.036 77.9559 222.16C73.899 218.843 71.6242 213.178 72.786 208.033C73.5851 204.9 76.8011 202.889 79.9249 203.947C81.831 204.553 83.3501 205.978 84.2876 207.755C87.1479 213.406 84.7206 219.323 81.1564 224.194Z" fill="white"/>
<path d="M53.3955 127.554C57.5701 127.228 62.0809 126.463 65.5368 123.838C72.0192 118.918 72.351 110.533 68.0963 104.155C65.3329 99.8433 61.3356 96.8319 57.5543 93.6388C50.1234 87.7781 44.6534 78.4831 45.9673 68.7783C46.7674 62.9389 50.3565 57.3538 55.6587 54.6644C63.386 50.7179 72.0081 54.842 77.4882 60.7C78.4205 61.6784 79.364 62.743 80.2614 63.8739C79.1396 64.3238 78.0276 64.9284 76.9273 65.7134C71.6572 69.4112 68.4553 76.5676 70.2894 82.9107C71.7241 87.2381 76.4828 89.7986 80.8701 88.3855C81.0349 88.3518 81.2274 88.2744 81.3859 88.2115C81.8697 88.0197 82.4158 87.8027 82.8485 87.5248C83.4622 87.198 84.0729 86.7539 84.5928 86.2933C87.7307 83.5201 88.9867 79.1742 88.6452 75.1093C88.2677 71.0148 86.3451 67.3463 83.8919 64.1495C88.4178 63.2255 93.1061 64.8258 97.848 66.7141C102.303 68.3813 108.992 71.4199 113.611 69.352C116.398 68.0135 118.006 64.4331 116.749 61.521L116.397 61.6842C116.897 62.7417 116.98 63.9671 116.69 65.099C113.765 74.6093 100.671 67.1138 94.6889 64.8641C90.7317 63.2393 86.833 62.3806 83.0359 63.0724C82.6271 62.5798 82.2079 62.099 81.7819 61.631C76.8741 56.1146 70.0192 51.4598 62.3511 51.7835C57.2767 51.9568 52.7337 54.6896 49.726 58.7024C45.721 63.9052 44.6012 70.53 46.047 76.8681C46.5053 78.9232 47.2042 80.973 48.0924 82.8828C49.083 85.0998 50.3505 87.1886 51.7828 89.1617C54.6506 93.1304 58.3958 96.3689 61.3386 100.044C64.0697 103.467 66.381 107.523 66.0664 111.936C65.7979 115.702 63.0502 118.583 59.4635 119.233C58.5018 119.423 57.4978 119.538 56.4544 119.59C53.0241 119.738 49.6166 119.48 46.1147 119.478L37.7349 119.383V127.795H46.1466C46.147 127.795 50.9497 127.733 53.3955 127.554ZM81.1557 65.0462C84.72 69.9169 87.1473 75.8341 84.2869 81.4848C83.3495 83.262 81.8303 84.6873 79.9242 85.2936C76.8004 86.3515 73.5845 84.3397 72.7853 81.2079C71.6235 76.0626 73.8987 70.3971 77.9552 67.0798C79.01 66.205 80.0777 65.5404 81.1557 65.0462Z" fill="white"/>
<path d="M264.875 136.207H256.463V153.031H264.875V136.207Z" fill="white"/>
<path d="M281.699 136.209H273.288V153.032H281.699V136.209Z" fill="white"/>
<path d="M37.7345 68.9082H29.3228V77.32H37.7345V68.9082Z" fill="white"/>
<path d="M29.3219 77.3203H20.9102V85.7321H29.3219V77.3203Z" fill="white"/>
<path d="M37.7345 85.7324H29.3228V94.1442H37.7345V85.7324Z" fill="white"/>
<path d="M46.2111 94.1445H37.7993V110.969H46.2111V94.1445Z" fill="white"/>
<path d="M37.7345 110.971H29.3228V119.382H37.7345V110.971Z" fill="white"/>
<path d="M29.3219 119.383H20.9102V127.795H29.3219V119.383Z" fill="white"/>
<path d="M37.7345 127.795H29.3228V136.207H37.7345V127.795Z" fill="white"/>
<path d="M37.7355 211.92H29.3237V220.332H37.7355V211.92Z" fill="white"/>
<path d="M29.3219 203.508H20.9102V211.92H29.3219V203.508Z" fill="white"/>
<path d="M37.7345 195.096H29.3228V203.507H37.7345V195.096Z" fill="white"/>
<path d="M46.2111 178.27H37.7993V195.094H46.2111V178.27Z" fill="white"/>
<path d="M37.7345 169.857H29.3228V178.269H37.7345V169.857Z" fill="white"/>
<path d="M29.3219 161.443H20.9102V169.855H29.3219V161.443Z" fill="white"/>
<path d="M37.7345 153.031H29.3228V161.443H37.7345V153.031Z" fill="white"/>
<path d="M20.9103 127.795H12.4985V136.207H20.9103V127.795Z" fill="white"/>
<path d="M20.9103 153.031H12.4985V161.443H20.9103V153.031Z" fill="white"/>
<path d="M29.3219 136.207H20.9102V153.031H29.3219V136.207Z" fill="white"/>
<path d="M12.4977 136.207H4.08594V153.031H12.4977V136.207Z" fill="white"/>
<path d="M172.413 43.6713H180.826V35.2578H172.413V35.2585H172.391V43.6703H172.413V43.6713Z" fill="white"/>
<path d="M155.585 43.6726H163.998V52.0857H172.412V43.6722H163.998V35.2591H155.586V26.846H155.564V18.4043H147.152V35.2578H147.173V35.2591H155.585V43.6726Z" fill="white"/>
<path d="M163.998 10.0195H155.586V18.4313H163.998V10.0195Z" fill="white"/>
<path d="M130.263 10.0195H121.852V18.4313H130.263V10.0195Z" fill="white"/>
<path d="M172.336 237.156H163.923V237.157H163.913V245.569H163.923V245.569H172.335V245.57H172.326V253.982H172.335V253.983H180.749V245.569H172.336V237.156Z" fill="white"/>
<path d="M113.371 245.568H104.958V253.982H113.371V253.981H113.393V245.569H113.371V245.568Z" fill="white"/>
<path d="M138.611 253.982H130.199V245.568H121.785V253.982H130.198V262.395H130.219V270.807H138.631V253.982H138.611V253.982Z" fill="white"/>
<path d="M121.786 237.156H113.372V245.569H121.786V237.156Z" fill="white"/>
<path d="M130.197 270.807H121.786V279.218H130.197V270.807Z" fill="white"/>
<path d="M163.932 270.807H155.521V279.218H163.932V270.807Z" fill="white"/>
<path d="M163.922 245.57H155.509V253.983H147.116C147 251.843 146.975 249.568 146.579 247.247C145.398 240.665 142.296 234.339 139.199 228.627C137.3 225.106 135.363 221.772 134.753 217.861C143.072 220.178 151.734 220.724 159.499 219.175C164.764 218.028 170.12 215.569 173.29 211.007C176.863 205.638 174.6 199.295 169.338 196.118C166.589 194.454 163.399 193.547 160.121 193.196L151.634 186.564C151.782 186.363 151.85 186.107 151.802 185.848C151.688 185.221 151.273 183.971 149.796 182.668C147.004 179.877 146.417 175.003 146.307 173.676H146.412C147.03 173.676 147.532 173.173 147.532 172.555C147.532 171.937 147.03 171.435 146.412 171.435H146.284V116.852C148.902 114.345 153.268 114.471 153.325 114.473C158.456 114.473 162.743 117.1 166.89 119.64C170.861 122.072 174.612 124.37 178.916 124.37C182.474 124.37 185.656 122.61 188.734 120.907C189.324 120.581 189.908 120.258 190.487 119.953C190.517 119.936 190.544 119.945 190.561 119.955C190.578 119.966 190.596 119.985 190.595 120.03C190.595 121.048 191.049 121.96 191.762 122.581C191.813 123.797 192.342 124.803 193.101 125.242L177.275 144.672C177.271 144.677 177.27 144.684 177.266 144.689C177.259 144.698 177.252 144.706 177.246 144.715C177.246 144.715 177.246 144.715 177.246 144.715C177.236 144.733 177.23 144.752 177.223 144.771C177.219 144.782 177.215 144.793 177.212 144.805C177.21 144.812 177.21 144.819 177.209 144.826C177.207 144.837 177.205 144.847 177.205 144.857C177.204 144.866 177.201 144.874 177.201 144.883V163.854C177.201 163.975 177.265 164.086 177.37 164.146L193.796 173.63C193.804 173.634 193.813 173.636 193.821 173.64C193.83 173.644 193.839 173.647 193.849 173.651C193.886 173.665 193.925 173.674 193.965 173.674C194.004 173.674 194.043 173.665 194.081 173.651C194.09 173.647 194.099 173.644 194.108 173.64C194.117 173.636 194.125 173.634 194.133 173.63L210.563 164.146C210.668 164.086 210.731 163.975 210.731 163.854V144.883C210.731 144.874 210.729 144.866 210.728 144.857C210.727 144.847 210.726 144.837 210.724 144.826C210.722 144.814 210.721 144.802 210.718 144.791C210.718 144.79 210.717 144.789 210.717 144.788C210.71 144.763 210.7 144.738 210.687 144.715C210.687 144.715 210.687 144.715 210.687 144.715C210.68 144.703 210.67 144.693 210.661 144.681C210.658 144.678 210.658 144.675 210.656 144.672L194.831 125.242C195.583 124.808 196.111 123.814 196.169 122.612C196.901 121.99 197.369 121.064 197.369 120.03C197.369 118.157 196.365 116.486 194.81 115.772C193.926 115.367 192.859 115.249 191.727 115.433C189.892 115.727 188.247 116.62 186.658 117.484C186.233 117.714 185.811 117.943 185.389 118.16C183.819 118.963 181.442 120.03 178.921 120.03C176.56 120.03 173.414 117.614 169.772 114.817C164.813 111.009 159.192 106.693 153.33 106.693C149.2 106.693 147.18 107.743 146.285 108.454V102.087H146.413C147.031 102.087 147.534 101.585 147.534 100.967C147.534 100.349 147.031 99.8463 146.413 99.8463H145.571V95.7811H145.962C146.58 95.7811 147.083 95.2787 147.083 94.661C147.083 94.2656 146.876 93.9194 146.566 93.7199C147.853 92.6741 148.68 91.0833 148.68 89.2993C148.68 88.9723 148.645 88.6543 148.592 88.3424C150.642 86.2519 152.34 83.8424 153.51 81.2395C154.599 78.8294 155.223 76.324 155.42 73.7948C170.056 79.2611 183.316 90.9268 186.47 104.894C186.761 106.325 187.175 108.132 187.506 109.753C183.918 104.189 178.529 105.22 178.468 105.233C178.286 105.271 178.169 105.449 178.207 105.631C178.245 105.812 178.422 105.932 178.604 105.892C178.854 105.842 184.791 104.726 188.009 112.124C188.063 112.249 188.185 112.326 188.317 112.326C188.339 112.326 188.363 112.324 188.385 112.319C188.541 112.287 188.653 112.15 188.654 111.99C188.671 103.922 194.561 102.591 194.812 102.538C194.994 102.5 195.11 102.321 195.072 102.14C195.034 101.958 194.856 101.841 194.675 101.879C194.606 101.893 192.968 102.244 191.317 103.673C190.095 104.731 188.686 106.568 188.178 109.591C187.83 107.976 187.396 106.176 187.08 104.72C183.771 89.5668 170.599 78.2308 155.478 72.7803C155.573 69.9203 155.129 67.0418 154.199 64.2474C152.207 58.2811 149.419 52.5382 148.052 46.5625C147.031 42.7392 147.064 39.3005 147.175 35.2595L138.691 35.2457V18.4043H130.278V35.2591H121.865V35.2598H121.854V43.6716H121.865V43.6722H130.278V35.2591H138.691V35.2457C138.807 37.3856 138.832 39.6608 139.228 41.9815C140.409 48.5642 143.512 54.8895 146.608 60.6017C148.508 64.1226 150.444 67.4573 151.054 71.3685C142.736 69.0519 134.073 68.5048 126.308 70.0546C121.044 71.2012 115.688 73.6602 112.517 78.2224C108.945 83.5911 111.207 89.9346 116.469 93.1112C122.068 96.4991 129.488 96.7723 135.77 95.5395C136.82 95.3208 137.858 95.0187 138.877 94.6495C138.877 94.6532 138.876 94.6569 138.876 94.661C138.876 95.2787 139.378 95.7811 139.996 95.7811H140.43V99.845H139.541C138.923 99.845 138.421 100.348 138.421 100.966C138.421 101.584 138.923 102.086 139.541 102.086H139.719V108.452C138.824 107.742 136.804 106.691 132.674 106.691C126.812 106.691 121.191 111.008 116.232 114.816C112.59 117.613 109.444 120.029 107.082 120.029C104.586 120.029 102.315 119.029 100.615 118.158C100.192 117.942 99.7701 117.713 99.3462 117.483C97.756 116.619 96.112 115.726 94.2773 115.432C93.1434 115.249 92.0774 115.366 91.1932 115.77C89.6397 116.484 88.6357 118.156 88.6357 120.029C88.6357 121.063 89.1027 121.989 89.8355 122.611C89.8934 123.813 90.4213 124.806 91.1737 125.241L75.3484 144.671C75.3444 144.676 75.3434 144.682 75.3397 144.687C75.333 144.696 75.3249 144.704 75.3192 144.714C75.3192 144.714 75.3192 144.714 75.3192 144.714C75.3087 144.733 75.302 144.752 75.2949 144.772C75.2922 144.78 75.2879 144.787 75.2859 144.796C75.2832 144.805 75.2835 144.816 75.2818 144.825C75.2801 144.836 75.2785 144.846 75.2778 144.856C75.2771 144.865 75.2744 144.873 75.2744 144.882V163.853C75.2744 163.974 75.3383 164.085 75.4426 164.145L91.8695 173.629C91.8772 173.633 91.8863 173.635 91.8944 173.639C91.9035 173.643 91.9126 173.646 91.9223 173.65C91.9597 173.664 91.9987 173.673 92.0381 173.673C92.0774 173.673 92.1161 173.664 92.1538 173.65C92.1632 173.646 92.1723 173.643 92.1817 173.639C92.1898 173.635 92.1986 173.633 92.2066 173.629L108.636 164.145C108.74 164.085 108.804 163.974 108.804 163.853V144.882C108.804 144.873 108.802 144.865 108.801 144.856C108.8 144.846 108.799 144.836 108.797 144.825C108.795 144.813 108.794 144.801 108.791 144.79C108.791 144.789 108.79 144.788 108.79 144.787C108.783 144.762 108.773 144.737 108.76 144.714C108.76 144.714 108.76 144.714 108.76 144.714C108.753 144.702 108.742 144.692 108.734 144.68C108.731 144.677 108.731 144.674 108.729 144.671L92.9035 125.241C93.6622 124.802 94.1921 123.795 94.2423 122.579C94.9549 121.956 95.4081 121.042 95.4081 120.018C95.4071 119.984 95.4266 119.965 95.4428 119.955C95.4596 119.944 95.4855 119.935 95.5165 119.951C96.0956 120.257 96.679 120.58 97.2688 120.906C100.347 122.609 103.529 124.369 107.088 124.369C111.392 124.369 115.142 122.072 119.114 119.639C123.26 117.099 127.547 114.473 132.691 114.473C132.739 114.471 137.098 114.341 139.72 116.851V171.434H139.542C138.925 171.434 138.422 171.937 138.422 172.555C138.422 173.173 138.925 173.675 139.542 173.675H139.698C139.588 175.003 139.003 179.874 136.224 182.653C134.744 183.961 134.322 185.215 134.203 185.846C134.154 186.105 134.222 186.362 134.37 186.563L119.626 198.084C118.754 198.764 118.254 199.789 118.254 200.897C118.254 202.589 119.456 204.06 121.112 204.395C123.848 204.95 128.211 205.735 133.178 206.258C132.862 206.826 132.565 207.401 132.301 207.989C131.211 210.399 130.587 212.905 130.39 215.434C115.755 209.968 102.495 198.302 99.3408 184.334C99.0491 182.903 98.6349 181.097 98.3048 179.476C101.892 185.039 107.282 184.007 107.343 183.996C107.524 183.958 107.641 183.78 107.604 183.598C107.567 183.417 107.391 183.3 107.206 183.336C106.956 183.388 101.019 184.503 97.8021 177.105C97.7389 176.959 97.5821 176.876 97.4256 176.91C97.2695 176.942 97.1575 177.079 97.1571 177.239C97.1393 185.307 91.249 186.639 90.9984 186.691C90.8167 186.729 90.6999 186.908 90.7379 187.089C90.7712 187.248 90.9109 187.357 91.067 187.357C91.0895 187.357 91.1124 187.355 91.1353 187.35C91.2043 187.336 92.8419 186.985 94.4936 185.555C95.7153 184.498 97.1245 182.661 97.6325 179.638C97.9805 181.252 98.4145 183.053 98.7311 184.509C102.039 199.662 115.212 210.998 130.332 216.449C130.238 219.309 130.681 222.187 131.611 224.981C133.604 230.948 136.391 236.691 137.759 242.667C138.78 246.49 138.747 249.929 138.636 253.97L147.1 253.984V262.396H147.1V270.808H155.512V262.396H155.513V253.983H163.926V253.982H163.936V245.57H163.926L163.922 245.57ZM193.627 172.755L177.874 163.66V145.466L193.627 154.565V172.755ZM193.628 153.788L178.21 144.883L193.628 135.982V153.788ZM193.628 135.204L178.952 143.677L193.628 125.66V135.204ZM210.057 163.66L194.3 172.755V154.565L210.057 145.466V163.66ZM194.301 153.787V135.982L209.721 144.883L194.301 153.787ZM208.975 143.676L194.301 135.205V125.66L208.975 143.676ZM194.392 124.705L194.225 124.501C194.216 124.489 194.203 124.482 194.192 124.472C194.186 124.466 194.183 124.458 194.177 124.453C194.173 124.45 194.168 124.449 194.163 124.446C194.134 124.424 194.102 124.407 194.067 124.396C194.064 124.394 194.06 124.392 194.057 124.391C194.019 124.379 193.979 124.377 193.939 124.38C193.928 124.381 193.918 124.384 193.907 124.386C193.888 124.39 193.87 124.39 193.851 124.397C193.842 124.4 193.835 124.407 193.826 124.411C193.813 124.417 193.802 124.423 193.79 124.431C193.764 124.446 193.742 124.465 193.722 124.486C193.716 124.492 193.708 124.495 193.703 124.502L193.537 124.705C193.041 124.471 192.642 123.845 192.492 123.068C192.942 123.289 193.446 123.417 193.981 123.417C194.501 123.417 194.993 123.295 195.434 123.084C195.282 123.854 194.884 124.473 194.392 124.705ZM146.286 109.377C146.585 109.018 148.241 107.365 153.328 107.365C158.961 107.365 164.486 111.607 169.36 115.35C173.1 118.222 176.33 120.702 178.919 120.702C181.585 120.702 184.062 119.592 185.693 118.758C186.121 118.54 186.548 118.307 186.977 118.075C188.517 117.238 190.11 116.373 191.832 116.097C192.531 115.984 193.566 115.942 194.528 116.383C195.824 116.978 196.695 118.444 196.695 120.03C196.695 120.658 196.478 121.235 196.119 121.695C196.067 121.369 195.979 121.065 195.86 120.789C195.976 120.531 196.042 120.245 196.042 119.944C196.042 118.799 195.11 117.867 193.965 117.867C192.819 117.867 191.887 118.799 191.887 119.944C191.887 121.089 192.819 122.021 193.965 122.021C194.512 122.021 195.007 121.808 195.379 121.462C195.449 121.716 195.489 121.992 195.498 122.279C195.065 122.572 194.542 122.744 193.981 122.744C193.374 122.744 192.815 122.541 192.363 122.204C192.324 122.148 192.272 122.103 192.206 122.079C191.633 121.582 191.268 120.852 191.268 120.041C191.276 119.773 191.146 119.529 190.918 119.386C190.691 119.244 190.413 119.232 190.173 119.358C189.59 119.665 189.002 119.991 188.408 120.319C185.406 121.98 182.301 123.697 178.916 123.697C174.802 123.697 171.129 121.447 167.241 119.066C163.015 116.478 158.645 113.801 153.337 113.801C153.316 113.8 153.245 113.798 153.13 113.798C152.243 113.798 148.789 113.934 146.287 115.953V109.377H146.286ZM193.965 119.305C193.446 119.305 192.955 119.558 192.566 120.001C192.565 119.981 192.56 119.964 192.56 119.944C192.56 119.17 193.19 118.54 193.965 118.54C194.739 118.54 195.369 119.17 195.369 119.944C195.369 119.959 195.365 119.972 195.364 119.987C194.986 119.559 194.501 119.305 193.965 119.305ZM195.092 120.773C194.836 121.12 194.428 121.348 193.965 121.348C193.5 121.348 193.091 121.119 192.836 120.771C193.127 120.272 193.539 119.978 193.965 119.978C194.405 119.978 194.808 120.289 195.092 120.773ZM91.6989 172.755L75.945 163.66V145.466L91.6989 154.565V172.755ZM91.6996 153.788L76.2811 144.883L91.6996 135.982V153.788ZM91.6996 135.204L77.0244 143.677L91.6996 125.66V135.204ZM108.129 163.66L92.3722 172.755V154.565L108.129 145.466V163.66ZM92.3725 153.787V135.982L107.792 144.883L92.3725 153.787ZM107.046 143.676L92.3725 135.205V125.66L107.046 143.676ZM92.4634 124.705L92.2971 124.501C92.2877 124.489 92.2753 124.482 92.2642 124.472C92.2581 124.466 92.2554 124.458 92.2487 124.453C92.2446 124.45 92.2396 124.449 92.2352 124.446C92.2056 124.424 92.1733 124.407 92.1387 124.395C92.135 124.394 92.1319 124.392 92.1282 124.391C92.0902 124.379 92.0505 124.377 92.0105 124.38C91.9997 124.381 91.9896 124.384 91.9785 124.386C91.96 124.39 91.9411 124.39 91.923 124.397C91.9136 124.4 91.9062 124.407 91.8971 124.411C91.8846 124.417 91.8732 124.423 91.8614 124.431C91.8358 124.446 91.8133 124.465 91.7931 124.486C91.7874 124.492 91.7796 124.495 91.7746 124.502L91.608 124.706C91.1158 124.473 90.7181 123.855 90.5657 123.084C91.0068 123.295 91.498 123.417 92.0185 123.417C92.5532 123.417 93.0572 123.289 93.5074 123.067C93.3584 123.845 92.9593 124.471 92.4634 124.705ZM139.714 115.951C136.887 113.672 132.843 113.795 132.676 113.8C127.355 113.8 122.985 116.477 118.759 119.065C114.871 121.447 111.199 123.696 107.085 123.696C103.7 123.696 100.595 121.979 97.5915 120.318C96.998 119.989 96.4105 119.665 95.827 119.357C95.7167 119.299 95.5972 119.27 95.4788 119.27C95.3419 119.27 95.2053 119.308 95.0828 119.385C94.8553 119.528 94.7248 119.772 94.7328 120.03C94.7328 120.848 94.3674 121.581 93.7931 122.079C93.7292 122.103 93.6784 122.146 93.6397 122.201C93.1871 122.54 92.6272 122.743 92.0199 122.743C91.4586 122.743 90.9361 122.572 90.5031 122.278C90.5122 121.991 90.5525 121.716 90.6225 121.461C90.9936 121.807 91.4899 122.021 92.0364 122.021C93.1814 122.021 94.1134 121.089 94.1134 119.944C94.1134 118.798 93.1814 117.866 92.0364 117.866C90.8907 117.866 89.9587 118.798 89.9587 119.944C89.9587 120.245 90.0246 120.531 90.1407 120.789C90.0229 121.065 89.9348 121.369 89.8826 121.695C89.5236 121.234 89.3073 120.657 89.3073 120.03C89.3073 118.443 90.1774 116.978 91.4721 116.383C92.4354 115.942 93.4701 115.984 94.1693 116.097C95.891 116.373 97.4838 117.238 99.0242 118.074C99.4529 118.307 99.8802 118.539 100.307 118.758C102.075 119.663 104.441 120.702 107.081 120.702C109.671 120.702 112.901 118.222 116.641 115.35C121.515 111.607 127.04 107.364 132.673 107.364C137.768 107.364 139.421 109.023 139.715 109.376V115.951H139.714ZM92.0357 119.305C91.4997 119.305 91.0142 119.559 90.6353 119.987C90.635 119.973 90.6309 119.959 90.6309 119.944C90.6309 119.17 91.2611 118.54 92.0357 118.54C92.8099 118.54 93.4398 119.17 93.4398 119.944C93.4398 119.964 93.4347 119.981 93.4341 120.001C93.0458 119.558 92.5552 119.305 92.0357 119.305ZM93.1646 120.771C92.9088 121.119 92.4997 121.348 92.036 121.348C91.573 121.348 91.1649 121.12 90.9089 120.773C91.1922 120.289 91.5953 119.978 92.036 119.978C92.4613 119.978 92.8732 120.272 93.1646 120.771ZM145.667 93.5402H140.286C138.883 92.6479 137.948 91.0823 137.948 89.2993C137.948 87.7788 138.63 86.4181 139.7 85.4959C139.794 85.5218 139.892 85.5399 139.994 85.5399H145.96C146.062 85.5399 146.159 85.5218 146.254 85.4959C147.324 86.4181 148.005 87.7788 148.005 89.2993C148.005 91.0819 147.071 92.6479 145.667 93.5402ZM145.96 83.9716C146.207 83.9716 146.408 84.1725 146.408 84.4192C146.408 84.6661 146.207 84.867 145.96 84.867H139.994C139.748 84.867 139.547 84.6661 139.547 84.4192C139.547 84.1725 139.748 83.9716 139.994 83.9716H145.96ZM140.752 81.8583C140.752 80.6315 141.751 79.6335 142.977 79.6335C144.204 79.6335 145.201 80.6315 145.201 81.8583C145.201 82.4084 144.999 82.9104 144.667 83.2987H141.287C140.954 82.9104 140.752 82.4084 140.752 81.8583ZM135.166 92.909C131.26 93.8349 127.084 93.9729 123.141 93.2673C117.459 92.3323 111.429 88.2297 112.845 81.7849C113.296 79.8808 114.415 78.2345 115.844 76.8762C123.384 69.7904 135.479 69.4745 145.208 71.0535C147.192 71.3762 149.188 71.8267 151.173 72.3947C151.583 77.0293 149.97 81.7059 147.048 85.3243C146.978 85.2523 146.911 85.1769 146.837 85.1086C146.987 84.9178 147.081 84.6803 147.081 84.4188C147.081 83.8011 146.578 83.2984 145.96 83.2984H145.485C145.731 82.8737 145.874 82.3828 145.874 81.8579C145.874 80.26 144.575 78.9603 142.977 78.9603C141.379 78.9603 140.079 80.26 140.079 81.8579C140.079 82.3832 140.223 82.8737 140.468 83.2984H139.994C139.376 83.2984 138.874 83.8011 138.874 84.4188C138.874 84.6799 138.967 84.9175 139.118 85.1079C137.986 86.1506 137.276 87.6429 137.276 89.299C137.276 90.2822 137.528 91.2061 137.969 92.0133C137.061 92.377 136.127 92.6819 135.166 92.909ZM139.994 95.1082C139.748 95.1082 139.547 94.9073 139.547 94.661C139.547 94.414 139.748 94.2131 139.994 94.2131H145.96C146.207 94.2131 146.408 94.414 146.408 94.661C146.408 94.9073 146.207 95.1082 145.96 95.1082H139.994ZM144.896 95.7811V99.845H141.101V95.7811H144.896ZM139.539 101.413C139.292 101.413 139.091 101.212 139.091 100.966C139.091 100.719 139.292 100.518 139.539 100.518H146.411C146.658 100.518 146.859 100.719 146.859 100.966C146.859 101.212 146.658 101.413 146.411 101.413H139.539ZM140.39 116.718V102.086H145.61V171.435H140.39V116.726C140.39 116.726 140.39 116.725 140.39 116.725C140.39 116.723 140.39 116.721 140.39 116.718ZM139.539 173.003C139.292 173.003 139.091 172.802 139.091 172.555C139.091 172.309 139.292 172.108 139.539 172.108H146.411C146.658 172.108 146.859 172.309 146.859 172.555C146.859 172.802 146.658 173.003 146.411 173.003H139.539ZM134.86 185.971C134.964 185.425 135.336 184.333 136.681 183.144C139.706 180.12 140.272 175.01 140.371 173.676H145.63C145.728 175.01 146.297 180.121 149.335 183.158C150.675 184.342 151.041 185.428 151.14 185.971C151.162 186.091 151.093 186.211 150.976 186.256C150.278 186.521 148.103 187.138 143 187.138C137.898 187.138 135.722 186.521 135.025 186.256C134.907 186.211 134.838 186.091 134.86 185.971ZM118.924 200.898C118.924 199.998 119.329 199.166 120.037 198.615L134.966 186.949C135.981 187.298 138.277 187.811 143.001 187.811C147.722 187.811 150.018 187.299 151.034 186.95L165.962 198.614C166.67 199.169 167.076 200.001 167.076 200.898C167.076 202.27 166.101 203.464 164.758 203.737C160.324 204.635 151.601 206.141 143 206.141C134.391 206.141 125.673 204.635 121.242 203.737C119.898 203.464 118.924 202.27 118.924 200.898ZM136.939 206.591C138.927 206.73 140.966 206.814 143 206.814C151.66 206.814 160.433 205.299 164.891 204.396C166.547 204.061 167.748 202.589 167.748 200.898C167.748 199.793 167.249 198.768 166.377 198.084L164.027 196.249C169.26 197.57 174.262 201.514 172.959 207.444C172.508 209.348 171.389 210.994 169.96 212.353C162.421 219.438 150.325 219.754 140.596 218.175C138.612 217.853 136.616 217.402 134.631 216.834C134.317 213.278 135.197 209.7 136.939 206.591Z" fill="white"/>
</svg>
