<svg width="496" height="496" viewBox="0 0 496 496" fill="none" xmlns="http://www.w3.org/2000/svg">
<path d="M156.13 227.812H147.945V235.997H156.13V227.812Z" fill="white"/>
<path d="M269.15 147.973H260.965V156.158H269.15V147.973Z" fill="white"/>
<path d="M349.099 227.812H340.914V235.997H349.099V227.812Z" fill="white"/>
<path d="M236.408 147.973H228.223V156.158H236.408V147.973Z" fill="white"/>
<path d="M460.617 183.558V176.271C460.617 170.362 465.424 165.554 471.334 165.554H473.75C473.97 165.596 474.236 165.648 474.601 165.705C476.063 165.935 477.775 166.003 477.775 166.003C479.315 166.112 480.824 166.29 482.254 166.483C484.331 166.775 488.111 167.872 489.228 168.2C489.249 168.206 489.27 168.206 489.29 168.211C489.63 174.272 490.924 174.548 491.091 174.559H491.133C491.164 174.553 494.25 173.906 494.25 170.247C494.25 168.336 494.902 166.984 495.455 166.191C495.941 165.491 495.941 164.552 495.455 163.852C494.907 163.059 494.25 161.712 494.25 159.796C494.25 156.137 491.164 155.494 491.133 155.489H491.091C490.924 155.5 489.63 155.776 489.29 161.827C489.254 161.837 489.223 161.842 489.186 161.853C488.142 162.197 485.553 163.017 484.086 163.267C482.071 163.586 479.947 163.883 477.77 164.035C477.77 164.035 476.058 164.092 474.596 164.322C474.178 164.39 473.891 164.447 473.651 164.494H471.328C466.568 164.494 462.46 167.339 460.612 171.421V152.394C460.612 146.484 465.419 141.677 471.328 141.677H473.745C473.964 141.718 474.231 141.771 474.596 141.828C476.058 142.058 477.77 142.126 477.77 142.126C479.31 142.235 480.818 142.413 482.249 142.606C484.326 142.898 488.106 143.994 489.223 144.323C489.244 144.328 489.264 144.328 489.285 144.334C489.625 150.394 490.919 150.671 491.086 150.681H491.128C491.159 150.676 494.244 150.029 494.244 146.37C494.244 144.459 494.897 143.107 495.45 142.313C495.936 141.614 495.936 140.674 495.45 139.975C494.902 139.181 494.244 137.835 494.244 135.919C494.244 132.259 491.159 131.617 491.128 131.612H491.086C490.919 131.623 489.625 131.899 489.285 137.949C489.249 137.96 489.217 137.965 489.181 137.975C488.137 138.32 485.548 139.14 484.081 139.39C482.066 139.709 479.941 140.006 477.765 140.158C477.765 140.158 476.052 140.215 474.591 140.445C474.173 140.512 473.886 140.57 473.646 140.617H471.323C464.84 140.617 459.562 145.895 459.562 152.378V183.527C459.562 189.436 454.755 194.244 448.846 194.244H442.978C442.723 192.391 441.141 190.966 439.22 190.966C438.969 190.966 438.724 190.992 438.489 191.039C437.978 189.541 436.563 188.465 434.893 188.465C432.794 188.465 431.092 190.167 431.092 192.266C431.092 192.516 431.118 192.761 431.165 193.002H428.555V192.354C428.555 192.01 428.279 191.733 427.934 191.733C427.59 191.733 427.313 192.01 427.313 192.354V193.002H413.219V189.89H411.7V191.707H410.186V189.89H408.672V191.707H407.159V189.89H405.639V193.002H405.097C404.303 193.002 403.64 193.529 403.416 194.244H390.094C377.467 194.244 365.868 189.598 357.427 181.157C351.957 175.686 348.971 168.409 349.023 160.673C349.075 152.963 352.134 145.759 357.641 140.372L370.389 127.394C371.025 127.645 371.777 127.519 372.289 127.003L388.001 111.29L388.46 111.749C388.706 111.995 389.097 111.995 389.343 111.749C389.588 111.504 389.588 111.112 389.343 110.867L388.883 110.408L390.726 108.565C390.862 108.763 391.018 108.962 391.196 109.139C392.678 110.622 395.079 110.622 396.567 109.139C397.747 107.959 397.992 106.195 397.293 104.775C397.491 104.639 397.684 104.483 397.862 104.305C399.219 102.948 399.334 100.818 398.201 99.3304L402.351 95.1803C406.532 91.0042 413.329 91.0042 417.505 95.1803L439.528 117.204C441.752 119.428 444.701 120.65 447.843 120.65C450.986 120.65 453.935 119.428 456.159 117.204L457.866 115.497C458.054 115.372 458.273 115.221 458.576 115.001C459.771 114.13 461.029 112.966 461.029 112.966C462.199 111.953 463.389 111.013 464.537 110.136C466.207 108.873 469.663 106.973 470.681 106.419C470.702 106.409 470.718 106.393 470.733 106.383C475.259 110.429 476.371 109.713 476.496 109.599L476.512 109.583L476.528 109.567C476.543 109.541 478.271 106.905 475.682 104.316C474.33 102.964 473.839 101.549 473.667 100.599C473.516 99.7636 472.853 99.0955 472.012 98.9441C471.062 98.7718 469.648 98.2811 468.296 96.9291C465.706 94.3399 463.07 96.0677 463.049 96.0886L463.034 96.1043L463.018 96.1199C462.903 96.2452 462.188 97.3519 466.228 101.873C466.213 101.904 466.192 101.935 466.176 101.967C465.68 102.948 464.433 105.36 463.571 106.571C462.371 108.22 461.081 109.933 459.646 111.577C459.646 111.577 458.477 112.83 457.605 114.025C457.354 114.37 457.193 114.61 457.062 114.819L455.418 116.463C453.392 118.488 450.704 119.6 447.838 119.6C444.972 119.6 442.284 118.483 440.259 116.463L426.796 103C428.138 103.507 429.552 103.773 430.967 103.773C433.979 103.773 436.991 102.624 439.283 100.333L440.99 98.6256C441.177 98.5004 441.397 98.349 441.699 98.1297C442.895 97.258 444.153 96.0938 444.153 96.0938C445.322 95.0811 446.512 94.1415 447.661 93.2645C449.336 92.0012 452.787 90.1011 453.805 89.5477C453.826 89.5373 453.841 89.5216 453.857 89.5112C458.383 93.5568 459.495 92.8417 459.62 92.7268L459.635 92.7112L459.651 92.6955C459.667 92.6694 461.395 90.0332 458.806 87.444C457.454 86.0919 456.963 84.6773 456.791 83.7272C456.639 82.892 455.976 82.2238 455.136 82.0724C454.186 81.9001 452.771 81.4094 451.419 80.0574C448.83 77.4682 446.194 79.1961 446.173 79.217L446.157 79.2326L446.142 79.2483C446.027 79.3736 445.312 80.4802 449.352 85.0009C449.336 85.0322 449.315 85.0636 449.3 85.0949C448.804 86.0763 447.556 88.488 446.695 89.6991C445.494 91.3487 444.205 93.0609 442.77 94.7053C442.77 94.7053 441.6 95.9581 440.729 97.1535C440.478 97.4981 440.316 97.7382 440.186 97.9418L438.541 99.5862C434.36 103.762 427.564 103.762 423.388 99.5862L418.235 94.4338C414.503 90.7014 408.871 90.0071 404.428 92.351C405.316 90.6805 405.786 88.8065 405.786 86.8593C405.786 83.7168 404.564 80.7621 402.34 78.5435L397.183 73.386C393.007 69.2046 393.007 62.4131 397.183 58.2318L398.89 56.5248C399.078 56.3995 399.297 56.2481 399.6 56.0288C400.795 55.1571 402.053 53.993 402.053 53.993C403.223 52.9802 404.413 52.0406 405.561 51.1636C407.232 49.9003 410.687 48.0002 411.705 47.4468C411.726 47.4364 411.742 47.4207 411.757 47.4103C416.283 51.4559 417.395 50.7408 417.52 50.6259L417.536 50.6103L417.552 50.5946C417.567 50.5685 419.295 47.9323 416.706 45.3431C415.354 43.9911 414.863 42.5764 414.691 41.6263C414.54 40.7911 413.877 40.1229 413.036 39.9715C412.086 39.7992 410.672 39.3085 409.32 37.9565C406.73 35.3673 404.094 37.0952 404.073 37.1161L404.058 37.1317L404.042 37.1474C403.927 37.2727 403.212 38.3793 407.252 42.9C407.237 42.9314 407.216 42.9627 407.2 42.994C406.704 43.9754 405.457 46.3871 404.595 47.5982C403.395 49.2478 402.105 50.96 400.67 52.6044C400.67 52.6044 399.501 53.8572 398.629 55.0527C398.378 55.3972 398.217 55.6373 398.086 55.8461L396.442 57.4905C393.07 60.8627 392.187 65.7854 393.774 69.9772L380.312 56.5143C378.286 54.4889 377.175 51.8005 377.175 48.9346C377.175 46.0687 378.292 43.3803 380.312 41.3549L382.019 39.6479C382.207 39.5226 382.426 39.3712 382.729 39.1519C383.924 38.2802 385.182 37.1161 385.182 37.1161C386.351 36.1033 387.542 35.1637 388.69 34.2867C390.366 33.0234 393.816 31.1233 394.834 30.5699C394.855 30.5595 394.871 30.5438 394.886 30.5334C399.412 34.579 400.524 33.8639 400.649 33.749L400.665 33.7334L400.68 33.7177C400.696 33.6916 402.424 31.0554 399.835 28.4662C398.483 27.1142 397.992 25.6995 397.82 24.7494C397.668 23.9142 397.006 23.246 396.165 23.0946C395.215 22.9223 393.8 22.4316 392.448 21.0796C389.859 18.4904 387.223 20.2183 387.202 20.2392L387.187 20.2548L387.171 20.2705C387.056 20.3958 386.341 21.5024 390.381 26.0231C390.366 26.0545 390.345 26.0858 390.329 26.1171C389.833 27.0985 388.586 29.5102 387.724 30.7213C386.524 32.3709 385.234 34.0831 383.799 35.7275C383.799 35.7275 382.63 36.9803 381.758 38.1758C381.507 38.5203 381.345 38.7604 381.215 38.964L379.571 40.6084C377.347 42.827 376.125 45.7816 376.125 48.9241C376.125 52.0667 377.347 55.0161 379.571 57.2399L396.442 74.1116L401.594 79.2639C403.619 81.2894 404.731 83.9778 404.731 86.8437C404.731 89.7095 403.614 92.3979 401.594 94.4234L397.444 98.5734C395.956 97.4459 393.827 97.5555 392.469 98.9128C392.292 99.0902 392.14 99.2834 392.005 99.4818C390.585 98.7822 388.821 99.0224 387.641 100.202C386.158 101.685 386.158 104.091 387.641 105.574C387.818 105.751 388.011 105.908 388.215 106.044L386.372 107.886L385.913 107.427C385.668 107.182 385.276 107.182 385.031 107.427C384.785 107.672 384.785 108.064 385.031 108.309L385.49 108.768L375.52 118.739L373.322 116.541L372.247 117.617L373.531 118.901L372.461 119.971L371.177 118.687L370.107 119.757L371.391 121.041L370.321 122.111L369.037 120.827L367.961 121.903L370.159 124.1L369.773 124.486C369.167 125.092 369.094 126.032 369.553 126.716L356.937 139.557C356.905 139.589 356.879 139.62 356.848 139.646L356.816 139.677C351.429 145.164 344.21 148.212 336.49 148.264C328.79 148.327 321.508 145.362 316.043 139.949C307.331 131.309 302.533 119.82 302.533 107.604V93.3532C303.249 93.1288 303.765 92.4658 303.765 91.6776V91.1347H306.876V89.6156H305.06V88.1017H306.876V86.5879H305.06V85.074H306.876V83.5549H303.765V69.4604H304.413C304.757 69.4604 305.034 69.1837 305.034 68.8392C305.034 68.4947 304.757 68.218 304.413 68.218H303.765V65.6079C304.005 65.6549 304.251 65.681 304.501 65.681C306.6 65.681 308.302 63.9844 308.302 61.8807C308.302 60.2102 307.226 58.7955 305.728 58.284C305.775 58.0491 305.801 57.8037 305.801 57.5531C305.801 55.6321 304.376 54.0504 302.523 53.7946V47.9271C302.523 42.0178 307.331 37.21 313.24 37.21H344.388C350.871 37.21 356.148 31.9324 356.148 25.4489V23.1259C356.201 22.8858 356.258 22.6039 356.321 22.1811C356.55 20.7194 356.608 19.0072 356.608 19.0072C356.759 16.8304 357.057 14.7058 357.375 12.6908C357.626 11.2239 358.445 8.63466 358.79 7.59062C358.8 7.55408 358.811 7.52276 358.816 7.48622C364.866 7.14691 365.142 5.85752 365.153 5.68525V5.64349C365.153 5.61217 364.506 2.52703 360.846 2.52703C358.936 2.52703 357.584 1.87451 356.79 1.32117C356.091 0.835688 355.151 0.835688 354.452 1.32117C353.658 1.86929 352.312 2.52703 350.396 2.52703C346.737 2.52703 346.095 5.61217 346.084 5.64349V5.68525C346.095 5.8523 346.371 7.14691 352.432 7.48622C352.437 7.5071 352.437 7.52798 352.442 7.54886C352.776 8.66076 353.872 12.4454 354.159 14.523C354.353 15.9534 354.53 17.462 354.64 19.002C354.64 19.002 354.708 20.7142 354.937 22.1759C354.995 22.5413 355.047 22.8075 355.089 23.0267V25.4437C355.089 31.353 350.281 36.1608 344.372 36.1608H325.345C329.422 34.3128 332.272 30.2045 332.272 25.4437V23.1207C332.324 22.8806 332.382 22.5987 332.444 22.1759C332.674 20.7142 332.731 19.002 332.731 19.002C332.883 16.8252 333.18 14.7005 333.499 12.6855C333.749 11.2187 334.569 8.62944 334.913 7.5854C334.924 7.54886 334.934 7.51754 334.939 7.481C340.989 7.14169 341.266 5.8523 341.276 5.68003V5.63827C341.276 5.60695 340.629 2.52181 336.97 2.52181C335.059 2.52181 333.707 1.86929 332.914 1.31595C332.215 0.830468 331.275 0.830468 330.575 1.31595C329.782 1.86407 328.435 2.52181 326.519 2.52181C322.86 2.52181 322.218 5.60695 322.208 5.63827V5.68003C322.218 5.84708 322.495 7.14169 328.555 7.481C328.56 7.50188 328.56 7.52276 328.566 7.54364C328.9 8.65554 329.996 12.4402 330.283 14.5178C330.476 15.9482 330.654 17.4568 330.763 18.9968C330.763 18.9968 330.831 20.709 331.061 22.1706C331.118 22.536 331.17 22.8023 331.212 23.0215V25.4385C331.212 31.3477 326.405 36.1555 320.496 36.1555H313.208C307.931 36.1555 303.452 39.6531 301.97 44.4504C300.487 39.6531 296.008 36.1555 290.731 36.1555H283.444C277.535 36.1555 272.727 31.3477 272.727 25.4385V23.1155C272.779 22.8754 272.837 22.5935 272.899 22.1706C273.129 20.709 273.186 18.9968 273.186 18.9968C273.338 16.8199 273.635 14.6953 273.954 12.6803C274.204 11.2134 275.024 8.62422 275.368 7.58018C275.379 7.54364 275.389 7.51232 275.394 7.47578C281.444 7.13647 281.721 5.84708 281.732 5.67481V5.63305C281.732 5.60173 281.084 2.51659 277.425 2.51659C275.514 2.51659 274.163 1.86407 273.369 1.31073C272.67 0.825248 271.73 0.825248 271.03 1.31073C270.237 1.85885 268.89 2.51659 266.975 2.51659C263.315 2.51659 262.673 5.60173 262.663 5.63305V5.67481C262.673 5.84186 262.95 7.13647 269.01 7.47578C269.016 7.49666 269.016 7.51754 269.021 7.53842C269.355 8.65032 270.451 12.435 270.738 14.5126C270.931 15.9429 271.109 17.4516 271.218 18.9915C271.218 18.9915 271.286 20.7038 271.516 22.1654C271.573 22.5308 271.626 22.7971 271.667 23.0163V25.4333C271.667 30.1941 274.512 34.3024 278.594 36.1503H259.567C253.695 36.1503 248.913 31.3999 248.856 25.5377C248.856 25.5011 248.856 25.4698 248.856 25.4333V23.0737C248.903 22.844 248.96 22.5674 249.023 22.1706C249.253 20.709 249.31 18.9968 249.31 18.9968C249.341 18.5791 249.378 18.1615 249.414 17.7491C249.43 17.5925 249.44 17.4359 249.456 17.2793C249.581 16.0578 249.743 14.8624 249.921 13.693C250.328 11.5632 251.21 8.51982 251.502 7.54364C251.502 7.53842 251.502 7.5332 251.502 7.52276C251.502 7.5071 251.513 7.49144 251.513 7.47578C257.573 7.13647 257.85 5.84186 257.855 5.67481V5.63305C257.85 5.60173 257.203 2.51659 253.543 2.51659C251.633 2.51659 250.281 1.86407 249.487 1.31073C249.138 1.0706 248.725 0.945312 248.318 0.945312C247.906 0.945312 247.499 1.06538 247.149 1.31073C246.355 1.85885 245.009 2.51659 243.093 2.51659C239.434 2.51659 238.792 5.60173 238.781 5.63305V5.67481C238.792 5.84186 239.068 7.13647 245.123 7.47578C245.123 7.49144 245.134 7.5071 245.134 7.52276C245.134 7.52798 245.134 7.5332 245.134 7.54364C245.426 8.51982 246.308 11.5632 246.716 13.693C246.893 14.8624 247.055 16.0578 247.18 17.2793C247.196 17.4359 247.206 17.5925 247.222 17.7491C247.258 18.1615 247.3 18.5791 247.326 18.9968C247.326 18.9968 247.384 20.709 247.613 22.1706C247.676 22.5674 247.733 22.844 247.78 23.0789V25.4385C247.78 25.475 247.78 25.5063 247.78 25.5429C247.723 31.4052 242.941 36.1555 237.069 36.1555H218.042C222.119 34.3076 224.969 30.1993 224.969 25.4385V23.0215C225.011 22.8023 225.063 22.536 225.12 22.1706C225.35 20.709 225.418 18.9968 225.418 18.9968C225.527 17.4568 225.705 15.9482 225.898 14.5178C226.19 12.4402 227.287 8.66076 227.615 7.54364C227.621 7.52276 227.621 7.50188 227.626 7.481C233.686 7.14169 233.963 5.84708 233.973 5.68003V5.63827C233.968 5.60695 233.321 2.52181 229.662 2.52181C227.751 2.52181 226.399 1.86929 225.606 1.31595C224.906 0.830468 223.967 0.830468 223.267 1.31595C222.474 1.86407 221.127 2.52181 219.211 2.52181C215.552 2.52181 214.91 5.60695 214.905 5.63827V5.68003C214.915 5.84708 215.192 7.14169 221.242 7.481C221.252 7.51754 221.257 7.54886 221.268 7.5854C221.612 8.62944 222.432 11.2187 222.683 12.6855C223.001 14.7005 223.299 16.8252 223.45 19.002C223.45 19.002 223.507 20.7142 223.737 22.1759C223.805 22.5935 223.862 22.8806 223.909 23.1207V25.4437C223.909 31.353 219.102 36.1608 213.193 36.1608H205.905C200.628 36.1608 196.149 39.6583 194.667 44.4557C193.184 39.6583 188.705 36.1608 183.428 36.1608H176.141C170.232 36.1608 165.424 31.353 165.424 25.4437V23.0267C165.466 22.8075 165.518 22.5413 165.575 22.1759C165.805 20.7142 165.873 19.002 165.873 19.002C165.983 17.462 166.16 15.9534 166.353 14.523C166.645 12.4454 167.742 8.66598 168.071 7.54886C168.076 7.52798 168.076 7.5071 168.081 7.48622C174.141 7.14691 174.418 5.8523 174.429 5.68525V5.64349C174.423 5.61217 173.776 2.52703 170.117 2.52703C168.206 2.52703 166.854 1.87451 166.061 1.32117C165.361 0.835688 164.422 0.835688 163.722 1.32117C162.929 1.86929 161.582 2.52703 159.666 2.52703C156.007 2.52703 155.365 5.61217 155.36 5.64349V5.68525C155.37 5.8523 155.647 7.14691 161.697 7.48622C161.707 7.52276 161.713 7.55408 161.723 7.59062C162.068 8.63466 162.887 11.2239 163.138 12.6908C163.456 14.7058 163.754 16.8304 163.905 19.0072C163.905 19.0072 163.962 20.7194 164.192 22.1811C164.26 22.5987 164.317 22.8858 164.364 23.1259V25.4489C164.364 30.2097 167.209 34.318 171.291 36.166H152.264C146.355 36.166 141.548 31.3582 141.548 25.4489V23.032C141.589 22.8127 141.642 22.5465 141.699 22.1811C141.929 20.7194 141.996 19.0072 141.996 19.0072C142.106 17.4672 142.284 15.9586 142.477 14.5283C142.769 12.4506 143.865 8.6712 144.194 7.55408C144.199 7.5332 144.199 7.51232 144.205 7.49144C150.265 7.15213 150.542 5.85752 150.552 5.69047V5.64871C150.547 5.61739 149.9 2.53225 146.24 2.53225C144.33 2.53225 142.978 1.87973 142.184 1.32639C141.485 0.840909 140.545 0.840909 139.846 1.32639C139.052 1.87451 137.706 2.53225 135.79 2.53225C132.131 2.53225 131.489 5.61739 131.483 5.64871V5.69047C131.494 5.85752 131.77 7.15213 137.82 7.49144C137.831 7.52798 137.836 7.5593 137.847 7.59584C138.191 8.63988 139.011 11.2291 139.261 12.696C139.58 14.711 139.877 16.8356 140.029 19.0124C140.029 19.0124 140.086 20.7246 140.316 22.1863C140.383 22.6039 140.441 22.891 140.488 23.1312V25.4541C140.488 31.9376 145.765 37.2152 152.249 37.2152H183.397C189.306 37.2152 194.113 42.023 194.113 47.9323V53.7998C192.26 54.0556 190.835 55.6373 190.835 57.5584C190.835 57.8089 190.861 58.0543 190.908 58.2892C189.41 58.8008 188.335 60.2154 188.335 61.8859C188.335 63.9844 190.036 65.6862 192.135 65.6862C192.385 65.6862 192.631 65.6601 192.871 65.6131V68.2232H192.224C191.879 68.2232 191.602 68.4999 191.602 68.8444C191.602 69.1889 191.879 69.4656 192.224 69.4656H192.871V72.107H192.464C192.198 72.107 191.978 72.3263 191.978 72.5925V72.77C191.978 73.0415 192.198 73.2555 192.464 73.2555H192.871V83.5602H189.76V85.0792H191.576V86.5931H189.76V88.1069H191.576V89.6208H189.76V91.1399H192.871V91.6828C192.871 92.4762 193.398 93.1392 194.113 93.3637V107.61C194.113 119.83 189.316 131.315 180.599 139.954C175.185 145.326 167.992 148.259 160.293 148.202C152.525 148.15 145.259 145.075 139.825 139.542C139.757 139.479 139.689 139.406 139.621 139.338L127.093 126.721C127.558 126.032 127.485 125.097 126.874 124.486L111.162 108.774L111.621 108.314C111.866 108.069 111.866 107.677 111.621 107.432C111.376 107.187 110.984 107.187 110.739 107.432L110.28 107.891L108.437 106.049C108.635 105.913 108.834 105.756 109.011 105.579C110.494 104.096 110.494 101.695 109.011 100.207C107.831 99.0276 106.067 98.7822 104.647 99.4818C104.511 99.2834 104.355 99.0902 104.177 98.9128C102.82 97.5555 100.69 97.4407 99.2026 98.5734L95.0527 94.4234C90.8767 90.2472 90.8767 83.4453 95.0527 79.2691L100.205 74.1168L117.076 57.2451C121.659 52.6618 121.659 45.1969 117.076 40.6136L115.369 38.9066C115.244 38.7187 115.092 38.4994 114.873 38.1966C114.001 37.0012 112.837 35.7431 112.837 35.7431C111.825 34.5738 110.885 33.3836 110.008 32.2352C108.745 30.5595 106.845 27.1089 106.291 26.091C106.281 26.0701 106.265 26.0545 106.255 26.0388C110.3 21.5129 109.585 20.401 109.47 20.2757L109.455 20.26L109.439 20.2444C109.413 20.2287 106.777 18.5008 104.188 21.0901C102.836 22.4421 101.421 22.9328 100.471 23.1051C99.6359 23.2564 98.9677 23.9194 98.8164 24.7599C98.6441 25.7099 98.1534 27.1246 96.8014 28.4766C94.2123 31.0659 95.9401 33.702 95.961 33.7229L95.9767 33.7386L95.9923 33.7543C96.1176 33.8691 97.2243 34.5843 101.745 30.5438C101.776 30.5595 101.807 30.5804 101.839 30.596C102.82 31.092 105.232 32.3396 106.443 33.2009C108.092 34.4016 109.805 35.6909 111.449 37.1265C111.449 37.1265 112.696 38.2958 113.897 39.1676C114.242 39.4182 114.482 39.58 114.685 39.7105L116.33 41.3549C120.506 45.531 120.506 52.3329 116.33 56.5091L102.867 69.972C104.454 65.7802 103.567 60.8575 100.2 57.4853L98.4927 55.7783C98.3674 55.5903 98.2161 55.3711 97.9968 55.0683C97.1251 53.8729 95.961 52.6148 95.961 52.6148C94.9483 51.4455 94.0087 50.2553 93.1318 49.1069C91.8685 47.4312 89.9684 43.9806 89.4151 42.9627C89.4046 42.9418 89.389 42.9261 89.3785 42.9105C93.4241 38.3846 92.7089 37.2727 92.5941 37.1474L92.5784 37.1317L92.5628 37.1161C92.5367 37.1004 89.9005 35.3725 87.3114 37.9617C85.9594 39.3138 84.5448 39.8045 83.5947 39.9767C82.7595 40.1281 82.0914 40.7911 81.94 41.6315C81.7677 42.5816 81.2771 43.9963 79.9251 45.3483C77.3359 47.9375 79.0638 50.5737 79.0846 50.5946L79.1003 50.6103L79.116 50.6259C79.2412 50.7408 80.3479 51.4559 84.8684 47.4155C84.8998 47.4312 84.9311 47.4521 84.9624 47.4677C85.9438 47.9636 88.3554 49.2113 89.5665 50.0726C91.216 51.2732 92.9282 52.5626 94.5725 53.9982C94.5725 53.9982 95.8201 55.1675 97.0207 56.0393C97.3652 56.2898 97.6053 56.4517 97.8089 56.5822L99.4532 58.2265C103.629 62.4027 103.629 69.1994 99.4532 73.3808L94.2958 78.5383C90.5635 82.2708 89.8692 87.9034 92.213 92.3457C90.5374 91.4583 88.6686 90.9885 86.7215 90.9885C83.5791 90.9885 80.6298 92.21 78.406 94.4338L73.2539 99.5862C71.2285 101.612 68.5402 102.724 65.6744 102.724C62.8086 102.724 60.1203 101.612 58.0949 99.5862L56.3879 97.8792C56.2627 97.6912 56.1113 97.472 55.892 97.1692C55.0203 95.9738 53.8562 94.7157 53.8562 94.7157C52.8435 93.5464 51.9039 92.3562 51.027 91.2077C49.7637 89.5321 47.8636 86.0815 47.3103 85.0636C47.2999 85.0427 47.2842 85.027 47.2738 85.0114C51.3193 80.4855 50.6041 79.3736 50.4893 79.2483L50.4736 79.2326L50.458 79.217C50.4319 79.2013 47.7958 77.4734 45.2066 80.0626C43.8546 81.4147 42.44 81.9054 41.49 82.0776C40.6548 82.229 39.9866 82.892 39.8352 83.7324C39.6629 84.6825 39.1723 86.0972 37.8203 87.4492C35.2311 90.0384 36.959 92.6746 36.9799 92.6955L36.9955 92.7112L37.0112 92.7268C37.1365 92.8417 38.2431 93.5568 42.7636 89.5164C42.795 89.5321 42.8263 89.5529 42.8576 89.5686C43.839 90.0645 46.2506 91.3121 47.4617 92.1735C49.1112 93.3741 50.8234 94.6635 52.4677 96.0991C52.4677 96.0991 53.7153 97.2684 54.9159 98.1402C55.2604 98.3907 55.5005 98.5526 55.7041 98.6831L57.3484 100.327C59.5669 102.551 62.5215 103.773 65.6639 103.773C67.1099 103.773 68.5141 103.501 69.8243 103.005L56.3671 116.463C52.191 120.639 45.3893 120.639 41.2133 116.463L39.5064 114.756C39.3811 114.568 39.2297 114.349 39.0104 114.046C38.1387 112.851 36.9746 111.593 36.9746 111.593C35.9619 110.423 35.0223 109.233 34.1454 108.085C32.8821 106.414 30.982 102.958 30.4287 101.94C30.4183 101.92 30.4026 101.904 30.3922 101.888C34.4377 97.3624 33.7226 96.2505 33.6077 96.1252L33.5921 96.1095L33.5764 96.0938C33.5503 96.0782 30.9142 94.3503 28.325 96.9395C26.973 98.2916 25.5584 98.7822 24.6084 98.9545C23.7732 99.1059 23.105 99.7689 22.9536 100.609C22.7814 101.559 22.2907 102.974 20.9387 104.326C18.3496 106.915 20.0774 109.552 20.0983 109.572L20.1139 109.588L20.1296 109.604C20.2549 109.719 21.3615 110.434 25.8821 106.393C25.9134 106.409 25.9447 106.43 25.976 106.445C26.9574 106.941 29.369 108.189 30.5801 109.05C32.2296 110.251 33.9418 111.54 35.5861 112.976C35.5861 112.976 36.8337 114.145 38.0343 115.017C38.3788 115.268 38.6189 115.429 38.8277 115.56L40.4721 117.204C42.7636 119.496 45.7756 120.644 48.7876 120.644C51.7995 120.644 54.8115 119.496 57.1031 117.204L79.1264 95.1803C81.1518 93.1549 83.8401 92.043 86.7059 92.043C89.5717 92.043 92.26 93.1601 94.2854 95.1803L98.4353 99.3304C97.3078 100.818 97.4174 102.948 98.7746 104.305C98.9521 104.483 99.1452 104.634 99.3436 104.77C98.6441 106.19 98.8842 107.954 100.064 109.134C101.546 110.616 103.953 110.616 105.435 109.134C105.613 108.956 105.769 108.763 105.905 108.56L107.748 110.402L107.288 110.862C107.043 111.107 107.043 111.499 107.288 111.744C107.534 111.989 107.925 111.989 108.171 111.744L108.63 111.285L118.6 121.255L116.403 123.453L117.478 124.528L118.762 123.244L119.832 124.314L118.548 125.598L119.618 126.669L120.902 125.384L121.972 126.455L120.688 127.739L121.764 128.814L123.961 126.616L124.348 127.003C124.859 127.514 125.611 127.645 126.248 127.394L138.854 140.095C144.392 145.487 147.472 152.717 147.525 160.448C147.577 168.18 144.591 175.451 139.125 180.917C130.398 189.64 118.799 194.448 106.458 194.448H93.2675C93.1161 193.628 92.4009 193.002 91.5344 193.002H90.9915V189.89H89.4725V191.707H87.9587V189.89H86.4449V191.707H84.9311V189.89H83.412V193.002H69.318V192.354C69.318 192.01 69.0413 191.733 68.6968 191.733C68.3522 191.733 68.0756 192.01 68.0756 192.354V193.002H65.4656C65.5126 192.761 65.5387 192.516 65.5387 192.266C65.5387 190.167 63.8421 188.465 61.7385 188.465C60.0681 188.465 58.6534 189.541 58.1419 191.039C57.907 190.992 57.6616 190.966 57.4111 190.966C55.4901 190.966 53.9084 192.391 53.6526 194.244H47.7853C41.8762 194.244 37.0686 189.436 37.0686 183.527V152.378C37.0686 145.895 31.7911 140.617 25.3079 140.617H22.9849C22.7448 140.565 22.4629 140.507 22.0401 140.445C20.5785 140.215 18.8663 140.158 18.8663 140.158C16.6896 140.006 14.565 139.709 12.5501 139.39C11.0833 139.14 8.49413 138.32 7.45013 137.975C7.41359 137.965 7.38227 137.955 7.34573 137.949C7.00642 131.899 5.71708 131.623 5.54481 131.612H5.50305C5.47173 131.612 2.38669 132.259 2.38669 135.919C2.38669 137.829 1.73419 139.181 1.18087 139.975C0.695404 140.674 0.695404 141.614 1.18087 142.313C1.72897 143.107 2.38669 144.454 2.38669 146.37C2.38669 150.029 5.47173 150.671 5.50305 150.681H5.54481C5.71186 150.671 7.00642 150.394 7.34573 144.334C7.36661 144.328 7.38749 144.328 7.40837 144.323C8.52023 143.989 12.3048 142.893 14.3823 142.606C15.8126 142.413 17.3212 142.235 18.8611 142.126C18.8611 142.126 20.5733 142.058 22.0349 141.828C22.4003 141.771 22.6665 141.718 22.8858 141.677H25.3026C31.2117 141.677 36.0194 146.484 36.0194 152.394V171.421C34.1715 167.344 30.0633 164.494 25.3026 164.494H22.9797C22.7396 164.442 22.4577 164.384 22.0349 164.322C20.5733 164.092 18.8611 164.035 18.8611 164.035C16.6844 163.883 14.5598 163.581 12.5449 163.267C11.078 163.017 8.48891 162.197 7.44491 161.853C7.40837 161.842 7.37705 161.832 7.34051 161.827C7.0012 155.776 5.71186 155.5 5.53959 155.489H5.49783C5.46651 155.489 2.38147 156.137 2.38147 159.796C2.38147 161.707 1.72897 163.059 1.17565 163.852C0.690184 164.552 0.690184 165.491 1.17565 166.191C1.72375 166.984 2.38147 168.331 2.38147 170.247C2.38147 173.906 5.46651 174.548 5.49783 174.559H5.53959C5.70664 174.548 7.0012 174.272 7.34051 168.211C7.36139 168.206 7.38227 168.206 7.40315 168.2C8.51501 167.866 12.2995 166.77 14.3771 166.483C15.8074 166.29 17.316 166.112 18.8559 166.003C18.8559 166.003 20.5681 165.935 22.0297 165.705C22.3951 165.648 22.6613 165.596 22.8805 165.554H25.2974C31.2065 165.554 36.0141 170.362 36.0141 176.271V183.558C36.0141 188.836 39.5116 193.315 44.3088 194.797C39.5116 196.28 36.0141 200.759 36.0141 206.036V213.324C36.0141 219.233 31.2065 224.041 25.2974 224.041H22.9745C22.7344 223.989 22.4525 223.931 22.0297 223.869C20.5681 223.639 18.8559 223.582 18.8559 223.582C16.6791 223.43 14.5546 223.133 12.5397 222.814C11.0728 222.564 8.48369 221.744 7.43969 221.399C7.40315 221.389 7.37183 221.379 7.33529 221.373C6.99598 215.323 5.70664 215.046 5.53437 215.036H5.49261C5.46129 215.036 2.37625 215.683 2.37625 219.343C2.37625 221.253 1.72375 222.605 1.17043 223.399C0.684964 224.098 0.684964 225.038 1.17043 225.737C1.71853 226.531 2.37625 227.878 2.37625 229.794C2.37625 233.453 5.46129 234.095 5.49261 234.105H5.53437C5.70142 234.095 6.99598 233.818 7.33529 227.758C7.35617 227.752 7.37705 227.752 7.39793 227.747C8.50979 227.413 12.2943 226.317 14.3719 226.03C15.8022 225.837 17.3108 225.659 18.8507 225.55C18.8507 225.55 20.5628 225.482 22.0245 225.252C22.3899 225.195 22.6561 225.142 22.8753 225.101H25.2922C30.0529 225.101 34.161 222.256 36.0089 218.173V237.201C36.0089 243.074 31.2587 247.855 25.4018 247.913C25.3653 247.913 25.3287 247.913 25.2922 247.913H22.9275C22.6978 247.866 22.4212 247.808 22.0245 247.746C20.5628 247.516 18.8507 247.459 18.8507 247.459C18.4331 247.427 18.0155 247.386 17.6031 247.349C17.4465 247.333 17.2899 247.323 17.1333 247.307C15.9118 247.182 14.7164 247.02 13.5471 246.843C11.4174 246.436 8.37407 245.553 7.39793 245.261C7.39271 245.261 7.38749 245.261 7.37705 245.261C7.36139 245.261 7.34573 245.251 7.33007 245.251C6.99076 239.19 5.6962 238.913 5.52915 238.908H5.48739C5.45607 238.913 2.37103 239.561 2.37103 243.22C2.37103 245.13 1.71853 246.483 1.16521 247.276C0.925085 247.626 0.799805 248.038 0.799805 248.445C0.799805 248.858 0.919865 249.265 1.16521 249.615C1.71331 250.408 2.37103 251.755 2.37103 253.671C2.37103 257.33 5.45607 257.972 5.48739 257.983H5.52915C5.6962 257.972 6.99076 257.695 7.33007 251.64C7.34573 251.64 7.36139 251.63 7.37705 251.63C7.38227 251.63 7.38749 251.63 7.39793 251.63C8.37407 251.337 11.4174 250.455 13.5471 250.048C14.7164 249.87 15.9118 249.709 17.1333 249.583C17.2899 249.568 17.4465 249.557 17.6031 249.542C18.0155 249.505 18.4331 249.463 18.8507 249.432C18.8507 249.432 20.5628 249.375 22.0245 249.145C22.4212 249.082 22.6978 249.025 22.9275 248.978H25.2922C25.3287 248.978 25.3653 248.978 25.4018 248.978C31.2587 249.035 36.0089 253.817 36.0089 259.69V278.717C34.161 274.64 30.0529 271.79 25.2922 271.79H22.8753C22.6561 271.748 22.3899 271.696 22.0245 271.639C20.5628 271.409 18.8507 271.341 18.8507 271.341C17.3108 271.231 15.8022 271.054 14.3719 270.861C12.2943 270.569 8.51501 269.472 7.39793 269.143C7.37705 269.138 7.35617 269.138 7.33529 269.133C6.99598 263.072 5.70142 262.796 5.53437 262.785H5.49261C5.46129 262.79 2.37625 263.438 2.37625 267.097C2.37625 269.008 1.72375 270.36 1.17043 271.153C0.684964 271.853 0.684964 272.792 1.17043 273.492C1.71853 274.285 2.37625 275.632 2.37625 277.548C2.37625 281.207 5.46129 281.849 5.49261 281.855H5.53437C5.70142 281.844 6.99598 281.567 7.33529 275.517C7.37183 275.507 7.40315 275.502 7.43969 275.491C8.48369 275.147 11.0728 274.327 12.5397 274.076C14.5546 273.758 16.6791 273.461 18.8559 273.309C18.8559 273.309 20.5681 273.252 22.0297 273.022C22.4473 272.954 22.7344 272.897 22.9745 272.85H25.2974C31.2065 272.85 36.0141 277.658 36.0141 283.567V290.854C36.0141 296.132 39.5116 300.611 44.3088 302.093C39.5116 303.576 36.0141 308.055 36.0141 313.332V320.62C36.0141 326.529 31.2065 331.337 25.2974 331.337H22.8805C22.6613 331.295 22.3951 331.243 22.0297 331.185C20.5681 330.956 18.8559 330.888 18.8559 330.888C17.316 330.778 15.8074 330.601 14.3771 330.408C12.2995 330.115 8.52023 329.019 7.40315 328.69C7.38227 328.685 7.36139 328.685 7.34051 328.68C7.0012 322.619 5.70664 322.342 5.53959 322.332H5.49783C5.46651 322.337 2.38147 322.984 2.38147 326.644C2.38147 328.554 1.72897 329.906 1.17565 330.7C0.690184 331.399 0.690184 332.339 1.17565 333.039C1.72375 333.832 2.38147 335.179 2.38147 337.095C2.38147 340.754 5.46651 341.396 5.49783 341.401H5.53959C5.70664 341.391 7.0012 341.114 7.34051 335.064C7.37705 335.054 7.40837 335.048 7.44491 335.038C8.48891 334.693 11.078 333.874 12.5449 333.623C14.5598 333.305 16.6844 333.007 18.8611 332.856C18.8611 332.856 20.5733 332.798 22.0349 332.569C22.4577 332.501 22.7396 332.444 22.9797 332.397H25.3026C30.0633 332.397 34.1715 329.552 36.0194 325.469V344.497C36.0194 350.406 31.2117 355.214 25.3026 355.214H22.8858C22.6665 355.172 22.4003 355.12 22.0349 355.063C20.5733 354.833 18.8611 354.765 18.8611 354.765C17.3212 354.655 15.8126 354.478 14.3823 354.285C12.3048 353.992 8.52545 352.896 7.40837 352.567C7.38749 352.562 7.36661 352.562 7.34573 352.557C7.00642 346.496 5.71186 346.22 5.54481 346.209H5.50305C5.47173 346.214 2.38669 346.862 2.38669 350.521C2.38669 352.432 1.73419 353.784 1.18087 354.577C0.695404 355.277 0.695404 356.216 1.18087 356.916C1.72897 357.709 2.38669 359.056 2.38669 360.972C2.38669 364.631 5.47173 365.273 5.50305 365.279H5.54481C5.71186 365.268 7.00642 364.991 7.34573 358.941C7.38227 358.931 7.41359 358.926 7.45013 358.915C8.49413 358.571 11.0833 357.751 12.5501 357.5C14.565 357.182 16.6896 356.884 18.8663 356.733C18.8663 356.733 20.5785 356.676 22.0401 356.446C22.4577 356.378 22.7448 356.321 22.9849 356.274H25.3079C31.7911 356.274 37.0686 350.996 37.0686 344.513V313.364C37.0686 307.454 41.8762 302.647 47.7853 302.647H53.6526C53.9084 304.5 55.4901 305.925 57.4111 305.925C57.6616 305.925 57.907 305.899 58.1419 305.852C58.6534 307.35 60.0681 308.425 61.7385 308.425C63.8369 308.425 65.5387 306.724 65.5387 304.625C65.5387 304.375 65.5126 304.129 65.4656 303.889H68.0756V304.536C68.0756 304.881 68.3522 305.158 68.6968 305.158C69.0413 305.158 69.318 304.881 69.318 304.536V303.889H83.412V307H84.9311V305.184H86.4449V307H87.9587V305.184H89.4725V307H90.9915V303.889H91.5344C92.3435 303.889 93.0169 303.341 93.2257 302.605H106.458C118.799 302.605 130.398 307.413 139.125 316.136C144.591 321.601 147.577 328.873 147.525 336.604C147.472 344.335 144.392 351.565 138.844 356.968L126.498 369.632C125.82 369.225 124.927 369.309 124.342 369.893L123.956 370.28L121.758 368.082L120.683 369.157L121.967 370.441L120.897 371.511L119.613 370.227L118.543 371.297L119.827 372.582L118.757 373.652L117.473 372.368L116.397 373.443L118.595 375.641L108.625 385.611L108.165 385.152C107.92 384.906 107.529 384.906 107.283 385.152C107.038 385.397 107.038 385.789 107.283 386.034L107.743 386.493L105.9 388.336C105.764 388.133 105.608 387.939 105.43 387.762C103.948 386.279 101.541 386.274 100.059 387.762C98.879 388.942 98.6389 390.706 99.3384 392.126C99.14 392.262 98.9469 392.413 98.7694 392.591C97.4122 393.948 97.3026 396.078 98.4301 397.565L94.2802 401.716C90.1041 405.892 83.3024 405.892 79.1264 401.716L73.9742 396.563L57.1031 379.691C52.5199 375.108 45.0552 375.108 40.4721 379.691L38.8277 381.336C38.6242 381.472 38.3788 381.628 38.0343 381.879C36.8389 382.751 35.5861 383.92 35.5861 383.92C33.9418 385.35 32.2296 386.64 30.5801 387.84C29.369 388.702 26.9574 389.949 25.976 390.445C25.9447 390.461 25.9134 390.482 25.8821 390.497C21.3615 386.457 20.2549 387.177 20.1296 387.287L20.1139 387.303L20.0983 387.318C20.0983 387.318 18.3496 389.981 20.9387 392.565C22.2907 393.917 22.7814 395.331 22.9536 396.281C23.105 397.117 23.768 397.785 24.6084 397.936C25.5584 398.108 26.973 398.599 28.325 399.951C30.9142 402.54 33.5503 400.812 33.5764 400.797L33.5921 400.781L33.6077 400.765C33.7226 400.64 34.4377 399.528 30.3922 395.002C30.4026 394.981 30.4183 394.966 30.4287 394.95C30.982 393.927 32.8821 390.476 34.1454 388.806C35.0223 387.658 35.9619 386.467 36.9746 385.298C36.9746 385.298 38.1387 384.04 39.0104 382.845C39.2297 382.547 39.3811 382.322 39.5064 382.135L41.2133 380.428C45.3893 376.251 52.191 376.251 56.3671 380.428L69.8295 393.89C65.6378 392.303 60.7153 393.191 57.3432 396.558L55.6989 398.202C55.4953 398.338 55.25 398.495 54.9107 398.745C53.7153 399.617 52.4625 400.786 52.4625 400.786C50.8182 402.217 49.106 403.506 47.4565 404.707C46.2454 405.568 43.8338 406.816 42.8524 407.312C42.8211 407.327 42.7897 407.348 42.7584 407.364C38.2379 403.323 37.1312 404.044 37.006 404.153L36.9903 404.169L36.9746 404.185C36.9746 404.185 35.2259 406.847 37.8151 409.431C39.167 410.783 39.6577 412.198 39.83 413.148C39.9814 413.983 40.6495 414.651 41.4847 414.803C42.4348 414.975 43.8494 415.466 45.2014 416.818C47.7905 419.407 50.4267 417.679 50.4528 417.663L50.4684 417.648L50.4841 417.632C50.5989 417.507 51.3141 416.395 47.2685 411.869C47.279 411.848 47.2946 411.832 47.3051 411.817C47.8584 410.793 49.7585 407.343 51.0217 405.672C51.8987 404.519 52.8383 403.334 53.851 402.164C53.851 402.164 55.0151 400.906 55.8868 399.711C56.1061 399.408 56.2574 399.189 56.3827 399.001L58.0897 397.294C62.2657 393.118 69.0622 393.118 73.2434 397.294L78.4008 402.452C80.6924 404.743 83.7044 405.892 86.7163 405.892C88.606 405.892 90.4956 405.438 92.2078 404.534C91.3204 406.205 90.8506 408.079 90.8506 410.026C90.8506 413.169 92.0721 416.118 94.2958 418.342L99.448 423.494C103.624 427.67 103.624 434.472 99.448 438.648L97.8037 440.293C97.6001 440.429 97.3548 440.585 97.0102 440.836C95.8148 441.707 94.562 442.877 94.562 442.877C92.9177 444.307 91.2056 445.596 89.556 446.797C88.345 447.658 85.9333 448.906 84.952 449.402C84.9206 449.418 84.8893 449.439 84.858 449.454C80.3374 445.414 79.2308 446.134 79.1055 446.244L79.0899 446.259L79.0742 446.275C79.0742 446.275 77.3255 448.937 79.9146 451.521C81.2666 452.873 81.7573 454.288 81.9296 455.238C82.0809 456.073 82.7439 456.742 83.5843 456.893C84.5343 457.065 85.949 457.556 87.301 458.908C89.8901 461.497 92.5262 459.769 92.5523 459.754L92.568 459.738L92.5836 459.722C92.6985 459.597 93.4136 458.485 89.3681 453.959C89.3785 453.938 89.3942 453.923 89.4046 453.907C89.958 452.884 91.8581 449.433 93.1213 447.763C93.9983 446.614 94.9379 445.424 95.9506 444.255C95.9506 444.255 97.1146 442.997 97.9864 441.801C98.2056 441.504 98.357 441.279 98.4823 441.091L100.189 439.384C103.561 436.012 104.444 431.09 102.857 426.898L116.319 440.361C120.495 444.537 120.495 451.339 116.319 455.515L114.675 457.159C114.471 457.295 114.226 457.452 113.887 457.702C112.691 458.574 111.438 459.743 111.438 459.743C109.794 461.174 108.082 462.463 106.432 463.664C105.221 464.525 102.81 465.773 101.828 466.268C101.797 466.284 101.766 466.305 101.734 466.321C97.2138 462.28 96.1072 463.001 95.9819 463.11L95.9662 463.126L95.9506 463.142C95.9506 463.142 94.2019 465.804 96.791 468.388C98.143 469.74 98.6337 471.155 98.8059 472.105C98.9573 472.94 99.6202 473.608 100.461 473.759C101.411 473.932 102.825 474.422 104.177 475.774C106.766 478.364 109.403 476.636 109.429 476.62L109.444 476.604L109.46 476.589C109.575 476.464 110.29 475.352 106.244 470.826C106.255 470.805 106.271 470.789 106.281 470.774C106.834 469.75 108.734 466.3 109.998 464.629C110.875 463.476 111.814 462.291 112.827 461.121C112.827 461.121 113.991 459.863 114.863 458.668C115.082 458.365 115.233 458.146 115.359 457.958L117.066 456.251C121.649 451.668 121.649 444.203 117.066 439.619L95.0423 417.595C93.0169 415.57 91.905 412.882 91.905 410.016C91.905 407.15 93.0221 404.461 95.0423 402.436L99.1922 398.286C100.68 399.419 102.81 399.304 104.167 397.947C104.344 397.769 104.501 397.581 104.637 397.378C106.057 398.077 107.816 397.837 109.001 396.652C110.483 395.169 110.488 392.768 109.001 391.28C108.823 391.103 108.625 390.946 108.426 390.811L110.269 388.968L110.728 389.427C110.974 389.673 111.365 389.673 111.611 389.427C111.856 389.182 111.856 388.79 111.611 388.545L111.151 388.086L126.864 372.373C127.401 371.835 127.516 371.047 127.219 370.394L139.6 357.688C139.653 357.641 139.7 357.584 139.747 357.537C145.149 352.04 152.374 348.981 160.089 348.929C167.752 348.871 175.003 351.821 180.447 357.219C189.159 365.858 193.962 377.348 193.962 389.563V403.537C193.309 403.798 192.85 404.43 192.85 405.177V405.719H189.739V407.238H191.555V408.752H189.739V410.266H191.555V411.78H189.739V413.299H192.85V427.394H192.203C191.858 427.394 191.582 427.67 191.582 428.015C191.582 428.359 191.858 428.636 192.203 428.636H192.85V431.246C192.61 431.199 192.365 431.173 192.114 431.173C190.016 431.173 188.314 432.87 188.314 434.973C188.314 436.644 189.389 438.059 190.887 438.57C190.84 438.805 190.814 439.05 190.814 439.301C190.814 441.222 192.239 442.804 194.092 443.059V448.927C194.092 454.836 189.285 459.644 183.376 459.644H152.228C145.744 459.644 140.467 464.922 140.467 471.405V473.728C140.415 473.968 140.357 474.25 140.295 474.673C140.065 476.135 140.008 477.847 140.008 477.847C139.856 480.024 139.559 482.148 139.24 484.163C138.99 485.63 138.17 488.219 137.826 489.263C137.815 489.3 137.805 489.331 137.8 489.368C131.75 489.707 131.473 490.997 131.462 491.169V491.211C131.462 491.242 132.11 494.327 135.769 494.327C137.68 494.327 139.032 494.98 139.825 495.533C140.524 496.018 141.464 496.018 142.164 495.533C142.957 494.985 144.304 494.327 146.219 494.327C149.879 494.327 150.521 491.242 150.531 491.211V491.169C150.521 491.002 150.244 489.707 144.184 489.368C144.178 489.347 144.178 489.326 144.173 489.305C143.839 488.193 142.743 484.409 142.456 482.331C142.263 480.901 142.085 479.392 141.976 477.852C141.976 477.852 141.908 476.14 141.678 474.678C141.621 474.313 141.568 474.047 141.527 473.827V471.41C141.527 465.501 146.334 460.693 152.243 460.693H171.27C167.194 462.541 164.343 466.65 164.343 471.41V473.733C164.291 473.974 164.234 474.255 164.171 474.678C163.941 476.14 163.884 477.852 163.884 477.852C163.733 480.029 163.435 482.154 163.117 484.169C162.866 485.635 162.047 488.225 161.702 489.269C161.692 489.305 161.681 489.337 161.676 489.373C155.626 489.712 155.349 491.002 155.339 491.174V491.216C155.339 491.247 155.986 494.332 159.645 494.332C161.556 494.332 162.908 494.985 163.701 495.538C164.401 496.024 165.34 496.024 166.04 495.538C166.833 494.99 168.18 494.332 170.096 494.332C173.755 494.332 174.397 491.247 174.408 491.216V491.174C174.397 491.007 174.121 489.712 168.06 489.373C168.055 489.352 168.055 489.331 168.05 489.31C167.716 488.199 166.619 484.414 166.332 482.336C166.139 480.906 165.962 479.397 165.852 477.857C165.852 477.857 165.784 476.145 165.555 474.683C165.497 474.318 165.445 474.052 165.403 473.833V471.416C165.403 465.506 170.211 460.699 176.12 460.699H183.407C188.684 460.699 193.163 457.201 194.646 452.404C196.128 457.201 200.607 460.699 205.884 460.699H213.172C219.081 460.699 223.888 465.506 223.888 471.416V473.739C223.836 473.979 223.779 474.261 223.716 474.683C223.486 476.145 223.429 477.857 223.429 477.857C223.278 480.034 222.98 482.159 222.662 484.174C222.411 485.641 221.592 488.23 221.247 489.274C221.237 489.31 221.226 489.342 221.221 489.378C215.171 489.718 214.894 491.007 214.884 491.179V491.221C214.884 491.252 215.531 494.337 219.19 494.337C221.101 494.337 222.453 494.99 223.246 495.543C223.946 496.029 224.885 496.029 225.585 495.543C226.378 494.995 227.725 494.337 229.641 494.337C233.3 494.337 233.942 491.252 233.953 491.221V491.179C233.942 491.012 233.665 489.718 227.605 489.378C227.6 489.357 227.6 489.337 227.595 489.316C227.26 488.204 226.164 484.419 225.877 482.341C225.684 480.911 225.507 479.402 225.397 477.863C225.397 477.863 225.329 476.15 225.099 474.689C225.042 474.323 224.99 474.057 224.948 473.838V471.421C224.948 466.66 222.103 462.552 218.021 460.704H237.048C242.921 460.704 247.702 465.454 247.76 471.316C247.76 471.353 247.76 471.384 247.76 471.421V473.78C247.713 474.01 247.655 474.287 247.593 474.689C247.363 476.15 247.305 477.863 247.305 477.863C247.274 478.28 247.238 478.698 247.201 479.11C247.185 479.267 247.175 479.423 247.159 479.58C247.034 480.802 246.872 481.997 246.695 483.166C246.288 485.296 245.405 488.339 245.113 489.316C245.113 489.321 245.113 489.326 245.113 489.337C245.113 489.352 245.103 489.368 245.103 489.384C239.042 489.723 238.765 491.017 238.76 491.184V491.226C238.765 491.258 239.413 494.343 243.072 494.343C244.983 494.343 246.335 494.995 247.128 495.549C247.478 495.789 247.89 495.914 248.297 495.914C248.71 495.914 249.117 495.794 249.467 495.549C250.26 495 251.607 494.343 253.522 494.343C257.182 494.343 257.824 491.258 257.834 491.226V491.184C257.824 491.017 257.547 489.723 251.492 489.384C251.492 489.368 251.481 489.352 251.481 489.337C251.481 489.331 251.481 489.326 251.481 489.316C251.189 488.339 250.307 485.296 249.9 483.166C249.722 481.997 249.56 480.802 249.435 479.58C249.42 479.423 249.409 479.267 249.393 479.11C249.357 478.698 249.315 478.28 249.289 477.863C249.289 477.863 249.232 476.15 249.002 474.689C248.939 474.292 248.882 474.015 248.835 473.786V471.426C248.835 471.39 248.835 471.358 248.835 471.322C248.892 465.459 253.674 460.709 259.546 460.709H278.573C274.497 462.557 271.646 466.665 271.646 471.426V473.843C271.605 474.062 271.552 474.328 271.495 474.694C271.265 476.156 271.198 477.868 271.198 477.868C271.088 479.408 270.91 480.916 270.717 482.347C270.425 484.424 269.329 488.204 269 489.321C268.995 489.342 268.995 489.363 268.989 489.384C262.929 489.723 262.652 491.017 262.642 491.184V491.226C262.647 491.258 263.294 494.343 266.954 494.343C268.864 494.343 270.216 494.995 271.01 495.549C271.709 496.034 272.649 496.034 273.348 495.549C274.142 495 275.488 494.343 277.404 494.343C281.063 494.343 281.705 491.258 281.711 491.226V491.184C281.7 491.017 281.424 489.723 275.374 489.384C275.363 489.347 275.358 489.316 275.347 489.279C275.003 488.235 274.183 485.646 273.933 484.179C273.614 482.164 273.317 480.039 273.165 477.863C273.165 477.863 273.108 476.15 272.878 474.689C272.811 474.266 272.753 473.984 272.706 473.744V471.421C272.706 465.512 277.514 460.704 283.423 460.704H290.71C295.987 460.704 300.466 457.206 301.949 452.409C303.431 457.206 307.91 460.704 313.187 460.704H320.475C326.384 460.704 331.191 465.512 331.191 471.421V473.838C331.15 474.057 331.097 474.323 331.04 474.689C330.81 476.15 330.742 477.863 330.742 477.863C330.633 479.402 330.455 480.911 330.262 482.341C329.97 484.419 328.874 488.199 328.545 489.316C328.54 489.337 328.54 489.357 328.534 489.378C322.474 489.718 322.197 491.012 322.187 491.179V491.221C322.192 491.252 322.839 494.337 326.499 494.337C328.409 494.337 329.761 494.99 330.555 495.543C331.254 496.029 332.194 496.029 332.893 495.543C333.687 494.995 335.033 494.337 336.949 494.337C340.608 494.337 341.25 491.252 341.256 491.221V491.179C341.245 491.012 340.968 489.718 334.918 489.378C334.908 489.342 334.903 489.31 334.892 489.274C334.548 488.23 333.728 485.641 333.478 484.174C333.159 482.159 332.862 480.034 332.71 477.857C332.71 477.857 332.653 476.145 332.423 474.683C332.355 474.266 332.298 473.979 332.251 473.739V471.416C332.251 466.655 329.406 462.546 325.324 460.699H344.351C350.26 460.699 355.068 465.506 355.068 471.416V473.833C355.026 474.052 354.974 474.318 354.916 474.683C354.687 476.145 354.619 477.857 354.619 477.857C354.509 479.397 354.332 480.906 354.139 482.336C353.846 484.414 352.75 488.193 352.421 489.31C352.416 489.331 352.416 489.352 352.411 489.373C346.35 489.712 346.074 491.007 346.063 491.174V491.216C346.068 491.247 346.716 494.332 350.375 494.332C352.285 494.332 353.637 494.985 354.431 495.538C355.13 496.024 356.07 496.024 356.77 495.538C357.563 494.99 358.91 494.332 360.825 494.332C364.485 494.332 365.127 491.247 365.132 491.216V491.174C365.122 491.007 364.845 489.712 358.795 489.373C358.784 489.337 358.779 489.305 358.769 489.269C358.424 488.225 357.605 485.635 357.354 484.169C357.036 482.154 356.738 480.029 356.587 477.852C356.587 477.852 356.529 476.14 356.3 474.678C356.232 474.255 356.174 473.974 356.127 473.733V471.41C356.127 464.927 350.85 459.649 344.367 459.649H313.219C307.31 459.649 302.502 454.841 302.502 448.932V443.065C304.355 442.809 305.78 441.227 305.78 439.306C305.78 439.056 305.754 438.81 305.707 438.575C307.205 438.064 308.281 436.649 308.281 434.979C308.281 432.88 306.579 431.178 304.48 431.178C304.23 431.178 303.985 431.204 303.744 431.251V428.641H304.392C304.736 428.641 305.013 428.365 305.013 428.02C305.013 427.676 304.736 427.399 304.392 427.399H303.744V413.304H306.856V411.785H305.039V410.271H306.856V408.758H305.039V407.244H306.856V405.725H303.744V405.182C303.744 404.393 303.222 403.736 302.512 403.506V389.657C302.512 377.436 307.31 365.952 316.022 357.313C321.435 351.946 328.618 348.997 336.27 348.997C336.338 348.997 336.401 348.997 336.469 348.997C344.189 349.049 351.409 352.098 356.801 357.584L369.439 370.321C369.099 370.984 369.193 371.819 369.752 372.378L370.138 372.764L367.94 374.962L369.016 376.037L370.3 374.753L371.37 375.823L370.086 377.108L371.156 378.178L372.44 376.893L373.51 377.964L372.226 379.248L373.301 380.323L375.499 378.125L385.469 388.096L385.01 388.555C384.765 388.801 384.765 389.192 385.01 389.438C385.255 389.683 385.647 389.683 385.892 389.438L386.351 388.978L388.194 390.821C387.991 390.957 387.797 391.113 387.62 391.291C386.137 392.773 386.132 395.18 387.62 396.662C388.8 397.842 390.564 398.082 391.984 397.383C392.12 397.581 392.271 397.774 392.448 397.952C393.806 399.309 395.935 399.419 397.423 398.291L401.573 402.441C405.749 406.617 405.749 413.419 401.573 417.595L396.421 422.748L379.55 439.619C377.326 441.838 376.105 444.793 376.105 447.935C376.105 451.078 377.326 454.027 379.55 456.251L381.194 457.895C381.33 458.099 381.486 458.344 381.737 458.689C382.609 459.884 383.778 461.137 383.778 461.137C385.208 462.787 386.503 464.499 387.703 466.148C388.565 467.359 389.812 469.771 390.308 470.753C390.324 470.784 390.345 470.815 390.36 470.847C386.32 475.367 387.04 476.474 387.15 476.599L387.166 476.615L387.181 476.631C387.181 476.631 389.844 478.379 392.428 475.79C393.78 474.438 395.194 473.947 396.144 473.775C396.979 473.624 397.648 472.961 397.799 472.12C397.971 471.17 398.462 469.756 399.814 468.404C402.403 465.814 400.675 463.178 400.66 463.152L400.644 463.136L400.628 463.121C400.503 463.006 399.391 462.291 394.865 466.336C394.844 466.326 394.829 466.31 394.813 466.3C393.79 465.746 390.34 463.846 388.669 462.583C387.521 461.706 386.331 460.766 385.161 459.754C385.161 459.754 383.903 458.59 382.708 457.718C382.41 457.499 382.186 457.347 381.998 457.222L380.291 455.515C378.266 453.489 377.154 450.801 377.154 447.935C377.154 445.069 378.271 442.381 380.291 440.355L393.748 426.898C393.252 428.213 392.981 429.612 392.981 431.058C392.981 434.201 394.202 437.15 396.426 439.374L398.07 441.018C398.206 441.222 398.363 441.467 398.613 441.812C399.485 443.007 400.654 444.26 400.654 444.26C402.085 445.91 403.379 447.622 404.58 449.272C405.441 450.483 406.689 452.894 407.185 453.876C407.2 453.907 407.221 453.938 407.237 453.97C403.196 458.49 403.917 459.597 404.026 459.722L404.042 459.738L404.058 459.754C404.058 459.754 406.72 461.502 409.304 458.913C410.656 457.561 412.071 457.07 413.021 456.898C413.856 456.747 414.524 456.084 414.675 455.243C414.848 454.293 415.338 452.879 416.69 451.527C419.279 448.937 417.552 446.301 417.536 446.275L417.52 446.259L417.505 446.244C417.379 446.129 416.267 445.414 411.742 449.459C411.721 449.449 411.705 449.433 411.689 449.423C410.666 448.87 407.216 446.969 405.546 445.706C404.392 444.829 403.207 443.89 402.038 442.877C402.038 442.877 400.78 441.713 399.584 440.841C399.287 440.622 399.062 440.47 398.874 440.345L397.167 438.638C395.142 436.613 394.03 433.924 394.03 431.058C394.03 428.192 395.142 425.509 397.167 423.484L402.325 418.326C406.057 414.594 406.751 408.961 404.408 404.519C406.078 405.406 407.952 405.876 409.899 405.876C413.041 405.876 415.996 404.654 418.215 402.431L423.367 397.278C425.392 395.253 428.08 394.141 430.946 394.141C433.812 394.141 436.5 395.253 438.526 397.278L440.17 398.923C440.306 399.126 440.462 399.372 440.713 399.716C441.585 400.912 442.754 402.164 442.754 402.164C444.184 403.814 445.479 405.526 446.679 407.176C447.541 408.387 448.788 410.799 449.284 411.78C449.3 411.811 449.321 411.843 449.336 411.874C445.296 416.395 446.016 417.501 446.126 417.627L446.142 417.642L446.157 417.658C446.157 417.658 448.82 419.407 451.404 416.818C452.755 415.466 454.17 414.975 455.12 414.803C455.955 414.651 456.624 413.988 456.775 413.148C456.947 412.198 457.438 410.783 458.79 409.431C461.379 406.842 459.651 404.206 459.635 404.179L459.62 404.164L459.604 404.148C459.479 404.033 458.367 403.318 453.841 407.364C453.82 407.353 453.805 407.338 453.789 407.327C452.766 406.774 449.315 404.874 447.645 403.61C446.497 402.733 445.306 401.794 444.137 400.781C444.137 400.781 442.879 399.617 441.684 398.745C441.386 398.526 441.162 398.375 440.974 398.249L439.267 396.542C437.043 394.319 434.094 393.097 430.951 393.097C429.505 393.097 428.101 393.368 426.791 393.864L440.248 380.407C444.424 376.23 451.226 376.23 455.402 380.407L457.046 382.051C457.182 382.255 457.339 382.5 457.589 382.845C458.461 384.04 459.63 385.293 459.63 385.293C461.061 386.942 462.355 388.655 463.556 390.304C464.417 391.515 465.665 393.927 466.161 394.908C466.176 394.94 466.197 394.971 466.213 395.002C462.172 399.523 462.893 400.63 463.002 400.755L463.018 400.771L463.034 400.786C463.034 400.786 465.696 402.535 468.28 399.946C469.632 398.594 471.047 398.103 471.997 397.931C472.832 397.779 473.5 397.117 473.651 396.276C473.824 395.326 474.314 393.911 475.666 392.559C478.255 389.97 476.527 387.334 476.512 387.308L476.496 387.292L476.481 387.276C476.355 387.162 475.243 386.446 470.718 390.492C470.697 390.482 470.681 390.466 470.665 390.456C469.642 389.902 466.192 388.002 464.521 386.739C463.368 385.862 462.183 384.922 461.014 383.909C461.014 383.909 459.756 382.745 458.56 381.874C458.263 381.654 458.038 381.503 457.85 381.378L456.143 379.671C451.56 375.087 444.095 375.087 439.512 379.671L417.489 401.695C415.464 403.72 412.775 404.832 409.909 404.832C407.044 404.832 404.355 403.715 402.33 401.695L398.18 397.545C399.308 396.057 399.198 393.927 397.841 392.57C397.663 392.392 397.475 392.236 397.272 392.1C397.971 390.68 397.731 388.921 396.546 387.736C395.064 386.253 392.662 386.248 391.175 387.736C390.997 387.913 390.841 388.112 390.705 388.31L388.862 386.467L389.322 386.008C389.567 385.763 389.567 385.371 389.322 385.126C389.076 384.88 388.685 384.88 388.439 385.126L387.98 385.585L372.268 369.872C371.704 369.309 370.853 369.215 370.185 369.575L357.652 356.947C352.145 351.586 349.086 344.393 349.033 336.693C348.981 328.93 351.983 321.622 357.485 316.125C366.213 307.402 377.811 302.594 390.152 302.594H393.999C394.474 302.626 394.949 302.647 395.429 302.647V302.594H403.374C403.583 303.336 404.256 303.879 405.065 303.879H405.608V306.99H407.127V305.173H408.641V306.99H410.155V305.173H411.669V306.99H413.188V303.879H427.282V304.526C427.282 304.87 427.558 305.147 427.903 305.147C428.247 305.147 428.524 304.87 428.524 304.526V303.879H431.134C431.087 304.119 431.061 304.364 431.061 304.615C431.061 306.713 432.758 308.415 434.861 308.415C436.532 308.415 437.946 307.34 438.458 305.841C438.693 305.888 438.938 305.914 439.189 305.914C441.11 305.914 442.691 304.489 442.947 302.636H448.814C454.723 302.636 459.531 307.444 459.531 313.353V344.502C459.531 350.986 464.809 356.263 471.292 356.263H473.615C473.855 356.315 474.137 356.373 474.56 356.436C476.021 356.665 477.733 356.723 477.733 356.723C479.91 356.874 482.035 357.172 484.05 357.49C485.516 357.741 488.106 358.56 489.15 358.905C489.186 358.915 489.217 358.926 489.254 358.931C489.593 364.981 490.883 365.258 491.055 365.268H491.097C491.128 365.268 494.213 364.621 494.213 360.961C494.213 359.051 494.866 357.699 495.419 356.905C495.904 356.206 495.904 355.266 495.419 354.567C494.871 353.773 494.213 352.426 494.213 350.511C494.213 346.851 491.128 346.209 491.097 346.199H491.055C490.888 346.209 489.593 346.486 489.254 352.546C489.233 352.552 489.212 352.552 489.191 352.557C488.079 352.891 484.295 353.987 482.217 354.274C480.787 354.467 479.278 354.645 477.739 354.755C477.739 354.755 476.026 354.822 474.565 355.052C474.199 355.11 473.933 355.162 473.714 355.204H471.297C465.388 355.204 460.58 350.396 460.58 344.486V325.459C462.428 329.536 466.536 332.386 471.297 332.386H473.62C473.86 332.438 474.142 332.496 474.565 332.558C476.026 332.788 477.739 332.845 477.739 332.845C479.915 332.997 482.04 333.3 484.055 333.613C485.522 333.863 488.111 334.683 489.155 335.027C489.191 335.038 489.223 335.048 489.259 335.054C489.598 341.104 490.888 341.38 491.06 341.391H491.102C491.133 341.391 494.218 340.744 494.218 337.084C494.218 335.174 494.871 333.822 495.424 333.028C495.909 332.329 495.909 331.389 495.424 330.69C494.876 329.896 494.218 328.549 494.218 326.633C494.218 322.974 491.133 322.332 491.102 322.322H491.06C490.893 322.332 489.598 322.609 489.259 328.669C489.238 328.675 489.217 328.675 489.197 328.68C488.085 329.014 484.3 330.11 482.223 330.397C480.792 330.59 479.284 330.768 477.744 330.877C477.744 330.877 476.032 330.945 474.57 331.175C474.205 331.232 473.938 331.285 473.719 331.326H471.302C465.393 331.326 460.586 326.519 460.586 320.609V313.322C460.586 308.044 457.088 303.565 452.291 302.083C457.088 300.6 460.586 296.121 460.586 290.844V283.556C460.586 277.647 465.393 272.839 471.302 272.839H473.625C473.865 272.891 474.147 272.949 474.57 273.012C476.032 273.241 477.744 273.299 477.744 273.299C479.921 273.45 482.045 273.748 484.06 274.066C485.527 274.317 488.116 275.136 489.16 275.481C489.197 275.491 489.228 275.502 489.264 275.507C489.604 281.557 490.893 281.834 491.065 281.844H491.107C491.138 281.844 494.223 281.197 494.223 277.537C494.223 275.627 494.876 274.275 495.429 273.481C495.915 272.782 495.915 271.842 495.429 271.143C494.881 270.349 494.223 269.002 494.223 267.087C494.223 263.427 491.138 262.785 491.107 262.775H491.065C490.898 262.785 489.604 263.062 489.264 269.122C489.243 269.128 489.223 269.128 489.202 269.133C488.09 269.467 484.305 270.563 482.228 270.85C480.798 271.044 479.289 271.221 477.749 271.331C477.749 271.331 476.037 271.398 474.575 271.628C474.21 271.686 473.944 271.738 473.724 271.78H471.307C466.547 271.78 462.439 274.625 460.591 278.707V259.679C460.591 253.806 465.341 249.025 471.198 248.967C471.234 248.967 471.271 248.967 471.307 248.967H473.672C473.902 249.014 474.178 249.072 474.575 249.134C476.037 249.364 477.749 249.421 477.749 249.421C478.167 249.453 478.584 249.495 478.997 249.531C479.153 249.547 479.31 249.557 479.466 249.573C480.688 249.698 481.883 249.86 483.053 250.037C485.182 250.445 488.226 251.327 489.202 251.619C489.207 251.619 489.212 251.619 489.223 251.619C489.238 251.619 489.254 251.63 489.27 251.63C489.609 257.69 490.903 257.967 491.071 257.972H491.112C491.144 257.967 494.229 257.32 494.229 253.66C494.229 251.75 494.881 250.398 495.434 249.604C495.675 249.254 495.8 248.842 495.8 248.435C495.8 248.022 495.68 247.615 495.434 247.266C494.886 246.472 494.229 245.125 494.229 243.209C494.229 239.55 491.144 238.908 491.112 238.898H491.071C490.903 238.908 489.609 239.185 489.27 245.24C489.254 245.24 489.238 245.251 489.223 245.251C489.217 245.251 489.212 245.251 489.202 245.251C488.226 245.543 485.182 246.425 483.053 246.832C481.883 247.01 480.688 247.172 479.466 247.297C479.31 247.313 479.153 247.323 478.997 247.339C478.584 247.375 478.167 247.417 477.749 247.448C477.749 247.448 476.037 247.506 474.575 247.735C474.178 247.798 473.902 247.855 473.672 247.902H471.307C471.271 247.902 471.234 247.902 471.198 247.902C465.341 247.845 460.591 243.063 460.591 237.191V218.163C462.439 222.24 466.547 225.09 471.307 225.09H473.724C473.944 225.132 474.21 225.184 474.575 225.242C476.037 225.471 477.749 225.539 477.749 225.539C479.289 225.649 480.798 225.826 482.228 226.019C484.305 226.312 488.085 227.408 489.202 227.737C489.223 227.742 489.243 227.742 489.264 227.747C489.604 233.808 490.898 234.085 491.065 234.095H491.107C491.138 234.09 494.223 233.442 494.223 229.783C494.223 227.873 494.876 226.52 495.429 225.727C495.915 225.028 495.915 224.088 495.429 223.388C494.881 222.595 494.223 221.248 494.223 219.332C494.223 215.673 491.138 215.031 491.107 215.026H491.065C490.898 215.036 489.604 215.313 489.264 221.363C489.228 221.373 489.197 221.379 489.16 221.389C488.116 221.734 485.527 222.553 484.06 222.804C482.045 223.122 479.921 223.42 477.744 223.571C477.744 223.571 476.032 223.628 474.57 223.858C474.152 223.926 473.865 223.983 473.625 224.03H471.302C465.393 224.03 460.586 219.223 460.586 213.313V206.026C460.586 200.748 457.088 196.269 452.291 194.787C457.088 193.304 460.586 188.825 460.586 183.548L460.617 183.558ZM391.979 101.638C391.979 100.776 392.313 99.9725 392.918 99.3617C393.524 98.7561 394.333 98.4221 395.194 98.4221C396.056 98.4221 396.859 98.7561 397.47 99.3617C398.723 100.615 398.723 102.656 397.47 103.908C396.217 105.161 394.176 105.161 392.923 103.908C392.318 103.303 391.984 102.494 391.984 101.632L391.979 101.638ZM104.851 101.638C104.851 102.499 104.517 103.303 103.911 103.914C102.658 105.167 100.617 105.167 99.3645 103.914C98.7589 103.308 98.4249 102.499 98.4249 101.638C98.4249 100.776 98.7589 99.9725 99.3645 99.3617C99.97 98.7561 100.779 98.4221 101.64 98.4221C102.502 98.4221 103.306 98.7561 103.916 99.3617C104.522 99.9672 104.856 100.776 104.856 101.638H104.851ZM104.851 395.206C104.851 396.067 104.517 396.871 103.911 397.482C102.658 398.735 100.617 398.735 99.3645 397.482C98.7589 396.876 98.4249 396.067 98.4249 395.206C98.4249 394.345 98.7589 393.541 99.3645 392.93C99.97 392.324 100.779 391.99 101.64 391.99C102.502 391.99 103.306 392.324 103.916 392.93C104.522 393.535 104.856 394.345 104.856 395.206H104.851ZM391.979 395.206C391.979 394.345 392.313 393.541 392.918 392.93C393.545 392.304 394.369 391.99 395.194 391.99C396.019 391.99 396.839 392.304 397.47 392.93C398.723 394.183 398.723 396.224 397.47 397.477C396.865 398.082 396.056 398.416 395.194 398.416C394.333 398.416 393.529 398.082 392.918 397.477C392.313 396.871 391.979 396.062 391.979 395.201V395.206ZM436.03 194.797C436.03 193.022 437.471 191.582 439.246 191.582C441.021 191.582 442.462 193.022 442.462 194.797C442.462 196.572 441.021 198.013 439.246 198.013C437.471 198.013 436.03 196.572 436.03 194.797ZM315.338 140.742C320.95 146.307 328.393 149.361 336.317 149.361C336.385 149.361 336.453 149.361 336.521 149.361C342.529 149.319 348.245 147.528 353.084 144.229C349.806 149.048 348.026 154.727 347.984 160.694C347.932 168.712 351.022 176.255 356.696 181.924C365.054 190.282 376.444 194.996 388.868 195.288C379.785 198.159 373.176 206.799 373.176 216.983V226.813C373.176 238.349 363.081 248.09 351.127 248.09H340.629C335.654 248.122 331.635 244.969 328.769 241.184C327.924 240.093 327.057 238.965 326.3 237.817C324.066 234.299 322.834 230.269 321.842 226.239C320.548 220.81 319.681 215.292 319.117 209.738C318.24 201.38 317.771 192.902 316.382 184.571C316.382 184.545 316.372 184.519 316.366 184.487C318.783 185.213 321.122 186.147 323.32 187.432C330.116 191.315 332.69 199.114 332.763 206.699C332.841 213.642 332.59 215.156 332.59 227.773H340.77C340.77 209.174 339.491 202.466 338.171 198.994C336.323 194.145 333.008 189.927 328.889 186.732C325.016 183.751 320.412 182.185 315.751 181.199C314.759 176.574 313.198 172.027 310.243 168.185C307.043 164.066 302.826 160.746 297.982 158.903C294.51 157.583 287.802 156.304 269.203 156.304V164.489C281.82 164.489 283.334 164.238 290.277 164.317C297.861 164.39 305.66 166.963 309.544 173.76C310.802 175.921 311.726 178.218 312.446 180.593C304.131 179.21 295.674 178.74 287.333 177.863C281.779 177.299 276.261 176.433 270.832 175.138C266.797 174.146 262.772 172.914 259.254 170.68C258.106 169.923 256.983 169.057 255.887 168.211C252.066 165.319 248.892 161.263 248.976 156.231V147.549H248.945V144.892C248.945 133.121 258.523 123.542 270.294 123.542H280.171C290.172 123.542 298.66 116.954 301.526 107.886C301.583 120.305 306.48 131.967 315.343 140.753L315.338 140.742ZM313.261 313.573C310.149 314.298 306.95 314.794 303.755 315.332C298.242 316.177 292.668 316.819 287.103 317.649C278.782 318.991 270.305 320.39 262.543 323.851C259.948 325.01 257.646 326.44 255.475 328.246C252.061 330.951 248.945 334.902 248.417 339.376C247.885 334.902 244.774 330.951 241.36 328.246C239.188 326.44 236.886 325.01 234.292 323.851C226.53 320.39 218.052 318.996 209.732 317.649C204.167 316.819 198.592 316.177 193.08 315.332C190.083 314.831 187.077 314.366 184.148 313.708C183.386 310.519 182.88 307.225 182.332 303.936C181.486 298.423 180.844 292.848 180.014 287.284C178.672 278.963 177.273 270.485 173.813 262.723C172.654 260.128 171.077 257.68 169.271 255.508C166.63 252.173 162.913 249.228 158.596 248.623C162.913 248.017 166.63 245.078 169.271 241.737C171.077 239.566 172.654 237.117 173.813 234.523C177.273 226.761 178.667 218.283 180.014 209.962C180.844 204.397 181.486 198.822 182.332 193.31C182.88 190.026 183.391 186.732 184.148 183.537C187.077 182.885 190.083 182.415 193.08 181.914C198.592 181.068 204.167 180.426 209.732 179.596C218.058 178.255 226.535 176.856 234.292 173.395C236.886 172.236 239.481 170.513 241.652 168.702C245.04 166.018 247.901 162.343 248.417 157.969C248.934 162.343 251.795 166.018 255.182 168.702C257.354 170.508 259.948 172.236 262.548 173.395C270.31 176.856 278.787 178.249 287.108 179.596C292.673 180.426 298.248 181.068 303.76 181.914C306.955 182.452 310.16 182.947 313.266 183.673C314.007 186.821 314.508 190.068 315.051 193.31C315.897 198.822 316.539 204.397 317.369 209.962C318.71 218.288 320.109 226.766 323.57 234.523C324.729 237.117 326.452 239.712 328.263 241.884C330.894 245.209 334.485 248.028 338.755 248.618C334.485 249.207 330.894 252.026 328.263 255.352C326.457 257.523 324.729 260.118 323.57 262.712C320.109 270.475 318.715 278.952 317.369 287.273C316.539 292.838 315.897 298.413 315.051 303.926C314.508 307.167 314.007 310.414 313.266 313.562L313.261 313.573ZM302.027 54.3636C303.802 54.3636 305.243 55.8044 305.243 57.5792C305.243 59.3541 303.802 60.7949 302.027 60.7949C300.252 60.7949 298.811 59.3541 298.811 57.5792C298.811 55.8044 300.252 54.3636 302.027 54.3636ZM191.571 57.5792C191.571 55.8044 193.012 54.3636 194.787 54.3636C196.561 54.3636 198.002 55.8044 198.002 57.5792C198.002 59.3541 196.561 60.7949 194.787 60.7949C193.012 60.7949 191.571 59.3541 191.571 57.5792ZM195.309 93.4054C196.029 93.181 196.556 92.518 196.556 91.7245V73.2972H197.271C197.538 73.2972 197.757 73.078 197.757 72.8118V72.6343C197.757 72.3628 197.538 72.1488 197.271 72.1488H196.556V69.5074H197.209C197.553 69.5074 197.83 69.2307 197.83 68.8862C197.83 68.5416 197.553 68.265 197.209 68.265H196.556V65.6549C196.791 65.7019 197.042 65.728 197.292 65.728C199.391 65.728 201.087 64.0314 201.087 61.9277C201.087 60.2572 200.012 58.8425 198.514 58.3309C198.561 58.096 198.582 57.8507 198.582 57.6001C198.582 55.6791 197.157 54.0974 195.303 53.8416V47.9741C195.303 42.0648 200.111 37.257 206.02 37.257H237.168C242.44 37.257 246.914 33.7699 248.402 28.9778C249.889 33.7699 254.363 37.257 259.635 37.257H290.783C296.692 37.257 301.5 42.0648 301.5 47.9741V53.8416C299.647 54.0974 298.222 55.6791 298.222 57.6001C298.222 57.8507 298.248 58.096 298.289 58.3309C296.791 58.8425 295.716 60.2572 295.716 61.9277C295.716 64.0262 297.413 65.728 299.511 65.728C299.762 65.728 300.012 65.7019 300.247 65.6549V68.265H299.595C299.25 68.265 298.973 68.5416 298.973 68.8862C298.973 69.2307 299.25 69.5074 299.595 69.5074H300.247V91.7298C300.247 92.5285 300.779 93.1914 301.505 93.4107V101.131C301.505 112.903 291.926 122.482 280.155 122.482H270.279C259.578 122.482 250.604 130.03 248.407 140.084C246.204 130.03 237.236 122.482 226.535 122.482H216.659C204.887 122.482 195.309 112.903 195.309 101.131V93.4054ZM140.049 181.684C145.713 176.02 148.809 168.482 148.751 160.469C148.709 154.518 146.94 148.854 143.683 144.047C148.574 147.414 154.363 149.246 160.444 149.282C160.512 149.282 160.58 149.282 160.648 149.282C168.53 149.282 175.927 146.25 181.491 140.732C190.35 131.946 195.251 120.279 195.309 107.865C198.174 116.933 206.667 123.521 216.664 123.521H226.54C238.311 123.521 247.89 133.1 247.89 144.871V147.528H247.864V156.21C247.942 161.242 244.763 165.298 240.947 168.19C239.856 169.036 238.729 169.902 237.581 170.659C234.062 172.893 230.032 174.125 226.002 175.117C220.574 176.412 215.056 177.284 209.502 177.842C201.353 178.698 193.095 179.168 184.963 180.484C185.683 178.14 186.596 175.874 187.839 173.739C191.723 166.942 199.521 164.369 207.106 164.296C214.049 164.217 215.562 164.468 228.179 164.468V156.288C209.58 156.288 202.873 157.567 199.401 158.888C194.552 160.736 190.334 164.05 187.139 168.169C184.211 171.98 182.65 176.485 181.658 181.068C176.798 182.05 171.98 183.616 167.95 186.716C163.832 189.916 160.512 194.134 158.669 198.979C157.349 202.45 156.07 209.158 156.07 227.758H164.255C164.255 215.14 164.004 213.627 164.082 206.684C164.156 199.099 166.729 191.3 173.525 187.416C175.901 186.033 178.432 185.062 181.053 184.31C181.037 184.393 181.027 184.472 181.011 184.555C179.622 192.887 179.153 201.37 178.276 209.722C177.712 215.276 176.845 220.794 175.551 226.223C174.559 230.258 173.327 234.283 171.093 237.801C170.336 238.945 169.47 240.072 168.624 241.168C165.732 244.99 161.676 248.163 156.644 248.08H155.041H148.428H145.395C133.681 248.08 124.149 238.532 124.149 226.797V216.968C124.149 206.866 117.525 198.3 108.437 195.46C120.391 195.022 131.562 190.167 140.065 181.669L140.049 181.684ZM54.3573 194.797C54.3573 193.022 55.7981 191.582 57.5729 191.582C59.3477 191.582 60.7884 193.022 60.7884 194.797C60.7884 196.572 59.3477 198.013 57.5729 198.013C55.7981 198.013 54.3573 196.572 54.3573 194.797ZM60.7884 302.041C60.7884 303.816 59.3477 305.257 57.5729 305.257C55.7981 305.257 54.3573 303.816 54.3573 302.041C54.3573 300.266 55.7981 298.825 57.5729 298.825C59.3477 298.825 60.7884 300.266 60.7884 302.041ZM93.3875 301.477C93.1526 300.778 92.5001 300.271 91.7223 300.271H69.5007V299.619C69.5007 299.274 69.224 298.998 68.8795 298.998C68.535 298.998 68.2583 299.274 68.2583 299.619V300.271H65.6483C65.6953 300.037 65.7214 299.786 65.7214 299.535C65.7214 297.437 64.0248 295.74 61.9212 295.74C60.2508 295.74 58.8361 296.816 58.3246 298.314C58.0897 298.267 57.8443 298.246 57.5938 298.246C55.6728 298.246 54.0911 299.671 53.8353 301.524H47.968C42.0589 301.524 37.2513 296.716 37.2513 290.807V259.658C37.2513 254.386 33.7643 249.912 28.9723 248.424C33.7643 246.937 37.2513 242.463 37.2513 237.191V206.042C37.2513 200.132 42.0589 195.325 47.968 195.325H53.8353C54.0911 197.178 55.6728 198.603 57.5938 198.603C57.8443 198.603 58.0897 198.577 58.3246 198.535C58.8361 200.033 60.2508 201.109 61.9212 201.109C64.0196 201.109 65.7214 199.412 65.7214 197.313C65.7214 197.063 65.6953 196.812 65.6483 196.577H68.2583V197.23C68.2583 197.574 68.535 197.851 68.8795 197.851C69.224 197.851 69.5007 197.574 69.5007 197.23V196.577H91.7223C92.4427 196.577 93.0534 196.149 93.3301 195.533H101.844C113.558 195.533 123.09 205.159 123.09 216.999V226.828C123.09 237.483 130.58 246.415 140.566 248.628C130.591 250.836 123.09 259.945 123.09 270.819V280.649C123.09 292.337 113.756 301.493 101.844 301.493H93.3875V301.477ZM181.361 356.415C175.765 350.866 168.352 347.817 160.465 347.817C160.397 347.817 160.329 347.817 160.261 347.817C154.243 347.859 148.516 349.665 143.662 352.985C146.935 348.167 148.72 342.492 148.756 336.526C148.809 328.513 145.718 320.98 140.055 315.311C131.603 306.859 120.506 302.01 108.635 301.524C117.718 298.768 124.144 290.572 124.144 280.633V270.803C124.144 258.86 133.613 249.14 145.249 249.14H156.639C161.671 249.061 165.727 252.235 168.619 256.056C169.464 257.147 170.331 258.275 171.088 259.423C173.322 262.942 174.554 266.972 175.546 271.002C176.84 276.431 177.712 281.949 178.27 287.503C179.147 295.86 179.617 304.338 181.006 312.669C181.021 312.753 181.032 312.831 181.048 312.915C178.427 312.163 175.895 311.187 173.52 309.809C166.724 305.925 164.15 298.126 164.077 290.541C164.004 283.598 164.249 282.084 164.249 269.467H156.064C156.064 288.067 157.343 294.775 158.664 298.246C160.512 303.096 163.827 307.313 167.945 310.508C171.98 313.609 176.793 315.18 181.653 316.156C182.645 320.74 184.206 325.25 187.134 329.056C190.334 333.174 194.552 336.494 199.396 338.337C202.867 339.663 209.575 340.937 228.174 340.937V332.757C215.557 332.757 214.043 333.007 207.101 332.929C199.516 332.856 191.717 330.282 187.834 323.486C186.591 321.351 185.678 319.085 184.957 316.741C193.09 318.051 201.348 318.526 209.497 319.383C215.051 319.946 220.568 320.813 225.997 322.108C230.032 323.099 234.057 324.331 237.575 326.566C238.718 327.323 239.846 328.189 240.942 329.035C244.763 331.927 247.937 335.983 247.854 341.015V349.696H247.885V352.353C247.885 364.125 238.306 373.704 226.535 373.704H216.659C206.506 373.704 197.913 380.501 195.178 389.782V389.49C195.178 376.993 190.271 365.242 181.356 356.404L181.361 356.415ZM194.787 442.48C193.012 442.48 191.571 441.039 191.571 439.264C191.571 437.49 193.012 436.049 194.787 436.049C196.561 436.049 198.002 437.49 198.002 439.264C198.002 441.039 196.561 442.48 194.787 442.48ZM305.243 439.264C305.243 441.039 303.802 442.48 302.027 442.48C300.252 442.48 298.811 441.039 298.811 439.264C298.811 437.49 300.252 436.049 302.027 436.049C303.802 436.049 305.243 437.49 305.243 439.264ZM301.515 403.433C300.79 403.652 300.257 404.315 300.257 405.114V427.336H299.605C299.26 427.336 298.984 427.613 298.984 427.957C298.984 428.302 299.26 428.579 299.605 428.579H300.257V431.189C300.023 431.142 299.772 431.116 299.521 431.116C297.423 431.116 295.726 432.812 295.726 434.916C295.726 436.586 296.802 438.001 298.3 438.513C298.253 438.748 298.232 438.993 298.232 439.244C298.232 441.165 299.657 442.746 301.51 443.002V448.87C301.51 454.779 296.703 459.587 290.794 459.587H259.646C254.373 459.587 249.9 463.074 248.412 467.866C246.924 463.074 242.451 459.587 237.179 459.587H206.031C200.122 459.587 195.314 454.779 195.314 448.87V443.002C197.167 442.746 198.592 441.165 198.592 439.244C198.592 438.993 198.566 438.748 198.524 438.513C200.022 438.001 201.098 436.586 201.098 434.916C201.098 432.817 199.401 431.116 197.303 431.116C197.052 431.116 196.802 431.142 196.567 431.189V428.579H197.219C197.564 428.579 197.84 428.302 197.84 427.957C197.84 427.613 197.564 427.336 197.219 427.336H196.567V405.114C196.567 404.273 195.977 403.574 195.189 403.396V396.114H195.319C195.319 384.343 204.898 374.764 216.669 374.764H226.545C237.246 374.764 246.22 367.215 248.417 357.161C250.62 367.215 259.588 374.764 270.289 374.764H280.166C291.937 374.764 301.515 384.343 301.515 396.114V403.433ZM356.78 315.316C351.08 321.016 347.969 328.586 348.026 336.63C348.068 342.571 349.837 348.224 353.095 353.016C348.256 349.717 342.54 347.921 336.526 347.885C328.503 347.843 320.997 350.892 315.338 356.503C306.48 365.289 301.578 376.956 301.521 389.37C298.655 380.302 290.162 373.714 280.166 373.714H270.289C258.518 373.714 248.939 364.135 248.939 352.364V349.707H248.965V341.026C248.887 335.993 252.066 331.937 255.882 329.045C256.973 328.199 258.1 327.333 259.249 326.576C262.767 324.342 266.797 323.11 270.827 322.118C276.256 320.823 281.773 319.952 287.327 319.393C295.664 318.516 304.125 318.051 312.441 316.663C311.721 319.038 310.797 321.335 309.539 323.496C305.655 330.293 297.856 332.866 290.272 332.939C283.329 333.013 281.815 332.767 269.198 332.767V340.952C287.797 340.952 294.505 339.673 297.976 338.353C302.826 336.505 307.043 333.19 310.238 329.071C313.193 325.229 314.753 320.677 315.745 316.057C320.412 315.071 325.011 313.505 328.884 310.524C333.003 307.324 336.323 303.106 338.165 298.262C339.491 294.79 340.765 288.082 340.765 269.483H332.585C332.585 282.1 332.836 283.614 332.757 290.557C332.684 298.142 330.111 305.941 323.314 309.824C321.117 311.103 318.778 312.038 316.361 312.769C316.361 312.742 316.372 312.716 316.377 312.685C317.765 304.354 318.235 295.876 319.112 287.518C319.676 281.964 320.542 276.446 321.837 271.017C322.829 266.982 324.061 262.957 326.295 259.439C327.052 258.296 327.918 257.168 328.764 256.072C331.656 252.251 335.712 249.077 340.744 249.16H347.948V249.15H351.121C363.075 249.15 373.171 258.912 373.171 270.464V280.294C373.171 290.223 379.696 298.648 388.68 301.524C376.627 301.9 365.346 306.76 356.78 315.326V315.316ZM442.462 302.041C442.462 303.816 441.021 305.257 439.246 305.257C437.471 305.257 436.03 303.816 436.03 302.041C436.03 300.266 437.471 298.825 439.246 298.825C441.021 298.825 442.462 300.266 442.462 302.041ZM459.573 206.036V237.185C459.573 242.458 463.06 246.931 467.852 248.419C463.06 249.907 459.573 254.381 459.573 259.653V290.802C459.573 296.711 454.765 301.519 448.856 301.519H442.989C442.733 299.666 441.151 298.241 439.23 298.241C438.98 298.241 438.734 298.267 438.5 298.309C437.988 296.81 436.573 295.735 434.903 295.735C432.805 295.735 431.103 297.432 431.103 299.53C431.103 299.781 431.129 300.031 431.176 300.266H428.566V299.614C428.566 299.269 428.289 298.992 427.945 298.992C427.6 298.992 427.323 299.269 427.323 299.614V300.266H405.102C404.324 300.266 403.672 300.773 403.437 301.472H394.072C383.005 300.752 374.225 291.522 374.225 280.278V270.448C374.225 259.93 366.26 250.836 355.971 248.612C366.26 246.394 374.225 237.311 374.225 226.813V216.983C374.225 205.039 383.757 195.319 395.471 195.319H403.426C403.651 196.04 404.314 196.567 405.107 196.567H427.329V197.22C427.329 197.564 427.605 197.841 427.95 197.841C428.294 197.841 428.571 197.564 428.571 197.22V196.567H431.181C431.134 196.802 431.108 197.052 431.108 197.303C431.108 199.402 432.805 201.098 434.908 201.098C436.579 201.098 437.993 200.023 438.505 198.525C438.74 198.572 438.985 198.592 439.236 198.592C441.157 198.592 442.738 197.167 442.994 195.314H448.861C454.77 195.314 459.578 200.122 459.578 206.031L459.573 206.036Z" fill="white"/>
<path d="M156.13 261.242H147.945V269.427H156.13V261.242Z" fill="white"/>
<path d="M269.15 341.074H260.965V349.259H269.15V341.074Z" fill="white"/>
<path d="M349.099 261.234H340.914V269.419H349.099V261.234Z" fill="white"/>
<path d="M236.408 341.074H228.223V349.259H236.408V341.074Z" fill="white"/>
<path d="M212.405 265H207.776L207.688 264.883C208.362 264.678 208.797 264.292 208.992 263.726C209.188 263.159 209.285 262.183 209.285 260.796V249.399C209.285 248.003 209.183 247.017 208.978 246.44C208.772 245.854 208.343 245.483 207.688 245.327L207.776 245.195H217.796L218.733 249.546L218.587 249.634C218.187 248.667 217.757 247.9 217.298 247.334C216.849 246.768 216.282 246.338 215.599 246.045C214.915 245.742 214.08 245.591 213.094 245.591H210.896V254.98H213.035C213.934 254.98 214.637 254.79 215.145 254.409C215.662 254.019 216.048 253.379 216.302 252.49L216.419 252.578V257.734L216.302 257.866C216.038 256.968 215.662 256.328 215.174 255.947C214.695 255.566 213.982 255.376 213.035 255.376H210.896V260.796C210.896 262.183 210.994 263.159 211.189 263.726C211.385 264.292 211.819 264.678 212.493 264.883L212.405 265ZM224.08 254.497C224.08 253.511 223.841 252.72 223.362 252.124C222.894 251.528 222.249 251.23 221.429 251.23C220.843 251.23 220.271 251.396 219.715 251.729C219.158 252.051 218.704 252.554 218.353 253.237L218.221 253.179C218.445 252.3 218.909 251.602 219.612 251.084C220.315 250.557 221.121 250.293 222.029 250.293C223.045 250.293 223.88 250.64 224.534 251.333C225.188 252.017 225.516 252.993 225.516 254.263V262.964C225.516 263.481 225.628 263.877 225.853 264.15C226.087 264.414 226.395 264.546 226.775 264.546C227.146 264.546 227.566 264.409 228.035 264.136L228.123 264.224C227.498 265.044 226.79 265.454 225.999 265.454C225.472 265.454 225.022 265.264 224.651 264.883C224.29 264.492 224.109 263.921 224.109 263.169H224.051C223.172 264.692 222.049 265.454 220.682 265.454C219.803 265.454 219.041 265.137 218.396 264.502C217.762 263.867 217.444 263.003 217.444 261.909C217.444 261.489 217.498 261.094 217.605 260.723C217.723 260.352 217.859 260.034 218.016 259.771C218.182 259.507 218.396 259.253 218.66 259.009C218.924 258.765 219.163 258.574 219.378 258.438C219.593 258.291 219.861 258.145 220.184 257.998C220.506 257.842 220.75 257.734 220.916 257.676C221.092 257.607 221.316 257.529 221.59 257.441C223.25 256.885 224.08 256.323 224.08 255.757V254.497ZM219.041 261.675C219.041 262.476 219.246 263.12 219.656 263.608C220.066 264.097 220.608 264.341 221.282 264.341C221.751 264.341 222.239 264.204 222.747 263.931C223.255 263.647 223.699 263.203 224.08 262.598V256.812C223.289 257.173 222.718 257.412 222.366 257.529C220.149 258.398 219.041 259.78 219.041 261.675ZM231.097 247.817C230.843 248.071 230.535 248.198 230.174 248.198C229.812 248.198 229.5 248.071 229.236 247.817C228.982 247.554 228.855 247.241 228.855 246.88C228.855 246.519 228.982 246.211 229.236 245.957C229.5 245.693 229.812 245.562 230.174 245.562C230.535 245.562 230.843 245.693 231.097 245.957C231.36 246.211 231.492 246.519 231.492 246.88C231.492 247.241 231.36 247.554 231.097 247.817ZM228.05 251.23L228.138 251.113L230.921 250.337L231.009 250.425V261.396C231.009 262.559 231.111 263.398 231.316 263.916C231.531 264.434 231.902 264.756 232.43 264.883L232.327 265H228.255L228.167 264.883C228.694 264.756 229.061 264.434 229.266 263.916C229.471 263.398 229.573 262.559 229.573 261.396V254.717C229.573 253.594 229.456 252.773 229.222 252.256C228.997 251.738 228.606 251.396 228.05 251.23ZM236.019 261.396C236.019 262.559 236.121 263.398 236.326 263.916C236.541 264.434 236.912 264.756 237.439 264.883L237.337 265H233.265L233.177 264.883C233.704 264.756 234.07 264.434 234.275 263.916C234.48 263.398 234.583 262.559 234.583 261.396V254.717C234.583 253.594 234.466 252.773 234.231 252.256C234.007 251.738 233.616 251.396 233.06 251.23L233.147 251.113L235.931 250.337L236.019 250.425V253.032H236.048C236.351 251.929 236.927 251.133 237.776 250.645C238.636 250.156 239.583 250.083 240.618 250.425L240.223 252.095L240.164 252.153C239.686 251.841 239.144 251.685 238.538 251.685C237.991 251.685 237.488 251.846 237.029 252.168C236.58 252.48 236.243 252.91 236.019 253.457V261.396ZM243.694 252.227C244.524 250.938 245.584 250.293 246.873 250.293C248.25 250.293 249.383 251.006 250.271 252.432C251.17 253.848 251.619 255.625 251.619 257.764C251.619 259.98 251.146 261.816 250.198 263.271C249.261 264.727 248.055 265.454 246.58 265.454C245.672 265.454 244.681 265.083 243.606 264.341L242.376 265.454H242.259V249.165C242.259 248.042 242.142 247.222 241.907 246.704C241.673 246.187 241.277 245.845 240.721 245.679L240.823 245.562L243.606 244.785L243.694 244.873V252.227ZM243.694 261.396C243.694 262.412 243.958 263.267 244.485 263.96C245.013 264.653 245.662 265 246.434 265C247.195 265 247.845 264.697 248.382 264.092C248.929 263.486 249.329 262.705 249.583 261.748C249.837 260.781 249.964 259.697 249.964 258.496C249.964 256.348 249.612 254.619 248.909 253.311C248.216 252.002 247.288 251.348 246.126 251.348C245.325 251.348 244.515 251.787 243.694 252.666V261.396ZM255.618 261.396C255.618 262.559 255.721 263.398 255.926 263.916C256.141 264.434 256.512 264.756 257.039 264.883L256.937 265H252.864L252.776 264.883C253.304 264.756 253.67 264.434 253.875 263.916C254.08 263.398 254.183 262.559 254.183 261.396V249.165C254.183 248.042 254.065 247.222 253.831 246.704C253.606 246.187 253.216 245.845 252.659 245.679L252.747 245.562L255.53 244.785L255.618 244.873V261.396ZM263.147 265.454C261.595 265.454 260.35 264.775 259.412 263.418C258.484 262.051 258.021 260.21 258.021 257.896C258.021 255.571 258.484 253.726 259.412 252.358C260.34 250.981 261.585 250.293 263.147 250.293C264.71 250.293 265.955 250.981 266.883 252.358C267.82 253.735 268.289 255.581 268.289 257.896C268.289 260.19 267.82 262.026 266.883 263.403C265.955 264.771 264.71 265.454 263.147 265.454ZM259.764 257.705C259.764 259.941 260.086 261.719 260.73 263.037C261.375 264.346 262.244 265 263.338 265C264.344 265 265.13 264.385 265.696 263.154C266.263 261.914 266.546 260.21 266.546 258.042C266.546 255.806 266.229 254.033 265.594 252.725C264.959 251.406 264.104 250.747 263.03 250.747C262.015 250.747 261.214 251.367 260.628 252.607C260.052 253.848 259.764 255.547 259.764 257.705ZM278.895 262.217C278.602 263.213 278.123 264.004 277.459 264.59C276.795 265.166 275.994 265.454 275.057 265.454C274.012 265.454 273.074 265.107 272.244 264.414C271.414 263.711 270.774 262.764 270.325 261.572C269.876 260.381 269.651 259.053 269.651 257.588C269.651 255.371 270.12 253.604 271.058 252.285C272.005 250.957 273.265 250.293 274.837 250.293C275.374 250.293 276.116 250.386 277.063 250.571L277.928 250.747L278.411 254.043L278.265 254.116C277.776 252.974 277.249 252.129 276.683 251.582C276.126 251.025 275.501 250.747 274.808 250.747C273.772 250.747 272.928 251.333 272.273 252.505C271.629 253.677 271.307 255.2 271.307 257.075C271.307 259.214 271.717 260.972 272.537 262.349C273.357 263.716 274.378 264.399 275.599 264.399C276.243 264.399 276.844 264.194 277.4 263.784C277.957 263.374 278.396 262.827 278.719 262.144L278.895 262.217ZM279.202 264.883C279.729 264.756 280.096 264.434 280.301 263.916C280.506 263.398 280.608 262.559 280.608 261.396V249.165C280.608 248.042 280.491 247.222 280.257 246.704C280.032 246.187 279.642 245.845 279.085 245.679L279.173 245.562L281.956 244.785L282.044 244.873V261.396C282.044 262.559 282.146 263.398 282.352 263.916C282.566 264.434 282.938 264.756 283.465 264.883L283.362 265H279.29L279.202 264.883ZM282.073 256.987L285.735 253.179C286.155 252.759 286.365 252.339 286.365 251.919C286.365 251.304 286.004 250.952 285.281 250.864L285.384 250.747H290.027L290.115 250.864C289.451 250.942 288.895 251.089 288.445 251.304C288.006 251.519 287.571 251.855 287.142 252.314L283.362 256.24L287.962 262.568C288.548 263.369 289.012 263.931 289.354 264.253C289.695 264.575 290.101 264.785 290.569 264.883L290.481 265H286.453L286.365 264.883C286.707 264.717 286.893 264.478 286.922 264.165C286.951 263.853 286.824 263.511 286.541 263.14L282.073 256.987Z" fill="white"/>
</svg>
