<svg width="496" height="495" viewBox="0 0 496 495" fill="none" xmlns="http://www.w3.org/2000/svg">
<path d="M459.817 182.613V175.326C459.817 169.416 464.625 164.608 470.534 164.608H472.951C473.17 164.65 473.436 164.702 473.802 164.76C475.263 164.99 476.975 165.057 476.975 165.057C478.515 165.167 480.024 165.345 481.454 165.538C483.532 165.83 487.311 166.926 488.428 167.255C488.449 167.26 488.47 167.26 488.491 167.266C488.83 173.326 490.125 173.603 490.292 173.613H490.333C490.365 173.608 493.45 172.961 493.45 169.301C493.45 167.391 494.102 166.039 494.656 165.245C495.141 164.546 495.141 163.606 494.656 162.907C494.107 162.113 493.45 160.766 493.45 158.851C493.45 155.191 490.365 154.549 490.333 154.544H490.292C490.125 154.554 488.83 154.831 488.491 160.881C488.454 160.892 488.423 160.897 488.386 160.907C487.342 161.252 484.753 162.071 483.286 162.322C481.271 162.64 479.147 162.938 476.97 163.089C476.97 163.089 475.258 163.147 473.796 163.377C473.379 163.444 473.092 163.502 472.851 163.549H470.529C465.768 163.549 461.66 166.394 459.812 170.476V151.448C459.812 145.539 464.619 140.731 470.529 140.731H472.945C473.165 140.773 473.431 140.825 473.796 140.883C475.258 141.112 476.97 141.18 476.97 141.18C478.51 141.29 480.019 141.467 481.449 141.66C483.526 141.953 487.306 143.049 488.423 143.378C488.444 143.383 488.465 143.383 488.485 143.388C488.825 149.449 490.119 149.726 490.286 149.736H490.328C490.359 149.731 493.445 149.084 493.445 145.424C493.445 143.514 494.097 142.162 494.65 141.368C495.136 140.669 495.136 139.729 494.65 139.03C494.102 138.236 493.445 136.889 493.445 134.973C493.445 131.314 490.359 130.672 490.328 130.667H490.286C490.119 130.677 488.825 130.954 488.485 137.004C488.449 137.015 488.418 137.02 488.381 137.03C487.337 137.375 484.748 138.194 483.281 138.445C481.266 138.763 479.142 139.061 476.965 139.212C476.965 139.212 475.253 139.27 473.791 139.499C473.373 139.567 473.086 139.625 472.846 139.672H470.523C464.04 139.672 458.763 144.949 458.763 151.433V182.582C458.763 188.491 453.955 193.299 448.046 193.299H442.179C441.923 191.446 440.341 190.02 438.42 190.02C438.17 190.02 437.924 190.047 437.689 190.093C437.178 188.595 435.763 187.52 434.093 187.52C431.994 187.52 430.293 189.222 430.293 191.32C430.293 191.571 430.319 191.816 430.366 192.056H427.756V191.409C427.756 191.064 427.479 190.788 427.134 190.788C426.79 190.788 426.513 191.064 426.513 191.409V192.056H412.419V188.945H410.9V190.762H409.386V188.945H407.872V190.762H406.359V188.945H404.84V192.056H404.297C403.503 192.056 402.84 192.584 402.616 193.299H389.294C376.667 193.299 365.068 188.653 356.627 180.212C351.157 174.741 348.171 167.464 348.223 159.728C348.275 152.017 351.334 144.813 356.841 139.426L369.589 126.449C370.226 126.699 370.977 126.574 371.489 126.057L387.201 110.345L387.661 110.804C387.906 111.049 388.297 111.049 388.543 110.804C388.788 110.559 388.788 110.167 388.543 109.922L388.083 109.462L389.926 107.62C390.062 107.818 390.218 108.016 390.396 108.194C391.878 109.676 394.28 109.676 395.767 108.194C396.947 107.014 397.192 105.25 396.493 103.83C396.691 103.694 396.884 103.537 397.062 103.36C398.419 102.003 398.534 99.8728 397.401 98.3851L401.551 94.235C405.732 90.0588 412.529 90.0588 416.705 94.235L438.728 116.259C440.952 118.483 443.901 119.704 447.044 119.704C450.186 119.704 453.135 118.483 455.359 116.259L457.066 114.552C457.254 114.427 457.473 114.275 457.776 114.056C458.971 113.184 460.229 112.02 460.229 112.02C461.399 111.007 462.589 110.068 463.737 109.191C465.408 107.928 468.863 106.027 469.881 105.474C469.902 105.464 469.918 105.448 469.933 105.438C474.459 109.483 475.571 108.768 475.696 108.653L475.712 108.638L475.728 108.622C475.743 108.596 477.471 105.96 474.882 103.37C473.53 102.018 473.039 100.604 472.867 99.6536C472.716 98.8183 472.053 98.1502 471.212 97.9988C470.262 97.8265 468.848 97.3358 467.496 95.9838C464.907 93.3945 462.27 95.1224 462.25 95.1433L462.234 95.159L462.218 95.1746C462.103 95.2999 461.388 96.4066 465.429 100.927C465.413 100.959 465.392 100.99 465.376 101.021C464.88 102.003 463.633 104.414 462.772 105.625C461.571 107.275 460.282 108.987 458.846 110.632C458.846 110.632 457.677 111.884 456.805 113.08C456.555 113.424 456.393 113.665 456.262 113.873L454.618 115.518C452.593 117.543 449.904 118.655 447.038 118.655C444.173 118.655 441.484 117.538 439.459 115.518L425.996 102.055C427.338 102.561 428.753 102.827 430.167 102.827C433.179 102.827 436.191 101.679 438.483 99.3873L440.19 97.6803C440.378 97.555 440.597 97.4037 440.9 97.1844C442.095 96.3126 443.353 95.1485 443.353 95.1485C444.522 94.1358 445.713 93.1962 446.861 92.3192C448.537 91.0559 451.987 89.1557 453.005 88.6024C453.026 88.592 453.041 88.5763 453.057 88.5659C457.583 92.6115 458.695 91.8964 458.82 91.7815L458.836 91.7658L458.851 91.7502C458.867 91.7241 460.595 89.0879 458.006 86.4987C456.654 85.1466 456.163 83.732 455.991 82.7819C455.839 81.9467 455.176 81.2785 454.336 81.1271C453.386 80.9548 451.971 80.4641 450.619 79.1121C448.03 76.5229 445.394 78.2508 445.373 78.2716L445.358 78.2873L445.342 78.303C445.227 78.4282 444.512 79.5349 448.552 84.0556C448.537 84.0869 448.516 84.1183 448.5 84.1496C448.004 85.131 446.757 87.5427 445.895 88.7538C444.695 90.4034 443.405 92.1156 441.97 93.76C441.97 93.76 440.8 95.0128 439.929 96.2082C439.678 96.5528 439.516 96.7929 439.386 96.9965L437.742 98.6408C433.56 102.817 426.764 102.817 422.588 98.6408L417.436 93.4885C413.703 89.7561 408.071 89.0618 403.629 91.4057C404.516 89.7352 404.986 87.8611 404.986 85.914C404.986 82.7715 403.764 79.8168 401.541 77.5982L396.383 72.4407C392.207 68.2593 392.207 61.4678 396.383 57.2864L398.09 55.5794C398.278 55.4542 398.497 55.3028 398.8 55.0835C399.995 54.2118 401.253 53.0476 401.253 53.0476C402.423 52.0349 403.613 51.0953 404.761 50.2183C406.432 48.955 409.887 47.0549 410.905 46.5015C410.926 46.4911 410.942 46.4754 410.958 46.465C415.483 50.5106 416.595 49.7955 416.72 49.6806L416.736 49.665L416.752 49.6493C416.767 49.6232 418.495 46.987 415.906 44.3978C414.554 43.0457 414.063 41.6311 413.891 40.681C413.74 39.8458 413.077 39.1776 412.236 39.0262C411.286 38.8539 409.872 38.3632 408.52 37.0112C405.931 34.422 403.295 36.1499 403.274 36.1707L403.258 36.1864L403.242 36.2021C403.127 36.3274 402.412 37.434 406.453 41.9547C406.437 41.986 406.416 42.0174 406.4 42.0487C405.905 43.0301 404.657 45.4418 403.796 46.6529C402.595 48.3025 401.306 50.0147 399.87 51.6591C399.87 51.6591 398.701 52.9119 397.829 54.1073C397.579 54.4519 397.417 54.692 397.286 54.9008L395.642 56.5452C392.27 59.9174 391.388 64.8401 392.975 69.0319L379.512 55.569C377.487 53.5436 376.375 50.8552 376.375 47.9893C376.375 45.1234 377.492 42.435 379.512 40.4096L381.219 38.7025C381.407 38.5773 381.626 38.4259 381.929 38.2066C383.124 37.3349 384.382 36.1707 384.382 36.1707C385.552 35.158 386.742 34.2184 387.89 33.3414C389.566 32.0781 393.016 30.178 394.034 29.6246C394.055 29.6142 394.071 29.5985 394.086 29.5881C398.612 33.6337 399.724 32.9186 399.849 32.8037L399.865 32.7881L399.881 32.7724C399.896 32.7463 401.624 30.1101 399.035 27.5209C397.683 26.1688 397.192 24.7542 397.02 23.8041C396.869 22.9689 396.206 22.3007 395.365 22.1493C394.415 21.977 393.001 21.4863 391.649 20.1343C389.06 17.5451 386.423 19.273 386.403 19.2938L386.387 19.3095L386.371 19.3252C386.256 19.4505 385.541 20.5571 389.582 25.0778C389.566 25.1091 389.545 25.1405 389.529 25.1718C389.033 26.1532 387.786 28.5649 386.925 29.776C385.724 31.4256 384.435 33.1378 382.999 34.7822C382.999 34.7822 381.83 36.035 380.958 37.2304C380.707 37.575 380.546 37.8151 380.415 38.0187L378.771 39.6631C376.547 41.8816 375.326 44.8363 375.326 47.9788C375.326 51.1214 376.547 54.0708 378.771 56.2946L395.642 73.1663L400.794 78.3186C402.819 80.3441 403.931 83.0325 403.931 85.8983C403.931 88.7642 402.814 91.4526 400.794 93.4781L396.644 97.6281C395.157 96.5006 393.027 96.6102 391.67 97.9674C391.492 98.1449 391.341 98.3381 391.205 98.5364C389.785 97.8369 388.021 98.0771 386.841 99.2568C385.358 100.739 385.358 103.146 386.841 104.628C387.018 104.806 387.212 104.963 387.415 105.098L385.573 106.941L385.113 106.482C384.868 106.236 384.476 106.236 384.231 106.482C383.986 106.727 383.986 107.118 384.231 107.364L384.69 107.823L374.72 117.794L372.522 115.596L371.447 116.671L372.731 117.956L371.661 119.026L370.377 117.742L369.307 118.812L370.591 120.096L369.521 121.166L368.237 119.882L367.161 120.957L369.359 123.155L368.973 123.541C368.367 124.147 368.294 125.086 368.754 125.77L356.137 138.612C356.105 138.643 356.079 138.675 356.048 138.701L356.017 138.732C350.63 144.218 343.41 147.267 335.69 147.319C327.99 147.382 320.708 144.417 315.243 139.003C306.531 130.364 301.734 118.874 301.734 106.659V92.4079C302.449 92.1835 302.965 91.5205 302.965 90.7323V90.1893H306.077V88.6703H304.26V87.1564H306.077V85.6426H304.26V84.1287H306.077V82.6096H302.965V68.5151H303.613C303.957 68.5151 304.234 68.2384 304.234 67.8939C304.234 67.5494 303.957 67.2727 303.613 67.2727H302.965V64.6626C303.206 64.7096 303.451 64.7357 303.702 64.7357C305.8 64.7357 307.502 63.0391 307.502 60.9354C307.502 59.2649 306.426 57.8502 304.928 57.3387C304.975 57.1037 305.001 56.8584 305.001 56.6078C305.001 54.6868 303.576 53.1051 301.723 52.8493V46.9818C301.723 41.0725 306.531 36.2647 312.44 36.2647H343.588C350.071 36.2647 355.349 30.9871 355.349 24.5036V22.1806C355.401 21.9405 355.458 21.6586 355.521 21.2358C355.75 19.7741 355.808 18.0619 355.808 18.0619C355.959 15.8851 356.257 13.7604 356.575 11.7454C356.826 10.2786 357.645 7.68935 357.99 6.64531C358 6.60877 358.011 6.57745 358.016 6.54091C364.066 6.20159 364.343 4.91221 364.353 4.73994V4.69818C364.353 4.66686 363.706 1.58172 360.047 1.58172C358.136 1.58172 356.784 0.929195 355.991 0.375854C355.291 -0.109624 354.351 -0.109624 353.652 0.375854C352.859 0.923975 351.512 1.58172 349.596 1.58172C345.937 1.58172 345.295 4.66686 345.284 4.69818V4.73994C345.295 4.90699 345.571 6.20159 351.632 6.54091C351.637 6.56179 351.637 6.58267 351.642 6.60355C351.976 7.71545 353.073 11.5001 353.36 13.5777C353.553 15.0081 353.73 16.5167 353.84 18.0567C353.84 18.0567 353.908 19.7689 354.137 21.2305C354.195 21.596 354.247 21.8622 354.289 22.0814V24.4984C354.289 30.4077 349.481 35.2155 343.572 35.2155H324.545C328.622 33.3675 331.472 29.2592 331.472 24.4984V22.1754C331.524 21.9353 331.582 21.6534 331.644 21.2305C331.874 19.7689 331.931 18.0567 331.931 18.0567C332.083 15.8798 332.38 13.7552 332.699 11.7402C332.949 10.2733 333.769 7.68413 334.113 6.64009C334.124 6.60355 334.134 6.57223 334.14 6.53569C340.19 6.19637 340.466 4.90699 340.477 4.73472V4.69296C340.477 4.66164 339.829 1.5765 336.17 1.5765C334.26 1.5765 332.908 0.923975 332.114 0.370634C331.415 -0.114844 330.475 -0.114844 329.776 0.370634C328.982 0.918755 327.635 1.5765 325.72 1.5765C322.06 1.5765 321.418 4.66164 321.408 4.69296V4.73472C321.418 4.90177 321.695 6.19637 327.755 6.53569C327.761 6.55657 327.761 6.57745 327.766 6.59833C328.1 7.71023 329.196 11.4949 329.483 13.5725C329.676 15.0028 329.854 16.5115 329.963 18.0514C329.963 18.0514 330.031 19.7637 330.261 21.2253C330.318 21.5907 330.371 21.857 330.412 22.0762V24.4932C330.412 30.4024 325.605 35.2102 319.696 35.2102H312.409C307.131 35.2102 302.652 38.7078 301.17 43.5051C299.687 38.7078 295.209 35.2102 289.931 35.2102H282.644C276.735 35.2102 271.927 30.4024 271.927 24.4932V22.1702C271.979 21.93 272.037 21.6482 272.099 21.2253C272.329 19.7637 272.387 18.0514 272.387 18.0514C272.538 15.8746 272.835 13.75 273.154 11.735C273.404 10.2681 274.224 7.67891 274.569 6.63487C274.579 6.59833 274.589 6.56701 274.595 6.53047C280.645 6.19115 280.921 4.90177 280.932 4.7295V4.68774C280.932 4.65642 280.284 1.57128 276.625 1.57128C274.715 1.57128 273.363 0.918755 272.569 0.365414C271.87 -0.120065 270.93 -0.120065 270.231 0.365414C269.437 0.913535 268.09 1.57128 266.175 1.57128C262.515 1.57128 261.873 4.65642 261.863 4.68774V4.7295C261.873 4.89654 262.15 6.19115 268.211 6.53047C268.216 6.55135 268.216 6.57223 268.221 6.59311C268.555 7.70501 269.651 11.4897 269.938 13.5673C270.131 14.9976 270.309 16.5063 270.419 18.0462C270.419 18.0462 270.486 19.7584 270.716 21.2201C270.774 21.5855 270.826 21.8517 270.868 22.071V24.4879C270.868 29.2488 273.712 33.3571 277.795 35.205H258.767C252.895 35.205 248.113 30.4546 248.056 24.5924C248.056 24.5558 248.056 24.5245 248.056 24.4879V22.1284C248.103 21.8987 248.16 21.6221 248.223 21.2253C248.453 19.7637 248.51 18.0514 248.51 18.0514C248.541 17.6338 248.578 17.2162 248.615 16.8038C248.63 16.6472 248.641 16.4906 248.656 16.334C248.782 15.1125 248.943 13.917 249.121 12.7477C249.528 10.6179 250.41 7.57451 250.703 6.59833C250.703 6.59311 250.703 6.58789 250.703 6.57745C250.703 6.56179 250.713 6.54613 250.713 6.53047C256.773 6.19115 257.05 4.89654 257.055 4.7295V4.68774C257.05 4.65642 256.403 1.57128 252.744 1.57128C250.833 1.57128 249.481 0.918755 248.688 0.365414C248.338 0.125285 247.925 0 247.518 0C247.106 0 246.699 0.120065 246.349 0.365414C245.556 0.913535 244.209 1.57128 242.293 1.57128C238.634 1.57128 237.992 4.65642 237.981 4.68774V4.7295C237.992 4.89654 238.268 6.19115 244.324 6.53047C244.324 6.54613 244.334 6.56179 244.334 6.57745C244.334 6.58267 244.334 6.58789 244.334 6.59833C244.626 7.57451 245.509 10.6179 245.916 12.7477C246.093 13.917 246.255 15.1125 246.38 16.334C246.396 16.4906 246.406 16.6472 246.422 16.8038C246.459 17.2162 246.5 17.6338 246.527 18.0514C246.527 18.0514 246.584 19.7637 246.814 21.2253C246.876 21.6221 246.934 21.8987 246.981 22.1336V24.4932C246.981 24.5297 246.981 24.561 246.981 24.5976C246.923 30.4599 242.142 35.2102 236.269 35.2102H217.242C221.319 33.3623 224.169 29.254 224.169 24.4932V22.0762C224.211 21.857 224.263 21.5907 224.32 21.2253C224.55 19.7637 224.618 18.0514 224.618 18.0514C224.728 16.5115 224.905 15.0028 225.098 13.5725C225.391 11.4949 226.487 7.71545 226.816 6.59833C226.821 6.57745 226.821 6.55657 226.826 6.53569C232.887 6.19637 233.163 4.90177 233.174 4.73472V4.69296C233.168 4.66164 232.521 1.5765 228.862 1.5765C226.951 1.5765 225.599 0.923975 224.806 0.370634C224.106 -0.114844 223.167 -0.114844 222.467 0.370634C221.674 0.918755 220.327 1.5765 218.411 1.5765C214.752 1.5765 214.11 4.66164 214.105 4.69296V4.73472C214.115 4.90177 214.392 6.19637 220.442 6.53569C220.452 6.57223 220.458 6.60355 220.468 6.64009C220.813 7.68413 221.632 10.2733 221.883 11.7402C222.201 13.7552 222.499 15.8798 222.65 18.0567C222.65 18.0567 222.707 19.7689 222.937 21.2305C223.005 21.6482 223.062 21.9353 223.109 22.1754V24.4984C223.109 30.4077 218.302 35.2155 212.393 35.2155H205.106C199.828 35.2155 195.349 38.713 193.867 43.5103C192.384 38.713 187.906 35.2155 182.628 35.2155H175.341C169.432 35.2155 164.624 30.4077 164.624 24.4984V22.0814C164.666 21.8622 164.718 21.596 164.776 21.2305C165.005 19.7689 165.073 18.0567 165.073 18.0567C165.183 16.5167 165.36 15.0081 165.553 13.5777C165.846 11.5001 166.942 7.72067 167.271 6.60355C167.276 6.58267 167.276 6.56179 167.281 6.54091C173.342 6.20159 173.618 4.90699 173.629 4.73994V4.69818C173.624 4.66686 172.976 1.58172 169.317 1.58172C167.406 1.58172 166.054 0.929195 165.261 0.375854C164.562 -0.109624 163.622 -0.109624 162.922 0.375854C162.129 0.923975 160.782 1.58172 158.866 1.58172C155.207 1.58172 154.565 4.66686 154.56 4.69818V4.73994C154.57 4.90699 154.847 6.20159 160.897 6.54091C160.908 6.57745 160.913 6.60877 160.923 6.64531C161.268 7.68935 162.087 10.2786 162.338 11.7454C162.656 13.7604 162.954 15.8851 163.105 18.0619C163.105 18.0619 163.163 19.7741 163.392 21.2358C163.46 21.6534 163.518 21.9405 163.565 22.1806V24.5036C163.565 29.2644 166.409 33.3727 170.492 35.2207H151.464C145.555 35.2207 140.748 30.4129 140.748 24.5036V22.0867C140.79 21.8674 140.842 21.6012 140.899 21.2358C141.129 19.7741 141.197 18.0619 141.197 18.0619C141.306 16.5219 141.484 15.0133 141.677 13.583C141.969 11.5053 143.065 7.72589 143.394 6.60877C143.4 6.58789 143.4 6.56701 143.405 6.54613C149.465 6.20681 149.742 4.91221 149.752 4.74516V4.7034C149.747 4.67208 149.1 1.58694 145.441 1.58694C143.53 1.58694 142.178 0.934415 141.385 0.381074C140.685 -0.104404 139.746 -0.104404 139.046 0.381074C138.253 0.929195 136.906 1.58694 134.99 1.58694C131.331 1.58694 130.689 4.67208 130.684 4.7034V4.74516C130.694 4.91221 130.971 6.20681 137.021 6.54613C137.031 6.58267 137.036 6.61399 137.047 6.65053C137.391 7.69457 138.211 10.2838 138.461 11.7507C138.78 13.7657 139.077 15.8903 139.229 18.0671C139.229 18.0671 139.286 19.7793 139.516 21.241C139.584 21.6586 139.641 21.9457 139.688 22.1858V24.5088C139.688 30.9923 144.966 36.2699 151.449 36.2699H182.597C188.506 36.2699 193.313 41.0777 193.313 46.987V52.8545C191.46 53.1103 190.035 54.692 190.035 56.613C190.035 56.8636 190.061 57.109 190.108 57.3439C188.61 57.8555 187.535 59.2701 187.535 60.9406C187.535 63.0391 189.237 64.7409 191.335 64.7409C191.586 64.7409 191.831 64.7148 192.071 64.6678V67.2779H191.424C191.079 67.2779 190.803 67.5546 190.803 67.8991C190.803 68.2436 191.079 68.5203 191.424 68.5203H192.071V71.1617H191.664C191.398 71.1617 191.178 71.381 191.178 71.6472V71.8247C191.178 72.0961 191.398 72.3102 191.664 72.3102H192.071V82.6148H188.96V84.1339H190.777V85.6478H188.96V87.1616H190.777V88.6755H188.96V90.1946H192.071V90.7375C192.071 91.5309 192.598 92.1939 193.313 92.4184V106.664C193.313 118.885 188.516 130.369 179.799 139.009C174.386 144.38 167.192 147.314 159.493 147.257C151.725 147.204 144.459 144.13 139.025 138.596C138.957 138.534 138.889 138.461 138.822 138.393L126.293 125.775C126.758 125.086 126.685 124.152 126.074 123.541L110.362 107.828L110.821 107.369C111.067 107.124 111.067 106.732 110.821 106.487C110.576 106.241 110.184 106.241 109.939 106.487L109.48 106.946L107.637 105.103C107.835 104.968 108.034 104.811 108.211 104.634C109.694 103.151 109.694 100.75 108.211 99.2621C107.032 98.0823 105.267 97.8369 103.847 98.5364C103.712 98.3381 103.555 98.1449 103.378 97.9674C102.02 96.6102 99.8905 96.4953 98.4028 97.6281L94.2529 93.4781C90.0769 89.3019 90.0769 82.5 94.2529 78.3238L99.4051 73.1715L116.276 56.2998C120.859 51.7165 120.859 44.2516 116.276 39.6683L114.569 37.9613C114.444 37.7733 114.293 37.5541 114.073 37.2513C113.202 36.0559 112.038 34.7978 112.038 34.7978C111.025 33.6285 110.085 32.4383 109.208 31.2899C107.945 29.6142 106.045 26.1636 105.492 25.1457C105.481 25.1248 105.466 25.1091 105.455 25.0935C109.501 20.5676 108.785 19.4557 108.671 19.3304L108.655 19.3147L108.639 19.2991C108.613 19.2834 105.977 17.5555 103.388 20.1447C102.036 21.4968 100.621 21.9875 99.6713 22.1597C98.8361 22.3111 98.1679 22.9741 98.0166 23.8145C97.8443 24.7646 97.3536 26.1793 96.0016 27.5313C93.4125 30.1205 95.1403 32.7567 95.1612 32.7776L95.1769 32.7933L95.1925 32.8089C95.3178 32.9238 96.4245 33.639 100.945 29.5985C100.976 29.6142 101.008 29.6351 101.039 29.6507C102.02 30.1466 104.432 31.3943 105.643 32.2556C107.293 33.4562 109.005 34.7456 110.649 36.1812C110.649 36.1812 111.897 37.3505 113.097 38.2223C113.442 38.4729 113.682 38.6347 113.885 38.7652L115.53 40.4096C119.706 44.5857 119.706 51.3876 115.53 55.5638L102.067 69.0267C103.654 64.8349 102.767 59.9122 99.3999 56.54L97.6929 54.833C97.5676 54.645 97.4163 54.4258 97.197 54.123C96.3253 52.9276 95.1612 51.6695 95.1612 51.6695C94.1485 50.5002 93.2089 49.31 92.3319 48.1615C91.0687 46.4859 89.1686 43.0353 88.6153 42.0174C88.6048 41.9965 88.5892 41.9808 88.5787 41.9652C92.6243 37.4393 91.9091 36.3274 91.7943 36.2021L91.7786 36.1864L91.763 36.1707C91.7369 36.1551 89.1007 34.4272 86.5116 37.0164C85.1596 38.3685 83.745 38.8592 82.7949 39.0314C81.9597 39.1828 81.2916 39.8458 81.1402 40.6862C80.9679 41.6363 80.4772 43.051 79.1253 44.403C76.5361 46.9922 78.264 49.6284 78.2848 49.6493L78.3005 49.665L78.3162 49.6806C78.4414 49.7955 79.5481 50.5106 84.0686 46.4702C84.1 46.4859 84.1313 46.5067 84.1626 46.5224C85.144 47.0183 87.5556 48.2659 88.7667 49.1273C90.4162 50.3279 92.1284 51.6173 93.7727 53.0529C93.7727 53.0529 95.0203 54.2222 96.2209 55.094C96.5654 55.3445 96.8055 55.5064 97.0091 55.6369L98.6534 57.2812C102.829 61.4574 102.829 68.2541 98.6534 72.4355L93.496 77.593C89.7637 81.3255 89.0694 86.958 91.4132 91.4004C89.7376 90.513 87.8688 90.0432 85.9217 90.0432C82.7793 90.0432 79.83 91.2647 77.6062 93.4885L72.4541 98.6408C70.4287 100.666 67.7404 101.778 64.8746 101.778C62.0088 101.778 59.3205 100.666 57.2951 98.6408L55.5881 96.9338C55.4628 96.7459 55.3115 96.5267 55.0922 96.2239C54.2205 95.0285 53.0564 93.7704 53.0564 93.7704C52.0437 92.6011 51.1041 91.4109 50.2272 90.2624C48.9639 88.5867 47.0638 85.1362 46.5105 84.1183C46.5001 84.0974 46.4844 84.0817 46.474 84.0661C50.5195 79.5401 49.8043 78.4282 49.6895 78.303L49.6738 78.2873L49.6582 78.2716C49.6321 78.256 46.996 76.5281 44.4068 79.1173C43.0548 80.4693 41.6402 80.96 40.6902 81.1323C39.8549 81.2837 39.1868 81.9467 39.0354 82.7871C38.8631 83.7372 38.3725 85.1519 37.0205 86.5039C34.4313 89.0931 36.1592 91.7293 36.18 91.7502L36.1957 91.7658L36.2114 91.7815C36.3367 91.8964 37.4433 92.6115 41.9638 88.5711C41.9952 88.5867 42.0265 88.6076 42.0578 88.6233C43.0392 89.1192 45.4508 90.3668 46.6619 91.2282C48.3114 92.4288 50.0236 93.7182 51.6679 95.1538C51.6679 95.1538 52.9155 96.3231 54.1161 97.1949C54.4606 97.4454 54.7007 97.6072 54.9043 97.7378L56.5486 99.3821C58.7671 101.606 61.7217 102.827 64.8641 102.827C66.3101 102.827 67.7143 102.556 69.0245 102.06L55.5672 115.518C51.3912 119.694 44.5895 119.694 40.4135 115.518L38.7065 113.811C38.5813 113.623 38.4299 113.404 38.2106 113.101C37.3389 111.905 36.1748 110.647 36.1748 110.647C35.1621 109.478 34.2225 108.288 33.3456 107.139C32.0823 105.469 30.1822 102.013 29.6289 100.995C29.6185 100.974 29.6028 100.959 29.5924 100.943C33.6379 96.417 32.9227 95.3051 32.8079 95.1799L32.7922 95.1642L32.7766 95.1485C32.7505 95.1329 30.1144 93.405 27.5252 95.9942C26.1732 97.3462 24.7586 97.8369 23.8086 98.0092C22.9734 98.1606 22.3052 98.8236 22.1538 99.664C21.9816 100.614 21.4909 102.029 20.1389 103.381C17.5497 105.97 19.2776 108.606 19.2985 108.627L19.3141 108.643L19.3298 108.658C19.4551 108.773 20.5617 109.488 25.0823 105.448C25.1136 105.464 25.1449 105.485 25.1762 105.5C26.1576 105.996 28.5692 107.244 29.7803 108.105C31.4298 109.306 33.142 110.595 34.7863 112.031C34.7863 112.031 36.0339 113.2 37.2345 114.072C37.579 114.322 37.8191 114.484 38.0279 114.615L39.6723 116.259C41.9638 118.551 44.9758 119.699 47.9878 119.699C50.9997 119.699 54.0117 118.551 56.3033 116.259L78.3266 94.235C80.352 92.2096 83.0403 91.0977 85.9061 91.0977C88.7719 91.0977 91.4602 92.2148 93.4856 94.235L97.6355 98.3851C96.508 99.8728 96.6176 102.003 97.9748 103.36C98.1523 103.537 98.3454 103.689 98.5438 103.825C97.8443 105.244 98.0844 107.009 99.2641 108.189C100.747 109.671 103.153 109.671 104.636 108.189C104.813 108.011 104.97 107.818 105.105 107.614L106.948 109.457L106.489 109.916C106.243 110.162 106.243 110.553 106.489 110.799C106.734 111.044 107.126 111.044 107.371 110.799L107.83 110.339L117.8 120.31L115.603 122.508L116.678 123.583L117.962 122.299L119.032 123.369L117.748 124.653L118.818 125.723L120.103 124.439L121.173 125.509L119.888 126.793L120.964 127.869L123.161 125.671L123.548 126.057C124.059 126.569 124.811 126.699 125.448 126.449L138.054 139.15C143.593 144.542 146.672 151.772 146.725 159.503C146.777 167.234 143.791 174.506 138.326 179.972C129.598 188.694 117.999 193.502 105.659 193.502H92.4677C92.3163 192.683 91.6011 192.056 90.7346 192.056H90.1917V188.945H88.6727V190.762H87.1589V188.945H85.6451V190.762H84.1313V188.945H82.6122V192.056H68.5181V191.409C68.5181 191.064 68.2415 190.788 67.897 190.788C67.5524 190.788 67.2758 191.064 67.2758 191.409V192.056H64.6658C64.7127 191.816 64.7388 191.571 64.7388 191.32C64.7388 189.222 63.0423 187.52 60.9387 187.52C59.2683 187.52 57.8536 188.595 57.3421 190.093C57.1072 190.047 56.8618 190.02 56.6113 190.02C54.6903 190.02 53.1086 191.446 52.8528 193.299H46.9855C41.0764 193.299 36.2688 188.491 36.2688 182.582V151.433C36.2688 144.949 30.9913 139.672 24.5081 139.672H22.1851C21.945 139.619 21.6631 139.562 21.2403 139.499C19.7787 139.27 18.0665 139.212 18.0665 139.212C15.8898 139.061 13.7652 138.763 11.7503 138.445C10.2835 138.194 7.69433 137.375 6.65032 137.03C6.61378 137.02 6.58246 137.009 6.54592 137.004C6.20662 130.954 4.91727 130.677 4.74501 130.667H4.70325C4.67193 130.667 1.58689 131.314 1.58689 134.973C1.58689 136.884 0.934386 138.236 0.381062 139.03C-0.104401 139.729 -0.104401 140.669 0.381062 141.368C0.929166 142.162 1.58689 143.508 1.58689 145.424C1.58689 149.084 4.67193 149.726 4.70325 149.736H4.74501C4.91205 149.726 6.20662 149.449 6.54592 143.388C6.5668 143.383 6.58768 143.383 6.60856 143.378C7.72043 143.044 11.505 141.948 13.5825 141.66C15.0128 141.467 16.5214 141.29 18.0613 141.18C18.0613 141.18 19.7735 141.112 21.2351 140.883C21.6005 140.825 21.8667 140.773 22.086 140.731H24.5028C30.4119 140.731 35.2196 145.539 35.2196 151.448V170.476C33.3717 166.399 29.2635 163.549 24.5028 163.549H22.1799C21.9398 163.497 21.6579 163.439 21.2351 163.377C19.7735 163.147 18.0613 163.089 18.0613 163.089C15.8846 162.938 13.76 162.635 11.7451 162.322C10.2782 162.071 7.68911 161.252 6.6451 160.907C6.60856 160.897 6.57724 160.886 6.5407 160.881C6.2014 154.831 4.91205 154.554 4.73979 154.544H4.69803C4.66671 154.544 1.58167 155.191 1.58167 158.851C1.58167 160.761 0.929166 162.113 0.375842 162.907C-0.109621 163.606 -0.109621 164.546 0.375842 165.245C0.923946 166.039 1.58167 167.386 1.58167 169.301C1.58167 172.961 4.66671 173.603 4.69803 173.613H4.73979C4.90683 173.603 6.2014 173.326 6.5407 167.266C6.56158 167.26 6.58246 167.26 6.60334 167.255C7.71521 166.921 11.4997 165.825 13.5773 165.538C15.0076 165.345 16.5162 165.167 18.0561 165.057C18.0561 165.057 19.7683 164.99 21.2299 164.76C21.5953 164.702 21.8615 164.65 22.0807 164.608H24.4976C30.4067 164.608 35.2143 169.416 35.2143 175.326V182.613C35.2143 187.891 38.7118 192.369 43.509 193.852C38.7118 195.335 35.2143 199.814 35.2143 205.091V212.379C35.2143 218.288 30.4067 223.096 24.4976 223.096H22.1747C21.9346 223.043 21.6527 222.986 21.2299 222.923C19.7683 222.694 18.0561 222.636 18.0561 222.636C15.8793 222.485 13.7548 222.187 11.7399 221.869C10.273 221.618 7.68389 220.799 6.63988 220.454C6.60334 220.444 6.57202 220.433 6.53548 220.428C6.19618 214.378 4.90683 214.101 4.73457 214.091H4.69281C4.66149 214.091 1.57645 214.738 1.57645 218.397C1.57645 220.308 0.923946 221.66 0.370622 222.453C-0.114841 223.153 -0.114841 224.093 0.370622 224.792C0.918726 225.586 1.57645 226.932 1.57645 228.848C1.57645 232.508 4.66149 233.15 4.69281 233.16H4.73457C4.90161 233.15 6.19618 232.873 6.53548 226.812C6.55636 226.807 6.57724 226.807 6.59812 226.802C7.70999 226.468 11.4945 225.372 13.5721 225.084C15.0024 224.891 16.511 224.714 18.0509 224.604C18.0509 224.604 19.763 224.536 21.2247 224.307C21.5901 224.249 21.8563 224.197 22.0755 224.155H24.4924C29.2531 224.155 33.3612 221.31 35.2091 217.228V236.256C35.2091 242.128 30.4589 246.91 24.602 246.968C24.5655 246.968 24.5289 246.968 24.4924 246.968H22.1277C21.898 246.921 21.6214 246.863 21.2247 246.8C19.763 246.571 18.0509 246.513 18.0509 246.513C17.6333 246.482 17.2157 246.44 16.8033 246.404C16.6467 246.388 16.4901 246.378 16.3335 246.362C15.112 246.237 13.9166 246.075 12.7473 245.897C10.6175 245.49 7.57427 244.608 6.59812 244.316C6.5929 244.316 6.58768 244.316 6.57724 244.316C6.56158 244.316 6.54592 244.305 6.53026 244.305C6.19096 238.245 4.89639 237.968 4.72935 237.963H4.68759C4.65627 237.968 1.57123 238.615 1.57123 242.275C1.57123 244.185 0.918726 245.537 0.365402 246.331C0.125281 246.68 0 247.093 0 247.5C0 247.912 0.120061 248.32 0.365402 248.669C0.913506 249.463 1.57123 250.81 1.57123 252.725C1.57123 256.385 4.65627 257.027 4.68759 257.037H4.72935C4.89639 257.027 6.19096 256.75 6.53026 250.695C6.54592 250.695 6.56158 250.684 6.57724 250.684C6.58246 250.684 6.58768 250.684 6.59812 250.684C7.57427 250.392 10.6175 249.51 12.7473 249.103C13.9166 248.925 15.112 248.763 16.3335 248.638C16.4901 248.622 16.6467 248.612 16.8033 248.596C17.2157 248.56 17.6333 248.518 18.0509 248.487C18.0509 248.487 19.763 248.429 21.2247 248.2C21.6214 248.137 21.898 248.079 22.1277 248.032H24.4924C24.5289 248.032 24.5655 248.032 24.602 248.032C30.4589 248.09 35.2091 252.872 35.2091 258.744V277.772C33.3612 273.695 29.2531 270.845 24.4924 270.845H22.0755C21.8563 270.803 21.5901 270.751 21.2247 270.693C19.763 270.464 18.0509 270.396 18.0509 270.396C16.511 270.286 15.0024 270.109 13.5721 269.916C11.4945 269.623 7.71521 268.527 6.59812 268.198C6.57724 268.193 6.55636 268.193 6.53548 268.188C6.19618 262.127 4.90161 261.85 4.73457 261.84H4.69281C4.66149 261.845 1.57645 262.492 1.57645 266.152C1.57645 268.062 0.923946 269.414 0.370622 270.208C-0.114841 270.907 -0.114841 271.847 0.370622 272.546C0.918726 273.34 1.57645 274.687 1.57645 276.603C1.57645 280.262 4.66149 280.904 4.69281 280.909H4.73457C4.90161 280.899 6.19618 280.622 6.53548 274.572C6.57202 274.561 6.60334 274.556 6.63988 274.546C7.68389 274.201 10.273 273.382 11.7399 273.131C13.7548 272.813 15.8793 272.515 18.0561 272.364C18.0561 272.364 19.7683 272.306 21.2299 272.077C21.6475 272.009 21.9346 271.951 22.1747 271.904H24.4976C30.4067 271.904 35.2143 276.712 35.2143 282.622V289.909C35.2143 295.186 38.7118 299.665 43.509 301.148C38.7118 302.631 35.2143 307.109 35.2143 312.387V319.674C35.2143 325.584 30.4067 330.392 24.4976 330.392H22.0807C21.8615 330.35 21.5953 330.298 21.2299 330.24C19.7683 330.01 18.0561 329.943 18.0561 329.943C16.5162 329.833 15.0076 329.655 13.5773 329.462C11.4997 329.17 7.72043 328.074 6.60334 327.745C6.58246 327.74 6.56158 327.74 6.5407 327.734C6.2014 321.674 4.90683 321.397 4.73979 321.387H4.69803C4.66671 321.392 1.58167 322.039 1.58167 325.699C1.58167 327.609 0.929166 328.961 0.375842 329.755C-0.109621 330.454 -0.109621 331.394 0.375842 332.093C0.923946 332.887 1.58167 334.234 1.58167 336.149C1.58167 339.809 4.66671 340.451 4.69803 340.456H4.73979C4.90683 340.446 6.2014 340.169 6.5407 334.119C6.57724 334.108 6.60856 334.103 6.6451 334.093C7.68911 333.748 10.2782 332.929 11.7451 332.678C13.76 332.36 15.8846 332.062 18.0613 331.911C18.0613 331.911 19.7735 331.853 21.2351 331.623C21.6579 331.556 21.9398 331.498 22.1799 331.451H24.5028C29.2635 331.451 33.3717 328.606 35.2196 324.524V343.552C35.2196 349.461 30.4119 354.269 24.5028 354.269H22.086C21.8667 354.227 21.6005 354.175 21.2351 354.117C19.7735 353.888 18.0613 353.82 18.0613 353.82C16.5214 353.71 15.0128 353.533 13.5825 353.34C11.505 353.047 7.72565 351.951 6.60856 351.622C6.58768 351.617 6.5668 351.617 6.54592 351.612C6.20662 345.551 4.91205 345.274 4.74501 345.264H4.70325C4.67193 345.269 1.58689 345.916 1.58689 349.576C1.58689 351.486 0.934386 352.838 0.381062 353.632C-0.104401 354.331 -0.104401 355.271 0.381062 355.97C0.929166 356.764 1.58689 358.111 1.58689 360.027C1.58689 363.686 4.67193 364.328 4.70325 364.333H4.74501C4.91205 364.323 6.20662 364.046 6.54592 357.996C6.58246 357.985 6.61378 357.98 6.65032 357.97C7.69433 357.625 10.2835 356.806 11.7503 356.555C13.7652 356.237 15.8898 355.939 18.0665 355.788C18.0665 355.788 19.7787 355.73 21.2403 355.501C21.6579 355.433 21.945 355.375 22.1851 355.328H24.5081C30.9913 355.328 36.2688 350.051 36.2688 343.567V312.418C36.2688 306.509 41.0764 301.701 46.9855 301.701H52.8528C53.1086 303.554 54.6903 304.98 56.6113 304.98C56.8618 304.98 57.1072 304.953 57.3421 304.906C57.8536 306.405 59.2683 307.48 60.9387 307.48C63.0371 307.48 64.7388 305.778 64.7388 303.68C64.7388 303.429 64.7127 303.184 64.6658 302.944H67.2758V303.591C67.2758 303.936 67.5524 304.212 67.897 304.212C68.2415 304.212 68.5181 303.936 68.5181 303.591V302.944H82.6122V306.055H84.1313V304.238H85.6451V306.055H87.1589V304.238H88.6727V306.055H90.1917V302.944H90.7346C91.5437 302.944 92.2171 302.396 92.4259 301.66H105.659C117.999 301.66 129.598 306.467 138.326 315.19C143.791 320.656 146.777 327.928 146.725 335.659C146.672 343.39 143.593 350.62 138.044 356.023L125.698 368.687C125.02 368.28 124.127 368.363 123.543 368.948L123.156 369.334L120.959 367.136L119.883 368.212L121.167 369.496L120.097 370.566L118.813 369.282L117.743 370.352L119.027 371.636L117.957 372.706L116.673 371.422L115.598 372.498L117.795 374.695L107.825 384.666L107.366 384.207C107.12 383.961 106.729 383.961 106.483 384.207C106.238 384.452 106.238 384.843 106.483 385.089L106.943 385.548L105.1 387.391C104.964 387.187 104.808 386.994 104.63 386.817C103.148 385.334 100.741 385.329 99.2589 386.817C98.0792 387.996 97.8391 389.761 98.5386 391.181C98.3402 391.316 98.1471 391.468 97.9696 391.645C96.6124 393.003 96.5027 395.132 97.6303 396.62L93.4804 400.77C89.3043 404.946 82.5026 404.946 78.3266 400.77L73.1744 395.618L56.3033 378.746C51.7201 374.163 44.2554 374.163 39.6723 378.746L38.0279 380.391C37.8244 380.526 37.579 380.683 37.2345 380.933C36.0391 381.805 34.7863 382.975 34.7863 382.975C33.142 384.405 31.4298 385.694 29.7803 386.895C28.5692 387.756 26.1576 389.004 25.1762 389.5C25.1449 389.515 25.1136 389.536 25.0823 389.552C20.5617 385.512 19.4551 386.232 19.3298 386.342L19.3141 386.357L19.2985 386.373C19.2985 386.373 17.5497 389.035 20.1389 391.619C21.4909 392.971 21.9816 394.386 22.1538 395.336C22.3052 396.171 22.9681 396.839 23.8086 396.991C24.7586 397.163 26.1732 397.654 27.5252 399.006C30.1144 401.595 32.7505 399.867 32.7766 399.851L32.7922 399.836L32.8079 399.82C32.9227 399.695 33.6379 398.583 29.5924 394.057C29.6028 394.036 29.6185 394.021 29.6289 394.005C30.1822 392.982 32.0823 389.531 33.3456 387.861C34.2225 386.712 35.1621 385.522 36.1748 384.353C36.1748 384.353 37.3389 383.095 38.2106 381.899C38.4299 381.602 38.5813 381.377 38.7065 381.189L40.4135 379.482C44.5895 375.306 51.3912 375.306 55.5672 379.482L69.0297 392.945C64.838 391.358 59.9155 392.246 56.5434 395.613L54.8991 397.257C54.6955 397.393 54.4502 397.549 54.1109 397.8C52.9155 398.672 51.6627 399.841 51.6627 399.841C50.0184 401.271 48.3062 402.561 46.6567 403.761C45.4456 404.623 43.034 405.87 42.0526 406.366C42.0213 406.382 41.9899 406.403 41.9586 406.418C37.4381 402.378 36.3314 403.098 36.2061 403.208L36.1905 403.224L36.1748 403.239C36.1748 403.239 34.4261 405.902 37.0153 408.486C38.3672 409.838 38.8579 411.252 39.0302 412.202C39.1816 413.038 39.8497 413.706 40.6849 413.857C41.635 414.03 43.0496 414.52 44.4016 415.872C46.9907 418.461 49.6269 416.734 49.653 416.718L49.6686 416.702L49.6843 416.687C49.7991 416.561 50.5143 415.449 46.4687 410.923C46.4792 410.903 46.4948 410.887 46.5053 410.871C47.0586 409.848 48.9587 406.398 50.2219 404.727C51.0989 403.573 52.0385 402.388 53.0512 401.219C53.0512 401.219 54.2153 399.961 55.087 398.766C55.3062 398.463 55.4576 398.244 55.5829 398.056L57.2899 396.349C61.4659 392.173 68.2624 392.173 72.4436 396.349L77.601 401.506C79.8926 403.798 82.9046 404.946 85.9165 404.946C87.8062 404.946 89.6958 404.492 91.408 403.589C90.5206 405.26 90.0508 407.134 90.0508 409.081C90.0508 412.223 91.2723 415.173 93.496 417.397L98.6482 422.549C102.824 426.725 102.824 433.527 98.6482 437.703L97.0039 439.347C96.8003 439.483 96.5549 439.64 96.2104 439.89C95.015 440.762 93.7622 441.931 93.7622 441.931C92.1179 443.362 90.4057 444.651 88.7562 445.852C87.5452 446.713 85.1335 447.961 84.1522 448.457C84.1208 448.472 84.0895 448.493 84.0582 448.509C79.5376 444.468 78.431 445.189 78.3057 445.298L78.2901 445.314L78.2744 445.33C78.2744 445.33 76.5257 447.992 79.1148 450.576C80.4668 451.928 80.9575 453.343 81.1298 454.293C81.2811 455.128 81.9441 455.796 82.7845 455.948C83.7345 456.12 85.1492 456.611 86.5012 457.963C89.0903 460.552 91.7264 458.824 91.7525 458.808L91.7682 458.793L91.7838 458.777C91.8987 458.652 92.6138 457.54 88.5683 453.014C88.5787 452.993 88.5944 452.977 88.6048 452.962C89.1582 451.939 91.0583 448.488 92.3215 446.818C93.1985 445.669 94.1381 444.479 95.1508 443.31C95.1508 443.31 96.3148 442.052 97.1866 440.856C97.4058 440.559 97.5572 440.334 97.6825 440.146L99.3894 438.439C102.762 435.067 103.644 430.144 102.057 425.952L115.519 439.415C119.695 443.592 119.695 450.393 115.519 454.57L113.875 456.214C113.671 456.35 113.426 456.506 113.087 456.757C111.891 457.629 110.639 458.798 110.639 458.798C108.994 460.228 107.282 461.518 105.633 462.718C104.422 463.58 102.01 464.827 101.029 465.323C100.997 465.339 100.966 465.36 100.935 465.375C96.414 461.335 95.3074 462.055 95.1821 462.165L95.1664 462.181L95.1508 462.196C95.1508 462.196 93.402 464.859 95.9912 467.443C97.3432 468.795 97.8339 470.209 98.0061 471.159C98.1575 471.995 98.8204 472.663 99.6609 472.814C100.611 472.986 102.026 473.477 103.378 474.829C105.967 477.418 108.603 475.69 108.629 475.675L108.645 475.659L108.66 475.643C108.775 475.518 109.49 474.406 105.445 469.88C105.455 469.86 105.471 469.844 105.481 469.828C106.035 468.805 107.935 465.355 109.198 463.684C110.075 462.53 111.014 461.345 112.027 460.176C112.027 460.176 113.191 458.918 114.063 457.723C114.282 457.42 114.434 457.201 114.559 457.013L116.266 455.306C120.849 450.722 120.849 443.257 116.266 438.674L94.2425 416.65C92.2171 414.625 91.1052 411.936 91.1052 409.07C91.1052 406.204 92.2223 403.516 94.2425 401.491L98.3924 397.341C99.8801 398.473 102.01 398.358 103.367 397.001C103.545 396.824 103.701 396.636 103.837 396.432C105.257 397.132 107.016 396.892 108.201 395.707C109.683 394.224 109.689 391.823 108.201 390.335C108.023 390.158 107.825 390.001 107.627 389.865L109.469 388.022L109.929 388.482C110.174 388.727 110.566 388.727 110.811 388.482C111.056 388.237 111.056 387.845 110.811 387.6L110.351 387.14L126.064 371.427C126.601 370.89 126.716 370.102 126.419 369.449L138.801 356.743C138.853 356.696 138.9 356.639 138.947 356.592C144.35 351.095 151.574 348.036 159.289 347.984C166.952 347.926 174.203 350.876 179.647 356.273C188.36 364.913 193.162 376.402 193.162 388.618V402.592C192.51 402.853 192.05 403.485 192.05 404.231V404.774H188.939V406.293H190.756V407.807H188.939V409.321H190.756V410.835H188.939V412.354H192.05V426.448H191.403C191.058 426.448 190.782 426.725 190.782 427.07C190.782 427.414 191.058 427.691 191.403 427.691H192.05V430.301C191.81 430.254 191.565 430.228 191.314 430.228C189.216 430.228 187.514 431.924 187.514 434.028C187.514 435.699 188.589 437.113 190.088 437.625C190.041 437.86 190.014 438.105 190.014 438.356C190.014 440.277 191.439 441.858 193.293 442.114V447.982C193.293 453.891 188.485 458.699 182.576 458.699H151.428C144.945 458.699 139.667 463.976 139.667 470.46V472.783C139.615 473.023 139.558 473.305 139.495 473.728C139.265 475.189 139.208 476.902 139.208 476.902C139.056 479.078 138.759 481.203 138.441 483.218C138.19 484.685 137.37 487.274 137.026 488.318C137.015 488.355 137.005 488.386 137 488.423C130.95 488.762 130.673 490.051 130.663 490.224V490.265C130.663 490.297 131.31 493.382 134.969 493.382C136.88 493.382 138.232 494.034 139.025 494.588C139.725 495.073 140.664 495.073 141.364 494.588C142.157 494.039 143.504 493.382 145.42 493.382C149.079 493.382 149.721 490.297 149.731 490.265V490.224C149.721 490.056 149.444 488.762 143.384 488.423C143.379 488.402 143.379 488.381 143.373 488.36C143.039 487.248 141.943 483.463 141.656 481.386C141.463 479.955 141.285 478.447 141.176 476.907C141.176 476.907 141.108 475.195 140.878 473.733C140.821 473.368 140.769 473.101 140.727 472.882V470.465C140.727 464.556 145.535 459.748 151.444 459.748H170.471C166.394 461.596 163.544 465.704 163.544 470.465V472.788C163.491 473.028 163.434 473.31 163.371 473.733C163.142 475.195 163.084 476.907 163.084 476.907C162.933 479.084 162.635 481.208 162.317 483.223C162.066 484.69 161.247 487.279 160.902 488.323C160.892 488.36 160.881 488.391 160.876 488.428C154.826 488.767 154.55 490.056 154.539 490.229V490.27C154.539 490.302 155.186 493.387 158.846 493.387C160.756 493.387 162.108 494.039 162.902 494.593C163.601 495.078 164.541 495.078 165.24 494.593C166.034 494.045 167.38 493.387 169.296 493.387C172.955 493.387 173.597 490.302 173.608 490.27V490.229C173.597 490.062 173.321 488.767 167.26 488.428C167.255 488.407 167.255 488.386 167.25 488.365C166.916 487.253 165.82 483.469 165.532 481.391C165.339 479.961 165.162 478.452 165.052 476.912C165.052 476.912 164.984 475.2 164.755 473.738C164.697 473.373 164.645 473.106 164.603 472.887V470.47C164.603 464.561 169.411 459.753 175.32 459.753H182.607C187.885 459.753 192.363 456.256 193.846 451.458C195.328 456.256 199.807 459.753 205.085 459.753H212.372C218.281 459.753 223.089 464.561 223.089 470.47V472.793C223.036 473.033 222.979 473.315 222.916 473.738C222.687 475.2 222.629 476.912 222.629 476.912C222.478 479.089 222.18 481.213 221.862 483.228C221.611 484.695 220.792 487.285 220.447 488.329C220.437 488.365 220.426 488.396 220.421 488.433C214.371 488.772 214.094 490.062 214.084 490.234V490.276C214.084 490.307 214.731 493.392 218.391 493.392C220.301 493.392 221.653 494.045 222.446 494.598C223.146 495.084 224.086 495.084 224.785 494.598C225.579 494.05 226.925 493.392 228.841 493.392C232.5 493.392 233.142 490.307 233.153 490.276V490.234C233.142 490.067 232.866 488.772 226.805 488.433C226.8 488.412 226.8 488.391 226.795 488.37C226.461 487.258 225.364 483.474 225.077 481.396C224.884 479.966 224.707 478.457 224.597 476.917C224.597 476.917 224.529 475.205 224.3 473.743C224.242 473.378 224.19 473.112 224.148 472.892V470.476C224.148 465.715 221.303 461.606 217.221 459.758H236.248C242.121 459.758 246.902 464.509 246.96 470.371C246.96 470.408 246.96 470.439 246.96 470.476V472.835C246.913 473.065 246.855 473.341 246.793 473.743C246.563 475.205 246.506 476.917 246.506 476.917C246.474 477.335 246.438 477.752 246.401 478.165C246.386 478.321 246.375 478.478 246.359 478.635C246.234 479.856 246.072 481.052 245.895 482.221C245.488 484.351 244.606 487.394 244.313 488.37C244.313 488.376 244.313 488.381 244.313 488.391C244.313 488.407 244.303 488.423 244.303 488.438C238.242 488.778 237.966 490.072 237.96 490.239V490.281C237.966 490.312 238.613 493.397 242.272 493.397C244.183 493.397 245.535 494.05 246.328 494.603C246.678 494.843 247.09 494.969 247.497 494.969C247.91 494.969 248.317 494.849 248.667 494.603C249.46 494.055 250.807 493.397 252.723 493.397C256.382 493.397 257.024 490.312 257.034 490.281V490.239C257.024 490.072 256.747 488.778 250.692 488.438C250.692 488.423 250.682 488.407 250.682 488.391C250.682 488.386 250.682 488.381 250.682 488.37C250.389 487.394 249.507 484.351 249.1 482.221C248.922 481.052 248.761 479.856 248.635 478.635C248.62 478.478 248.609 478.321 248.594 478.165C248.557 477.752 248.515 477.335 248.489 476.917C248.489 476.917 248.432 475.205 248.202 473.743C248.139 473.347 248.082 473.07 248.035 472.84V470.481C248.035 470.444 248.035 470.413 248.035 470.376C248.093 464.514 252.874 459.764 258.747 459.764H277.774C273.697 461.612 270.847 465.72 270.847 470.481V472.898C270.805 473.117 270.753 473.383 270.695 473.749C270.466 475.21 270.398 476.922 270.398 476.922C270.288 478.462 270.111 479.971 269.917 481.401C269.625 483.479 268.529 487.258 268.2 488.376C268.195 488.396 268.195 488.417 268.19 488.438C262.129 488.778 261.853 490.072 261.842 490.239V490.281C261.847 490.312 262.495 493.397 266.154 493.397C268.064 493.397 269.416 494.05 270.21 494.603C270.909 495.089 271.849 495.089 272.548 494.603C273.342 494.055 274.689 493.397 276.604 493.397C280.264 493.397 280.906 490.312 280.911 490.281V490.239C280.9 490.072 280.624 488.778 274.574 488.438C274.563 488.402 274.558 488.37 274.548 488.334C274.203 487.29 273.384 484.701 273.133 483.234C272.815 481.219 272.517 479.094 272.366 476.917C272.366 476.917 272.308 475.205 272.079 473.743C272.011 473.321 271.953 473.039 271.906 472.799V470.476C271.906 464.566 276.714 459.758 282.623 459.758H289.91C295.188 459.758 299.666 456.261 301.149 451.464C302.631 456.261 307.11 459.758 312.388 459.758H319.675C325.584 459.758 330.392 464.566 330.392 470.476V472.892C330.35 473.112 330.298 473.378 330.24 473.743C330.01 475.205 329.943 476.917 329.943 476.917C329.833 478.457 329.656 479.966 329.462 481.396C329.17 483.474 328.074 487.253 327.745 488.37C327.74 488.391 327.74 488.412 327.735 488.433C321.674 488.772 321.397 490.067 321.387 490.234V490.276C321.392 490.307 322.039 493.392 325.699 493.392C327.609 493.392 328.961 494.045 329.755 494.598C330.454 495.084 331.394 495.084 332.093 494.598C332.887 494.05 334.233 493.392 336.149 493.392C339.808 493.392 340.451 490.307 340.456 490.276V490.234C340.445 490.067 340.169 488.772 334.119 488.433C334.108 488.396 334.103 488.365 334.093 488.329C333.748 487.285 332.928 484.695 332.678 483.228C332.359 481.213 332.062 479.089 331.911 476.912C331.911 476.912 331.853 475.2 331.623 473.738C331.556 473.321 331.498 473.033 331.451 472.793V470.47C331.451 465.709 328.606 461.601 324.524 459.753H343.551C349.46 459.753 354.268 464.561 354.268 470.47V472.887C354.226 473.106 354.174 473.373 354.117 473.738C353.887 475.2 353.819 476.912 353.819 476.912C353.709 478.452 353.532 479.961 353.339 481.391C353.046 483.469 351.95 487.248 351.621 488.365C351.616 488.386 351.616 488.407 351.611 488.428C345.551 488.767 345.274 490.062 345.263 490.229V490.27C345.269 490.302 345.916 493.387 349.575 493.387C351.486 493.387 352.838 494.039 353.631 494.593C354.331 495.078 355.27 495.078 355.97 494.593C356.763 494.045 358.11 493.387 360.026 493.387C363.685 493.387 364.327 490.302 364.332 490.27V490.229C364.322 490.062 364.045 488.767 357.995 488.428C357.985 488.391 357.979 488.36 357.969 488.323C357.624 487.279 356.805 484.69 356.554 483.223C356.236 481.208 355.938 479.084 355.787 476.907C355.787 476.907 355.73 475.195 355.5 473.733C355.432 473.31 355.375 473.028 355.328 472.788V470.465C355.328 463.982 350.05 458.704 343.567 458.704H312.419C306.51 458.704 301.702 453.896 301.702 447.987V442.119C303.555 441.864 304.98 440.282 304.98 438.361C304.98 438.11 304.954 437.865 304.907 437.63C306.405 437.118 307.481 435.704 307.481 434.033C307.481 431.935 305.779 430.233 303.681 430.233C303.43 430.233 303.185 430.259 302.945 430.306V427.696H303.592C303.936 427.696 304.213 427.419 304.213 427.075C304.213 426.73 303.936 426.454 303.592 426.454H302.945V412.359H306.056V410.84H304.239V409.326H306.056V407.812H304.239V406.298H306.056V404.779H302.945V404.236C302.945 403.448 302.423 402.79 301.713 402.561V388.712C301.713 376.491 306.51 365.007 315.222 356.367C320.635 351.001 327.818 348.051 335.471 348.051C335.539 348.051 335.601 348.051 335.669 348.051C343.389 348.104 350.609 351.152 356.001 356.639L368.639 369.376C368.299 370.039 368.393 370.874 368.952 371.433L369.338 371.819L367.141 374.017L368.216 375.092L369.5 373.808L370.57 374.878L369.286 376.162L370.356 377.232L371.64 375.948L372.71 377.018L371.426 378.302L372.502 379.378L374.699 377.18L384.669 387.151L384.21 387.61C383.965 387.855 383.965 388.247 384.21 388.492C384.455 388.738 384.847 388.738 385.092 388.492L385.552 388.033L387.394 389.876C387.191 390.011 386.998 390.168 386.82 390.345C385.338 391.828 385.332 394.235 386.82 395.717C388 396.897 389.764 397.137 391.184 396.437C391.32 396.636 391.471 396.829 391.649 397.006C393.006 398.364 395.136 398.473 396.623 397.346L400.773 401.496C404.949 405.672 404.949 412.474 400.773 416.65L395.621 421.802L378.75 438.674C376.526 440.893 375.305 443.847 375.305 446.99C375.305 450.132 376.526 453.082 378.75 455.306L380.394 456.95C380.53 457.154 380.687 457.399 380.937 457.743C381.809 458.939 382.978 460.192 382.978 460.192C384.408 461.841 385.703 463.554 386.904 465.203C387.765 466.414 389.013 468.826 389.508 469.807C389.524 469.839 389.545 469.87 389.561 469.901C385.52 474.422 386.241 475.529 386.35 475.654L386.366 475.67L386.382 475.685C386.382 475.685 389.044 477.434 391.628 474.845C392.98 473.493 394.394 473.002 395.344 472.83C396.18 472.678 396.848 472.015 396.999 471.175C397.171 470.225 397.662 468.81 399.014 467.458C401.603 464.869 399.875 462.233 399.86 462.207L399.844 462.191L399.828 462.175C399.703 462.061 398.591 461.345 394.066 465.391C394.045 465.381 394.029 465.365 394.013 465.355C392.99 464.801 389.54 462.901 387.869 461.638C386.721 460.761 385.531 459.821 384.361 458.808C384.361 458.808 383.103 457.644 381.908 456.773C381.611 456.553 381.386 456.402 381.198 456.277L379.491 454.57C377.466 452.544 376.354 449.856 376.354 446.99C376.354 444.124 377.471 441.436 379.491 439.41L392.948 425.952C392.453 427.268 392.181 428.667 392.181 430.113C392.181 433.256 393.403 436.205 395.626 438.429L397.271 440.073C397.406 440.277 397.563 440.522 397.814 440.867C398.685 442.062 399.855 443.315 399.855 443.315C401.285 444.964 402.579 446.677 403.78 448.326C404.641 449.537 405.889 451.949 406.385 452.93C406.4 452.962 406.421 452.993 406.437 453.024C402.397 457.545 403.117 458.652 403.227 458.777L403.242 458.793L403.258 458.808C403.258 458.808 405.92 460.557 408.504 457.968C409.856 456.616 411.271 456.125 412.221 455.953C413.056 455.802 413.724 455.139 413.876 454.298C414.048 453.348 414.538 451.933 415.89 450.581C418.48 447.992 416.752 445.356 416.736 445.33L416.72 445.314L416.705 445.298C416.58 445.184 415.468 444.468 410.942 448.514C410.921 448.504 410.905 448.488 410.89 448.478C409.867 447.924 406.416 446.024 404.746 444.761C403.592 443.884 402.407 442.944 401.238 441.931C401.238 441.931 399.98 440.767 398.784 439.896C398.487 439.676 398.262 439.525 398.075 439.4L396.368 437.693C394.342 435.667 393.23 432.979 393.23 430.113C393.23 427.247 394.342 424.564 396.368 422.538L401.525 417.381C405.257 413.648 405.952 408.016 403.608 403.573C405.278 404.461 407.152 404.931 409.099 404.931C412.242 404.931 415.196 403.709 417.415 401.485L422.567 396.333C424.592 394.308 427.281 393.196 430.146 393.196C433.012 393.196 435.7 394.308 437.726 396.333L439.37 397.977C439.506 398.181 439.662 398.426 439.913 398.771C440.785 399.966 441.954 401.219 441.954 401.219C443.384 402.869 444.679 404.581 445.88 406.231C446.741 407.442 447.988 409.853 448.484 410.835C448.5 410.866 448.521 410.897 448.537 410.929C444.496 415.449 445.217 416.556 445.326 416.681L445.342 416.697L445.358 416.713C445.358 416.713 448.02 418.461 450.604 415.872C451.956 414.52 453.37 414.03 454.32 413.857C455.156 413.706 455.824 413.043 455.975 412.202C456.147 411.252 456.638 409.838 457.99 408.486C460.579 405.896 458.851 403.26 458.836 403.234L458.82 403.218L458.804 403.203C458.679 403.088 457.567 402.373 453.041 406.418C453.021 406.408 453.005 406.392 452.989 406.382C451.966 405.829 448.516 403.928 446.845 402.665C445.697 401.788 444.507 400.849 443.337 399.836C443.337 399.836 442.079 398.672 440.884 397.8C440.586 397.581 440.362 397.429 440.174 397.304L438.467 395.597C436.243 393.373 433.294 392.152 430.152 392.152C428.706 392.152 427.301 392.423 425.991 392.919L439.448 379.461C443.625 375.285 450.426 375.285 454.602 379.461L456.247 381.106C456.382 381.309 456.539 381.555 456.789 381.899C457.661 383.095 458.83 384.347 458.83 384.347C460.261 385.997 461.555 387.709 462.756 389.359C463.617 390.57 464.865 392.982 465.361 393.963C465.376 393.994 465.397 394.026 465.413 394.057C461.373 398.578 462.093 399.684 462.203 399.81L462.218 399.825L462.234 399.841C462.234 399.841 464.896 401.59 467.48 399.001C468.832 397.649 470.247 397.158 471.197 396.986C472.032 396.834 472.7 396.171 472.851 395.331C473.024 394.381 473.514 392.966 474.866 391.614C477.456 389.025 475.728 386.389 475.712 386.362L475.696 386.347L475.681 386.331C475.555 386.216 474.444 385.501 469.918 389.547C469.897 389.536 469.881 389.521 469.866 389.51C468.842 388.957 465.392 387.057 463.722 385.793C462.568 384.916 461.383 383.977 460.214 382.964C460.214 382.964 458.956 381.8 457.76 380.928C457.463 380.709 457.238 380.558 457.05 380.432L455.343 378.725C450.76 374.142 443.296 374.142 438.712 378.725L416.689 400.749C414.664 402.775 411.975 403.887 409.11 403.887C406.244 403.887 403.556 402.77 401.53 400.749L397.38 396.599C398.508 395.112 398.398 392.982 397.041 391.624C396.863 391.447 396.676 391.29 396.472 391.155C397.171 389.735 396.931 387.976 395.746 386.791C394.264 385.308 391.863 385.303 390.375 386.791C390.197 386.968 390.041 387.166 389.905 387.365L388.062 385.522L388.522 385.063C388.767 384.817 388.767 384.426 388.522 384.18C388.277 383.935 387.885 383.935 387.64 384.18L387.18 384.64L371.468 368.927C370.904 368.363 370.053 368.269 369.385 368.629L356.852 356.002C351.345 350.641 348.286 343.447 348.234 335.747C348.181 327.985 351.183 320.677 356.685 315.18C365.413 306.457 377.012 301.649 389.352 301.649H393.199C393.674 301.68 394.149 301.701 394.629 301.701V301.649H402.574C402.783 302.39 403.456 302.933 404.265 302.933H404.808V306.045H406.327V304.228H407.841V306.045H409.355V304.228H410.869V306.045H412.388V302.933H426.482V303.581C426.482 303.925 426.759 304.202 427.103 304.202C427.448 304.202 427.724 303.925 427.724 303.581V302.933H430.334C430.287 303.173 430.261 303.419 430.261 303.669C430.261 305.768 431.958 307.47 434.061 307.47C435.732 307.47 437.146 306.394 437.658 304.896C437.893 304.943 438.138 304.969 438.389 304.969C440.31 304.969 441.891 303.544 442.147 301.691H448.015C453.924 301.691 458.731 306.499 458.731 312.408V343.557C458.731 350.04 464.009 355.318 470.492 355.318H472.815C473.055 355.37 473.337 355.428 473.76 355.49C475.221 355.72 476.934 355.777 476.934 355.777C479.11 355.929 481.235 356.226 483.25 356.545C484.717 356.795 487.306 357.615 488.35 357.959C488.386 357.97 488.418 357.98 488.454 357.985C488.793 364.036 490.083 364.312 490.255 364.323H490.297C490.328 364.323 493.413 363.675 493.413 360.016C493.413 358.106 494.066 356.754 494.619 355.96C495.104 355.261 495.104 354.321 494.619 353.621C494.071 352.828 493.413 351.481 493.413 349.565C493.413 345.906 490.328 345.264 490.297 345.253H490.255C490.088 345.264 488.793 345.541 488.454 351.601C488.433 351.606 488.412 351.606 488.391 351.612C487.28 351.946 483.495 353.042 481.418 353.329C479.987 353.522 478.479 353.7 476.939 353.809C476.939 353.809 475.227 353.877 473.765 354.107C473.4 354.164 473.133 354.216 472.914 354.258H470.497C464.588 354.258 459.78 349.45 459.78 343.541V324.514C461.628 328.591 465.737 331.441 470.497 331.441H472.82C473.06 331.493 473.342 331.55 473.765 331.613C475.227 331.843 476.939 331.9 476.939 331.9C479.116 332.052 481.24 332.354 483.255 332.668C484.722 332.918 487.311 333.738 488.355 334.082C488.392 334.093 488.423 334.103 488.459 334.108C488.799 340.158 490.088 340.435 490.26 340.446H490.302C490.333 340.446 493.418 339.798 493.418 336.139C493.418 334.228 494.071 332.876 494.624 332.083C495.11 331.383 495.11 330.444 494.624 329.744C494.076 328.951 493.418 327.604 493.418 325.688C493.418 322.029 490.333 321.387 490.302 321.376H490.26C490.093 321.387 488.799 321.663 488.459 327.724C488.438 327.729 488.418 327.729 488.397 327.734C487.285 328.069 483.5 329.165 481.423 329.452C479.992 329.645 478.484 329.822 476.944 329.932C476.944 329.932 475.232 330 473.77 330.23C473.405 330.287 473.139 330.339 472.919 330.381H470.502C464.593 330.381 459.786 325.573 459.786 319.664V312.377C459.786 307.099 456.288 302.62 451.491 301.138C456.288 299.655 459.786 295.176 459.786 289.898V282.611C459.786 276.702 464.593 271.894 470.502 271.894H472.825C473.066 271.946 473.347 272.004 473.77 272.066C475.232 272.296 476.944 272.353 476.944 272.353C479.121 272.505 481.245 272.802 483.26 273.121C484.727 273.371 487.316 274.191 488.36 274.535C488.397 274.546 488.428 274.556 488.465 274.562C488.804 280.612 490.093 280.888 490.265 280.899H490.307C490.339 280.899 493.424 280.252 493.424 276.592C493.424 274.682 494.076 273.33 494.629 272.536C495.115 271.837 495.115 270.897 494.629 270.197C494.081 269.404 493.424 268.057 493.424 266.141C493.424 262.482 490.339 261.84 490.307 261.829H490.265C490.098 261.84 488.804 262.117 488.465 268.177C488.444 268.182 488.423 268.182 488.402 268.188C487.29 268.522 483.506 269.618 481.428 269.905C479.998 270.098 478.489 270.276 476.949 270.385C476.949 270.385 475.237 270.453 473.775 270.683C473.41 270.74 473.144 270.793 472.925 270.834H470.508C465.747 270.834 461.639 273.679 459.791 277.761V258.734C459.791 252.861 464.541 248.079 470.398 248.022C470.435 248.022 470.471 248.022 470.508 248.022H472.872C473.102 248.069 473.379 248.126 473.775 248.189C475.237 248.419 476.949 248.476 476.949 248.476C477.367 248.507 477.784 248.549 478.197 248.586C478.353 248.601 478.51 248.612 478.667 248.628C479.888 248.753 481.083 248.915 482.253 249.092C484.383 249.499 487.426 250.382 488.402 250.674C488.407 250.674 488.412 250.674 488.423 250.674C488.439 250.674 488.454 250.684 488.47 250.684C488.809 256.745 490.104 257.022 490.271 257.027H490.312C490.344 257.022 493.429 256.374 493.429 252.715C493.429 250.804 494.081 249.452 494.635 248.659C494.875 248.309 495 247.897 495 247.49C495 247.077 494.88 246.67 494.635 246.32C494.087 245.527 493.429 244.18 493.429 242.264C493.429 238.605 490.344 237.963 490.312 237.952H490.271C490.104 237.963 488.809 238.239 488.47 244.295C488.454 244.295 488.439 244.305 488.423 244.305C488.418 244.305 488.412 244.305 488.402 244.305C487.426 244.598 484.383 245.48 482.253 245.887C481.083 246.064 479.888 246.226 478.667 246.352C478.51 246.367 478.353 246.378 478.197 246.393C477.784 246.43 477.367 246.472 476.949 246.503C476.949 246.503 475.237 246.56 473.775 246.79C473.379 246.853 473.102 246.91 472.872 246.957H470.508C470.471 246.957 470.435 246.957 470.398 246.957C464.541 246.9 459.791 242.118 459.791 236.245V217.218C461.639 221.295 465.747 224.145 470.508 224.145H472.925C473.144 224.187 473.41 224.239 473.775 224.296C475.237 224.526 476.949 224.594 476.949 224.594C478.489 224.703 479.998 224.881 481.428 225.074C483.506 225.366 487.285 226.463 488.402 226.791C488.423 226.797 488.444 226.797 488.465 226.802C488.804 232.863 490.098 233.139 490.265 233.15H490.307C490.339 233.144 493.424 232.497 493.424 228.838C493.424 226.927 494.076 225.575 494.629 224.782C495.115 224.082 495.115 223.143 494.629 222.443C494.081 221.65 493.424 220.303 493.424 218.387C493.424 214.728 490.339 214.086 490.307 214.08H490.265C490.098 214.091 488.804 214.367 488.465 220.418C488.428 220.428 488.397 220.433 488.36 220.444C487.316 220.788 484.727 221.608 483.26 221.858C481.245 222.177 479.121 222.474 476.944 222.626C476.944 222.626 475.232 222.683 473.77 222.913C473.353 222.981 473.066 223.038 472.825 223.085H470.502C464.593 223.085 459.786 218.277 459.786 212.368V205.081C459.786 199.803 456.288 195.324 451.491 193.842C456.288 192.359 459.786 187.88 459.786 182.603L459.817 182.613ZM391.179 100.692C391.179 99.8311 391.513 99.0271 392.118 98.4164C392.724 97.8108 393.533 97.4767 394.394 97.4767C395.256 97.4767 396.06 97.8108 396.67 98.4164C397.923 99.6692 397.923 101.71 396.67 102.963C395.418 104.216 393.376 104.216 392.124 102.963C391.518 102.358 391.184 101.548 391.184 100.687L391.179 100.692ZM104.051 100.692C104.051 101.554 103.717 102.358 103.111 102.968C101.859 104.221 99.8175 104.221 98.5647 102.968C97.9591 102.363 97.6251 101.554 97.6251 100.692C97.6251 99.8311 97.9591 99.0271 98.5647 98.4164C99.1702 97.8108 99.9793 97.4767 100.841 97.4767C101.702 97.4767 102.506 97.8108 103.117 98.4164C103.722 99.0219 104.056 99.8311 104.056 100.692H104.051ZM104.051 394.261C104.051 395.122 103.717 395.926 103.111 396.537C101.859 397.789 99.8175 397.789 98.5647 396.537C97.9591 395.931 97.6251 395.122 97.6251 394.261C97.6251 393.399 97.9591 392.595 98.5647 391.985C99.1702 391.379 99.9793 391.045 100.841 391.045C101.702 391.045 102.506 391.379 103.117 391.985C103.722 392.59 104.056 393.399 104.056 394.261H104.051ZM391.179 394.261C391.179 393.399 391.513 392.595 392.118 391.985C392.745 391.358 393.57 391.045 394.394 391.045C395.219 391.045 396.039 391.358 396.67 391.985C397.923 393.237 397.923 395.279 396.67 396.531C396.065 397.137 395.256 397.471 394.394 397.471C393.533 397.471 392.729 397.137 392.118 396.531C391.513 395.926 391.179 395.117 391.179 394.255V394.261ZM435.231 193.852C435.231 192.077 436.671 190.636 438.446 190.636C440.221 190.636 441.662 192.077 441.662 193.852C441.662 195.627 440.221 197.068 438.446 197.068C436.671 197.068 435.231 195.627 435.231 193.852ZM314.538 139.797C320.15 145.362 327.594 148.415 335.518 148.415C335.585 148.415 335.653 148.415 335.721 148.415C341.729 148.374 347.445 146.583 352.284 143.284C349.006 148.102 347.226 153.782 347.184 159.748C347.132 167.767 350.222 175.31 355.897 180.979C364.254 189.337 375.644 194.05 388.068 194.343C378.985 197.214 372.376 205.853 372.376 216.038V225.867C372.376 237.404 362.281 247.145 350.327 247.145H339.829C334.855 247.176 330.835 244.023 327.969 240.239C327.124 239.148 326.257 238.02 325.5 236.872C323.266 233.353 322.034 229.323 321.042 225.293C319.748 219.864 318.881 214.347 318.318 208.792C317.441 200.435 316.971 191.957 315.582 183.626C315.582 183.6 315.572 183.573 315.567 183.542C317.984 184.268 320.322 185.202 322.52 186.486C329.316 190.37 331.89 198.169 331.963 205.754C332.041 212.697 331.791 214.211 331.791 226.828H339.97C339.97 208.228 338.691 201.52 337.371 198.049C335.523 193.199 332.208 188.982 328.09 185.787C324.216 182.806 319.612 181.24 314.951 180.253C313.959 175.628 312.398 171.082 309.444 167.239C306.244 163.121 302.026 159.801 297.182 157.958C293.71 156.637 287.003 155.358 268.404 155.358V163.544C281.02 163.544 282.534 163.293 289.477 163.371C297.062 163.444 304.86 166.018 308.744 172.815C310.002 174.976 310.926 177.273 311.646 179.648C303.331 178.265 294.874 177.795 286.533 176.918C280.979 176.354 275.461 175.487 270.032 174.193C265.997 173.201 261.973 171.969 258.454 169.735C257.306 168.978 256.184 168.111 255.087 167.266C251.266 164.374 248.093 160.317 248.176 155.285V146.604H248.145V143.947C248.145 132.175 257.723 122.596 269.495 122.596H279.371C289.373 122.596 297.86 116.008 300.726 106.941C300.784 119.36 305.68 131.022 314.544 139.807L314.538 139.797ZM312.461 312.627C309.35 313.353 306.15 313.849 302.955 314.386C297.443 315.232 291.868 315.874 286.303 316.704C277.982 318.046 269.505 319.445 261.743 322.906C259.149 324.065 256.847 325.495 254.675 327.301C251.261 330.005 248.145 333.957 247.617 338.431C247.085 333.957 243.974 330.005 240.56 327.301C238.388 325.495 236.086 324.065 233.492 322.906C225.73 319.445 217.253 318.051 208.932 316.704C203.367 315.874 197.792 315.232 192.28 314.386C189.284 313.885 186.277 313.421 183.348 312.763C182.586 309.573 182.08 306.279 181.532 302.991C180.686 297.478 180.044 291.903 179.214 286.338C177.873 278.017 176.474 269.54 173.013 261.777C171.854 259.183 170.277 256.735 168.471 254.563C165.83 251.227 162.113 248.283 157.796 247.677C162.113 247.072 165.83 244.133 168.471 240.792C170.277 238.62 171.854 236.172 173.013 233.578C176.474 225.815 177.867 217.338 179.214 209.017C180.044 203.452 180.686 197.877 181.532 192.364C182.08 189.081 182.592 185.787 183.348 182.592C186.277 181.94 189.284 181.47 192.28 180.969C197.792 180.123 203.367 179.481 208.932 178.651C217.258 177.309 225.735 175.91 233.492 172.449C236.086 171.29 238.681 169.568 240.852 167.756C244.24 165.073 247.101 161.398 247.617 157.024C248.134 161.398 250.995 165.073 254.383 167.756C256.554 169.562 259.149 171.29 261.748 172.449C269.51 175.91 277.988 177.304 286.308 178.651C291.873 179.481 297.448 180.123 302.96 180.969C306.155 181.506 309.36 182.002 312.466 182.728C313.207 185.876 313.708 189.123 314.251 192.364C315.097 197.877 315.739 203.452 316.569 209.017C317.91 217.343 319.309 225.821 322.77 233.578C323.929 236.172 325.652 238.767 327.463 240.938C330.094 244.263 333.685 247.082 337.955 247.672C333.685 248.262 330.094 251.081 327.463 254.406C325.657 256.578 323.929 259.172 322.77 261.767C319.309 269.529 317.916 278.007 316.569 286.328C315.739 291.893 315.097 297.468 314.251 302.98C313.708 306.222 313.207 309.469 312.466 312.617L312.461 312.627ZM301.227 53.4183C303.002 53.4183 304.443 54.8591 304.443 56.6339C304.443 58.4088 303.002 59.8496 301.227 59.8496C299.452 59.8496 298.012 58.4088 298.012 56.6339C298.012 54.8591 299.452 53.4183 301.227 53.4183ZM190.771 56.6339C190.771 54.8591 192.212 53.4183 193.987 53.4183C195.762 53.4183 197.202 54.8591 197.202 56.6339C197.202 58.4088 195.762 59.8496 193.987 59.8496C192.212 59.8496 190.771 58.4088 190.771 56.6339ZM194.509 92.4601C195.229 92.2357 195.756 91.5727 195.756 90.7792V72.3519H196.472C196.738 72.3519 196.957 72.1327 196.957 71.8665V71.689C196.957 71.4175 196.738 71.2035 196.472 71.2035H195.756V68.5621H196.409C196.753 68.5621 197.03 68.2854 197.03 67.9409C197.03 67.5963 196.753 67.3197 196.409 67.3197H195.756V64.7096C195.991 64.7565 196.242 64.7827 196.492 64.7827C198.591 64.7827 200.287 63.0861 200.287 60.9823C200.287 59.3119 199.212 57.8972 197.714 57.3856C197.761 57.1507 197.782 56.9054 197.782 56.6548C197.782 54.7338 196.357 53.1521 194.504 52.8963V47.0288C194.504 41.1195 199.311 36.3117 205.22 36.3117H236.368C241.641 36.3117 246.114 32.8246 247.602 28.0325C249.09 32.8246 253.563 36.3117 258.835 36.3117H289.983C295.892 36.3117 300.7 41.1195 300.7 47.0288V52.8963C298.847 53.1521 297.422 54.7338 297.422 56.6548C297.422 56.9054 297.448 57.1507 297.49 57.3856C295.992 57.8972 294.916 59.3119 294.916 60.9823C294.916 63.0809 296.613 64.7827 298.711 64.7827C298.962 64.7827 299.212 64.7565 299.447 64.7096V67.3197H298.795C298.45 67.3197 298.174 67.5963 298.174 67.9409C298.174 68.2854 298.45 68.5621 298.795 68.5621H299.447V90.7844C299.447 91.5831 299.98 92.2461 300.705 92.4654V100.186C300.705 111.958 291.126 121.537 279.355 121.537H269.479C258.778 121.537 249.805 129.085 247.607 139.139C245.404 129.085 236.436 121.537 225.735 121.537H215.859C204.088 121.537 194.509 111.958 194.509 100.186V92.4601ZM139.25 180.739C144.913 175.075 148.009 167.537 147.951 159.524C147.91 153.573 146.14 147.909 142.883 143.101C147.774 146.468 153.563 148.301 159.644 148.337C159.712 148.337 159.78 148.337 159.848 148.337C167.73 148.337 175.127 145.304 180.691 139.786C189.55 131.001 194.451 119.334 194.509 106.92C197.375 115.988 205.868 122.575 215.864 122.575H225.74C237.512 122.575 247.09 132.155 247.09 143.926V146.583H247.064V155.264C247.142 160.297 243.963 164.353 240.148 167.245C239.057 168.09 237.929 168.957 236.781 169.714C233.262 171.948 229.233 173.18 225.203 174.172C219.774 175.466 214.256 176.338 208.702 176.897C200.554 177.753 192.296 178.223 184.163 179.538C184.883 177.194 185.797 174.929 187.039 172.794C190.923 165.997 198.721 163.423 206.306 163.35C213.249 163.272 214.763 163.523 227.379 163.523V155.343C208.78 155.343 202.073 156.622 198.601 157.942C193.752 159.79 189.534 163.105 186.34 167.224C183.411 171.035 181.85 175.54 180.858 180.123C175.999 181.104 171.181 182.67 167.151 185.771C163.032 188.971 159.712 193.189 157.869 198.033C156.549 201.505 155.27 208.213 155.27 226.812H163.455C163.455 214.195 163.204 212.681 163.283 205.738C163.356 198.153 165.929 190.354 172.726 186.471C175.101 185.087 177.633 184.116 180.253 183.365C180.237 183.448 180.227 183.526 180.211 183.61C178.823 191.941 178.353 200.424 177.476 208.777C176.912 214.331 176.046 219.849 174.751 225.278C173.759 229.313 172.527 233.338 170.293 236.856C169.536 237.999 168.67 239.127 167.824 240.223C164.932 244.044 160.876 247.218 155.844 247.135H154.242H147.628H144.595C132.881 247.135 123.349 237.587 123.349 225.852V216.022C123.349 205.921 116.725 197.355 107.637 194.515C119.591 194.076 130.762 189.222 139.265 180.723L139.25 180.739ZM53.5575 193.852C53.5575 192.077 54.9983 190.636 56.7731 190.636C58.5479 190.636 59.9886 192.077 59.9886 193.852C59.9886 195.627 58.5479 197.068 56.7731 197.068C54.9983 197.068 53.5575 195.627 53.5575 193.852ZM59.9886 301.096C59.9886 302.871 58.5479 304.311 56.7731 304.311C54.9983 304.311 53.5575 302.871 53.5575 301.096C53.5575 299.321 54.9983 297.88 56.7731 297.88C58.5479 297.88 59.9886 299.321 59.9886 301.096ZM92.5877 300.532C92.3528 299.832 91.7003 299.326 90.9225 299.326H68.7009V298.674C68.7009 298.329 68.4242 298.052 68.0797 298.052C67.7351 298.052 67.4585 298.329 67.4585 298.674V299.326H64.8485C64.8954 299.091 64.9216 298.841 64.9216 298.59C64.9216 296.492 63.225 294.795 61.1214 294.795C59.451 294.795 58.0363 295.87 57.5248 297.369C57.2899 297.322 57.0445 297.301 56.794 297.301C54.873 297.301 53.2913 298.726 53.0355 300.579H47.1682C41.2591 300.579 36.4515 295.771 36.4515 289.862V258.713C36.4515 253.441 32.9645 248.967 28.1725 247.479C32.9645 245.991 36.4515 241.518 36.4515 236.245V205.096C36.4515 199.187 41.2591 194.379 47.1682 194.379H53.0355C53.2913 196.232 54.873 197.658 56.794 197.658C57.0445 197.658 57.2899 197.631 57.5248 197.59C58.0363 199.088 59.451 200.163 61.1214 200.163C63.2198 200.163 64.9216 198.467 64.9216 196.368C64.9216 196.118 64.8954 195.867 64.8485 195.632H67.4585V196.285C67.4585 196.629 67.7351 196.906 68.0797 196.906C68.4242 196.906 68.7009 196.629 68.7009 196.285V195.632H90.9225C91.6429 195.632 92.2536 195.204 92.5303 194.588H101.044C112.758 194.588 122.29 204.214 122.29 216.054V225.883C122.29 236.538 129.78 245.469 139.766 247.683C129.791 249.891 122.29 259 122.29 269.874V279.703C122.29 291.391 112.956 300.548 101.044 300.548H92.5877V300.532ZM180.561 355.469C174.965 349.92 167.553 346.872 159.665 346.872C159.597 346.872 159.529 346.872 159.462 346.872C153.443 346.913 147.717 348.72 142.862 352.04C146.135 347.221 147.92 341.547 147.957 335.58C148.009 327.567 144.919 320.035 139.255 314.366C130.804 305.914 119.706 301.064 107.835 300.579C116.918 297.823 123.344 289.627 123.344 279.688V269.858C123.344 257.914 132.813 248.194 144.449 248.194H155.839C160.871 248.116 164.927 251.29 167.819 255.111C168.664 256.202 169.531 257.33 170.288 258.478C172.522 261.996 173.754 266.026 174.746 270.056C176.04 275.485 176.912 281.003 177.471 286.558C178.348 294.915 178.817 303.393 180.206 311.724C180.222 311.808 180.232 311.886 180.248 311.969C177.627 311.218 175.096 310.242 172.72 308.863C165.924 304.98 163.35 297.181 163.277 289.596C163.204 282.653 163.45 281.139 163.45 268.522H155.265C155.265 287.121 156.544 293.829 157.864 297.301C159.712 302.15 163.027 306.368 167.145 309.563C171.181 312.664 175.993 314.235 180.853 315.211C181.845 319.795 183.406 324.305 186.334 328.11C189.534 332.229 193.752 335.549 198.596 337.392C202.067 338.718 208.775 339.991 227.374 339.991V331.811C214.757 331.811 213.244 332.062 206.301 331.984C198.716 331.911 190.917 329.337 187.034 322.54C185.791 320.405 184.878 318.14 184.158 315.796C192.29 317.106 200.548 317.581 208.697 318.437C214.251 319.001 219.769 319.868 225.197 321.162C229.233 322.154 233.257 323.386 236.775 325.62C237.919 326.377 239.046 327.244 240.142 328.089C243.963 330.981 247.137 335.037 247.054 340.07V348.751H247.085V351.408C247.085 363.18 237.506 372.759 225.735 372.759H215.859C205.706 372.759 197.114 379.555 194.378 388.837V388.545C194.378 376.047 189.472 364.297 180.556 355.459L180.561 355.469ZM193.987 441.535C192.212 441.535 190.771 440.094 190.771 438.319C190.771 436.544 192.212 435.103 193.987 435.103C195.762 435.103 197.202 436.544 197.202 438.319C197.202 440.094 195.762 441.535 193.987 441.535ZM304.443 438.319C304.443 440.094 303.002 441.535 301.227 441.535C299.452 441.535 298.012 440.094 298.012 438.319C298.012 436.544 299.452 435.103 301.227 435.103C303.002 435.103 304.443 436.544 304.443 438.319ZM300.716 402.488C299.99 402.707 299.458 403.37 299.458 404.169V426.391H298.805C298.461 426.391 298.184 426.668 298.184 427.012C298.184 427.357 298.461 427.633 298.805 427.633H299.458V430.243C299.223 430.196 298.972 430.17 298.722 430.17C296.623 430.17 294.927 431.867 294.927 433.971C294.927 435.641 296.002 437.056 297.5 437.567C297.453 437.802 297.432 438.048 297.432 438.298C297.432 440.219 298.857 441.801 300.71 442.057V447.924C300.71 453.834 295.903 458.641 289.994 458.641H258.846C253.574 458.641 249.1 462.128 247.612 466.921C246.125 462.128 241.651 458.641 236.379 458.641H205.231C199.322 458.641 194.514 453.834 194.514 447.924V442.057C196.367 441.801 197.792 440.219 197.792 438.298C197.792 438.048 197.766 437.802 197.724 437.567C199.223 437.056 200.298 435.641 200.298 433.971C200.298 431.872 198.601 430.17 196.503 430.17C196.252 430.17 196.002 430.196 195.767 430.243V427.633H196.419C196.764 427.633 197.041 427.357 197.041 427.012C197.041 426.668 196.764 426.391 196.419 426.391H195.767V404.169C195.767 403.328 195.177 402.629 194.389 402.451V395.169H194.519C194.519 383.397 204.098 373.818 215.869 373.818H225.746C236.447 373.818 245.42 366.27 247.617 356.216C249.82 366.27 258.788 373.818 269.489 373.818H279.366C291.137 373.818 300.716 383.397 300.716 395.169V402.488ZM355.98 314.371C350.28 320.071 347.169 327.64 347.226 335.685C347.268 341.625 349.038 347.279 352.295 352.071C347.456 348.772 341.74 346.976 335.726 346.94C327.703 346.898 320.197 349.946 314.538 355.558C305.68 364.344 300.778 376.011 300.721 388.424C297.855 379.357 289.362 372.769 279.366 372.769H269.489C257.718 372.769 248.139 363.19 248.139 351.418V348.761H248.166V340.08C248.087 335.048 251.266 330.992 255.082 328.1C256.173 327.254 257.301 326.388 258.449 325.631C261.967 323.396 265.997 322.164 270.027 321.173C275.456 319.878 280.974 319.006 286.528 318.448C294.864 317.571 303.326 317.106 311.641 315.718C310.921 318.093 309.997 320.39 308.739 322.551C304.855 329.347 297.056 331.921 289.472 331.994C282.529 332.067 281.015 331.822 268.398 331.822V340.007C286.997 340.007 293.705 338.728 297.176 337.407C302.026 335.559 306.244 332.245 309.438 328.126C312.393 324.284 313.954 319.732 314.945 315.112C319.612 314.125 324.211 312.559 328.084 309.579C332.203 306.379 335.523 302.161 337.366 297.316C338.691 293.845 339.965 287.137 339.965 268.537H331.785C331.785 281.155 332.036 282.668 331.958 289.611C331.884 297.196 329.311 304.995 322.515 308.879C320.317 310.158 317.978 311.092 315.561 311.823C315.561 311.797 315.572 311.771 315.577 311.74C316.966 303.408 317.435 294.931 318.312 286.573C318.876 281.019 319.743 275.501 321.037 270.072C322.029 266.037 323.261 262.012 325.495 258.494C326.252 257.351 327.119 256.223 327.964 255.127C330.856 251.306 334.912 248.132 339.944 248.215H347.148V248.205H350.322C362.275 248.205 372.371 257.966 372.371 269.519V279.348C372.371 289.277 378.896 297.703 387.88 300.579C375.827 300.955 364.546 305.815 355.98 314.381V314.371ZM441.662 301.096C441.662 302.871 440.221 304.311 438.446 304.311C436.671 304.311 435.231 302.871 435.231 301.096C435.231 299.321 436.671 297.88 438.446 297.88C440.221 297.88 441.662 299.321 441.662 301.096ZM458.773 205.091V236.24C458.773 241.512 462.26 245.986 467.052 247.474C462.26 248.962 458.773 253.435 458.773 258.708V289.857C458.773 295.766 453.965 300.574 448.056 300.574H442.189C441.933 298.721 440.352 297.295 438.431 297.295C438.18 297.295 437.935 297.322 437.7 297.363C437.188 295.865 435.774 294.79 434.103 294.79C432.005 294.79 430.303 296.486 430.303 298.585C430.303 298.835 430.329 299.086 430.376 299.321H427.766V298.668C427.766 298.324 427.489 298.047 427.145 298.047C426.8 298.047 426.524 298.324 426.524 298.668V299.321H404.302C403.524 299.321 402.872 299.827 402.637 300.527H393.272C382.206 299.806 373.425 290.577 373.425 279.333V269.503C373.425 258.984 365.46 249.891 355.171 247.667C365.46 245.448 373.425 236.365 373.425 225.867V216.038C373.425 204.094 382.957 194.374 394.671 194.374H402.626C402.851 195.094 403.514 195.622 404.307 195.622H426.529V196.274C426.529 196.619 426.806 196.895 427.15 196.895C427.495 196.895 427.771 196.619 427.771 196.274V195.622H430.381C430.334 195.857 430.308 196.107 430.308 196.358C430.308 198.456 432.005 200.153 434.108 200.153C435.779 200.153 437.193 199.077 437.705 197.579C437.94 197.626 438.185 197.647 438.436 197.647C440.357 197.647 441.938 196.222 442.194 194.369H448.062C453.971 194.369 458.778 199.177 458.778 205.086L458.773 205.091Z" fill="white"/>
<path d="M194.5 248.975V255.725C194.5 257.555 195.28 257.945 198.22 258.185V259.055H189.04V258.245C191.26 257.975 191.68 257.825 191.68 256.115V240.935C191.68 239.225 191.26 239.075 189.04 238.805V237.995H204.13L204.25 243.095H203.65C202.57 239.855 201.34 238.985 199.3 238.985H194.5V247.985H198.64C199.93 247.985 200.38 246.965 200.68 245.165H201.49V251.795H200.68C200.38 249.995 199.93 248.975 198.64 248.975H194.5ZM210.023 257.585C211.253 257.585 212.153 257.015 213.383 255.995V250.355L209.783 251.825C208.283 252.425 207.413 253.265 207.413 254.855C207.413 256.475 208.313 257.585 210.023 257.585ZM216.113 247.775V255.725C216.113 257.045 216.413 257.705 217.283 257.705C217.763 257.705 218.213 257.525 218.663 257.315L218.813 257.765C218.093 258.845 217.073 259.355 215.933 259.355C214.463 259.355 213.593 258.305 213.443 256.625C212.393 257.855 210.713 259.355 208.613 259.355C206.273 259.355 204.803 257.825 204.803 255.605C204.803 253.085 206.693 252.035 209.063 251.135L213.383 249.515V247.475C213.383 245.405 212.603 243.905 210.623 243.905C208.913 243.905 208.193 245.045 208.193 246.575C208.193 247.085 208.253 247.535 208.403 248.135L206.813 248.375C206.063 248.135 205.643 247.565 205.643 246.725C205.643 244.475 207.983 243.155 211.013 243.155C214.433 243.155 216.113 244.625 216.113 247.775ZM224.069 243.155V256.775C224.069 257.945 224.549 258.185 226.139 258.275V259.055H219.299V258.275C220.889 258.185 221.369 257.945 221.369 256.775V246.035L219.419 244.985V244.655L223.709 243.155H224.069ZM222.569 240.815C221.519 240.815 220.679 239.945 220.679 238.895C220.679 237.845 221.519 236.975 222.569 236.975C223.649 236.975 224.489 237.845 224.489 238.895C224.489 239.945 223.649 240.815 222.569 240.815ZM231.979 248.075V256.775C231.979 257.945 232.669 258.185 234.649 258.275V259.055H227.209V258.275C228.799 258.185 229.279 257.945 229.279 256.775V246.035L227.329 244.985V244.655L231.739 243.155H232.099L231.979 247.415C233.629 244.355 234.349 243.155 236.029 243.155C236.569 243.155 236.959 243.365 237.169 243.635V245.885H236.749C234.919 245.885 233.659 246.035 231.979 248.075ZM239.428 238.445L237.478 237.395V237.065L241.768 235.565H242.128V245.825C243.298 244.235 244.918 243.155 247.168 243.155C250.948 243.155 253.078 246.035 253.078 250.355C253.078 255.905 249.718 259.355 245.548 259.355C243.028 259.355 240.898 258.515 239.428 257.195V238.445ZM245.548 258.545C248.488 258.545 250.378 255.455 250.378 251.585C250.378 248.195 249.118 244.895 245.698 244.895C244.348 244.895 242.968 245.555 242.128 246.515V254.765C242.128 257.435 243.418 258.545 245.548 258.545ZM259.136 235.565V256.775C259.136 257.945 259.616 258.185 261.206 258.275V259.055H254.366V258.275C255.956 258.185 256.436 257.945 256.436 256.775V238.445L254.486 237.395V237.065L258.776 235.565H259.136ZM269.477 258.425C272.147 258.425 273.617 255.665 273.617 251.615C273.617 247.655 272.267 244.085 269.357 244.085C266.687 244.085 265.217 246.845 265.217 250.895C265.217 254.855 266.567 258.425 269.477 258.425ZM269.327 259.355C265.127 259.355 262.367 256.235 262.367 251.645C262.367 246.485 265.517 243.155 269.507 243.155C273.707 243.155 276.467 246.335 276.467 250.865C276.467 256.025 273.317 259.355 269.327 259.355ZM280.881 250.475C280.881 254.495 282.801 257.225 285.891 257.225C287.871 257.225 289.251 256.295 290.271 254.735L290.631 254.915C289.731 257.735 287.781 259.355 285.021 259.355C281.151 259.355 278.481 256.325 278.481 251.795C278.481 246.875 281.271 243.155 285.741 243.155C288.561 243.155 290.211 244.385 290.211 246.335C290.211 247.115 289.851 247.835 289.251 248.165H287.541C287.601 247.835 287.661 247.475 287.661 246.905C287.661 245.465 287.151 244.085 285.201 244.085C282.501 244.085 280.881 246.905 280.881 250.475ZM296.674 250.505L301.504 246.095C301.894 245.735 302.254 245.405 302.254 245.015C302.254 244.415 301.654 244.415 300.244 244.235V243.455H306.184V244.235C305.014 244.505 304.474 244.775 303.814 245.375L299.254 249.515L306.904 258.485V259.055H303.874L296.674 250.505ZM293.614 256.775V238.445L291.664 237.395V237.065L295.954 235.565H296.314V256.775C296.314 257.945 296.794 258.185 298.384 258.275V259.055H291.544V258.275C293.134 258.185 293.614 257.945 293.614 256.775Z" fill="white"/>
</svg>
