<svg width="2566" height="1355" viewBox="0 0 2566 1355" fill="none" xmlns="http://www.w3.org/2000/svg">
<path d="M1229.76 146.201H1264.71V179.723H1229.76V146.201Z" fill="white"/>
<path d="M1264.7 112.666H1299.65V146.188H1264.7V112.666Z" fill="white"/>
<path d="M1299.64 146.186H1334.58V112.663H1334.56C1334.56 112.663 1334.56 84.7859 1346.07 64.6053C1346.31 64.1762 1346.57 63.7605 1346.81 63.3449C1346.45 63.0767 1346.07 62.8353 1345.71 62.5537C1333.45 53.2211 1323.95 41.0457 1314.91 29.0178C1307.07 19.0281 1296.37 1.97184 1282.14 1.30139C1267.91 1.97184 1257.22 19.0415 1249.38 29.0178C1240.33 41.0457 1230.82 53.2211 1218.58 62.5537C1218.22 62.8219 1217.84 63.0767 1217.47 63.3449C1217.73 63.7739 1217.98 64.1896 1218.22 64.6053C1229.72 84.7993 1229.72 112.663 1229.72 112.663V146.186H1194.77V112.663C1194.77 101.011 1193.79 88.8488 1190.8 77.5316C1171.54 84.4775 1150.21 86.1536 1129.83 82.4259C1114.28 79.677 1099.27 73.6698 1086.21 65.021C1070.53 55.3397 1050.07 34.5021 1064.82 16.3999C1077.32 2.72274 1104.02 3.44683 1121.44 4.14409C1162.1 6.28954 1195.81 27.5696 1216.37 61.4676C1224.67 55.6079 1232.19 48.4475 1238.64 40.0534C1248.33 28.6423 1256 15.287 1267.95 5.72636C1272.96 1.6232 1277.68 -0.0395155 1282.11 0.000711473H1282.14C1286.59 -0.0261065 1291.3 1.63661 1296.3 5.72636C1308.26 15.287 1315.93 28.6423 1325.62 40.0534C1332.06 48.4475 1339.58 55.6079 1347.89 61.4676C1368.45 27.5696 1402.15 6.28954 1442.82 4.14409C1460.24 3.44683 1486.92 2.72274 1499.44 16.3999C1514.21 34.5021 1493.77 55.3531 1478.08 65.021C1465.03 73.6698 1450.01 79.677 1434.46 82.4259C1414.08 86.1536 1392.75 84.4775 1373.48 77.5316C1370.49 88.8488 1369.51 101.024 1369.51 112.663H1369.53V146.186H1334.59V179.722H1299.64V146.186ZM1185.22 62.366C1181.34 54.6558 1176.08 47.415 1169.69 41.4211C1154.69 27.1271 1134.37 18.2772 1113.39 16.1452C1102.66 15.059 1090.95 15.649 1080.6 18.5856C1077.47 19.4706 1074.34 20.664 1072.02 22.8631C1065.84 28.7496 1069.16 38.4443 1073.08 44.6125C1077.07 50.8745 1083.04 55.6213 1088.96 60.1133C1100.73 69.0169 1116.28 74.3 1130.93 77.5718C1151.21 82.1979 1171.59 81.085 1190.08 74.8364C1188.79 70.5187 1187.2 66.3217 1185.22 62.366ZM1433.4 77.5852C1448.03 74.3134 1463.59 69.0437 1475.36 60.1267C1481.3 55.6347 1487.26 50.9013 1491.24 44.6259C1495.17 38.4443 1498.49 28.763 1492.31 22.8765C1490 20.6774 1486.85 19.484 1483.72 18.599C1473.38 15.6624 1461.65 15.0724 1450.94 16.1586C1429.96 18.2906 1409.62 27.1405 1394.63 41.4345C1388.25 47.4284 1382.99 54.6692 1379.1 62.3794C1377.13 66.3351 1375.54 70.5187 1374.25 74.8498C1392.73 81.0984 1413.11 82.2113 1433.4 77.5852Z" fill="white"/>
<path d="M1848.38 14.2871H2470.34C2523.08 14.2871 2566 55.4528 2566 106.058V1263.24C2566 1313.83 2523.08 1355 2470.34 1355H95.6597C42.9161 1355 -8.19742e-05 1313.83 -8.19742e-05 1263.24V106.058C-8.19742e-05 55.4662 42.9161 14.3005 95.6597 14.3005H718.365C750.028 14.3005 875.463 14.1798 899.242 14.2335C907.825 14.3005 922.881 14.1262 931.38 14.3676C957.773 15.4135 983.341 27.5888 1000.23 47.0587C1012.22 60.6957 1019.91 77.7787 1021.97 95.5189C1022.59 99.9036 1022.41 104.409 1022.8 108.78C1024.16 121.586 1028.59 134.15 1035.4 144.891C1049.99 168.222 1076.51 183.898 1104.65 185.051C1110.16 185.332 1115.05 184.93 1121.5 184.474C1142.8 182.972 1173.85 180.733 1194.8 179.781V179.714H1229.75V213.237H1194.8V213.169C1182.59 212.714 1170.37 211.869 1158.15 211.011L1121.5 208.476C1108.39 207.9 1094.45 205.701 1082.23 200.699C1045.63 186.673 1019.58 150.992 1019.72 113.339C1019.81 107.426 1020.01 101.66 1019.21 95.8004C1014.85 54.8627 978.504 20.7637 935.742 17.4114C930.486 16.9153 922.937 16.9823 917.569 17.0091L899.242 17.0225C875.114 17.103 750.671 16.9153 718.365 16.9421H95.6597C44.4538 16.9421 2.79576 56.9009 2.79576 106.018V1263.2C2.79576 1312.32 44.4538 1352.28 95.6597 1352.28H2470.34C2521.55 1352.28 2563.2 1312.32 2563.2 1263.2V106.058C2563.2 56.9277 2521.55 16.9689 2470.34 16.9689H1848.38C1808.41 16.9957 1685 17.0762 1646.78 17.0225C1646.78 17.0225 1637.61 17.0225 1637.63 17.0225C1610.46 16.8348 1583.67 28.7554 1566.29 48.8019C1554.63 62.0366 1547.17 78.5967 1545.15 95.8273C1544.36 101.687 1544.55 107.439 1544.65 113.366C1544.58 125.34 1542.02 137.476 1537.02 148.82C1524.37 178.145 1495.36 200.444 1462.59 206.344C1456.26 207.632 1449.06 208.074 1442.85 208.49C1421.53 209.898 1390.51 212.365 1369.55 213.183V213.25H1334.6V179.727H1369.55V179.794C1390.64 180.746 1421.55 182.919 1442.85 184.488C1454.79 185.534 1464.55 185.493 1475.82 182.785C1509.49 175.021 1536.08 146.178 1540.96 113.085C1542.08 107.305 1541.57 101.352 1542.37 95.5189C1543.07 89.6055 1544.37 83.7726 1546.26 78.1006C1553.74 55.3723 1570.89 35.8354 1592.89 24.7998C1606.59 17.8271 1622.11 14.2603 1637.61 14.2603H1646.78C1685.45 14.1932 1807.51 14.2871 1848.38 14.3139" fill="white"/>
</svg>
