<svg width="523" height="105" viewBox="0 0 523 105" fill="none" xmlns="http://www.w3.org/2000/svg">
<path d="M522.99 37.9282H515.71V45.2084H522.99V37.9282Z" fill="white"/>
<path d="M523 59.8044H515.719V67.0846H523V59.8044Z" fill="white"/>
<path d="M515.719 45.2371H508.439V52.5172V59.8003H515.719V52.5172V45.2371Z" fill="white"/>
<path d="M508.44 72.4479H508.417V77.1418C508.263 82.2772 507.161 86.8259 503.587 90.3663C501.527 92.3801 498.776 93.4738 495.879 93.7586C494.079 93.9495 492.191 93.921 490.399 93.5763C491.325 91.2635 491.763 88.7514 491.618 86.262C491.467 83.351 490.707 80.3205 488.795 78.0362C487.63 76.6291 485.591 75.9655 483.814 76.6006C482.076 77.2529 481.045 79.0615 480.541 80.7477C479.553 84.1315 480.077 87.894 482.042 90.8562C483.614 93.3001 486.027 94.8951 488.71 95.8521C487.351 98.182 485.434 100.173 483.05 101.514C477.174 104.656 470.37 106.018 465.069 101.019C460.122 96.3449 461.66 90.7765 465.536 86.0142C469.834 80.5483 476.514 77.2614 480.194 71.2373C483.634 65.6861 483.113 58.742 479.769 53.2875C479.61 53.0198 479.442 52.752 479.268 52.49C479.436 52.2337 479.601 51.9716 479.758 51.7096C483.102 46.258 483.623 39.3139 480.182 33.7597C476.502 27.7328 469.826 24.4487 465.525 18.9829C461.649 14.2206 460.11 8.65221 465.058 3.9782C470.356 -1.02052 477.16 0.338102 483.039 3.4826C485.423 4.82129 487.34 6.81508 488.699 9.14496C486.018 10.0991 483.606 11.697 482.031 14.1408C480.065 17.1002 479.541 20.8656 480.53 24.2494C481.037 25.9355 482.065 27.7442 483.802 28.3964C485.577 29.0316 487.619 28.368 488.784 26.9609C490.695 24.6766 491.453 21.6489 491.607 18.7351C491.749 16.2486 491.313 13.7364 490.388 11.4207C492.182 11.0732 494.068 11.0448 495.868 11.2384C498.764 11.5233 501.516 12.6199 503.575 14.6307C507.275 18.2908 508.326 23.0275 508.42 28.3794V33.361H508.431V37.9211H515.712V30.6409C515.697 30.4785 515.712 30.339 515.712 30.1937C515.712 23.4091 514.04 19.4614 510.909 15.0751C507.215 9.89406 501.015 7.64677 494.726 7.99711C492.886 8.08541 490.98 8.39302 489.18 8.97976C487.531 6.20555 485.121 3.8956 482.148 2.54267C475.779 -0.467959 469.02 -1.05755 463.95 4.61051C459.763 9.36143 461.597 14.8244 465.112 19.3105C468.117 23.2211 472.221 26.0723 475.693 29.5158C477.986 31.7574 479.92 34.3864 480.86 37.4682C482.341 42.447 481.205 47.3432 478.579 51.4959C474.021 45.2326 466.257 40.8121 458.552 41.0741L458.49 41.2678V41.0627C451.118 40.9858 444.24 45.3266 440.774 51.6441C439.66 49.2116 439.036 46.5257 439.056 43.7202C439.062 37.4625 438.973 25.9099 438.991 19.5497C439.002 14.7048 437.133 9.89121 433.841 6.33372C430.164 2.28062 424.743 -0.0521114 419.289 0.00200577C418.124 0.00485404 415.133 -0.00369078 413.923 0.00200577C409.292 0.00200577 397.272 0.00200577 392.461 0.00200577H335.231V0.0105506H162.201C151.956 0.0105506 113.473 0.0105506 103.865 0.0162471C101.051 -0.0122356 98.2231 0.534633 95.6511 1.69103C88.7013 4.69311 83.9475 11.979 84.0273 19.5526C84.013 24.0642 83.9788 35.9159 83.9674 40.2709C83.9503 42.2476 84.05 45.187 83.6484 47.0982C83.3864 48.6961 82.905 50.2285 82.2471 51.6725C78.7893 45.338 71.905 40.9858 64.5166 41.0599V41.2678L64.4511 41.0741C56.7493 40.8121 48.9849 45.2326 44.4249 51.4959C41.7987 47.3432 40.6594 42.447 42.1434 37.4682C43.0833 34.3864 45.0173 31.7603 47.3102 29.5158C50.7822 26.0723 54.8866 23.2211 57.8915 19.3105C61.4063 14.8244 63.2406 9.36143 59.0536 4.61051C53.9837 -1.05755 47.2247 -0.467959 40.856 2.54267C37.8824 3.89275 35.4699 6.2027 33.8236 8.97976C32.0235 8.39302 30.118 8.08541 28.278 7.99711C21.989 7.64677 15.7883 9.81431 12.0941 14.9953C8.9667 19.3817 7.29191 23.412 7.29191 30.1937C7.29191 30.3418 7.3033 30.4785 7.29191 30.6409V37.9211H14.5721V30.6409H14.5607V30.6323H14.5749V29.194C14.5749 23.5088 15.5434 18.4759 19.4284 14.6307C21.4877 12.617 24.2391 11.5233 27.1358 11.2384C28.9359 11.0476 30.8244 11.0761 32.6159 11.4207C31.6902 13.7364 31.2516 16.2457 31.3969 18.7351C31.5507 21.6489 32.3083 24.6766 34.2195 26.9609C35.3844 28.368 37.4266 29.0316 39.2011 28.3964C40.9386 27.7442 41.9668 25.9355 42.4738 24.2494C43.465 20.8656 42.9409 17.1002 40.9728 14.1408C39.4005 11.697 36.9852 10.102 34.3049 9.14496C35.6636 6.81508 37.5805 4.82413 39.9645 3.4826C45.8461 0.338102 52.6478 -1.02052 57.9456 3.9782C62.8931 8.65221 61.355 14.2206 57.4785 18.9829C53.1805 24.4487 46.5012 27.7356 42.8213 33.7597C39.3806 39.3139 39.9018 46.258 43.2457 51.7096C43.4023 51.9716 43.5675 52.2308 43.7356 52.49C43.5647 52.752 43.3938 53.0198 43.2343 53.2875C39.8904 58.742 39.3692 65.6861 42.8099 71.2373C46.4899 77.2643 53.1662 80.5483 57.4671 86.0142C61.3436 90.7765 62.8817 96.3449 57.9342 101.019C52.6336 106.018 45.8291 104.656 39.9531 101.514C37.5719 100.176 35.6522 98.182 34.2935 95.8521C36.9766 94.8979 39.3863 93.3001 40.9614 90.8562C42.9238 87.894 43.4479 84.1315 42.4624 80.7477C41.9583 79.0615 40.9272 77.2529 39.1897 76.6006C37.4124 75.9655 35.373 76.6291 34.2081 78.0362C32.2969 80.3205 31.5364 83.351 31.3855 86.262C31.243 88.7485 31.6788 91.2635 32.6045 93.5763C30.8101 93.9238 28.9217 93.9523 27.1244 93.7586C24.2306 93.4738 21.4763 92.3772 19.417 90.3663C15.532 86.5212 14.5636 81.4883 14.5636 75.8031V74.3647H14.5607V67.076H7.28052V74.3562C7.29476 74.5157 7.28052 74.6581 7.28052 74.8034C7.28052 81.588 8.95245 85.698 12.0827 90.0844C15.7769 95.2654 21.9776 97.3503 28.2666 97C30.1066 96.9117 32.0121 96.6041 33.8122 96.0173C35.4613 98.7972 37.8681 101.101 40.8446 102.454C47.2133 105.465 53.9723 106.052 59.0393 100.384C63.2263 95.6356 61.392 90.1698 57.8773 85.6838C54.8723 81.7731 50.768 78.922 47.2959 75.4784C45.0031 73.2368 43.0662 70.6079 42.1291 67.526C40.6452 62.5387 41.7874 57.6368 44.422 53.4812C48.9792 59.7588 56.7522 64.185 64.4625 63.9258L64.5137 63.7692C64.5137 63.8689 64.5137 63.9372 64.5137 63.9372C71.8965 64.0113 78.7836 59.6563 82.2414 53.3245C82.9022 54.7686 83.3807 56.301 83.6427 57.8989C84.0415 59.8158 83.9475 62.7694 83.9617 64.7262C83.9731 69.1325 84.0102 80.8901 84.0216 85.4445C83.9418 93.0181 88.6956 100.304 95.6482 103.306C98.2202 104.46 101.049 105.006 103.863 104.978C113.638 104.978 151.688 104.984 162.198 104.981H335.228H392.458C397.192 104.978 409.323 104.987 413.92 104.981C415.111 104.975 418.124 104.987 419.286 104.981C424.741 105.038 430.164 102.702 433.832 98.6577C437.125 95.1002 438.996 90.2866 438.985 85.4388C439.002 79.1157 439.033 67.4776 439.047 61.2684C439.03 58.4571 439.654 55.7655 440.771 53.3302C444.211 59.6164 450.939 63.9714 458.478 63.9258V63.7663L458.53 63.923C466.24 64.185 474.013 59.7559 478.57 53.4783C481.205 57.634 482.347 62.5359 480.863 67.5232C479.926 70.605 477.989 73.2311 475.696 75.4756C472.224 78.9191 468.12 81.7703 465.115 85.6809C461.6 90.167 459.766 95.6328 463.953 100.381C469.02 106.049 475.779 105.462 482.148 102.452C485.124 101.101 487.534 98.7944 489.18 96.0145C490.98 96.6012 492.886 96.9088 494.726 96.9971C501.015 97.3475 507.215 95.1002 510.909 89.9192C514.037 85.5328 515.712 81.5851 515.712 74.8005C515.712 74.6553 515.7 74.5129 515.712 74.3533V67.0732H508.431V72.445L508.44 72.4479ZM489.846 11.5347C490.872 14.1836 491.242 17.086 490.838 19.8915C490.462 22.1758 489.69 24.6538 488.109 26.3314C487.121 27.4138 485.56 27.8895 484.21 27.3397C482.911 26.7729 482.205 25.2263 481.874 23.8762C481.185 20.9596 481.851 17.6613 483.677 15.3001C485.227 13.2664 487.434 12.0958 489.849 11.5375L489.846 11.5347ZM39.3264 15.2972C41.1522 17.6585 41.8187 20.9596 41.1294 23.8734C40.7962 25.2206 40.0926 26.7672 38.7938 27.3369C37.4437 27.8866 35.88 27.4138 34.8945 26.3286C33.3137 24.651 32.5419 22.173 32.1659 19.8887C31.7614 17.0831 32.1317 14.1807 33.1571 11.5318C35.5724 12.0901 37.7798 13.2607 39.3293 15.2944L39.3264 15.2972ZM33.14 93.4596C32.1175 90.8192 31.7472 87.914 32.1516 85.1056C32.5276 82.8213 33.2995 80.3461 34.8803 78.6656C35.8686 77.5833 37.4323 77.1076 38.7796 77.6573C40.0755 78.2242 40.7791 79.7708 41.1152 81.1208C41.8044 84.0375 41.138 87.3329 39.3122 89.6941C37.7656 91.7278 35.5553 92.8985 33.1371 93.4567L33.14 93.4596ZM64.753 63.0685V63.0571C62.8076 63.0656 60.8765 62.7979 59.2017 62.3194C53.7871 60.8753 48.4694 57.2352 45.0971 52.4872C48.4723 47.7476 53.7814 44.1161 59.1875 42.6748C60.8622 42.1963 62.7934 41.9286 64.7416 41.9371V41.9286C71.9079 41.8973 78.607 46.2494 81.8426 52.5014C78.607 58.7477 71.9192 63.0941 64.7501 63.0713L64.753 63.0685ZM438.646 57.7764C438.25 59.7502 438.355 62.7125 438.355 64.7262L438.372 71.6332L438.409 85.4445C438.421 90.1499 436.607 94.8182 433.411 98.2731C429.848 102.204 424.587 104.465 419.289 104.411H417.5C415.179 104.411 409.18 104.414 406.771 104.411C397.166 104.403 346.068 104.423 335.234 104.411H162.204C151.959 104.411 113.476 104.42 103.868 104.417C101.125 104.445 98.3826 103.916 95.8789 102.793C89.1257 99.8796 84.5029 92.8016 84.5798 85.4388L84.6197 71.6275L84.6396 64.7205C84.6368 62.6925 84.7479 59.7389 84.352 57.7707C84.0557 55.9136 83.4804 54.142 82.6772 52.49C83.4804 50.838 84.0557 49.0664 84.3491 47.2121C84.745 45.2383 84.6368 42.2732 84.6368 40.2624L84.6168 33.3553L84.577 19.544C84.5001 12.1841 89.1257 5.10611 95.8789 2.18948C98.3854 1.06726 101.128 0.54033 103.868 0.565964C113.644 0.568812 151.694 0.565964 162.204 0.574509H335.234V0.565964C345.727 0.565964 397.363 0.565964 406.771 0.565964C409.141 0.568812 415.199 0.560267 417.5 0.565964H419.289C424.59 0.511847 429.85 2.77338 433.414 6.70399C436.612 10.159 438.424 14.8301 438.415 19.5355C438.398 25.8586 438.367 37.4967 438.35 43.7059C438.313 46.8219 439.033 49.7984 440.332 52.4672C439.523 54.1249 438.942 55.9051 438.646 57.7678V57.7764ZM463.799 62.3222C462.124 62.8007 460.193 63.0685 458.245 63.0599C450.922 63.0542 444.408 58.7049 441.187 52.4985C444.408 46.2836 450.922 41.9371 458.262 41.9314V41.94C460.207 41.9314 462.138 42.1992 463.813 42.6777C469.219 44.1218 474.531 47.7505 477.904 52.49C474.531 57.2381 469.214 60.8782 463.796 62.3222H463.799ZM483.688 89.697C481.863 87.3358 481.196 84.0375 481.886 81.1237C482.222 79.7765 482.925 78.2298 484.221 77.6602C485.568 77.1105 487.135 77.5833 488.12 78.6685C489.701 80.349 490.473 82.8241 490.849 85.1084C491.253 87.9168 490.883 90.8192 489.861 93.4624C487.442 92.9042 485.232 91.7335 483.686 89.6999L483.688 89.697Z" fill="white"/>
<path d="M7.28971 37.9282H0.00952148V45.2084H7.28971V37.9282Z" fill="white"/>
<path d="M7.28019 59.8044H0V67.0846H7.28019V59.8044Z" fill="white"/>
<path d="M14.5636 52.5172V45.2371H7.28052V52.5172V59.8003H14.5636V52.5172Z" fill="white"/>
</svg>
