<svg width="64" height="64" viewBox="0 0 64 64" fill="none" xmlns="http://www.w3.org/2000/svg">
<path fill-rule="evenodd" clip-rule="evenodd" d="M9.38284 23.4242C8.87239 23.8325 8.87239 24.6089 9.38284 25.0173L12.0302 27.1352C12.405 27.435 12.9382 27.433 13.3107 27.1303L28.4117 14.8607C28.6501 14.667 28.7885 14.3762 28.7885 14.069V10.022C28.7885 9.16665 27.7992 8.69112 27.1313 9.22544L9.38284 23.4242ZM13.9428 35.7966C13.5703 36.0993 13.0372 36.1012 12.6624 35.8015L10.2298 33.8554C9.72179 33.4489 9.71887 32.6774 10.2238 32.2671L27.1252 18.5347C27.7919 17.993 28.7885 18.4674 28.7885 19.3264V23.2489C28.7885 23.5561 28.6501 23.8469 28.4117 24.0406L13.9428 35.7966ZM10.8559 40.9333C10.351 41.3435 10.3539 42.1153 10.8619 42.5215L27.1312 55.537C27.7992 56.0714 28.7885 55.5959 28.7885 54.7406V48.7025V40.5418V28.5062C28.7885 27.6473 27.7919 27.1729 27.1252 27.7145L10.8559 40.9333ZM30.8288 54.4005C30.8288 55.3094 31.9275 55.7645 32.57 55.1219L54.589 33.1025C54.9873 32.7041 54.9873 32.0584 54.589 31.6601L32.57 9.6412C31.9275 8.99859 30.8288 9.45372 30.8288 10.3625V54.4005Z" fill="white"/>
</svg>
