<svg width="64" height="64" viewBox="0 0 64 64" fill="none" xmlns="http://www.w3.org/2000/svg">
<g clip-path="url(#clip0_3297_8124)">
<path d="M30.8587 56.2764C30.8587 57.3108 29.9511 58.0838 28.9517 57.9909C16.085 56.6973 6 45.8054 6 32.5789C6 19.3503 16.0522 8.45833 28.9517 7.16477C29.1918 7.14089 29.4342 7.16734 29.6634 7.24241C29.8927 7.31748 30.1038 7.43953 30.2832 7.60076C30.4627 7.76199 30.6065 7.95887 30.7056 8.17883C30.8047 8.39878 30.8568 8.63698 30.8587 8.87822V17.6434C30.8587 18.4832 30.2463 19.23 29.4044 19.3568C23.035 20.3573 18.1527 25.887 18.1527 32.5505C18.1527 39.214 23.035 44.7371 29.4044 45.7442C30.2463 45.8699 30.8587 46.6178 30.8587 47.4576V56.2764Z" fill="white"/>
<path d="M56.9452 35.0001C55.8113 47.027 46.3059 56.6647 34.3139 57.9517C33.2806 58.0523 32.373 57.2716 32.373 56.2383V47.4469C32.373 46.606 32.9865 45.8931 33.7945 45.7323C39.4171 44.7657 43.8456 40.2366 44.6854 34.5802C44.8122 33.7404 45.5602 33.1259 46.3999 33.1259H55.1651C56.2389 33.0931 57.0458 34.0006 56.9452 35.0001Z" fill="white"/>
<path d="M30.8867 21.0662V31.3447C30.8867 32.3113 31.6598 33.0921 32.6341 33.0921H43.046C44.0793 33.0921 44.8874 32.1845 44.7605 31.1512C44.0202 24.9403 39.6847 20.1258 32.8276 19.3528C32.5847 19.3229 32.3383 19.3449 32.1046 19.4173C31.8709 19.4898 31.6552 19.6109 31.4717 19.7729C31.2883 19.9348 31.1413 20.1338 31.0405 20.3568C30.9396 20.5797 30.8872 20.8215 30.8867 21.0662Z" fill="white"/>
<path d="M43.1113 8.81514C43.1113 9.46028 43.4645 10.042 44.0189 10.3679C48.0663 12.668 51.4171 16.0191 53.7168 20.0668C54.0372 20.6136 54.6244 20.9744 55.2706 20.9744H55.3034C56.2711 20.9744 57.0857 20.1663 57.0857 19.1921V8.78234C57.0857 7.81353 56.2766 7 55.3034 7H44.886C43.9183 7.0328 43.1113 7.81353 43.1113 8.81514Z" fill="white"/>
</g>
<defs>
<clipPath id="clip0_3297_8124">
<rect width="51.0853" height="51" fill="white" transform="translate(6 7)"/>
</clipPath>
</defs>
</svg>
