<svg width="64" height="64" viewBox="0 0 64 64" fill="none" xmlns="http://www.w3.org/2000/svg">
<g clip-path="url(#clip0_3372_3756)">
<mask id="mask0_3372_3756" style="mask-type:luminance" maskUnits="userSpaceOnUse" x="7" y="5" width="49" height="55">
<path d="M56 5H7V59.069H56V5Z" fill="white"/>
</mask>
<g mask="url(#mask0_3372_3756)">
<path d="M35.6063 36.1384L32.9255 43.3159C32.8464 43.5149 32.8464 43.7361 32.9255 43.9351L37.5292 56.2886L42.8568 53.2803L36.466 36.1384C36.3189 35.7403 35.7533 35.7403 35.6063 36.1384Z" fill="white"/>
<path d="M40.9679 24.0642C40.8209 23.6661 40.2554 23.6661 40.1084 24.0642L37.4276 31.2417C37.3484 31.4409 37.3484 31.6621 37.4276 31.8611L44.9721 52.0886L50.2997 49.0804L40.9679 24.0642Z" fill="white"/>
<path d="M31.5 8.35097C31.6357 8.35097 31.7602 8.38414 31.8846 8.45051L52.1995 19.919C52.437 20.0517 52.584 20.295 52.584 20.5605V43.4974C52.584 43.7629 52.437 44.0062 52.1995 44.1388L31.8846 55.6185C31.7715 55.6848 31.6357 55.718 31.5 55.718C31.3643 55.718 31.2398 55.6848 31.1154 55.6185L10.8119 44.15C10.5743 44.0172 10.4273 43.7739 10.4273 43.5086V20.5605C10.4273 20.295 10.5743 20.0517 10.8119 19.919L31.1268 8.45051C31.2398 8.38414 31.3756 8.35097 31.5 8.35097ZM31.5 5C30.7762 5 30.0521 5.18801 29.4074 5.55296L9.09257 17.0215C7.80309 17.7514 7 19.1006 7 20.5605V43.4974C7 44.9573 7.80309 46.3176 9.09257 47.0476L29.4074 58.5159C30.0521 58.8809 30.7762 59.069 31.5 59.069C32.2238 59.069 32.9479 58.8809 33.5926 58.5159L53.9074 47.0476C55.2082 46.3176 56 44.9683 56 43.4974V20.5605C56 19.1006 55.1969 17.7403 53.9074 17.0104L33.604 5.55296C32.9479 5.18801 32.2238 5 31.5 5Z" fill="white"/>
<path d="M18.0752 52.1159L19.9415 47.1172L23.6968 50.1695L20.1904 53.3103L18.0752 52.1159Z" fill="white"/>
<path d="M29.7911 18.9258H24.6445C24.26 18.9258 23.9092 19.158 23.7848 19.5119L12.7451 49.1066L18.0727 52.1147L30.2322 19.523C30.3339 19.2354 30.119 18.9258 29.7911 18.9258Z" fill="white"/>
<path d="M38.8057 18.9258H33.6591C33.2746 18.9258 32.9238 19.158 32.7994 19.5119L20.1875 53.3091L25.515 56.3174L39.2355 19.534C39.3485 19.2354 39.1225 18.9258 38.8057 18.9258Z" fill="white"/>
</g>
</g>
<defs>
<clipPath id="clip0_3372_3756">
<rect width="49" height="54.069" fill="white" transform="translate(7 5)"/>
</clipPath>
</defs>
</svg>
