<svg width="64" height="64" viewBox="0 0 64 64" fill="none" xmlns="http://www.w3.org/2000/svg">
<g clip-path="url(#clip0_3291_8050)">
<path d="M35.2741 36.377L32.8057 43.1498C32.7445 43.3334 32.7445 43.5374 32.8057 43.7414L37.0489 55.3898L41.9653 52.5542L36.0697 36.377C35.9269 36.0098 35.4169 36.0098 35.2741 36.377Z" fill="white"/>
<path d="M40.2318 24.9902C40.089 24.623 39.579 24.623 39.4362 24.9902L36.9678 31.763C36.9066 31.9466 36.9066 32.1506 36.9678 32.3546L43.9242 51.4286L48.8406 48.593L40.2318 25.0106V24.9902Z" fill="white"/>
<path d="M31.4997 10.162C31.6221 10.162 31.7445 10.2028 31.8465 10.264L50.5737 21.076C50.7981 21.1984 50.9205 21.4432 50.9205 21.688V43.312C50.9205 43.5568 50.7777 43.8016 50.5737 43.924L31.8465 54.736C31.7445 54.7972 31.6221 54.838 31.4997 54.838C31.3773 54.838 31.2549 54.7972 31.1529 54.736L12.4257 43.924C12.2013 43.8016 12.0789 43.5568 12.0789 43.312V21.6676C12.0789 21.4228 12.2217 21.178 12.4257 21.0556L31.1529 10.2436C31.2549 10.1824 31.3773 10.1416 31.4997 10.1416V10.162ZM31.4997 7C30.8265 7 30.1737 7.1632 29.5617 7.51L10.8345 18.322C9.63088 19.0156 8.89648 20.2804 8.89648 21.6676V43.2916C8.89648 44.6788 9.63088 45.9436 10.8345 46.6372L29.5617 57.4492C30.1533 57.796 30.8265 57.9592 31.4997 57.9592C32.1729 57.9592 32.8257 57.796 33.4377 57.4492L52.1649 46.6372C53.3685 45.9436 54.1029 44.6788 54.1029 43.2916V21.6676C54.1029 20.2804 53.3685 19.0156 52.1649 18.322L33.4173 7.51C32.8257 7.1632 32.1525 7 31.4793 7H31.4997Z" fill="white"/>
<path d="M19.0977 51.4515L20.8317 46.7188L24.2997 49.5951L21.0561 52.5735L19.0977 51.4515Z" fill="#213147"/>
<path d="M29.9081 20.1376H25.1549C24.8081 20.1376 24.4817 20.362 24.3593 20.6884L14.1797 48.5956L19.0961 51.4312L30.3161 20.6884C30.4181 20.4028 30.2141 20.1172 29.9285 20.1172L29.9081 20.1376Z" fill="white"/>
<path d="M38.2315 20.1376H33.4783C33.1315 20.1376 32.8051 20.362 32.6827 20.6884L21.0547 52.5532L25.9711 55.3888L38.6191 20.6884C38.7211 20.4028 38.5171 20.1172 38.2315 20.1172V20.1376Z" fill="white"/>
</g>
<defs>
<clipPath id="clip0_3291_8050">
<rect width="51" height="51" fill="white" transform="translate(6 7)"/>
</clipPath>
</defs>
</svg>
