<svg width="64" height="64" viewBox="0 0 64 64" fill="none" xmlns="http://www.w3.org/2000/svg">
<path d="M5.9707 33.2693C7.34578 38.7007 11.7905 42.9105 17.8358 44.0976C16.4075 42.6035 15.9408 40.248 17.1185 38.2089C17.1185 38.2089 28.0941 19.3243 28.5263 18.8075C28.5326 18.7981 28.542 18.7887 28.5482 18.7793C31.3516 14.8671 36.6483 12.167 42.6686 12.167C43.8088 12.167 44.9176 12.261 45.9888 12.4396L45.6161 12.001C37.516 3.03955 22.4027 4.11393 15.9846 15.2304L7.44288 30.0242C6.71619 31.2834 5.97384 33.2567 5.9707 33.2661V33.2693Z" fill="url(#paint0_linear_3297_8124)"/>
<path d="M48.7594 45.6679C48.7594 43.7196 48.3804 41.8434 47.6788 40.0799C47.2371 42.473 45.3421 44.4588 42.8143 44.4588H21.6275L20.9948 44.4306H20.9886C13.3614 44.2803 7.57295 39.6069 5.96922 33.2734C1.89725 44.7877 11.2377 57.0005 23.1185 57.0005H41.1949C42.238 57.0005 44.0673 56.7437 44.133 56.7374C47.0335 53.6615 48.7563 49.8276 48.7563 45.671L48.7594 45.6679Z" fill="url(#paint1_linear_3297_8124)"/>
<path d="M56.5018 30.0447L47.9506 15.2321C47.368 14.2235 45.9961 12.4475 45.993 12.4444C44.9217 12.2658 43.8097 12.1719 42.6727 12.1719C36.6493 12.1719 31.3558 14.8688 28.5492 18.7841C28.5492 18.7841 28.5461 18.7873 28.543 18.7904C30.7638 16.7137 34.5758 17.0332 36.2202 19.8804L46.8199 38.2388C46.8418 38.2795 47.3555 39.3163 47.3555 39.3163L47.5246 39.6984C48.3265 41.5715 48.765 43.5793 48.765 45.6717C48.765 49.8283 47.0423 53.6622 44.1386 56.7381C56.0539 54.6457 62.8729 41.0766 56.5049 30.0478L56.5018 30.0447Z" fill="url(#paint2_linear_3297_8124)"/>
<defs>
<linearGradient id="paint0_linear_3297_8124" x1="14.4154" y1="42.2777" x2="35.314" y2="6.41303" gradientUnits="userSpaceOnUse">
<stop stop-color="white" stop-opacity="0.25"/>
<stop offset="1" stop-color="white"/>
</linearGradient>
<linearGradient id="paint1_linear_3297_8124" x1="47.6757" y1="45.1573" x2="6.2386" y2="45.1323" gradientUnits="userSpaceOnUse">
<stop stop-color="white" stop-opacity="0.25"/>
<stop offset="1" stop-color="white"/>
</linearGradient>
<linearGradient id="paint2_linear_3297_8124" x1="34.0683" y1="15.2227" x2="54.5378" y2="50.7053" gradientUnits="userSpaceOnUse">
<stop stop-color="white" stop-opacity="0.25"/>
<stop offset="1" stop-color="white"/>
</linearGradient>
</defs>
</svg>
