<svg width="64" height="64" viewBox="0 0 64 64" fill="none" xmlns="http://www.w3.org/2000/svg">
<path d="M34.115 28.0625L47.8511 14.2427L42.6401 9L31.5095 20.1984L20.3789 9L15.168 14.2427L28.9041 28.0625C29.6235 28.7865 30.5666 29.1483 31.5095 29.1483C32.4525 29.1483 33.3955 28.7866 34.115 28.0625ZM54 42.8259L42.8694 31.6277L54 20.4291L48.789 15.1863L35.0529 29.0063C33.6141 30.454 33.6141 32.8012 35.0529 34.2489L48.789 48.0688L54 42.8259ZM31.4905 43.076L42.621 54.2744L47.8319 49.0316L34.0959 35.2118C32.6568 33.7642 30.3239 33.7642 28.885 35.2118L15.1489 49.0316L20.3598 54.2744L31.4905 43.076ZM27.9471 34.2682C28.6381 33.573 29.0263 32.63 29.0263 31.6468C29.0263 30.6637 28.6381 29.7207 27.9471 29.0255L14.211 15.2057L9 20.4484L20.1308 31.6467L9 42.8453L14.211 48.0881L27.9471 34.2682Z" fill="white"/>
</svg>
