<svg width="64" height="64" viewBox="0 0 64 64" fill="none" xmlns="http://www.w3.org/2000/svg">
<g clip-path="url(#clip0_3297_8124)">
<path d="M7 10.871C7 9.54509 7 8.88212 7.24983 8.37215C7.48904 7.88387 7.88387 7.48904 8.37215 7.24983C8.88212 7 9.54509 7 10.871 7H52.129C53.455 7 54.1179 7 54.6278 7.24983C55.116 7.48904 55.511 7.88387 55.7501 8.37215C56 8.88212 56 9.54509 56 10.871V52.129C56 53.455 56 54.1179 55.7501 54.6278C55.511 55.116 55.116 55.511 54.6278 55.7501C54.1179 56 53.455 56 52.129 56H10.871C9.54509 56 8.88212 56 8.37215 55.7501C7.88387 55.511 7.48904 55.116 7.24983 54.6278C7 54.1179 7 53.455 7 52.129V10.871Z" fill="white"/>
</g>
<defs>
<clipPath id="clip0_3297_8124">
<rect width="49" height="49" fill="white" transform="translate(7 7)"/>
</clipPath>
</defs>
</svg>
