<svg width="64" height="64" viewBox="0 0 64 64" fill="none" xmlns="http://www.w3.org/2000/svg">
<path d="M54.4884 42.3874L49.1445 38.1671C48.2472 37.4584 46.9412 37.752 46.4131 38.7738C45.1015 41.3082 43.0461 43.3961 40.691 44.8207L35.0902 39.1332C34.7891 38.8272 34.3804 38.6551 33.9538 38.6551C33.5275 38.6551 33.1188 38.8272 32.8177 39.1332L26.8589 45.184C22.2256 42.6917 19.0613 37.7446 19.0613 32.0596C19.0613 23.8756 25.6184 17.2171 33.6777 17.2171C38.5518 17.2171 43.2214 19.3723 46.3082 24.5522C46.8613 25.4806 48.0785 25.7275 48.9401 25.0861L54.126 21.2266C54.8956 20.6542 55.0998 19.5741 54.5927 18.7532C50.0943 11.4615 42.2281 7 33.6777 7C20.0701 7 9 18.2414 9 32.0596C9 45.8778 20.0701 57.1192 33.6777 57.1192C38.3297 57.1192 42.862 55.7965 46.7863 53.2949C50.1403 51.1561 52.9331 48.2374 54.9376 44.7912C55.4043 43.9892 55.2128 42.9591 54.4884 42.3874ZM30.1451 46.4617L33.9531 42.5948L37.5623 46.2599C36.2765 46.6782 34.9618 46.9021 33.6777 46.9021C32.4598 46.9021 31.2775 46.7479 30.1451 46.4617ZM33.5663 28.2175C33.5605 28.3396 33.5598 29.9634 37.5672 32.7371C40.5571 34.8071 39.1567 38.9305 38.5444 40.2863C38.2618 39.4424 37.7748 38.2942 36.9194 37.0951C35.8913 35.6527 34.7493 34.725 33.9522 34.1763C33.1139 34.698 31.7386 35.7131 30.6353 37.4584C29.9675 38.5156 29.6 39.5218 29.39 40.2863L29.3875 40.2821C28.1681 36.9524 28.6002 35.2893 29.2302 34.3855C29.7244 33.6761 30.6224 32.696 30.6224 32.696C31.4067 31.9038 32.2344 31.1328 33.0308 29.5657C33.5201 28.602 33.563 28.2675 33.5663 28.2175Z" fill="white"/>
<path d="M30.6225 32.709C30.6225 32.709 29.7223 33.6882 29.2256 34.3969C28.5937 35.3 28.161 36.9621 29.3837 40.289C22.4143 34.1183 29.591 27.8206 29.4477 28.3001C28.9145 30.0824 30.6225 32.709 30.6225 32.709ZM32.3223 30.769C32.566 30.4193 32.806 30.0266 33.0352 29.5769C33.5716 28.5253 33.5731 28.2213 33.5731 28.2213C33.5731 28.2213 33.4039 29.8619 37.586 32.7458C40.5856 34.8141 39.1807 38.9346 38.5664 40.289C38.5664 40.289 42.1063 38.006 41.6039 34.1496C41.0003 29.5103 38.5186 29.9291 36.6747 26.4931C34.9546 23.288 37.8923 20.7206 37.8923 20.7206C37.8923 20.7206 33.9597 20.5067 32.1593 24.6885C30.2618 29.0949 32.3223 30.769 32.3223 30.769Z" fill="#FF6D01"/>
</svg>
