<svg width="64" height="64" viewBox="0 0 64 64" fill="none" xmlns="http://www.w3.org/2000/svg">
<g clip-path="url(#clip0_3297_8124)">
<path fill-rule="evenodd" clip-rule="evenodd" d="M34.5143 52.0019C35.5084 47.6648 36.1995 41.5923 36.3664 34.7266L37.8894 34.7636C37.7209 41.6954 37.023 47.8758 35.9993 52.3423C35.4889 54.5693 34.8885 56.411 34.21 57.714C33.8713 58.3644 33.494 58.9184 33.0679 59.3189C32.6388 59.7222 32.1115 60.0127 31.4999 60.0127C30.7978 60.0127 30.2101 59.6322 29.7462 59.1315C29.2807 58.629 28.867 57.9313 28.4954 57.1042C27.7497 55.445 27.0999 53.0979 26.5723 50.2722L28.0698 49.9926C28.588 52.7678 29.2109 54.98 29.8849 56.4798C30.2231 57.2322 30.556 57.764 30.8637 58.0961C31.173 58.43 31.3852 58.4893 31.4999 58.4893C31.6008 58.4893 31.7732 58.445 32.0245 58.2089C32.2787 57.9698 32.5624 57.5795 32.8588 57.0104C33.4503 55.8743 34.0159 54.1766 34.5143 52.0019Z" fill="url(#paint0_linear_3297_8124)"/>
<path fill-rule="evenodd" clip-rule="evenodd" d="M28.9622 9.13273C28.0505 12.3208 27.3265 16.8608 26.9294 22.1918L25.4102 22.0786C25.8115 16.6915 26.5466 12.0389 27.4975 8.71391C27.9712 7.05711 28.5105 5.68665 29.1146 4.71363C29.6893 3.78818 30.4719 2.98828 31.4996 2.98828C32.1112 2.98828 32.6385 3.27871 33.0676 3.68205C33.4936 4.08256 33.871 4.63658 34.2097 5.28697C34.8882 6.58992 35.4885 8.43163 35.999 10.6587C37.0227 15.1252 37.7206 21.3056 37.8891 28.2374L36.3661 28.2744C36.1992 21.4087 35.5081 15.3362 34.514 10.9991C34.0156 8.82436 33.45 7.12662 32.8584 5.99058C32.5621 5.42145 32.2784 5.0311 32.0242 4.7921C31.7729 4.55592 31.6004 4.51172 31.4996 4.51172C31.3216 4.51172 30.9349 4.67021 30.4089 5.5173C29.9124 6.31678 29.4197 7.53299 28.9622 9.13273Z" fill="url(#paint1_linear_3297_8124)"/>
<path fill-rule="evenodd" clip-rule="evenodd" d="M26.9291 22.1913C26.7126 25.098 26.5938 28.2326 26.5938 31.5015C26.5938 38.6379 27.16 45.126 28.0692 49.9951L26.5716 50.2747C25.6414 45.2931 25.0703 38.7085 25.0703 31.5015C25.0703 28.1963 25.1904 25.0238 25.4098 22.0781L26.9291 22.1913Z" fill="url(#paint2_linear_3297_8124)"/>
<path fill-rule="evenodd" clip-rule="evenodd" d="M26.2202 34.088C21.2784 31.0711 17.0089 28.012 13.838 25.3086L12.8496 26.4679C16.0948 29.2346 20.4326 32.3397 25.4265 35.3883L26.2202 34.088Z" fill="url(#paint3_linear_3297_8124)"/>
<path fill-rule="evenodd" clip-rule="evenodd" d="M47.7186 44.3605C43.4659 43.053 37.8618 40.6156 31.8329 37.3276L31.1035 38.6651C37.1905 41.9847 42.8913 44.4701 47.2709 45.8167C49.4546 46.4881 51.3496 46.8889 52.8171 46.9528C53.5497 46.9846 54.2181 46.9349 54.7779 46.7661C55.3417 46.5961 55.8568 46.2847 56.1627 45.7551C56.6785 44.8615 56.3728 43.7788 55.854 42.814C55.3081 41.7992 54.3828 40.6406 53.1746 39.3948C50.75 36.8947 47.059 33.9148 42.5615 30.8594L41.7054 32.1195C46.1561 35.1432 49.7553 38.0572 52.081 40.4554C53.248 41.6587 54.063 42.7004 54.5123 43.5357C54.9885 44.4211 54.9328 44.8384 54.8433 44.9934C54.7929 45.0807 54.6684 45.2079 54.3382 45.3075C54.0041 45.4082 53.5243 45.4587 52.8833 45.4308C51.6038 45.3751 49.8509 45.0161 47.7186 44.3605Z" fill="url(#paint4_linear_3297_8124)"/>
<path fill-rule="evenodd" clip-rule="evenodd" d="M33.9213 27.2543C36.7085 28.8635 39.3256 30.5075 41.7048 32.1239L42.5609 30.8638C40.1498 29.2257 37.5012 27.5621 34.683 25.935C28.0147 22.0851 21.6337 19.1538 16.7065 17.517C14.2488 16.7007 12.1149 16.1934 10.471 16.0691C9.65108 16.0072 8.90898 16.0367 8.29306 16.1974C7.67601 16.3583 7.10466 16.6747 6.77496 17.2458C6.4212 17.8585 6.46005 18.5637 6.66603 19.2206C6.87284 19.8802 7.27712 20.5937 7.81636 21.3365C8.89831 22.8267 10.6326 24.5814 12.8483 26.4703L13.8366 25.3111C11.6599 23.4553 10.0288 21.7907 9.04913 20.4415C8.55763 19.7645 8.25714 19.2032 8.11965 18.7648C7.98133 18.3237 8.03656 18.1076 8.09426 18.0075C8.14827 17.914 8.28957 17.7727 8.67761 17.6715C9.06678 17.57 9.62233 17.5328 10.3562 17.5883C11.8198 17.6988 13.8181 18.1629 16.2262 18.9628C21.0306 20.5588 27.316 23.4408 33.9213 27.2543Z" fill="white"/>
<path fill-rule="evenodd" clip-rule="evenodd" d="M32.0382 25.5928C37.1555 22.8103 41.9637 20.642 45.8925 19.2615L45.3875 17.8242C41.3649 19.2377 36.4815 21.4428 31.3105 24.2544L32.0382 25.5928Z" fill="url(#paint5_linear_3297_8124)"/>
<path fill-rule="evenodd" clip-rule="evenodd" d="M12.2326 39.1723C15.4679 36.1583 20.3482 32.5407 26.1761 28.9753L25.3811 27.6758C19.497 31.2756 14.5266 34.9531 11.1942 38.0576C9.53254 39.6056 8.24733 41.0394 7.46447 42.2728C7.07365 42.8885 6.78496 43.4899 6.65274 44.0571C6.51956 44.6284 6.5327 45.2279 6.83739 45.7556C7.35256 46.6479 8.44074 46.9249 9.53336 46.9586C10.6826 46.9941 12.1452 46.7735 13.8241 46.352C17.1934 45.5061 21.6088 43.8057 26.4932 41.4462L25.8306 40.0744C20.997 42.4093 16.6846 44.0631 13.4532 44.8744C11.8317 45.2814 10.5257 45.4651 9.58034 45.436C8.57849 45.405 8.24606 45.1486 8.15675 44.9939C8.10648 44.9069 8.05868 44.7363 8.13644 44.4029C8.21508 44.0654 8.40913 43.6273 8.7507 43.0892C9.4325 42.0149 10.6104 40.6835 12.2326 39.1723Z" fill="url(#paint6_linear_3297_8124)"/>
<path fill-rule="evenodd" clip-rule="evenodd" d="M33.9852 35.7471C31.182 37.3655 28.4346 38.8172 25.832 40.0744L26.4947 41.4461C29.1322 40.1721 31.9126 38.7028 34.7469 37.0664C41.4152 33.2164 47.1442 29.156 51.0253 25.7073C52.9612 23.9871 54.4674 22.3927 55.3969 21.0311C55.8606 20.3521 56.2061 19.6946 56.3749 19.0809C56.544 18.466 56.5557 17.813 56.2259 17.2419C55.8762 16.6362 55.2562 16.3175 54.5937 16.1655C53.9291 16.013 53.1224 16.0023 52.2255 16.0921C50.4263 16.2721 48.083 16.8761 45.3882 17.8231L45.8932 19.2603C48.5396 18.3304 50.7524 17.7705 52.3772 17.6079C53.1924 17.5264 53.8148 17.5498 54.2529 17.6503C54.6932 17.7514 54.8495 17.9048 54.9066 18.0037C54.9606 18.0972 55.0124 18.2902 54.906 18.6768C54.7993 19.0647 54.5538 19.5643 54.1388 20.1721C53.3112 21.3844 51.9102 22.8829 50.0134 24.5685C46.229 27.9312 40.5904 31.9335 33.9852 35.7471Z" fill="white"/>
<path d="M27.5623 52.0582C28.6613 52.0582 29.5523 51.1672 29.5523 50.0681C29.5523 48.9691 28.6613 48.0781 27.5623 48.0781C26.4632 48.0781 25.5723 48.9691 25.5723 50.0681C25.5723 51.1672 26.4632 52.0582 27.5623 52.0582Z" fill="white"/>
<path d="M11.6966 24.6303C12.2462 23.6785 13.4632 23.3524 14.4151 23.9019C15.3669 24.4515 15.693 25.6685 15.1434 26.6203C14.5939 27.5722 13.3768 27.8983 12.425 27.3487C11.4732 26.7992 11.1471 25.5821 11.6966 24.6303Z" fill="white"/>
<path d="M47.3657 17.8115C47.9152 18.7633 47.5891 19.9804 46.6373 20.5299C45.6854 21.0795 44.4684 20.7533 43.9188 19.8015C43.3693 18.8497 43.6954 17.6326 44.6472 17.0831C45.599 16.5336 46.8161 16.8597 47.3657 17.8115Z" fill="white"/>
<path fill-rule="evenodd" clip-rule="evenodd" d="M31.5016 28.0352C33.415 28.0352 34.9661 29.5863 34.9661 31.4996C34.9661 33.4131 33.415 34.9642 31.5016 34.9642C29.5882 34.9642 28.0371 33.4131 28.0371 31.4996C28.0371 29.5863 29.5882 28.0352 31.5016 28.0352Z" fill="white"/>
</g>
<defs>
<linearGradient id="paint0_linear_3297_8124" x1="32.2245" y1="59.251" x2="40.0433" y2="35.7135" gradientUnits="userSpaceOnUse">
<stop offset="0.377307" stop-color="white" stop-opacity="0.6"/>
<stop offset="0.992239" stop-color="white" stop-opacity="0"/>
</linearGradient>
<linearGradient id="paint1_linear_3297_8124" x1="31.6487" y1="3.75" x2="41.5125" y2="26.3494" gradientUnits="userSpaceOnUse">
<stop offset="0.634963" stop-color="white" stop-opacity="0.81"/>
<stop offset="1" stop-color="white" stop-opacity="0"/>
</linearGradient>
<linearGradient id="paint2_linear_3297_8124" x1="27.3058" y1="22.1347" x2="27.3058" y2="50.1671" gradientUnits="userSpaceOnUse">
<stop stop-color="white" stop-opacity="0.81"/>
<stop offset="0.646422" stop-color="white"/>
</linearGradient>
<linearGradient id="paint3_linear_3297_8124" x1="13.5733" y1="25.9136" x2="24.8915" y2="35.5848" gradientUnits="userSpaceOnUse">
<stop stop-color="white" stop-opacity="0.6"/>
<stop offset="1" stop-color="white" stop-opacity="0"/>
</linearGradient>
<linearGradient id="paint4_linear_3297_8124" x1="56.8647" y1="45.3565" x2="30.3325" y2="41.8525" gradientUnits="userSpaceOnUse">
<stop offset="0.60731" stop-color="white" stop-opacity="0.81"/>
<stop offset="1" stop-color="white" stop-opacity="0"/>
</linearGradient>
<linearGradient id="paint5_linear_3297_8124" x1="45.6223" y1="18.6862" x2="30.48" y2="24.1518" gradientUnits="userSpaceOnUse">
<stop stop-color="white" stop-opacity="0.6"/>
<stop offset="1" stop-color="white" stop-opacity="0"/>
</linearGradient>
<linearGradient id="paint6_linear_3297_8124" x1="6.70034" y1="45.484" x2="24.1345" y2="26.2731" gradientUnits="userSpaceOnUse">
<stop offset="0.54518" stop-color="white" stop-opacity="0.81"/>
<stop offset="1" stop-color="white" stop-opacity="0"/>
</linearGradient>
<clipPath id="clip0_3297_8124">
<rect width="64" height="64" fill="white"/>
</clipPath>
</defs>
</svg>
