<svg width="64" height="64" viewBox="0 0 64 64" fill="none" xmlns="http://www.w3.org/2000/svg">
<path fill-rule="evenodd" clip-rule="evenodd" d="M25.0483 50.343C22.4805 50.343 20.2086 48.6806 19.4324 46.2334L15.4411 33.6532H12.9874C10.4198 33.6532 8.1478 31.9908 7.3715 29.5437L5 22.0686H13.8952L9.20352 15H53.6573L48.9657 22.0686H57.8608L55.4894 29.5437C54.7132 31.9908 52.441 33.6532 49.8735 33.6532H47.4196L43.4286 46.2334C42.6524 48.6806 40.3804 50.343 37.8127 50.343H25.0483ZM22.033 30.2171C22.033 32.1149 23.4501 33.6532 25.1981 33.6532C26.9462 33.6532 28.3634 32.1149 28.3634 30.2171C28.3634 28.3193 26.9462 26.7809 25.1981 26.7809C23.4501 26.7809 22.033 28.3193 22.033 30.2171ZM40.828 30.2171C40.828 32.1149 39.4108 33.6532 37.6628 33.6532C35.9147 33.6532 34.4975 32.1149 34.4975 30.2171C34.4975 28.3193 35.9147 26.7809 37.6628 26.7809C39.4108 26.7809 40.828 28.3193 40.828 30.2171Z" fill="white"/>
</svg>
