<svg width="64" height="64" viewBox="0 0 64 64" fill="none" xmlns="http://www.w3.org/2000/svg">
<path d="M10.3538 11.8859H15.9012C17.7063 11.8859 19.0602 12.3702 19.9627 13.3387C20.8653 14.3073 21.3165 15.7272 21.3165 17.5984V29.2875C21.3165 31.1586 20.8653 32.5785 19.9627 33.5471C19.0602 34.5157 17.7063 35 15.9012 35H10.3538V11.8859ZM15.8352 31.698C16.4295 31.698 16.8808 31.5219 17.189 31.1697C17.5192 30.8174 17.6843 30.2451 17.6843 29.4526V17.4332C17.6843 16.6408 17.5192 16.0684 17.189 15.7162C16.8808 15.364 16.4295 15.1879 15.8352 15.1879H13.9861V31.698H15.8352ZM29.0185 35.3302C27.2354 35.3302 25.8706 34.8239 24.924 33.8113C23.9774 32.7987 23.5041 31.3678 23.5041 29.5186V17.3672C23.5041 15.5181 23.9774 14.0872 24.924 13.0746C25.8706 12.062 27.2354 11.5557 29.0185 11.5557C30.8016 11.5557 32.1664 12.062 33.113 13.0746C34.0596 14.0872 34.5329 15.5181 34.5329 17.3672V29.5186C34.5329 31.3678 34.0596 32.7987 33.113 33.8113C32.1664 34.8239 30.8016 35.3302 29.0185 35.3302ZM29.0185 32.0282C30.2733 32.0282 30.9007 31.2687 30.9007 29.7498V17.1361C30.9007 15.6171 30.2733 14.8577 29.0185 14.8577C27.7637 14.8577 27.1363 15.6171 27.1363 17.1361V29.7498C27.1363 31.2687 27.7637 32.0282 29.0185 32.0282ZM36.1307 11.8859H39.6309L41.2489 29.6507H41.3149L43.032 11.8859H46.9944L48.7114 29.6507H48.7775L50.3955 11.8859H53.5324L51.188 35H46.6642L45.0132 19.4145H44.9471L43.2961 35H38.4752L36.1307 11.8859Z" fill="white"/>
<path d="M20.9493 40.0156C20.9238 38.2876 21.3903 36.9628 22.3489 36.0412C23.3291 35.1193 24.7372 34.6448 26.5732 34.6176L38.4965 34.4413C40.3326 34.4142 41.7433 34.847 42.7287 35.7399C43.7357 36.6324 44.252 37.9427 44.2776 39.6707C44.3031 41.3987 43.8258 42.7237 42.8456 43.6456C41.887 44.5671 40.4897 45.0415 38.6537 45.0687L36.7096 45.0974L36.6598 41.7278L38.8306 41.6957C40.3211 41.6736 41.0572 41.047 41.039 39.8158C41.0208 38.5846 40.2665 37.98 38.776 38.002L26.3667 38.1855C24.8979 38.2072 24.1726 38.8337 24.1908 40.0649C24.209 41.2961 24.9525 41.9009 26.4213 41.8791L30.8602 41.8135L30.8338 40.0315L34.0739 39.9836L34.15 45.1352L26.7303 45.2449C24.8943 45.2721 23.4728 44.8394 22.4658 43.9469C21.4804 43.054 20.9749 41.7436 20.9493 40.0156ZM21.1379 52.7692C21.112 51.0196 21.589 49.673 22.5689 48.7295C23.5488 47.786 24.9459 47.3008 26.7603 47.274L38.6837 47.0977C40.4981 47.0709 41.909 47.5145 42.9163 48.4287C43.9237 49.3428 44.4403 50.6747 44.4661 52.4243C44.492 54.1739 44.015 55.5204 43.0351 56.4639C42.0552 57.4074 40.6581 57.8926 38.8437 57.9194L26.9203 58.0957C25.1059 58.1226 23.695 57.6789 22.6877 56.7648C21.6804 55.8507 21.1637 54.5188 21.1379 52.7692ZM24.3779 52.7213C24.3961 53.9525 25.1504 54.5571 26.6408 54.535L39.0178 54.352C40.5082 54.33 41.2443 53.7034 41.2261 52.4722C41.2079 51.241 40.4536 50.6364 38.9632 50.6584L26.5862 50.8414C25.0958 50.8634 24.3597 51.4901 24.3779 52.7213Z" fill="white"/>
</svg>
