<svg width="64" height="64" viewBox="0 0 64 64" fill="none" xmlns="http://www.w3.org/2000/svg">
<path d="M26.7471 26.5406C21.1586 33.2872 6.86339 40.9687 7.00099 25.6385C7.13858 10.3084 18.6882 7 28.7259 7C38.7636 7 31.9712 20.2338 26.7471 26.5406Z" fill="white"/>
<path d="M56.9766 35.9507C56.9766 27.473 58.1482 -1.4986 43.7537 9.52235C29.3592 20.5433 16.4375 56.7315 38.3789 56.7315C54.26 56.7315 56.9766 44.4287 56.9766 35.9507Z" fill="white"/>
<path d="M23.7491 46.8159C23.7491 40.4058 19.9673 36.8805 14.9407 37.3976C9.49566 37.9575 7.13867 41.7419 7.13867 47.4285C7.13867 51.8017 8.02108 56.522 15.2428 56.6276C22.4645 56.7332 23.7491 53.9496 23.7491 46.8159Z" fill="white"/>
</svg>
