<svg width="64" height="64" viewBox="0 0 64 64" fill="none" xmlns="http://www.w3.org/2000/svg">
<path d="M57.9982 31.8095C58.045 35.9971 57.1679 39.9978 55.4461 43.8187C52.9875 49.2608 47.0961 53.7108 41.7151 48.9732C37.3262 45.1127 36.5139 37.2731 29.9395 36.1265C21.2408 35.0733 21.0323 45.1595 15.3458 46.2989C9.01229 47.5858 6.90951 36.9316 7.00296 32.0934C7.09642 27.2552 8.38325 20.4544 13.8864 20.4544C20.22 20.4544 20.6477 30.0446 28.6886 29.527C36.6505 28.9842 36.7906 19.0058 41.9919 14.732C46.4814 11.0404 51.7618 13.7471 54.4037 18.1899C56.8552 22.2984 57.9299 27.1222 57.9874 31.8059H57.9946L57.9982 31.8095Z" fill="white"/>
</svg>
