<svg width="64" height="64" viewBox="0 0 64 64" fill="none" xmlns="http://www.w3.org/2000/svg">
<g clip-path="url(#clip0_3291_8050)">
<mask id="mask0_3291_8050" style="mask-type:luminance" maskUnits="userSpaceOnUse" x="7" y="16" width="51" height="33">
<path d="M57.926 16H7V49H57.926V16Z" fill="white"/>
</mask>
<g mask="url(#mask0_3291_8050)">
<mask id="mask1_3291_8050" style="mask-type:luminance" maskUnits="userSpaceOnUse" x="7" y="16" width="51" height="33">
<path d="M57.9101 16H7.03516V49H57.9101V16Z" fill="white"/>
</mask>
<g mask="url(#mask1_3291_8050)">
<path d="M26.0996 48.9814H29.9773V23.0352L26.0996 29.8596V48.9814Z" fill="white"/>
<path d="M25.0391 16.0312L16.5645 30.9455V34.0235V35.975H16.5647H20.4422L20.4424 31.9329L26.0976 21.9808V22.0074L29.4933 16.0312H25.0391Z" fill="white"/>
<path d="M39.759 23.3119L44.6576 31.9329V35.9745H48.5355V30.9045L42.6078 20.4725C42.6124 20.4703 42.6173 20.4683 42.6219 20.466L40.7014 17.0859C39.5151 17.6936 38.4663 18.5325 37.6152 19.5447L39.7575 23.3149C39.7579 23.3139 39.7585 23.3129 39.759 23.3119Z" fill="white"/>
<path d="M47.9932 16H45.1958C44.9813 16 44.7687 16.0093 44.5578 16.0228L46.7526 19.8853H47.9932C51.322 19.8853 54.0299 22.5986 54.0299 25.9337V39.0664C54.0299 42.4015 51.322 45.1145 47.9932 45.1145H45.1958C41.8671 45.1145 39.1592 42.4015 39.1592 39.0664V30.1175L35.53 23.7309C35.369 24.44 35.2812 25.1766 35.2812 25.9337V39.0664C35.2812 44.5437 39.7291 49 45.1958 49H47.9932C53.46 49 57.9076 44.5437 57.9076 39.0664V25.9337C57.9076 20.4563 53.46 16 47.9932 16Z" fill="white"/>
<path d="M11.9941 16.0312H7.03516V48.982H10.9129V21.9812L14.0562 27.5129L16.2873 23.5865L11.9941 16.0312Z" fill="white"/>
</g>
</g>
</g>
<defs>
<clipPath id="clip0_3291_8050">
<rect width="50.9808" height="33" fill="white" transform="translate(7 16)"/>
</clipPath>
</defs>
</svg>
