<svg width="64" height="64" viewBox="0 0 64 64" fill="none" xmlns="http://www.w3.org/2000/svg">
<path fill-rule="evenodd" clip-rule="evenodd" d="M13.6215 50.6682C13.5781 50.6259 13.5353 50.5825 13.4929 50.5381L13.4922 50.5378C13.4913 50.5368 13.4904 50.5357 13.4895 50.5347C11.2027 48.1281 9.80692 44.9596 8.92617 41.7994C8.42124 39.8421 8.25607 37.8475 8.09086 35.8525C8.0587 35.4641 8.02654 35.0756 7.99186 34.6876C7.86162 32.7205 7.77214 30.6745 7.88648 28.6989C7.97817 26.6313 8.3987 24.6558 8.83992 22.5831L8.84389 22.5644C9.70512 18.3028 11.865 14.2207 15.5343 11.7343C17.6928 10.2536 20.2322 9.43817 22.7666 8.90792C26.779 8.02102 30.765 7.73267 34.8201 7.86107C40.4918 7.83996 46.4055 9.47941 50.611 13.4468C53.5531 16.3593 55.7241 20.234 56.086 24.3961C56.0266 26.8268 56.0415 29.1818 56.1578 31.5905C56.1815 33.5423 56.1839 35.6305 55.8815 37.6103C55.6821 39.1386 55.2477 40.7659 54.8468 42.2675C54.8279 42.3384 54.809 42.4089 54.7903 42.4793C52.5146 52.3079 44.4654 55.2607 35.2965 55.8784C34.3254 55.9233 33.3476 55.9433 32.3701 55.9631C31.3617 55.9835 30.3537 56.004 29.3535 56.052C29.0042 56.0645 28.6534 56.0807 28.3015 56.097C27.0347 56.1558 25.7534 56.2152 24.4794 56.0982C20.3975 55.5291 16.5273 53.5982 13.6215 50.6682ZM20.7375 51.3273C22.1277 52.1912 23.5987 52.9373 25.1328 53.5512C25.3687 53.6456 25.6062 53.7437 25.8452 53.8425C26.9905 54.3161 28.1742 54.8055 29.4065 54.9594C32.4181 55.3729 35.4465 54.3497 38.0415 52.8832C40.5895 51.33 42.6064 49.1787 44.6264 47.024C45.9726 45.5879 47.3204 44.1504 48.8276 42.8875C49.8842 41.9336 50.9494 40.9018 51.8077 39.7531C53.8895 36.7117 55.3901 33.0183 55.2271 29.2729C55.2061 27.741 54.5259 26.2988 53.857 24.9674C53.1182 23.3964 52.3216 21.857 51.415 20.3975C50.8232 21.8524 49.912 23.1327 49.0001 24.4143C48.95 24.4848 48.8999 24.5551 48.8499 24.6255C47.66 26.4313 46.8226 28.3975 45.9818 30.3718C45.438 31.6487 44.8928 32.9291 44.2497 34.1716C43.2947 36.3771 42.2849 38.6996 40.476 40.3402C38.936 41.8698 36.8043 42.6801 34.7792 43.4499C34.5191 43.5488 34.2607 43.647 34.0054 43.7461C31.8252 44.6998 29.7473 45.73 27.7507 46.9711C26.8271 47.5005 25.9658 48.1189 25.1024 48.7388C24.0422 49.5002 22.9787 50.2637 21.7928 50.8676C21.4602 51.0305 21.1063 51.1859 20.7375 51.3273ZM44.2227 12.6505C39.5585 9.32547 33.6736 7.68646 28.1458 10.0752C24.9966 11.193 22.7685 13.6132 20.563 16.0091C19.8497 16.784 19.1387 17.5562 18.3997 18.2811C17.6238 19.1348 16.7834 19.9342 15.9417 20.7348C14.7636 21.8553 13.583 22.9783 12.5734 24.2561C11.6644 25.3893 10.973 26.7384 10.411 28.0749C8.91598 31.513 8.5091 35.5213 9.96585 39.0369C10.5087 40.4223 11.1636 41.7493 11.9493 42.9983C12.1925 43.3396 12.45 43.6802 12.7184 44.0184C13.4196 42.0431 14.6585 40.0761 15.7489 38.3451C16.2172 37.6016 16.6582 36.9016 17.0173 36.2631C17.9188 34.7746 18.6655 33.2013 19.4154 31.6213C19.6764 31.0715 19.9376 30.5209 20.206 29.9728C20.4572 29.4112 20.6838 28.8146 20.9135 28.21C21.5682 26.4858 22.2476 24.6969 23.5942 23.4712C25.3206 21.7445 27.5862 20.6649 29.8452 19.772C32.0733 18.8511 34.2085 17.8539 36.3404 16.8095C37.4141 16.3077 38.4611 15.6769 39.5127 15.0432C41.0408 14.1226 42.5786 13.1961 44.2227 12.6505ZM16.2089 47.8248C16.2085 47.8246 16.2083 47.8242 16.2079 47.824L16.2077 47.8242H16.2073C15.074 46.6305 15.228 44.6645 15.4985 43.0099C16.1372 39.7946 17.5748 36.4949 20.065 34.2007C20.895 33.4162 21.7766 32.6831 22.693 31.9969C23.4042 31.4867 24.2173 31.0745 25.0338 30.6606C26.2972 30.0201 27.5686 29.3755 28.4832 28.3574C29.7734 27.0847 30.733 25.5355 31.6943 23.9835C31.9217 23.6164 32.1492 23.2491 32.3812 22.8853C33.6336 20.9611 35.1955 19.2673 36.9977 17.8738C39.2041 16.0421 45.7423 13.8597 48.0351 16.0208C48.9102 17.2795 48.7477 18.8626 48.5855 20.4436C48.5711 20.5833 48.5567 20.7229 48.5432 20.8623C48.4263 21.9417 48.2844 23.0939 47.9113 24.1612C47.1737 26.3448 45.5641 28.0515 43.8318 29.516C42.1944 31.1051 40.2391 32.3606 38.3071 33.5445C36.4196 34.8082 34.9475 36.3513 33.8404 38.3565C32.7925 40.408 31.6047 42.4787 29.9101 44.0642C27.57 46.5446 24.2519 47.8664 20.9308 48.2429C19.2748 48.5002 17.5444 48.7042 16.2089 47.8248Z" fill="white"/>
<mask id="mask0_3297_8124" style="mask-type:alpha" maskUnits="userSpaceOnUse" x="10" y="10" width="45" height="44">
<path d="M32.5585 53.2252C44.4671 53.2252 54.121 43.5786 54.121 31.679C54.121 19.7794 44.4671 10.1328 32.5585 10.1328C20.6499 10.1328 10.9961 19.7794 10.9961 31.679C10.9961 43.5786 20.6499 53.2252 32.5585 53.2252Z" fill="#573BFF"/>
</mask>
<g mask="url(#mask0_3297_8124)">
<path d="M13.4556 50.5337C9.70296 46.164 14.8211 40.0984 16.9808 36.259C18.1959 34.2524 19.13 32.0917 20.1694 29.9687C21.1372 27.8055 21.7387 25.1226 23.5577 23.467C25.284 21.7404 27.5495 20.6607 29.8087 19.7679C32.0366 18.8469 34.1719 17.8498 36.3038 16.8054C40.1597 15.0034 43.67 11.5379 48.2925 12.2517C50.8743 12.7065 52.4193 15.4821 51.9999 17.9358C51.7325 20.5987 50.252 22.5965 48.8132 24.6215C46.8537 27.5954 45.8503 31.0041 44.2131 34.1675C43.2582 36.373 42.2483 38.6954 40.4393 40.3362C38.7014 42.0623 36.21 42.8724 33.9689 43.7419C31.7886 44.6956 29.7107 45.7258 27.7141 46.9669C25.6562 48.1466 23.9078 49.768 21.7561 50.8635C19.2989 52.0665 15.6778 52.869 13.4563 50.5339L13.4556 50.5337ZM16.1713 47.8201C17.5069 48.7002 19.2378 48.4961 20.8941 48.2388C24.2152 47.8623 27.5334 46.5405 29.8735 44.0601C31.5682 42.4745 32.756 40.404 33.8039 38.3525C34.9108 36.3471 36.383 34.8041 38.2706 33.5404C40.2025 32.3565 42.1579 31.101 43.7953 29.512C45.5274 28.0474 47.137 26.3406 47.8748 24.157C48.2477 23.0898 48.3897 21.9377 48.5065 20.8582C48.6743 19.1408 48.9509 17.3866 47.9985 16.0166C45.7057 13.8556 39.1676 16.0379 36.9612 17.8697C35.159 19.2632 33.5971 20.9571 32.3445 22.8811C31.132 24.7829 30.042 26.7795 28.4466 28.3534C26.9409 30.0293 24.4681 30.6932 22.6564 31.9929C21.74 32.6791 20.8583 33.412 20.0285 34.1965C17.5383 36.4907 16.1007 39.7905 15.4618 43.0058C15.1914 44.6604 15.0373 46.6265 16.1707 47.8201H16.1713Z" fill="white"/>
</g>
</svg>
