<svg width="64" height="64" viewBox="0 0 64 64" fill="none" xmlns="http://www.w3.org/2000/svg">
<g clip-path="url(#clip0_3297_8124)">
<path d="M47.0666 9.55272L36.6337 25.0355C35.9123 26.0899 37.2997 27.3663 38.2986 26.4784L48.5649 17.5438C48.8424 17.3219 49.2309 17.4883 49.2309 17.8768V45.7902C49.2309 46.1787 48.7314 46.3452 48.5094 46.0677L17.4329 8.88679C16.434 7.66593 14.9911 7 13.3818 7H12.2719C9.38624 7 7 9.38624 7 12.3274V51.6171C7 54.5583 9.38624 56.9445 12.3274 56.9445C14.1587 56.9445 15.879 56.0011 16.8779 54.3918L27.3108 38.909C28.0322 37.8546 26.6448 36.5783 25.6459 37.4662L15.3796 46.3452C15.1021 46.5672 14.7137 46.4007 14.7137 46.0122V18.1543C14.7137 17.7658 15.2131 17.5993 15.4351 17.8768L46.5117 55.0577C47.5105 56.2786 49.0089 56.9445 50.5627 56.9445H51.6726C54.6138 56.9445 57 54.5583 57 51.6171V12.3274C57 9.38624 54.6138 7 51.6726 7C49.7858 7 48.0655 7.9434 47.0666 9.55272Z" fill="white"/>
</g>
<defs>
<clipPath id="clip0_3297_8124">
<rect width="50" height="49.9445" fill="white" transform="translate(7 7)"/>
</clipPath>
</defs>
</svg>
