<svg width="64" height="64" viewBox="0 0 64 64" fill="none" xmlns="http://www.w3.org/2000/svg">
<g clip-path="url(#clip0_3291_8050)">
<path d="M52.7896 37.5985C52.7937 39.5943 52.4023 41.5713 51.6376 43.415C50.876 45.2587 49.757 46.9338 48.3454 48.3434C46.9349 49.7553 45.259 50.8743 43.4141 51.6357C41.575 52.3993 39.6031 52.7918 37.6118 52.7905H37.5384C34.3336 52.7905 31.1529 51.7458 28.5751 49.847C26.6641 48.428 25.1114 46.5821 24.0408 44.4564C22.9701 42.3307 22.4112 39.9842 22.4085 37.6041V26.4032C22.4075 25.8782 22.5107 25.3584 22.7117 24.8734C22.9129 24.3886 23.2081 23.9484 23.5802 23.5783C23.9507 23.2072 24.3907 22.913 24.8751 22.7124C25.3595 22.5118 25.8787 22.4086 26.4029 22.4089C26.9272 22.4092 27.4464 22.5128 27.9304 22.714C28.4145 22.9152 28.8543 23.2098 29.2245 23.5811C29.9769 24.335 30.3934 25.3373 30.3962 26.4018V37.5999C30.3944 38.5465 30.5806 39.484 30.9439 40.3582C31.3071 41.2322 31.8403 42.0256 32.5125 42.6921C33.5189 43.6979 34.8022 44.381 36.1986 44.6545C37.5976 44.9326 39.0362 44.79 40.3562 44.2451C41.6717 43.7014 42.796 42.7791 43.5864 41.5952C44.3826 40.4093 44.8047 39.0286 44.8075 37.5999V15.2036C44.8065 14.6792 44.9093 14.1597 45.1099 13.6751C45.3105 13.1905 45.605 12.7504 45.9765 12.3801C46.4407 11.9163 47.0121 11.574 47.6401 11.3836C48.2682 11.1933 48.9334 11.1606 49.577 11.2886C50.2207 11.4167 50.8229 11.7013 51.3303 12.1175C51.8377 12.5337 52.2347 13.0685 52.4861 13.6747C52.688 14.1617 52.7896 14.677 52.7896 15.2036V37.5985ZM21.3115 21.3067C20.6402 21.9743 20.1078 22.7683 19.7451 23.6428C19.3823 24.5172 19.1964 25.4551 19.1981 26.4018V48.7966C19.1994 49.3212 19.0967 49.8409 18.8958 50.3256C18.6949 50.8102 18.3999 51.2503 18.0278 51.6201C16.52 53.1307 13.8885 53.1307 12.3793 51.6201C12.0076 51.25 11.713 50.8099 11.5124 50.3253C11.3117 49.8406 11.2091 49.3211 11.2104 48.7966V26.4032C11.2135 22.7611 12.524 19.2413 14.9035 16.4841C16.3078 14.8592 18.0404 13.5504 19.9873 12.6438C21.9341 11.7371 24.0511 11.2534 26.1984 11.2243C28.3458 11.1952 30.475 11.6215 32.4457 12.4751C34.4164 13.3286 36.1838 14.5901 37.6315 16.1763L37.6541 16.1495L37.6753 16.23C39.176 17.8881 40.2916 19.8574 40.9421 21.997L41.0042 22.2018C41.4009 23.5684 41.6014 24.9816 41.6028 26.4018V37.5985C41.602 38.3877 41.3676 39.1589 40.9291 39.8151C40.4908 40.4713 39.868 40.9831 39.1393 41.286C38.6635 41.4837 38.1609 41.5768 37.6541 41.5825V41.5896C37.6343 41.5896 37.616 41.5839 37.5962 41.5839C37.3421 41.5839 37.0866 41.567 36.8325 41.5161C36.6866 41.4852 36.5429 41.4457 36.4019 41.3976V41.3778C36.3059 41.3467 36.2071 41.3312 36.1139 41.2931C35.385 40.99 34.762 40.4781 34.3236 39.8216C33.8851 39.1651 33.6509 38.3935 33.6504 37.6041V27.4634H33.6475V26.4004C33.6458 24.9708 33.2192 23.574 32.4218 22.3876C31.6245 21.2011 30.4924 20.2784 29.1694 19.7368C28.2941 19.3696 27.3529 19.1856 26.4038 19.1961C25.4576 19.1947 24.5205 19.3806 23.6466 19.743C22.7726 20.1055 21.979 20.636 21.3115 21.3067ZM53.8866 10.1142C53.2194 9.44395 52.4263 8.91229 51.5528 8.54982C50.6793 8.18735 49.7429 8.00124 48.7972 8.00222H48.7944C47.849 8.00262 46.913 8.18992 46.0403 8.55335C45.1677 8.91677 44.3754 9.44915 43.7092 10.1199C43.0406 10.787 42.5102 11.5797 42.1488 12.4523C41.7873 13.325 41.6017 14.2605 41.6028 15.205V16.014C39.3097 12.6657 35.9754 10.1681 32.1173 8.90912C28.2592 7.65009 24.0936 7.70002 20.2668 9.05116C16.678 10.3173 13.572 12.6688 11.3798 15.7796C9.178 18.8837 7.9968 22.5961 8.00001 26.4018V48.7966C8.00001 50.7208 8.74965 52.5293 10.1106 53.8903C10.7778 54.5616 11.5716 55.0936 12.4459 55.456C13.3202 55.8183 14.2578 56.0035 15.2042 56.0008C16.1506 56.0032 17.0881 55.8179 17.9624 55.4556C18.8368 55.0934 19.6306 54.5613 20.2979 53.8903C20.969 53.2229 21.5011 52.4291 21.8634 51.5548C22.2256 50.6805 22.411 49.7429 22.4085 48.7966V47.9933C24.7029 51.3382 28.0363 53.8328 31.8926 55.0907C35.7487 56.3484 39.9121 56.2992 43.7374 54.9505C47.3253 53.684 50.4303 51.3324 52.6216 48.222C54.8217 45.1192 56.0024 41.4091 56 37.6056V15.2022C56.0007 14.2564 55.8143 13.3199 55.4517 12.4464C55.089 11.573 54.557 10.7799 53.8866 10.1128V10.1142Z" fill="white"/>
</g>
<defs>
<clipPath id="clip0_3291_8050">
<rect width="48" height="48" fill="white" transform="translate(8 8)"/>
</clipPath>
</defs>
</svg>
