<svg width="64" height="64" viewBox="0 0 64 64" fill="none" xmlns="http://www.w3.org/2000/svg">
<path d="M16.7385 44.9695C13.8771 44.9695 11.5326 44.2963 9.70516 42.9497C7.90172 41.5791 7 39.6314 7 37.1066C7 36.5776 7.06005 35.9283 7.18033 35.1589C7.49292 33.4275 7.93779 31.3476 8.51483 28.9189C10.1499 22.3063 14.37 19 21.175 19C23.0266 19 24.6857 19.3126 26.1525 19.9378C27.6193 20.5389 28.7735 21.4526 29.6151 22.679C30.4568 23.8813 30.8775 25.324 30.8775 27.0073C30.8775 27.5122 30.8174 28.1495 30.6972 28.9189C30.3365 31.059 29.9037 33.1389 29.3987 35.1589C28.5571 38.4531 27.1023 40.9178 25.0343 42.553C22.9664 44.164 20.2011 44.9695 16.7385 44.9695ZM17.2435 39.7757C18.5901 39.7757 19.7323 39.3789 20.6701 38.5853C21.6319 37.7919 22.3172 36.5776 22.726 34.9424C23.279 32.6821 23.6998 30.7103 23.9884 29.0271C24.0846 28.5221 24.1326 28.0051 24.1326 27.4761C24.1326 25.288 22.9905 24.1939 20.7062 24.1939C19.3596 24.1939 18.2054 24.5907 17.2435 25.3842C16.3057 26.1777 15.6324 27.392 15.2237 29.0271C14.7908 30.6382 14.358 32.6099 13.9252 34.9424C13.829 35.4233 13.7809 35.9283 13.7809 36.4573C13.7809 38.6695 14.9351 39.7757 17.2435 39.7757ZM32.5336 44.6089C32.2691 44.6089 32.0647 44.5247 31.9204 44.3564C31.8002 44.164 31.7642 43.9476 31.8122 43.7071L36.7898 20.2624C36.8378 19.9979 36.9701 19.7814 37.1865 19.6131C37.4029 19.4449 37.6313 19.3606 37.8718 19.3606H47.4661C50.1352 19.3606 52.2753 19.9137 53.8863 21.0198C55.5214 22.126 56.339 23.725 56.339 25.817C56.339 26.4182 56.2669 27.0434 56.1226 27.6925C55.5215 30.4578 54.3072 32.5017 52.4797 33.8243C50.6762 35.1468 48.1995 35.808 45.0495 35.808H40.1802L38.521 43.7071C38.4729 43.9717 38.3407 44.1881 38.1243 44.3564C37.9079 44.5247 37.6794 44.6089 37.4389 44.6089H32.5336ZM45.302 30.8306C46.3119 30.8306 47.1895 30.554 47.935 30.001C48.7045 29.4479 49.2095 28.6544 49.4499 27.6204C49.5221 27.2117 49.5581 26.851 49.5581 26.5384C49.5581 25.841 49.3537 25.312 48.9449 24.9513C48.5361 24.5666 47.8388 24.3743 46.853 24.3743H42.5247L41.154 30.8306H45.302Z" fill="white"/>
</svg>
