<svg width="64" height="64" viewBox="0 0 64 64" fill="none" xmlns="http://www.w3.org/2000/svg">
<g clip-path="url(#clip0_3360_8085)">
<g filter="url(#filter0_d_3360_8085)">
<path d="M58.6424 31.2821C58.6424 31.5471 58.6386 31.8122 58.6311 32.0772H58.6006H45.916V31.4979H33.678C33.678 31.3767 33.6818 31.2556 33.6818 31.1382C33.6818 31.0208 33.6818 30.8959 33.678 30.7785H45.916V30.2029H45.935H58.6196C58.6349 30.5626 58.6424 30.9224 58.6424 31.2821ZM33.4621 28.6732L45.439 27.2002L45.5109 27.7758L58.1575 26.2195C58.0367 25.5986 57.8927 24.9851 57.7298 24.3831L45.2797 25.9166L45.3517 26.4922L33.3182 27.9727C33.3713 28.2075 33.4205 28.4422 33.4621 28.6808V28.6732ZM32.8374 26.3559L44.284 23.497L44.4242 24.0574L56.571 21.0245C56.3212 20.4376 56.0523 19.8582 55.7647 19.294L43.9733 22.2399L44.1135 22.8003L32.5723 25.6856C32.667 25.909 32.7541 26.1324 32.8374 26.3596V26.3559ZM31.8226 24.1862L42.5233 20.146L42.7277 20.6875L54.0492 16.4125C53.6822 15.8748 53.2958 15.3523 52.887 14.8449L42.0649 18.9305L42.2697 19.472L31.4402 23.5614C31.5727 23.7659 31.7014 23.9742 31.8226 24.1862ZM30.4178 22.1794L39.869 17.2531L40.1338 17.7681L50.5849 12.3193C50.1038 11.8535 49.604 11.4106 49.089 10.9827L39.2667 16.102L39.5319 16.617L29.9218 21.6265C30.0884 21.8083 30.255 21.99 30.414 22.1794H30.4178ZM28.1383 20.0135L36.6958 14.5723L37.0063 15.0607L46.4497 9.05533C45.8552 8.67668 45.2495 8.32454 44.6248 7.99512L36.0029 13.478L36.3134 13.9664L27.5098 19.5629C27.7256 19.7068 27.9338 19.8582 28.1421 20.0135H28.1383ZM26.1163 18.7488L33.288 12.8683L33.6552 13.3152L41.7319 6.68878C41.0464 6.42751 40.3423 6.19275 39.6303 5.98828L32.4663 11.8649L32.8336 12.3117L25.4007 18.408C25.643 18.514 25.8816 18.6276 26.1163 18.7488ZM23.4393 17.7075L29.1039 12.0694L29.5091 12.4783L36.7072 5.32564C35.9271 5.1969 35.1358 5.10224 34.333 5.04165L28.1951 11.1493L28.6003 11.5582L22.6176 17.5106C22.894 17.5674 23.1667 17.6318 23.4393 17.7075ZM20.3079 17.2342L24.8252 11.7589L25.2719 12.1262L31.1524 5C30.2588 5.04165 29.3765 5.12874 28.5094 5.25748L23.8255 10.9334L24.2723 11.3007L19.3802 17.2304C19.5165 17.2266 19.6566 17.2228 19.7929 17.2228C19.9671 17.2228 20.1375 17.2228 20.3079 17.2304V17.2342ZM17.6005 17.397L21.0803 12.0126L21.565 12.3269L25.7718 5.8141C24.81 6.06401 23.8709 6.36693 22.9546 6.71907L19.9936 11.3045L20.4783 11.6188L16.6236 17.5863C16.9455 17.5106 17.2711 17.4462 17.6005 17.3932V17.397ZM14.594 18.2338L17.0969 13.5423L17.6043 13.815L20.9175 7.60889C19.8535 8.12765 18.8311 8.71454 17.8542 9.36585L15.9496 12.9327L16.4608 13.2054L13.5149 18.7261C13.8633 18.5481 14.223 18.3853 14.5902 18.2376L14.594 18.2338ZM12.4357 19.3357L13.4997 16.314L14.045 16.5072L16.1124 10.6381C15.0635 11.4711 14.0791 12.3799 13.1665 13.3606L12.2767 15.8862L12.822 16.0793L11.4285 20.0324C11.7542 19.7863 12.0874 19.5553 12.4319 19.3395L12.4357 19.3357ZM9.7814 21.4978L10.2509 19.3016L10.8151 19.4228L11.7617 15.0002C10.7659 16.2648 9.88363 17.6242 9.13013 19.0593L9.5504 19.1501L8.68711 22.7852C9.0241 22.3346 9.39138 21.9029 9.7814 21.4978ZM7.83135 24.065V21.157C7.12706 23.0162 6.62724 25.3297 6.3584 27.5978C6.68782 26.3407 7.18764 25.1555 7.83135 24.065ZM6.37733 34.7543C6.65375 36.6892 7.13842 38.5559 7.81241 40.3317V38.1849C7.19143 37.1247 6.70297 35.9736 6.37733 34.7543ZM8.77796 39.6198L9.53149 43.1337L9.11118 43.2247C9.86468 44.6635 10.747 46.0191 11.7428 47.2838L10.7962 42.8611L10.232 42.9823L9.75489 40.7595C9.41032 40.3962 9.0809 40.0177 8.77796 39.6161V39.6198ZM11.402 42.2326L12.803 46.2086L12.2578 46.4014L13.1476 48.927C14.0601 49.9078 15.0446 50.8167 16.0935 51.6495L14.026 45.7805L13.4808 45.9736L12.413 42.9368C12.0685 42.7174 11.7314 42.4862 11.4058 42.2401L11.402 42.2326ZM13.4922 43.5465L16.4456 49.0825L15.9344 49.3551L17.8391 52.922C18.816 53.5732 19.8383 54.1602 20.9023 54.6789L17.5892 48.4728L17.078 48.7454L14.5675 44.0425C14.2002 43.8949 13.8405 43.7282 13.4884 43.5502L13.4922 43.5465ZM16.6009 44.69L20.4593 50.6653L19.9746 50.9793L22.9357 55.565C23.852 55.9171 24.7911 56.2199 25.7528 56.4698L21.546 49.9571L21.0614 50.2715L17.5778 44.8794C17.2484 44.8265 16.9189 44.7619 16.5971 44.6862L16.6009 44.69ZM19.3574 45.0536L24.2496 50.9831L23.8028 51.3504L28.4867 57.0266C29.3538 57.1553 30.236 57.2422 31.1297 57.284L25.2492 50.154L24.8024 50.5213L20.2851 45.0461C20.1223 45.0536 19.9557 45.0536 19.7891 45.0536C19.6452 45.0536 19.4976 45.0536 19.3536 45.0461L19.3574 45.0536ZM22.6025 44.7735L28.5814 50.722L28.1762 51.1307L34.3141 57.2385C35.1168 57.178 35.9082 57.0833 36.6883 56.9546L29.4939 49.7982L29.0849 50.2107L23.4242 44.5766C23.1553 44.6486 22.8789 44.7165 22.6025 44.7735ZM25.3893 43.8836L32.8147 49.9761L32.4474 50.4229L39.6113 56.2994C40.3233 56.095 41.0274 55.8601 41.7129 55.599L33.6325 48.9725L33.2652 49.4193L26.1012 43.5428C25.8664 43.664 25.6279 43.7774 25.3855 43.8836H25.3893ZM27.4946 42.7249L36.2869 48.3176L35.9764 48.8061L44.5983 54.2888C45.223 53.9595 45.8328 53.6034 46.4232 53.2286L36.9798 47.2234L36.6693 47.7116L28.1232 42.2781C27.9149 42.4333 27.7067 42.5847 27.4908 42.7286L27.4946 42.7249ZM29.918 40.6651L39.5166 45.6671L39.2518 46.1821L49.0737 51.3012C49.5887 50.8734 50.0885 50.4303 50.5696 49.9645L40.1189 44.5158L39.8537 45.0308L30.414 40.1121C30.255 40.3015 30.0922 40.4869 29.9218 40.6651H29.918ZM31.4364 38.7263L42.2507 42.8118L42.0463 43.3533L52.868 47.439C53.2731 46.9317 53.6594 46.4092 54.0305 45.8715L42.7086 41.5964L42.5043 42.1379L31.8188 38.1015C31.6976 38.3136 31.5689 38.5219 31.4364 38.7263ZM32.5685 36.6059L44.0908 39.4836L43.9509 40.0442L55.742 42.9901C56.0336 42.4258 56.3021 41.8463 56.5524 41.2596L44.4052 38.2265L44.2649 38.7869L32.8336 35.9319C32.7503 36.1591 32.6594 36.3825 32.5685 36.6059ZM33.3182 34.3188L45.3327 35.7956L45.2607 36.3711L57.7107 37.9047C57.8737 37.2988 58.0177 36.6854 58.1389 36.0682L45.4919 34.512L45.4199 35.0875L33.4621 33.6146C33.4205 33.8531 33.3713 34.0879 33.3182 34.3226V34.3188Z" fill="white"/>
</g>
</g>
<defs>
<filter id="filter0_d_3360_8085" x="5.00037" y="5" width="55.0002" height="55.0012" filterUnits="userSpaceOnUse" color-interpolation-filters="sRGB">
<feFlood flood-opacity="0" result="BackgroundImageFix"/>
<feColorMatrix in="SourceAlpha" type="matrix" values="0 0 0 0 0 0 0 0 0 0 0 0 0 0 0 0 0 0 127 0" result="hardAlpha"/>
<feOffset dy="1.35802"/>
<feGaussianBlur stdDeviation="0.679012"/>
<feComposite in2="hardAlpha" operator="out"/>
<feColorMatrix type="matrix" values="0 0 0 0 0 0 0 0 0 0 0 0 0 0 0 0 0 0 0.25 0"/>
<feBlend mode="normal" in2="BackgroundImageFix" result="effect1_dropShadow_3360_8085"/>
<feBlend mode="normal" in="SourceGraphic" in2="effect1_dropShadow_3360_8085" result="shape"/>
</filter>
<clipPath id="clip0_3360_8085">
<rect width="55" height="55" fill="white" transform="translate(5 5)"/>
</clipPath>
</defs>
</svg>
