<svg width="64" height="64" viewBox="0 0 64 64" fill="none" xmlns="http://www.w3.org/2000/svg">
<g clip-path="url(#clip0_3291_8050)">
<path d="M50.6153 38.1486C48.8473 37.0606 46.8073 36.7886 44.7673 36.7886C43.1353 36.7886 40.5513 35.7006 40.5513 32.5726C40.5513 31.4846 40.9593 30.3966 41.7753 29.5806C42.5913 28.7646 43.6793 28.3566 44.7673 28.3566C46.8073 28.2206 48.8473 27.9486 50.6153 26.9966C52.2473 26.0446 53.6073 24.6846 54.5593 23.0526C55.5113 21.4206 55.9193 19.6526 55.9193 17.7486C55.9193 15.8446 55.3753 14.0766 54.5593 12.4446C53.6073 10.8126 52.2473 9.45263 50.6153 8.50063C48.9833 7.54863 47.2153 7.14062 45.3113 7.14062C43.4073 7.14062 41.6393 7.68462 40.0073 8.50063C38.3753 9.45263 37.0153 10.8126 36.0633 12.4446C35.1113 14.0766 34.7033 15.8446 34.5673 17.7486C34.5673 19.7886 35.2473 21.6926 36.1993 23.4606C37.0153 24.9566 37.4233 27.6766 34.7033 29.3086C33.7513 29.8526 32.5273 29.9886 31.4393 29.7166C30.3513 29.4446 29.3993 28.7646 28.8553 27.8126C27.7673 26.1806 26.5433 24.5486 24.7753 23.4606C23.1433 22.5086 21.3753 22.1006 19.4713 22.1006C17.5673 22.1006 15.7993 22.6446 14.1673 23.4606C12.5353 24.4126 11.1753 25.7726 10.2233 27.4046C9.27128 29.0366 8.86328 30.8046 8.86328 32.7086C8.86328 34.6126 9.40728 36.3806 10.2233 38.0126C11.1753 39.6446 12.5353 41.0046 14.1673 41.9566C15.7993 42.9086 17.5673 43.3166 19.4713 43.3166C21.3753 43.3166 23.1433 42.7726 24.7753 41.9566C26.5433 40.8686 27.9033 39.3726 28.8553 37.6046C29.6713 36.2446 31.8473 34.4766 34.5673 35.9726C35.5193 36.5166 36.1993 37.4686 36.4713 38.5566C36.7433 39.6446 36.6073 40.7326 36.0633 41.8206C35.1113 43.5886 34.4313 45.4926 34.4313 47.5326C34.4313 49.4366 34.9753 51.2046 35.7913 52.8366C36.7433 54.4686 38.1033 55.8286 39.7353 56.7806C41.3673 57.7326 43.1353 58.1406 45.0393 58.1406C46.9433 58.1406 48.7113 57.5966 50.3433 56.7806C51.9753 55.8286 53.3353 54.4686 54.2873 52.8366C55.2393 51.2046 55.6473 49.4366 55.6473 47.5326C55.6473 45.6286 55.1033 43.8606 54.2873 42.2286C53.6073 40.3246 52.2473 38.9646 50.6153 38.1486Z" fill="white"/>
</g>
<defs>
<clipPath id="clip0_3291_8050">
<rect width="46.92" height="51" fill="white" transform="translate(9 7)"/>
</clipPath>
</defs>
</svg>
