<svg width="64" height="64" viewBox="0 0 64 64" fill="none" xmlns="http://www.w3.org/2000/svg">
<g clip-path="url(#clip0_3297_8124)">
<path d="M8.15039 39.9256V33.9449H20.1119C21.761 33.9449 23.1684 33.3589 24.3339 32.1868C25.5059 31.0213 26.0919 29.614 26.0919 27.9648H32.0727C32.0727 31.2704 30.9035 34.0923 28.566 36.4298C26.2284 38.7608 23.4102 39.9264 20.1112 39.9264H8.15039V39.9256Z" fill="white"/>
<path d="M20.1119 16C16.8064 16 13.9845 17.1691 11.6469 19.5067C9.3159 21.8442 8.15039 24.6625 8.15039 27.9615H14.1311C14.1311 26.3124 14.7172 24.9051 15.8892 23.7396C17.0547 22.5675 18.462 21.9815 20.1112 21.9815H32.0727V16.0007H20.1112L20.1119 16Z" fill="white"/>
<path d="M32.0456 16.0007H38.0264C38.0264 17.6499 38.6124 19.0572 39.7845 20.2227C40.95 21.3947 42.3573 21.9808 44.0064 21.9808V27.9615C40.7009 27.9615 37.879 26.7924 35.5414 24.4548C33.2104 22.1173 32.0449 19.299 32.0449 16" fill="white"/>
<path d="M32.0449 39.9225C32.0449 36.6234 33.2104 33.8059 35.5414 31.4676C37.879 29.1301 40.7009 27.9609 44.0064 27.9609C47.312 27.9609 50.123 29.1301 52.4613 31.4676C54.7988 33.8052 55.9679 36.6234 55.9679 39.9225H49.9872C49.9872 38.2733 49.4012 36.866 48.2291 35.7005C47.0636 34.5284 45.6563 33.9424 44.0072 33.9424C42.358 33.9424 40.9507 34.5284 39.7852 35.7005C38.6132 36.866 38.0271 38.2733 38.0271 39.9225H32.0464" fill="white"/>
<path d="M55.969 18.9904C55.969 17.3388 54.6302 16 52.9787 16C51.3271 16 49.9883 17.3388 49.9883 18.9904C49.9883 20.6419 51.3271 21.9808 52.9787 21.9808C54.6302 21.9808 55.969 20.6419 55.969 18.9904Z" fill="white"/>
<path d="M9.34995 44.2011V44.9941H14.065C14.5123 44.9941 14.7396 45.2221 14.7396 45.6775V47.8284C14.7396 48.2837 14.5116 48.5117 14.065 48.5117H8.66663C8.23673 48.5117 8 48.2082 8 47.8284C8 47.4486 8.23601 47.1538 8.66663 47.1538H13.3897V46.3528H8.66663C8.2193 46.3528 8 46.1248 8 45.6782V43.5193C8 43.064 8.2193 42.8359 8.66663 42.8359H14.065C14.4782 42.8359 14.7396 43.1482 14.7396 43.5193C14.7396 43.8903 14.4782 44.2026 14.065 44.2026H9.34995V44.2011Z" fill="white"/>
<path d="M16.3834 48.5124C15.9361 48.5124 15.7168 48.2844 15.7168 47.8291V43.5193C15.7168 43.064 15.9361 42.8359 16.3834 42.8359H21.7564C22.1863 42.8359 22.4397 43.1482 22.4397 43.5193C22.4397 43.8903 22.187 44.2026 21.7564 44.2026H17.058V44.9956H21.6801C22.11 44.9956 22.3547 45.3078 22.3547 45.6789C22.3547 46.05 22.11 46.3535 21.6801 46.3535H17.058V47.1545H21.7811C22.211 47.1545 22.4557 47.458 22.4557 47.8291C22.4557 48.2002 22.211 48.5124 21.7811 48.5124H16.3827H16.3834Z" fill="white"/>
<path d="M27.0543 44.2026V47.8966C27.0543 48.3098 26.7507 48.5633 26.3797 48.5633C26.0086 48.5633 25.705 48.3106 25.705 47.8966V44.2026H23.6805C23.2506 44.2026 23.0059 43.8903 23.0059 43.5193C23.0059 43.1482 23.2506 42.8359 23.6805 42.8359H29.0701C29.5 42.8359 29.7535 43.1482 29.7535 43.5193C29.7535 43.8903 29.5007 44.2026 29.0701 44.2026H27.0543Z" fill="white"/>
<path d="M34.0953 44.2026V47.8966C34.0953 48.3098 33.7917 48.5633 33.4207 48.5633C33.0496 48.5633 32.7461 48.3106 32.7461 47.8966V44.2026H30.7215C30.2916 44.2026 30.0469 43.8903 30.0469 43.5193C30.0469 43.1482 30.2916 42.8359 30.7215 42.8359H36.1111C36.541 42.8359 36.7945 43.1482 36.7945 43.5193C36.7945 43.8903 36.5418 44.2026 36.1111 44.2026H34.0953Z" fill="white"/>
<path d="M38.7787 43.4603V47.1544H43.4008C43.7973 47.1544 44.0253 47.4579 44.0253 47.829C44.0253 48.2 43.7973 48.5123 43.4008 48.5123H38.1041C37.6568 48.5123 37.4375 48.2843 37.4375 47.829V43.4596C37.4375 43.0297 37.741 42.793 38.1041 42.793C38.4672 42.793 38.7787 43.029 38.7787 43.4596V43.4603Z" fill="white"/>
<path d="M45.2721 48.5124C44.8248 48.5124 44.6055 48.2844 44.6055 47.8291V43.5193C44.6055 43.064 44.8248 42.8359 45.2721 42.8359H50.645C51.0749 42.8359 51.3284 43.1482 51.3284 43.5193C51.3284 43.8903 51.0749 44.2026 50.645 44.2026H45.9467V44.9956H50.5688C50.9987 44.9956 51.2434 45.3078 51.2434 45.6789C51.2434 46.05 50.9987 46.3535 50.5688 46.3535H45.9467V47.1545H50.6697C51.0996 47.1545 51.3444 47.458 51.3444 47.8291C51.3444 48.2002 51.0996 48.5124 50.6697 48.5124H45.2714H45.2721Z" fill="white"/>
<path d="M55.8658 42.7804C55.8658 42.8937 55.8113 42.9968 55.7082 43.0752L54.449 44.0584L55.7125 45.0126C55.8106 45.0911 55.8701 45.2043 55.8701 45.3176C55.8701 45.534 55.6879 45.7308 55.4715 45.7308C55.3633 45.7308 55.2943 45.701 55.2253 45.6422L53.8681 44.5261L52.5109 45.6422C52.4324 45.7061 52.3387 45.7308 52.2647 45.7308C52.0534 45.7308 51.8711 45.534 51.8711 45.3176C51.8711 45.2043 51.9103 45.1012 52.0236 45.0126L53.2871 44.0294L52.0279 43.0803C51.9248 43.0062 51.8755 42.9176 51.8755 42.7804C51.8755 42.5691 52.0621 42.3672 52.2741 42.3672C52.3627 42.3672 52.4361 42.397 52.5152 42.4609L53.8673 43.577L55.2195 42.4507C55.2834 42.3962 55.372 42.3723 55.4606 42.3672C55.682 42.3672 55.8636 42.5589 55.8636 42.7804H55.8658Z" fill="white"/>
</g>
<defs>
<clipPath id="clip0_3297_8124">
<rect width="48" height="32.6051" fill="white" transform="translate(8 16)"/>
</clipPath>
</defs>
</svg>
