<svg width="64" height="64" viewBox="0 0 64 64" fill="none" xmlns="http://www.w3.org/2000/svg">
<path d="M13.715 43.0823C14.0431 42.7545 14.488 42.5703 14.9518 42.5703H57.7496C58.5293 42.5703 58.9196 43.513 58.368 44.0641L49.9112 52.5141C49.5832 52.8419 49.1383 53.0262 48.6744 53.0262H5.87668C5.09704 53.0262 4.70675 52.0834 5.25826 51.5323L13.715 43.0823Z" fill="white"/>
<path d="M13.715 11.512C14.0431 11.1842 14.488 11 14.9518 11H57.7496C58.5293 11 58.9196 11.9428 58.368 12.4938L49.9112 20.9439C49.5832 21.2717 49.1383 21.4559 48.6744 21.4559H5.87668C5.09704 21.4559 4.70675 20.5131 5.25826 19.962L13.715 11.512Z" fill="white"/>
<path d="M49.9112 27.1957C49.5832 26.8679 49.1383 26.6836 48.6744 26.6836H5.87668C5.09704 26.6836 4.70675 27.6264 5.25826 28.1775L13.715 36.6275C14.0431 36.9553 14.488 37.1395 14.9518 37.1395H57.7496C58.5293 37.1395 58.9196 36.1967 58.368 35.6457L49.9112 27.1957Z" fill="white"/>
</svg>
