<svg width="64" height="64" viewBox="0 0 64 64" fill="none" xmlns="http://www.w3.org/2000/svg">
<g clip-path="url(#clip0_3297_8124)">
<path d="M53.7921 28.4391C53.7309 29.0223 53.6256 29.5947 53.4717 30.1464C52.6455 33.0975 50.7033 36.2772 48.2202 37.4931C40.4874 41.2785 36.468 33.1002 36.954 27.1386C37.2456 23.5584 38.4066 20.7117 37.512 17.8002C37.2267 16.8714 36.6201 16.0119 35.6265 15.5466C32.9004 14.2695 30.2328 16.0254 28.9926 17.8857C27.6543 19.8918 27.0261 22.4019 27.1962 24.696C27.3591 26.9064 28.1241 28.3554 29.2779 30.3345C30.8196 32.9787 32.4612 34.6959 33.0894 36.7263C33.4944 38.0349 33.7248 40.1472 31.8645 40.3245C29.8998 40.5126 29.9988 37.9368 29.9709 36.6444C29.8872 32.7168 27.3924 31.302 25.5141 26.7777C24.417 24.1353 23.9895 21.3408 24.6312 18.5823C25.5339 14.7006 27.7335 11.5713 31.6989 10.4886C34.8696 9.6228 38.5416 10.3329 40.5486 13.1094C42.9345 16.4106 42.4692 20.3049 41.499 23.7654C39.7035 30.1671 41.3073 33.219 42.804 34.0173C45.6381 35.5284 48.6117 33.8166 49.9311 32.0022C51.3603 30.0366 52.2126 26.451 52.0776 24.156C52.0263 23.2794 51.9489 22.5252 51.831 21.8484C48.2157 14.2515 40.4712 9 31.5 9C19.0737 9 9 19.0737 9 31.5C9 33.1416 9.1773 34.7418 9.5112 36.2835C9.477 35.1216 9.5913 33.9714 9.8919 32.8986C10.7181 29.9475 12.6603 26.7678 15.1434 25.5519C22.8762 21.7665 26.8956 29.9448 26.4096 35.9064C26.118 39.4866 24.957 42.3333 25.8516 45.2448C26.1369 46.1736 26.7435 47.0331 27.7371 47.4984C30.4632 48.7755 33.1308 47.0196 34.371 45.1593C35.7093 43.1532 36.3375 40.6431 36.1674 38.349C36.0045 36.1386 35.2395 34.6896 34.0866 32.7105C32.5449 30.0663 30.9033 28.3491 30.2751 26.3187C29.8701 25.0101 29.6397 22.8978 31.5 22.7205C33.4647 22.5324 33.3657 25.1082 33.3936 26.4006C33.4773 30.3282 35.9721 31.743 37.8504 36.2673C38.9475 38.9097 39.375 41.7042 38.7333 44.4627C37.8306 48.3444 35.631 51.4737 31.6656 52.5564C28.4949 53.4222 24.8229 52.7121 22.8159 49.9356C20.43 46.6344 20.8953 42.7401 21.8655 39.2796C23.661 32.8779 22.0572 29.826 20.5605 29.0277C17.7264 27.5175 14.7528 29.2284 13.4334 31.0428C12.0042 33.0084 11.1519 36.594 11.2869 38.889C11.3706 40.3128 11.5236 41.4144 11.8062 42.3864C15.6429 49.3119 23.0238 54 31.5 54C43.9263 54 54 43.9263 54 31.5C54 30.4614 53.928 29.4399 53.7921 28.4391Z" fill="white"/>
</g>
<defs>
<clipPath id="clip0_3297_8124">
<rect width="45" height="45" fill="white" transform="translate(9 9)"/>
</clipPath>
</defs>
</svg>
