<svg width="64" height="64" viewBox="0 0 64 64" fill="none" xmlns="http://www.w3.org/2000/svg">
<path d="M21.2089 42.0746C20.9847 42.0741 20.775 42.1854 20.6499 42.3714L14.7855 51.0929C14.1859 51.9846 14.8241 53.1844 15.8987 53.1855L40.1563 53.2115C40.6036 53.212 41.0217 52.9899 41.2717 52.6189L58.7676 26.6523C59.3687 25.7601 58.7295 24.5586 57.6537 24.5586H41.3745C40.4252 24.5586 39.538 25.0306 39.0075 25.8177L30.0933 39.0461C28.8105 40.9499 26.6629 42.0888 24.3671 42.0828L21.2089 42.0746Z" fill="white"/>
<path d="M44.3509 21.2621L50.5409 12.0948C51.1433 11.2028 50.5042 10 49.4278 10L24.877 10C24.4308 10 24.0136 10.2217 23.7638 10.5916L6.23223 36.5589C5.62997 37.451 6.2691 38.6537 7.34543 38.6537H21.6252C23.8585 38.6537 25.9457 37.5434 27.1939 35.6915L34.9228 24.2244C36.171 22.3724 38.2583 21.2621 40.4917 21.2621H44.3509Z" fill="white"/>
</svg>
