<svg width="64" height="64" viewBox="0 0 64 64" fill="none" xmlns="http://www.w3.org/2000/svg">
<g clip-path="url(#clip0_3291_8050)">
<path d="M54.125 21.7619C51.8281 19.6411 48.6508 16.4025 46.063 14.1057L45.9098 13.9985C45.6551 13.7939 45.3678 13.6334 45.06 13.5238C38.8202 12.36 9.78 6.93174 9.21344 7.00065C9.05468 7.02288 8.90294 7.08044 8.76937 7.16909L8.62391 7.28393C8.44478 7.46584 8.30874 7.68561 8.22578 7.92706L8.1875 8.02659V8.57018V8.6544C11.4567 17.7577 24.3652 47.5788 26.907 54.5766C27.0602 55.0513 27.3511 55.9547 27.8947 56.0006H28.0172C28.3081 56.0006 29.5484 54.3622 29.5484 54.3622C29.5484 54.3622 51.7209 27.4735 53.9642 24.61C54.2546 24.2573 54.5109 23.8779 54.7298 23.4769C54.7857 23.1631 54.7594 22.8403 54.6534 22.5397C54.5474 22.2392 54.3653 21.9712 54.125 21.7619ZM35.237 24.8933L44.7002 17.0457L50.2509 22.16L35.237 24.8933ZM31.562 24.3803L15.2695 11.0278L41.63 15.8896L31.562 24.3803ZM33.032 27.8792L49.7073 25.1919L30.6433 48.1607L33.032 27.8792ZM13.0569 12.36L30.1992 26.9069L27.7186 48.176L13.0569 12.36Z" fill="white"/>
</g>
<defs>
<clipPath id="clip0_3291_8050">
<rect width="49" height="49" fill="white" transform="translate(7 7)"/>
</clipPath>
</defs>
</svg>
