<svg width="64" height="64" viewBox="0 0 64 64" fill="none" xmlns="http://www.w3.org/2000/svg">
<path fill-rule="evenodd" clip-rule="evenodd" d="M40.9093 39.1289C40.9093 47.0813 34.5693 53.5279 26.7485 53.5279C18.9279 53.5279 12.5879 47.0813 12.5879 39.1289H19.5238C19.5238 43.105 22.8382 46.3283 26.7485 46.3283C30.6589 46.3283 33.9734 43.105 33.9734 39.1289H40.9093Z" fill="white"/>
<path d="M44.623 35.355H51.5874V28.2734H44.623V35.355Z" fill="white"/>
<path d="M40.9075 28.2734H33.9434V35.355H40.9075V28.2734Z" fill="white"/>
<path d="M23.2656 35.355H30.2299V28.2734H23.2656V35.355Z" fill="white"/>
<path d="M19.5522 28.2734H12.5879V35.355H19.5522V28.2734Z" fill="white"/>
<path fill-rule="evenodd" clip-rule="evenodd" d="M23.2656 24.7351C23.2656 16.7826 29.6056 10.3359 37.4264 10.3359C45.247 10.3359 51.587 16.7826 51.587 24.7351H44.6513C44.6513 20.7589 41.3368 17.5355 37.4264 17.5355C33.516 17.5355 30.2015 20.7589 30.2015 24.7351H23.2656Z" fill="white"/>
</svg>
