<svg width="64" height="64" viewBox="0 0 64 64" fill="none" xmlns="http://www.w3.org/2000/svg">
<g clip-path="url(#clip0_3297_8124)">
<path d="M46.6026 13.8085C46.6718 12.5941 46.8371 11.7932 47.1694 11.0617C47.3009 10.7721 47.4241 10.5352 47.4431 10.5352C47.4621 10.5352 47.405 10.7489 47.3161 11.01C47.0744 11.7199 47.0348 12.6909 47.2013 13.8206C47.4125 15.254 47.5325 15.4608 49.053 17.0092C49.7661 17.7355 50.5956 18.6514 50.8963 19.0447L51.443 19.7598L50.8963 19.2487C50.2277 18.6239 48.6899 17.4051 48.3502 17.2309C48.1225 17.114 48.0886 17.116 47.9482 17.2554C47.8188 17.3838 47.7915 17.5767 47.7734 18.4888C47.7455 19.9101 47.551 20.8225 47.0818 21.7347C46.828 22.2282 46.788 22.1229 47.0177 21.5659C47.1891 21.1501 47.2066 20.9673 47.2053 19.5913C47.2027 16.8265 46.8733 16.1618 44.9415 15.0232C44.4522 14.7347 43.6458 14.3188 43.1497 14.0987C42.6535 13.8787 42.2595 13.687 42.2738 13.6727C42.3286 13.6184 44.2124 14.1664 44.9707 14.457C46.0986 14.8893 46.2848 14.9454 46.4218 14.8932C46.5136 14.8583 46.558 14.5918 46.6026 13.8085Z" fill="white"/>
<path d="M22.774 9.78377C22.1048 9.68054 22.0766 9.66842 22.3914 9.62029C22.9949 9.528 24.4197 9.65379 25.4016 9.88599C27.6937 10.4279 29.7794 11.8161 32.0059 14.2816L32.5974 14.9365L33.4436 14.8012C37.0082 14.2315 40.6346 14.6843 43.6677 16.0779C44.5021 16.4613 45.8178 17.2245 45.9821 17.4206C46.0345 17.4831 46.1306 17.8855 46.1957 18.3148C46.4211 19.8001 46.3083 20.9385 45.8515 21.7888C45.603 22.2516 45.5891 22.3983 45.7562 22.7942C45.8896 23.1103 46.2615 23.3442 46.6298 23.3436C47.3835 23.3427 48.1948 22.1308 48.5707 20.4446L48.72 19.7748L49.0159 20.1081C50.6384 21.9364 51.9127 24.4298 52.1316 26.2045L52.1886 26.6672L51.9159 26.2466C51.4466 25.5228 50.975 25.0299 50.3711 24.6325C49.2825 23.9161 48.1314 23.6723 45.083 23.5126C42.3298 23.3682 40.7716 23.1343 39.2266 22.6332C36.5978 21.7808 35.2725 20.6455 32.1499 16.5707C30.7629 14.7609 29.9057 13.7595 29.0528 12.9531C27.1151 11.1207 25.2112 10.1598 22.774 9.78377Z" fill="white"/>
<path d="M24.0746 18.55C22.7164 16.6901 21.8759 13.8383 22.0579 11.7066L22.114 11.0469L22.4233 11.103C23.0039 11.2083 24.0051 11.5789 24.4738 11.8621C25.7602 12.6392 26.3172 13.6622 26.8838 16.2893C27.0498 17.0588 27.2675 17.9296 27.3677 18.2244C27.5291 18.6989 28.1385 19.8073 28.6341 20.5271C28.991 21.0455 28.7539 21.2912 27.965 21.2204C26.76 21.1122 25.1276 19.9918 24.0746 18.55Z" fill="white"/>
<path d="M44.9548 32.3935C38.6069 29.8514 36.3711 27.645 36.3711 23.9219C36.3711 23.3741 36.3901 22.9258 36.4132 22.9258C36.4363 22.9258 36.6819 23.1066 36.9589 23.3277C38.2462 24.3545 39.6876 24.7931 43.6781 25.3721C46.0264 25.7129 47.3477 25.9881 48.5667 26.3901C52.4413 27.6681 54.8383 30.2615 55.41 33.7941C55.5761 34.8206 55.4787 36.7454 55.2095 37.76C54.9968 38.5612 54.348 40.0055 54.1759 40.0608C54.1282 40.0763 54.0814 39.8944 54.0692 39.647C54.0039 38.3205 53.33 37.0292 52.1981 36.0618C50.9112 34.962 49.1822 34.0863 44.9548 32.3935Z" fill="white"/>
<path d="M40.4977 33.4487C40.4181 32.978 40.2803 32.3769 40.1912 32.1128L40.0292 31.6328L40.33 31.9687C40.7464 32.4335 41.0754 33.0283 41.3542 33.8203C41.5671 34.4249 41.5909 34.6048 41.5894 35.5871C41.5877 36.5517 41.5611 36.7538 41.3646 37.298C41.0547 38.1561 40.6702 38.7645 40.0249 39.4176C38.8654 40.5914 37.3746 41.2413 35.2232 41.5108C34.8492 41.5576 33.7592 41.6366 32.8011 41.6861C30.3862 41.811 28.7969 42.0691 27.3688 42.5678C27.1634 42.6396 26.9801 42.6832 26.9614 42.6647C26.9037 42.6074 27.876 42.031 28.6791 41.6462C29.8116 41.1036 30.9389 40.8076 33.4647 40.3892C34.7123 40.1825 36.0007 39.9318 36.328 39.832C39.4178 38.8899 41.0061 36.4584 40.4977 33.4487Z" fill="white"/>
<path d="M43.4093 38.5889C42.566 36.7858 42.3722 35.0447 42.8343 33.4209C42.8838 33.2475 42.9632 33.1055 43.0111 33.1055C43.0588 33.1055 43.2579 33.2124 43.4532 33.3433C43.842 33.6034 44.6214 34.0418 46.6981 35.1678C49.2896 36.573 50.767 37.6612 51.7717 38.9043C52.6517 39.993 53.1963 41.2329 53.4583 42.745C53.6067 43.6015 53.5198 45.6623 53.2987 46.5247C52.602 49.2441 50.9828 51.3802 48.6731 52.6267C48.3347 52.8093 48.0309 52.9592 47.998 52.9598C47.9651 52.9605 48.0885 52.6487 48.272 52.2669C49.049 50.6516 49.1375 49.0803 48.5501 47.3313C48.1904 46.2604 47.4571 44.9538 45.9764 42.7453C44.2549 40.1778 43.8328 39.4945 43.4093 38.5889Z" fill="white"/>
<path d="M19.5646 48.3201C21.9203 46.342 24.8513 44.9366 27.5212 44.5052C28.6718 44.3193 30.5886 44.3931 31.654 44.6643C33.362 45.099 34.8898 46.0727 35.6843 47.2327C36.4608 48.3666 36.794 49.3545 37.1408 51.5528C37.2777 52.4199 37.4265 53.2907 37.4715 53.4879C37.732 54.6271 38.2388 55.5378 38.867 55.9951C39.8647 56.7214 41.5826 56.7665 43.2725 56.1109C43.5594 55.9995 43.8084 55.9227 43.8259 55.94C43.8872 56.0006 43.0363 56.5672 42.4358 56.8654C41.6281 57.2667 40.9858 57.4218 40.1322 57.4218C38.5845 57.4218 37.2994 56.6388 36.2272 55.0419C36.0162 54.7277 35.5419 53.7864 35.1732 52.9503C34.0411 50.3821 33.4821 49.5998 32.1676 48.7435C31.0237 47.9985 29.5484 47.865 28.4385 48.4063C26.9807 49.1173 26.5739 50.9702 27.618 52.1445C28.033 52.6112 28.8069 53.0138 29.4397 53.092C30.6236 53.2384 31.641 52.3427 31.641 51.1539C31.641 50.382 31.3427 49.9415 30.5918 49.6045C29.5662 49.1441 28.4636 49.6822 28.469 50.6405C28.4712 51.0492 28.6502 51.3057 29.062 51.4911C29.3262 51.6099 29.3324 51.6194 29.1169 51.5749C28.1758 51.3808 27.9554 50.2525 28.712 49.5034C29.6204 48.6041 31.4989 49.0009 32.1439 50.2284C32.415 50.744 32.4464 51.7708 32.2102 52.3908C31.6814 53.7785 30.1395 54.5084 28.5755 54.1112C27.5106 53.8409 27.077 53.5481 25.793 52.2328C23.5621 49.9471 22.6959 49.5042 19.4796 49.0047L18.8633 48.9092L19.5646 48.3201Z" fill="white"/>
<path fill-rule="evenodd" clip-rule="evenodd" d="M9.09725 7.41014C16.5477 16.4039 21.6793 20.1145 22.2496 20.8985C22.7203 21.5458 22.5432 22.1277 21.7365 22.5839C21.288 22.8374 20.3658 23.0943 19.904 23.0943C19.3818 23.0943 19.2025 22.894 19.2025 22.894C18.8997 22.6083 18.7291 22.6583 17.1741 19.913C15.0153 16.5813 13.2086 13.8175 13.1593 13.7713C13.0454 13.6643 13.0473 13.6679 16.954 20.6201C17.5852 22.0691 17.0796 22.601 17.0796 22.8073C17.0796 23.2272 16.9644 23.4479 16.4437 24.0255C15.5756 24.9888 15.1876 26.0709 14.9075 28.3106C14.5934 30.8214 13.7104 32.5949 11.2633 35.6302C9.83085 37.4071 9.59645 37.7328 9.23501 38.4489C8.77973 39.3507 8.65454 39.8558 8.60381 40.9947C8.55018 42.1987 8.65463 42.9765 9.02449 44.1278C9.34829 45.1357 9.68628 45.8011 10.5503 47.1322C11.296 48.2808 11.7254 49.1345 11.7254 49.4684C11.7254 49.7341 11.7764 49.7344 12.9319 49.4749C15.6971 48.8539 17.9424 47.7616 19.2053 46.423C19.9868 45.5944 20.1702 45.137 20.1763 44.0015C20.1802 43.2589 20.1538 43.1035 19.952 42.6762C19.6235 41.9809 19.0253 41.4026 17.707 40.5064C15.9797 39.3319 15.2419 38.3864 15.0381 37.0861C14.8709 36.0192 15.0649 35.2664 16.0205 33.2745C17.0095 31.2126 17.2546 30.334 17.4204 28.2557C17.5275 26.9131 17.6758 26.3836 18.0637 25.9585C18.4683 25.5153 18.8324 25.3652 19.8336 25.2292C21.4657 25.0074 22.5051 24.5873 23.3593 23.8044C24.1004 23.1253 24.4106 22.4707 24.4582 21.4855L24.4943 20.7388L24.0801 20.2585C22.5803 18.5194 8.09287 6.04297 8.00057 6.04297C7.98085 6.04297 8.47438 6.65824 9.09725 7.41014ZM12.5673 42.3571C12.9064 41.7598 12.7262 40.992 12.159 40.6169C11.6231 40.2624 10.7905 40.4293 10.7905 40.8912C10.7905 41.0321 10.8689 41.1347 11.0455 41.2251C11.3429 41.3774 11.3644 41.5484 11.1305 41.8982C10.8935 42.2524 10.9126 42.5638 11.1844 42.7755C11.6225 43.1166 12.2425 42.929 12.5673 42.3571Z" fill="white"/>
<path fill-rule="evenodd" clip-rule="evenodd" d="M25.5231 25.622C24.7569 25.856 24.012 26.6637 23.7814 27.5107C23.6408 28.0272 23.7206 28.9336 23.9313 29.2135C24.2717 29.6656 24.6008 29.7847 25.4921 29.7784C27.2371 29.7663 28.754 29.022 28.9303 28.0915C29.0749 27.3288 28.4087 26.2717 27.491 25.8076C27.0174 25.5682 26.0104 25.4732 25.5231 25.622ZM27.563 27.2085C27.832 26.8282 27.7144 26.4171 27.2567 26.1392C26.3852 25.6099 25.0672 26.0479 25.0672 26.8668C25.0672 27.2744 25.7545 27.7191 26.3845 27.7191C26.8038 27.7191 27.3777 27.4704 27.563 27.2085Z" fill="white"/>
</g>
<defs>
<clipPath id="clip0_3297_8124">
<rect width="47.4922" height="51.529" fill="white" transform="translate(8 6)"/>
</clipPath>
</defs>
</svg>
